<svg xmlns="http://www.w3.org/2000/svg" viewBox="0 0 28.83 28.83"><g id="Layer_2" data-name="Layer 2"><g id="Layer_1-2" data-name="Layer 1"><circle cx="14.41" cy="14.41" r="14.41" style="fill:#616160"/><path d="M24.61,4.22A14.42,14.42,0,0,1,4.22,24.61" style="fill:#999;opacity:0.46"/><path d="M14.41,23.62a9,9,0,1,1,9-9A9,9,0,0,1,14.41,23.62Zm0-16.52a7.52,7.52,0,1,0,7.52,7.52A7.53,7.53,0,0,0,14.41,7.1Z" style="fill:#fff"/><path d="M16.3,12.37a1.91,1.91,0,1,1,0-2.69A1.9,1.9,0,0,1,16.3,12.37Z" style="fill:#fff"/><path d="M18.54,18.36a1.9,1.9,0,1,1,0-2.69A1.89,1.89,0,0,1,18.54,18.36Z" style="fill:#fff"/><path d="M12.93,17.69a1.91,1.91,0,1,1,0-2.7A1.92,1.92,0,0,1,12.93,17.69Z" style="fill:#fff"/></g></g></svg>