<svg xmlns="http://www.w3.org/2000/svg" viewBox="0 0 28.83 28.83"><g id="Layer_2" data-name="Layer 2"><g id="Layer_1-2" data-name="Layer 1"><circle cx="14.41" cy="14.41" r="14.41" style="fill:#616160"/><path d="M24.61,4.22A14.42,14.42,0,0,1,4.22,24.61" style="fill:#999;opacity:0.46"/><g id="icon-server"><path d="M14.41,6.58a23.28,23.28,0,0,1,3.06.19,17.2,17.2,0,0,1,2.72.55,5.72,5.72,0,0,1,2,1,1.76,1.76,0,0,1,.74,1.38V20.49a1.74,1.74,0,0,1-.74,1.37,5.72,5.72,0,0,1-2,1,18.36,18.36,0,0,1-2.72.56,25.14,25.14,0,0,1-3.06.19,25.39,25.39,0,0,1-3.06-.19,18.22,18.22,0,0,1-2.71-.56,5.72,5.72,0,0,1-2-1,1.75,1.75,0,0,1-.75-1.37V9.67a1.77,1.77,0,0,1,.75-1.38,5.72,5.72,0,0,1,2-1,17.06,17.06,0,0,1,2.71-.55A23.5,23.5,0,0,1,14.41,6.58Zm7,13.89V17a10.84,10.84,0,0,1-3.05.91,24.58,24.58,0,0,1-3.91.31,24.46,24.46,0,0,1-3.9-.31,10.43,10.43,0,0,1-3-.91v3.54c0,.08.13.19.32.32a5.5,5.5,0,0,0,.88.4,11.78,11.78,0,0,0,1.38.4,16.4,16.4,0,0,0,1.94.3,23.39,23.39,0,0,0,2.43.12,23.59,23.59,0,0,0,2.44-.12,16.4,16.4,0,0,0,1.94-.3,12.92,12.92,0,0,0,1.38-.41,5.07,5.07,0,0,0,.88-.4A.69.69,0,0,0,21.37,20.47Zm0-5.41V11.54a10.84,10.84,0,0,1-3.05.91,23.47,23.47,0,0,1-3.91.31,24.46,24.46,0,0,1-3.9-.31,10.43,10.43,0,0,1-3-.91v3.54c0,.08.13.19.32.32a5.5,5.5,0,0,0,.88.4,11.78,11.78,0,0,0,1.38.4,16.4,16.4,0,0,0,1.94.3,23.39,23.39,0,0,0,2.43.12,23.59,23.59,0,0,0,2.44-.12,16.4,16.4,0,0,0,1.94-.3,12.17,12.17,0,0,0,1.37-.4,4.36,4.36,0,0,0,.88-.41.67.67,0,0,0,.33-.33Zm-7-6.94A23.34,23.34,0,0,0,12,8.24a16.32,16.32,0,0,0-1.92.3,13.18,13.18,0,0,0-1.38.39,5.13,5.13,0,0,0-.89.41c-.19.12-.31.23-.34.33A.88.88,0,0,0,7.8,10a5.23,5.23,0,0,0,.89.4,13.18,13.18,0,0,0,1.38.39,16.32,16.32,0,0,0,1.92.3,23.34,23.34,0,0,0,2.42.12,23.2,23.2,0,0,0,2.42-.12,16.19,16.19,0,0,0,1.93-.3,12.3,12.3,0,0,0,1.37-.39A4.58,4.58,0,0,0,21,10c.2-.13.32-.24.35-.33s-.15-.21-.35-.33a4.5,4.5,0,0,0-.89-.41,12.3,12.3,0,0,0-1.37-.39,16.19,16.19,0,0,0-1.93-.3A23.2,23.2,0,0,0,14.41,8.12Z" style="fill:#fff"/></g></g></g></svg>