<svg xmlns="http://www.w3.org/2000/svg" viewBox="0 0 28.83 28.83"><g id="Layer_2" data-name="Layer 2"><g id="Layer_1-2" data-name="Layer 1"><circle cx="14.41" cy="14.41" r="14.41" style="fill:#616160"/><path d="M24.61,4.22A14.42,14.42,0,0,1,4.22,24.61" style="fill:#999;opacity:0.46"/><path d="M10.41,11.29a.87.87,0,0,1,.29-.67,1.09,1.09,0,0,1,.77-.26,1.06,1.06,0,0,1,.76.26.85.85,0,0,1,.3.67.86.86,0,0,1-.3.67,1.11,1.11,0,0,1-.76.26A1.14,1.14,0,0,1,10.7,12,.88.88,0,0,1,10.41,11.29Zm2,7.72H10.52V12.87h1.92Z" style="fill:#fff;stroke:#fff;stroke-miterlimit:10;stroke-width:0.25px"/><path d="M13.7,19V10.75h2.66a3.92,3.92,0,0,1,2,.49,3.51,3.51,0,0,1,1.37,1.41,4.14,4.14,0,0,1,.49,2v.38a4.27,4.27,0,0,1-.48,2,3.46,3.46,0,0,1-1.35,1.41,3.85,3.85,0,0,1-1.94.51Zm2-6.72v5.19h.7a1.55,1.55,0,0,0,1.31-.61,3,3,0,0,0,.46-1.82V14.7a3,3,0,0,0-.46-1.81,1.57,1.57,0,0,0-1.34-.6Z" style="fill:#fff;stroke:#fff;stroke-miterlimit:10;stroke-width:0.25px"/><polyline points="17.21 6.76 23.3 6.76 23.3 10.87 23.3 12.01" style="fill:none;stroke:#fff;stroke-miterlimit:10"/><polyline points="6.3 12.84 6.3 6.76 10.41 6.76 11.55 6.76" style="fill:none;stroke:#fff;stroke-miterlimit:10"/><polyline points="12.38 23.15 6.3 23.15 6.3 19.03 6.3 17.89" style="fill:none;stroke:#fff;stroke-miterlimit:10"/><polyline points="23.3 17.06 23.3 23.15 19.18 23.15 18.05 23.15" style="fill:none;stroke:#fff;stroke-miterlimit:10"/></g></g></svg>