<svg xmlns="http://www.w3.org/2000/svg" viewBox="0 0 28.83 28.83"><defs><style>.cls-1{fill:#616160;}.cls-2{fill:#999;opacity:0.46;}.cls-3,.cls-6{fill:#fff;}.cls-4{opacity:0.5;}.cls-5{fill:#c8cbcf;}.cls-6{stroke:#c8cbcf;stroke-miterlimit:10;stroke-width:0.25px;}</style></defs><g id="Layer_2" data-name="Layer 2"><g id="Layer_1-2" data-name="Layer 1"><circle class="cls-1" cx="14.41" cy="14.41" r="14.41"/><path class="cls-2" d="M24.61,4.22A14.42,14.42,0,0,1,4.22,24.61"/><path class="cls-3" d="M21.4,22.65a.43.43,0,0,1-.45.41H8.69a.43.43,0,0,1-.45-.41V6.18a.43.43,0,0,1,.45-.41H21a.43.43,0,0,1,.45.41Z"/><path class="cls-3" d="M21.4,22.65a.43.43,0,0,1-.45.41H8.69a.43.43,0,0,1-.45-.41V6.18a.43.43,0,0,1,.45-.41H21a.43.43,0,0,1,.45.41Z"/><g class="cls-4"><rect class="cls-5" x="9.57" y="9.13" width="3.06" height="1.54"/></g><g class="cls-4"><rect class="cls-5" x="9.57" y="11.36" width="3.06" height="1.54"/></g><g class="cls-4"><rect class="cls-5" x="9.57" y="13.58" width="3.06" height="1.54"/></g><g class="cls-4"><rect class="cls-5" x="9.57" y="15.81" width="3.06" height="1.54"/></g><g class="cls-4"><rect class="cls-5" x="9.57" y="18.03" width="3.06" height="1.54"/></g><rect class="cls-5" x="13.53" y="9.13" width="3.06" height="1.54"/><rect class="cls-5" x="13.53" y="11.36" width="3.06" height="1.54"/><rect class="cls-5" x="13.53" y="13.58" width="3.06" height="1.54"/><rect class="cls-5" x="13.53" y="15.81" width="3.06" height="1.54"/><rect class="cls-5" x="13.53" y="18.03" width="3.06" height="1.54"/><g class="cls-4"><rect class="cls-5" x="17.48" y="9.13" width="3.06" height="1.54"/></g><g class="cls-4"><rect class="cls-5" x="17.48" y="11.36" width="3.06" height="1.54"/></g><g class="cls-4"><rect class="cls-5" x="17.48" y="13.58" width="3.06" height="1.54"/></g><g class="cls-4"><rect class="cls-5" x="17.48" y="15.81" width="3.06" height="1.54"/></g><g class="cls-4"><rect class="cls-5" x="17.48" y="18.03" width="3.06" height="1.54"/></g><path class="cls-6" d="M20.41,17.24V15.17H17a.21.21,0,0,1-.2-.21V13a.21.21,0,0,1,.2-.2h3.39V10.7c0-.11.08-.15.16-.08l4.17,3.23a.14.14,0,0,1,0,.24l-4.17,3.22c-.08.07-.16,0-.16-.07"/></g></g></svg>