<svg xmlns="http://www.w3.org/2000/svg" viewBox="0 0 28.83 28.83"><g id="Layer_2" data-name="Layer 2"><g id="Layer_1-2" data-name="Layer 1"><circle cx="14.41" cy="14.41" r="14.41" style="fill:#616160"/><path d="M24.61,4.22A14.42,14.42,0,0,1,4.22,24.61" style="fill:#999;opacity:0.46"/><path d="M21,22.78a.44.44,0,0,1-.45.42H8.1a.45.45,0,0,1-.46-.42V6.05a.44.44,0,0,1,.46-.42H20.56a.43.43,0,0,1,.45.42Z" style="fill:#fff"/><path d="M19.94,20.66a1.19,1.19,0,1,1-1.18-1.18A1.18,1.18,0,0,1,19.94,20.66Z" style="fill:#879191"/><path d="M18.76,22.37a1.71,1.71,0,1,1,1.71-1.71A1.72,1.72,0,0,1,18.76,22.37Zm0-3.16a1.45,1.45,0,1,0,1.45,1.45A1.45,1.45,0,0,0,18.76,19.21Z" style="fill:#879191"/><rect x="9.81" y="10.22" width="8.72" height="1.03" style="fill:#c8cbcf"/><rect x="9.81" y="12.57" width="6.75" height="1.03" style="fill:#c8cbcf"/><rect x="9.81" y="14.92" width="4.51" height="1.03" style="fill:#c8cbcf"/><rect x="14.3" y="17.26" width="2.39" height="1.03" style="fill:#c8cbcf"/><rect x="9.81" y="17.26" width="3.13" height="1.03" style="fill:#c8cbcf"/><rect x="9.81" y="8.08" width="6.25" height="1.03" style="fill:#879191"/></g></g></svg>