<svg xmlns="http://www.w3.org/2000/svg" viewBox="0 0 28.83 28.83"><g id="Layer_2" data-name="Layer 2"><g id="Layer_1-2" data-name="Layer 1"><circle cx="14.41" cy="14.41" r="14.41" style="fill:#616160"/><path d="M24.61,4.22A14.42,14.42,0,0,1,4.22,24.61" style="fill:#999;opacity:0.46"/><path d="M20.57,21.53a.41.41,0,0,1-.43.39H8.49a.41.41,0,0,1-.43-.39V5.87a.41.41,0,0,1,.43-.39H20.14a.41.41,0,0,1,.43.39Z" style="fill:#fff"/><path d="M20.57,21.53a.41.41,0,0,1-.43.39H8.49a.41.41,0,0,1-.43-.39V5.87a.41.41,0,0,1,.43-.39H20.14a.41.41,0,0,1,.43.39Z" style="fill:#fff"/><path d="M16.42,12.93v-.8a1.17,1.17,0,0,0-1.21-1.21h-.7c-.5,0-.55-.25-.55-.37v-1A.84.84,0,0,0,13.63,8a.84.84,0,0,0-.84.84.85.85,0,0,0,.51.78v1c0,.09,0,.37-.55.37h-.7a1.17,1.17,0,0,0-1.21,1.21v.8a.84.84,0,0,0,.33,1.62.84.84,0,0,0,.84-.84.86.86,0,0,0-.5-.78v-.8a.51.51,0,0,1,.54-.55h.7a1.82,1.82,0,0,0,.55-.08v1.43a.85.85,0,0,0-.51.78.84.84,0,0,0,1.68,0,.85.85,0,0,0-.51-.78V11.5a1.73,1.73,0,0,0,.55.08h.7a.51.51,0,0,1,.54.55v.8a.85.85,0,1,0,.67,0Zm-4.76.78a.49.49,0,0,1-.49.48.49.49,0,0,1,0-1A.49.49,0,0,1,11.66,13.71Zm1.48-4.92a.48.48,0,0,1,.49-.48.47.47,0,0,1,.48.48.48.48,0,0,1-.48.49A.49.49,0,0,1,13.14,8.79Zm1,4.92a.48.48,0,0,1-.48.48.49.49,0,1,1,0-1A.48.48,0,0,1,14.11,13.71Zm2,.48a.49.49,0,1,1,.48-.48A.49.49,0,0,1,16.09,14.19Z" style="fill:#616160"/><path d="M18.87,17.84V17a1.17,1.17,0,0,0-1.21-1.21H17c-.5,0-.55-.24-.55-.37v-1a.84.84,0,1,0-.67,0v1c0,.09,0,.37-.54.37h-.7A1.17,1.17,0,0,0,13.29,17v.81a.84.84,0,1,0,.66,0V17a.51.51,0,0,1,.55-.54h.7a1.69,1.69,0,0,0,.54-.09v1.44a.84.84,0,0,0-.5.77.84.84,0,1,0,1.17-.77V16.4a1.71,1.71,0,0,0,.55.09h.7a.51.51,0,0,1,.54.54v.81a.85.85,0,1,0,.67,0Zm-4.76.77a.49.49,0,1,1-.49-.49A.49.49,0,0,1,14.11,18.61Zm1.48-4.91a.49.49,0,0,1,.49-.49.49.49,0,0,1,0,1A.49.49,0,0,1,15.59,13.7Zm1,4.91a.48.48,0,0,1-.48.49.49.49,0,0,1,0-1A.48.48,0,0,1,16.56,18.61Zm2,.49a.49.49,0,1,1,.49-.49A.49.49,0,0,1,18.53,19.1Z" style="fill:#616160"/></g></g></svg>