<svg xmlns="http://www.w3.org/2000/svg" viewBox="0 0 98.03 50.86"><defs><style>.cls-1{fill:#323e50;}.cls-2{fill:#36a9e1;}.cls-3{fill:#39485d;}</style></defs><g id="Layer_2" data-name="Layer 2"><g id="Layer_1-2" data-name="Layer 1"><path class="cls-1" d="M43.41,50.86a21.5,21.5,0,1,1,21.5-21.5A21.53,21.53,0,0,1,43.41,50.86Zm0-39.46a18,18,0,1,0,18,18A18,18,0,0,0,43.41,11.4Z"/><path class="cls-2" d="M47.91,24a4.55,4.55,0,1,1,0-6.44A4.55,4.55,0,0,1,47.91,24Z"/><path class="cls-1" d="M53.28,38.3a4.55,4.55,0,1,1,0-6.44A4.55,4.55,0,0,1,53.28,38.3Z"/><path class="cls-3" d="M39.86,36.69a4.55,4.55,0,1,1,0-6.44A4.55,4.55,0,0,1,39.86,36.69Z"/><path class="cls-1" d="M83.2,29.67A14.84,14.84,0,1,1,98,14.83,14.85,14.85,0,0,1,83.2,29.67Zm0-27.23A12.39,12.39,0,1,0,95.59,14.83,12.41,12.41,0,0,0,83.2,2.44Z"/><path class="cls-1" d="M86.31,11.13a3.14,3.14,0,1,1,0-4.44A3.14,3.14,0,0,1,86.31,11.13Z"/><path class="cls-2" d="M90,21a3.14,3.14,0,1,1,0-4.44A3.13,3.13,0,0,1,90,21Z"/><path class="cls-2" d="M80.75,19.89a3.14,3.14,0,1,1,0-4.44A3.13,3.13,0,0,1,80.75,19.89Z"/><path class="cls-3" d="M7.83,33.13a7.84,7.84,0,1,1,7.84-7.84A7.84,7.84,0,0,1,7.83,33.13Zm0-14.38a6.55,6.55,0,1,0,6.55,6.54A6.55,6.55,0,0,0,7.83,18.75Z"/><path class="cls-2" d="M9.47,23.34A1.66,1.66,0,0,1,7.13,21a1.66,1.66,0,1,1,2.34,2.35Z"/><path class="cls-2" d="M11.43,28.55a1.66,1.66,0,1,1,0-2.34A1.66,1.66,0,0,1,11.43,28.55Z"/><path class="cls-2" d="M6.54,28a1.66,1.66,0,1,1-2.35-2.35A1.66,1.66,0,0,1,6.54,28Z"/></g></g></svg>