<svg xmlns="http://www.w3.org/2000/svg" viewBox="0 0 131.01 63.26"><defs><style>.cls-1{fill:#fff;stroke:#c8cbcf;}.cls-1,.cls-7{stroke-miterlimit:10;}.cls-2{fill:#f3f6f7;}.cls-3{opacity:0.5;}.cls-4{fill:#c8cbcf;}.cls-5,.cls-6{fill:#36a9e1;}.cls-6{font-size:17.11px;font-family:Roboto-Black, Roboto;font-weight:800;}.cls-7{fill:none;stroke:#879191;}.cls-8{fill:#879191;}</style></defs><g id="Layer_2" data-name="Layer 2"><g id="Layer_1-2" data-name="Layer 1"><path class="cls-1" d="M121.64,47a1.18,1.18,0,0,1-1.24,1.13H86.65A1.18,1.18,0,0,1,85.41,47V1.63A1.19,1.19,0,0,1,86.65.5H120.4a1.19,1.19,0,0,1,1.24,1.13Z"/><path class="cls-2" d="M121.64,47a1.18,1.18,0,0,1-1.24,1.13H86.65A1.18,1.18,0,0,1,85.41,47V1.63A1.19,1.19,0,0,1,86.65.5H120.4a1.19,1.19,0,0,1,1.24,1.13Z"/><g class="cls-3"><rect class="cls-4" x="89.08" y="9.77" width="8.43" height="4.25"/></g><g class="cls-3"><rect class="cls-4" x="89.08" y="15.89" width="8.43" height="4.25"/></g><g class="cls-3"><rect class="cls-4" x="89.08" y="22.02" width="8.43" height="4.25"/></g><g class="cls-3"><rect class="cls-4" x="89.08" y="28.15" width="8.43" height="4.25"/></g><g class="cls-3"><rect class="cls-4" x="89.08" y="34.28" width="8.43" height="4.25"/></g><rect class="cls-4" x="99.96" y="9.77" width="8.43" height="4.25"/><rect class="cls-4" x="99.96" y="15.89" width="8.43" height="4.25"/><rect class="cls-4" x="99.96" y="22.02" width="8.43" height="4.25"/><rect class="cls-4" x="99.96" y="28.15" width="8.43" height="4.25"/><rect class="cls-4" x="99.96" y="34.28" width="8.43" height="4.25"/><g class="cls-3"><rect class="cls-4" x="110.84" y="9.77" width="8.43" height="4.25"/></g><g class="cls-3"><rect class="cls-4" x="110.84" y="15.89" width="8.43" height="4.25"/></g><g class="cls-3"><rect class="cls-4" x="110.84" y="22.02" width="8.43" height="4.25"/></g><g class="cls-3"><rect class="cls-4" x="110.84" y="28.15" width="8.43" height="4.25"/></g><g class="cls-3"><rect class="cls-4" x="110.84" y="34.28" width="8.43" height="4.25"/></g><path class="cls-5" d="M118.92,32.08v-5.7h-9.34a.57.57,0,0,1-.56-.56V20.34a.57.57,0,0,1,.56-.56h9.34v-5.7c0-.3.2-.4.44-.21l11.47,8.87a.41.41,0,0,1,0,.68l-11.47,8.87c-.24.19-.44.09-.44-.21"/><path class="cls-1" d="M64.84,47a1.18,1.18,0,0,1-1.23,1.13H29.85A1.19,1.19,0,0,1,28.61,47V1.63A1.19,1.19,0,0,1,29.85.5H63.61a1.19,1.19,0,0,1,1.23,1.13Z"/><path class="cls-2" d="M64.84,47a1.18,1.18,0,0,1-1.23,1.13H29.85A1.19,1.19,0,0,1,28.61,47V1.63A1.19,1.19,0,0,1,29.85.5H63.61a1.19,1.19,0,0,1,1.23,1.13Z"/><text class="cls-6" transform="translate(40.54 29.15)">iD</text><polyline class="cls-7" points="51.33 11.11 60.29 11.11 60.29 17.16 60.29 18.84"/><polyline class="cls-7" points="35.25 20.06 35.25 11.11 41.31 11.11 42.99 11.11"/><polyline class="cls-7" points="44.21 35.24 35.25 35.24 35.25 29.18 35.25 27.51"/><polyline class="cls-7" points="60.29 26.28 60.29 35.24 54.23 35.24 52.56 35.24"/><path class="cls-1" d="M94.11,61.63a1.19,1.19,0,0,1-1.24,1.13H59.11a1.19,1.19,0,0,1-1.23-1.13V16.27a1.19,1.19,0,0,1,1.23-1.13H92.87a1.19,1.19,0,0,1,1.24,1.13Z"/><path class="cls-2" d="M94.11,61.63a1.19,1.19,0,0,1-1.24,1.13H59.11a1.19,1.19,0,0,1-1.23-1.13V16.27a1.19,1.19,0,0,1,1.23-1.13H92.87a1.19,1.19,0,0,1,1.24,1.13Z"/><path class="cls-5" d="M82.09,36.72V34.39a3.42,3.42,0,0,0-3.51-3.51h-2c-1.44,0-1.57-.7-1.58-1.06V27a2.43,2.43,0,0,0,1.48-2.23A2.44,2.44,0,1,0,73,27v2.85c0,.26-.07,1.06-1.58,1.06h-2a3.41,3.41,0,0,0-3.5,3.51v2.33a2.44,2.44,0,1,0,1.93,0V34.39a1.48,1.48,0,0,1,1.57-1.57h2A4.58,4.58,0,0,0,73,32.56v4.16a2.45,2.45,0,1,0,1.93,0V32.56a4.58,4.58,0,0,0,1.58.26h2a1.47,1.47,0,0,1,1.57,1.57v2.33a2.44,2.44,0,1,0,1.94,0ZM68.3,39a1.41,1.41,0,1,1-2.81,0,1.41,1.41,0,0,1,2.81,0Zm4.3-14.22A1.41,1.41,0,1,1,74,26.14,1.41,1.41,0,0,1,72.6,24.74ZM75.41,39a1.41,1.41,0,1,1-1.4-1.4A1.41,1.41,0,0,1,75.41,39Zm5.71,1.41A1.41,1.41,0,1,1,82.53,39,1.41,1.41,0,0,1,81.12,40.37Z"/><path class="cls-8" d="M89.18,50.93V48.59a3.41,3.41,0,0,0-3.51-3.51h-2c-1.44,0-1.57-.7-1.58-1.06V41.18a2.44,2.44,0,1,0-1.93,0V44c0,.26-.08,1.06-1.57,1.06h-2A3.41,3.41,0,0,0,73,48.59v2.34a2.44,2.44,0,1,0,1.93,0V48.59A1.49,1.49,0,0,1,76.53,47h2a4.49,4.49,0,0,0,1.57-.25v4.17a2.45,2.45,0,1,0,1.93,0V46.76a4.59,4.59,0,0,0,1.58.25h2a1.49,1.49,0,0,1,1.58,1.58v2.34a2.44,2.44,0,1,0,1.93,0ZM75.39,53.17A1.41,1.41,0,1,1,74,51.76,1.41,1.41,0,0,1,75.39,53.17Zm4.3-14.24a1.41,1.41,0,1,1,2.81,0,1.41,1.41,0,1,1-2.81,0Zm2.82,14.24a1.41,1.41,0,1,1-1.41-1.41A1.41,1.41,0,0,1,82.51,53.17Zm5.7,1.4a1.41,1.41,0,1,1,1.41-1.4A1.41,1.41,0,0,1,88.21,54.57Z"/><path class="cls-1" d="M36.73,61.62a1.2,1.2,0,0,1-1.24,1.14H1.74A1.19,1.19,0,0,1,.5,61.62V16.27a1.19,1.19,0,0,1,1.24-1.13H35.49a1.19,1.19,0,0,1,1.24,1.13Z"/><path class="cls-2" d="M36.73,61.62a1.2,1.2,0,0,1-1.24,1.14H1.74A1.19,1.19,0,0,1,.5,61.62V16.27a1.19,1.19,0,0,1,1.24-1.13H35.49a1.19,1.19,0,0,1,1.24,1.13Z"/><path class="cls-2" d="M35.49,60.1a1.11,1.11,0,0,1-1.16,1H2.66a1.1,1.1,0,0,1-1.15-1V17.8a1.1,1.1,0,0,1,1.15-1.05H34.33a1.11,1.11,0,0,1,1.16,1.05Z"/><rect class="cls-4" x="6.02" y="25.63" width="23.94" height="3.83"/><rect class="cls-4" x="6.02" y="32.97" width="15.8" height="3.83"/><rect class="cls-4" x="6.02" y="40.13" width="26.59" height="3.83"/><rect class="cls-4" x="6.02" y="47.65" width="15.8" height="3.83"/><path class="cls-5" d="M18.5,29.58A9.37,9.37,0,1,0,27.92,39,9.4,9.4,0,0,0,18.5,29.58Zm5.42,6.93-6.77,6.74a.33.33,0,0,1-.45,0l-3.63-3.61a.31.31,0,0,1,0-.44l1.44-1.43a.31.31,0,0,1,.44,0l1.75,1.74a.33.33,0,0,0,.45,0L22,34.65a.31.31,0,0,1,.44,0l1.45,1.42A.3.3,0,0,1,23.92,36.51Z"/><path class="cls-2" d="M23.92,36.51l-6.77,6.74a.33.33,0,0,1-.45,0l-3.63-3.61a.31.31,0,0,1,0-.44l1.44-1.43a.31.31,0,0,1,.44,0l1.75,1.74a.33.33,0,0,0,.45,0L22,34.65a.31.31,0,0,1,.44,0l1.45,1.42A.3.3,0,0,1,23.92,36.51Z"/></g></g></svg>