<?xml version="1.0" encoding="iso-8859-1"?>
<!-- Generator: Adobe Illustrator 19.1.0, SVG Export Plug-In . SVG Version: 6.00 Build 0)  -->
<svg version="1.1" id="Layer_1" xmlns="http://www.w3.org/2000/svg" xmlns:xlink="http://www.w3.org/1999/xlink" x="0px" y="0px"
	 viewBox="-351 263.28 139 69" style="enable-background:new -351 263.28 139 69;" xml:space="preserve">
<g>
	<path style="fill:#FFFFFF;" d="M-296.356,313.459c0,0.443-0.392,0.799-0.875,0.799h-23.897c-0.482,0-0.873-0.355-0.873-0.799
		v-32.105c0-0.443,0.391-0.804,0.873-0.804h23.898c0.482,0,0.875,0.361,0.875,0.804v32.105H-296.356z"/>
	<path style="fill:#2C3E50;" d="M-296.356,313.459c0,0.443-0.392,0.799-0.875,0.799h-23.897c-0.482,0-0.873-0.355-0.873-0.799
		v-32.105c0-0.443,0.391-0.804,0.873-0.804h23.898c0.482,0,0.875,0.361,0.875,0.804v32.105H-296.356z"/>
	<circle style="fill:#27AAE1;" cx="-300.679" cy="309.389" r="2.272"/>
	<path style="fill:#27AAE1;" d="M-300.679,312.664c-1.807,0-3.276-1.469-3.276-3.275c0-1.807,1.469-3.276,3.276-3.276
		c1.807,0,3.276,1.469,3.276,3.276C-297.403,311.194-298.872,312.664-300.679,312.664z M-300.679,306.605
		c-1.534,0-2.782,1.248-2.782,2.784c0,1.533,1.248,2.782,2.782,2.782c1.536,0,2.782-1.248,2.782-2.782
		C-297.899,307.853-299.145,306.605-300.679,306.605z"/>
	<rect x="-317.835" y="289.371" style="fill:#BDC3C7;" width="16.728" height="1.976"/>
	<rect x="-317.835" y="293.87" style="fill:#BDC3C7;" width="7.672" height="1.974"/>
	<rect x="-317.835" y="298.369" style="fill:#BDC3C7;" width="7.672" height="1.976"/>
	<rect x="-317.835" y="302.87" style="fill:#BDC3C7;" width="12.938" height="1.974"/>
	<rect x="-317.835" y="285.257" style="fill:#27AAE1;" width="11.991" height="1.974"/>
	<path style="fill:#35495E;" d="M-237.87,313.792c0,0.443-0.392,0.802-0.873,0.802h-23.898c-0.482,0-0.875-0.359-0.875-0.802
		v-32.103c0-0.445,0.392-0.802,0.875-0.802h23.898c0.482,0,0.875,0.357,0.875,0.802L-237.87,313.792L-237.87,313.792z"/>
	<rect x="-259.349" y="289.703" style="fill:#BDC3C7;" width="16.73" height="1.974"/>
	<rect x="-259.349" y="294.202" style="fill:#BDC3C7;" width="12.938" height="1.978"/>
	<rect x="-259.349" y="298.703" style="fill:#BDC3C7;" width="8.657" height="1.974"/>
	<rect x="-250.752" y="303.201" style="fill:#BDC3C7;" width="4.594" height="1.974"/>
	<rect x="-259.349" y="303.201" style="fill:#BDC3C7;" width="5.995" height="1.974"/>
	<rect x="-259.349" y="285.586" style="fill:#FFFFFF;" width="11.991" height="1.98"/>
	<circle style="fill:#E54D3C;" cx="-270.584" cy="309.389" r="2.272"/>
	<path style="fill:#E54D3C;" d="M-270.584,312.665c-1.805,0-3.276-1.469-3.276-3.276c0-1.809,1.469-3.276,3.276-3.276
		c1.807,0,3.276,1.469,3.276,3.276C-267.307,311.194-268.778,312.665-270.584,312.665z M-270.584,306.605
		c-1.534,0-2.784,1.248-2.784,2.784c0,1.534,1.248,2.782,2.784,2.782s2.784-1.248,2.784-2.782
		C-267.8,307.853-269.049,306.605-270.584,306.605z"/>
	<path style="fill:#27AAE1;" d="M-261.272,320.409c0,0.635-0.565,1.151-1.262,1.151h-34.475c-0.697,0-1.262-0.516-1.262-1.151
		v-46.315c0.002-0.639,0.565-1.156,1.262-1.156h34.475c0.697,0,1.262,0.517,1.262,1.156V320.409z"/>
	<circle style="fill:#FFFFFF;" cx="-267.51" cy="314.538" r="3.276"/>
	<path style="fill:#FFFFFF;" d="M-267.51,319.025c-2.476,0-4.489-2.015-4.489-4.49c0-2.474,2.013-4.489,4.489-4.489
		c2.476,0,4.489,2.015,4.489,4.489C-263.021,317.012-265.038,319.025-267.51,319.025z M-267.51,310.286
		c-2.346,0-4.253,1.907-4.253,4.249c0,2.344,1.907,4.253,4.253,4.253c2.344,0,4.251-1.909,4.251-4.253
		C-263.259,312.194-265.168,310.286-267.51,310.286z"/>
	<rect x="-292.26" y="286.61" style="fill:#FFFFFF;" width="24.132" height="0.948"/>
	<rect x="-292.26" y="293.099" style="fill:#FFFFFF;" width="18.664" height="0.948"/>
	<rect x="-292.26" y="299.588" style="fill:#FFFFFF;" width="11.066" height="0.95"/>
	<rect x="-277.416" y="299.432" style="fill:#FFFFFF;" width="11.068" height="0.952"/>
	<rect x="-292.26" y="306.081" style="fill:#FFFFFF;" width="18.664" height="0.948"/>
	<rect x="-292.26" y="279.723" style="fill:#FFFFFF;" width="17.298" height="2.85"/>
</g>
</svg>
