<?xml version="1.0" encoding="iso-8859-1"?>
<!-- Generator: Adobe Illustrator 19.1.0, SVG Export Plug-In . SVG Version: 6.00 Build 0)  -->
<svg version="1.1" id="Layer_1" xmlns="http://www.w3.org/2000/svg" xmlns:xlink="http://www.w3.org/1999/xlink" x="0px" y="0px"
	 viewBox="-360 268.28 120 60" style="enable-background:new -360 268.28 120 60;" xml:space="preserve">
<g>
	<g transform="translate(288 48)">
		<g>
			<g id="icon-server_129_">
				<path style="fill:#35495E;" d="M-554.266,223.458c2.261,0,4.447,0.146,6.557,0.441c2.114,0.292,4.052,0.719,5.816,1.279
					c1.764,0.562,3.178,1.314,4.246,2.246c1.065,0.934,1.595,1.993,1.595,3.172v24.983c0,1.179-0.529,2.238-1.595,3.172
					c-1.063,0.936-2.477,1.682-4.246,2.246c-1.763,0.562-3.701,0.988-5.816,1.281c-2.11,0.293-4.296,0.437-6.557,0.437
					s-4.446-0.144-6.557-0.437c-2.113-0.293-4.054-0.719-5.817-1.281c-1.762-0.564-3.176-1.31-4.243-2.246
					c-1.063-0.934-1.598-1.993-1.598-3.172v-24.982c0-1.179,0.534-2.238,1.598-3.172c1.067-0.932,2.481-1.684,4.243-2.246
					c1.762-0.56,3.703-0.988,5.817-1.279C-558.713,223.604-556.527,223.458-554.266,223.458z M-539.362,255.552v-8.129
					c-1.691,0.921-3.867,1.621-6.532,2.096c-2.664,0.472-5.454,0.71-8.371,0.708c-2.916,0-5.705-0.238-8.372-0.708
					c-2.662-0.476-4.841-1.17-6.531-2.096v8.156c0.054,0.209,0.283,0.455,0.69,0.74c0.412,0.288,1.039,0.6,1.881,0.934
					c0.85,0.336,1.833,0.642,2.951,0.924c1.12,0.276,2.505,0.508,4.156,0.694c1.647,0.186,3.387,0.28,5.224,0.28
					c1.836,0,3.577-0.094,5.228-0.28c1.647-0.186,3.032-0.418,4.152-0.704c1.122-0.284,2.104-0.593,2.951-0.928
					c0.844-0.334,1.472-0.646,1.881-0.932C-539.643,256.02-539.412,255.769-539.362,255.552z M-539.362,243.062v-8.129
					c-1.691,0.919-3.867,1.617-6.532,2.094c-2.664,0.474-5.454,0.71-8.371,0.708c-2.916,0-5.705-0.238-8.372-0.708
					c-2.662-0.474-4.841-1.17-6.531-2.094v8.156c0.054,0.205,0.283,0.451,0.69,0.738c0.412,0.29,1.039,0.6,1.881,0.932
					c0.85,0.337,1.833,0.644,2.951,0.924c1.12,0.276,2.505,0.508,4.156,0.694c1.647,0.184,3.387,0.282,5.224,0.282
					c1.836,0,3.577-0.098,5.228-0.282c1.647-0.186,3.028-0.418,4.146-0.694c1.116-0.28,2.097-0.587,2.942-0.924
					c0.846-0.332,1.477-0.646,1.889-0.94c0.414-0.292,0.648-0.545,0.704-0.758L-539.362,243.062L-539.362,243.062z
					 M-554.266,227.027c-1.818,0-3.548,0.094-5.188,0.28c-1.637,0.186-3.01,0.416-4.126,0.689c-1.111,0.276-2.094,0.579-2.942,0.909
					c-0.852,0.33-1.486,0.639-1.909,0.932c-0.422,0.293-0.666,0.547-0.737,0.761c0.069,0.213,0.315,0.468,0.737,0.759
					c0.424,0.293,1.061,0.606,1.909,0.936c0.848,0.328,1.831,0.629,2.942,0.905c1.116,0.274,2.489,0.504,4.126,0.69
					c1.641,0.184,3.37,0.278,5.188,0.278c1.824,0,3.55-0.094,5.188-0.278c1.64-0.186,3.015-0.416,4.129-0.69
					c1.112-0.276,2.094-0.577,2.944-0.905c0.848-0.33,1.483-0.642,1.906-0.936c0.422-0.293,0.667-0.548,0.736-0.759
					c-0.069-0.215-0.315-0.468-0.736-0.761c-0.423-0.293-1.059-0.602-1.906-0.932c-0.85-0.332-1.832-0.633-2.944-0.909
					c-1.114-0.272-2.489-0.502-4.129-0.689C-550.716,227.121-552.443,227.027-554.266,227.027z"/>
			</g>
		</g>
	</g>
	<g transform="translate(288 48)">
		<g id="icon-server_119_">
			<path style="fill:#95A5A5;" d="M-625.587,222.152c1.532,0,3.015,0.1,4.448,0.297c1.437,0.199,2.751,0.487,3.948,0.871
				c1.196,0.38,2.154,0.888,2.88,1.521c0.722,0.637,1.083,1.354,1.083,2.156v16.953c0,0.798-0.361,1.519-1.083,2.152
				c-0.721,0.635-1.683,1.141-2.88,1.523c-1.197,0.382-2.51,0.669-3.948,0.869c-1.434,0.199-2.916,0.297-4.448,0.297
				c-1.534,0-3.019-0.098-4.451-0.297c-1.43-0.199-2.748-0.487-3.947-0.869c-1.197-0.382-2.158-0.888-2.877-1.523
				c-0.722-0.633-1.085-1.354-1.085-2.152v-16.953c0-0.802,0.363-1.519,1.085-2.156c0.719-0.633,1.68-1.141,2.877-1.521
				c1.199-0.384,2.517-0.671,3.947-0.871C-628.607,222.252-627.122,222.152-625.587,222.152z M-615.477,243.931v-5.516
				c-1.147,0.625-2.625,1.097-4.431,1.421c-1.808,0.32-3.701,0.483-5.679,0.479c-1.978,0-3.872-0.161-5.682-0.479
				c-1.805-0.322-3.283-0.796-4.433-1.421v5.535c0.035,0.14,0.193,0.307,0.469,0.5c0.279,0.196,0.706,0.407,1.278,0.635
				c0.576,0.226,1.244,0.437,2.001,0.625c0.761,0.188,1.7,0.347,2.823,0.474c1.115,0.125,2.297,0.19,3.544,0.19
				c1.245,0,2.427-0.065,3.548-0.19c1.115-0.127,2.056-0.286,2.817-0.479c0.759-0.19,1.427-0.403,2-0.629
				c0.572-0.226,0.999-0.437,1.279-0.633C-615.667,244.249-615.51,244.076-615.477,243.931z M-615.477,235.454v-5.515
				c-1.147,0.623-2.625,1.097-4.431,1.419c-1.808,0.322-3.701,0.483-5.679,0.481c-1.978,0-3.872-0.161-5.682-0.481
				c-1.805-0.32-3.283-0.794-4.433-1.419v5.533c0.035,0.14,0.193,0.309,0.469,0.502c0.279,0.198,0.706,0.407,1.278,0.633
				c0.576,0.228,1.244,0.435,2.001,0.627c0.761,0.186,1.7,0.345,2.823,0.472c1.115,0.127,2.297,0.19,3.544,0.19
				c1.245,0,2.427-0.063,3.548-0.19c1.115-0.127,2.053-0.286,2.811-0.472c0.758-0.192,1.423-0.399,1.998-0.627
				c0.572-0.226,1.003-0.439,1.279-0.637c0.283-0.201,0.441-0.372,0.479-0.516H-615.477z M-625.587,224.573
				c-1.236,0-2.41,0.065-3.523,0.19c-1.109,0.127-2.042,0.282-2.8,0.47c-0.755,0.186-1.421,0.391-1.996,0.614
				c-0.577,0.224-1.006,0.435-1.294,0.635c-0.287,0.199-0.453,0.37-0.502,0.516c0.047,0.144,0.216,0.318,0.502,0.518
				c0.288,0.198,0.718,0.407,1.294,0.631c0.575,0.224,1.242,0.431,1.996,0.618c0.758,0.184,1.691,0.339,2.8,0.466
				c1.113,0.128,2.287,0.19,3.523,0.188c1.237,0,2.407-0.06,3.52-0.188c1.112-0.127,2.043-0.282,2.799-0.466
				c0.756-0.19,1.425-0.393,1.999-0.618c0.573-0.224,1.006-0.433,1.294-0.631c0.288-0.201,0.455-0.374,0.499-0.518
				c-0.044-0.146-0.211-0.316-0.499-0.516c-0.288-0.2-0.72-0.41-1.294-0.635c-0.574-0.222-1.244-0.428-1.999-0.614
				c-0.756-0.188-1.687-0.343-2.799-0.47C-623.182,224.638-624.35,224.573-625.587,224.573z"/>
		</g>
	</g>
	<g transform="translate(288 48)">
		<g id="icon-server_117_">
			<path style="fill:#27AAE1;" d="M-593.758,231.87c2.89,0,5.682,0.173,8.381,0.52c2.698,0.349,5.175,0.852,7.428,1.519
				c2.253,0.665,4.06,1.555,5.423,2.66c1.361,1.108,2.039,2.363,2.039,3.761v29.618c0,1.396-0.678,2.652-2.039,3.759
				c-1.361,1.107-3.166,1.994-5.423,2.662c-2.252,0.667-4.729,1.17-7.428,1.519c-2.698,0.347-5.491,0.52-8.381,0.52
				c-2.886,0-5.679-0.173-8.377-0.52c-2.696-0.349-5.176-0.852-7.426-1.519c-2.255-0.667-4.062-1.555-5.422-2.662
				c-1.361-1.107-2.042-2.363-2.042-3.759v-29.619c0-1.398,0.682-2.652,2.042-3.761c1.36-1.105,3.166-1.995,5.422-2.66
				c2.25-0.667,4.729-1.17,7.426-1.519C-599.438,232.042-596.644,231.87-593.758,231.87z M-574.719,269.915v-9.637
				c-2.159,1.091-4.94,1.918-8.342,2.482c-3.403,0.562-6.97,0.846-10.697,0.842c-3.722,0-7.286-0.282-10.692-0.842
				c-3.404-0.56-6.185-1.387-8.344-2.482v9.669c0.067,0.244,0.361,0.535,0.883,0.878c0.525,0.339,1.326,0.708,2.404,1.105
				c1.081,0.397,2.34,0.761,3.768,1.093c1.432,0.33,3.203,0.604,5.308,0.827c2.104,0.217,4.328,0.328,6.672,0.328
				c2.347,0,4.574-0.111,6.681-0.328c2.102-0.222,3.873-0.497,5.305-0.836c1.432-0.334,2.686-0.702,3.767-1.099
				c1.082-0.397,1.882-0.767,2.406-1.107C-575.078,270.467-574.782,270.17-574.719,269.915z M-574.719,255.107v-9.639
				c-2.159,1.091-4.94,1.92-8.342,2.482c-3.403,0.562-6.97,0.844-10.697,0.84c-3.722,0-7.286-0.282-10.692-0.84
				c-3.404-0.558-6.185-1.389-8.344-2.482v9.669c0.067,0.242,0.361,0.535,0.883,0.876c0.525,0.339,1.326,0.71,2.404,1.107
				c1.081,0.397,2.34,0.763,3.768,1.093c1.432,0.328,3.203,0.604,5.308,0.825c2.104,0.221,4.328,0.332,6.672,0.332
				c2.347,0,4.574-0.111,6.681-0.332c2.102-0.221,3.871-0.497,5.295-0.825c1.428-0.33,2.68-0.696,3.762-1.093
				c1.08-0.397,1.885-0.769,2.411-1.114c0.531-0.347,0.828-0.646,0.897-0.9L-574.719,255.107L-574.719,255.107z M-593.758,236.099
				c-2.322,0-4.532,0.111-6.626,0.334c-2.092,0.219-3.849,0.491-5.27,0.817c-1.423,0.324-2.675,0.683-3.759,1.076
				c-1.089,0.391-1.901,0.757-2.439,1.105c-0.54,0.349-0.852,0.648-0.942,0.901c0.086,0.253,0.402,0.554,0.942,0.903
				c0.541,0.347,1.356,0.715,2.439,1.107c1.084,0.391,2.336,0.75,3.759,1.074c1.421,0.326,3.178,0.598,5.27,0.819
				c2.094,0.221,4.303,0.33,6.626,0.328c2.33,0,4.537-0.107,6.631-0.328c2.093-0.221,3.848-0.493,5.27-0.819
				c1.423-0.326,2.678-0.683,3.762-1.074c1.083-0.391,1.896-0.759,2.437-1.107c0.54-0.351,0.855-0.652,0.94-0.903
				c-0.084-0.253-0.4-0.552-0.94-0.901c-0.542-0.347-1.355-0.713-2.437-1.105c-1.084-0.395-2.339-0.752-3.762-1.076
				c-1.422-0.326-3.177-0.598-5.27-0.817C-589.221,236.21-591.428,236.099-593.758,236.099z"/>
		</g>
	</g>
</g>
</svg>
