<?xml version="1.0" encoding="windows-1252"?>
<!-- Generator: Adobe Illustrator 19.1.0, SVG Export Plug-In . SVG Version: 6.00 Build 0)  -->
<svg version="1.1" id="Layer_1" xmlns="http://www.w3.org/2000/svg" xmlns:xlink="http://www.w3.org/1999/xlink" x="0px" y="0px" viewBox="-351 263.28 139 69" style="enable-background:new -351 263.28 139 69;" xml:space="preserve">
<g>
	<path style="fill:#29AAE1;" d="M-317.204,295.437v-2.457c0-1.481-0.979-3.684-3.686-3.684h-2.141c-1.506,0-1.649-0.738-1.654-1.121   v-2.993c0.911-0.395,1.55-1.301,1.55-2.353c0-1.419-1.152-2.569-2.569-2.569c-1.418,0-2.568,1.152-2.568,2.569   c0,1.053,0.643,1.958,1.553,2.353v2.991c0,0.275-0.082,1.121-1.659,1.121h-2.136c-2.707,0-3.689,2.206-3.689,3.684v2.459   c-0.912,0.392-1.548,1.301-1.548,2.357c0,1.419,1.148,2.566,2.564,2.566s2.563-1.148,2.563-2.566c0-1.056-0.636-1.965-1.545-2.357   v-2.457c0-0.275,0.08-1.654,1.654-1.654h2.138c0.653,0,1.198-0.099,1.657-0.264v4.374c-0.911,0.395-1.55,1.301-1.55,2.357   c0,1.419,1.15,2.566,2.564,2.566c1.418,0,2.571-1.148,2.571-2.566c0-1.056-0.641-1.962-1.557-2.357v-4.375   c0.462,0.167,1.011,0.264,1.659,0.264h2.139c1.508,0,1.649,1.275,1.655,1.654v2.459c-0.912,0.392-1.55,1.301-1.55,2.357   c0,1.419,1.152,2.566,2.566,2.566c1.421,0,2.568-1.148,2.568-2.566C-315.652,296.74-316.29,295.831-317.204,295.437z    M-331.708,297.796c0,0.817-0.661,1.481-1.48,1.481c-0.817,0-1.48-0.663-1.48-1.481c0-0.82,0.663-1.481,1.48-1.481   C-332.367,296.315-331.708,296.974-331.708,297.796z M-327.183,282.828c0-0.82,0.665-1.485,1.48-1.485   c0.819,0,1.483,0.663,1.483,1.485c0,0.817-0.663,1.478-1.483,1.478C-326.517,284.306-327.183,283.645-327.183,282.828z    M-324.222,297.796c0,0.817-0.663,1.481-1.48,1.481s-1.481-0.663-1.481-1.481c0-0.82,0.665-1.481,1.478-1.481   C-324.887,296.315-324.222,296.974-324.222,297.796z M-318.22,299.276c-0.817,0-1.481-0.663-1.481-1.481   c0-0.82,0.663-1.481,1.481-1.481c0.818,0,1.486,0.661,1.486,1.481C-316.735,298.613-317.401,299.276-318.22,299.276z"/>
	<path style="fill:#35495E;" d="M-309.738,310.375v-2.456c0-1.481-0.981-3.687-3.691-3.687h-2.139c-1.51,0-1.652-0.742-1.659-1.121   v-2.991c0.912-0.392,1.552-1.301,1.552-2.357c0-1.419-1.148-2.566-2.564-2.566c-1.419,0-2.566,1.148-2.566,2.566   c0,1.056,0.639,1.965,1.545,2.357v2.991c0,0.275-0.079,1.121-1.654,1.121h-2.138c-2.708,0-3.691,2.206-3.691,3.687v2.456   c-0.912,0.392-1.552,1.301-1.552,2.357c0,1.416,1.15,2.566,2.568,2.566s2.568-1.148,2.568-2.566c0-1.056-0.643-1.965-1.553-2.357   v-2.456c0-0.275,0.084-1.657,1.66-1.657h2.139c0.646,0,1.195-0.095,1.652-0.264v4.377c-0.906,0.395-1.545,1.304-1.545,2.357   c0,1.419,1.148,2.569,2.564,2.569c1.419,0,2.568-1.152,2.568-2.569c0-1.053-0.639-1.962-1.553-2.357v-4.377   c0.46,0.171,1.011,0.264,1.657,0.264h2.139c1.51,0,1.65,1.279,1.66,1.657v2.456c-0.914,0.392-1.553,1.301-1.553,2.357   c0,1.416,1.15,2.566,2.569,2.566s2.564-1.148,2.564-2.566C-308.187,311.677-308.826,310.768-309.738,310.375z M-324.244,312.732   c0,0.817-0.663,1.485-1.485,1.485c-0.817,0-1.48-0.666-1.48-1.485c0-0.82,0.663-1.478,1.48-1.478   C-324.905,311.255-324.244,311.911-324.244,312.732z M-319.723,297.762c0-0.813,0.663-1.481,1.481-1.481   c0.819,0,1.478,0.666,1.478,1.481c0,0.82-0.66,1.485-1.478,1.485C-319.058,299.247-319.723,298.583-319.723,297.762z    M-316.76,312.732c0,0.817-0.663,1.485-1.481,1.485c-0.817,0-1.48-0.666-1.48-1.485c0-0.82,0.663-1.478,1.48-1.478   C-317.423,311.255-316.76,311.911-316.76,312.732z M-310.753,314.213c-0.819,0-1.485-0.663-1.485-1.481   c0-0.82,0.665-1.481,1.485-1.481c0.813,0,1.48,0.661,1.48,1.481C-309.275,313.55-309.939,314.213-310.753,314.213z"/>
	<path style="fill:#ECF0F1;" d="M-233.999,315.328c0,0.484-0.428,0.875-0.954,0.875h-26.122c-0.526,0-0.954-0.392-0.954-0.875   v-35.092c0-0.487,0.428-0.879,0.954-0.879h26.12c0.526,0,0.954,0.392,0.954,0.879v35.092H-233.999z"/>
	<rect x="-259.309" y="286.728" style="fill:#35495E;" width="6.299" height="3.177"/>
	<rect x="-259.309" y="291.31" style="fill:#35495E;" width="6.299" height="3.177"/>
	<rect x="-259.309" y="295.889" style="fill:#35495E;" width="6.299" height="3.177"/>
	<rect x="-259.309" y="300.469" style="fill:#35495E;" width="6.299" height="3.177"/>
	<rect x="-259.309" y="305.05" style="fill:#35495E;" width="6.299" height="3.18"/>
	<rect x="-251.174" y="286.728" style="fill:#35495E;" width="6.299" height="3.177"/>
	<rect x="-251.174" y="291.31" style="fill:#35495E;" width="6.299" height="3.177"/>
	<rect x="-251.174" y="295.889" style="fill:#35495E;" width="6.299" height="3.177"/>
	<rect x="-251.174" y="300.469" style="fill:#35495E;" width="6.299" height="3.177"/>
	<rect x="-251.174" y="305.05" style="fill:#35495E;" width="6.299" height="3.18"/>
	<rect x="-243.039" y="286.728" style="fill:#35495E;" width="6.302" height="3.177"/>
	<rect x="-243.039" y="291.31" style="fill:#35495E;" width="6.302" height="3.177"/>
	<rect x="-243.039" y="295.889" style="fill:#35495E;" width="6.302" height="3.177"/>
	<rect x="-243.039" y="300.469" style="fill:#35495E;" width="6.302" height="3.177"/>
	<rect x="-243.039" y="305.05" style="fill:#35495E;" width="6.302" height="3.18"/>
	<path style="fill:#29AAE1;" d="M-234.201,302.955v-3.276h-5.365c-0.174,0-0.323-0.154-0.323-0.326v-3.142   c0-0.176,0.151-0.323,0.323-0.323h5.365v-3.281c0-0.171,0.119-0.226,0.256-0.121l6.592,5.104c0.139,0.104,0.137,0.278-0.002,0.385   l-6.59,5.1C-234.082,303.179-234.201,303.124-234.201,302.955"/>
	<path style="fill:#ECF0F1;" d="M-271.345,315.326c0,0.484-0.43,0.875-0.956,0.875h-26.115c-0.526,0.002-0.956-0.392-0.956-0.875   v-35.092c0-0.484,0.43-0.875,0.956-0.875h26.115c0.526,0,0.956,0.392,0.956,0.875V315.326z"/>
	<rect x="-295.653" y="286.728" style="fill:#35495E;" width="19.746" height="3.175"/>
	<rect x="-295.653" y="292.821" style="fill:#35495E;" width="13.029" height="3.175"/>
	<rect x="-295.653" y="298.763" style="fill:#35495E;" width="21.932" height="3.175"/>
	<rect x="-295.653" y="305" style="fill:#35495E;" width="13.029" height="3.177"/>
	<path style="fill:#29AAE1;" d="M-285.359,290.006c-4.292,0-7.772,3.48-7.772,7.775c0,4.292,3.48,7.775,7.772,7.775   s7.773-3.482,7.773-7.775C-277.587,293.486-281.067,290.006-285.359,290.006z M-280.883,295.755l-5.591,5.592   c-0.1,0.1-0.264,0.1-0.367,0l-2.998-2.996c-0.097-0.102-0.097-0.264,0-0.368l1.187-1.183c0.1-0.102,0.264-0.102,0.367,0   l1.445,1.445c0.1,0.1,0.264,0.1,0.367,0l4.029-4.029c0.102-0.1,0.263-0.1,0.367,0l1.193,1.175   C-280.781,295.491-280.781,295.653-280.883,295.755z"/>
	<path style="fill:#EDF0F1;" d="M-280.883,295.754l-5.591,5.592c-0.1,0.1-0.264,0.1-0.367,0l-2.998-2.995   c-0.097-0.102-0.097-0.266,0-0.368l1.187-1.185c0.1-0.1,0.264-0.1,0.367,0l1.445,1.445c0.1,0.1,0.264,0.1,0.367,0l4.029-4.027   c0.102-0.102,0.263-0.102,0.367-0.002l1.193,1.175C-280.781,295.491-280.781,295.653-280.883,295.754z"/>
</g>
</svg>