<svg xmlns="http://www.w3.org/2000/svg" viewBox="0 0 106.87 55.02"><defs><style>.cls-1,.cls-7{fill:#fff;}.cls-2{fill:#f3f6f7;}.cls-3{fill:#e24030;}.cls-4{fill:#c8cbcf;}.cls-5{fill:#9eaaaa;}.cls-6{fill:#879191;}.cls-7,.cls-9{stroke:#c8cbcf;}.cls-7,.cls-8,.cls-9{stroke-miterlimit:10;}.cls-8,.cls-9{fill:none;}.cls-8{stroke:#e24030;}.cls-9{stroke-width:4px;}.cls-10{fill:#36a9e1;}</style></defs><g id="Layer_2" data-name="Layer 2"><g id="Layer_1-2" data-name="Layer 1"><path class="cls-1" d="M28.49,45.51a.94.94,0,0,1-1,.89H1a.94.94,0,0,1-1-.89V9.85A.94.94,0,0,1,1,9H27.52a.94.94,0,0,1,1,.89Z"/><path class="cls-2" d="M28.49,45.51a.94.94,0,0,1-1,.89H1a.94.94,0,0,1-1-.89V9.85A.94.94,0,0,1,1,9H27.52a.94.94,0,0,1,1,.89Z"/><path class="cls-3" d="M26.21,41a2.53,2.53,0,1,1-2.52-2.52A2.52,2.52,0,0,1,26.21,41Z"/><path class="cls-3" d="M23.69,44.63A3.64,3.64,0,1,1,27.32,41,3.65,3.65,0,0,1,23.69,44.63Zm0-6.73A3.09,3.09,0,1,0,26.78,41,3.1,3.1,0,0,0,23.69,37.9Z"/><rect class="cls-4" x="4.63" y="18.75" width="18.58" height="2.2"/><rect class="cls-4" x="4.63" y="23.75" width="8.52" height="2.2"/><rect class="cls-4" x="4.63" y="28.75" width="8.52" height="2.19"/><rect class="cls-4" x="4.63" y="33.75" width="14.37" height="2.2"/><rect class="cls-5" x="4.63" y="14.18" width="13.32" height="2.19"/><path class="cls-2" d="M106.87,45.51a.93.93,0,0,1-1,.89H79.35a.94.94,0,0,1-1-.89V9.85a.94.94,0,0,1,1-.89H105.9a.93.93,0,0,1,1,.89Z"/><path class="cls-3" d="M104.59,41a2.53,2.53,0,1,1-2.52-2.52A2.52,2.52,0,0,1,104.59,41Z"/><path class="cls-3" d="M102.07,44.63A3.64,3.64,0,1,1,105.71,41,3.64,3.64,0,0,1,102.07,44.63Zm0-6.73A3.09,3.09,0,1,0,105.16,41,3.09,3.09,0,0,0,102.07,37.9Z"/><rect class="cls-4" x="83.01" y="18.75" width="18.58" height="2.2"/><rect class="cls-4" x="83.01" y="23.75" width="14.37" height="2.2"/><rect class="cls-4" x="83.01" y="28.75" width="9.62" height="2.2"/><rect class="cls-4" x="92.56" y="33.75" width="5.1" height="2.19"/><rect class="cls-4" x="83.01" y="33.75" width="6.66" height="2.2"/><rect class="cls-6" x="83.01" y="14.18" width="13.32" height="2.19"/><path class="cls-7" d="M74.42,53.23A1.35,1.35,0,0,1,73,54.52H34.72a1.35,1.35,0,0,1-1.4-1.29V1.79A1.35,1.35,0,0,1,34.72.5H73a1.35,1.35,0,0,1,1.4,1.29Z"/><path class="cls-2" d="M74.42,53.23A1.35,1.35,0,0,1,73,54.52H34.72a1.35,1.35,0,0,1-1.4-1.29V1.79A1.35,1.35,0,0,1,34.72.5H73a1.35,1.35,0,0,1,1.4,1.29Z"/><circle class="cls-3" cx="67.49" cy="46.71" r="3.64"/><path class="cls-8" d="M72.34,46.71a4.86,4.86,0,1,1-4.85-4.86A4.85,4.85,0,0,1,72.34,46.71Z"/><line class="cls-9" x1="40" y1="16.21" x2="66.8" y2="16.21"/><line class="cls-9" x1="40" y1="23.42" x2="60.73" y2="23.42"/><line class="cls-9" x1="40" y1="30.63" x2="52.29" y2="30.63"/><line class="cls-9" x1="56.49" y1="30.46" x2="68.78" y2="30.46"/><line class="cls-9" x1="40" y1="37.84" x2="60.73" y2="37.84"/><line class="cls-10" x1="40" y1="9.62" x2="59.21" y2="9.62"/><rect class="cls-10" x="40" y="8.04" width="19.22" height="3.17"/></g></g></svg>