<svg xmlns="http://www.w3.org/2000/svg" viewBox="0 0 103.77 57.29"><defs><style>.cls-1{fill:#39485d;}.cls-2{fill:#656f7a;}.cls-3{fill:#36a9e1;}</style></defs><g id="Layer_2" data-name="Layer 2"><g id="Layer_1-2" data-name="Layer 1"><g id="icon-server"><path class="cls-1" d="M85.22,1.33a48.23,48.23,0,0,1,6.68.45,36.06,36.06,0,0,1,5.93,1.3,12.08,12.08,0,0,1,4.32,2.29,4.23,4.23,0,0,1,1.62,3.23V34a4.23,4.23,0,0,1-1.62,3.23,11.76,11.76,0,0,1-4.32,2.29,36,36,0,0,1-5.93,1.31,49.86,49.86,0,0,1-6.68.44,49.82,49.82,0,0,1-6.67-.44,36,36,0,0,1-5.93-1.31,11.93,11.93,0,0,1-4.32-2.29A4.24,4.24,0,0,1,66.67,34V8.6A4.24,4.24,0,0,1,68.3,5.37a12.08,12.08,0,0,1,4.32-2.29,36.06,36.06,0,0,1,5.93-1.3A48.19,48.19,0,0,1,85.22,1.33ZM100.4,34V25.74a22.22,22.22,0,0,1-6.65,2.13,48.83,48.83,0,0,1-8.53.72,48.8,48.8,0,0,1-8.52-.72,21.94,21.94,0,0,1-6.65-2.13V34c0,.22.29.47.7.76a10,10,0,0,0,1.92,1,25,25,0,0,0,3,.94,34.17,34.17,0,0,0,4.23.71,47.37,47.37,0,0,0,5.32.28,47.56,47.56,0,0,0,5.33-.28,32.21,32.21,0,0,0,4.23-.72,23.23,23.23,0,0,0,3-1,10.06,10.06,0,0,0,1.92-.94C100.12,34.49,100.35,34.24,100.4,34Zm0-12.72V13a22.51,22.51,0,0,1-6.65,2.13,48.83,48.83,0,0,1-8.53.72,48.8,48.8,0,0,1-8.52-.72A21.94,21.94,0,0,1,70.05,13v8.3c0,.21.29.46.7.75a8.94,8.94,0,0,0,1.92.95,21.84,21.84,0,0,0,3,.94,32.39,32.39,0,0,0,4.23.71,47.3,47.3,0,0,0,5.32.29,47.49,47.49,0,0,0,5.33-.29A32.2,32.2,0,0,0,94.77,24a21.84,21.84,0,0,0,3-.94,8.94,8.94,0,0,0,1.92-.95,1.79,1.79,0,0,0,.72-.77ZM85.22,5a46.71,46.71,0,0,0-5.28.29,34.11,34.11,0,0,0-4.2.7,24.44,24.44,0,0,0-3,.93,9.18,9.18,0,0,0-1.94,1,1.8,1.8,0,0,0-.75.77,1.87,1.87,0,0,0,.75.78,10.6,10.6,0,0,0,1.94.95,26.4,26.4,0,0,0,3,.92,34.11,34.11,0,0,0,4.2.7,46.71,46.71,0,0,0,5.28.29A46.76,46.76,0,0,0,90.51,12a33.79,33.79,0,0,0,4.2-.7,25.2,25.2,0,0,0,3-.92,10.6,10.6,0,0,0,1.94-.95,1.87,1.87,0,0,0,.75-.78,1.8,1.8,0,0,0-.75-.77,9.44,9.44,0,0,0-1.94-1,23.39,23.39,0,0,0-3-.93,33.79,33.79,0,0,0-4.2-.7A46.76,46.76,0,0,0,85.22,5Z"/></g><g id="icon-server-2" data-name="icon-server"><path class="cls-2" d="M12.59,0a33.36,33.36,0,0,1,4.53.3,24.84,24.84,0,0,1,4,.89,8.11,8.11,0,0,1,2.93,1.55,2.86,2.86,0,0,1,1.1,2.19V22.2a2.85,2.85,0,0,1-1.1,2.19,8,8,0,0,1-2.93,1.55,24.84,24.84,0,0,1-4,.89,33.36,33.36,0,0,1-4.53.3,33.5,33.5,0,0,1-4.54-.3,25,25,0,0,1-4-.89,8,8,0,0,1-2.93-1.55A2.86,2.86,0,0,1,0,22.2V4.93A2.87,2.87,0,0,1,1.11,2.74,8,8,0,0,1,4,1.19a25,25,0,0,1,4-.89A33.5,33.5,0,0,1,12.59,0ZM22.88,22.18V16.56A14.85,14.85,0,0,1,18.37,18a32.74,32.74,0,0,1-5.78.49A33.74,33.74,0,0,1,6.8,18a14.94,14.94,0,0,1-4.51-1.45V22.2c0,.14.19.31.47.51a7.17,7.17,0,0,0,1.31.65,15.89,15.89,0,0,0,2,.63A22,22,0,0,0,9,24.47a31.68,31.68,0,0,0,3.61.2,31.81,31.81,0,0,0,3.61-.2A21.83,21.83,0,0,0,19.07,24a18.42,18.42,0,0,0,2-.64,6.73,6.73,0,0,0,1.3-.65C22.69,22.5,22.85,22.33,22.88,22.18Zm0-8.63V7.93a15.13,15.13,0,0,1-4.51,1.45,33.71,33.71,0,0,1-5.78.49A33.74,33.74,0,0,1,6.8,9.38,14.94,14.94,0,0,1,2.29,7.93v5.63c0,.15.19.32.47.52a6.64,6.64,0,0,0,1.31.64,17.56,17.56,0,0,0,2,.64A23.84,23.84,0,0,0,9,15.84a31.76,31.76,0,0,0,3.61.19,31.88,31.88,0,0,0,3.61-.19,23.11,23.11,0,0,0,2.86-.48,17.77,17.77,0,0,0,2-.64,6.44,6.44,0,0,0,1.3-.65,1.18,1.18,0,0,0,.49-.52ZM12.59,2.46A31.45,31.45,0,0,0,9,2.66a23.24,23.24,0,0,0-2.85.48,17.79,17.79,0,0,0-2,.62,6.71,6.71,0,0,0-1.32.65,1.33,1.33,0,0,0-.51.52,1.21,1.21,0,0,0,.51.53,6.25,6.25,0,0,0,1.32.64,15.89,15.89,0,0,0,2,.63A23.24,23.24,0,0,0,9,7.21a31.52,31.52,0,0,0,3.59.19,31.34,31.34,0,0,0,3.58-.19A22.91,22.91,0,0,0,19,6.73a16.6,16.6,0,0,0,2-.63,6.78,6.78,0,0,0,1.32-.64,1.17,1.17,0,0,0,.5-.53,1.22,1.22,0,0,0-.5-.52,7.34,7.34,0,0,0-1.32-.65,18.65,18.65,0,0,0-2-.62,22.91,22.91,0,0,0-2.85-.48A31.27,31.27,0,0,0,12.59,2.46Z"/></g><g id="icon-server-3" data-name="icon-server"><path class="cls-3" d="M45,9.9a65.71,65.71,0,0,1,8.54.53A47.8,47.8,0,0,1,61.1,12a16,16,0,0,1,5.53,2.71,4.91,4.91,0,0,1,2.07,3.83V48.68a4.87,4.87,0,0,1-2.07,3.82,15.61,15.61,0,0,1-5.53,2.71,47.77,47.77,0,0,1-7.56,1.55,65.71,65.71,0,0,1-8.54.53,65.67,65.67,0,0,1-8.53-.53,48,48,0,0,1-7.56-1.55,15.47,15.47,0,0,1-5.52-2.71,4.86,4.86,0,0,1-2.08-3.82V18.51a4.89,4.89,0,0,1,2.08-3.83A15.81,15.81,0,0,1,28.91,12a48,48,0,0,1,7.56-1.54A65.67,65.67,0,0,1,45,9.9ZM64.39,48.64V38.83a30,30,0,0,1-8.49,2.53,66.07,66.07,0,0,1-10.9.85,66.92,66.92,0,0,1-10.88-.85,29.72,29.72,0,0,1-8.5-2.53v9.85c.07.24.36.54.9.89A13.06,13.06,0,0,0,29,50.7a34.94,34.94,0,0,0,3.84,1.11,48.45,48.45,0,0,0,5.41.84A66.57,66.57,0,0,0,45,53a67,67,0,0,0,6.81-.33,46.13,46.13,0,0,0,5.4-.85,33.57,33.57,0,0,0,3.84-1.12,12.59,12.59,0,0,0,2.45-1.13C64,49.21,64.33,48.9,64.39,48.64Zm0-15.08V23.75a29.67,29.67,0,0,1-8.49,2.52,66,66,0,0,1-10.9.86,66.9,66.9,0,0,1-10.88-.86,29.43,29.43,0,0,1-8.5-2.52v9.84c.07.25.36.55.9.9A13.15,13.15,0,0,0,29,35.61a32.76,32.76,0,0,0,3.84,1.12,48.45,48.45,0,0,0,5.41.84A66.57,66.57,0,0,0,45,37.9a67,67,0,0,0,6.81-.33,48,48,0,0,0,5.39-.84A32,32,0,0,0,61,35.61a12.73,12.73,0,0,0,2.46-1.13c.54-.36.84-.66.91-.92ZM45,14.2a65.64,65.64,0,0,0-6.74.34,45.39,45.39,0,0,0-5.37.84,32.32,32.32,0,0,0-3.83,1.09,12.15,12.15,0,0,0-2.48,1.13,2.32,2.32,0,0,0-1,.91,2.26,2.26,0,0,0,1,.92,12.69,12.69,0,0,0,2.48,1.13,32.32,32.32,0,0,0,3.83,1.09,45.39,45.39,0,0,0,5.37.84,65.72,65.72,0,0,0,6.74.33,66,66,0,0,0,6.76-.33,45.19,45.19,0,0,0,5.36-.84A33.08,33.08,0,0,0,61,20.56a12.69,12.69,0,0,0,2.48-1.13c.55-.35.87-.66,1-.92a2.21,2.21,0,0,0-1-.91A12.69,12.69,0,0,0,61,16.47a33.08,33.08,0,0,0-3.84-1.09,45.19,45.19,0,0,0-5.36-.84A65.89,65.89,0,0,0,45,14.2Z"/></g></g></g></svg>