<?xml version="1.0" standalone="no"?>
<!DOCTYPE svg PUBLIC "-//W3C//DTD SVG 20010904//EN"
 "http://www.w3.org/TR/2001/REC-SVG-20010904/DTD/svg10.dtd">
<svg version="1.0" xmlns="http://www.w3.org/2000/svg"
 width="1952.000000pt" height="1952.000000pt" viewBox="0 0 1952.000000 1952.000000"
 preserveAspectRatio="xMidYMid meet">
<metadata>
Created by potrace 1.11, written by Peter Selinger 2001-2013
</metadata>
<g transform="translate(0.000000,1952.000000) scale(0.100000,-0.100000)"
fill="#000000" stroke="none">
<path d="M7359 10960 l-26 -5 0 -886 0 -887 88 -1 c58 -1 90 2 95 10 4 7 7
161 7 343 -1 182 4 356 9 386 39 221 221 362 448 347 94 -6 184 -43 231 -95
41 -44 78 -121 85 -175 3 -23 7 -215 7 -427 l2 -385 93 -2 c88 -1 92 0 93 20
3 83 -1 846 -5 862 -24 114 -56 184 -111 243 -43 47 -133 105 -180 117 -16 4
-39 9 -50 12 -51 15 -236 10 -299 -7 -140 -37 -246 -116 -305 -225 l-19 -37 0
391 c1 215 -1 394 -5 397 -7 7 -126 11 -158 4z"/>
<path d="M11243 10928 c-31 -8 -82 -58 -84 -81 0 -7 -2 -22 -3 -35 -4 -33 27
-95 58 -115 38 -26 108 -20 141 11 101 94 20 254 -112 220z"/>
<path d="M827 10862 c-16 -3 -17 -65 -17 -842 l0 -838 97 1 98 2 -1 360 0 360
390 0 391 1 3 87 3 87 -33 1 c-18 0 -195 1 -393 2 l-360 2 -1 295 c0 162 3
297 7 300 4 3 201 5 437 4 387 -1 430 1 430 15 0 9 1 47 2 84 2 37 0 70 -3 73
-6 6 -1021 11 -1050 6z"/>
<path d="M2629 10860 c-17 -4 -34 -31 -71 -115 -27 -61 -58 -130 -70 -155 -11
-25 -56 -126 -100 -225 -83 -187 -98 -220 -167 -369 -23 -49 -41 -95 -41 -102
0 -8 -4 -14 -10 -14 -5 0 -9 -3 -8 -7 2 -10 -17 -54 -97 -228 -13 -27 -41 -90
-63 -140 -22 -49 -51 -115 -65 -145 -62 -134 -75 -170 -67 -175 5 -3 26 -5 47
-4 21 1 43 1 48 -1 6 -1 15 -1 20 0 6 1 25 3 44 4 37 1 29 -13 157 281 9 22
27 64 40 93 l23 52 459 0 460 0 7 -22 c10 -31 7 -24 43 -102 18 -38 32 -71 32
-73 0 -5 67 -158 89 -201 10 -22 22 -32 32 -29 9 3 23 1 30 -4 7 -4 18 -5 24
-1 14 9 37 9 57 0 9 -5 20 -4 23 2 3 6 17 7 31 4 26 -7 29 -3 15 24 -12 21
-57 121 -101 222 -18 41 -44 100 -57 130 -14 30 -42 93 -63 140 -40 91 -66
149 -111 248 -16 34 -29 64 -29 66 0 2 -20 47 -45 99 -25 53 -45 98 -45 101 0
2 -16 40 -36 83 -20 43 -53 116 -74 163 -21 47 -52 115 -69 153 -17 37 -31 69
-31 72 0 18 -82 175 -92 176 -71 3 -151 3 -169 -1z m86 -241 c-4 -5 -2 -9 4
-9 6 0 14 -12 17 -27 4 -16 10 -32 14 -38 4 -5 36 -75 70 -155 34 -80 75 -172
90 -205 64 -140 170 -383 170 -389 0 -3 -169 -6 -375 -6 l-375 0 9 23 c8 19
46 106 71 162 5 11 41 94 81 185 39 90 79 183 89 205 10 22 39 89 65 150 55
129 54 127 66 119 5 -3 7 -10 4 -15z"/>
<path d="M3843 10860 c-17 -5 -18 -42 -18 -840 l0 -835 96 -2 96 -2 0 839 c0
765 -1 840 -16 841 -89 3 -143 3 -158 -1z"/>
<path d="M4549 10860 l-24 -5 1 -820 c1 -451 2 -828 3 -837 1 -16 12 -18 95
-16 l93 1 0 259 c0 142 3 262 7 265 11 11 538 9 552 -2 6 -5 53 -73 103 -150
50 -77 94 -144 99 -150 4 -5 36 -55 71 -110 36 -55 69 -103 75 -108 6 -4 48
-7 92 -6 45 1 87 -1 93 -5 6 -4 14 0 17 8 5 14 -109 196 -128 204 -5 2 -8 8
-8 13 0 6 -13 27 -28 47 -16 20 -70 97 -120 170 l-91 132 77 38 c146 70 250
203 282 358 15 70 20 205 9 254 -4 19 -10 49 -13 65 -10 53 -73 169 -118 214
-63 64 -184 135 -250 147 -5 1 -9 2 -10 4 -8 5 -86 19 -159 26 -71 7 -687 11
-720 4z m739 -185 c24 -3 54 -10 68 -15 13 -5 24 -7 24 -4 0 13 141 -71 167
-99 63 -70 94 -166 91 -282 -4 -156 -67 -263 -191 -324 -100 -49 -139 -54
-444 -57 l-283 -3 -1 37 c-3 199 -1 741 4 748 6 10 496 9 565 -1z"/>
<path d="M6547 10454 c-1 -1 -29 -4 -62 -7 -212 -19 -346 -143 -351 -327 -6
-180 83 -272 346 -360 52 -18 102 -33 110 -35 8 -2 46 -15 84 -31 130 -52 180
-138 141 -239 -29 -78 -113 -120 -247 -124 -134 -4 -273 40 -388 124 l-45 33
-35 -69 -34 -69 34 -30 c19 -16 38 -29 43 -30 4 0 24 -11 45 -25 36 -24 132
-61 182 -70 14 -3 36 -7 50 -11 41 -9 192 -11 240 -2 25 5 56 10 70 13 49 9
156 69 197 111 55 57 85 138 86 229 1 123 -63 224 -183 289 -43 23 -163 70
-210 81 -55 13 -182 60 -217 81 -73 42 -103 102 -89 177 26 140 298 173 524
64 34 -17 64 -28 66 -26 2 2 18 32 35 67 24 47 29 67 21 77 -17 20 -123 64
-207 85 -63 16 -198 31 -206 24z"/>
<path d="M9368 10456 c-1 -2 -31 -6 -66 -9 -134 -13 -260 -57 -379 -134 l-53
-34 17 -27 c9 -15 27 -44 41 -64 l24 -37 37 23 c53 34 151 82 186 91 17 5 35
9 40 11 120 34 284 14 366 -44 74 -53 114 -150 107 -261 l-3 -54 -75 2 c-94 2
-84 2 -152 -1 -32 -2 -58 0 -58 5 0 4 -5 5 -11 2 -6 -4 -61 -9 -122 -10 -121
-4 -143 -7 -215 -31 -164 -56 -253 -178 -246 -339 4 -90 5 -96 39 -163 18 -36
48 -73 80 -100 98 -82 167 -104 325 -105 99 0 170 14 255 51 65 29 76 36 145
99 l46 42 0 -92 -1 -92 91 -3 91 -3 -3 453 c-1 249 -5 464 -8 478 -10 49 -12
55 -19 68 -5 6 -6 12 -3 12 11 0 -49 96 -78 126 -42 42 -102 80 -156 99 -60
22 -74 25 -150 31 -36 2 -70 7 -77 9 -6 2 -13 2 -15 1z m322 -773 c0 -76 -4
-95 -26 -137 -74 -140 -202 -209 -384 -210 -52 0 -104 3 -115 6 -75 23 -119
54 -155 109 -26 38 -29 50 -27 114 2 62 6 77 31 109 32 43 101 78 159 82 22 1
41 5 44 8 3 2 110 5 239 6 l234 1 0 -88z"/>
<path d="M12435 10448 c-94 -14 -150 -31 -209 -60 -68 -34 -163 -125 -189
-180 -10 -21 -19 -38 -20 -38 -1 0 -2 61 -1 135 0 74 -2 135 -5 136 -3 1 -45
2 -93 3 -83 2 -88 1 -88 -18 -1 -42 -1 -1172 -1 -1209 l1 -38 93 3 92 3 1 350
c0 193 3 364 7 380 4 17 9 39 11 50 19 92 116 214 206 260 28 14 52 25 55 25
3 0 6 0 8 1 33 10 68 13 142 13 102 1 163 -17 232 -68 44 -33 98 -119 107
-171 2 -17 5 -30 7 -30 1 0 3 -180 4 -400 2 -220 4 -404 4 -408 1 -4 43 -7 94
-6 l92 1 -1 422 c-1 465 -3 497 -43 588 -65 151 -193 239 -369 254 -37 3 -71
6 -77 8 -5 1 -32 -1 -60 -6z"/>
<path d="M10299 10440 c-1 -3 -2 -287 -3 -632 l-1 -627 27 3 c14 2 32 0 39 -5
7 -4 18 -5 23 -1 6 3 29 5 53 3 30 -2 43 1 44 11 0 7 2 173 3 368 2 195 6 364
9 375 46 174 163 292 319 321 18 3 40 7 48 9 8 2 29 4 46 4 l30 1 0 91 0 91
-62 -5 c-76 -7 -164 -37 -218 -74 -57 -40 -124 -112 -144 -155 -9 -21 -20 -38
-23 -38 -3 0 -5 59 -5 130 1 72 -1 130 -4 131 -23 4 -180 4 -181 -1z"/>
<path d="M11192 10440 c-5 -4 -8 -1175 -3 -1249 1 -8 8 -11 20 -8 10 2 25 1
32 -4 7 -4 18 -5 24 -1 14 9 37 9 56 0 9 -4 20 -4 24 0 3 4 11 7 17 7 11 0 14
1242 3 1253 -7 8 -163 10 -173 2z"/>
<path d="M13720 10436 c0 -5 -3 -7 -6 -3 -14 14 -178 -59 -224 -100 -90 -80
-146 -163 -179 -261 -78 -235 -23 -519 131 -669 69 -68 72 -70 134 -101 121
-60 222 -76 367 -58 144 18 277 99 348 214 11 17 22 32 23 32 4 0 -3 -262 -7
-285 -5 -26 -14 -49 -39 -106 -46 -104 -160 -188 -292 -216 -59 -12 -210 -7
-273 10 -68 18 -193 75 -193 89 0 4 -6 8 -13 8 -8 0 -22 9 -32 20 -10 11 -21
20 -26 20 -4 0 -20 -21 -35 -47 -15 -27 -30 -50 -34 -53 -13 -10 -17 -35 -6
-45 21 -21 146 -95 159 -95 7 0 17 -4 22 -9 8 -7 99 -40 128 -47 4 -1 8 -2 10
-4 20 -16 272 -19 345 -3 99 21 100 22 181 62 129 63 251 221 276 360 3 14 8
37 11 51 6 25 13 1216 7 1235 -5 14 -172 13 -181 -2 -4 -6 -7 -59 -7 -117 1
-58 -2 -106 -5 -106 -3 0 -20 19 -36 43 -58 81 -148 142 -259 176 -53 16 -93
20 -182 18 -63 -1 -113 -5 -113 -11z m245 -150 c102 -14 205 -80 274 -175 71
-100 99 -314 54 -421 -3 -8 -8 -23 -9 -33 -6 -27 -53 -97 -97 -144 -119 -127
-345 -159 -507 -72 -69 38 -86 52 -137 116 -53 67 -86 165 -89 264 -3 75 18
195 36 213 6 6 10 16 10 24 0 18 45 79 94 126 50 48 147 95 212 103 27 3 50 7
52 8 3 3 40 0 107 -9z"/>
<path d="M15809 10446 c-3 -3 -18 -7 -34 -10 -68 -12 -91 -19 -104 -30 -8 -6
-17 -10 -20 -9 -10 3 -74 -29 -111 -56 -170 -121 -258 -298 -261 -527 -2 -79
17 -183 42 -244 21 -49 64 -135 71 -140 3 -3 20 -22 36 -43 59 -74 166 -144
277 -182 21 -7 27 -8 108 -24 66 -12 189 -7 282 13 38 8 125 44 172 72 139 81
247 238 279 404 5 25 17 114 17 125 -2 114 -28 232 -73 329 -50 105 -182 229
-287 269 -27 11 -57 23 -68 27 -11 5 -33 11 -50 15 -35 8 -270 17 -276 11z
m206 -170 c76 -12 170 -65 242 -135 41 -39 93 -150 108 -227 7 -37 7 -161 0
-194 -2 -14 -8 -38 -11 -55 -4 -16 -19 -55 -34 -86 -78 -155 -226 -242 -405
-239 -89 1 -122 9 -201 46 -111 52 -210 175 -229 284 -3 18 -8 38 -12 43 -6
11 -6 162 1 196 57 270 264 411 541 367z"/>
<path d="M16894 10441 c-2 -2 -4 -287 -4 -633 l0 -629 53 2 c30 1 59 -1 65 -5
6 -3 13 -2 16 2 3 5 16 7 29 5 l23 -5 0 339 c-1 367 5 428 51 522 33 69 143
181 177 181 8 0 17 4 20 9 7 11 98 34 151 37 22 1 43 3 48 3 4 1 7 42 7 92 l0
91 -59 -5 c-78 -8 -103 -15 -169 -47 -72 -35 -141 -95 -182 -160 -18 -28 -35
-48 -38 -46 -2 3 -5 61 -6 128 l-1 123 -88 0 c-49 0 -90 -2 -93 -4z"/>
<path d="M18120 10443 c-50 -8 -146 -44 -191 -71 -147 -87 -248 -246 -266
-422 -22 -200 12 -353 106 -485 35 -49 109 -125 123 -125 4 0 13 -6 20 -13 23
-22 134 -67 195 -78 103 -20 193 -16 309 14 39 10 145 72 176 104 57 57 88 97
88 111 0 7 4 11 8 8 12 -7 6 -243 -7 -299 -36 -154 -151 -262 -322 -303 -88
-21 -276 -2 -364 37 -46 20 -127 70 -153 93 l-22 20 -18 -24 c-9 -13 -29 -45
-45 -71 l-27 -46 53 -36 c102 -67 224 -119 319 -134 72 -12 270 -8 328 6 253
63 416 241 446 488 9 76 11 1202 2 1216 -9 15 -176 17 -181 2 -2 -5 -3 -63 -2
-127 l1 -117 -24 37 c-65 98 -175 175 -297 206 -55 15 -193 19 -255 9z m225
-157 c172 -27 311 -168 341 -347 18 -112 7 -207 -35 -302 -52 -117 -154 -201
-284 -236 -55 -14 -193 -7 -251 13 -184 66 -292 241 -281 458 11 224 153 387
360 415 22 3 41 6 43 7 3 3 68 -1 107 -8z"/>
<path d="M14905 9402 c-49 -10 -89 -79 -80 -135 16 -86 97 -129 173 -88 72 39
74 173 2 211 -24 13 -67 18 -95 12z"/>
<path d="M1745 8874 c-33 -7 -75 -15 -93 -19 -19 -3 -42 -10 -53 -15 -10 -6
-19 -9 -19 -6 0 2 -28 -7 -62 -21 -35 -14 -76 -30 -93 -37 -16 -6 -32 -13 -35
-16 -3 -3 -21 -14 -40 -24 -56 -31 -162 -102 -195 -131 -102 -90 -172 -165
-184 -198 -7 -18 -4 -32 11 -58 24 -40 136 -152 198 -199 25 -19 47 -37 50
-40 7 -7 35 -24 130 -77 91 -51 285 -122 336 -123 17 0 34 -3 37 -7 15 -14
209 -21 320 -12 272 24 557 135 855 332 l132 88 101 -66 c218 -146 538 -284
713 -311 22 -3 43 -7 47 -9 9 -6 147 -27 209 -31 55 -4 271 -4 315 0 59 6 126
15 155 21 14 3 41 8 60 11 19 3 71 14 115 25 248 63 491 171 705 314 128 86
130 88 130 123 0 26 -9 37 -67 79 -161 116 -340 210 -544 287 -67 25 -225 73
-270 81 -13 3 -46 9 -74 15 -187 38 -507 45 -657 14 -13 -2 -39 -7 -58 -10
-54 -8 -260 -63 -299 -81 -20 -8 -40 -16 -46 -18 -89 -24 -361 -167 -445 -235
-14 -11 -31 -20 -37 -20 -7 0 -13 -3 -13 -8 0 -4 -9 -13 -21 -20 -17 -11 -24
-11 -37 1 -10 8 -46 34 -82 59 -219 149 -481 273 -665 313 -11 3 -40 9 -65 14
-91 20 -128 24 -265 26 -80 0 -166 -4 -200 -11z m2720 -109 c28 -3 64 -8 80
-10 226 -28 524 -139 765 -285 126 -76 138 -86 110 -95 -11 -3 -26 -12 -32
-19 -28 -27 -214 -129 -328 -180 -65 -28 -308 -112 -350 -119 -14 -3 -43 -8
-65 -12 -22 -4 -49 -10 -60 -12 -136 -30 -498 -35 -575 -9 -8 3 -31 7 -50 10
-94 12 -223 45 -262 67 -10 5 -24 9 -32 9 -55 0 -427 196 -524 275 -4 3 194
135 202 135 3 0 27 13 53 28 191 111 472 197 708 218 39 3 71 7 72 8 5 5 239
-3 288 -9z m-2350 -6 c165 -26 329 -82 495 -167 47 -25 95 -49 107 -56 13 -6
23 -14 23 -18 0 -5 5 -8 11 -8 11 0 176 -108 184 -120 5 -8 -158 -120 -174
-120 -5 0 -11 -4 -13 -9 -3 -10 -200 -113 -276 -145 -100 -42 -268 -91 -351
-102 -86 -12 -287 -10 -364 3 -142 24 -322 95 -421 165 -104 74 -176 135 -220
186 -19 22 -19 22 40 79 180 173 394 280 634 316 51 8 267 5 325 -4z"/>
<path d="M8347 8646 c-2 -6 -3 -62 -2 -123 0 -62 -1 -113 -4 -113 -3 0 -22 12
-42 26 -44 30 -122 41 -173 24 -44 -14 -103 -81 -118 -134 -25 -90 -8 -211 39
-266 32 -38 92 -70 132 -70 39 0 125 32 148 55 16 17 18 16 26 -15 4 -18 11
-30 14 -27 3 3 16 1 30 -4 l25 -9 -7 60 c-4 34 -7 182 -7 329 l-1 269 -28 4
c-16 3 -30 0 -32 -6z m-45 -268 c21 -12 39 -26 39 -32 1 -6 2 -60 3 -120 l1
-109 -30 -22 c-69 -51 -129 -61 -183 -30 -47 28 -66 70 -69 154 -2 81 13 131
49 163 20 17 32 22 83 31 24 4 56 -6 107 -35z"/>
<path d="M11279 8652 l-26 -3 -1 -117 c0 -122 -4 -130 -42 -98 -41 36 -128 45
-186 21 -95 -40 -143 -178 -107 -315 36 -141 194 -195 301 -105 31 26 42 24
42 -6 0 -22 26 -38 52 -31 16 4 18 10 12 36 -4 17 -8 162 -9 323 0 161 -3 294
-5 295 -3 2 -17 2 -31 0z m-83 -265 c54 -28 58 -39 56 -159 -2 -124 -7 -134
-80 -165 -92 -39 -182 7 -198 101 -34 195 72 301 222 223z"/>
<path d="M9720 8568 c-2 -79 -2 -118 1 -135 4 -21 -2 -37 -9 -27 -4 6 -28 23
-53 37 -134 78 -278 -20 -285 -194 -1 -37 2 -85 8 -106 21 -79 104 -153 171
-153 35 0 100 21 129 41 36 26 45 24 51 -10 6 -27 9 -29 34 -22 25 7 28 11 24
42 -3 19 -5 163 -5 321 l-1 288 -31 0 -32 0 -2 -82z m-31 -197 c28 -20 31 -28
32 -79 1 -31 0 -61 -1 -67 -1 -5 -2 -33 -1 -61 1 -49 -1 -53 -39 -78 -63 -41
-112 -48 -162 -22 -53 27 -79 76 -82 154 -3 70 9 112 43 153 45 54 134 54 210
0z"/>
<path d="M12789 8643 c-1 -5 -2 -149 -3 -322 -1 -306 -1 -314 19 -321 24 -9
45 5 45 31 0 24 3 24 48 -6 78 -52 186 -39 242 28 79 97 72 296 -14 369 -43
37 -72 47 -132 44 -56 -2 -87 -13 -126 -45 -20 -16 -20 -17 -19 147 l1 82 -30
0 c-17 0 -31 -3 -31 -7z m282 -254 c60 -42 83 -173 45 -257 -42 -92 -151 -108
-244 -35 -21 17 -23 26 -23 133 l0 115 32 27 c58 49 135 56 190 17z"/>
<path d="M16793 8328 c0 -178 1 -326 3 -330 2 -3 16 -3 32 1 l27 7 1 322 0
322 -31 0 -32 0 0 -322z"/>
<path d="M17037 8637 c-2 -6 -1 -23 1 -39 4 -23 9 -28 32 -28 31 0 39 13 31
50 -5 19 -13 25 -33 26 -15 1 -29 -3 -31 -9z"/>
<path d="M17759 8641 c-1 -3 -2 -21 -4 -38 -2 -31 0 -33 31 -33 30 0 32 2 30
33 -4 46 -4 45 -31 45 -14 0 -26 -3 -26 -7z"/>
<path d="M12013 8626 c-4 -6 -8 -42 -9 -81 -1 -38 -2 -74 -3 -79 -1 -4 -15 -6
-31 -4 -34 5 -50 -8 -46 -37 2 -15 11 -20 34 -21 18 -1 35 -2 40 -3 4 0 7 -77
7 -170 1 -220 12 -241 125 -241 43 0 50 3 50 20 0 11 1 23 3 28 1 4 -17 7 -40
7 -51 1 -72 22 -74 75 -4 109 -1 268 4 277 4 6 27 9 52 8 46 -3 53 1 60 35 3
17 -2 20 -38 21 -23 1 -50 1 -59 0 -18 -2 -23 29 -19 130 1 32 -2 37 -24 41
-14 3 -29 0 -32 -6z"/>
<path d="M6720 8598 c0 -18 -1 -40 -1 -48 0 -8 0 -20 1 -25 1 -6 2 -22 1 -37
-1 -25 -4 -27 -37 -24 -36 2 -40 -1 -46 -38 -3 -17 3 -20 36 -20 34 -1 41 -5
47 -27 3 -15 4 -32 0 -38 -4 -6 -6 -26 -4 -43 2 -18 4 -39 4 -45 0 -7 0 -33 0
-58 0 -45 0 -64 -2 -87 0 -7 2 -22 5 -33 2 -11 5 -26 5 -33 2 -24 64 -52 118
-52 50 0 52 1 51 29 -1 26 -4 28 -40 28 -69 0 -73 11 -74 196 l-1 162 56 0
c54 0 56 1 59 28 2 19 -1 27 -12 28 -9 0 -35 2 -58 2 l-43 2 -1 70 c-2 98 -1
95 -33 95 -27 0 -30 -3 -31 -32z"/>
<path d="M6300 8459 c-61 -25 -93 -81 -78 -138 13 -47 51 -77 118 -97 123 -34
168 -69 156 -120 -16 -64 -133 -74 -204 -17 -37 30 -39 30 -61 14 -32 -24 -19
-44 52 -79 71 -34 138 -40 192 -18 46 20 65 39 80 84 30 86 -34 154 -180 192
-93 24 -123 83 -62 121 41 26 106 19 151 -14 l32 -25 24 20 25 20 -29 23 c-52
41 -156 58 -216 34z"/>
<path d="M7100 8454 c-24 -9 -59 -28 -78 -42 l-33 -25 21 -21 c18 -19 23 -19
43 -6 99 63 159 74 201 38 27 -24 41 -65 28 -84 -4 -6 -51 -21 -105 -34 -133
-31 -185 -72 -194 -150 -10 -82 56 -146 143 -139 36 3 92 24 104 38 3 4 17 14
31 23 l27 17 6 -34 c6 -32 10 -35 42 -35 30 0 33 3 26 18 -5 9 -9 91 -10 181
-2 178 -8 202 -64 244 -37 27 -128 33 -188 11z m189 -266 c0 -80 -4 -85 -77
-118 -59 -27 -119 -26 -143 2 -40 45 -14 106 59 139 25 12 54 23 66 25 12 2
35 8 51 13 17 5 33 10 37 10 4 1 7 -31 7 -71z"/>
<path d="M7510 8405 c-2 -267 -1 -396 4 -403 3 -5 17 -7 31 -4 28 5 25 -18 27
246 l0 114 57 25 c31 14 70 27 87 28 39 4 81 -17 91 -45 3 -12 7 -97 7 -191
l1 -170 31 -3 32 -3 -2 91 c0 51 2 97 6 103 4 6 4 15 1 20 -3 5 -7 44 -8 86
-2 89 -20 133 -67 157 -42 22 -108 15 -181 -19 l-57 -26 0 27 c0 23 -4 27 -30
27 l-30 1 0 -61z"/>
<path d="M8648 8451 c-20 -10 -51 -29 -68 -41 l-32 -23 21 -21 c19 -19 23 -19
44 -6 98 63 159 75 202 37 25 -21 40 -78 23 -85 -38 -15 -88 -30 -88 -27 0 9
-122 -35 -148 -54 -57 -40 -78 -125 -45 -181 44 -74 158 -77 253 -6 19 15 36
23 37 19 0 -4 4 -21 8 -37 3 -15 8 -26 12 -23 3 3 16 2 28 -3 27 -10 36 3 25
35 -5 12 -8 90 -8 174 -1 167 -8 192 -65 235 -39 29 -146 32 -199 7z m199
-267 l-2 -77 -55 -28 c-96 -50 -180 -32 -180 39 0 56 43 90 155 122 89 26 84
29 82 -56z"/>
<path d="M9088 8462 c-17 -3 -18 -22 -18 -231 l0 -227 33 -2 32 -2 1 129 c0
117 2 133 25 177 30 57 78 94 125 94 21 0 34 5 34 13 0 6 3 22 6 35 6 19 3 22
-26 22 -44 0 -94 -26 -130 -66 -16 -19 -31 -34 -33 -34 -2 0 -4 15 -4 33 -1
68 -1 69 -45 59z"/>
<path d="M10013 8463 c-20 -4 -82 -55 -84 -71 -8 -42 -3 -81 14 -106 19 -27
81 -61 130 -72 36 -8 40 -10 79 -26 34 -15 56 -40 56 -63 0 -5 -7 -22 -16 -37
-17 -29 -57 -43 -107 -39 -32 3 -105 39 -105 53 0 13 -33 9 -54 -7 -19 -14
-19 -15 5 -36 123 -107 311 -82 334 45 15 79 -39 132 -183 177 -76 23 -104 50
-94 92 11 52 156 58 192 7 11 -15 17 -16 37 -7 28 12 29 28 5 50 -43 39 -129
56 -209 40z"/>
<path d="M11566 8455 c-42 -16 -106 -61 -106 -74 0 -4 11 -14 25 -21 22 -12
28 -10 57 12 68 51 142 62 182 25 25 -24 39 -66 28 -84 -4 -5 -41 -17 -83 -26
-151 -32 -217 -82 -221 -163 -3 -88 61 -141 155 -129 46 6 117 41 132 65 9 14
26 13 23 -2 -5 -30 13 -56 43 -60 29 -5 29 -4 25 35 -3 22 -6 104 -6 181 -2
157 -11 191 -63 228 -39 28 -135 34 -191 13z m190 -272 c-1 -67 -1 -67 -41
-94 -39 -27 -101 -45 -140 -40 -30 3 -63 48 -57 78 11 56 84 103 192 120 13 2
26 6 29 8 12 12 17 -11 17 -72z"/>
<path d="M12400 8463 c-30 -10 -120 -67 -120 -76 0 -5 10 -17 22 -27 21 -17
23 -16 42 1 37 35 99 58 144 55 51 -4 71 -20 82 -69 6 -30 5 -37 -9 -41 -14
-5 -91 -22 -132 -31 -9 -2 -38 -13 -65 -24 -63 -27 -97 -76 -97 -136 0 -82 59
-132 144 -122 49 6 129 41 129 56 0 5 7 11 15 15 10 4 17 -6 25 -35 7 -27 15
-37 23 -32 7 4 20 6 30 4 17 -2 18 2 11 31 -4 18 -8 101 -9 183 -1 178 -9 201
-82 239 -31 15 -120 21 -153 9z m171 -245 c8 -91 0 -110 -62 -141 -97 -50
-172 -31 -172 43 0 50 46 88 139 116 44 12 82 23 85 23 4 1 9 -18 10 -41z"/>
<path d="M13417 8456 c-47 -17 -107 -57 -107 -72 0 -6 7 -17 15 -24 13 -11 21
-10 43 1 15 8 29 16 32 19 15 15 56 31 90 36 53 8 98 -19 106 -62 9 -50 10
-49 -96 -69 -51 -9 -121 -36 -151 -58 -38 -28 -63 -87 -55 -132 18 -95 114
-130 220 -80 32 15 60 33 63 41 10 25 23 15 29 -24 6 -35 8 -38 35 -34 27 4
35 14 29 37 -2 6 -4 80 -5 165 -1 125 -5 162 -19 192 -32 68 -137 97 -229 64z
m184 -208 c1 -7 0 -26 -2 -43 -1 -16 -3 -46 -3 -65 -1 -31 -6 -37 -56 -62
-100 -50 -187 -28 -175 44 11 62 36 82 145 114 92 27 90 27 91 12z"/>
<path d="M13875 8461 c-25 -10 -75 -60 -76 -75 0 -6 -2 -20 -4 -30 -6 -33 21
-82 56 -103 19 -11 66 -30 105 -42 40 -11 81 -29 92 -38 49 -42 28 -107 -39
-122 -38 -9 -108 7 -133 30 -43 39 -43 39 -70 18 l-26 -20 28 -23 c45 -39 92
-58 153 -63 134 -13 224 99 157 197 -20 28 -42 44 -98 70 -17 8 -76 22 -85 20
-14 -3 -64 36 -74 57 -10 21 -7 28 17 53 25 25 36 28 79 26 37 -1 60 -9 86
-28 l34 -27 21 22 c16 17 18 24 8 33 -14 13 -58 38 -68 39 -3 0 -10 3 -14 8
-10 9 -124 8 -149 -2z"/>
<path d="M14355 8454 c-74 -38 -115 -109 -119 -206 -5 -111 39 -199 118 -237
76 -37 150 -23 223 43 l48 44 -24 21 -25 21 -39 -40 c-36 -36 -50 -42 -123
-53 -15 -3 -82 45 -88 63 -33 90 -34 100 -17 108 9 5 80 8 159 7 87 0 147 4
151 10 14 18 -14 121 -43 160 -51 66 -154 94 -221 59z m157 -71 c16 -16 33
-46 37 -66 l9 -35 -127 1 c-141 2 -143 4 -108 68 27 50 62 71 116 65 31 -3 52
-12 73 -33z"/>
<path d="M14793 8454 c-39 -20 -57 -40 -71 -80 -7 -23 -7 -35 1 -43 6 -6 8
-11 3 -11 -4 0 1 -13 10 -29 14 -23 74 -62 104 -67 3 0 12 -3 20 -6 8 -3 34
-11 57 -18 59 -18 85 -44 81 -82 -8 -81 -140 -94 -213 -22 -13 13 -23 15 -43
8 -39 -14 -37 -30 10 -62 59 -40 111 -55 168 -49 114 12 174 94 133 182 -20
42 -64 69 -161 100 -88 28 -116 52 -105 93 14 54 116 65 180 19 l37 -26 19 20
c18 19 18 21 2 39 -41 45 -171 64 -232 34z"/>
<path d="M15884 8461 c-5 -4 -25 -18 -45 -29 l-36 -22 1 22 c1 19 -5 24 -31
26 -22 2 -33 -1 -34 -10 -4 -62 -3 -592 2 -605 7 -20 45 -27 55 -11 4 6 6 58
5 115 -1 93 6 123 23 94 13 -21 101 -52 140 -50 118 7 188 103 182 252 -4 89
-31 153 -83 192 -31 24 -48 29 -103 32 -37 1 -71 -2 -76 -6z m136 -69 c44 -33
63 -79 63 -146 -1 -105 -16 -146 -66 -176 -40 -25 -91 -25 -142 0 -76 36 -75
34 -74 163 l0 117 31 21 c68 49 140 57 188 21z"/>
<path d="M16357 8450 c-108 -59 -147 -230 -80 -354 19 -34 49 -66 63 -66 6 0
10 -4 10 -8 0 -15 63 -31 113 -28 115 7 187 98 189 236 0 99 -59 204 -130 227
-51 18 -125 14 -165 -7z m179 -71 c39 -38 53 -84 50 -164 -3 -64 -18 -100 -57
-138 -65 -62 -166 -31 -206 63 -21 49 -18 151 6 199 43 84 141 103 207 40z"/>
<path d="M17040 8436 c-3 -198 0 -428 5 -437 5 -7 11 -7 17 -1 6 6 17 8 24 5
17 -6 15 -25 17 237 l1 214 -32 7 c-31 6 -32 5 -32 -25z"/>
<path d="M17365 8454 c-43 -22 -74 -53 -98 -99 -30 -56 -29 -192 1 -251 71
-139 246 -152 335 -24 22 32 22 35 -8 48 -32 15 -35 15 -35 0 0 -6 -17 -27
-37 -46 -35 -32 -42 -34 -90 -30 -40 4 -58 11 -74 29 -38 43 -51 80 -52 148
-2 117 58 194 146 186 34 -4 49 -12 78 -45 40 -44 47 -46 74 -26 17 13 17 15
-9 49 -52 68 -162 97 -231 61z"/>
<path d="M17756 8461 c-7 -13 0 -456 7 -458 4 -2 17 -3 30 -3 l23 0 1 229 0
229 -29 4 c-16 3 -30 2 -32 -1z"/>
<path d="M18075 8454 c-74 -38 -115 -109 -117 -201 -3 -109 18 -164 82 -221
75 -66 190 -51 275 38 l30 32 -24 19 -24 20 -21 -23 c-66 -75 -141 -89 -199
-38 -32 27 -57 84 -57 126 0 18 10 19 153 18 83 0 157 2 164 4 12 4 10 29 -8
104 -26 105 -162 170 -254 122z m152 -65 c28 -27 38 -43 46 -80 l7 -26 -126 0
c-68 0 -127 4 -130 9 -10 15 34 92 63 111 38 24 106 17 140 -14z"/>
<path d="M18511 8453 c-41 -21 -71 -67 -71 -112 0 -49 58 -102 130 -120 118
-30 167 -69 149 -117 -12 -34 -49 -54 -100 -54 -37 0 -57 7 -96 34 l-49 34
-24 -20 -25 -20 30 -24 c77 -61 185 -80 256 -44 97 50 100 174 4 225 -16 9
-66 28 -110 43 -82 28 -108 52 -98 91 7 29 56 51 101 47 36 -4 88 -28 103 -49
3 -4 17 1 30 13 l24 20 -28 25 c-51 45 -162 59 -226 28z"/>
<path d="M10403 8052 c2 -31 8 -47 19 -51 15 -5 15 -12 -7 -65 -13 -33 -22
-62 -20 -64 25 -25 87 91 91 171 l3 57 -44 -2 -45 -1 3 -45z"/>
<path d="M15198 8090 c-7 -21 4 -90 13 -84 5 3 12 -2 15 -10 6 -15 -10 -60
-37 -108 -7 -15 -5 -18 11 -18 14 0 26 11 36 33 9 17 23 47 33 65 10 19 17 54
16 80 l0 47 -42 3 c-24 2 -43 -2 -45 -8z"/>
</g>
</svg>
