<?xml version="1.0" encoding="UTF-8"?>
<svg xmlns="http://www.w3.org/2000/svg" xmlns:xlink="http://www.w3.org/1999/xlink" width="276.67pt" height="276.67pt" viewBox="0 0 276.67 276.67" version="1.1">
<g id="surface1">
<path style=" stroke:none;fill-rule:nonzero;fill:rgb(97.599792%,70.599365%,15.699768%);fill-opacity:1;" d="M 276.667969 138.335938 C 276.667969 214.734375 214.734375 276.667969 138.335938 276.667969 C 61.933594 276.667969 0 214.734375 0 138.335938 C 0 61.9375 61.933594 0.00390625 138.335938 0.00390625 C 214.734375 0.00390625 276.667969 61.9375 276.667969 138.335938 "/>
<path style=" stroke:none;fill-rule:nonzero;fill:rgb(13.299561%,11.799622%,12.199402%);fill-opacity:1;" d="M 60.015625 159.46875 C 49.121094 159.46875 40.292969 153.78125 40.292969 138.183594 C 40.292969 127.292969 49.121094 118.460938 60.015625 118.460938 C 70.035156 118.460938 78.292969 125.941406 79.550781 135.621094 L 79.550781 140.777344 C 78.292969 150.667969 70.035156 159.46875 60.015625 159.46875 M 79.550781 50.65625 L 79.550781 107.453125 C 72.359375 100.839844 62.792969 96.769531 52.25 96.769531 C 29.945313 96.769531 11.863281 114.851563 11.863281 137.15625 C 11.863281 159.460938 23.664063 180.886719 52.25 181.648438 C 62.777344 181.929688 72.363281 177 79.550781 169.371094 L 79.550781 180.886719 L 105.726563 180.886719 L 105.726563 50.65625 "/>
<path style=" stroke:none;fill-rule:nonzero;fill:rgb(100%,100%,100%);fill-opacity:1;" d="M 157.089844 157.378906 C 147.023438 157.378906 138.859375 149.21875 138.859375 139.148438 C 138.859375 129.082031 147.023438 120.921875 157.089844 120.921875 C 167.15625 120.921875 175.320313 129.082031 175.320313 139.148438 C 175.320313 149.21875 167.15625 157.378906 157.089844 157.378906 M 157.65625 95.636719 C 131.992188 95.636719 111.1875 114.359375 111.1875 140.023438 C 111.1875 165.6875 131.992188 183.613281 157.65625 183.613281 C 183.320313 183.613281 204.121094 165.6875 204.121094 140.023438 C 204.121094 114.359375 183.320313 95.636719 157.65625 95.636719 "/>
<path style=" stroke:none;fill-rule:nonzero;fill:rgb(100%,100%,100%);fill-opacity:1;" d="M 211.160156 180.886719 L 239.953125 180.886719 L 239.953125 98.835938 L 211.160156 98.835938 Z M 211.160156 180.886719 "/>
<path style=" stroke:none;fill-rule:nonzero;fill:rgb(100%,100%,100%);fill-opacity:1;" d="M 225.796875 83.480469 C 234.320313 83.480469 241.234375 76.566406 241.234375 68.042969 C 241.234375 59.519531 234.320313 52.605469 225.796875 52.605469 C 217.273438 52.605469 210.359375 59.519531 210.359375 68.042969 C 210.359375 76.566406 217.273438 83.480469 225.796875 83.480469 "/>
</g>
</svg>