<svg id="Layer_1" data-name="Layer 1" xmlns="http://www.w3.org/2000/svg" xmlns:xlink="http://www.w3.org/1999/xlink" viewBox="0 0 267.22 207.33"><defs><clipPath id="clip-path"><circle cx="23.84" cy="102.24" r="14.2" style="fill:none"/></clipPath><clipPath id="clip-path-2"><rect x="41.74" y="6.92" width="187.78" height="191.2" style="fill:none"/></clipPath></defs><rect width="267.22" height="207.33" style="fill:#253443"/><circle cx="135.7" cy="102.56" r="46.17" style="fill:#2c4256;stroke:#39a8e0;stroke-miterlimit:10"/><line x1="140.77" y1="99.48" x2="175.8" y2="79.26" style="fill:none;stroke:#39a8e0;stroke-miterlimit:10"/><line x1="135.26" y1="108.88" x2="135.26" y2="149.23" style="fill:none;stroke:#39a8e0;stroke-miterlimit:10"/><path d="M122.07,76.34h-.86V74.13H119v2.21h-.86v-5H119v2.07h2.23V71.36h.86Z" style="fill:#fff"/><path d="M125.25,76a1.31,1.31,0,0,1-1,.43,1.14,1.14,0,0,1-.91-.36,1.51,1.51,0,0,1-.31-1v-2.4h.83V75c0,.47.2.7.59.7a.83.83,0,0,0,.82-.43V72.64h.83v3.7h-.79Z" style="fill:#fff"/><path d="M127.68,72.64l0,.39a1.3,1.3,0,0,1,1.06-.46,1,1,0,0,1,1,.57,1.31,1.31,0,0,1,1.13-.57,1.12,1.12,0,0,1,.91.34,1.48,1.48,0,0,1,.31,1v2.43h-.83V73.93a.74.74,0,0,0-.15-.51.7.7,0,0,0-.51-.17.72.72,0,0,0-.47.15.88.88,0,0,0-.25.4v2.54h-.83V73.9a.6.6,0,0,0-.67-.65.74.74,0,0,0-.71.41v2.68h-.83v-3.7Z" style="fill:#fff"/><path d="M135.2,76.34a1.32,1.32,0,0,1-.09-.35,1.39,1.39,0,0,1-1.88.1,1,1,0,0,1-.36-.79,1,1,0,0,1,.44-.9,2.08,2.08,0,0,1,1.26-.32h.51v-.24a.59.59,0,0,0-.65-.64.69.69,0,0,0-.46.15.41.41,0,0,0-.19.36H133a.92.92,0,0,1,.2-.57,1.37,1.37,0,0,1,.55-.42,2,2,0,0,1,.78-.15,1.52,1.52,0,0,1,1,.33,1.17,1.17,0,0,1,.4.92v1.66a2,2,0,0,0,.14.8v.06Zm-.91-.6a.93.93,0,0,0,.46-.12.79.79,0,0,0,.33-.32v-.7h-.45a1.25,1.25,0,0,0-.69.16.52.52,0,0,0-.23.46.5.5,0,0,0,.15.38A.65.65,0,0,0,134.29,75.74Z" style="fill:#fff"/><path d="M137.55,72.64l0,.43a1.36,1.36,0,0,1,1.08-.5c.77,0,1.16.44,1.18,1.32v2.45H139v-2.4a.72.72,0,0,0-.16-.52.63.63,0,0,0-.49-.17.79.79,0,0,0-.75.46v2.63h-.83v-3.7Z" style="fill:#fff"/><path d="M140.68,71.68a.42.42,0,0,1,.46-.44.48.48,0,0,1,.35.12.45.45,0,0,1,.12.32.41.41,0,0,1-.12.31.45.45,0,0,1-.35.13.42.42,0,0,1-.34-.13A.41.41,0,0,1,140.68,71.68Zm.88,4.66h-.83v-3.7h.83Z" style="fill:#fff"/><path d="M143.5,71.74v.9h.65v.62h-.65v2.06a.46.46,0,0,0,.09.31.38.38,0,0,0,.3.09l.29,0v.64a2.22,2.22,0,0,1-.55.08c-.64,0-1-.36-1-1.06V73.26h-.61v-.62h.61v-.9Z" style="fill:#fff"/><path d="M144.79,71.68a.45.45,0,0,1,.12-.32.48.48,0,0,1,.35-.12.5.5,0,0,1,.35.12.45.45,0,0,1,.12.32.41.41,0,0,1-.12.31.46.46,0,0,1-.35.13.45.45,0,0,1-.35-.13A.41.41,0,0,1,144.79,71.68Zm.88,4.66h-.83v-3.7h.83Z" style="fill:#fff"/><path d="M148.21,76.41a1.71,1.71,0,0,1-1.28-.5,1.79,1.79,0,0,1-.5-1.32v-.11a2.25,2.25,0,0,1,.22-1,1.65,1.65,0,0,1,.6-.68,1.59,1.59,0,0,1,.86-.24,1.47,1.47,0,0,1,1.17.48,2.09,2.09,0,0,1,.41,1.37v.33h-2.42a1.14,1.14,0,0,0,.31.73.94.94,0,0,0,.67.26,1.12,1.12,0,0,0,.93-.46l.45.43a1.53,1.53,0,0,1-.59.51A1.78,1.78,0,0,1,148.21,76.41Zm-.1-3.17a.71.71,0,0,0-.56.24,1.17,1.17,0,0,0-.26.66h1.58v-.06a1,1,0,0,0-.22-.63A.7.7,0,0,0,148.11,73.24Z" style="fill:#fff"/><path d="M152.4,75.33a.37.37,0,0,0-.18-.33,1.84,1.84,0,0,0-.6-.21,2.69,2.69,0,0,1-.71-.23.93.93,0,0,1-.62-.87,1,1,0,0,1,.4-.8,1.62,1.62,0,0,1,1-.32,1.67,1.67,0,0,1,1.07.33,1,1,0,0,1,.4.85h-.83a.51.51,0,0,0-.17-.4.72.72,0,0,0-.47-.16.75.75,0,0,0-.45.13.38.38,0,0,0-.17.34.33.33,0,0,0,.16.3,2.09,2.09,0,0,0,.65.21,2.89,2.89,0,0,1,.76.26,1.06,1.06,0,0,1,.42.35.92.92,0,0,1,.13.51,1,1,0,0,1-.41.81,1.82,1.82,0,0,1-1.08.31,1.94,1.94,0,0,1-.82-.17,1.37,1.37,0,0,1-.55-.45,1.09,1.09,0,0,1-.2-.62H151a.62.62,0,0,0,.22.46.91.91,0,0,0,.54.15.86.86,0,0,0,.5-.12A.37.37,0,0,0,152.4,75.33Z" style="fill:#fff"/><path d="M114,82.26a.57.57,0,0,0-.24-.5,2.66,2.66,0,0,0-.83-.36,4,4,0,0,1-1-.41,1.27,1.27,0,0,1-.68-1.11,1.21,1.21,0,0,1,.5-1,2,2,0,0,1,1.27-.39,2.1,2.1,0,0,1,.92.19,1.49,1.49,0,0,1,.64.54,1.39,1.39,0,0,1,.24.79H114a.8.8,0,0,0-.25-.61,1,1,0,0,0-.7-.22,1.08,1.08,0,0,0-.66.18.62.62,0,0,0-.23.51.53.53,0,0,0,.25.45,3.14,3.14,0,0,0,.84.36,3.71,3.71,0,0,1,.93.39,1.59,1.59,0,0,1,.52.51,1.4,1.4,0,0,1,.16.66,1.17,1.17,0,0,1-.48,1,2,2,0,0,1-1.29.37,2.47,2.47,0,0,1-1-.2,1.66,1.66,0,0,1-.71-.55,1.37,1.37,0,0,1-.25-.82H112a.78.78,0,0,0,.28.65,1.18,1.18,0,0,0,.8.24,1,1,0,0,0,.68-.19A.59.59,0,0,0,114,82.26Z" style="fill:#fff"/><path d="M115.39,81.66a2.11,2.11,0,0,1,.22-1,1.56,1.56,0,0,1,.6-.67,1.68,1.68,0,0,1,.9-.23,1.6,1.6,0,0,1,1.21.48,1.93,1.93,0,0,1,.51,1.28v.19a2.21,2.21,0,0,1-.21,1,1.56,1.56,0,0,1-.6.67,1.78,1.78,0,0,1-.91.23,1.6,1.6,0,0,1-1.25-.52,2,2,0,0,1-.47-1.39Zm.83.07a1.45,1.45,0,0,0,.24.89.82.82,0,0,0,1.31,0,1.62,1.62,0,0,0,.23-1,1.49,1.49,0,0,0-.24-.89.81.81,0,0,0-1.3,0A1.58,1.58,0,0,0,116.22,81.73Z" style="fill:#fff"/><path d="M121.05,83a.77.77,0,0,0,.52-.18.61.61,0,0,0,.22-.45h.78a1.25,1.25,0,0,1-.21.64,1.51,1.51,0,0,1-.55.48,1.72,1.72,0,0,1-.75.17,1.61,1.61,0,0,1-1.23-.5,2,2,0,0,1-.45-1.39v-.08a2,2,0,0,1,.45-1.36,1.55,1.55,0,0,1,1.23-.5,1.48,1.48,0,0,1,1.07.38,1.36,1.36,0,0,1,.44,1h-.78a.73.73,0,0,0-.22-.52.69.69,0,0,0-.52-.21.74.74,0,0,0-.62.29,1.48,1.48,0,0,0-.22.89v.14a1.44,1.44,0,0,0,.22.89A.71.71,0,0,0,121.05,83Z" style="fill:#fff"/><path d="M123.2,78.88a.43.43,0,0,1,.12-.31.45.45,0,0,1,.35-.13.46.46,0,0,1,.35.13.43.43,0,0,1,.12.31.45.45,0,0,1-.12.32.5.5,0,0,1-.35.12.48.48,0,0,1-.35-.12A.45.45,0,0,1,123.2,78.88Zm.88,4.66h-.83v-3.7h.83Z" style="fill:#fff"/><path d="M127.19,83.54a1.73,1.73,0,0,1-.09-.34,1.32,1.32,0,0,1-1,.41,1.27,1.27,0,0,1-.91-.32,1,1,0,0,1-.35-.78,1,1,0,0,1,.44-.91,2.12,2.12,0,0,1,1.25-.32h.51V81a.65.65,0,0,0-.16-.46.66.66,0,0,0-.49-.17.74.74,0,0,0-.46.14.43.43,0,0,0-.18.36H125a.9.9,0,0,1,.2-.57,1.31,1.31,0,0,1,.55-.41,1.92,1.92,0,0,1,.77-.15,1.56,1.56,0,0,1,1,.32,1.18,1.18,0,0,1,.39.92v1.67a1.9,1.9,0,0,0,.14.79v.06Zm-.91-.6a.9.9,0,0,0,.46-.12.68.68,0,0,0,.33-.32v-.69h-.45a1.19,1.19,0,0,0-.69.16.5.5,0,0,0-.23.45.46.46,0,0,0,.16.38A.56.56,0,0,0,126.28,82.94Z" style="fill:#fff"/><path d="M129.65,83.54h-.83V78.29h.83Z" style="fill:#fff"/><path d="M135,82.26a.56.56,0,0,0-.23-.5,2.66,2.66,0,0,0-.83-.36,4,4,0,0,1-1-.41,1.27,1.27,0,0,1-.68-1.11,1.23,1.23,0,0,1,.49-1,2,2,0,0,1,1.28-.39,2.1,2.1,0,0,1,.92.19,1.49,1.49,0,0,1,.64.54,1.39,1.39,0,0,1,.24.79H135a.79.79,0,0,0-.24-.61,1,1,0,0,0-.7-.22,1.08,1.08,0,0,0-.66.18.62.62,0,0,0-.23.51.53.53,0,0,0,.25.45,3.14,3.14,0,0,0,.84.36,3.71,3.71,0,0,1,.93.39,1.59,1.59,0,0,1,.52.51,1.4,1.4,0,0,1,.16.66,1.17,1.17,0,0,1-.48,1,2,2,0,0,1-1.29.37,2.47,2.47,0,0,1-1-.2,1.66,1.66,0,0,1-.71-.55,1.37,1.37,0,0,1-.25-.82H133a.79.79,0,0,0,.29.65,1.18,1.18,0,0,0,.8.24,1,1,0,0,0,.68-.19A.58.58,0,0,0,135,82.26Z" style="fill:#fff"/><path d="M138.05,83a.74.74,0,0,0,.51-.18.61.61,0,0,0,.22-.45h.78a1.16,1.16,0,0,1-.21.64,1.51,1.51,0,0,1-.55.48,1.71,1.71,0,0,1-.74.17,1.58,1.58,0,0,1-1.23-.5,2,2,0,0,1-.46-1.39v-.08a2,2,0,0,1,.45-1.36,1.55,1.55,0,0,1,1.23-.5,1.52,1.52,0,0,1,1.08.38,1.35,1.35,0,0,1,.43,1h-.78a.73.73,0,0,0-.22-.52.66.66,0,0,0-.51-.21.76.76,0,0,0-.63.29,1.56,1.56,0,0,0-.22.89v.14a1.44,1.44,0,0,0,.22.89A.72.72,0,0,0,138.05,83Z" style="fill:#fff"/><path d="M140.19,78.88a.43.43,0,0,1,.12-.31.46.46,0,0,1,.35-.13.45.45,0,0,1,.35.13.43.43,0,0,1,.12.31.45.45,0,0,1-.12.32.48.48,0,0,1-.35.12.5.5,0,0,1-.35-.12A.45.45,0,0,1,140.19,78.88Zm.88,4.66h-.83v-3.7h.83Z" style="fill:#fff"/><path d="M143.61,83.61a1.71,1.71,0,0,1-1.28-.5,1.78,1.78,0,0,1-.49-1.32v-.1a2.25,2.25,0,0,1,.21-1,1.58,1.58,0,0,1,1.46-.92,1.46,1.46,0,0,1,1.17.48,2,2,0,0,1,.41,1.36V82h-2.42a1.14,1.14,0,0,0,.31.72.9.9,0,0,0,.67.27,1.12,1.12,0,0,0,.93-.46l.45.42a1.49,1.49,0,0,1-.59.52A1.9,1.9,0,0,1,143.61,83.61Zm-.1-3.17a.69.69,0,0,0-.55.24,1.25,1.25,0,0,0-.27.67h1.58v-.06a1,1,0,0,0-.22-.63A.67.67,0,0,0,143.51,80.44Z" style="fill:#fff"/><path d="M146.51,79.84l0,.43a1.32,1.32,0,0,1,1.08-.49q1.15,0,1.17,1.32v2.44H148V81.15a.75.75,0,0,0-.15-.52.62.62,0,0,0-.5-.17.81.81,0,0,0-.75.45v2.63h-.83v-3.7Z" style="fill:#fff"/><path d="M151.15,83a.72.72,0,0,0,.51-.18.61.61,0,0,0,.22-.45h.79a1.18,1.18,0,0,1-.22.64,1.43,1.43,0,0,1-.55.48,1.68,1.68,0,0,1-.74.17,1.58,1.58,0,0,1-1.23-.5,2,2,0,0,1-.46-1.39v-.08a2,2,0,0,1,.45-1.36,1.58,1.58,0,0,1,1.23-.5,1.5,1.5,0,0,1,1.08.38,1.39,1.39,0,0,1,.44,1h-.79a.77.77,0,0,0-.21-.52.7.7,0,0,0-.52-.21.73.73,0,0,0-.62.29,1.55,1.55,0,0,0-.23.89v.14a1.51,1.51,0,0,0,.22.89A.74.74,0,0,0,151.15,83Z" style="fill:#fff"/><path d="M154.92,83.61a1.74,1.74,0,0,1-1.28-.5,1.78,1.78,0,0,1-.49-1.32v-.1a2.25,2.25,0,0,1,.21-1A1.68,1.68,0,0,1,154,80a1.57,1.57,0,0,1,.86-.24,1.44,1.44,0,0,1,1.16.48,2,2,0,0,1,.41,1.36V82H154a1.13,1.13,0,0,0,.3.72A.93.93,0,0,0,155,83a1.15,1.15,0,0,0,.93-.46l.45.42a1.52,1.52,0,0,1-.6.52A1.84,1.84,0,0,1,154.92,83.61Zm-.1-3.17a.71.71,0,0,0-.55.24,1.25,1.25,0,0,0-.27.67h1.58v-.06a1,1,0,0,0-.22-.63A.67.67,0,0,0,154.82,80.44Z" style="fill:#fff"/><path d="M159.12,82.54a.38.38,0,0,0-.18-.34,1.91,1.91,0,0,0-.61-.21,2.63,2.63,0,0,1-.7-.22.94.94,0,0,1-.63-.87,1,1,0,0,1,.41-.8,1.56,1.56,0,0,1,1-.32,1.7,1.7,0,0,1,1.07.32,1,1,0,0,1,.41.86h-.83a.5.5,0,0,0-.18-.4.65.65,0,0,0-.47-.16.74.74,0,0,0-.44.12.41.41,0,0,0-.18.34.35.35,0,0,0,.16.3,2.31,2.31,0,0,0,.65.21,3.42,3.42,0,0,1,.77.26,1,1,0,0,1,.41.36.92.92,0,0,1,.14.5,1,1,0,0,1-.41.81,1.76,1.76,0,0,1-1.09.31,1.92,1.92,0,0,1-.81-.16,1.37,1.37,0,0,1-.55-.45,1.11,1.11,0,0,1-.2-.62h.81a.58.58,0,0,0,.22.45.85.85,0,0,0,.54.16.79.79,0,0,0,.5-.13A.39.39,0,0,0,159.12,82.54Z" style="fill:#fff"/><path d="M107.86,115.93H107l-2.22-3.53v3.53h-.86v-5h.86L107,114.5V111h.85Z" style="fill:#fff"/><path d="M111,115.93a1.88,1.88,0,0,1-.09-.35,1.3,1.3,0,0,1-1,.42,1.31,1.31,0,0,1-.91-.32,1,1,0,0,1-.35-.79,1,1,0,0,1,.44-.91,2.12,2.12,0,0,1,1.25-.31h.51v-.24a.61.61,0,0,0-.16-.46.63.63,0,0,0-.49-.18.69.69,0,0,0-.46.15.43.43,0,0,0-.18.36h-.83a.86.86,0,0,1,.2-.57,1.25,1.25,0,0,1,.55-.42,1.92,1.92,0,0,1,.77-.15,1.56,1.56,0,0,1,1,.33,1.14,1.14,0,0,1,.39.91v1.67a2,2,0,0,0,.14.8v.06Zm-.91-.6a.9.9,0,0,0,.46-.12.79.79,0,0,0,.33-.32v-.7h-.45a1.19,1.19,0,0,0-.69.16.54.54,0,0,0-.23.46.48.48,0,0,0,.16.38A.61.61,0,0,0,110.1,115.33Z" style="fill:#fff"/><path d="M113.63,111.33v.9h.66v.61h-.66v2.07a.41.41,0,0,0,.09.3.35.35,0,0,0,.3.1,1,1,0,0,0,.29,0v.65a2.15,2.15,0,0,1-.55.08c-.64,0-1-.36-1-1.06v-2.1h-.61v-.61h.61v-.9Z" style="fill:#fff"/><path d="M117.16,115.57a1.31,1.31,0,0,1-1,.43,1.14,1.14,0,0,1-.91-.36,1.45,1.45,0,0,1-.31-1v-2.4h.83v2.38c0,.47.2.71.59.71a.82.82,0,0,0,.81-.44v-2.65H118v3.7h-.78Z" style="fill:#fff"/><path d="M120.74,113a1.76,1.76,0,0,0-.33,0,.77.77,0,0,0-.77.44v2.53h-.83v-3.7h.79l0,.41a.94.94,0,0,1,.83-.48.85.85,0,0,1,.3,0Z" style="fill:#fff"/><path d="M123.48,115.93a1.25,1.25,0,0,1-.1-.35,1.26,1.26,0,0,1-1,.42,1.33,1.33,0,0,1-.91-.32,1,1,0,0,1-.35-.79,1.07,1.07,0,0,1,.44-.91,2.13,2.13,0,0,1,1.26-.31h.51v-.24a.66.66,0,0,0-.16-.46.63.63,0,0,0-.49-.18.72.72,0,0,0-.47.15.43.43,0,0,0-.18.36h-.83a.92.92,0,0,1,.2-.57,1.37,1.37,0,0,1,.55-.42,1.92,1.92,0,0,1,.77-.15,1.54,1.54,0,0,1,1,.33,1.15,1.15,0,0,1,.4.91v1.67a1.79,1.79,0,0,0,.14.8v.06Zm-.91-.6a.92.92,0,0,0,.79-.44v-.7h-.45a1.17,1.17,0,0,0-.69.16.52.52,0,0,0-.24.46.51.51,0,0,0,.16.38A.65.65,0,0,0,122.57,115.33Z" style="fill:#fff"/><path d="M125.94,115.93h-.83v-5.25h.83Z" style="fill:#fff"/><path d="M105.65,121.85a.62.62,0,0,0-.23-.51,3.43,3.43,0,0,0-.83-.36,3.85,3.85,0,0,1-1-.4,1.27,1.27,0,0,1-.68-1.11,1.2,1.2,0,0,1,.49-1,2,2,0,0,1,1.27-.39,2.12,2.12,0,0,1,.93.19,1.61,1.61,0,0,1,.64.54,1.46,1.46,0,0,1,.23.79h-.86a.75.75,0,0,0-.25-.61,1,1,0,0,0-.69-.22,1,1,0,0,0-.66.18.59.59,0,0,0-.24.5.54.54,0,0,0,.26.46,2.91,2.91,0,0,0,.83.36,3.42,3.42,0,0,1,.93.39,1.47,1.47,0,0,1,.52.5,1.33,1.33,0,0,1,.16.67,1.19,1.19,0,0,1-.47,1,2.05,2.05,0,0,1-1.3.37,2.47,2.47,0,0,1-1-.2,1.63,1.63,0,0,1-.7-.55,1.38,1.38,0,0,1-.26-.82h.87a.78.78,0,0,0,.28.65,1.19,1.19,0,0,0,.8.24,1,1,0,0,0,.68-.19A.59.59,0,0,0,105.65,121.85Z" style="fill:#fff"/><path d="M108.71,122.54a.77.77,0,0,0,.52-.18.67.67,0,0,0,.22-.45h.78a1.18,1.18,0,0,1-.22.64,1.4,1.4,0,0,1-.54.48,1.72,1.72,0,0,1-.75.17,1.58,1.58,0,0,1-1.23-.5,2,2,0,0,1-.45-1.39v-.09a2,2,0,0,1,.45-1.35,1.56,1.56,0,0,1,1.23-.51,1.48,1.48,0,0,1,1.07.39,1.36,1.36,0,0,1,.44,1h-.78a.78.78,0,0,0-.22-.52.7.7,0,0,0-.52-.21.73.73,0,0,0-.62.29,1.46,1.46,0,0,0-.22.89v.13a1.57,1.57,0,0,0,.21.9A.74.74,0,0,0,108.71,122.54Z" style="fill:#fff"/><path d="M110.86,118.47a.47.47,0,0,1,.12-.32.48.48,0,0,1,.35-.12.45.45,0,0,1,.34.12.44.44,0,0,1,.13.32.42.42,0,0,1-.13.32.45.45,0,0,1-.34.12.48.48,0,0,1-.35-.12A.45.45,0,0,1,110.86,118.47Zm.88,4.66h-.83v-3.7h.83Z" style="fill:#fff"/><path d="M114.27,123.2a1.73,1.73,0,0,1-1.28-.5,1.78,1.78,0,0,1-.49-1.32v-.1a2.25,2.25,0,0,1,.21-1,1.73,1.73,0,0,1,.6-.68,1.64,1.64,0,0,1,.87-.25,1.44,1.44,0,0,1,1.16.49,2,2,0,0,1,.41,1.36v.34h-2.41a1.13,1.13,0,0,0,.3.72.93.93,0,0,0,.68.27,1.15,1.15,0,0,0,.93-.46l.45.42a1.52,1.52,0,0,1-.6.52A1.84,1.84,0,0,1,114.27,123.2Zm-.1-3.17a.69.69,0,0,0-.55.24,1.25,1.25,0,0,0-.27.67h1.58v-.06a1,1,0,0,0-.22-.64A.7.7,0,0,0,114.17,120Z" style="fill:#fff"/><path d="M117.17,119.43l0,.43a1.36,1.36,0,0,1,1.08-.5c.77,0,1.16.45,1.18,1.33v2.44h-.83v-2.39a.75.75,0,0,0-.16-.53.63.63,0,0,0-.49-.16.79.79,0,0,0-.75.45v2.63h-.83v-3.7Z" style="fill:#fff"/><path d="M121.81,122.54a.77.77,0,0,0,.52-.18.63.63,0,0,0,.22-.45h.78a1.18,1.18,0,0,1-.22.64,1.4,1.4,0,0,1-.54.48,1.72,1.72,0,0,1-.75.17,1.61,1.61,0,0,1-1.23-.5,2,2,0,0,1-.45-1.39v-.09a2,2,0,0,1,.45-1.35,1.56,1.56,0,0,1,1.23-.51,1.48,1.48,0,0,1,1.07.39,1.36,1.36,0,0,1,.44,1h-.78a.73.73,0,0,0-.22-.52.7.7,0,0,0-.52-.21.74.74,0,0,0-.62.29,1.46,1.46,0,0,0-.22.89v.13a1.49,1.49,0,0,0,.22.9A.71.71,0,0,0,121.81,122.54Z" style="fill:#fff"/><path d="M125.59,123.2a1.71,1.71,0,0,1-1.28-.5,1.79,1.79,0,0,1-.5-1.32v-.1a2.25,2.25,0,0,1,.22-1,1.62,1.62,0,0,1,1.46-.93,1.48,1.48,0,0,1,1.17.49,2,2,0,0,1,.41,1.36v.34h-2.42a1.14,1.14,0,0,0,.31.72.9.9,0,0,0,.67.27,1.15,1.15,0,0,0,.93-.46l.45.42a1.49,1.49,0,0,1-.59.52A1.9,1.9,0,0,1,125.59,123.2Zm-.1-3.17a.68.68,0,0,0-.55.24,1.18,1.18,0,0,0-.27.67h1.58v-.06a1.06,1.06,0,0,0-.22-.64A.7.7,0,0,0,125.49,120Z" style="fill:#fff"/><path d="M142.66,114.1h-2v1.53H143v.69h-3.25v-5H143v.7h-2.37v1.38h2Z" style="fill:#fff"/><path d="M144.4,112.62l0,.43a1.33,1.33,0,0,1,1.08-.5c.77,0,1.16.45,1.17,1.33v2.44h-.83v-2.4a.79.79,0,0,0-.15-.52.66.66,0,0,0-.5-.17.82.82,0,0,0-.75.46v2.63h-.83v-3.7Z" style="fill:#fff"/><path d="M147.37,114.44a2.15,2.15,0,0,1,.41-1.37,1.31,1.31,0,0,1,1.07-.52,1.22,1.22,0,0,1,1,.45l0-.38h.74v3.59a1.51,1.51,0,0,1-.45,1.15,1.72,1.72,0,0,1-1.22.42,2.05,2.05,0,0,1-.8-.17,1.52,1.52,0,0,1-.59-.44l.4-.5a1.18,1.18,0,0,0,.94.45.9.9,0,0,0,.65-.22.86.86,0,0,0,.24-.66V116a1.21,1.21,0,0,1-1,.4,1.3,1.3,0,0,1-1.07-.52A2.25,2.25,0,0,1,147.37,114.44Zm.83.08a1.47,1.47,0,0,0,.23.87.71.71,0,0,0,.63.32.79.79,0,0,0,.74-.43v-1.63a.78.78,0,0,0-.74-.42.72.72,0,0,0-.63.33A1.68,1.68,0,0,0,148.2,114.52Z" style="fill:#fff"/><path d="M151.49,111.66a.45.45,0,0,1,.12-.32.48.48,0,0,1,.35-.12.5.5,0,0,1,.35.12.49.49,0,0,1,0,.64.5.5,0,0,1-.35.12.48.48,0,0,1-.35-.12A.45.45,0,0,1,151.49,111.66Zm.88,4.66h-.83v-3.7h.83Z" style="fill:#fff"/><path d="M154,112.62l0,.43a1.33,1.33,0,0,1,1.08-.5c.77,0,1.16.45,1.17,1.33v2.44h-.83v-2.4a.79.79,0,0,0-.15-.52.66.66,0,0,0-.5-.17.82.82,0,0,0-.75.46v2.63h-.83v-3.7Z" style="fill:#fff"/><path d="M158.8,116.39a1.71,1.71,0,0,1-1.28-.5,1.79,1.79,0,0,1-.5-1.32v-.11a2.24,2.24,0,0,1,.22-1,1.62,1.62,0,0,1,1.46-.93,1.45,1.45,0,0,1,1.17.49,2,2,0,0,1,.41,1.36v.33h-2.42a1.14,1.14,0,0,0,.31.73.9.9,0,0,0,.67.27,1.13,1.13,0,0,0,.93-.47l.45.43a1.57,1.57,0,0,1-.59.52A1.9,1.9,0,0,1,158.8,116.39Zm-.1-3.17a.68.68,0,0,0-.55.24,1.18,1.18,0,0,0-.27.67h1.58v-.06a1.06,1.06,0,0,0-.22-.64A.7.7,0,0,0,158.7,113.22Z" style="fill:#fff"/><path d="M162.55,116.39a1.74,1.74,0,0,1-1.28-.5,1.82,1.82,0,0,1-.49-1.32v-.11a2.11,2.11,0,0,1,.22-1,1.62,1.62,0,0,1,1.46-.93,1.41,1.41,0,0,1,1.16.49,2,2,0,0,1,.42,1.36v.33h-2.42a1.14,1.14,0,0,0,.31.73.89.89,0,0,0,.67.27,1.13,1.13,0,0,0,.93-.47l.45.43a1.65,1.65,0,0,1-.59.52A1.92,1.92,0,0,1,162.55,116.39Zm-.1-3.17a.71.71,0,0,0-.55.24,1.25,1.25,0,0,0-.27.67h1.59v-.06a1.06,1.06,0,0,0-.23-.64A.7.7,0,0,0,162.45,113.22Z" style="fill:#fff"/><path d="M166.62,113.38a2,2,0,0,0-.34,0,.77.77,0,0,0-.77.44v2.53h-.83v-3.7h.79l0,.42a.93.93,0,0,1,.84-.49.84.84,0,0,1,.29,0Z" style="fill:#fff"/><path d="M167.14,111.66a.45.45,0,0,1,.12-.32.5.5,0,0,1,.35-.12.48.48,0,0,1,.35.12.49.49,0,0,1,0,.64.48.48,0,0,1-.35.12.5.5,0,0,1-.35-.12A.45.45,0,0,1,167.14,111.66Zm.88,4.66h-.83v-3.7H168Z" style="fill:#fff"/><path d="M169.7,112.62l0,.43a1.36,1.36,0,0,1,1.08-.5c.77,0,1.16.45,1.18,1.33v2.44h-.83v-2.4a.79.79,0,0,0-.16-.52.64.64,0,0,0-.5-.17.8.8,0,0,0-.74.46v2.63h-.83v-3.7Z" style="fill:#fff"/><path d="M172.68,114.44a2.15,2.15,0,0,1,.4-1.37,1.32,1.32,0,0,1,1.08-.52,1.2,1.2,0,0,1,1,.45l0-.38h.75v3.59a1.48,1.48,0,0,1-.46,1.15,1.72,1.72,0,0,1-1.22.42,2,2,0,0,1-.79-.17,1.45,1.45,0,0,1-.59-.44l.39-.5a1.2,1.2,0,0,0,.94.45.92.92,0,0,0,.66-.22.86.86,0,0,0,.24-.66V116a1.22,1.22,0,0,1-1,.4,1.28,1.28,0,0,1-1.06-.52A2.19,2.19,0,0,1,172.68,114.44Zm.82.08a1.47,1.47,0,0,0,.23.87.71.71,0,0,0,.63.32.8.8,0,0,0,.75-.43v-1.63a.8.8,0,0,0-.74-.42.74.74,0,0,0-.64.33A1.68,1.68,0,0,0,173.5,114.52Z" style="fill:#fff"/><path d="M148.54,122.24a.6.6,0,0,0-.23-.5,2.75,2.75,0,0,0-.84-.36,4.16,4.16,0,0,1-.95-.4,1.28,1.28,0,0,1-.68-1.12,1.2,1.2,0,0,1,.49-1,2,2,0,0,1,1.27-.39,2.12,2.12,0,0,1,.93.19,1.56,1.56,0,0,1,.64.55,1.4,1.4,0,0,1,.23.78h-.86a.76.76,0,0,0-.25-.61,1,1,0,0,0-.7-.22,1,1,0,0,0-.65.18.6.6,0,0,0-.24.51.55.55,0,0,0,.25.45,2.85,2.85,0,0,0,.84.36,3.76,3.76,0,0,1,.93.39,1.49,1.49,0,0,1,.52.51,1.3,1.3,0,0,1,.16.67,1.21,1.21,0,0,1-.47,1,2.11,2.11,0,0,1-1.3.36,2.31,2.31,0,0,1-1-.2,1.64,1.64,0,0,1-.71-.55,1.42,1.42,0,0,1-.25-.82h.87a.81.81,0,0,0,.28.66,1.25,1.25,0,0,0,.8.23,1.08,1.08,0,0,0,.68-.18A.61.61,0,0,0,148.54,122.24Z" style="fill:#fff"/><path d="M151.6,122.93a.77.77,0,0,0,.52-.18.6.6,0,0,0,.21-.45h.79a1.21,1.21,0,0,1-.22.65,1.38,1.38,0,0,1-.54.47,1.62,1.62,0,0,1-.75.17,1.55,1.55,0,0,1-1.23-.5,2,2,0,0,1-.46-1.39v-.08a1.89,1.89,0,0,1,.46-1.35,1.56,1.56,0,0,1,1.23-.51,1.54,1.54,0,0,1,1.07.38,1.41,1.41,0,0,1,.44,1h-.79a.74.74,0,0,0-.21-.52.7.7,0,0,0-.52-.21.71.71,0,0,0-.62.3,1.43,1.43,0,0,0-.22.88v.14a1.52,1.52,0,0,0,.21.89A.74.74,0,0,0,151.6,122.93Z" style="fill:#fff"/><path d="M153.75,118.87a.44.44,0,0,1,.12-.32.42.42,0,0,1,.34-.13.45.45,0,0,1,.35.13.41.41,0,0,1,.13.32.4.4,0,0,1-.13.31.48.48,0,0,1-.35.12.45.45,0,0,1-.34-.12A.43.43,0,0,1,153.75,118.87Zm.88,4.66h-.83v-3.7h.83Z" style="fill:#fff"/><path d="M157.16,123.59a1.72,1.72,0,0,1-1.28-.49,1.82,1.82,0,0,1-.49-1.33v-.1a2.25,2.25,0,0,1,.21-1,1.73,1.73,0,0,1,.6-.68,1.62,1.62,0,0,1,.86-.24,1.45,1.45,0,0,1,1.17.48,2,2,0,0,1,.41,1.36v.34h-2.41a1.06,1.06,0,0,0,.3.72.93.93,0,0,0,.68.27,1.12,1.12,0,0,0,.93-.46l.45.43a1.49,1.49,0,0,1-.6.51A1.84,1.84,0,0,1,157.16,123.59Zm-.1-3.17a.69.69,0,0,0-.55.24,1.28,1.28,0,0,0-.27.67h1.58v-.06a1,1,0,0,0-.22-.63A.71.71,0,0,0,157.06,120.42Z" style="fill:#fff"/><path d="M160.06,119.83l0,.42a1.35,1.35,0,0,1,1.08-.49c.77,0,1.16.44,1.18,1.32v2.45h-.83v-2.4a.75.75,0,0,0-.16-.52.6.6,0,0,0-.49-.17.79.79,0,0,0-.75.45v2.64h-.83v-3.7Z" style="fill:#fff"/><path d="M164.7,122.93a.77.77,0,0,0,.52-.18.65.65,0,0,0,.22-.45h.78a1.21,1.21,0,0,1-.22.65,1.38,1.38,0,0,1-.54.47,1.59,1.59,0,0,1-.75.17,1.55,1.55,0,0,1-1.23-.5,2,2,0,0,1-.45-1.39v-.08a1.93,1.93,0,0,1,.45-1.35,1.56,1.56,0,0,1,1.23-.51,1.52,1.52,0,0,1,1.07.38,1.37,1.37,0,0,1,.44,1h-.78a.75.75,0,0,0-.22-.52.7.7,0,0,0-.52-.21.72.72,0,0,0-.62.3,1.43,1.43,0,0,0-.22.88v.14a1.52,1.52,0,0,0,.21.89A.74.74,0,0,0,164.7,122.93Z" style="fill:#fff"/><path d="M168.48,123.59a1.74,1.74,0,0,1-1.29-.49,1.86,1.86,0,0,1-.49-1.33v-.1a2.12,2.12,0,0,1,.22-1,1.59,1.59,0,0,1,.6-.68,1.57,1.57,0,0,1,.86-.24,1.47,1.47,0,0,1,1.17.48,2.06,2.06,0,0,1,.41,1.36v.34h-2.42a1.11,1.11,0,0,0,.31.72.9.9,0,0,0,.67.27,1.12,1.12,0,0,0,.93-.46l.45.43a1.53,1.53,0,0,1-.59.51A1.9,1.9,0,0,1,168.48,123.59Zm-.1-3.17a.71.71,0,0,0-.56.24,1.2,1.2,0,0,0-.26.67h1.58v-.06a1,1,0,0,0-.22-.63A.71.71,0,0,0,168.38,120.42Z" style="fill:#fff"/><path d="M225,79.22A2.2,2.2,0,0,1,223.18,78a1.88,1.88,0,0,1,.34-2.56l7.16-4a1.21,1.21,0,0,1,.6-.15A2.15,2.15,0,0,1,233,72.51a1.88,1.88,0,0,1-.34,2.57l-7.15,4A1.15,1.15,0,0,1,225,79.22Zm6.33-7.56a.89.89,0,0,0-.43.11l-7.15,4c-.57.32-.66,1.25-.2,2.08a1.84,1.84,0,0,0,1.45,1,.87.87,0,0,0,.42-.1l7.15-4c.57-.32.66-1.25.2-2.07A1.82,1.82,0,0,0,231.28,71.66Z" style="fill:#fff"/><path d="M229.13,74.14a.39.39,0,0,1-.47.26.37.37,0,1,1,.47-.26Z" style="fill:#fff"/><path d="M229.4,75.7a.4.4,0,1,1-.29-.45A.37.37,0,0,1,229.4,75.7Z" style="fill:#fff"/><path d="M232.23,73.59a.39.39,0,0,1-.48.26.37.37,0,1,1,.18-.72A.4.4,0,0,1,232.23,73.59Z" style="fill:#fff"/><path d="M231.45,75a.4.4,0,0,1-.48.26.38.38,0,0,1-.29-.46.37.37,0,0,1,.47-.26A.38.38,0,0,1,231.45,75Z" style="fill:#fff"/><rect x="227.65" y="74.81" width="0.46" height="0.46" style="fill:#fff"/><rect x="230.25" y="72.81" width="0.46" height="0.46" style="fill:#fff"/><path d="M224.92,77.55l-.35-.07a3.4,3.4,0,0,1,1.72-2.35l.18.32a3,3,0,0,0-.7.52A3,3,0,0,0,224.92,77.55Z" style="fill:#36a9e1"/><path d="M217.81,81.71h0a.19.19,0,0,1-.14-.22c.45-2,2.62-3.22,4.36-4.2l.82-.47a.18.18,0,0,1,.25.07.19.19,0,0,1-.06.25l-.83.47c-1.68.94-3.77,2.11-4.19,4A.18.18,0,0,1,217.81,81.71Z" style="fill:#fff"/><path d="M217.63,83.89h0a.19.19,0,0,1-.15-.21c.48-2.52,2.8-4.05,4.66-5.29l.88-.59a.18.18,0,0,1,.25,0,.19.19,0,0,1,0,.26l-.89.6c-1.8,1.19-4.05,2.68-4.5,5A.17.17,0,0,1,217.63,83.89Z" style="fill:#fff"/><path d="M218.9,83.53h0a.19.19,0,0,1-.14-.22c.45-2,2.62-3.22,4.36-4.2l.82-.47a.18.18,0,0,1,.25.07.18.18,0,0,1-.06.24l-.83.48c-1.68.94-3.77,2.11-4.18,4A.19.19,0,0,1,218.9,83.53Z" style="fill:#fff"/><path d="M220.49,67c-.28-.64-.63-1.26-1-1.88a.1.1,0,0,0-.06-.1,1.09,1.09,0,0,0-.08-.15,7.83,7.83,0,0,1-.88-1.73V63a.12.12,0,0,0,0-.09,1.93,1.93,0,0,1,0-.24c0-.21-.3-.06-.32.08a5.15,5.15,0,0,1-2.2,3A13.08,13.08,0,0,0,213.54,68c-1.42,1.93-1.91,4.53-.45,6.57a3.69,3.69,0,0,0,2.49,1.64.1.1,0,0,0,0,.12,34.45,34.45,0,0,0,0,3.52c0,.25.41.09.41-.1,0-1.12,0-2.25,0-3.37a2.35,2.35,0,0,0,.65,0,3.28,3.28,0,0,0,1-.4,11,11,0,0,0,1.72-1.15,5.28,5.28,0,0,0,2-3.34A9,9,0,0,0,220.49,67Zm-2-3,.18.31c.17.27.33.55.48.83a6.49,6.49,0,0,1-.87,1.25C218.38,65.62,218.46,64.83,218.49,64Zm-.3,2.94a7.64,7.64,0,0,0,1.15-1.45l.39.75a11.65,11.65,0,0,1,1.3,3.8l-.07.06a5.56,5.56,0,0,1-2,1.64,5.75,5.75,0,0,1-2.3.8c.13-.44.28-.87.42-1.31A25.88,25.88,0,0,0,218.19,67Zm-1.76-1.25a7,7,0,0,0,1.67-1.91,26.47,26.47,0,0,1-.26,3.08.13.13,0,0,0,0,.14c0,.1,0,.21,0,.31a20.93,20.93,0,0,1-.58,2.49,6,6,0,0,1-1.38-3.47.08.08,0,0,0-.06-.08Zm-1,.83a5.89,5.89,0,0,0,1.64,3.75q-.2.64-.42,1.29a22.77,22.77,0,0,0-.72,2.57,4.79,4.79,0,0,1-1.73-2,10.16,10.16,0,0,1-1-2.78.1.1,0,0,0-.1-.09q.1-.24.24-.48A7.82,7.82,0,0,1,215.41,66.54Zm.3,8.88c0,.17,0,.34-.05.52a4,4,0,0,1-2.8-2.47,4.78,4.78,0,0,1,0-3.66,10.83,10.83,0,0,0,.93,2.59,4.61,4.61,0,0,0,2,2.18h0Q215.76,75,215.71,75.42Zm3.93-1.09A8.71,8.71,0,0,1,218,75.56a3.82,3.82,0,0,1-1.13.55,2,2,0,0,1-.8,0s0-.09,0-.11l.06-.59a13.78,13.78,0,0,1,.49-2.48,6.53,6.53,0,0,0,2.59-.91,6.73,6.73,0,0,0,1.89-1.51v0A4.7,4.7,0,0,1,219.64,74.33Z" style="fill:#fff"/><circle cx="221.23" cy="74.02" r="14.2" style="fill:none;stroke:#fff;stroke-miterlimit:10"/><g style="clip-path:url(#clip-path)"><rect x="20.69" y="104.09" width="6.69" height="0.75" style="fill:#c8cbcf"/><rect x="18.63" y="94.99" width="10.43" height="0.75" style="fill:#c8cbcf"/><rect x="19.04" y="106.7" width="9.06" height="0.75" style="fill:#c8cbcf"/><rect x="20.32" y="109.3" width="7.46" height="0.75" style="fill:#c8cbcf"/><rect x="19.4" y="97.42" width="8.7" height="0.75" style="fill:#c8cbcf"/><rect x="19.73" y="92.56" width="8.05" height="0.75" style="fill:#c8cbcf"/><path d="M28.23,88s-9.6,3.58-9.6,7.9c0,5.08,9.58,5.46,9.59,11.2,0,4.42-9,9.31-9,9.31" style="fill:none;stroke:#fff;stroke-miterlimit:10"/><path d="M19.46,88s9.6,3.58,9.6,7.9c0,5.08-9.58,5.46-9.59,11.2,0,4.42,9,9.31,9,9.31" style="fill:none;stroke:#fff;stroke-miterlimit:10"/></g><circle cx="23.84" cy="102.24" r="14.2" style="fill:none;stroke:#fff;stroke-miterlimit:10"/><circle cx="239.42" cy="100.73" r="14.2" transform="translate(86.38 310.6) rotate(-76.72)" style="fill:none;stroke:#fff;stroke-miterlimit:10"/><circle cx="236.28" cy="98.33" r="0.68" style="fill:#fff"/><circle cx="236.28" cy="98.33" r="2.1" style="fill:#fff"/><path d="M238.83,100.63a3.4,3.4,0,0,1-4.35.43l3.92,6.79h-2.73a.73.73,0,0,0-.62.82v2.57h11.67v-2.81a.85.85,0,0,0-.82-.67c-.71-.05-2.39,0-2.39,0h-.43Z" style="fill:#fff"/><path d="M239.53,98.48h5.71v.64l1.48,1.75,2.63-1.62a.78.78,0,0,1,1,.21c.22.67-.19.84-.19.84l-3.24,2a.89.89,0,0,1-.76,0l-1.53-1.85H243c-.25-.07-.41-.61-.41-.61h-3.28A4.7,4.7,0,0,0,239.53,98.48Z" style="fill:#fff"/><path d="M239.55,98.48h5.7l0-.63,1.48-1.76,2.63,1.63a.78.78,0,0,0,1-.21c.22-.67-.19-.84-.19-.84l-3.24-2a.85.85,0,0,0-.76,0l-1.53,1.85H243c-.25.06-.41.61-.41.61h-3.29A4.48,4.48,0,0,1,239.55,98.48Z" style="fill:#fff"/><path d="M232.48,105.56l.28-1h.31l-.46,1.33h-.26l-.46-1.33h.3Z" style="fill:#fff"/><path d="M233.84,105.3h-.65v-.24h.65Z" style="fill:#fff"/><path d="M235.25,105.53l.21-.92h.29l-.36,1.33h-.25l-.28-.91-.28.91h-.25l-.36-1.33h.29l.22.91.27-.91H235Z" style="fill:#fff"/><path d="M242.27,91.91h.26a.5.5,0,0,0,.31-.1.38.38,0,0,0,.12-.3.41.41,0,0,0-.1-.28.37.37,0,0,0-.29-.1.41.41,0,0,0-.29.1.35.35,0,0,0-.11.26h-.42a.65.65,0,0,1,.1-.36.71.71,0,0,1,.29-.25,1,1,0,0,1,.42-.09.85.85,0,0,1,.6.19.67.67,0,0,1,.22.53.51.51,0,0,1-.11.33.63.63,0,0,1-.28.23.59.59,0,0,1,.32.23.62.62,0,0,1,.11.37.66.66,0,0,1-.24.54,1,1,0,0,1-1.22,0,.63.63,0,0,1-.24-.52h.43a.37.37,0,0,0,.11.27.49.49,0,0,0,.62,0,.37.37,0,0,0,.11-.3.46.46,0,0,0-.11-.32.53.53,0,0,0-.36-.1h-.25Z" style="fill:#fff"/><path d="M244.68,92.47h-.92v-.35h.92Z" style="fill:#fff"/><path d="M245.72,92.11l.36-.63h.47l-.58.94.6,1h-.47l-.38-.65-.38.65h-.47l.6-1-.58-.94h.47Z" style="fill:#fff"/><path d="M231,94.52h-1.07v1.12h-.46V93h1.68v.37h-1.22v.79H231Z" style="fill:#fff"/><path d="M231.49,94.57a3,3,0,0,1,.11-.8,2.46,2.46,0,0,1,.33-.67,1.36,1.36,0,0,1,.46-.42l.09.26a1.42,1.42,0,0,0-.42.59,2.83,2.83,0,0,0-.17.91v.16a3,3,0,0,0,.15,1,1.47,1.47,0,0,0,.44.66l-.09.24a1.36,1.36,0,0,1-.46-.42,1.91,1.91,0,0,1-.33-.67A3,3,0,0,1,231.49,94.57Z" style="fill:#39a8e0"/><path d="M233.48,94.32l.38-.64h.49l-.6,1,.62,1h-.49l-.39-.67-.39.67h-.49l.62-1-.6-1h.49Z" style="fill:#39a8e0"/><path d="M235.5,94.6a2.81,2.81,0,0,1-.11.77,2.47,2.47,0,0,1-.34.69,1.39,1.39,0,0,1-.47.42l-.09-.24a1.39,1.39,0,0,0,.44-.65,2.93,2.93,0,0,0,.15-1v0a2.9,2.9,0,0,0-.13-.91,1.76,1.76,0,0,0-.4-.67l-.06,0,.09-.25a1.28,1.28,0,0,1,.45.4,2,2,0,0,1,.33.64,2.62,2.62,0,0,1,.14.74Z" style="fill:#39a8e0"/><circle cx="41.18" cy="129.79" r="14.2" style="fill:none;stroke:#fff;stroke-miterlimit:10"/><path d="M39.16,134.6H37.38v-2.24A4,4,0,0,0,35.85,130a7.49,7.49,0,0,1-1.34-2.83c0-1.07.05-3.81,1.39-5.08s1.6-1.53,4.2-2.17c0,0,4.07-.58,6,2.27,0,0,1.13,1.26.88,4.28l1.49,3.32H47.38a.77.77,0,0,0-.43.74v3.52l-2.22.52a.77.77,0,0,0-.48.82l0,2.84H42.6v-5l2.06-.84a1.39,1.39,0,0,0,.44-.88v-.67a1.51,1.51,0,0,0,.49-2.45,1.59,1.59,0,0,0-2.3,0s-1.09,1.73.56,2.42v.61l-2.48,1.07v6.61s.08.44.49.41h3.22a.77.77,0,0,0,.42-.62v-3.19l1.95-.43a1.32,1.32,0,0,0,.68-1V131H49s.72-.37.72-.85v-.59l-1.5-3.28a10.45,10.45,0,0,0-.11-2.86,6.62,6.62,0,0,0-5.53-4.63,8.32,8.32,0,0,0-7.68,2.64,8.16,8.16,0,0,0-1.24,7,11.66,11.66,0,0,0,1.8,2.82s.79.6.71,1.12v2.88a.56.56,0,0,0,.58.53H40a.72.72,0,0,0,.47-.76V129l2.37-1.06a1.06,1.06,0,0,0,.48-.82v-3.53a1.31,1.31,0,0,0,.52-1.92A1.34,1.34,0,1,0,42,123.56v3.31l-2.41,1.18a1.13,1.13,0,0,0-.41.78v1.56l-1.74-1.07v-2.1a1.57,1.57,0,0,0,.78-2.12,1.54,1.54,0,0,0-2.9.93c.31,1.09.91,1.19.91,1.19v2.4s.17.61.59.76l2.4,1.55v2.64Z" style="fill:#fff"/><circle cx="224.42" cy="129.72" r="14.22" transform="translate(69.41 337.48) rotate(-83.3)" style="fill:none;stroke:#fff;stroke-miterlimit:10"/><path d="M222.32,134.17l-4.95.57.15.36,7.47,3.28.47-.1S224,134.45,222.32,134.17Z" style="fill:#c1c1c1"/><polygon points="230.55 124.44 228.2 128.73 228.6 129.6 231.57 133.47 231.73 133.32 230.89 124.47 230.55 124.44" style="fill:#c1c1c1"/><polygon points="220.86 125.36 228.39 128.61 228.6 129.6 221.96 134.22 220.33 130.03 220.86 125.36" style="fill:#c1c1c1"/><polygon points="223.41 121.06 216.6 126.16 221.02 125.51 223.41 121.06" style="fill:#c1c1c1"/><polygon points="223.35 121.18 230.89 124.47 228.84 129.37 221.02 125.51 223.35 121.18" style="fill:#fff"/><polygon points="221.02 125.51 216.7 126.09 216.43 126.68 217.37 134.74 221.96 134.22 221.02 125.51" style="fill:#fff"/><path d="M228.84,129.36,222,134.21l3.41,4.12,6-4.34s.43-.54.18-.89Z" style="fill:#fff"/><line x1="220.33" y1="124.44" x2="218.42" y2="122.53" style="fill:#39a8e0;stroke:#39a8e0;stroke-miterlimit:10;stroke-width:0.5px"/><path d="M218.07,122.09h-.22V121l-.32.12v-.19l.52-.19h0Z" style="fill:#39a8e0"/><path d="M219.44,122.09h-.9v-.16l.44-.48a.89.89,0,0,0,.14-.18.28.28,0,0,0,0-.15.25.25,0,0,0,0-.15.2.2,0,0,0-.15-.06.21.21,0,0,0-.17.07.24.24,0,0,0-.06.18h-.22a.4.4,0,0,1,.06-.22.33.33,0,0,1,.16-.15.41.41,0,0,1,.23-.06.48.48,0,0,1,.31.1.33.33,0,0,1,.11.27.54.54,0,0,1,0,.21,1.18,1.18,0,0,1-.19.25l-.33.35h.63Z" style="fill:#39a8e0"/><path d="M220.47,121.52a.75.75,0,0,1-.1.44.46.46,0,0,1-.66,0,.68.68,0,0,1-.11-.42v-.23a.71.71,0,0,1,.11-.43.37.37,0,0,1,.33-.15.39.39,0,0,1,.32.14.66.66,0,0,1,.11.42Zm-.22-.24a.63.63,0,0,0-.05-.28.19.19,0,0,0-.32,0,.48.48,0,0,0-.06.26v.31a.62.62,0,0,0,.05.27.18.18,0,0,0,.17.1.18.18,0,0,0,.16-.09.57.57,0,0,0,.05-.26Z" style="fill:#39a8e0"/><line x1="230.46" y1="129.18" x2="232.37" y2="127.27" style="fill:#39a8e0;stroke:#39a8e0;stroke-miterlimit:10;stroke-width:0.5px"/><path d="M233.21,127.27H233V126.2l-.33.11v-.18l.52-.19h0Z" style="fill:#39a8e0"/><path d="M234.28,127.27h-.23V126.2l-.32.11v-.18l.52-.19h0Z" style="fill:#39a8e0"/><path d="M235.34,127.27h-.22V126.2l-.33.11v-.18l.52-.19h0Z" style="fill:#39a8e0"/><g style="clip-path:url(#clip-path-2)"><path d="M135.63,38.31c1.13,0,2.26,0,3.38.09l-.9,17c-.82,0-1.65-.07-2.48-.07Z" style="fill:#a14647;stroke:#e7e6e6"/><path d="M139.08,38.4c1.12.06,2.25.15,3.37.27l-1.81,16.95c-.83-.09-1.65-.15-2.48-.2Z" style="fill:#b25757;stroke:#e7e6e6"/><path d="M139.69,27.05l.33,0-.66,11.35-.28,0Z" style="fill:#b25757;stroke:#e7e6e6"/><path d="M140.09,27.08l.33,0-.72,11.34-.28,0Z" style="fill:#bd6262;stroke:#e7e6e6"/><path d="M140.5,27.1l.33,0L140,38.46l-.28,0Z" style="fill:#cb6f6f;stroke:#e7e6e6"/><path d="M140.9,27.13l.33,0-.84,11.33-.28,0Z" style="fill:#d87d7d;stroke:#e7e6e6"/><path d="M141.31,27.16l.33,0-.91,11.33-.28,0Z" style="fill:#e48989;stroke:#e7e6e6"/><path d="M141.71,27.19l.33,0-1,11.32-.28,0Z" style="fill:#f19696;stroke:#e7e6e6"/><path d="M142.12,27.22l.32,0-1,11.32-.28,0Z" style="fill:#f4a1a3;stroke:#e7e6e6"/><path d="M142.6,21.56h0l-.49,5.66h0Z" style="fill:#f4a1a3;stroke:#e7e6e6"/><path d="M143.09,15.9H143l-.48,5.67h0Z" style="fill:#f4a1a3;stroke:#e7e6e6"/><path d="M143.12,15.9h-.06l-.48,5.66h0Z" style="fill:#fce1e1;stroke:#e7e6e6"/><path d="M142.66,21.57h0l-.49,5.66h0Z" style="fill:#f4a6a9;stroke:#e7e6e6"/><path d="M142.71,21.57h0l-.5,5.66h0Z" style="fill:#f5acb0;stroke:#e7e6e6"/><path d="M142.77,21.58h0l-.5,5.66h0Z" style="fill:#f6b3b6;stroke:#e7e6e6"/><path d="M142.82,21.58h0l-.5,5.66h0Z" style="fill:#f7babc;stroke:#e7e6e6"/><path d="M142.87,21.58h0l-.51,5.66h0Z" style="fill:#f7bfc1;stroke:#e7e6e6"/><path d="M142.93,21.59h0l-.51,5.66h0Z" style="fill:#f8c7c8;stroke:#e7e6e6"/><path d="M143,21.59h0l-.52,5.66h0Z" style="fill:#f9cdcf;stroke:#e7e6e6"/><path d="M142.52,27.26l.33,0L141.76,38.6l-.28,0Z" style="fill:#f5adb0;stroke:#e7e6e6"/><path d="M142.92,27.3l.33,0-1.14,11.31-.28,0Z" style="fill:#f7bbbd;stroke:#e7e6e6"/><path d="M143.33,27.34l.33,0-1.21,11.3-.28,0Z" style="fill:#f8c7c8;stroke:#e7e6e6"/><path d="M142.51,38.68q1.68.18,3.36.45L143.15,56c-.82-.13-1.64-.25-2.46-.33Z" style="fill:#c26767;stroke:#e7e6e6"/><path d="M143.73,27.38c.42,0,.85.09,1.27.15L143.59,38.8l-1.08-.12Z" style="fill:#c26767;stroke:#e7e6e6"/><path d="M145.07,27.54l1.27.17L144.73,39c-.36-.06-.72-.1-1.08-.15Z" style="fill:#ec9191;stroke:#e7e6e6"/><path d="M146.42,27.72l1.26.19-1.81,11.22L144.79,39Z" style="fill:#f7bbbd;stroke:#e7e6e6"/><path d="M145.93,39.14c.83.13,1.66.29,2.48.45L145,56.3c-.61-.13-1.22-.24-1.82-.34Z" style="fill:#983d3d;stroke:#e7e6e6"/><path d="M148.47,39.61c.83.16,1.65.35,2.46.55l-4.06,16.55c-.6-.14-1.2-.28-1.81-.4Z" style="fill:#a44949;stroke:#e7e6e6"/><path d="M151,40.17c.81.2,1.62.42,2.43.65L148.71,57.2c-.6-.17-1.19-.33-1.79-.48Z" style="fill:#b25656;stroke:#e7e6e6"/><path d="M153.49,40.84c.81.24,1.61.49,2.41.75l-5.38,16.18c-.59-.2-1.18-.38-1.77-.55Z" style="fill:#bd6262;stroke:#e7e6e6"/><path d="M156,41.61a64.93,64.93,0,0,1,9.45,4l-7.9,15.1a48.8,48.8,0,0,0-6.95-2.95Z" style="fill:#8e3233;stroke:#e7e6e6"/><path d="M159.56,30.83a75.62,75.62,0,0,1,11.12,4.73l-5.27,10.07a64.93,64.93,0,0,0-9.45-4Z" style="fill:#8e3233;stroke:#e7e6e6"/><path d="M165.47,45.66c1,.53,2,1.08,2.95,1.65L159.72,62c-.72-.42-1.44-.83-2.17-1.21Z" style="fill:#842829;stroke:#e7e6e6"/><path d="M168.48,47.35c1,.57,1.92,1.18,2.86,1.8l-9.48,14.17c-.69-.46-1.39-.9-2.1-1.33Z" style="fill:#953a3a;stroke:#e7e6e6"/><path d="M171.39,49.19c.94.63,1.86,1.28,2.76,2L163.92,64.78c-.66-.49-1.33-1-2-1.43Z" style="fill:#a64b4b;stroke:#e7e6e6"/><path d="M177.72,39.75c.54.36,1.08.73,1.61,1.11l-6.57,9.27c-.45-.32-.91-.63-1.37-.94Z" style="fill:#a64b4b;stroke:#e7e6e6"/><path d="M179.39,40.9c.53.38,1.06.76,1.58,1.15l-6.82,9.1c-.44-.34-.89-.66-1.34-1Z" style="fill:#e48989;stroke:#e7e6e6"/><path d="M174.2,51.19c.2.14.39.29.58.44L164.39,65.14l-.43-.33Z" style="fill:#7a1e1f;stroke:#e7e6e6"/><path d="M181,42.1l.13.1-6.85,9.07-.11-.08Z" style="fill:#7a1e1f;stroke:#e7e6e6"/><path d="M184.44,37.56l0,0-3.42,4.54,0,0Z" style="fill:#7a1e1f;stroke:#e7e6e6"/><path d="M184.54,37.63l0,0-3.42,4.54,0,0Z" style="fill:#933838;stroke:#e7e6e6"/><path d="M181.22,42.24l.12.1-6.87,9-.11-.09Z" style="fill:#993e3e;stroke:#e7e6e6"/><path d="M181.4,42.38l.13.1-6.9,9-.11-.08Z" style="fill:#b85d5e;stroke:#e7e6e6"/><path d="M181.59,42.52l.13.1-6.94,9-.1-.08Z" style="fill:#d87d7e;stroke:#e7e6e6"/><path d="M185,38l.14.11-3.46,4.5-.13-.1Z" style="fill:#d87d7e;stroke:#e7e6e6"/><path d="M174.84,51.67l.57.45L164.85,65.5l-.42-.33Z" style="fill:#7d2121;stroke:#e7e6e6"/><path d="M175.46,52.16l.57.45L165.31,65.86l-.42-.33Z" style="fill:#812526;stroke:#e7e6e6"/><path d="M176.08,52.65l.57.47L165.76,66.23l-.42-.34Z" style="fill:#85292a;stroke:#e7e6e6"/><path d="M176.7,53.16l.56.47-11,13-.41-.35Z" style="fill:#892d2e;stroke:#e7e6e6"/><path d="M177.31,53.67l.55.48L166.65,67l-.41-.35Z" style="fill:#8d3132;stroke:#e7e6e6"/><path d="M177.91,54.19l.55.49-11.37,12.7-.41-.36Z" style="fill:#913536;stroke:#e7e6e6"/><path d="M178.5,54.72l.55.49L167.52,67.77l-.4-.36Z" style="fill:#953a3a;stroke:#e7e6e6"/><path d="M179.09,55.26l.54.49L168,68.17l-.4-.37Z" style="fill:#993e3e;stroke:#e7e6e6"/><path d="M186.79,46.89l0,0-7.7,8.36,0,0Z" style="fill:#993e3e;stroke:#e7e6e6"/><path d="M186.89,47l0,0-7.72,8.35,0,0Z" style="fill:#ac5050;stroke:#e7e6e6"/><path d="M190.74,42.81l0,0-3.85,4.17,0,0Z" style="fill:#ac5050;stroke:#e7e6e6"/><path d="M190.76,42.82l0,0L186.86,47l0,0Z" style="fill:#b35858;stroke:#e7e6e6"/><path d="M190.77,42.84l0,0L186.88,47l0,0Z" style="fill:#bb6060;stroke:#e7e6e6"/><path d="M190.79,42.85l0,0L186.9,47l0,0Z" style="fill:#c46868;stroke:#e7e6e6"/><path d="M190.81,42.87l0,0L186.91,47l0,0Z" style="fill:#cd7172;stroke:#e7e6e6"/><path d="M190.83,42.89l-.05,0L186.93,47l0,0Z" style="fill:#d47979;stroke:#e7e6e6"/><path d="M187,47.07l.05,0-7.73,8.33,0,0Z" style="fill:#bd6161;stroke:#e7e6e6"/><path d="M190.84,42.9l0,.05L187,47.11l-.05,0Z" style="fill:#bd6161;stroke:#e7e6e6"/><path d="M187.08,47.16l0,0-7.74,8.32,0,0Z" style="fill:#ce7373;stroke:#e7e6e6"/><path d="M187.18,47.25l0,0-7.76,8.31,0,0Z" style="fill:#e18586;stroke:#e7e6e6"/><path d="M191.06,43.1l0,0-3.88,4.15,0,0Z" style="fill:#e18586;stroke:#e7e6e6"/><path d="M187.28,47.35l0,0-7.77,8.29,0,0Z" style="fill:#f39999;stroke:#e7e6e6"/><path d="M187.37,47.44l0,0-7.79,8.27,0,0Z" style="fill:#f4a8ab;stroke:#e7e6e6"/><path d="M179.68,55.8l.53.5L168.37,68.57,168,68.2Z" style="fill:#9d4142;stroke:#e7e6e6"/><path d="M180.25,56.35l.53.51L168.79,69c-.13-.13-.26-.25-.38-.38Z" style="fill:#a14647;stroke:#e7e6e6"/><path d="M180.82,56.9l.52.52-12.14,12-.38-.38Z" style="fill:#a54a4a;stroke:#e7e6e6"/><path d="M181.38,57.47l.51.52L169.61,69.81l-.37-.38Z" style="fill:#a94d4e;stroke:#e7e6e6"/><path d="M181.94,58l.84.89L170.26,70.5c-.2-.22-.41-.44-.62-.65Z" style="fill:#6f1515;stroke:#e7e6e6"/><path d="M190.13,50.17l.48.49-8.27,7.8-.4-.42Z" style="fill:#6f1515;stroke:#e7e6e6"/><path d="M190.66,50.72l.47.5-8.35,7.71-.4-.42Z" style="fill:#af5454;stroke:#e7e6e6"/><path d="M182.82,59c.28.3.56.6.83.91L170.9,71.21c-.2-.23-.4-.45-.61-.67Z" style="fill:#761a1a;stroke:#e7e6e6"/><path d="M183.69,59.94q.41.45.81.93l-13,11.05c-.19-.23-.39-.45-.59-.68Z" style="fill:#7c2020;stroke:#e7e6e6"/><path d="M184.54,60.91l.79,1-13.2,10.79-.58-.69Z" style="fill:#832728;stroke:#e7e6e6"/><path d="M185.37,61.91c.26.32.51.63.76,1l-13.4,10.52-.57-.7Z" style="fill:#892d2e;stroke:#e7e6e6"/><path d="M186.17,62.92c.26.32.51.64.75,1L173.3,74.15l-.54-.72Z" style="fill:#8f3334;stroke:#e7e6e6"/><path d="M187,63.94l.73,1-13.82,10-.54-.73Z" style="fill:#963b3b;stroke:#e7e6e6"/><path d="M187.73,65l.71,1-14,9.7L173.9,75Z" style="fill:#9c4041;stroke:#e7e6e6"/><path d="M188.47,66q1.46,2.1,2.73,4.32l-14.75,8.53c-.63-1.08-1.3-2.14-2-3.16Z" style="fill:#661411;stroke:#e7e6e6"/><path d="M197.83,59.59C199,61.24,200,62.93,201,64.66l-9.84,5.7q-1.27-2.22-2.73-4.32Z" style="fill:#661411;stroke:#e7e6e6"/><path d="M202.5,56.36c.61.87,1.19,1.76,1.76,2.66l-4.8,3c-.53-.83-1.07-1.66-1.63-2.47Z" style="fill:#661411;stroke:#e7e6e6"/><path d="M204.31,59.09c.56.9,1.12,1.81,1.65,2.73L201,64.66c-.5-.85-1-1.7-1.54-2.53Z" style="fill:#802425;stroke:#e7e6e6"/><path d="M191.24,70.41c.85,1.48,1.64,3,2.37,4.52l-15.39,7.33c-.54-1.13-1.12-2.24-1.75-3.32Z" style="fill:#802425;stroke:#e7e6e6"/><path d="M201.08,64.73c.24.42.48.84.71,1.26l-9.95,5.49-.6-1.07Z" style="fill:#802425;stroke:#e7e6e6"/><path d="M201.83,66.06c.23.42.46.84.68,1.27l-10.06,5.29c-.19-.36-.38-.72-.58-1.08Z" style="fill:#9f4344;stroke:#e7e6e6"/><path d="M202.55,67.4l.66,1.28L193,73.77c-.18-.37-.37-.73-.56-1.09Z" style="fill:#bf6363;stroke:#e7e6e6"/><path d="M203.24,68.75c.22.43.43.86.63,1.3l-10.26,4.88c-.17-.37-.35-.74-.54-1.1Z" style="fill:#de8384;stroke:#e7e6e6"/><path d="M193.64,75c.24.5.47,1,.69,1.51l-15.58,6.91c-.17-.38-.34-.74-.51-1.11Z" style="fill:#5a120f;stroke:#e7e6e6"/><path d="M194.36,76.56c.22.5.44,1,.65,1.52l-15.77,6.49c-.15-.38-.31-.75-.47-1.12Z" style="fill:#641310;stroke:#e7e6e6"/><path d="M195,78.14c.21.52.42,1,.61,1.55l-15.93,6.06q-.21-.57-.45-1.14Z" style="fill:#6d1514;stroke:#e7e6e6"/><path d="M195.67,79.75c.19.51.38,1,.56,1.56l-16.09,5.63c-.13-.39-.27-.77-.41-1.15Z" style="fill:#761a1a;stroke:#e7e6e6"/><path d="M196.26,81.37c.18.52.35,1,.52,1.57l-16.23,5.2L180.16,87Z" style="fill:#7f2323;stroke:#e7e6e6"/><path d="M196.8,83c.17.53.33,1.06.49,1.59l-16.37,4.76-.36-1.17Z" style="fill:#872c2c;stroke:#e7e6e6"/><path d="M199.79,105.1q-.06,1.26-.15,2.52l-17-1.36c.05-.61.09-1.23.11-1.84Z" style="fill:#391011;stroke:#e7e6e6"/><path d="M211.14,105.56c0,.48,0,1-.07,1.44l-11.34-.67.06-1.23Z" style="fill:#391011;stroke:#e7e6e6"/><path d="M216.82,105.79c0,.52,0,1-.08,1.55l-5.67-.34c0-.48.05-1,.07-1.44Z" style="fill:#391011;stroke:#e7e6e6"/><path d="M211.06,107.08c0,.48-.06,1-.1,1.44l-11.32-.9c0-.41.06-.82.08-1.23Z" style="fill:#7e4040;stroke:#e7e6e6"/><path d="M199.63,107.68c-.07.84-.15,1.68-.25,2.51l-16.93-2c.08-.61.14-1.22.19-1.84Z" style="fill:#481111;stroke:#e7e6e6"/><path d="M199.37,110.26c-.1.83-.22,1.66-.35,2.49L182.19,110c.1-.6.18-1.22.26-1.83Z" style="fill:#581a1a;stroke:#e7e6e6"/><path d="M199,112.82c-.14.83-.29,1.65-.46,2.48l-16.7-3.4c.12-.6.23-1.21.33-1.82Z" style="fill:#642626;stroke:#e7e6e6"/><path d="M198.54,115.36c-.13.65-.28,1.31-.43,2l-16.59-3.93c.11-.48.22-1,.32-1.44Z" style="fill:#2f0f10;stroke:#e7e6e6"/><path d="M198.09,117.38c-.15.65-.32,1.3-.49,1.94l-16.45-4.46c.13-.47.25-1,.36-1.43Z" style="fill:#3d1112;stroke:#e7e6e6"/><path d="M209.15,120c-.18.77-.38,1.53-.58,2.29l-11-3c.17-.64.34-1.29.49-1.94Z" style="fill:#3d1112;stroke:#e7e6e6"/><path d="M197.58,119.38c-.17.65-.36,1.29-.55,1.93l-16.3-5c.14-.47.28-.94.41-1.41Z" style="fill:#491514;stroke:#e7e6e6"/><path d="M197,121.37c-.2.64-.4,1.28-.62,1.91l-16.13-5.51c.16-.47.31-.94.45-1.4Z" style="fill:#541e1f;stroke:#e7e6e6"/><path d="M196.37,123.34c-.22.63-.45,1.26-.68,1.88l-15.95-6c.18-.46.34-.93.5-1.39Z" style="fill:#5d2828;stroke:#e7e6e6"/><path d="M195.67,125.28a64.55,64.55,0,0,1-4.4,9.28l-14.77-8.5a49.4,49.4,0,0,0,3.23-6.82Z" style="fill:#250c0d;stroke:#e7e6e6"/><path d="M206.29,129.31a75.79,75.79,0,0,1-5.17,10.93l-9.85-5.68a64.55,64.55,0,0,0,4.4-9.28Z" style="fill:#250c0d;stroke:#e7e6e6"/><path d="M191.24,134.62c-.27.47-.55.93-.83,1.39l-14.54-8.89c.2-.34.41-.68.6-1Z" style="fill:#678cac;stroke:#e7e6e6"/><path d="M190.38,136.06c-.28.46-.57.92-.87,1.37l-14.3-9.27c.21-.33.43-.66.63-1Z" style="fill:#6a8eae;stroke:#e7e6e6"/><path d="M200.07,142c-.16.26-.32.52-.49.78L190,136.72l.41-.66Z" style="fill:#6a8eae;stroke:#e7e6e6"/><path d="M204.91,145c-.17.28-.34.56-.52.84l-4.81-3c.17-.26.33-.52.49-.78Z" style="fill:#6a8eae;stroke:#e7e6e6"/><path d="M199.54,142.84c-.16.26-.32.52-.49.77l-9.54-6.18c.15-.21.28-.43.42-.65Z" style="fill:#a9cded;stroke:#e7e6e6"/><path d="M189.48,137.49c-.29.45-.59.9-.9,1.34l-14.06-9.64q.34-.49.66-1Z" style="fill:#6d91b1;stroke:#e7e6e6"/><path d="M199,143.68l-.5.76-9.46-6.31c.15-.21.29-.43.43-.64Z" style="fill:#6d91b1;stroke:#e7e6e6"/><path d="M198.47,144.5c-.17.26-.34.51-.52.76l-9.37-6.43.44-.64Z" style="fill:#acd0ef;stroke:#e7e6e6"/><path d="M188.55,138.88c-.31.45-.62.89-.94,1.32l-13.8-10,.69-1Z" style="fill:#7094b4;stroke:#e7e6e6"/><path d="M197.91,145.32l-.52.75-9.29-6.55.45-.64Z" style="fill:#7094b4;stroke:#e7e6e6"/><path d="M197.35,146.13l-.54.75-9.2-6.68c.16-.2.31-.42.46-.63Z" style="fill:#afd2f1;stroke:#e7e6e6"/><path d="M187.58,140.26l-1,1.29-13.54-10.36c.25-.32.48-.63.71-.95Z" style="fill:#7397b7;stroke:#e7e6e6"/><path d="M196.77,146.94l-.54.73-9.11-6.79.46-.62Z" style="fill:#7397b7;stroke:#e7e6e6"/><path d="M196.18,147.73c-.18.25-.36.49-.55.73l-9-6.91c.16-.2.31-.41.47-.62Z" style="fill:#b3d5f2;stroke:#e7e6e6"/><path d="M186.57,141.6c-.33.43-.66.85-1,1.27l-13.26-10.71.74-.93Z" style="fill:#779bba;stroke:#e7e6e6"/><path d="M195.59,148.52l-1.18,1.5-8.84-7.15c.34-.42.67-.84,1-1.27Z" style="fill:#779bba;stroke:#e7e6e6"/><path d="M185.53,142.92c-.34.42-.68.84-1,1.25l-13-11.06c.26-.3.51-.61.76-.91Z" style="fill:#7c9fbf;stroke:#e7e6e6"/><path d="M194.36,150.08c-.4.49-.8,1-1.22,1.46l-8.64-7.37c.35-.41.69-.83,1-1.25Z" style="fill:#7c9fbf;stroke:#e7e6e6"/><path d="M198.78,153.65c-.43.53-.87,1.06-1.31,1.57l-4.33-3.68c.42-.48.82-1,1.22-1.46Z" style="fill:#7c9fbf;stroke:#e7e6e6"/><path d="M184.45,144.22c-.35.41-.7.81-1.06,1.21L170.71,134c.26-.3.53-.59.78-.89Z" style="fill:#7da1c2;stroke:#e7e6e6"/><path d="M193.1,151.6c-.42.48-.83,1-1.26,1.43l-8.45-7.6c.36-.4.71-.8,1.06-1.21Z" style="fill:#7da1c2;stroke:#e7e6e6"/><path d="M183.35,145.48c-.36.4-.73.8-1.1,1.19L169.87,135l.81-.88Z" style="fill:#81a5c5;stroke:#e7e6e6"/><path d="M191.79,153.08l-.61.68-8.36-7.71.53-.57Z" style="fill:#81a5c5;stroke:#e7e6e6"/><path d="M191.12,153.81c-.2.23-.41.45-.62.67l-8.25-7.81.53-.57Z" style="fill:#c1e2f9;stroke:#e7e6e6"/><path d="M182.21,146.71c-.38.4-.75.78-1.13,1.16l-12.07-12c.28-.28.56-.56.83-.85Z" style="fill:#84a8c8;stroke:#e7e6e6"/><path d="M181,147.92c-.38.38-.76.76-1.16,1.13l-11.74-12.36c.29-.27.57-.55.85-.83Z" style="fill:#86abcb;stroke:#e7e6e6"/><path d="M179.83,149.09l-1.19,1.1-11.42-12.66c.3-.26.59-.53.87-.8Z" style="fill:#8aaece;stroke:#e7e6e6"/><path d="M178.59,150.23c-.4.36-.8.72-1.21,1.07l-11.08-13,.89-.79Z" style="fill:#8eb1d1;stroke:#e7e6e6"/><path d="M186.2,158.68l-.24.21-7.57-8.48.2-.18Z" style="fill:#8eb1d1;stroke:#e7e6e6"/><path d="M185.9,158.94l-.24.21-7.52-8.51.2-.18Z" style="fill:#a7caea;stroke:#e7e6e6"/><path d="M185.61,159.2l-.24.22-7.48-8.56.2-.18Z" style="fill:#c2e3f9;stroke:#e7e6e6"/><path d="M189.36,163.47l-.25.22-3.74-4.27.24-.22Z" style="fill:#c2e3f9;stroke:#e7e6e6"/><path d="M185.31,159.46l-.24.21-7.44-8.59.21-.18Z" style="fill:#dceff6;stroke:#e7e6e6"/><path d="M185,159.72l-.24.21-7.39-8.63.21-.18Z" style="fill:#f4fafc;stroke:#e7e6e6"/><path d="M177.33,151.34c-.41.35-.82.7-1.24,1l-10.74-13.23.91-.76Z" style="fill:#92b5d5;stroke:#e7e6e6"/><path d="M184.71,160l-.32.27-7.33-8.68.27-.23Z" style="fill:#92b5d5;stroke:#e7e6e6"/><path d="M184.33,160.3l-.32.27-7.27-8.73.27-.23Z" style="fill:#afd2f1;stroke:#e7e6e6"/><path d="M184,160.62l-.32.27-7.22-8.78.28-.23Z" style="fill:#d1ebf9;stroke:#e7e6e6"/><path d="M183.57,160.93l-.32.27-7.16-8.83.27-.22Z" style="fill:#f0f8fb;stroke:#e7e6e6"/><path d="M176,152.42l-1.27,1L164.38,139.9l.93-.73Z" style="fill:#93b8d8;stroke:#e7e6e6"/><path d="M174.72,153.46c-.43.32-.86.65-1.3,1l-10-13.78,1-.71Z" style="fill:#96bbdb;stroke:#e7e6e6"/><path d="M173.37,154.46c-.79.57-1.59,1.13-2.4,1.67l-9.38-14.24c.59-.39,1.18-.8,1.76-1.22Z" style="fill:#4f7393;stroke:#e7e6e6"/><path d="M180.05,163.66c-.93.67-1.87,1.32-2.83,2L171,156.13c.81-.54,1.61-1.1,2.4-1.67Z" style="fill:#4f7393;stroke:#e7e6e6"/><path d="M183.39,168.25l-.7.51-3.29-4.64.65-.46Z" style="fill:#4f7393;stroke:#e7e6e6"/><path d="M182.62,168.8l-.71.5-3.23-4.67.66-.46Z" style="fill:#5b7f9f;stroke:#e7e6e6"/><path d="M181.85,169.35l-.72.48-3.18-4.7.67-.46Z" style="fill:#678cac;stroke:#e7e6e6"/><path d="M181.07,169.88l-.72.48-3.13-4.75.67-.44Z" style="fill:#7498b8;stroke:#e7e6e6"/><path d="M170.91,156.16c-.81.54-1.64,1.05-2.48,1.55l-8.7-14.65c.61-.37,1.22-.75,1.82-1.14Z" style="fill:#547898;stroke:#e7e6e6"/><path d="M168.38,157.74q-1.26.75-2.55,1.44l-8-15c.63-.34,1.26-.69,1.87-1.06Z" style="fill:#5a7e9e;stroke:#e7e6e6"/><path d="M174.18,167.52l-1,.55-5.66-9.86.81-.47Z" style="fill:#5a7e9e;stroke:#e7e6e6"/><path d="M173.16,168.11l-.95.54-5.5-10,.81-.45Z" style="fill:#84a8c8;stroke:#e7e6e6"/><path d="M172.14,168.68l-1,.53-5.35-10,.82-.45Z" style="fill:#aed1f0;stroke:#e7e6e6"/><path d="M165.77,159.21c-.86.46-1.73.89-2.61,1.31l-7.31-15.4c.65-.3,1.29-.63,1.92-1Z" style="fill:#5f84a4;stroke:#e7e6e6"/><path d="M163.1,160.55c-.88.42-1.77.81-2.67,1.19L153.85,146c.66-.28,1.31-.57,2-.88Z" style="fill:#6489a9;stroke:#e7e6e6"/><path d="M168,170.82l-1,.46-4.71-10.34.84-.39Z" style="fill:#6489a9;stroke:#e7e6e6"/><path d="M170.4,176l-.07,0-2.43-5.14.07,0Z" style="fill:#6489a9;stroke:#e7e6e6"/><path d="M170.26,176l-.07,0-2.42-5.15.06,0Z" style="fill:#6a8eae;stroke:#e7e6e6"/><path d="M172.68,181.16h0L170.26,176h0Z" style="fill:#6a8eae;stroke:#e7e6e6"/><path d="M172.6,181.2h0l-2.41-5.14h0Z" style="fill:#a9cded;stroke:#e7e6e6"/><path d="M170.11,176.09l-.07,0-2.4-5.14.06,0Z" style="fill:#7094b4;stroke:#e7e6e6"/><path d="M170,176.16l-.07,0L167.5,171l.07,0Z" style="fill:#789cbc;stroke:#e7e6e6"/><path d="M169.83,176.22l-.07,0-2.39-5.16.07,0Z" style="fill:#7da1c2;stroke:#e7e6e6"/><path d="M169.68,176.29l-.07,0-2.37-5.16.06,0Z" style="fill:#84a8c8;stroke:#e7e6e6"/><path d="M169.54,176.36l-.07,0-2.37-5.17.07,0Z" style="fill:#8aaece;stroke:#e7e6e6"/><path d="M169.4,176.42l-.07,0L167,171.28l.07,0Z" style="fill:#92b5d5;stroke:#e7e6e6"/><path d="M166.9,171.31c-.33.16-.66.3-1,.45l-4.55-10.41.85-.38Z" style="fill:#8fb3d3;stroke:#e7e6e6"/><path d="M165.83,171.79l-1,.43-4.39-10.48.86-.37Z" style="fill:#bbdcf5;stroke:#e7e6e6"/><path d="M160.37,161.77c-.9.37-1.8.73-2.72,1.06l-5.85-16c.68-.25,1.34-.51,2-.78Z" style="fill:#6a8eae;stroke:#e7e6e6"/><path d="M164.75,172.25l-1,.42-4.23-10.55.86-.35Z" style="fill:#6a8eae;stroke:#e7e6e6"/><path d="M163.67,172.7l-1,.39-4.07-10.61.87-.34Z" style="fill:#94b9d9;stroke:#e7e6e6"/><path d="M165.78,178l-1.1.43-2-5.31,1-.39Z" style="fill:#94b9d9;stroke:#e7e6e6"/><path d="M162.58,173.12l-1,.39-3.9-10.68.87-.33Z" style="fill:#c1e2f9;stroke:#e7e6e6"/><path d="M157.59,162.85c-.92.34-1.84.65-2.77.94l-5.09-16.27c.68-.21,1.36-.44,2-.69Z" style="fill:#7094b4;stroke:#e7e6e6"/><path d="M154.76,163.81c-.93.29-1.87.56-2.81.81l-4.33-16.49c.69-.18,1.38-.38,2.06-.59Z" style="fill:#769ab9;stroke:#e7e6e6"/><path d="M158.15,174.66c-1.1.34-2.2.66-3.31,1l-2.89-11c.94-.25,1.88-.52,2.81-.81Z" style="fill:#769ab9;stroke:#e7e6e6"/><path d="M151.89,164.63c-.95.25-1.89.47-2.85.68l-3.56-16.67c.7-.15,1.4-.32,2.09-.5Z" style="fill:#7ba0c0;stroke:#e7e6e6"/><path d="M149,165.32c-1.44.31-2.89.56-4.35.77l-2.39-16.88c1.07-.15,2.14-.34,3.2-.56Z" style="fill:#345979;stroke:#e7e6e6"/><path d="M151.34,176.44q-2.53.54-5.12.9l-1.59-11.25c1.46-.21,2.91-.46,4.35-.77Z" style="fill:#345979;stroke:#e7e6e6"/><path d="M144.57,166.1c-1.46.2-2.93.36-4.4.46l-1.2-17c1.08-.08,2.15-.19,3.22-.34Z" style="fill:#3d6181;stroke:#e7e6e6"/><path d="M146.15,177.35h0l-1.58-11.26h0Z" style="fill:#3d6181;stroke:#e7e6e6"/><path d="M146.94,183h0l-.79-5.63h0Z" style="fill:#3d6181;stroke:#e7e6e6"/><path d="M146.88,183h0l-.79-5.62h0Z" style="fill:#567a9b;stroke:#e7e6e6"/><path d="M146.05,177.37h0l-1.56-11.26h0Z" style="fill:#3e6383;stroke:#e7e6e6"/><path d="M146,177.38h0l-1.55-11.25h0Z" style="fill:#426585;stroke:#e7e6e6"/><path d="M145.85,177.39h0l-1.53-11.26h0Z" style="fill:#436888;stroke:#e7e6e6"/><path d="M145.75,177.41h0l-1.52-11.26h0Z" style="fill:#466a8a;stroke:#e7e6e6"/><path d="M145.65,177.42h0l-1.5-11.27h0Z" style="fill:#496d8d;stroke:#e7e6e6"/><path d="M146.4,183.05h0l-.75-5.63h0Z" style="fill:#496d8d;stroke:#e7e6e6"/><path d="M145.54,177.44h0L144,166.17h0Z" style="fill:#4b6f8e;stroke:#e7e6e6"/><path d="M146.29,183.07h0l-.74-5.63h0Z" style="fill:#4b6f8e;stroke:#e7e6e6"/><path d="M145.44,177.45h0L144,166.18h0Z" style="fill:#4e7292;stroke:#e7e6e6"/><path d="M145.34,177.46h0l-1.46-11.28h0Z" style="fill:#507494;stroke:#e7e6e6"/><path d="M145.24,177.47h0l-1.44-11.27h0Z" style="fill:#537797;stroke:#e7e6e6"/><path d="M145.14,177.49h0l-1.43-11.27h0Z" style="fill:#557999;stroke:#e7e6e6"/><path d="M145,177.5h0l-1.42-11.27h0Z" style="fill:#577b9b;stroke:#e7e6e6"/><path d="M144.94,177.51h0l-1.4-11.28h0Z" style="fill:#5a7e9e;stroke:#e7e6e6"/><path d="M145.64,183.15h.06l-.7-5.63h-.06Z" style="fill:#5a7e9e;stroke:#e7e6e6"/><path d="M146.34,188.79h.06l-.7-5.64h-.06Z" style="fill:#5a7e9e;stroke:#e7e6e6"/><path d="M145.62,183.15h.06l-.7-5.64h-.06Z" style="fill:#6388a8;stroke:#e7e6e6"/><path d="M145.6,183.16h.06l-.7-5.64h-.06Z" style="fill:#6d91b1;stroke:#e7e6e6"/><path d="M146.29,188.8h.07l-.7-5.64h-.06Z" style="fill:#6d91b1;stroke:#e7e6e6"/><path d="M145.58,183.16h0l-.69-5.64h-.06Z" style="fill:#789cbc;stroke:#e7e6e6"/><path d="M145.55,183.16h.06l-.69-5.64h-.06Z" style="fill:#82a5c5;stroke:#e7e6e6"/><path d="M144.84,177.53h0l-1.38-11.28h0Z" style="fill:#5c80a0;stroke:#e7e6e6"/><path d="M145.53,183.17h0l-.69-5.64h0Z" style="fill:#5c80a0;stroke:#e7e6e6"/><path d="M144.74,177.54h0l-1.36-11.28h0Z" style="fill:#5f83a3;stroke:#e7e6e6"/><path d="M144.64,177.55h0l-1.35-11.28h0Z" style="fill:#6085a5;stroke:#e7e6e6"/><path d="M145.32,183.19h0l-.68-5.64h0Z" style="fill:#6085a5;stroke:#e7e6e6"/><path d="M144.54,177.56h0l-1.33-11.28h0Z" style="fill:#6388a8;stroke:#e7e6e6"/><path d="M144.44,177.57h0l-1.32-11.29h0Z" style="fill:#658aaa;stroke:#e7e6e6"/><path d="M145.1,183.22h.05l-.66-5.64h-.05Z" style="fill:#658aaa;stroke:#e7e6e6"/><path d="M145.07,183.22h.06l-.67-5.64h-.05Z" style="fill:#7196b5;stroke:#e7e6e6"/><path d="M145.05,183.22h0l-.66-5.65h-.05Z" style="fill:#7fa3c3;stroke:#e7e6e6"/><path d="M145,183.23h0l-.66-5.64h0Z" style="fill:#8baecf;stroke:#e7e6e6"/><path d="M144.34,177.59h0L143,166.3h0Z" style="fill:#688dad;stroke:#e7e6e6"/><path d="M144.24,177.6h0l-1.29-11.29h0Z" style="fill:#6a8eae;stroke:#e7e6e6"/><path d="M144.13,177.61h0l-1.28-11.29h0Z" style="fill:#6d91b1;stroke:#e7e6e6"/><path d="M144,177.62h0l-1.26-11.29h0Z" style="fill:#6f93b3;stroke:#e7e6e6"/><path d="M144.67,183.27h0l-.63-5.65h0Z" style="fill:#6f93b3;stroke:#e7e6e6"/><path d="M143.93,177.63h0l-1.25-11.29h0Z" style="fill:#7196b5;stroke:#e7e6e6"/><path d="M144.56,183.28h0l-.62-5.65h0Z" style="fill:#7196b5;stroke:#e7e6e6"/><path d="M143.83,177.64h0l-1.23-11.3h0Z" style="fill:#7498b8;stroke:#e7e6e6"/><path d="M143.73,177.65h0l-1.22-11.3h0Z" style="fill:#779bba;stroke:#e7e6e6"/><path d="M143.63,177.66h0l-1.19-11.3h0Z" style="fill:#7a9ebe;stroke:#e7e6e6"/><path d="M143.53,177.67h0l-1.18-11.31h0Z" style="fill:#7ba0c0;stroke:#e7e6e6"/><path d="M143.43,177.69h0l-1.17-11.31h0Z" style="fill:#7fa3c3;stroke:#e7e6e6"/><path d="M144,183.34h0l-.59-5.65h0Z" style="fill:#7fa3c3;stroke:#e7e6e6"/><path d="M143.33,177.7h0l-1.15-11.31h0Z" style="fill:#81a5c5;stroke:#e7e6e6"/><path d="M143.23,177.71h0l-1.14-11.31h0Z" style="fill:#84a8c8;stroke:#e7e6e6"/><path d="M143.13,177.72h0L142,166.41h0Z" style="fill:#85a9c9;stroke:#e7e6e6"/><path d="M143,177.73h0l-1.11-11.31h0Z" style="fill:#89adcc;stroke:#e7e6e6"/><path d="M143.58,183.38h0l-.56-5.66h0Z" style="fill:#89adcc;stroke:#e7e6e6"/><path d="M144.14,189h.05l-.56-5.65h0Z" style="fill:#89adcc;stroke:#e7e6e6"/><path d="M144.11,189h.06l-.56-5.65h-.06Z" style="fill:#c8e8fb;stroke:#e7e6e6"/><path d="M143.53,183.39h0l-.55-5.65h0Z" style="fill:#a1c5e5;stroke:#e7e6e6"/><path d="M142.92,177.74h0l-1.09-11.31h0Z" style="fill:#8aaece;stroke:#e7e6e6"/><path d="M143.47,183.39h0l-.54-5.65h0Z" style="fill:#8aaece;stroke:#e7e6e6"/><path d="M142.82,177.75h0l-1.08-11.32h0Z" style="fill:#8db0d0;stroke:#e7e6e6"/><path d="M142.72,177.76h0l-1.07-11.32h0Z" style="fill:#90b3d4;stroke:#e7e6e6"/><path d="M142.62,177.76h0l-1-11.32h0Z" style="fill:#93b6d6;stroke:#e7e6e6"/><path d="M143.15,183.42h0l-.52-5.65h0Z" style="fill:#93b6d6;stroke:#e7e6e6"/><path d="M142.52,177.77h0l-1-11.32h0Z" style="fill:#94b9d9;stroke:#e7e6e6"/><path d="M142.42,177.78h0l-1-11.32h0Z" style="fill:#96bbdb;stroke:#e7e6e6"/><path d="M142.93,183.44h0l-.51-5.65h0Z" style="fill:#96bbdb;stroke:#e7e6e6"/><path d="M142.32,177.79h0l-1-11.32h0Z" style="fill:#9abede;stroke:#e7e6e6"/><path d="M142.82,183.45h0l-.5-5.66h0Z" style="fill:#9abede;stroke:#e7e6e6"/><path d="M142.22,177.8h0l-1-11.32h0Z" style="fill:#9cbfdf;stroke:#e7e6e6"/><path d="M142.12,177.81h0l-1-11.32h0Z" style="fill:#9ec2e2;stroke:#e7e6e6"/><path d="M142,177.82h0l-1-11.32h0Z" style="fill:#a0c4e4;stroke:#e7e6e6"/><path d="M141.91,177.83h0L141,166.5h0Z" style="fill:#a2c6e6;stroke:#e7e6e6"/><path d="M141.81,177.84h0l-.93-11.33h0Z" style="fill:#a6c9ea;stroke:#e7e6e6"/><path d="M141.71,177.84h0l-.92-11.33h0Z" style="fill:#a8cbeb;stroke:#e7e6e6"/><path d="M141.61,177.85h0l-.89-11.33h0Z" style="fill:#aacdee;stroke:#e7e6e6"/><path d="M141.51,177.86h0l-.88-11.33h0Z" style="fill:#acd0ef;stroke:#e7e6e6"/><path d="M141.41,177.87h0l-.86-11.33h0Z" style="fill:#afd2f1;stroke:#e7e6e6"/><path d="M141.31,177.88h0l-.85-11.34h0Z" style="fill:#b1d4f2;stroke:#e7e6e6"/><path d="M141.21,177.88h0l-.84-11.33h0Z" style="fill:#b5d7f3;stroke:#e7e6e6"/><path d="M141.1,177.89h0l-.82-11.33h0Z" style="fill:#b8daf4;stroke:#e7e6e6"/><path d="M141,177.9h0l-.81-11.34h0Z" style="fill:#bbdcf5;stroke:#e7e6e6"/><path d="M141.41,183.57h.05l-.41-5.67H141Z" style="fill:#bbdcf5;stroke:#e7e6e6"/><path d="M141.38,183.57h.05l-.4-5.66H141Z" style="fill:#c6e7fb;stroke:#e7e6e6"/><path d="M141.35,183.57h.06L141,177.9H141Z" style="fill:#d5edf8;stroke:#e7e6e6"/><path d="M141.33,183.57h0l-.4-5.67h0Z" style="fill:#e3f2f7;stroke:#e7e6e6"/><path d="M140.11,166.57c-1.47.1-2.94.15-4.42.15v-17q1.62,0,3.24-.12Z" style="fill:#466a8a;stroke:#e7e6e6"/><path d="M140.9,177.9c-1.73.13-3.46.19-5.19.19l0-11.37c1.48,0,2.95-.05,4.42-.15Z" style="fill:#466a8a;stroke:#e7e6e6"/><path d="M135.63,166.72c-1.47,0-2.95-.05-4.41-.15l1.17-17c1.08.07,2.16.11,3.24.11Z" style="fill:#4e7292;stroke:#e7e6e6"/><path d="M135.63,178.09c-.85,0-1.71,0-2.56,0l.38-11.36c.73,0,1.45,0,2.18,0Z" style="fill:#4e7292;stroke:#e7e6e6"/><path d="M135.63,183.77h-.27l0-5.68h.25Z" style="fill:#4e7292;stroke:#e7e6e6"/><path d="M135.28,183.77H135l.05-5.68h.25Z" style="fill:#547898;stroke:#e7e6e6"/><path d="M135.25,189.45H135l0-5.68h.28Z" style="fill:#547898;stroke:#e7e6e6"/><path d="M134.92,183.77h-.27l.07-5.68H135Z" style="fill:#5a7e9e;stroke:#e7e6e6"/><path d="M134.87,189.45h.06l0-5.68h-.06Z" style="fill:#5a7e9e;stroke:#e7e6e6"/><path d="M134.82,195.13h.08l0-5.68h-.07Z" style="fill:#5a7e9e;stroke:#e7e6e6"/><path d="M134.81,195.13h.08l0-5.68h-.07Z" style="fill:#98bcdc;stroke:#e7e6e6"/><path d="M134.84,189.45h.06l0-5.68h0Z" style="fill:#6287a7;stroke:#e7e6e6"/><path d="M134.82,189.45h.06l.05-5.68h-.06Z" style="fill:#6b8fb0;stroke:#e7e6e6"/><path d="M134.79,189.45h.06l.05-5.68h-.06Z" style="fill:#7498b8;stroke:#e7e6e6"/><path d="M134.76,189.45h.06l.06-5.68h-.06Z" style="fill:#7da1c2;stroke:#e7e6e6"/><path d="M134.74,189.45h.06l0-5.68h-.06Z" style="fill:#86abcb;stroke:#e7e6e6"/><path d="M134.68,195.13h.06l.06-5.68h-.06Z" style="fill:#86abcb;stroke:#e7e6e6"/><path d="M134.71,189.45h.06l0-5.68h0Z" style="fill:#90b3d4;stroke:#e7e6e6"/><path d="M134.68,189.45h.06l.06-5.68h-.06Z" style="fill:#98bcdc;stroke:#e7e6e6"/><path d="M134.65,189.45h.06l.06-5.68h-.05Z" style="fill:#a1c5e5;stroke:#e7e6e6"/><path d="M134.63,189.45h.06l.06-5.68h-.06Z" style="fill:#aacdee;stroke:#e7e6e6"/><path d="M134.6,189.45h.06l.06-5.68h-.05Z" style="fill:#b5d7f3;stroke:#e7e6e6"/><path d="M134.57,189.45h.06l.07-5.68h-.06Z" style="fill:#bfe0f7;stroke:#e7e6e6"/><path d="M134.55,189.45h.06l.06-5.68h0Z" style="fill:#c7e8fb;stroke:#e7e6e6"/><path d="M134.52,189.45h.06l.07-5.69h-.06Z" style="fill:#d1ebf9;stroke:#e7e6e6"/><path d="M134.57,183.76h-.28l.1-5.68h.25Z" style="fill:#6085a5;stroke:#e7e6e6"/><path d="M134.49,189.45h0l.07-5.69h0Z" style="fill:#6085a5;stroke:#e7e6e6"/><path d="M134.44,189.44h0l.08-5.69h0Z" style="fill:#6f93b3;stroke:#e7e6e6"/><path d="M134.4,189.44h0l.07-5.68h0Z" style="fill:#80a4c4;stroke:#e7e6e6"/><path d="M134.32,195.13h.06l.08-5.68h-.06Z" style="fill:#80a4c4;stroke:#e7e6e6"/><path d="M134.29,195.13h.07l.08-5.69h-.07Z" style="fill:#c0e1f8;stroke:#e7e6e6"/><path d="M134.35,189.44h0l.08-5.68h0Z" style="fill:#90b3d4;stroke:#e7e6e6"/><path d="M134.27,195.13h0l.08-5.69h0Z" style="fill:#90b3d4;stroke:#e7e6e6"/><path d="M134.3,189.44h0l.09-5.68h0Z" style="fill:#9fc3e3;stroke:#e7e6e6"/><path d="M134.25,189.44h0l.09-5.68h0Z" style="fill:#afd2f1;stroke:#e7e6e6"/><path d="M134.21,189.44h0l.09-5.68h0Z" style="fill:#c1e2f9;stroke:#e7e6e6"/><path d="M134.16,189.44h0l.09-5.68h0Z" style="fill:#d1ebf9;stroke:#e7e6e6"/><path d="M134.21,183.76h-.27l.12-5.68h.25Z" style="fill:#668aab;stroke:#e7e6e6"/><path d="M133.86,183.75h-.28l.15-5.69H134Z" style="fill:#6d90b1;stroke:#e7e6e6"/><path d="M133.73,189.43h-.29l.14-5.68h.28Z" style="fill:#6d90b1;stroke:#e7e6e6"/><path d="M133.5,183.74h-.27l.17-5.68h.25Z" style="fill:#7397b7;stroke:#e7e6e6"/><path d="M133.15,183.73h-.27l.19-5.67h.25Z" style="fill:#7a9ebe;stroke:#e7e6e6"/><path d="M133,178c-.85,0-1.7-.07-2.56-.13l.79-11.34c.72.05,1.44.09,2.17.12Z" style="fill:#8db0d0;stroke:#e7e6e6"/><path d="M131.15,166.57c-1.47-.1-2.93-.26-4.39-.46l2.35-16.88c1.07.14,2.15.26,3.23.33Z" style="fill:#577b9b;stroke:#e7e6e6"/><path d="M130.36,177.9h-.14l.82-11.33h.11Z" style="fill:#577b9b;stroke:#e7e6e6"/><path d="M130,183.57h0l.4-5.67h0Z" style="fill:#577b9b;stroke:#e7e6e6"/><path d="M129.85,183.56h0l.4-5.67h0Z" style="fill:#6f93b3;stroke:#e7e6e6"/><path d="M130.15,177.89H130l.85-11.33H131Z" style="fill:#5c80a0;stroke:#e7e6e6"/><path d="M129.94,177.87h-.14l.88-11.33h.11Z" style="fill:#6085a5;stroke:#e7e6e6"/><path d="M129.51,183.54h0l.43-5.66h0Z" style="fill:#6085a5;stroke:#e7e6e6"/><path d="M129.08,189.21h.06l.42-5.67h-.05Z" style="fill:#6085a5;stroke:#e7e6e6"/><path d="M129.05,189.2h.06l.42-5.67h-.05Z" style="fill:#9fc3e3;stroke:#e7e6e6"/><path d="M129.45,183.54h0l.43-5.67h0Z" style="fill:#6d90b1;stroke:#e7e6e6"/><path d="M129.4,183.53h0l.43-5.66h0Z" style="fill:#7a9ebe;stroke:#e7e6e6"/><path d="M129.34,183.53h0l.44-5.67h0Z" style="fill:#86abcb;stroke:#e7e6e6"/><path d="M128.9,189.19h0l.43-5.66h0Z" style="fill:#86abcb;stroke:#e7e6e6"/><path d="M129.73,177.86h-.14l.91-11.33h.11Z" style="fill:#658aaa;stroke:#e7e6e6"/><path d="M129.52,177.84h-.14l.94-11.33h.12Z" style="fill:#6a8eae;stroke:#e7e6e6"/><path d="M129.06,183.5h-.15l.47-5.66h.14Z" style="fill:#6a8eae;stroke:#e7e6e6"/><path d="M129.31,177.82h-.14l1-11.32h.12Z" style="fill:#6f93b3;stroke:#e7e6e6"/><path d="M128.83,183.49h0l.47-5.66h0Z" style="fill:#6f93b3;stroke:#e7e6e6"/><path d="M128.8,183.48h0l.47-5.67h0Z" style="fill:#779bba;stroke:#e7e6e6"/><path d="M128.32,189.15h.07l.47-5.66h-.06Z" style="fill:#779bba;stroke:#e7e6e6"/><path d="M128.3,189.14h.07l.48-5.66h-.07Z" style="fill:#b7d9f4;stroke:#e7e6e6"/><path d="M128.77,183.48h0l.48-5.66h0Z" style="fill:#7da1c2;stroke:#e7e6e6"/><path d="M128.73,183.48h.05l.48-5.66h0Z" style="fill:#85a9c8;stroke:#e7e6e6"/><path d="M128.7,183.47h.05l.48-5.66h0Z" style="fill:#8db0d0;stroke:#e7e6e6"/><path d="M128.22,189.14h.07l.48-5.66h-.07Z" style="fill:#8db0d0;stroke:#e7e6e6"/><path d="M128.21,189.14h.07l.48-5.66h-.07Z" style="fill:#b8daf4;stroke:#e7e6e6"/><path d="M127.72,194.8h.09l.48-5.66h-.08Z" style="fill:#b8daf4;stroke:#e7e6e6"/><path d="M127.71,194.8h.09l.48-5.66h-.08Z" style="fill:#f6fbfc;stroke:#e7e6e6"/><path d="M128.19,189.13h.08l.48-5.66h-.07Z" style="fill:#e4f3f8;stroke:#e7e6e6"/><path d="M128.67,183.47h.05l.48-5.67h0Z" style="fill:#93b8d8;stroke:#e7e6e6"/><path d="M128.64,183.47h.05l.48-5.66h0Z" style="fill:#9bbfde;stroke:#e7e6e6"/><path d="M129.1,177.81l-.14,0,1-11.32h.12Z" style="fill:#7498b8;stroke:#e7e6e6"/><path d="M128.6,183.47l-.14,0,.5-5.66.14,0Z" style="fill:#7498b8;stroke:#e7e6e6"/><path d="M128.89,177.79l-.14,0,1-11.31h.11Z" style="fill:#7a9ebe;stroke:#e7e6e6"/><path d="M128.68,177.77h-.14l1.07-11.32h.11Z" style="fill:#7fa3c3;stroke:#e7e6e6"/><path d="M128.15,183.43l-.14,0,.53-5.65h.14Z" style="fill:#7fa3c3;stroke:#e7e6e6"/><path d="M128.47,177.75h-.14l1.1-11.32.11,0Z" style="fill:#84a8c8;stroke:#e7e6e6"/><path d="M127.93,183.4h0l.53-5.66h0Z" style="fill:#84a8c8;stroke:#e7e6e6"/><path d="M127.9,183.4h0l.54-5.66h-.05Z" style="fill:#8aaece;stroke:#e7e6e6"/><path d="M127.36,189.06h0l.54-5.65h0Z" style="fill:#8aaece;stroke:#e7e6e6"/><path d="M127.87,183.4h0l.54-5.65h-.05Z" style="fill:#90b3d4;stroke:#e7e6e6"/><path d="M127.33,189.06h.08l.54-5.65h-.08Z" style="fill:#90b3d4;stroke:#e7e6e6"/><path d="M126.79,194.71h.09l.53-5.66h-.08Z" style="fill:#90b3d4;stroke:#e7e6e6"/><path d="M126.78,194.71h.09l.54-5.66h-.08Z" style="fill:#d0ebf9;stroke:#e7e6e6"/><path d="M127.33,189.06h.08l.54-5.65h-.08Z" style="fill:#98bcdc;stroke:#e7e6e6"/><path d="M127.32,189.06h.09l.54-5.65h-.08Z" style="fill:#a1c5e5;stroke:#e7e6e6"/><path d="M127.32,189.05h.09l.53-5.65h-.08Z" style="fill:#aacdee;stroke:#e7e6e6"/><path d="M127.32,189.05h.08l.54-5.65h-.08Z" style="fill:#b4d6f3;stroke:#e7e6e6"/><path d="M127.32,189.05h.08l.54-5.65h-.08Z" style="fill:#bedff7;stroke:#e7e6e6"/><path d="M126.77,194.71h.09l.54-5.66h-.08Z" style="fill:#bedff7;stroke:#e7e6e6"/><path d="M127.31,189.05h.09l.54-5.65h-.08Z" style="fill:#c6e7fb;stroke:#e7e6e6"/><path d="M127.31,189.05h.09l.54-5.65h-.08Z" style="fill:#d0ebf9;stroke:#e7e6e6"/><path d="M127.31,189.05h.08l.54-5.65h-.08Z" style="fill:#d9eef6;stroke:#e7e6e6"/><path d="M127.31,189.05h.08l.54-5.65h-.08Z" style="fill:#e4f3f7;stroke:#e7e6e6"/><path d="M127.31,189.05h.08l.54-5.65h-.08Z" style="fill:#edf7fa;stroke:#e7e6e6"/><path d="M127.3,189.05h.09l.54-5.66h-.08Z" style="fill:#f4fafc;stroke:#e7e6e6"/><path d="M127.3,189.05h.09l.53-5.66h-.07Z" style="fill:#fdfeff;stroke:#e7e6e6"/><path d="M127.3,189.05h.08l.54-5.66h-.08Z" style="fill:#fff;stroke:#e7e6e6"/><path d="M127.84,183.4h0l.55-5.65h-.05Z" style="fill:#96bbdb;stroke:#e7e6e6"/><path d="M127.3,189.05h.08l.54-5.66h-.08Z" style="fill:#96bbdb;stroke:#e7e6e6"/><path d="M127.29,189.05h.09l.54-5.66h-.08Z" style="fill:#a6c9ea;stroke:#e7e6e6"/><path d="M127.29,189.05h.08l.54-5.66h-.07Z" style="fill:#b7d9f4;stroke:#e7e6e6"/><path d="M126.74,194.71h.1l.53-5.66h-.08Z" style="fill:#b7d9f4;stroke:#e7e6e6"/><path d="M126.74,194.71h.09l.54-5.66h-.08Z" style="fill:#f5fafc;stroke:#e7e6e6"/><path d="M127.29,189.05h.08l.54-5.66h-.08Z" style="fill:#c6e7fb;stroke:#e7e6e6"/><path d="M126.74,194.71h.09l.54-5.66h-.08Z" style="fill:#c6e7fb;stroke:#e7e6e6"/><path d="M127.28,189.05h.09l.54-5.66h-.08Z" style="fill:#d8eef7;stroke:#e7e6e6"/><path d="M127.28,189.05h.08l.54-5.66h-.08Z" style="fill:#e8f5f8;stroke:#e7e6e6"/><path d="M127.27,189.05h.09l.54-5.66h-.08Z" style="fill:#f6fbfc;stroke:#e7e6e6"/><path d="M127.27,189.05h.08l.54-5.66h-.07Z" style="fill:#fff;stroke:#e7e6e6"/><path d="M127.81,183.39h.06l.54-5.66h0Z" style="fill:#9cc0e0;stroke:#e7e6e6"/><path d="M127.79,183.39h0l.54-5.66h0Z" style="fill:#a2c6e6;stroke:#e7e6e6"/><path d="M127.24,189.05h.05l.55-5.65h0Z" style="fill:#a2c6e6;stroke:#e7e6e6"/><path d="M127.76,183.39h0l.55-5.65h-.05Z" style="fill:#a9cded;stroke:#e7e6e6"/><path d="M127.73,183.39h0l.55-5.65h-.05Z" style="fill:#afd2f1;stroke:#e7e6e6"/><path d="M128.26,177.73l-.14,0,1.13-11.3h.11Z" style="fill:#8aaece;stroke:#e7e6e6"/><path d="M127.7,183.38h0l.55-5.66h0Z" style="fill:#8aaece;stroke:#e7e6e6"/><path d="M127.66,183.38h0l.56-5.65h0Z" style="fill:#93b8d8;stroke:#e7e6e6"/><path d="M127.61,183.37h0l.55-5.66h0Z" style="fill:#9dc1e1;stroke:#e7e6e6"/><path d="M127.57,183.37h0l.56-5.65h0Z" style="fill:#a8cbeb;stroke:#e7e6e6"/><path d="M127.52,183.37h0l.56-5.66h0Z" style="fill:#b1d4f2;stroke:#e7e6e6"/><path d="M128.05,177.71l-.14,0,1.16-11.3h.12Z" style="fill:#8fb3d3;stroke:#e7e6e6"/><path d="M127.84,177.69l-.14,0,1.19-11.3H129Z" style="fill:#93b8d8;stroke:#e7e6e6"/><path d="M127.25,183.34h.06l.58-5.65h0Z" style="fill:#93b8d8;stroke:#e7e6e6"/><path d="M127.22,183.33h.06l.58-5.65h0Z" style="fill:#98bcdc;stroke:#e7e6e6"/><path d="M127.2,183.33h.06l.58-5.65h0Z" style="fill:#9ec2e2;stroke:#e7e6e6"/><path d="M127.17,183.33h.06l.59-5.66h0Z" style="fill:#a5c8e9;stroke:#e7e6e6"/><path d="M127.15,183.33h0l.59-5.65h-.05Z" style="fill:#a9cded;stroke:#e7e6e6"/><path d="M127.12,183.32h.06l.59-5.65h0Z" style="fill:#afd2f1;stroke:#e7e6e6"/><path d="M127.1,183.32h.05l.6-5.65h0Z" style="fill:#b7d9f4;stroke:#e7e6e6"/><path d="M126.5,189h.06l.59-5.65h-.05Z" style="fill:#b7d9f4;stroke:#e7e6e6"/><path d="M127.07,183.32h.06l.59-5.65h0Z" style="fill:#bcddf6;stroke:#e7e6e6"/><path d="M127.05,183.32h0l.6-5.65h0Z" style="fill:#c2e3f9;stroke:#e7e6e6"/><path d="M127.63,177.66h-.14l1.22-11.3h.12Z" style="fill:#98bcdc;stroke:#e7e6e6"/><path d="M127.42,177.64h-.14l1.26-11.3h.11Z" style="fill:#9dc1e1;stroke:#e7e6e6"/><path d="M126.8,183.29h0l.61-5.65h0Z" style="fill:#9dc1e1;stroke:#e7e6e6"/><path d="M126.77,183.29h0l.62-5.65h0Z" style="fill:#a4c7e8;stroke:#e7e6e6"/><path d="M126.74,183.28h.05l.62-5.65h0Z" style="fill:#a9cded;stroke:#e7e6e6"/><path d="M126.71,183.28h.06l.62-5.65h0Z" style="fill:#b1d3f1;stroke:#e7e6e6"/><path d="M126.69,183.28h0l.62-5.65h0Z" style="fill:#b8daf4;stroke:#e7e6e6"/><path d="M126.66,183.27h0l.62-5.65h0Z" style="fill:#bedff7;stroke:#e7e6e6"/><path d="M126.63,183.27h.05l.63-5.65h0Z" style="fill:#c4e6fb;stroke:#e7e6e6"/><path d="M126.6,183.27h.05l.63-5.64h0Z" style="fill:#cbe9fc;stroke:#e7e6e6"/><path d="M127.21,177.62l-.14,0,1.29-11.29h.11Z" style="fill:#a2c6e6;stroke:#e7e6e6"/><path d="M126.57,183.26h-.14l.64-5.65.14,0Z" style="fill:#a2c6e6;stroke:#e7e6e6"/><path d="M127,177.59h-.14l1.32-11.29h.11Z" style="fill:#a8cbeb;stroke:#e7e6e6"/><path d="M126.35,183.24h0l.65-5.64h0Z" style="fill:#a8cbeb;stroke:#e7e6e6"/><path d="M126.29,183.23h0l.65-5.65h0Z" style="fill:#b4d6f3;stroke:#e7e6e6"/><path d="M126.23,183.23h0l.65-5.65h0Z" style="fill:#c2e3f9;stroke:#e7e6e6"/><path d="M126.18,183.22h0l.66-5.64h0Z" style="fill:#cfebf9;stroke:#e7e6e6"/><path d="M126.79,177.57l-.14,0L128,166.27h.12Z" style="fill:#acd0ef;stroke:#e7e6e6"/><path d="M126.12,183.21h.06l.66-5.64h0Z" style="fill:#acd0ef;stroke:#e7e6e6"/><path d="M126.1,183.21h.06l.66-5.65h0Z" style="fill:#b1d4f2;stroke:#e7e6e6"/><path d="M126.08,183.21h0l.67-5.64h-.06Z" style="fill:#b8daf4;stroke:#e7e6e6"/><path d="M126.05,183.2h.06l.67-5.64h-.06Z" style="fill:#bddef6;stroke:#e7e6e6"/><path d="M126,183.2h.06l.67-5.64h-.06Z" style="fill:#c2e3f9;stroke:#e7e6e6"/><path d="M126,183.2h.06l.67-5.65h-.06Z" style="fill:#c6e7fb;stroke:#e7e6e6"/><path d="M125.34,188.84h.06l.67-5.64H126Z" style="fill:#c6e7fb;stroke:#e7e6e6"/><path d="M126,183.2H126l.68-5.64h-.06Z" style="fill:#cce9fb;stroke:#e7e6e6"/><path d="M126,183.19H126l.67-5.64h0Z" style="fill:#d1ebf9;stroke:#e7e6e6"/><path d="M125.94,183.19H126l.67-5.64h0Z" style="fill:#d7edf7;stroke:#e7e6e6"/><path d="M125.92,183.19H126l.67-5.65h-.05Z" style="fill:#dceff6;stroke:#e7e6e6"/><path d="M125.24,188.83h.06l.68-5.64h-.06Z" style="fill:#dceff6;stroke:#e7e6e6"/><path d="M126.58,177.54h-.14l1.38-11.28h.12Z" style="fill:#b1d4f2;stroke:#e7e6e6"/><path d="M125.9,183.19l-.15,0,.69-5.64h.14Z" style="fill:#b1d4f2;stroke:#e7e6e6"/><path d="M126.37,177.52l-.14,0,1.42-11.27h.11Z" style="fill:#b8daf4;stroke:#e7e6e6"/><path d="M125.67,183.16h0l.69-5.64h0Z" style="fill:#b8daf4;stroke:#e7e6e6"/><path d="M125.63,183.15h0l.7-5.64h0Z" style="fill:#c2e3f9;stroke:#e7e6e6"/><path d="M125.58,183.15h0l.7-5.64h0Z" style="fill:#cce9fb;stroke:#e7e6e6"/><path d="M125.54,183.14h0l.71-5.64h0Z" style="fill:#d7edf7;stroke:#e7e6e6"/><path d="M125.49,183.14h0l.7-5.64h0Z" style="fill:#e2f2f7;stroke:#e7e6e6"/><path d="M124.78,188.77h.08l.71-5.63h-.08Z" style="fill:#e2f2f7;stroke:#e7e6e6"/><path d="M124.78,188.77h.08l.7-5.64h-.07Z" style="fill:#edf7fa;stroke:#e7e6e6"/><path d="M124.77,188.77h.08l.71-5.64h-.08Z" style="fill:#fbfdfe;stroke:#e7e6e6"/><path d="M124.77,188.77h.08l.7-5.64h-.07Z" style="fill:#fff;stroke:#e7e6e6"/><path d="M124.76,188.77h.08l.71-5.64h-.08Z" style="fill:#fff;stroke:#e7e6e6"/><path d="M124.76,188.77h.08l.7-5.64h-.07Z" style="fill:#fff;stroke:#e7e6e6"/><path d="M124.75,188.77h.08l.71-5.64h-.08Z" style="fill:#fff;stroke:#e7e6e6"/><path d="M124.74,188.77h.09l.7-5.64h-.07Z" style="fill:#fff;stroke:#e7e6e6"/><path d="M124.74,188.77h.08l.71-5.64h-.08Z" style="fill:#fff;stroke:#e7e6e6"/><path d="M126.16,177.49H126l1.45-11.28.11,0Z" style="fill:#bedff7;stroke:#e7e6e6"/><path d="M126,177.47l-.14,0,1.48-11.27.11,0Z" style="fill:#c3e4f9;stroke:#e7e6e6"/><path d="M125.22,183.1h0l.72-5.63h0Z" style="fill:#c3e4f9;stroke:#e7e6e6"/><path d="M125.16,183.09h0l.73-5.64h0Z" style="fill:#cfebf9;stroke:#e7e6e6"/><path d="M124.43,188.73h0l.73-5.63h0Z" style="fill:#cfebf9;stroke:#e7e6e6"/><path d="M123.7,194.36h0l.73-5.64h0Z" style="fill:#cfebf9;stroke:#e7e6e6"/><path d="M125.11,183.09h0l.74-5.63h0Z" style="fill:#def0f6;stroke:#e7e6e6"/><path d="M125.05,183.08h0l.73-5.63h0Z" style="fill:#e9f5f9;stroke:#e7e6e6"/><path d="M125.74,177.44l-.13,0,1.5-11.26h.12Z" style="fill:#c7e8fb;stroke:#e7e6e6"/><path d="M125,183.07h0l.75-5.64h0Z" style="fill:#c7e8fb;stroke:#e7e6e6"/><path d="M124.88,183.06h0l.76-5.63h0Z" style="fill:#e3f2f7;stroke:#e7e6e6"/><path d="M125.53,177.41l-.13,0,1.54-11.26.11,0Z" style="fill:#cceafa;stroke:#e7e6e6"/><path d="M124.77,183l-.14,0,.77-5.63.13,0Z" style="fill:#cceafa;stroke:#e7e6e6"/><path d="M125.32,177.38l-.13,0,1.57-11.25h.11Z" style="fill:#d2ecf8;stroke:#e7e6e6"/><path d="M124.55,183h0l.77-5.62h0Z" style="fill:#d2ecf8;stroke:#e7e6e6"/><path d="M124.49,183h0l.78-5.63h0Z" style="fill:#e0f1f7;stroke:#e7e6e6"/><path d="M124.43,183h0l.78-5.63h0Z" style="fill:#ebf6fa;stroke:#e7e6e6"/><path d="M124.38,183h0l.79-5.63h0Z" style="fill:#f6fbfd;stroke:#e7e6e6"/><path d="M126.69,166.1c-1.45-.21-2.91-.46-4.35-.77l3.53-16.67c1.06.22,2.12.41,3.2.56Z" style="fill:#5f83a3;stroke:#e7e6e6"/><path d="M125.11,177.35l-.3,0,1.63-11.25.25,0Z" style="fill:#5f83a3;stroke:#e7e6e6"/><path d="M124.74,177.3l-.3,0L126.12,166l.26,0Z" style="fill:#678cac;stroke:#e7e6e6"/><path d="M123.92,182.92h-.12l.83-5.63.11,0Z" style="fill:#678cac;stroke:#e7e6e6"/><path d="M123.72,182.89h-.12l.84-5.62h.11Z" style="fill:#81a5c5;stroke:#e7e6e6"/><path d="M124.37,177.24l-.3,0L125.81,166l.25,0Z" style="fill:#7094b4;stroke:#e7e6e6"/><path d="M124,177.19l-.29-.05,1.79-11.22.25,0Z" style="fill:#7a9ebe;stroke:#e7e6e6"/><path d="M123.62,177.13l-.3,0,1.85-11.21.26,0Z" style="fill:#83a6c6;stroke:#e7e6e6"/><path d="M123.25,177.07l-.3,0,1.91-11.21.25.05Z" style="fill:#8baecf;stroke:#e7e6e6"/><path d="M122.88,177l-.3-.06,2-11.19.26,0Z" style="fill:#94b9d9;stroke:#e7e6e6"/><path d="M122.51,176.94l-.3-.05,2-11.19.25.05Z" style="fill:#9dc1e1;stroke:#e7e6e6"/><path d="M122.14,176.87l-.3-.05,2.07-11.17.26,0Z" style="fill:#a7caea;stroke:#e7e6e6"/><path d="M121.12,182.46l-.32-.05,1-5.59.3.05Z" style="fill:#a7caea;stroke:#e7e6e6"/><path d="M121.77,176.81l-.3-.06,2.13-11.16.25,0Z" style="fill:#afd2f1;stroke:#e7e6e6"/><path d="M121.4,176.74l-.3-.06,2.18-11.15.26.05Z" style="fill:#bbdcf5;stroke:#e7e6e6"/><path d="M120.32,182.32l-.31-.07,1.09-5.57.3.06Z" style="fill:#bbdcf5;stroke:#e7e6e6"/><path d="M121,176.66l-.3,0L123,165.46l.25,0Z" style="fill:#c3e5fa;stroke:#e7e6e6"/><path d="M120.66,176.59l-.3-.06,2.3-11.13.25,0Z" style="fill:#cceafa;stroke:#e7e6e6"/><path d="M119.53,182.16l-.32-.07,1.15-5.56.3.06Z" style="fill:#cceafa;stroke:#e7e6e6"/><path d="M120.29,176.51l-.3-.06,2.35-11.12.25.06Z" style="fill:#d7edf7;stroke:#e7e6e6"/><path d="M122.28,165.32,120.7,165l4-16.58,1.15.26Z" style="fill:#1b405f;stroke:#e7e6e6"/><path d="M120.64,165l-1.57-.4,4.4-16.47c.38.11.77.2,1.15.29Z" style="fill:#1f4263;stroke:#e7e6e6"/><path d="M119,164.54l-1.55-.44,4.82-16.35,1.14.32Z" style="fill:#214666;stroke:#e7e6e6"/><path d="M117.39,164.08c-.51-.15-1-.31-1.54-.48l5.25-16.22,1.14.36Z" style="fill:#254969;stroke:#e7e6e6"/><path d="M115.79,163.58c-.51-.16-1-.34-1.53-.52L119.93,147l1.13.38Z" style="fill:#274c6c;stroke:#e7e6e6"/><path d="M112.28,174.39l-.87-.29,3.64-10.76.74.24Z" style="fill:#274c6c;stroke:#e7e6e6"/><path d="M111.34,174.08l-.87-.3,3.79-10.72.73.26Z" style="fill:#668aab;stroke:#e7e6e6"/><path d="M114.2,163c-.51-.18-1-.36-1.52-.56l6.09-15.92,1.12.41Z" style="fill:#2b4f6f;stroke:#e7e6e6"/><path d="M112.62,162.46l-1.5-.6,6.51-15.75,1.1.44Z" style="fill:#2e5373;stroke:#e7e6e6"/><path d="M111.06,161.84l-1.49-.64,6.92-15.58,1.09.47Z" style="fill:#325676;stroke:#e7e6e6"/><path d="M109.51,161.17l-1.46-.67,7.32-15.4,1.08.5Z" style="fill:#345979;stroke:#e7e6e6"/><path d="M108,160.47l-1.45-.71,7.72-15.2,1.07.52Z" style="fill:#385c7c;stroke:#e7e6e6"/><path d="M103.1,170.73l-.83-.4,5-10.2.7.34Z" style="fill:#385c7c;stroke:#e7e6e6"/><path d="M102.21,170.3l-.82-.41,5.15-10.13.69.34Z" style="fill:#779bba;stroke:#e7e6e6"/><path d="M106.48,159.73c-.48-.25-1-.5-1.43-.76l8.12-15,1,.55Z" style="fill:#3b5f7f;stroke:#e7e6e6"/><path d="M105,158.94c-.47-.25-.94-.52-1.41-.79l8.51-14.77c.34.2.69.39,1,.58Z" style="fill:#3e6383;stroke:#e7e6e6"/><path d="M103.53,158.12l-1.39-.82L111,142.75l1,.61Z" style="fill:#436686;stroke:#e7e6e6"/><path d="M102.08,157.26l-1.37-.86L110,142.09l1,.64Z" style="fill:#456989;stroke:#e7e6e6"/><path d="M96.14,167l-1.61-1,6.18-9.54,1.37.86Z" style="fill:#456989;stroke:#e7e6e6"/><path d="M100.66,156.37l-1.35-.9L109,141.41l1,.66Z" style="fill:#486c8b;stroke:#e7e6e6"/><path d="M99.26,155.43l-1.32-.93,10-13.8c.32.23.64.46,1,.68Z" style="fill:#4b6f8e;stroke:#e7e6e6"/><path d="M97.89,154.46q-1.78-1.29-3.48-2.72l10.94-13.07c.83.7,1.68,1.36,2.56,2Z" style="fill:#172742;stroke:#e7e6e6"/><path d="M94.36,151.7c-1.13-.94-2.23-1.93-3.29-2.95l11.83-12.28c.78.75,1.59,1.48,2.41,2.17Z" style="fill:#152f4c;stroke:#e7e6e6"/><path d="M91,148.7c-1.06-1-2.09-2.08-3.07-3.17l12.65-11.42c.73.8,1.48,1.58,2.26,2.33Z" style="fill:#133756;stroke:#e7e6e6"/><path d="M87.91,145.48q-1.47-1.64-2.84-3.38L98.5,131.59c.66.85,1.36,1.68,2.08,2.48Z" style="fill:#1a3f5f;stroke:#e7e6e6"/><path d="M85,142.05c-.9-1.16-1.77-2.36-2.6-3.58l14.13-9.54c.6.89,1.24,1.77,1.91,2.62Z" style="fill:#244767;stroke:#e7e6e6"/><path d="M82.4,138.42c-.82-1.22-1.61-2.47-2.34-3.74l14.75-8.54c.54.93,1.12,1.85,1.72,2.75Z" style="fill:#2c5070;stroke:#e7e6e6"/><path d="M73,144.78c-.32-.47-.62-.94-.93-1.41l9.56-6.14c.26.4.52.8.79,1.19Z" style="fill:#2c5070;stroke:#e7e6e6"/><path d="M72,143.31c-.3-.48-.6-.95-.89-1.43l9.7-5.92c.25.41.5.81.76,1.21Z" style="fill:#567a9b;stroke:#e7e6e6"/><path d="M71.08,141.82l-.86-1.45,9.84-5.69c.23.41.48.82.73,1.23Z" style="fill:#81a5c5;stroke:#e7e6e6"/><path d="M80,134.62a65,65,0,0,1-5.44-12.2l16.21-5.29a47.39,47.39,0,0,0,4,9Z" style="fill:#1aa393;stroke:#e7e6e6"/><path d="M70.18,140.3c-.36-.63-.72-1.26-1.06-1.91l10-5.39q.43.81.9,1.62Z" style="fill:#1aa393;stroke:#e7e6e6"/><path d="M69.08,138.33c-.34-.64-.68-1.29-1-1.94l10.16-5.1c.28.56.57,1.11.86,1.65Z" style="fill:#33b4a4;stroke:#e7e6e6"/><path d="M68,136.32c-.33-.65-.64-1.31-1-2l10.31-4.79c.26.57.53,1.12.8,1.68Z" style="fill:#51bbb1;stroke:#e7e6e6"/><path d="M67.06,134.28c-.31-.66-.6-1.32-.89-2l10.44-4.48c.25.57.5,1.13.76,1.7Z" style="fill:#6ac2bd;stroke:#e7e6e6"/><path d="M66.14,132.22c-.29-.67-.56-1.35-.83-2L75.88,126c.23.58.47,1.15.71,1.72Z" style="fill:#7fc9c8;stroke:#e7e6e6"/><path d="M65.28,130.13c-.26-.68-.52-1.36-.77-2l10.7-3.84c.21.58.42,1.16.65,1.73Z" style="fill:#92d0d4;stroke:#e7e6e6"/><path d="M60,132.2c-.28-.73-.56-1.46-.82-2.2l5.34-1.92c.25.69.51,1.37.77,2Z" style="fill:#92d0d4;stroke:#e7e6e6"/><path d="M64.49,128c-.25-.69-.48-1.38-.71-2.07l10.8-3.52c.2.59.4,1.17.61,1.76Z" style="fill:#9ed6e4;stroke:#e7e6e6"/><path d="M74.56,122.36a64.2,64.2,0,0,1-2.78-13.07l17-1.8a47.06,47.06,0,0,0,2,9.6Z" style="fill:#29ae9e;stroke:#e7e6e6"/><path d="M63.76,125.87q-.6-1.84-1.11-3.72l11-3c.28,1.06.59,2.11.93,3.16Z" style="fill:#29ae9e;stroke:#e7e6e6"/><path d="M62.63,122.08c-.33-1.25-.64-2.51-.91-3.78l11.12-2.37c.23,1.07.49,2.14.77,3.2Z" style="fill:#58bdb4;stroke:#e7e6e6"/><path d="M61.71,118.23c-.27-1.27-.51-2.54-.71-3.82l11.22-1.79c.18,1.09.38,2.17.6,3.25Z" style="fill:#80c9c9;stroke:#e7e6e6"/><path d="M61,114.34c-.2-1.28-.37-2.56-.51-3.85l11.3-1.2c.12,1.09.26,2.18.43,3.27Z" style="fill:#9bd5e1;stroke:#e7e6e6"/><path d="M71.77,109.23a64.15,64.15,0,0,1,0-13.36l17,1.76a46.72,46.72,0,0,0,0,9.82Z" style="fill:#35b5a6;stroke:#e7e6e6"/><path d="M60.47,110.42c-.06-.56-.11-1.12-.16-1.68l11.33-.94c0,.48.08,1,.13,1.43Z" style="fill:#35b5a6;stroke:#e7e6e6"/><path d="M54.82,111c-.06-.6-.12-1.2-.17-1.8l5.66-.47c0,.56.1,1.12.16,1.68Z" style="fill:#35b5a6;stroke:#e7e6e6"/><path d="M60.31,108.66c-.05-.55-.09-1.11-.12-1.67l11.34-.68c0,.48.07,1,.1,1.43Z" style="fill:#50baaf;stroke:#e7e6e6"/><path d="M60.19,106.91c0-.56-.06-1.12-.08-1.68l11.35-.41c0,.48,0,1,.07,1.43Z" style="fill:#61bfb9;stroke:#e7e6e6"/><path d="M60.1,105.15c0-.56,0-1.12,0-1.68l11.37-.14c0,.47,0,1,0,1.43Z" style="fill:#74c5c2;stroke:#e7e6e6"/><path d="M60.06,103.4v-1.69l11.37.12c0,.48,0,1,0,1.43Z" style="fill:#82caca;stroke:#e7e6e6"/><path d="M60.06,101.64c0-.56,0-1.13,0-1.69l11.36.39c0,.48,0,1,0,1.43Z" style="fill:#91d0d4;stroke:#e7e6e6"/><path d="M60.1,99.88c0-.56,0-1.12.08-1.68l11.35.65c0,.47,0,1-.07,1.43Z" style="fill:#9bd5e1;stroke:#e7e6e6"/><path d="M60.19,98.12c0-.56.07-1.12.11-1.68l11.33.92c0,.47-.07,1-.1,1.42Z" style="fill:#a5d9e5;stroke:#e7e6e6"/><path d="M54.51,97.79c0-.6.08-1.2.13-1.8l5.66.45c0,.56-.08,1.12-.11,1.68Z" style="fill:#a5d9e5;stroke:#e7e6e6"/><path d="M60.31,96.37c0-.56.1-1.12.15-1.68l11.31,1.18c0,.47-.1.95-.14,1.42Z" style="fill:#aedce7;stroke:#e7e6e6"/><path d="M71.77,95.8a64.62,64.62,0,0,1,2.77-13.06L90.76,88a46.88,46.88,0,0,0-2,9.6Z" style="fill:#48b9ae;stroke:#e7e6e6"/><path d="M60.47,94.62c.06-.56.12-1.12.2-1.68l11.27,1.44c-.06.48-.12,1-.17,1.42Z" style="fill:#48b9ae;stroke:#e7e6e6"/><path d="M54.82,94c.06-.6.13-1.2.21-1.79l5.64.71c-.08.56-.14,1.12-.2,1.68Z" style="fill:#48b9ae;stroke:#e7e6e6"/><path d="M60.68,92.87c.07-.56.14-1.11.23-1.67l11.24,1.7c-.08.48-.14.95-.2,1.42Z" style="fill:#5dbeb6;stroke:#e7e6e6"/><path d="M60.92,91.13c.08-.56.18-1.11.27-1.66l11.2,2c-.09.47-.16.94-.24,1.41Z" style="fill:#6fc3c0;stroke:#e7e6e6"/><path d="M55.3,90.27c.09-.59.19-1.19.3-1.78l5.59,1c-.09.55-.19,1.1-.27,1.66Z" style="fill:#6fc3c0;stroke:#e7e6e6"/><path d="M61.21,89.39c.09-.55.2-1.1.31-1.65L72.66,90c-.09.47-.18.94-.26,1.41Z" style="fill:#7fc9c8;stroke:#e7e6e6"/><path d="M55.61,88.41c.1-.6.22-1.19.33-1.78l5.58,1.11c-.11.55-.22,1.1-.31,1.65Z" style="fill:#7fc9c8;stroke:#e7e6e6"/><path d="M61.53,87.66c.11-.55.23-1.09.35-1.64L73,88.5l-.3,1.4Z" style="fill:#8cced1;stroke:#e7e6e6"/><path d="M56,86.55c.12-.59.24-1.18.38-1.77L61.88,86c-.12.55-.24,1.09-.35,1.64Z" style="fill:#8cced1;stroke:#e7e6e6"/><path d="M61.9,85.94c.12-.54.25-1.09.38-1.63l11,2.73L73,88.44Z" style="fill:#98d3dc;stroke:#e7e6e6"/><path d="M62.3,84.23c.14-.54.28-1.08.43-1.63l11,3q-.19.69-.36,1.38Z" style="fill:#a3d8e5;stroke:#e7e6e6"/><path d="M56.79,82.86,57,82l5.5,1.43c-.07.26-.13.52-.2.78Z" style="fill:#a3d8e5;stroke:#e7e6e6"/><path d="M57,81.94l.23-.83,5.48,1.49-.21.78Z" style="fill:#b2dee9;stroke:#e7e6e6"/><path d="M62.75,82.53c.15-.54.3-1.08.46-1.62L74.1,84.16q-.21.69-.39,1.38Z" style="fill:#abdbe6;stroke:#e7e6e6"/><path d="M63.23,80.84c.16-.54.33-1.07.5-1.61l10.81,3.51-.42,1.36Z" style="fill:#b6dfe9;stroke:#e7e6e6"/><path d="M57.79,79.21c.05-.17.1-.35.16-.52l5.43,1.66-.15.49Z" style="fill:#b6dfe9;stroke:#e7e6e6"/><path d="M58,78.61l.17-.53,5.41,1.71-.15.49Z" style="fill:#c3e4ed;stroke:#e7e6e6"/><path d="M58.16,78c.05-.18.11-.35.17-.53l5.4,1.75-.15.49Z" style="fill:#d1eaf1;stroke:#e7e6e6"/><path d="M74.56,82.67A64.3,64.3,0,0,1,80,70.47L94.76,79a47.23,47.23,0,0,0-4,9Z" style="fill:#58bdb3;stroke:#e7e6e6"/><path d="M63.76,79.16c.26-.81.54-1.62.83-2.42l10.68,3.88c-.25.68-.48,1.36-.71,2Z" style="fill:#58bdb3;stroke:#e7e6e6"/><path d="M64.61,76.67c.3-.8.6-1.6.92-2.39l10.54,4.24c-.27.68-.53,1.35-.78,2Z" style="fill:#73c5c1;stroke:#e7e6e6"/><path d="M65.56,74.21c.32-.8.65-1.58,1-2.36L77,76.46c-.3.66-.58,1.33-.85,2Z" style="fill:#88cdce;stroke:#e7e6e6"/><path d="M66.59,71.78c.35-.78.71-1.56,1.08-2.32l10.22,5c-.32.65-.62,1.31-.92,2Z" style="fill:#9ad4df;stroke:#e7e6e6"/><path d="M67.71,69.39c.37-.77.76-1.53,1.16-2.29l10,5.33c-.34.64-.67,1.29-1,1.94Z" style="fill:#a9dae6;stroke:#e7e6e6"/><path d="M62.6,66.9c.4-.83.82-1.65,1.25-2.46l5,2.66c-.4.76-.79,1.52-1.16,2.29Z" style="fill:#a9dae6;stroke:#e7e6e6"/><path d="M68.9,67c.4-.76.82-1.5,1.24-2.24L80,70.47c-.36.63-.71,1.26-1,1.9Z" style="fill:#b8e0ea;stroke:#e7e6e6"/><path d="M80,70.41a64.29,64.29,0,0,1,4.63-6.93L98.19,73.84a46.6,46.6,0,0,0-3.4,5.1Z" style="fill:#026555;stroke:#e7e6e6"/><path d="M70.18,64.73c.54-.93,1.1-1.85,1.67-2.76l9.59,6.1c-.49.77-1,1.55-1.42,2.34Z" style="fill:#026555;stroke:#e7e6e6"/><path d="M71.89,61.91c.58-.9,1.18-1.8,1.79-2.68L83,65.74c-.53.75-1,1.51-1.52,2.28Z" style="fill:#2d8f7f;stroke:#e7e6e6"/><path d="M67.1,58.86l.2-.31,4.77,3.08-.18.28Z" style="fill:#2d8f7f;stroke:#e7e6e6"/><path d="M67.34,58.48l.2-.3,4.76,3.1-.18.28Z" style="fill:#329484;stroke:#e7e6e6"/><path d="M62.56,55.41l.09-.13,4.77,3.09-.08.11Z" style="fill:#329484;stroke:#e7e6e6"/><path d="M62.69,55.21l.08-.13,4.77,3.1-.08.12Z" style="fill:#7bc6bd;stroke:#e7e6e6"/><path d="M67.58,58.11l.2-.3,4.74,3.13-.18.28Z" style="fill:#389a8a;stroke:#e7e6e6"/><path d="M67.82,57.74l.2-.3,4.73,3.15-.18.28Z" style="fill:#40a191;stroke:#e7e6e6"/><path d="M68.07,57.37l.2-.3L73,60.25c-.06.09-.12.19-.19.28Z" style="fill:#45a798;stroke:#e7e6e6"/><path d="M68.32,57l.2-.3,4.69,3.2c-.06.09-.12.19-.19.28Z" style="fill:#4bae9d;stroke:#e7e6e6"/><path d="M68.57,56.64l.2-.3,4.68,3.23a2.75,2.75,0,0,0-.19.28Z" style="fill:#51b5a5;stroke:#e7e6e6"/><path d="M68.82,56.27,69,56l4.66,3.25-.19.28Z" style="fill:#57baaa;stroke:#e7e6e6"/><path d="M73.72,59.17c.62-.88,1.26-1.75,1.91-2.6l9,6.91c-.55.72-1.09,1.46-1.62,2.21Z" style="fill:#56b9a9;stroke:#e7e6e6"/><path d="M84.69,63.43a64.16,64.16,0,0,1,5.49-6.27l12.07,12a49.18,49.18,0,0,0-4,4.61Z" style="fill:#0b6b5b;stroke:#e7e6e6"/><path d="M75.67,56.51c.49-.63,1-1.26,1.49-1.88l8.8,7.2c-.43.53-.86,1.06-1.27,1.6Z" style="fill:#0b6b5b;stroke:#e7e6e6"/><path d="M77.21,54.57l1.55-1.83,8.55,7.49c-.44.51-.88,1-1.31,1.55Z" style="fill:#268a7a;stroke:#e7e6e6"/><path d="M78.81,52.69c.53-.6,1.06-1.2,1.61-1.78l8.3,7.76c-.46.5-.92,1-1.36,1.51Z" style="fill:#45a99a;stroke:#e7e6e6"/><path d="M80.47,50.86c.55-.59,1.1-1.16,1.67-1.73l8,8c-.48.48-1,1-1.41,1.46Z" style="fill:#6dc2b5;stroke:#e7e6e6"/><path d="M90.23,57.11a64,64,0,0,1,6.26-5.49l10.39,13.51a46.33,46.33,0,0,0-4.6,4Z" style="fill:#107161;stroke:#e7e6e6"/><path d="M82.19,49.08c.57-.57,1.14-1.12,1.72-1.67l7.78,8.29c-.49.46-1,.93-1.46,1.41Z" style="fill:#107161;stroke:#e7e6e6"/><path d="M84,47.36c.58-.55,1.17-1.09,1.77-1.61l7.51,8.53c-.51.45-1,.91-1.51,1.37Z" style="fill:#2c8f7f;stroke:#e7e6e6"/><path d="M85.8,45.7c.6-.53,1.21-1.05,1.83-1.55l7.22,8.77c-.53.43-1,.87-1.56,1.32Z" style="fill:#4db0a0;stroke:#e7e6e6"/><path d="M82.06,41.43c.64-.57,1.3-1.13,2-1.67l3.61,4.39c-.62.5-1.23,1-1.83,1.55Z" style="fill:#4db0a0;stroke:#e7e6e6"/><path d="M87.69,44.1c.62-.51,1.24-1,1.87-1.49l6.93,9q-.81.62-1.59,1.26Z" style="fill:#75c5b9;stroke:#e7e6e6"/><path d="M84.08,39.71l.2-.16L87.87,44l-.18.15Z" style="fill:#75c5b9;stroke:#e7e6e6"/><path d="M84.34,39.49l.19-.15,3.58,4.41-.18.15Z" style="fill:#7cc7be;stroke:#e7e6e6"/><path d="M80.75,35.09l.07-.06,3.59,4.41-.07.05Z" style="fill:#7cc7be;stroke:#e7e6e6"/><path d="M80.89,35l.07-.06,3.57,4.42-.06,0Z" style="fill:#bae1eb;stroke:#e7e6e6"/><path d="M84.6,39.29l.19-.16,3.56,4.43-.18.15Z" style="fill:#83cac2;stroke:#e7e6e6"/><path d="M84.86,39.08l.19-.16,3.54,4.45-.18.14Z" style="fill:#8ccdc6;stroke:#e7e6e6"/><path d="M85.12,38.87l.19-.16,3.52,4.47-.18.14Z" style="fill:#92cfca;stroke:#e7e6e6"/><path d="M85.38,38.66l.2-.15L89.08,43a1.33,1.33,0,0,0-.19.14Z" style="fill:#99d2cf;stroke:#e7e6e6"/><path d="M85.64,38.46l.2-.16,3.48,4.5-.18.14Z" style="fill:#a0d5d3;stroke:#e7e6e6"/><path d="M85.9,38.26l.2-.16,3.46,4.51-.18.14Z" style="fill:#a6d8d8;stroke:#e7e6e6"/><path d="M96.54,51.58a64.37,64.37,0,0,1,6.93-4.64L112,61.7a47,47,0,0,0-5.09,3.4Z" style="fill:#177868;stroke:#e7e6e6"/><path d="M89.62,42.56q.76-.59,1.53-1.14l6.69,9.19-1.3,1Z" style="fill:#177868;stroke:#e7e6e6"/><path d="M91.21,41.38c.51-.38,1-.74,1.55-1.1l6.45,9.36q-.66.45-1.32.93Z" style="fill:#2e9080;stroke:#e7e6e6"/><path d="M92.83,40.23c.52-.35,1-.71,1.58-1l6.2,9.52-1.35.9Z" style="fill:#47aa9b;stroke:#e7e6e6"/><path d="M94.47,39.14c.53-.35,1.07-.69,1.61-1l6,9.68c-.46.29-.92.57-1.37.87Z" style="fill:#65bfb1;stroke:#e7e6e6"/><path d="M96.14,38.08c.54-.33,1.09-.66,1.64-1l5.69,9.83c-.47.27-.93.55-1.39.83Z" style="fill:#86cac3;stroke:#e7e6e6"/><path d="M103.53,46.91A64,64,0,0,1,111,43.22L117.54,59a48.22,48.22,0,0,0-5.49,2.71Z" style="fill:#1a7e6e;stroke:#e7e6e6"/><path d="M97.84,37.07l1.37-.77,5.48,10-1.16.66Z" style="fill:#1a7e6e;stroke:#e7e6e6"/><path d="M99.28,36.26c.46-.25.92-.5,1.39-.74l5.25,10.07-1.17.63Z" style="fill:#2f9282;stroke:#e7e6e6"/><path d="M100.73,35.48l1.41-.71,5,10.19-1.19.6Z" style="fill:#45a798;stroke:#e7e6e6"/><path d="M102.21,34.74l1.41-.68,4.82,10.29-1.21.58Z" style="fill:#5abcac;stroke:#e7e6e6"/><path d="M103.69,34l1.43-.65,4.59,10.4-1.22.55Z" style="fill:#78c6bc;stroke:#e7e6e6"/><path d="M105.19,33.34l1.45-.62L111,43.22l-1.23.53Z" style="fill:#91cfca;stroke:#e7e6e6"/><path d="M111.06,43.2A62.67,62.67,0,0,1,119,40.51L123.38,57a47.7,47.7,0,0,0-5.8,2Z" style="fill:#218474;stroke:#e7e6e6"/><path d="M106.71,32.7q2.25-.95,4.56-1.72l3.66,10.76c-1.31.44-2.6.93-3.87,1.46Z" style="fill:#218474;stroke:#e7e6e6"/><path d="M111.34,31q2.31-.78,4.66-1.41l3,11c-1.33.36-2.65.76-4,1.21Z" style="fill:#63bfb1;stroke:#e7e6e6"/><path d="M119,40.5a63.3,63.3,0,0,1,8.18-1.63l2.24,16.89a47.34,47.34,0,0,0-6,1.2Z" style="fill:#288b7b;stroke:#e7e6e6"/><path d="M116.07,29.52l1.3-.34,2.74,11-1.1.29Z" style="fill:#288b7b;stroke:#e7e6e6"/><path d="M117.44,29.17c.43-.11.87-.22,1.3-.31l2.54,11.07-1.11.27Z" style="fill:#3a9c8c;stroke:#e7e6e6"/><path d="M118.81,28.84l1.31-.29,2.33,11.12-1.11.25Z" style="fill:#4caf9f;stroke:#e7e6e6"/><path d="M120.19,28.54l1.32-.27,2.12,11.17-1.11.22Z" style="fill:#62beaf;stroke:#e7e6e6"/><path d="M121.58,28.26,122.9,28l1.91,11.21-1.12.2Z" style="fill:#78c6bc;stroke:#e7e6e6"/><path d="M123,28l1.32-.21L126,39l-1.13.18Z" style="fill:#8fcec8;stroke:#e7e6e6"/><path d="M124.37,27.79l1.32-.19,1.5,11.27-1.13.15Z" style="fill:#a1d5d4;stroke:#e7e6e6"/><path d="M123.52,22.17l.11,0,.84,5.62-.1,0Z" style="fill:#a1d5d4;stroke:#e7e6e6"/><path d="M123.71,22.14l.1,0,.83,5.63h-.1Z" style="fill:#a8d8d8;stroke:#e7e6e6"/><path d="M122.87,16.52h0l.83,5.62h0Z" style="fill:#a8d8d8;stroke:#e7e6e6"/><path d="M123,16.51h0l.82,5.62h0Z" style="fill:#dceff5;stroke:#e7e6e6"/><path d="M123.9,22.11h.1l.82,5.62-.1,0Z" style="fill:#addbde;stroke:#e7e6e6"/><path d="M124.08,22.09l.11,0,.8,5.63h-.1Z" style="fill:#b3dee4;stroke:#e7e6e6"/><path d="M124.27,22.06l.11,0,.79,5.63-.1,0Z" style="fill:#b7e0ea;stroke:#e7e6e6"/><path d="M124.46,22h.11l.77,5.63h-.1Z" style="fill:#bce2eb;stroke:#e7e6e6"/><path d="M124.65,22l.11,0,.76,5.63-.1,0Z" style="fill:#c1e4ed;stroke:#e7e6e6"/><path d="M124.84,22h.1l.75,5.63h-.1Z" style="fill:#c5e6ee;stroke:#e7e6e6"/><path d="M127.25,38.86a62.51,62.51,0,0,1,8.32-.55v17a48.11,48.11,0,0,0-6.11.41Z" style="fill:#2e9080;stroke:#e7e6e6"/><path d="M125.77,27.59l1-.13,1.33,11.29-.86.11Z" style="fill:#2e9080;stroke:#e7e6e6"/><path d="M126.86,27.45l1-.11L129,38.65l-.86.09Z" style="fill:#3b9e8e;stroke:#e7e6e6"/><path d="M126.2,21.81l1.09-.12.58,5.65-1,.11Z" style="fill:#3b9e8e;stroke:#e7e6e6"/><path d="M128,27.33l1-.09,1,11.32-.87.08Z" style="fill:#4aad9c;stroke:#e7e6e6"/><path d="M129,27.23l1-.08.84,11.33-.87.07Z" style="fill:#57baaa;stroke:#e7e6e6"/><path d="M130.14,27.14l1-.06.67,11.34-.87.06Z" style="fill:#6cc1b5;stroke:#e7e6e6"/><path d="M131.24,27.07l1-.05.51,11.35-.87.05Z" style="fill:#7dc7bf;stroke:#e7e6e6"/><path d="M132.33,27l1,0,.34,11.36-.87,0Z" style="fill:#8fcec8;stroke:#e7e6e6"/><path d="M133.43,27l1,0,.17,11.37h-.87Z" style="fill:#9ed4d2;stroke:#e7e6e6"/><path d="M133.27,21.3h.06l.16,5.68h-.06Z" style="fill:#9ed4d2;stroke:#e7e6e6"/><path d="M133.41,21.29h.07l.15,5.68h-.06Z" style="fill:#a5d7d6;stroke:#e7e6e6"/><path d="M133.26,15.61h0l.16,5.68h0Z" style="fill:#a5d7d6;stroke:#e7e6e6"/><path d="M133.34,15.61h0l.15,5.68h0Z" style="fill:#d9eef3;stroke:#e7e6e6"/><path d="M133.56,21.29h.07l.14,5.68h-.06Z" style="fill:#aad9d9;stroke:#e7e6e6"/><path d="M133.71,21.28h.07l.13,5.68h-.07Z" style="fill:#afdce1;stroke:#e7e6e6"/><path d="M133.86,21.28h.06L134,27H134Z" style="fill:#b4dee7;stroke:#e7e6e6"/><path d="M134,21.28h.06l.11,5.68h-.06Z" style="fill:#b9e0ea;stroke:#e7e6e6"/><path d="M134.15,21.27h.07l.1,5.68h-.06Z" style="fill:#bee2ec;stroke:#e7e6e6"/><path d="M134.3,21.27h.07l.09,5.68h-.07Z" style="fill:#c3e4ed;stroke:#e7e6e6"/><path d="M134.53,27h1l0,11.37h-.87Z" style="fill:#abdadb;stroke:#e7e6e6"/></g><path id="path5029-4" d="M139.68,100.14l-4,2.33,4.32-1.79A4.58,4.58,0,0,0,139.68,100.14Z" style="fill:#39a8e0"/><path id="path5021-4" d="M140.16,101.27l-4.52,1.21,4.64-.62A2.94,2.94,0,0,0,140.16,101.27Z" style="fill:#39a8e0"/><path id="path5009-6" d="M135.57,102.5l-4.63.61a4.21,4.21,0,0,0,.11.6Z" style="fill:#39a8e0"/><path id="path5005-0" d="M135.57,102.5l-4.32,1.8a3.94,3.94,0,0,0,.26.55l4.06-2.35Z" style="fill:#39a8e0"/><path id="path5094" d="M140.31,102.49h-4.67l4.64.6A3,3,0,0,0,140.31,102.49Z" style="fill:#39a8e0"/><path id="path5096" d="M140.16,103.71l-4.52-1.21,4.33,1.78A4.23,4.23,0,0,0,140.16,103.71Z" style="fill:#39a8e0"/><path id="path5098" d="M135.57,102.47l-4.32-1.78c-.08.19-.14.38-.2.57Z" style="fill:#39a8e0"/><path id="path5100" d="M135.57,102.48l-4.64-.6a4,4,0,0,0-.05.6Z" style="fill:#39a8e0"/><path id="path5102" d="M139.68,104.85l-4-2.34,3.71,2.85Q139.53,105.1,139.68,104.85Z" style="fill:#39a8e0"/><path id="path5104" d="M138.94,105.83l-3.31-3.31,2.86,3.71A4.28,4.28,0,0,0,138.94,105.83Z" style="fill:#39a8e0"/><path id="path5106" d="M135.58,102.47l-2.85-3.71-.46.4Z" style="fill:#39a8e0"/><path id="path5108" d="M135.57,102.47l-3.71-2.84a4,4,0,0,0-.34.5Z" style="fill:#39a8e0"/><path id="path5110" d="M138,106.57l-2.33-4,1.79,4.32A3.45,3.45,0,0,0,138,106.57Z" style="fill:#39a8e0"/><path id="path5112" d="M136.83,107.05l-1.21-4.52.61,4.65A4,4,0,0,0,136.83,107.05Z" style="fill:#39a8e0"/><path id="path5114" d="M135.6,102.46,135,97.83a3.75,3.75,0,0,0-.6.11Z" style="fill:#39a8e0"/><path id="path5116" d="M135.59,102.46l-1.8-4.32a3.82,3.82,0,0,0-.54.26l2.34,4.06Z" style="fill:#39a8e0"/><path id="path5118" d="M135.61,107.21v-4.67l-.61,4.64A6.08,6.08,0,0,0,135.61,107.21Z" style="fill:#39a8e0"/><path id="path5120" d="M134.38,107.06l1.22-4.52-1.79,4.33A4.23,4.23,0,0,0,134.38,107.06Z" style="fill:#39a8e0"/><path id="path5122" d="M135.62,102.47l1.78-4.32a4.3,4.3,0,0,0-.57-.2Z" style="fill:#39a8e0"/><path id="path5124" d="M135.61,102.46l.61-4.64c-.21,0-.41,0-.61,0v4.68Z" style="fill:#39a8e0"/><path id="path5126" d="M133.25,106.58l2.34-4-2.84,3.71A5.39,5.39,0,0,0,133.25,106.58Z" style="fill:#39a8e0"/><path id="path5128" d="M132.27,105.84l3.31-3.31-3.71,2.86a4.28,4.28,0,0,0,.4.45Z" style="fill:#39a8e0"/><path id="path5130" d="M135.64,102.48l3.7-2.85a4.28,4.28,0,0,0-.4-.45l-3.3,3.3Z" style="fill:#39a8e0"/><path id="path5132" d="M135.63,102.47l2.85-3.71a4.11,4.11,0,0,0-.51-.34l-2.34,4Z" style="fill:#39a8e0"/><circle cx="41.25" cy="74.27" r="14.22" transform="translate(-37.33 106.58) rotate(-83.3)" style="fill:none;stroke:#fff;stroke-miterlimit:10"/><path d="M41.17,81.26a10.79,10.79,0,0,1,2.49-.67,8.77,8.77,0,0,1,3,0c.16,0,.16,0,.16-.13,0-1.68,0-3.37,0-5.05a.25.25,0,0,1,.16-.27s0,0,0,.07v5.45c0,.14,0,.17-.17.14a9.26,9.26,0,0,0-4.84.31l0,0-.37.12a2.13,2.13,0,0,1,.44-.12,12.62,12.62,0,0,1,1.6-.33,11.49,11.49,0,0,1,3.26,0l.36.06V75.09a.27.27,0,0,1,.1-.22,9.88,9.88,0,0,0,.84-.87s0,.07,0,.09V82c0,.16,0,.19-.18.14a12.32,12.32,0,0,0-2.55-.47,14.58,14.58,0,0,0-2.29,0,16.13,16.13,0,0,0-3.16.5.41.41,0,0,1-.22,0,15.88,15.88,0,0,0-5.18-.49,12.27,12.27,0,0,0-2.82.5c-.13,0-.16,0-.16-.15v-9.7a.2.2,0,0,1,.17-.23l1.35-.39c.09,0,.13-.06.11-.15s0-.17.14-.2a6.87,6.87,0,0,1,4.52.06,7.94,7.94,0,0,1,1.89.94.12.12,0,0,0,.16,0,8.07,8.07,0,0,1,3.22-1.26,6,6,0,0,1,1.7-.06s.11,0,.1,0,0,.14-.14.13l-.45,0A7.79,7.79,0,0,0,40,72.5a.17.17,0,0,0-.09.16c0,2.51,0,5,0,7.52,0,.48,0,1,0,1.45v.14a2.58,2.58,0,0,1,.31-.22,8.45,8.45,0,0,1,3.65-1.4,7.1,7.1,0,0,1,2.3.07c.11,0,.11,0,.11-.1V75.73c0-.12,0-.19.15-.21s0,.07,0,.11v4.64c0,.17,0,.18-.18.15a7.51,7.51,0,0,0-5,.73l-.15.09c0,.05-.1.05-.12.07s0,0,0,0h0Z" style="fill:#fff"/><path d="M44,74.37l.45.4a1.32,1.32,0,0,0,0-.29,5.69,5.69,0,0,1,.59-3,6.73,6.73,0,0,1,.59-1c.06-.09.1-.12.18,0s.45.45.68.67c0,0,.06.08.12.08L46.49,71a3.78,3.78,0,0,1-.29-1.88,2.35,2.35,0,0,1,.29-.93,1.18,1.18,0,0,1,.39-.44A4.39,4.39,0,0,1,48.57,67c.88-.19,1.75-.41,2.62-.63.17,0,.16,0,.17.12s0,.52,0,.78a5,5,0,0,1,0,.67.76.76,0,0,1-.19.38,3.49,3.49,0,0,1-.81.62l-.5.3a5.82,5.82,0,0,0,.73-.07l.1,0c.25,0,.25,0,.19.22s-.14.46-.22.69a3.08,3.08,0,0,1-.87,1.21c-.79.7-1.64,1.32-2.49,1.94l-.06,0s-.06,0,0,.08.05,0,.07,0l.93.05h.12l-.27.31a10,10,0,0,1-1.4,1.36,2.59,2.59,0,0,1-1.26.57,1.83,1.83,0,0,1-.66-.06c-.09,0,0-.07,0-.1.33-.59.67-1.17,1-1.76A27.15,27.15,0,0,1,49,69.1a1.77,1.77,0,0,0,.34-.54l-.26.23a18.2,18.2,0,0,0-3.43,4.33c-.43.7-.84,1.42-1.25,2.13-.06.1-.09.09-.16,0A.59.59,0,0,1,44,75,1.78,1.78,0,0,1,44,74.37Z" style="fill:#c6c6c6"/><path d="M48.31,69.69c-.37.48-.74,1-1.1,1.44a26.29,26.29,0,0,0-1.72,2.78c-.64,1.17-1.32,2.33-1.92,3.52A11.71,11.71,0,0,0,43,78.8a.18.18,0,0,1-.13.11,1.33,1.33,0,0,0-.5.26l-.12.09s0-.06,0-.09C43.48,77,44.7,74.87,46,72.75a22.49,22.49,0,0,1,2.29-3l0,0S48.31,69.67,48.31,69.69Z" style="fill:#c6c6c6"/><path d="M48.15,72.9l0,0c0,.34.1.3-.4.26Z" style="fill:#c6c6c6"/><path d="M42,81.19l-.46.14a1.61,1.61,0,0,1,.43-.17Z" style="fill:#c5c4c2"/><path d="M41.17,81.26l-.21.1a.35.35,0,0,1,.19-.12Z" style="fill:#a0a09e"/><path d="M48.3,69.67l.12-.15,0,0-.13.15Z" style="fill:#1e1e1c"/><path d="M48.46,69.5c0-.07.06-.1.12-.16A.29.29,0,0,1,48.46,69.5Z" style="fill:#7f807f"/><path d="M39.79,81.75l-.41-.3a7.73,7.73,0,0,0-5.85-1.23c-.11,0-.12,0-.12-.09q0-4.26,0-8.5c0-.1.05-.12.12-.15a6.63,6.63,0,0,1,4.2.07,7.87,7.87,0,0,1,2,.94.18.18,0,0,1,.1.17v9.09Z" style="fill:#39a8e0"/><line x1="130.14" y1="100.12" x2="94.9" y2="80.97" style="fill:none;stroke:#39a8e0;stroke-miterlimit:10"/></svg>