<svg id="Layer_1" data-name="Layer 1" xmlns="http://www.w3.org/2000/svg" xmlns:xlink="http://www.w3.org/1999/xlink" viewBox="0 0 267.22 207.33"><defs><clipPath id="clip-path"><circle cx="24.84" cy="102.24" r="14.2" style="fill:none"/></clipPath><clipPath id="clip-path-2"><rect x="40.03" y="8.63" width="191.2" height="187.78" transform="translate(-32.69 78.58) rotate(-28.99)" style="fill:none"/></clipPath></defs><rect width="267.22" height="207.33" style="fill:#253443"/><circle cx="135.7" cy="102.56" r="46.17" style="fill:#2c4256;stroke:#39a8e0;stroke-miterlimit:10"/><line x1="140.77" y1="99.48" x2="175.8" y2="79.26" style="fill:none;stroke:#39a8e0;stroke-miterlimit:10"/><line x1="135.26" y1="149.23" x2="135.26" y2="108.88" style="fill:none;stroke:#39a8e0;stroke-miterlimit:10"/><path d="M122.07,76.34h-.86V74.13H119v2.21h-.86v-5H119v2.07h2.23V71.36h.86Z" style="fill:#e7e6e6"/><path d="M125.25,76a1.31,1.31,0,0,1-1,.43,1.14,1.14,0,0,1-.91-.36,1.51,1.51,0,0,1-.31-1v-2.4h.83V75c0,.47.2.7.59.7a.83.83,0,0,0,.82-.43V72.64h.83v3.7h-.79Z" style="fill:#e7e6e6"/><path d="M127.68,72.64l0,.39a1.3,1.3,0,0,1,1.06-.46,1,1,0,0,1,1,.57,1.31,1.31,0,0,1,1.13-.57,1.12,1.12,0,0,1,.91.34,1.48,1.48,0,0,1,.31,1v2.43h-.83V73.93a.74.74,0,0,0-.15-.51.7.7,0,0,0-.51-.17.72.72,0,0,0-.47.15.88.88,0,0,0-.25.4v2.54h-.83V73.9a.6.6,0,0,0-.67-.65.74.74,0,0,0-.71.41v2.68h-.83v-3.7Z" style="fill:#e7e6e6"/><path d="M135.2,76.34a1.32,1.32,0,0,1-.09-.35,1.39,1.39,0,0,1-1.88.1,1,1,0,0,1-.36-.79,1,1,0,0,1,.44-.9,2.08,2.08,0,0,1,1.26-.32h.51v-.24a.59.59,0,0,0-.65-.64.69.69,0,0,0-.46.15.41.41,0,0,0-.19.36H133a.92.92,0,0,1,.2-.57,1.37,1.37,0,0,1,.55-.42,2,2,0,0,1,.78-.15,1.52,1.52,0,0,1,1,.33,1.17,1.17,0,0,1,.4.92v1.66a2,2,0,0,0,.14.8v.06Zm-.91-.6a.93.93,0,0,0,.46-.12.79.79,0,0,0,.33-.32v-.7h-.45a1.25,1.25,0,0,0-.69.16.52.52,0,0,0-.23.46.5.5,0,0,0,.15.38A.65.65,0,0,0,134.29,75.74Z" style="fill:#e7e6e6"/><path d="M137.55,72.64l0,.43a1.36,1.36,0,0,1,1.08-.5c.77,0,1.16.44,1.18,1.32v2.45H139v-2.4a.72.72,0,0,0-.16-.52.63.63,0,0,0-.49-.17.79.79,0,0,0-.75.46v2.63h-.83v-3.7Z" style="fill:#e7e6e6"/><path d="M140.68,71.68a.42.42,0,0,1,.46-.44.48.48,0,0,1,.35.12.45.45,0,0,1,.12.32.41.41,0,0,1-.12.31.45.45,0,0,1-.35.13.42.42,0,0,1-.34-.13A.41.41,0,0,1,140.68,71.68Zm.88,4.66h-.83v-3.7h.83Z" style="fill:#e7e6e6"/><path d="M143.5,71.74v.9h.65v.62h-.65v2.06a.46.46,0,0,0,.09.31.38.38,0,0,0,.3.09l.29,0v.64a2.22,2.22,0,0,1-.55.08c-.64,0-1-.36-1-1.06V73.26h-.61v-.62h.61v-.9Z" style="fill:#e7e6e6"/><path d="M144.79,71.68a.45.45,0,0,1,.12-.32.48.48,0,0,1,.35-.12.5.5,0,0,1,.35.12.45.45,0,0,1,.12.32.41.41,0,0,1-.12.31.46.46,0,0,1-.35.13.45.45,0,0,1-.35-.13A.41.41,0,0,1,144.79,71.68Zm.88,4.66h-.83v-3.7h.83Z" style="fill:#e7e6e6"/><path d="M148.21,76.41a1.71,1.71,0,0,1-1.28-.5,1.79,1.79,0,0,1-.5-1.32v-.11a2.25,2.25,0,0,1,.22-1,1.65,1.65,0,0,1,.6-.68,1.59,1.59,0,0,1,.86-.24,1.47,1.47,0,0,1,1.17.48,2.09,2.09,0,0,1,.41,1.37v.33h-2.42a1.14,1.14,0,0,0,.31.73.94.94,0,0,0,.67.26,1.12,1.12,0,0,0,.93-.46l.45.43a1.53,1.53,0,0,1-.59.51A1.78,1.78,0,0,1,148.21,76.41Zm-.1-3.17a.71.71,0,0,0-.56.24,1.17,1.17,0,0,0-.26.66h1.58v-.06a1,1,0,0,0-.22-.63A.7.7,0,0,0,148.11,73.24Z" style="fill:#e7e6e6"/><path d="M152.4,75.33a.37.37,0,0,0-.18-.33,1.84,1.84,0,0,0-.6-.21,2.69,2.69,0,0,1-.71-.23.93.93,0,0,1-.62-.87,1,1,0,0,1,.4-.8,1.62,1.62,0,0,1,1-.32,1.67,1.67,0,0,1,1.07.33,1,1,0,0,1,.4.85h-.83a.51.51,0,0,0-.17-.4.72.72,0,0,0-.47-.16.75.75,0,0,0-.45.13.38.38,0,0,0-.17.34.33.33,0,0,0,.16.3,2.09,2.09,0,0,0,.65.21,2.89,2.89,0,0,1,.76.26,1.06,1.06,0,0,1,.42.35.92.92,0,0,1,.13.51,1,1,0,0,1-.41.81,1.82,1.82,0,0,1-1.08.31,1.94,1.94,0,0,1-.82-.17,1.37,1.37,0,0,1-.55-.45,1.09,1.09,0,0,1-.2-.62H151a.62.62,0,0,0,.22.46.91.91,0,0,0,.54.15.86.86,0,0,0,.5-.12A.37.37,0,0,0,152.4,75.33Z" style="fill:#e7e6e6"/><path d="M114,82.26a.57.57,0,0,0-.24-.5,2.66,2.66,0,0,0-.83-.36,4,4,0,0,1-1-.41,1.27,1.27,0,0,1-.68-1.11,1.21,1.21,0,0,1,.5-1,2,2,0,0,1,1.27-.39,2.1,2.1,0,0,1,.92.19,1.49,1.49,0,0,1,.64.54,1.39,1.39,0,0,1,.24.79H114a.8.8,0,0,0-.25-.61,1,1,0,0,0-.7-.22,1.08,1.08,0,0,0-.66.18.62.62,0,0,0-.23.51.53.53,0,0,0,.25.45,3.14,3.14,0,0,0,.84.36,3.71,3.71,0,0,1,.93.39,1.59,1.59,0,0,1,.52.51,1.4,1.4,0,0,1,.16.66,1.17,1.17,0,0,1-.48,1,2,2,0,0,1-1.29.37,2.47,2.47,0,0,1-1-.2,1.66,1.66,0,0,1-.71-.55,1.37,1.37,0,0,1-.25-.82H112a.78.78,0,0,0,.28.65,1.18,1.18,0,0,0,.8.24,1,1,0,0,0,.68-.19A.59.59,0,0,0,114,82.26Z" style="fill:#e7e6e6"/><path d="M115.39,81.66a2.11,2.11,0,0,1,.22-1,1.56,1.56,0,0,1,.6-.67,1.68,1.68,0,0,1,.9-.23,1.6,1.6,0,0,1,1.21.48,1.93,1.93,0,0,1,.51,1.28v.19a2.21,2.21,0,0,1-.21,1,1.56,1.56,0,0,1-.6.67,1.78,1.78,0,0,1-.91.23,1.6,1.6,0,0,1-1.25-.52,2,2,0,0,1-.47-1.39Zm.83.07a1.45,1.45,0,0,0,.24.89.82.82,0,0,0,1.31,0,1.62,1.62,0,0,0,.23-1,1.49,1.49,0,0,0-.24-.89.81.81,0,0,0-1.3,0A1.58,1.58,0,0,0,116.22,81.73Z" style="fill:#e7e6e6"/><path d="M121.05,83a.77.77,0,0,0,.52-.18.61.61,0,0,0,.22-.45h.78a1.25,1.25,0,0,1-.21.64,1.51,1.51,0,0,1-.55.48,1.72,1.72,0,0,1-.75.17,1.61,1.61,0,0,1-1.23-.5,2,2,0,0,1-.45-1.39v-.08a2,2,0,0,1,.45-1.36,1.55,1.55,0,0,1,1.23-.5,1.48,1.48,0,0,1,1.07.38,1.36,1.36,0,0,1,.44,1h-.78a.73.73,0,0,0-.22-.52.69.69,0,0,0-.52-.21.74.74,0,0,0-.62.29,1.48,1.48,0,0,0-.22.89v.14a1.44,1.44,0,0,0,.22.89A.71.71,0,0,0,121.05,83Z" style="fill:#e7e6e6"/><path d="M123.2,78.88a.43.43,0,0,1,.12-.31.45.45,0,0,1,.35-.13.46.46,0,0,1,.35.13.43.43,0,0,1,.12.31.45.45,0,0,1-.12.32.5.5,0,0,1-.35.12.48.48,0,0,1-.35-.12A.45.45,0,0,1,123.2,78.88Zm.88,4.66h-.83v-3.7h.83Z" style="fill:#e7e6e6"/><path d="M127.19,83.54a1.73,1.73,0,0,1-.09-.34,1.32,1.32,0,0,1-1,.41,1.27,1.27,0,0,1-.91-.32,1,1,0,0,1-.35-.78,1,1,0,0,1,.44-.91,2.12,2.12,0,0,1,1.25-.32h.51V81a.65.65,0,0,0-.16-.46.66.66,0,0,0-.49-.17.74.74,0,0,0-.46.14.43.43,0,0,0-.18.36H125a.9.9,0,0,1,.2-.57,1.31,1.31,0,0,1,.55-.41,1.92,1.92,0,0,1,.77-.15,1.56,1.56,0,0,1,1,.32,1.18,1.18,0,0,1,.39.92v1.67a1.9,1.9,0,0,0,.14.79v.06Zm-.91-.6a.9.9,0,0,0,.46-.12.68.68,0,0,0,.33-.32v-.69h-.45a1.19,1.19,0,0,0-.69.16.5.5,0,0,0-.23.45.46.46,0,0,0,.16.38A.56.56,0,0,0,126.28,82.94Z" style="fill:#e7e6e6"/><path d="M129.65,83.54h-.83V78.29h.83Z" style="fill:#e7e6e6"/><path d="M135,82.26a.56.56,0,0,0-.23-.5,2.66,2.66,0,0,0-.83-.36,4,4,0,0,1-1-.41,1.27,1.27,0,0,1-.68-1.11,1.23,1.23,0,0,1,.49-1,2,2,0,0,1,1.28-.39,2.1,2.1,0,0,1,.92.19,1.49,1.49,0,0,1,.64.54,1.39,1.39,0,0,1,.24.79H135a.79.79,0,0,0-.24-.61,1,1,0,0,0-.7-.22,1.08,1.08,0,0,0-.66.18.62.62,0,0,0-.23.51.53.53,0,0,0,.25.45,3.14,3.14,0,0,0,.84.36,3.71,3.71,0,0,1,.93.39,1.59,1.59,0,0,1,.52.51,1.4,1.4,0,0,1,.16.66,1.17,1.17,0,0,1-.48,1,2,2,0,0,1-1.29.37,2.47,2.47,0,0,1-1-.2,1.66,1.66,0,0,1-.71-.55,1.37,1.37,0,0,1-.25-.82H133a.79.79,0,0,0,.29.65,1.18,1.18,0,0,0,.8.24,1,1,0,0,0,.68-.19A.58.58,0,0,0,135,82.26Z" style="fill:#e7e6e6"/><path d="M138.05,83a.74.74,0,0,0,.51-.18.61.61,0,0,0,.22-.45h.78a1.16,1.16,0,0,1-.21.64,1.51,1.51,0,0,1-.55.48,1.71,1.71,0,0,1-.74.17,1.58,1.58,0,0,1-1.23-.5,2,2,0,0,1-.46-1.39v-.08a2,2,0,0,1,.45-1.36,1.55,1.55,0,0,1,1.23-.5,1.52,1.52,0,0,1,1.08.38,1.35,1.35,0,0,1,.43,1h-.78a.73.73,0,0,0-.22-.52.66.66,0,0,0-.51-.21.76.76,0,0,0-.63.29,1.56,1.56,0,0,0-.22.89v.14a1.44,1.44,0,0,0,.22.89A.72.72,0,0,0,138.05,83Z" style="fill:#e7e6e6"/><path d="M140.19,78.88a.43.43,0,0,1,.12-.31.46.46,0,0,1,.35-.13.45.45,0,0,1,.35.13.43.43,0,0,1,.12.31.45.45,0,0,1-.12.32.48.48,0,0,1-.35.12.5.5,0,0,1-.35-.12A.45.45,0,0,1,140.19,78.88Zm.88,4.66h-.83v-3.7h.83Z" style="fill:#e7e6e6"/><path d="M143.61,83.61a1.71,1.71,0,0,1-1.28-.5,1.78,1.78,0,0,1-.49-1.32v-.1a2.25,2.25,0,0,1,.21-1,1.58,1.58,0,0,1,1.46-.92,1.46,1.46,0,0,1,1.17.48,2,2,0,0,1,.41,1.36V82h-2.42a1.14,1.14,0,0,0,.31.72.9.9,0,0,0,.67.27,1.12,1.12,0,0,0,.93-.46l.45.42a1.49,1.49,0,0,1-.59.52A1.9,1.9,0,0,1,143.61,83.61Zm-.1-3.17a.69.69,0,0,0-.55.24,1.25,1.25,0,0,0-.27.67h1.58v-.06a1,1,0,0,0-.22-.63A.67.67,0,0,0,143.51,80.44Z" style="fill:#e7e6e6"/><path d="M146.51,79.84l0,.43a1.32,1.32,0,0,1,1.08-.49q1.15,0,1.17,1.32v2.44H148V81.15a.75.75,0,0,0-.15-.52.62.62,0,0,0-.5-.17.81.81,0,0,0-.75.45v2.63h-.83v-3.7Z" style="fill:#e7e6e6"/><path d="M151.15,83a.72.72,0,0,0,.51-.18.61.61,0,0,0,.22-.45h.79a1.18,1.18,0,0,1-.22.64,1.43,1.43,0,0,1-.55.48,1.68,1.68,0,0,1-.74.17,1.58,1.58,0,0,1-1.23-.5,2,2,0,0,1-.46-1.39v-.08a2,2,0,0,1,.45-1.36,1.58,1.58,0,0,1,1.23-.5,1.5,1.5,0,0,1,1.08.38,1.39,1.39,0,0,1,.44,1h-.79a.77.77,0,0,0-.21-.52.7.7,0,0,0-.52-.21.73.73,0,0,0-.62.29,1.55,1.55,0,0,0-.23.89v.14a1.51,1.51,0,0,0,.22.89A.74.74,0,0,0,151.15,83Z" style="fill:#e7e6e6"/><path d="M154.92,83.61a1.74,1.74,0,0,1-1.28-.5,1.78,1.78,0,0,1-.49-1.32v-.1a2.25,2.25,0,0,1,.21-1A1.68,1.68,0,0,1,154,80a1.57,1.57,0,0,1,.86-.24,1.44,1.44,0,0,1,1.16.48,2,2,0,0,1,.41,1.36V82H154a1.13,1.13,0,0,0,.3.72A.93.93,0,0,0,155,83a1.15,1.15,0,0,0,.93-.46l.45.42a1.52,1.52,0,0,1-.6.52A1.84,1.84,0,0,1,154.92,83.61Zm-.1-3.17a.71.71,0,0,0-.55.24,1.25,1.25,0,0,0-.27.67h1.58v-.06a1,1,0,0,0-.22-.63A.67.67,0,0,0,154.82,80.44Z" style="fill:#e7e6e6"/><path d="M159.12,82.54a.38.38,0,0,0-.18-.34,1.91,1.91,0,0,0-.61-.21,2.63,2.63,0,0,1-.7-.22.94.94,0,0,1-.63-.87,1,1,0,0,1,.41-.8,1.56,1.56,0,0,1,1-.32,1.7,1.7,0,0,1,1.07.32,1,1,0,0,1,.41.86h-.83a.5.5,0,0,0-.18-.4.65.65,0,0,0-.47-.16.74.74,0,0,0-.44.12.41.41,0,0,0-.18.34.35.35,0,0,0,.16.3,2.31,2.31,0,0,0,.65.21,3.42,3.42,0,0,1,.77.26,1,1,0,0,1,.41.36.92.92,0,0,1,.14.5,1,1,0,0,1-.41.81,1.76,1.76,0,0,1-1.09.31,1.92,1.92,0,0,1-.81-.16,1.37,1.37,0,0,1-.55-.45,1.11,1.11,0,0,1-.2-.62h.81a.58.58,0,0,0,.22.45.85.85,0,0,0,.54.16.79.79,0,0,0,.5-.13A.39.39,0,0,0,159.12,82.54Z" style="fill:#e7e6e6"/><path d="M107.86,115.93H107l-2.22-3.53v3.53h-.86v-5h.86L107,114.5V111h.85Z" style="fill:#fff"/><path d="M111,115.93a1.88,1.88,0,0,1-.09-.35,1.3,1.3,0,0,1-1,.42,1.31,1.31,0,0,1-.91-.32,1,1,0,0,1-.35-.79,1,1,0,0,1,.44-.91,2.12,2.12,0,0,1,1.25-.31h.51v-.24a.61.61,0,0,0-.16-.46.63.63,0,0,0-.49-.18.69.69,0,0,0-.46.15.43.43,0,0,0-.18.36h-.83a.86.86,0,0,1,.2-.57,1.25,1.25,0,0,1,.55-.42,1.92,1.92,0,0,1,.77-.15,1.56,1.56,0,0,1,1,.33,1.14,1.14,0,0,1,.39.91v1.67a2,2,0,0,0,.14.8v.06Zm-.91-.6a.9.9,0,0,0,.46-.12.79.79,0,0,0,.33-.32v-.7h-.45a1.19,1.19,0,0,0-.69.16.54.54,0,0,0-.23.46.48.48,0,0,0,.16.38A.61.61,0,0,0,110.1,115.33Z" style="fill:#fff"/><path d="M113.63,111.33v.9h.66v.61h-.66v2.07a.41.41,0,0,0,.09.3.35.35,0,0,0,.3.1,1,1,0,0,0,.29,0v.65a2.15,2.15,0,0,1-.55.08c-.64,0-1-.36-1-1.06v-2.1h-.61v-.61h.61v-.9Z" style="fill:#fff"/><path d="M117.16,115.57a1.31,1.31,0,0,1-1,.43,1.14,1.14,0,0,1-.91-.36,1.45,1.45,0,0,1-.31-1v-2.4h.83v2.38c0,.47.2.71.59.71a.82.82,0,0,0,.81-.44v-2.65H118v3.7h-.78Z" style="fill:#fff"/><path d="M120.74,113a1.76,1.76,0,0,0-.33,0,.77.77,0,0,0-.77.44v2.53h-.83v-3.7h.79l0,.41a.94.94,0,0,1,.83-.48.85.85,0,0,1,.3,0Z" style="fill:#fff"/><path d="M123.48,115.93a1.25,1.25,0,0,1-.1-.35,1.26,1.26,0,0,1-1,.42,1.33,1.33,0,0,1-.91-.32,1,1,0,0,1-.35-.79,1.07,1.07,0,0,1,.44-.91,2.13,2.13,0,0,1,1.26-.31h.51v-.24a.66.66,0,0,0-.16-.46.63.63,0,0,0-.49-.18.72.72,0,0,0-.47.15.43.43,0,0,0-.18.36h-.83a.92.92,0,0,1,.2-.57,1.37,1.37,0,0,1,.55-.42,1.92,1.92,0,0,1,.77-.15,1.54,1.54,0,0,1,1,.33,1.15,1.15,0,0,1,.4.91v1.67a1.79,1.79,0,0,0,.14.8v.06Zm-.91-.6a.92.92,0,0,0,.79-.44v-.7h-.45a1.17,1.17,0,0,0-.69.16.52.52,0,0,0-.24.46.51.51,0,0,0,.16.38A.65.65,0,0,0,122.57,115.33Z" style="fill:#fff"/><path d="M125.94,115.93h-.83v-5.25h.83Z" style="fill:#fff"/><path d="M105.65,121.85a.62.62,0,0,0-.23-.51,3.43,3.43,0,0,0-.83-.36,3.85,3.85,0,0,1-1-.4,1.27,1.27,0,0,1-.68-1.11,1.2,1.2,0,0,1,.49-1,2,2,0,0,1,1.27-.39,2.12,2.12,0,0,1,.93.19,1.61,1.61,0,0,1,.64.54,1.46,1.46,0,0,1,.23.79h-.86a.75.75,0,0,0-.25-.61,1,1,0,0,0-.69-.22,1,1,0,0,0-.66.18.59.59,0,0,0-.24.5.54.54,0,0,0,.26.46,2.91,2.91,0,0,0,.83.36,3.42,3.42,0,0,1,.93.39,1.47,1.47,0,0,1,.52.5,1.33,1.33,0,0,1,.16.67,1.19,1.19,0,0,1-.47,1,2.05,2.05,0,0,1-1.3.37,2.47,2.47,0,0,1-1-.2,1.63,1.63,0,0,1-.7-.55,1.38,1.38,0,0,1-.26-.82h.87a.78.78,0,0,0,.28.65,1.19,1.19,0,0,0,.8.24,1,1,0,0,0,.68-.19A.59.59,0,0,0,105.65,121.85Z" style="fill:#fff"/><path d="M108.71,122.54a.77.77,0,0,0,.52-.18.67.67,0,0,0,.22-.45h.78a1.18,1.18,0,0,1-.22.64,1.4,1.4,0,0,1-.54.48,1.72,1.72,0,0,1-.75.17,1.58,1.58,0,0,1-1.23-.5,2,2,0,0,1-.45-1.39v-.09a2,2,0,0,1,.45-1.35,1.56,1.56,0,0,1,1.23-.51,1.48,1.48,0,0,1,1.07.39,1.36,1.36,0,0,1,.44,1h-.78a.78.78,0,0,0-.22-.52.7.7,0,0,0-.52-.21.73.73,0,0,0-.62.29,1.46,1.46,0,0,0-.22.89v.13a1.57,1.57,0,0,0,.21.9A.74.74,0,0,0,108.71,122.54Z" style="fill:#fff"/><path d="M110.86,118.47a.47.47,0,0,1,.12-.32.48.48,0,0,1,.35-.12.45.45,0,0,1,.34.12.44.44,0,0,1,.13.32.42.42,0,0,1-.13.32.45.45,0,0,1-.34.12.48.48,0,0,1-.35-.12A.45.45,0,0,1,110.86,118.47Zm.88,4.66h-.83v-3.7h.83Z" style="fill:#fff"/><path d="M114.27,123.2a1.73,1.73,0,0,1-1.28-.5,1.78,1.78,0,0,1-.49-1.32v-.1a2.25,2.25,0,0,1,.21-1,1.73,1.73,0,0,1,.6-.68,1.64,1.64,0,0,1,.87-.25,1.44,1.44,0,0,1,1.16.49,2,2,0,0,1,.41,1.36v.34h-2.41a1.13,1.13,0,0,0,.3.72.93.93,0,0,0,.68.27,1.15,1.15,0,0,0,.93-.46l.45.42a1.52,1.52,0,0,1-.6.52A1.84,1.84,0,0,1,114.27,123.2Zm-.1-3.17a.69.69,0,0,0-.55.24,1.25,1.25,0,0,0-.27.67h1.58v-.06a1,1,0,0,0-.22-.64A.7.7,0,0,0,114.17,120Z" style="fill:#fff"/><path d="M117.17,119.43l0,.43a1.36,1.36,0,0,1,1.08-.5c.77,0,1.16.45,1.18,1.33v2.44h-.83v-2.39a.75.75,0,0,0-.16-.53.63.63,0,0,0-.49-.16.79.79,0,0,0-.75.45v2.63h-.83v-3.7Z" style="fill:#fff"/><path d="M121.81,122.54a.77.77,0,0,0,.52-.18.63.63,0,0,0,.22-.45h.78a1.18,1.18,0,0,1-.22.64,1.4,1.4,0,0,1-.54.48,1.72,1.72,0,0,1-.75.17,1.61,1.61,0,0,1-1.23-.5,2,2,0,0,1-.45-1.39v-.09a2,2,0,0,1,.45-1.35,1.56,1.56,0,0,1,1.23-.51,1.48,1.48,0,0,1,1.07.39,1.36,1.36,0,0,1,.44,1h-.78a.73.73,0,0,0-.22-.52.7.7,0,0,0-.52-.21.74.74,0,0,0-.62.29,1.46,1.46,0,0,0-.22.89v.13a1.49,1.49,0,0,0,.22.9A.71.71,0,0,0,121.81,122.54Z" style="fill:#fff"/><path d="M125.59,123.2a1.71,1.71,0,0,1-1.28-.5,1.79,1.79,0,0,1-.5-1.32v-.1a2.25,2.25,0,0,1,.22-1,1.62,1.62,0,0,1,1.46-.93,1.48,1.48,0,0,1,1.17.49,2,2,0,0,1,.41,1.36v.34h-2.42a1.14,1.14,0,0,0,.31.72.9.9,0,0,0,.67.27,1.15,1.15,0,0,0,.93-.46l.45.42a1.49,1.49,0,0,1-.59.52A1.9,1.9,0,0,1,125.59,123.2Zm-.1-3.17a.68.68,0,0,0-.55.24,1.18,1.18,0,0,0-.27.67h1.58v-.06a1.06,1.06,0,0,0-.22-.64A.7.7,0,0,0,125.49,120Z" style="fill:#fff"/><path d="M142.66,114.1h-2v1.53H143v.69h-3.25v-5H143v.7h-2.37v1.38h2Z" style="fill:#fff"/><path d="M144.4,112.62l0,.43a1.33,1.33,0,0,1,1.08-.5c.77,0,1.16.45,1.17,1.33v2.44h-.83v-2.4a.79.79,0,0,0-.15-.52.66.66,0,0,0-.5-.17.82.82,0,0,0-.75.46v2.63h-.83v-3.7Z" style="fill:#fff"/><path d="M147.37,114.44a2.15,2.15,0,0,1,.41-1.37,1.31,1.31,0,0,1,1.07-.52,1.22,1.22,0,0,1,1,.45l0-.38h.74v3.59a1.51,1.51,0,0,1-.45,1.15,1.72,1.72,0,0,1-1.22.42,2.05,2.05,0,0,1-.8-.17,1.52,1.52,0,0,1-.59-.44l.4-.5a1.18,1.18,0,0,0,.94.45.9.9,0,0,0,.65-.22.86.86,0,0,0,.24-.66V116a1.21,1.21,0,0,1-1,.4,1.3,1.3,0,0,1-1.07-.52A2.25,2.25,0,0,1,147.37,114.44Zm.83.08a1.47,1.47,0,0,0,.23.87.71.71,0,0,0,.63.32.79.79,0,0,0,.74-.43v-1.63a.78.78,0,0,0-.74-.42.72.72,0,0,0-.63.33A1.68,1.68,0,0,0,148.2,114.52Z" style="fill:#fff"/><path d="M151.49,111.66a.45.45,0,0,1,.12-.32.48.48,0,0,1,.35-.12.5.5,0,0,1,.35.12.49.49,0,0,1,0,.64.5.5,0,0,1-.35.12.48.48,0,0,1-.35-.12A.45.45,0,0,1,151.49,111.66Zm.88,4.66h-.83v-3.7h.83Z" style="fill:#fff"/><path d="M154,112.62l0,.43a1.33,1.33,0,0,1,1.08-.5c.77,0,1.16.45,1.17,1.33v2.44h-.83v-2.4a.79.79,0,0,0-.15-.52.66.66,0,0,0-.5-.17.82.82,0,0,0-.75.46v2.63h-.83v-3.7Z" style="fill:#fff"/><path d="M158.8,116.39a1.71,1.71,0,0,1-1.28-.5,1.79,1.79,0,0,1-.5-1.32v-.11a2.24,2.24,0,0,1,.22-1,1.62,1.62,0,0,1,1.46-.93,1.45,1.45,0,0,1,1.17.49,2,2,0,0,1,.41,1.36v.33h-2.42a1.14,1.14,0,0,0,.31.73.9.9,0,0,0,.67.27,1.13,1.13,0,0,0,.93-.47l.45.43a1.57,1.57,0,0,1-.59.52A1.9,1.9,0,0,1,158.8,116.39Zm-.1-3.17a.68.68,0,0,0-.55.24,1.18,1.18,0,0,0-.27.67h1.58v-.06a1.06,1.06,0,0,0-.22-.64A.7.7,0,0,0,158.7,113.22Z" style="fill:#fff"/><path d="M162.55,116.39a1.74,1.74,0,0,1-1.28-.5,1.82,1.82,0,0,1-.49-1.32v-.11a2.11,2.11,0,0,1,.22-1,1.62,1.62,0,0,1,1.46-.93,1.41,1.41,0,0,1,1.16.49,2,2,0,0,1,.42,1.36v.33h-2.42a1.14,1.14,0,0,0,.31.73.89.89,0,0,0,.67.27,1.13,1.13,0,0,0,.93-.47l.45.43a1.65,1.65,0,0,1-.59.52A1.92,1.92,0,0,1,162.55,116.39Zm-.1-3.17a.71.71,0,0,0-.55.24,1.25,1.25,0,0,0-.27.67h1.59v-.06a1.06,1.06,0,0,0-.23-.64A.7.7,0,0,0,162.45,113.22Z" style="fill:#fff"/><path d="M166.62,113.38a2,2,0,0,0-.34,0,.77.77,0,0,0-.77.44v2.53h-.83v-3.7h.79l0,.42a.93.93,0,0,1,.84-.49.84.84,0,0,1,.29,0Z" style="fill:#fff"/><path d="M167.14,111.66a.45.45,0,0,1,.12-.32.5.5,0,0,1,.35-.12.48.48,0,0,1,.35.12.49.49,0,0,1,0,.64.48.48,0,0,1-.35.12.5.5,0,0,1-.35-.12A.45.45,0,0,1,167.14,111.66Zm.88,4.66h-.83v-3.7H168Z" style="fill:#fff"/><path d="M169.7,112.62l0,.43a1.36,1.36,0,0,1,1.08-.5c.77,0,1.16.45,1.18,1.33v2.44h-.83v-2.4a.79.79,0,0,0-.16-.52.64.64,0,0,0-.5-.17.8.8,0,0,0-.74.46v2.63h-.83v-3.7Z" style="fill:#fff"/><path d="M172.68,114.44a2.15,2.15,0,0,1,.4-1.37,1.32,1.32,0,0,1,1.08-.52,1.2,1.2,0,0,1,1,.45l0-.38h.75v3.59a1.48,1.48,0,0,1-.46,1.15,1.72,1.72,0,0,1-1.22.42,2,2,0,0,1-.79-.17,1.45,1.45,0,0,1-.59-.44l.39-.5a1.2,1.2,0,0,0,.94.45.92.92,0,0,0,.66-.22.86.86,0,0,0,.24-.66V116a1.22,1.22,0,0,1-1,.4,1.28,1.28,0,0,1-1.06-.52A2.19,2.19,0,0,1,172.68,114.44Zm.82.08a1.47,1.47,0,0,0,.23.87.71.71,0,0,0,.63.32.8.8,0,0,0,.75-.43v-1.63a.8.8,0,0,0-.74-.42.74.74,0,0,0-.64.33A1.68,1.68,0,0,0,173.5,114.52Z" style="fill:#fff"/><path d="M148.54,122.24a.6.6,0,0,0-.23-.5,2.75,2.75,0,0,0-.84-.36,4.16,4.16,0,0,1-.95-.4,1.28,1.28,0,0,1-.68-1.12,1.2,1.2,0,0,1,.49-1,2,2,0,0,1,1.27-.39,2.12,2.12,0,0,1,.93.19,1.56,1.56,0,0,1,.64.55,1.4,1.4,0,0,1,.23.78h-.86a.76.76,0,0,0-.25-.61,1,1,0,0,0-.7-.22,1,1,0,0,0-.65.18.6.6,0,0,0-.24.51.55.55,0,0,0,.25.45,2.85,2.85,0,0,0,.84.36,3.76,3.76,0,0,1,.93.39,1.49,1.49,0,0,1,.52.51,1.3,1.3,0,0,1,.16.67,1.21,1.21,0,0,1-.47,1,2.11,2.11,0,0,1-1.3.36,2.31,2.31,0,0,1-1-.2,1.64,1.64,0,0,1-.71-.55,1.42,1.42,0,0,1-.25-.82h.87a.81.81,0,0,0,.28.66,1.25,1.25,0,0,0,.8.23,1.08,1.08,0,0,0,.68-.18A.61.61,0,0,0,148.54,122.24Z" style="fill:#fff"/><path d="M151.6,122.93a.77.77,0,0,0,.52-.18.6.6,0,0,0,.21-.45h.79a1.21,1.21,0,0,1-.22.65,1.38,1.38,0,0,1-.54.47,1.62,1.62,0,0,1-.75.17,1.55,1.55,0,0,1-1.23-.5,2,2,0,0,1-.46-1.39v-.08a1.89,1.89,0,0,1,.46-1.35,1.56,1.56,0,0,1,1.23-.51,1.54,1.54,0,0,1,1.07.38,1.41,1.41,0,0,1,.44,1h-.79a.74.74,0,0,0-.21-.52.7.7,0,0,0-.52-.21.71.71,0,0,0-.62.3,1.43,1.43,0,0,0-.22.88v.14a1.52,1.52,0,0,0,.21.89A.74.74,0,0,0,151.6,122.93Z" style="fill:#fff"/><path d="M153.75,118.87a.44.44,0,0,1,.12-.32.42.42,0,0,1,.34-.13.45.45,0,0,1,.35.13.41.41,0,0,1,.13.32.4.4,0,0,1-.13.31.48.48,0,0,1-.35.12.45.45,0,0,1-.34-.12A.43.43,0,0,1,153.75,118.87Zm.88,4.66h-.83v-3.7h.83Z" style="fill:#fff"/><path d="M157.16,123.59a1.72,1.72,0,0,1-1.28-.49,1.82,1.82,0,0,1-.49-1.33v-.1a2.25,2.25,0,0,1,.21-1,1.73,1.73,0,0,1,.6-.68,1.62,1.62,0,0,1,.86-.24,1.45,1.45,0,0,1,1.17.48,2,2,0,0,1,.41,1.36v.34h-2.41a1.06,1.06,0,0,0,.3.72.93.93,0,0,0,.68.27,1.12,1.12,0,0,0,.93-.46l.45.43a1.49,1.49,0,0,1-.6.51A1.84,1.84,0,0,1,157.16,123.59Zm-.1-3.17a.69.69,0,0,0-.55.24,1.28,1.28,0,0,0-.27.67h1.58v-.06a1,1,0,0,0-.22-.63A.71.71,0,0,0,157.06,120.42Z" style="fill:#fff"/><path d="M160.06,119.83l0,.42a1.35,1.35,0,0,1,1.08-.49c.77,0,1.16.44,1.18,1.32v2.45h-.83v-2.4a.75.75,0,0,0-.16-.52.6.6,0,0,0-.49-.17.79.79,0,0,0-.75.45v2.64h-.83v-3.7Z" style="fill:#fff"/><path d="M164.7,122.93a.77.77,0,0,0,.52-.18.65.65,0,0,0,.22-.45h.78a1.21,1.21,0,0,1-.22.65,1.38,1.38,0,0,1-.54.47,1.59,1.59,0,0,1-.75.17,1.55,1.55,0,0,1-1.23-.5,2,2,0,0,1-.45-1.39v-.08a1.93,1.93,0,0,1,.45-1.35,1.56,1.56,0,0,1,1.23-.51,1.52,1.52,0,0,1,1.07.38,1.37,1.37,0,0,1,.44,1h-.78a.75.75,0,0,0-.22-.52.7.7,0,0,0-.52-.21.72.72,0,0,0-.62.3,1.43,1.43,0,0,0-.22.88v.14a1.52,1.52,0,0,0,.21.89A.74.74,0,0,0,164.7,122.93Z" style="fill:#fff"/><path d="M168.48,123.59a1.74,1.74,0,0,1-1.29-.49,1.86,1.86,0,0,1-.49-1.33v-.1a2.12,2.12,0,0,1,.22-1,1.59,1.59,0,0,1,.6-.68,1.57,1.57,0,0,1,.86-.24,1.47,1.47,0,0,1,1.17.48,2.06,2.06,0,0,1,.41,1.36v.34h-2.42a1.11,1.11,0,0,0,.31.72.9.9,0,0,0,.67.27,1.12,1.12,0,0,0,.93-.46l.45.43a1.53,1.53,0,0,1-.59.51A1.9,1.9,0,0,1,168.48,123.59Zm-.1-3.17a.71.71,0,0,0-.56.24,1.2,1.2,0,0,0-.26.67h1.58v-.06a1,1,0,0,0-.22-.63A.71.71,0,0,0,168.38,120.42Z" style="fill:#fff"/><path d="M234,79.22A2.2,2.2,0,0,1,232.18,78a1.88,1.88,0,0,1,.34-2.56l7.16-4a1.21,1.21,0,0,1,.6-.15A2.15,2.15,0,0,1,242,72.51a1.88,1.88,0,0,1-.34,2.57l-7.15,4A1.15,1.15,0,0,1,234,79.22Zm6.33-7.56a.89.89,0,0,0-.43.11l-7.15,4c-.57.32-.66,1.25-.2,2.08a1.84,1.84,0,0,0,1.45,1,.87.87,0,0,0,.42-.1l7.15-4c.57-.32.66-1.25.2-2.07A1.82,1.82,0,0,0,240.28,71.66Z" style="fill:#fff"/><path d="M238.13,74.14a.39.39,0,0,1-.47.26.37.37,0,1,1,.47-.26Z" style="fill:#fff"/><path d="M238.4,75.7a.4.4,0,1,1-.29-.45A.37.37,0,0,1,238.4,75.7Z" style="fill:#fff"/><path d="M241.23,73.59a.39.39,0,0,1-.48.26.37.37,0,1,1,.18-.72A.4.4,0,0,1,241.23,73.59Z" style="fill:#fff"/><path d="M240.45,75a.4.4,0,0,1-.48.26.38.38,0,0,1-.29-.46.37.37,0,0,1,.47-.26A.38.38,0,0,1,240.45,75Z" style="fill:#fff"/><rect x="236.65" y="74.81" width="0.46" height="0.46" style="fill:#fff"/><rect x="239.25" y="72.81" width="0.46" height="0.46" style="fill:#fff"/><path d="M233.92,77.55l-.35-.07a3.4,3.4,0,0,1,1.72-2.35l.18.32a3,3,0,0,0-.7.52A3,3,0,0,0,233.92,77.55Z" style="fill:#36a9e1"/><path d="M226.81,81.71h0a.19.19,0,0,1-.14-.22c.45-2,2.62-3.22,4.36-4.2l.82-.47a.18.18,0,0,1,.25.07.19.19,0,0,1-.06.25l-.83.47c-1.68.94-3.77,2.11-4.19,4A.18.18,0,0,1,226.81,81.71Z" style="fill:#fff"/><path d="M226.63,83.89h0a.19.19,0,0,1-.15-.21c.48-2.52,2.8-4.05,4.66-5.29l.88-.59a.18.18,0,0,1,.25,0,.19.19,0,0,1,0,.26l-.89.6c-1.8,1.19-4.05,2.68-4.5,5A.17.17,0,0,1,226.63,83.89Z" style="fill:#fff"/><path d="M227.9,83.53h0a.19.19,0,0,1-.14-.22c.45-2,2.62-3.22,4.36-4.2l.82-.47a.18.18,0,0,1,.25.07.18.18,0,0,1-.06.24l-.83.48c-1.68.94-3.77,2.11-4.18,4A.19.19,0,0,1,227.9,83.53Z" style="fill:#fff"/><path d="M229.49,67c-.28-.64-.63-1.26-1-1.88a.1.1,0,0,0-.06-.1,1.09,1.09,0,0,0-.08-.15,7.83,7.83,0,0,1-.88-1.73V63a.12.12,0,0,0,0-.09,1.93,1.93,0,0,1,0-.24c0-.21-.3-.06-.32.08a5.15,5.15,0,0,1-2.2,3A13.08,13.08,0,0,0,222.54,68c-1.42,1.93-1.91,4.53-.45,6.57a3.69,3.69,0,0,0,2.49,1.64.1.1,0,0,0,0,.12,34.45,34.45,0,0,0,0,3.52c0,.25.41.09.41-.1,0-1.12,0-2.25,0-3.37a2.35,2.35,0,0,0,.65,0,3.28,3.28,0,0,0,1-.4,11,11,0,0,0,1.72-1.15,5.28,5.28,0,0,0,2-3.34A9,9,0,0,0,229.49,67Zm-2-3,.18.31c.17.27.33.55.48.83a6.49,6.49,0,0,1-.87,1.25C227.38,65.62,227.46,64.83,227.49,64Zm-.3,2.94a7.64,7.64,0,0,0,1.15-1.45l.39.75a11.65,11.65,0,0,1,1.3,3.8l-.07.06a5.56,5.56,0,0,1-2,1.64,5.75,5.75,0,0,1-2.3.8c.13-.44.28-.87.42-1.31A25.88,25.88,0,0,0,227.19,67Zm-1.76-1.25a7,7,0,0,0,1.67-1.91,26.47,26.47,0,0,1-.26,3.08.13.13,0,0,0,0,.14c0,.1,0,.21,0,.31a20.93,20.93,0,0,1-.58,2.49,6,6,0,0,1-1.38-3.47.08.08,0,0,0-.06-.08Zm-1,.83a5.89,5.89,0,0,0,1.64,3.75q-.2.64-.42,1.29a22.77,22.77,0,0,0-.72,2.57,4.79,4.79,0,0,1-1.73-2,10.16,10.16,0,0,1-1-2.78.1.1,0,0,0-.1-.09q.1-.24.24-.48A7.82,7.82,0,0,1,224.41,66.54Zm.3,8.88c0,.17,0,.34-.05.52a4,4,0,0,1-2.8-2.47,4.78,4.78,0,0,1,0-3.66,10.83,10.83,0,0,0,.93,2.59,4.61,4.61,0,0,0,2,2.18h0Q224.76,75,224.71,75.42Zm3.93-1.09A8.71,8.71,0,0,1,227,75.56a3.82,3.82,0,0,1-1.13.55,2,2,0,0,1-.8,0s0-.09,0-.11l.06-.59a13.78,13.78,0,0,1,.49-2.48,6.53,6.53,0,0,0,2.59-.91,6.73,6.73,0,0,0,1.89-1.51v0A4.7,4.7,0,0,1,228.64,74.33Z" style="fill:#fff"/><circle cx="230.23" cy="74.02" r="14.2" style="fill:none;stroke:#fff;stroke-miterlimit:10"/><g style="clip-path:url(#clip-path)"><rect x="21.69" y="104.09" width="6.69" height="0.75" style="fill:#c8cbcf"/><rect x="19.63" y="94.99" width="10.43" height="0.75" style="fill:#c8cbcf"/><rect x="20.04" y="106.7" width="9.06" height="0.75" style="fill:#c8cbcf"/><rect x="21.32" y="109.3" width="7.46" height="0.75" style="fill:#c8cbcf"/><rect x="20.4" y="97.42" width="8.7" height="0.75" style="fill:#c8cbcf"/><rect x="20.73" y="92.56" width="8.05" height="0.75" style="fill:#c8cbcf"/><path d="M29.23,88s-9.6,3.58-9.6,7.9c0,5.08,9.58,5.46,9.59,11.2,0,4.42-9,9.31-9,9.31" style="fill:none;stroke:#fff;stroke-miterlimit:10"/><path d="M20.46,88s9.6,3.58,9.6,7.9c0,5.08-9.58,5.46-9.59,11.2,0,4.42,9,9.31,9,9.31" style="fill:none;stroke:#fff;stroke-miterlimit:10"/></g><circle cx="24.84" cy="102.24" r="14.2" style="fill:none;stroke:#fff;stroke-miterlimit:10"/><circle cx="246.42" cy="101.73" r="14.2" transform="translate(90.8 318.18) rotate(-76.72)" style="fill:none;stroke:#fff;stroke-miterlimit:10"/><circle cx="243.28" cy="99.33" r="0.68" style="fill:#fff"/><circle cx="243.28" cy="99.33" r="2.1" style="fill:#fff"/><path d="M245.83,101.63a3.4,3.4,0,0,1-4.35.43l3.92,6.79h-2.73a.73.73,0,0,0-.62.82v2.57h11.67v-2.81a.85.85,0,0,0-.82-.67c-.71-.05-2.39,0-2.39,0h-.43Z" style="fill:#fff"/><path d="M246.53,99.48h5.71v.64l1.48,1.75,2.63-1.62a.78.78,0,0,1,1,.21c.22.67-.19.84-.19.84l-3.24,2a.89.89,0,0,1-.76,0l-1.53-1.85H250c-.25-.07-.41-.61-.41-.61h-3.28A4.7,4.7,0,0,0,246.53,99.48Z" style="fill:#fff"/><path d="M246.55,99.48h5.7l0-.63,1.48-1.76,2.63,1.63a.78.78,0,0,0,1-.21c.22-.67-.19-.84-.19-.84l-3.24-2a.85.85,0,0,0-.76,0l-1.53,1.85H250c-.25.06-.41.61-.41.61h-3.29A4.48,4.48,0,0,1,246.55,99.48Z" style="fill:#fff"/><path d="M239.48,106.56l.28-1h.31l-.46,1.33h-.26l-.46-1.33h.3Z" style="fill:#fff"/><path d="M240.84,106.3h-.65v-.24h.65Z" style="fill:#fff"/><path d="M242.25,106.53l.21-.92h.29l-.36,1.33h-.25l-.28-.91-.28.91h-.25l-.36-1.33h.29l.22.91.27-.91H242Z" style="fill:#fff"/><path d="M249.27,92.91h.26a.5.5,0,0,0,.31-.1.38.38,0,0,0,.12-.3.41.41,0,0,0-.1-.28.37.37,0,0,0-.29-.1.41.41,0,0,0-.29.1.35.35,0,0,0-.11.26h-.42a.65.65,0,0,1,.1-.36.71.71,0,0,1,.29-.25,1,1,0,0,1,.42-.09.85.85,0,0,1,.6.19.67.67,0,0,1,.22.53.51.51,0,0,1-.11.33.63.63,0,0,1-.28.23.59.59,0,0,1,.32.23.62.62,0,0,1,.11.37.66.66,0,0,1-.24.54,1,1,0,0,1-1.22,0,.63.63,0,0,1-.24-.52h.43a.37.37,0,0,0,.11.27.49.49,0,0,0,.62,0,.37.37,0,0,0,.11-.3.46.46,0,0,0-.11-.32.53.53,0,0,0-.36-.1h-.25Z" style="fill:#fff"/><path d="M251.68,93.47h-.92v-.35h.92Z" style="fill:#fff"/><path d="M252.72,93.11l.36-.63h.47l-.58.94.6,1h-.47l-.38-.65-.38.65h-.47l.6-1-.58-.94h.47Z" style="fill:#fff"/><path d="M238,95.52h-1.07v1.12h-.46V94h1.68v.37h-1.22v.79H238Z" style="fill:#fff"/><path d="M238.49,95.57a3,3,0,0,1,.11-.8,2.46,2.46,0,0,1,.33-.67,1.36,1.36,0,0,1,.46-.42l.09.26a1.42,1.42,0,0,0-.42.59,2.83,2.83,0,0,0-.17.91v.16a3,3,0,0,0,.15,1,1.47,1.47,0,0,0,.44.66l-.09.24a1.36,1.36,0,0,1-.46-.42,1.91,1.91,0,0,1-.33-.67A3,3,0,0,1,238.49,95.57Z" style="fill:#39a8e0"/><path d="M240.48,95.32l.38-.64h.49l-.6,1,.62,1h-.49l-.39-.67-.39.67h-.49l.62-1-.6-1h.49Z" style="fill:#39a8e0"/><path d="M242.5,95.6a2.81,2.81,0,0,1-.11.77,2.47,2.47,0,0,1-.34.69,1.39,1.39,0,0,1-.47.42l-.09-.24a1.39,1.39,0,0,0,.44-.65,2.93,2.93,0,0,0,.15-1v0a2.9,2.9,0,0,0-.13-.91,1.76,1.76,0,0,0-.4-.67l-.06,0,.09-.25a1.28,1.28,0,0,1,.45.4,2,2,0,0,1,.33.64,2.62,2.62,0,0,1,.14.74Z" style="fill:#39a8e0"/><circle cx="41.18" cy="129.79" r="14.2" style="fill:none;stroke:#fff;stroke-miterlimit:10"/><path d="M39.16,134.6H37.38v-2.24A4,4,0,0,0,35.85,130a7.49,7.49,0,0,1-1.34-2.83c0-1.07.05-3.81,1.39-5.08s1.6-1.53,4.2-2.17c0,0,4.07-.58,6,2.27,0,0,1.13,1.26.88,4.28l1.49,3.32H47.38a.77.77,0,0,0-.43.74v3.52l-2.22.52a.77.77,0,0,0-.48.82l0,2.84H42.6v-5l2.06-.84a1.39,1.39,0,0,0,.44-.88v-.67a1.51,1.51,0,0,0,.49-2.45,1.59,1.59,0,0,0-2.3,0s-1.09,1.73.56,2.42v.61l-2.48,1.07v6.61s.08.44.49.41h3.22a.77.77,0,0,0,.42-.62v-3.19l1.95-.43a1.32,1.32,0,0,0,.68-1V131H49s.72-.37.72-.85v-.59l-1.5-3.28a10.45,10.45,0,0,0-.11-2.86,6.62,6.62,0,0,0-5.53-4.63,8.32,8.32,0,0,0-7.68,2.64,8.16,8.16,0,0,0-1.24,7,11.66,11.66,0,0,0,1.8,2.82s.79.6.71,1.12v2.88a.56.56,0,0,0,.58.53H40a.72.72,0,0,0,.47-.76V129l2.37-1.06a1.06,1.06,0,0,0,.48-.82v-3.53a1.31,1.31,0,0,0,.52-1.92A1.34,1.34,0,1,0,42,123.56v3.31l-2.41,1.18a1.13,1.13,0,0,0-.41.78v1.56l-1.74-1.07v-2.1a1.57,1.57,0,0,0,.78-2.12,1.54,1.54,0,0,0-2.9.93c.31,1.09.91,1.19.91,1.19v2.4s.17.61.59.76l2.4,1.55v2.64Z" style="fill:#fff"/><circle cx="229.93" cy="128.99" r="14.22" transform="translate(75 342.31) rotate(-83.3)" style="fill:none;stroke:#fff;stroke-miterlimit:10"/><path d="M227.82,133.44l-4.94.57.15.36,7.46,3.28.48-.1S229.47,133.71,227.82,133.44Z" style="fill:#c1c1c1"/><polygon points="236.06 123.7 233.71 128 234.1 128.87 237.08 132.74 237.24 132.59 236.4 123.74 236.06 123.7" style="fill:#c1c1c1"/><polygon points="226.37 124.63 233.9 127.88 234.1 128.87 227.47 133.49 225.84 129.3 226.37 124.63" style="fill:#c1c1c1"/><polygon points="228.92 120.33 222.11 125.43 226.52 124.78 228.92 120.33" style="fill:#c1c1c1"/><polygon points="228.86 120.45 236.4 123.74 234.34 128.63 226.52 124.78 228.86 120.45" style="fill:#fff"/><polygon points="226.52 124.78 222.21 125.36 221.94 125.94 222.88 134.01 227.47 133.49 226.52 124.78" style="fill:#fff"/><path d="M234.34,128.63l-6.86,4.85,3.41,4.12,6-4.35s.43-.53.17-.89S234.34,128.63,234.34,128.63Z" style="fill:#fff"/><line x1="225.84" y1="123.7" x2="223.93" y2="121.79" style="fill:#39a8e0;stroke:#39a8e0;stroke-miterlimit:10;stroke-width:0.5px"/><path d="M223.58,121.35h-.22v-1.07l-.33.11v-.18l.52-.2h0Z" style="fill:#39a8e0"/><path d="M224.94,121.35h-.89v-.15l.44-.48.14-.18a.42.42,0,0,0,0-.15.2.2,0,0,0-.06-.15.17.17,0,0,0-.14-.06.21.21,0,0,0-.17.07.24.24,0,0,0-.06.18H224a.38.38,0,0,1,.06-.22.31.31,0,0,1,.15-.15.48.48,0,0,1,.24-.06.45.45,0,0,1,.31.1.34.34,0,0,1,.11.27.45.45,0,0,1-.06.21,1.35,1.35,0,0,1-.18.25l-.33.35h.62Z" style="fill:#39a8e0"/><path d="M226,120.79a.7.7,0,0,1-.11.44.39.39,0,0,1-.32.14.39.39,0,0,1-.33-.14.72.72,0,0,1-.11-.42v-.23a.68.68,0,0,1,.11-.44.39.39,0,0,1,.32-.14.39.39,0,0,1,.33.14.68.68,0,0,1,.11.42Zm-.22-.25a.62.62,0,0,0,0-.27.19.19,0,0,0-.17-.09.19.19,0,0,0-.16.08.57.57,0,0,0,0,.26v.3a.63.63,0,0,0,0,.28.19.19,0,0,0,.17.09.15.15,0,0,0,.15-.08.49.49,0,0,0,.06-.27Z" style="fill:#39a8e0"/><line x1="235.97" y1="128.45" x2="237.88" y2="126.54" style="fill:#39a8e0;stroke:#39a8e0;stroke-miterlimit:10;stroke-width:0.5px"/><path d="M238.72,126.54h-.22v-1.07l-.33.11v-.19l.52-.19h0Z" style="fill:#39a8e0"/><path d="M239.78,126.54h-.22v-1.07l-.32.11v-.19l.52-.19h0Z" style="fill:#39a8e0"/><path d="M240.85,126.54h-.22v-1.07l-.33.11v-.19l.52-.19h0Z" style="fill:#39a8e0"/><g style="clip-path:url(#clip-path-2)"><path d="M191.79,71.4q.83,1.47,1.56,3L178,81.86c-.36-.74-.75-1.48-1.15-2.2Z" style="fill:#a14647;stroke:#e7e6e6"/><path d="M193.38,74.45c.49,1,1,2,1.4,3.09l-15.7,6.63c-.33-.77-.67-1.52-1-2.27Z" style="fill:#b25757;stroke:#e7e6e6"/><path d="M203.6,69.49l.15.3L193.5,74.71l-.12-.26Z" style="fill:#b25757;stroke:#e7e6e6"/><path d="M203.78,69.85l.14.3L193.65,75l-.12-.25Z" style="fill:#bd6262;stroke:#e7e6e6"/><path d="M204,70.22c.05.1.1.2.14.3L193.8,75.33l-.12-.25Z" style="fill:#cb6f6f;stroke:#e7e6e6"/><path d="M204.13,70.59c0,.1.09.2.14.3l-10.33,4.75a2.72,2.72,0,0,0-.11-.25Z" style="fill:#d87d7d;stroke:#e7e6e6"/><path d="M204.3,71l.13.3L194.09,76,194,75.7Z" style="fill:#e48989;stroke:#e7e6e6"/><path d="M204.47,71.32c0,.11.09.21.13.31l-10.37,4.64-.12-.25Z" style="fill:#f19696;stroke:#e7e6e6"/><path d="M204.63,71.69c.05.11.09.21.14.31l-10.4,4.59c0-.09-.08-.17-.11-.26Z" style="fill:#f4a1a3;stroke:#e7e6e6"/><path d="M204.8,72.07l.13.3L194.51,76.9a2,2,0,0,1-.11-.26Z" style="fill:#f5adb0;stroke:#e7e6e6"/><path d="M194.8,77.59c.44,1,.85,2.1,1.24,3.16l-16,5.78c-.28-.78-.58-1.56-.91-2.32Z" style="fill:#c26767;stroke:#e7e6e6"/><path d="M196.06,80.81c.28.79.55,1.58.8,2.39l-16.25,5.13c-.19-.59-.39-1.18-.6-1.76Z" style="fill:#983d3d;stroke:#e7e6e6"/><path d="M196.88,83.26c.25.8.49,1.61.71,2.42l-16.45,4.47c-.16-.6-.33-1.19-.52-1.78Z" style="fill:#a44949;stroke:#e7e6e6"/><path d="M197.61,85.74c.22.81.42,1.63.61,2.45L181.6,92q-.21-.9-.45-1.8Z" style="fill:#b25656;stroke:#e7e6e6"/><path d="M198.23,88.25c.19.82.36,1.64.52,2.47L182,93.85c-.11-.61-.24-1.21-.38-1.81Z" style="fill:#bd6262;stroke:#e7e6e6"/><path d="M198.76,90.78A64.87,64.87,0,0,1,199.82,101l-17,.4a47.1,47.1,0,0,0-.78-7.5Z" style="fill:#8e3233;stroke:#e7e6e6"/><path d="M209.93,88.7a74.71,74.71,0,0,1,1.25,12l-11.36.27a64.87,64.87,0,0,0-1.06-10.22Z" style="fill:#8e3233;stroke:#e7e6e6"/><path d="M199.82,101.06c0,1.13,0,2.26,0,3.38l-17-.51c0-.83,0-1.66,0-2.48Z" style="fill:#842829;stroke:#e7e6e6"/><path d="M199.81,104.51c0,1.12-.1,2.25-.2,3.38l-17-1.43c.07-.83.11-1.65.14-2.48Z" style="fill:#953a3a;stroke:#e7e6e6"/><path d="M199.61,108c-.1,1.12-.22,2.24-.38,3.36L182.35,109c.11-.82.2-1.65.27-2.47Z" style="fill:#a64b4b;stroke:#e7e6e6"/><path d="M210.93,108.91c-.05.65-.12,1.3-.19,2l-11.29-1.26c.06-.55.11-1.1.16-1.65Z" style="fill:#a64b4b;stroke:#e7e6e6"/><path d="M210.73,110.93c-.07.65-.15,1.29-.24,1.94l-11.26-1.56c.08-.55.15-1.1.21-1.64Z" style="fill:#e48989;stroke:#e7e6e6"/><path d="M199.22,111.38c0,.24-.06.48-.1.72l-16.86-2.54c0-.18.06-.36.08-.54Z" style="fill:#7a1e1f;stroke:#e7e6e6"/><path d="M210.48,112.94l0,.16-11.25-1.59v-.13Z" style="fill:#7a1e1f;stroke:#e7e6e6"/><path d="M216.11,113.73v0l-5.63-.79v0Z" style="fill:#7a1e1f;stroke:#e7e6e6"/><path d="M216.09,113.85v.05l-5.62-.8v0Z" style="fill:#933838;stroke:#e7e6e6"/><path d="M210.45,113.18l0,.15-11.24-1.62,0-.14Z" style="fill:#993e3e;stroke:#e7e6e6"/><path d="M210.41,113.41l0,.15-11.24-1.66,0-.13Z" style="fill:#b85d5e;stroke:#e7e6e6"/><path d="M210.38,113.64l0,.16-11.24-1.7,0-.13Z" style="fill:#d87d7e;stroke:#e7e6e6"/><path d="M216,114.48l0,.16-5.61-.84,0-.16Z" style="fill:#d87d7e;stroke:#e7e6e6"/><path d="M199.11,112.16c0,.24-.08.48-.11.73l-16.83-2.76.09-.53Z" style="fill:#7d2121;stroke:#e7e6e6"/><path d="M199,113c0,.24-.09.48-.13.72l-16.79-3c0-.18.07-.35.1-.53Z" style="fill:#812526;stroke:#e7e6e6"/><path d="M198.85,113.73c0,.24-.09.48-.13.72L182,111.28c0-.17.07-.35.1-.52Z" style="fill:#85292a;stroke:#e7e6e6"/><path d="M198.71,114.52c-.05.24-.1.47-.14.71l-16.71-3.37c0-.18.07-.35.1-.53Z" style="fill:#892d2e;stroke:#e7e6e6"/><path d="M198.55,115.3c-.05.24-.09.47-.15.71l-16.66-3.58c0-.18.07-.35.11-.53Z" style="fill:#8d3132;stroke:#e7e6e6"/><path d="M198.39,116.08c0,.23-.1.47-.16.71L181.61,113l.12-.52Z" style="fill:#913536;stroke:#e7e6e6"/><path d="M198.22,116.85c-.06.24-.11.48-.17.71l-16.57-4,.12-.52Z" style="fill:#953a3a;stroke:#e7e6e6"/><path d="M198,117.63c-.05.23-.11.47-.17.71l-16.52-4.2c0-.18.09-.35.13-.52Z" style="fill:#993e3e;stroke:#e7e6e6"/><path d="M209.08,120.3v.06l-11-2.69v0Z" style="fill:#993e3e;stroke:#e7e6e6"/><path d="M209.05,120.43l0,.06-11-2.7v-.05Z" style="fill:#ac5050;stroke:#e7e6e6"/><path d="M209,120.56l0,.06-11-2.72v-.05Z" style="fill:#bd6161;stroke:#e7e6e6"/><path d="M209,120.69v.06l-11-2.74V118Z" style="fill:#ce7373;stroke:#e7e6e6"/><path d="M209,120.82v.06l-11-2.76,0-.05Z" style="fill:#e18586;stroke:#e7e6e6"/><path d="M208.92,121V121l-11-2.78v0Z" style="fill:#f39999;stroke:#e7e6e6"/><path d="M208.89,121.08l0,.06-11-2.8v0Z" style="fill:#f4a8ab;stroke:#e7e6e6"/><path d="M197.84,118.4l-.18.71-16.47-4.41c.05-.17.09-.34.14-.52Z" style="fill:#9d4142;stroke:#e7e6e6"/><path d="M197.64,119.17l-.19.7L181,115.27c0-.18.09-.35.14-.52Z" style="fill:#a14647;stroke:#e7e6e6"/><path d="M197.43,119.94c-.07.23-.13.46-.2.7l-16.36-4.81.15-.52Z" style="fill:#a54a4a;stroke:#e7e6e6"/><path d="M197.21,120.7l-.21.7-16.29-5,.15-.52Z" style="fill:#a94d4e;stroke:#e7e6e6"/><path d="M197,121.46c-.12.39-.25.78-.37,1.17l-16.19-5.34.27-.86Z" style="fill:#6f1515;stroke:#e7e6e6"/><path d="M207.84,124.82l-.21.65L196.81,122c.05-.19.11-.37.17-.56Z" style="fill:#6f1515;stroke:#e7e6e6"/><path d="M207.61,125.54l-.21.65-10.79-3.56.18-.55Z" style="fill:#af5454;stroke:#e7e6e6"/><path d="M196.59,122.69l-.4,1.17-16.08-5.67c.1-.28.2-.57.29-.85Z" style="fill:#761a1a;stroke:#e7e6e6"/><path d="M196.17,123.92l-.42,1.15-16-6c.1-.28.2-.56.31-.84Z" style="fill:#7c2020;stroke:#e7e6e6"/><path d="M195.72,125.13c-.14.39-.29.77-.44,1.15L179.44,120l.33-.84Z" style="fill:#832728;stroke:#e7e6e6"/><path d="M195.26,126.34c-.16.38-.31.76-.47,1.13l-15.71-6.62.35-.84Z" style="fill:#892d2e;stroke:#e7e6e6"/><path d="M194.76,127.53c-.16.38-.32.76-.49,1.13l-15.56-6.94c.12-.28.24-.55.35-.83Z" style="fill:#8f3334;stroke:#e7e6e6"/><path d="M194.25,128.72l-.51,1.12-15.43-7.26c.13-.27.25-.54.38-.82Z" style="fill:#963b3b;stroke:#e7e6e6"/><path d="M193.71,129.89c-.18.37-.35.74-.54,1.11l-15.27-7.56.39-.81Z" style="fill:#9c4041;stroke:#e7e6e6"/><path d="M193.15,131.06c-.76,1.52-1.58,3-2.45,4.48l-14.62-8.77c.64-1.07,1.24-2.17,1.8-3.29Z" style="fill:#661411;stroke:#e7e6e6"/><path d="M203.33,136.11q-1.35,2.69-2.89,5.27l-9.74-5.84c.87-1.46,1.69-3,2.45-4.48Z" style="fill:#661411;stroke:#e7e6e6"/><path d="M208.42,138.64c-.48,1-1,1.89-1.48,2.83l-5-2.73c.48-.87.94-1.74,1.38-2.63Z" style="fill:#661411;stroke:#e7e6e6"/><path d="M206.9,141.54c-.51.93-1,1.85-1.59,2.77l-4.87-2.93c.51-.85,1-1.7,1.48-2.57Z" style="fill:#802425;stroke:#e7e6e6"/><path d="M190.66,135.59c-.87,1.46-1.81,2.89-2.8,4.27L174,130c.73-1,1.42-2.07,2.06-3.14Z" style="fill:#802425;stroke:#e7e6e6"/><path d="M200.4,141.45l-.75,1.23-9.63-6c.22-.35.43-.7.64-1Z" style="fill:#802425;stroke:#e7e6e6"/><path d="M199.61,142.74c-.26.41-.52.82-.79,1.22l-9.5-6.23c.23-.34.45-.69.67-1Z" style="fill:#9f4344;stroke:#e7e6e6"/><path d="M198.78,144c-.26.41-.53.81-.8,1.21l-9.38-6.43.69-1Z" style="fill:#bf6363;stroke:#e7e6e6"/><path d="M197.93,145.29c-.27.4-.55.79-.83,1.18l-9.24-6.61.71-1Z" style="fill:#de8384;stroke:#e7e6e6"/><path d="M187.82,139.91c-.32.45-.65.9-1,1.34L173.24,131l.73-1Z" style="fill:#5a120f;stroke:#e7e6e6"/><path d="M186.8,141.3c-.33.44-.67.88-1,1.31L172.47,132l.74-1Z" style="fill:#641310;stroke:#e7e6e6"/><path d="M185.74,142.66l-1.05,1.28-13-11,.78-.95Z" style="fill:#6d1514;stroke:#e7e6e6"/><path d="M184.64,144c-.35.43-.72.84-1.08,1.26L170.83,133.9c.27-.3.54-.61.8-.92Z" style="fill:#761a1a;stroke:#e7e6e6"/><path d="M183.51,145.29c-.37.42-.74.82-1.12,1.23L170,134.84l.82-.9Z" style="fill:#7f2323;stroke:#e7e6e6"/><path d="M182.35,146.56c-.38.41-.77.8-1.16,1.2l-12.09-12c.28-.29.57-.58.84-.88Z" style="fill:#872c2c;stroke:#e7e6e6"/><path d="M164.46,159.89c-.75.37-1.51.74-2.27,1.08l-7.05-15.52c.56-.25,1.12-.52,1.67-.8Z" style="fill:#391011;stroke:#e7e6e6"/><path d="M169.57,170l-1.3.64-4.91-10.25,1.1-.54Z" style="fill:#391011;stroke:#e7e6e6"/><path d="M172.12,175.12l-1.4.68-2.45-5.12,1.3-.64Z" style="fill:#391011;stroke:#e7e6e6"/><path d="M168.2,170.71l-1.31.61L162.19,161l1.11-.52Z" style="fill:#7e4040;stroke:#e7e6e6"/><path d="M162.13,161c-.76.35-1.54.68-2.32,1l-6.42-15.8c.58-.23,1.14-.47,1.71-.73Z" style="fill:#481111;stroke:#e7e6e6"/><path d="M159.75,162c-.77.32-1.56.62-2.35.9l-5.78-16c.58-.2,1.16-.43,1.73-.66Z" style="fill:#581a1a;stroke:#e7e6e6"/><path d="M157.34,162.94c-.79.29-1.59.56-2.39.81l-5.13-16.26c.59-.18,1.17-.38,1.76-.59Z" style="fill:#642626;stroke:#e7e6e6"/><path d="M154.89,163.77l-1.92.57-4.61-16.41,1.42-.42Z" style="fill:#2f0f10;stroke:#e7e6e6"/><path d="M152.9,164.36c-.64.18-1.29.35-1.93.51l-4.08-16.56c.48-.11,1-.24,1.43-.37Z" style="fill:#3d1112;stroke:#e7e6e6"/><path d="M156,175.3l-2.28.6-2.71-11c.64-.16,1.29-.33,1.93-.51Z" style="fill:#3d1112;stroke:#e7e6e6"/><path d="M150.9,164.88l-2,.45-3.54-16.68q.72-.15,1.44-.33Z" style="fill:#491514;stroke:#e7e6e6"/><path d="M148.89,165.34c-.66.14-1.31.27-2,.38l-3-16.78c.49-.08,1-.18,1.45-.28Z" style="fill:#541e1f;stroke:#e7e6e6"/><path d="M146.86,165.74l-2,.32-2.46-16.87c.49-.07,1-.15,1.46-.24Z" style="fill:#5d2828;stroke:#e7e6e6"/><path d="M144.81,166.06a65,65,0,0,1-10.25.66l.29-17.05a47.46,47.46,0,0,0,7.53-.48Z" style="fill:#250c0d;stroke:#e7e6e6"/><path d="M146.44,177.31a74.94,74.94,0,0,1-12.06.77l.18-11.36a65,65,0,0,0,10.25-.66Z" style="fill:#250c0d;stroke:#e7e6e6"/><path d="M134.5,166.71l-1.62,0,.73-17,1.19,0Z" style="fill:#678cac;stroke:#e7e6e6"/><path d="M132.82,166.66c-.54,0-1.08,0-1.61-.09l1.17-17c.4,0,.79.05,1.19.06Z" style="fill:#6a8eae;stroke:#e7e6e6"/><path d="M132.32,178l-.91-.05.63-11.35.78,0Z" style="fill:#6a8eae;stroke:#e7e6e6"/><path d="M132.07,183.69l-1-.05.32-5.67.91.05Z" style="fill:#6a8eae;stroke:#e7e6e6"/><path d="M131.34,178l-.92-.06.79-11.34.77.05Z" style="fill:#a9cded;stroke:#e7e6e6"/><path d="M131.14,166.57c-.54,0-1.07-.08-1.61-.14l1.62-17,1.18.1Z" style="fill:#6d91b1;stroke:#e7e6e6"/><path d="M130.35,177.9l-.91-.07.93-11.32.77.06Z" style="fill:#6d91b1;stroke:#e7e6e6"/><path d="M129.36,177.83l-.91-.08,1.08-11.32.77.07Z" style="fill:#acd0ef;stroke:#e7e6e6"/><path d="M129.47,166.43c-.54-.05-1.08-.11-1.61-.18l2.06-16.92,1.18.13Z" style="fill:#7094b4;stroke:#e7e6e6"/><path d="M128.38,177.74l-.91-.09,1.22-11.3.78.08Z" style="fill:#7094b4;stroke:#e7e6e6"/><path d="M127.39,177.64l-.91-.11,1.38-11.28.77.09Z" style="fill:#afd2f1;stroke:#e7e6e6"/><path d="M127.8,166.24c-.54-.06-1.07-.13-1.61-.21l2.51-16.86,1.18.16Z" style="fill:#7397b7;stroke:#e7e6e6"/><path d="M126.41,177.52l-.91-.11L127,166.15l.77.09Z" style="fill:#7397b7;stroke:#e7e6e6"/><path d="M125.43,177.4l-.91-.13L126.19,166l.77.11Z" style="fill:#b3d5f2;stroke:#e7e6e6"/><path d="M126.13,166l-1.6-.26,3-16.79,1.17.19Z" style="fill:#779bba;stroke:#e7e6e6"/><path d="M124.45,177.26l-1.88-.31,2-11.19,1.6.26Z" style="fill:#779bba;stroke:#e7e6e6"/><path d="M124.47,165.75l-1.59-.3,3.39-16.71,1.16.22Z" style="fill:#7c9fbf;stroke:#e7e6e6"/><path d="M122.5,176.94c-.63-.11-1.25-.23-1.87-.36l2.25-11.13,1.59.3Z" style="fill:#7c9fbf;stroke:#e7e6e6"/><path d="M121.51,182.53c-.67-.11-1.34-.24-2-.38l1.13-5.57c.62.13,1.24.25,1.87.36Z" style="fill:#7c9fbf;stroke:#e7e6e6"/><path d="M122.82,165.43c-.53-.1-1-.22-1.58-.34l3.82-16.61,1.16.25Z" style="fill:#7da1c2;stroke:#e7e6e6"/><path d="M120.55,176.57l-1.86-.4,2.55-11.08c.53.12,1.05.24,1.58.34Z" style="fill:#7da1c2;stroke:#e7e6e6"/><path d="M121.18,165.08c-.53-.12-1.05-.25-1.57-.39l4.25-16.5,1.15.28Z" style="fill:#81a5c5;stroke:#e7e6e6"/><path d="M118.62,176.15l-.89-.21,2.69-11,.76.18Z" style="fill:#81a5c5;stroke:#e7e6e6"/><path d="M117.66,175.92l-.89-.22,2.84-11,.75.19Z" style="fill:#c1e2f9;stroke:#e7e6e6"/><path d="M119.54,164.68l-1.56-.43,4.69-16.39,1.15.31Z" style="fill:#84a8c8;stroke:#e7e6e6"/><path d="M117.92,164.23c-.51-.14-1-.3-1.55-.46l5.12-16.26,1.13.34Z" style="fill:#86abcb;stroke:#e7e6e6"/><path d="M116.31,163.75l-1.53-.51,5.53-16.12,1.13.37Z" style="fill:#8aaece;stroke:#e7e6e6"/><path d="M114.72,163.22c-.51-.17-1-.35-1.52-.54l6-16,1.12.4Z" style="fill:#8eb1d1;stroke:#e7e6e6"/><path d="M111,174l-.31-.11,3.75-10.73.26.09Z" style="fill:#8eb1d1;stroke:#e7e6e6"/><path d="M110.64,173.84l-.3-.11,3.8-10.71.26.09Z" style="fill:#a7caea;stroke:#e7e6e6"/><path d="M110.27,173.71l-.3-.11,3.86-10.69.25.09Z" style="fill:#c2e3f9;stroke:#e7e6e6"/><path d="M108.36,179.06l-.32-.12L110,173.6l.3.11Z" style="fill:#c2e3f9;stroke:#e7e6e6"/><path d="M109.9,173.57l-.3-.11,3.91-10.67.26.1Z" style="fill:#dceff6;stroke:#e7e6e6"/><path d="M109.53,173.44l-.31-.11,4-10.65.25.09Z" style="fill:#f4fafc;stroke:#e7e6e6"/><path d="M113.14,162.66l-1.51-.59L118,146.26l1.11.43Z" style="fill:#92b5d5;stroke:#e7e6e6"/><path d="M109.15,173.3l-.39-.15,4-10.62.34.13Z" style="fill:#92b5d5;stroke:#e7e6e6"/><path d="M108.69,173.12l-.39-.15,4.11-10.59.33.13Z" style="fill:#afd2f1;stroke:#e7e6e6"/><path d="M108.23,173l-.39-.16L112,162.23l.33.13Z" style="fill:#d1ebf9;stroke:#e7e6e6"/><path d="M107.77,172.77l-.39-.16,4.25-10.54.33.13Z" style="fill:#f0f8fb;stroke:#e7e6e6"/><path d="M111.57,162.05c-.5-.21-1-.41-1.49-.63l6.78-15.64,1.1.46Z" style="fill:#93b8d8;stroke:#e7e6e6"/><path d="M110,161.4l-1.48-.67,7.2-15.45c.35.16.72.33,1.08.48Z" style="fill:#96bbdb;stroke:#e7e6e6"/><path d="M108.49,160.7c-.89-.41-1.76-.84-2.62-1.29l7.9-15.11c.63.34,1.27.65,1.92,1Z" style="fill:#4f7393;stroke:#e7e6e6"/><path d="M103.68,171c-1-.48-2.07-1-3.08-1.52l5.27-10.07c.86.45,1.73.88,2.62,1.29Z" style="fill:#4f7393;stroke:#e7e6e6"/><path d="M101.28,176.15l-.78-.37,2.46-5.12.72.34Z" style="fill:#4f7393;stroke:#e7e6e6"/><path d="M100.43,175.75l-.78-.38,2.51-5.09.73.35Z" style="fill:#5b7f9f;stroke:#e7e6e6"/><path d="M99.58,175.33,98.8,175l2.58-5.07.72.36Z" style="fill:#678cac;stroke:#e7e6e6"/><path d="M98.73,174.91l-.77-.4,2.64-5,.71.37Z" style="fill:#7498b8;stroke:#e7e6e6"/><path d="M105.81,159.38c-.86-.45-1.72-.93-2.56-1.42l8.6-14.72c.62.36,1.24.71,1.88,1Z" style="fill:#547898;stroke:#e7e6e6"/><path d="M103.2,157.93q-1.28-.74-2.49-1.53L110,142.09c.6.39,1.21.77,1.83,1.13Z" style="fill:#5a7e9e;stroke:#e7e6e6"/><path d="M97.45,167.74l-.94-.56,5.88-9.73.81.48Z" style="fill:#5a7e9e;stroke:#e7e6e6"/><path d="M96.45,167.14l-.94-.58,6-9.63.79.49Z" style="fill:#84a8c8;stroke:#e7e6e6"/><path d="M95.45,166.52l-.93-.59,6.19-9.53.78.5Z" style="fill:#aed1f0;stroke:#e7e6e6"/><path d="M100.65,156.36c-.82-.53-1.62-1.08-2.41-1.65l9.92-13.85c.59.41,1.18.82,1.78,1.21Z" style="fill:#5f84a4;stroke:#e7e6e6"/><path d="M98.18,154.68c-.79-.57-1.57-1.16-2.33-1.76l10.56-13.38c.56.44,1.13.87,1.72,1.29Z" style="fill:#6489a9;stroke:#e7e6e6"/><path d="M91.56,163.91l-.89-.65,6.76-9.13.75.55Z" style="fill:#6489a9;stroke:#e7e6e6"/><path d="M88.24,168.52l-.06,0,3.32-4.61.06,0Z" style="fill:#6489a9;stroke:#e7e6e6"/><path d="M88.12,168.43l-.07,0,3.33-4.61.06,0Z" style="fill:#6a8eae;stroke:#e7e6e6"/><path d="M84.79,173h0l3.32-4.61h0Z" style="fill:#6a8eae;stroke:#e7e6e6"/><path d="M84.72,173h0l3.32-4.6h0Z" style="fill:#a9cded;stroke:#e7e6e6"/><path d="M88,168.34l-.06-.05,3.33-4.6.06.05Z" style="fill:#7094b4;stroke:#e7e6e6"/><path d="M87.86,168.25l-.06-.05,3.34-4.59.06,0Z" style="fill:#789cbc;stroke:#e7e6e6"/><path d="M87.73,168.15l-.06,0L91,163.52l0,0Z" style="fill:#7da1c2;stroke:#e7e6e6"/><path d="M87.61,168.06l-.07-.05,3.37-4.58,0,0Z" style="fill:#84a8c8;stroke:#e7e6e6"/><path d="M87.48,168l-.06-.05,3.37-4.57.06,0Z" style="fill:#8aaece;stroke:#e7e6e6"/><path d="M87.35,167.87l-.06,0,3.38-4.57.06,0Z" style="fill:#92b5d5;stroke:#e7e6e6"/><path d="M90.61,163.22l-.88-.66,6.91-9,.74.56Z" style="fill:#8fb3d3;stroke:#e7e6e6"/><path d="M89.67,162.51l-.86-.67,7-8.92.73.57Z" style="fill:#bbdcf5;stroke:#e7e6e6"/><path d="M95.8,152.88c-.77-.61-1.52-1.23-2.25-1.87l11.17-12.87c.54.47,1.09.92,1.65,1.37Z" style="fill:#6a8eae;stroke:#e7e6e6"/><path d="M88.75,161.79l-.86-.69,7.18-8.81.73.59Z" style="fill:#6a8eae;stroke:#e7e6e6"/><path d="M87.84,161.06l-.85-.7,7.31-8.7.72.59Z" style="fill:#94b9d9;stroke:#e7e6e6"/><path d="M84.24,165.46l-.91-.76L87,160.36l.85.7Z" style="fill:#94b9d9;stroke:#e7e6e6"/><path d="M86.93,160.31l-.83-.72L93.55,151l.71.61Z" style="fill:#c1e2f9;stroke:#e7e6e6"/><path d="M93.5,151c-.74-.64-1.46-1.3-2.16-2l11.76-12.34c.51.49,1,1,1.58,1.45Z" style="fill:#7094b4;stroke:#e7e6e6"/><path d="M91.29,149q-1-1-2.07-2.07l12.32-11.78c.5.52,1,1,1.52,1.52Z" style="fill:#769ab9;stroke:#e7e6e6"/><path d="M83.44,157.18c-.83-.8-1.64-1.61-2.43-2.44l8.21-7.85q1,1.05,2.07,2.07Z" style="fill:#769ab9;stroke:#e7e6e6"/><path d="M89.18,146.84c-.68-.7-1.33-1.42-2-2.16l12.85-11.19c.47.54,1,1.07,1.45,1.58Z" style="fill:#7ba0c0;stroke:#e7e6e6"/><path d="M87.17,144.63q-1.45-1.66-2.79-3.43L98,130.93c.65.86,1.33,1.71,2,2.52Z" style="fill:#345979;stroke:#e7e6e6"/><path d="M78.59,152.09q-1.71-2-3.28-4l9.07-6.85q1.34,1.77,2.79,3.43Z" style="fill:#345979;stroke:#e7e6e6"/><path d="M84.35,141.15c-.89-1.18-1.74-2.38-2.54-3.62l14.29-9.29c.59.9,1.21,1.79,1.86,2.65Z" style="fill:#3d6181;stroke:#e7e6e6"/><path d="M75.27,148l0,0,9.08-6.84,0,0Z" style="fill:#3d6181;stroke:#e7e6e6"/><path d="M70.73,151.41l0,0L75.28,148v0Z" style="fill:#3d6181;stroke:#e7e6e6"/><path d="M70.7,151.36v0L75.25,148v0Z" style="fill:#567a9b;stroke:#e7e6e6"/><path d="M75.21,147.91l0,0,9.09-6.83v0Z" style="fill:#3e6383;stroke:#e7e6e6"/><path d="M75.15,147.83l0,0,9.1-6.82v0Z" style="fill:#426585;stroke:#e7e6e6"/><path d="M75.09,147.74l0,0,9.11-6.79h0Z" style="fill:#436888;stroke:#e7e6e6"/><path d="M75,147.66l0,0,9.12-6.78h0Z" style="fill:#466a8a;stroke:#e7e6e6"/><path d="M75,147.58v0l9.12-6.77,0,0Z" style="fill:#496d8d;stroke:#e7e6e6"/><path d="M70.4,151v0L75,147.56v0Z" style="fill:#496d8d;stroke:#e7e6e6"/><path d="M74.9,147.5v0L84,140.72l0,0Z" style="fill:#4b6f8e;stroke:#e7e6e6"/><path d="M70.34,150.88l0,0,4.57-3.38v0Z" style="fill:#4b6f8e;stroke:#e7e6e6"/><path d="M74.84,147.42v0L84,140.65v0Z" style="fill:#4e7292;stroke:#e7e6e6"/><path d="M74.78,147.34v0l9.15-6.74v0Z" style="fill:#507494;stroke:#e7e6e6"/><path d="M74.72,147.26v0l9.16-6.72v0Z" style="fill:#537797;stroke:#e7e6e6"/><path d="M74.66,147.17v0l9.17-6.71v0Z" style="fill:#557999;stroke:#e7e6e6"/><path d="M74.6,147.09v0l9.18-6.7v0Z" style="fill:#577b9b;stroke:#e7e6e6"/><path d="M74.54,147v0l9.19-6.69v0Z" style="fill:#5a7e9e;stroke:#e7e6e6"/><path d="M70,150.36l0,0,4.59-3.35,0,0Z" style="fill:#5a7e9e;stroke:#e7e6e6"/><path d="M65.36,153.7l0,.05L70,150.4l0,0Z" style="fill:#5a7e9e;stroke:#e7e6e6"/><path d="M69.94,150.34l0,0L74.56,147l0,0Z" style="fill:#6388a8;stroke:#e7e6e6"/><path d="M69.93,150.32l0,.05L74.55,147l0,0Z" style="fill:#6d91b1;stroke:#e7e6e6"/><path d="M65.33,153.66l0,.05L70,150.37l0-.05Z" style="fill:#6d91b1;stroke:#e7e6e6"/><path d="M69.91,150.3l0,0L74.54,147l0,0Z" style="fill:#789cbc;stroke:#e7e6e6"/><path d="M69.9,150.28l0,.05,4.6-3.34,0-.05Z" style="fill:#82a5c5;stroke:#e7e6e6"/><path d="M74.48,146.93v0l9.2-6.68v0Z" style="fill:#5c80a0;stroke:#e7e6e6"/><path d="M69.89,150.27l0,0,4.6-3.33v0Z" style="fill:#5c80a0;stroke:#e7e6e6"/><path d="M74.42,146.85v0l9.21-6.66v0Z" style="fill:#5f83a3;stroke:#e7e6e6"/><path d="M74.37,146.76l0,0,9.22-6.65v0Z" style="fill:#6085a5;stroke:#e7e6e6"/><path d="M69.76,150.09l0,0,4.61-3.33,0,0Z" style="fill:#6085a5;stroke:#e7e6e6"/><path d="M74.31,146.68l0,0L83.51,140l0,0Z" style="fill:#6388a8;stroke:#e7e6e6"/><path d="M74.25,146.6l0,0L83.46,140l0,0Z" style="fill:#658aaa;stroke:#e7e6e6"/><path d="M69.63,149.91l0,.05,4.62-3.32,0,0Z" style="fill:#658aaa;stroke:#e7e6e6"/><path d="M69.62,149.89l0,.05,4.61-3.32,0,0Z" style="fill:#7196b5;stroke:#e7e6e6"/><path d="M69.6,149.87l0,0,4.62-3.31,0,0Z" style="fill:#7fa3c3;stroke:#e7e6e6"/><path d="M69.58,149.85l0,0,4.61-3.31,0,0Z" style="fill:#8baecf;stroke:#e7e6e6"/><path d="M74.19,146.52l0,0,9.24-6.62,0,0Z" style="fill:#688dad;stroke:#e7e6e6"/><path d="M74.13,146.43l0,0,9.25-6.6,0,0Z" style="fill:#6a8eae;stroke:#e7e6e6"/><path d="M74.07,146.35l0,0,9.26-6.59,0,0Z" style="fill:#6d91b1;stroke:#e7e6e6"/><path d="M74,146.27v0l9.26-6.58,0,0Z" style="fill:#6f93b3;stroke:#e7e6e6"/><path d="M69.38,149.56l0,0L74,146.25v0Z" style="fill:#6f93b3;stroke:#e7e6e6"/><path d="M74,146.19v0l9.27-6.56,0,0Z" style="fill:#7196b5;stroke:#e7e6e6"/><path d="M69.31,149.47v0l4.64-3.29v0Z" style="fill:#7196b5;stroke:#e7e6e6"/><path d="M73.89,146.1v0l9.28-6.55,0,0Z" style="fill:#7498b8;stroke:#e7e6e6"/><path d="M73.84,146l0,0,9.29-6.54,0,0Z" style="fill:#779bba;stroke:#e7e6e6"/><path d="M73.78,145.94l0,0,9.31-6.53v0Z" style="fill:#7a9ebe;stroke:#e7e6e6"/><path d="M73.72,145.85l0,0L83,139.32v0Z" style="fill:#7ba0c0;stroke:#e7e6e6"/><path d="M73.66,145.77v0l9.32-6.5v0Z" style="fill:#7fa3c3;stroke:#e7e6e6"/><path d="M69,149v0l4.66-3.25v0Z" style="fill:#7fa3c3;stroke:#e7e6e6"/><path d="M73.6,145.69v0l9.33-6.49v0Z" style="fill:#81a5c5;stroke:#e7e6e6"/><path d="M73.54,145.6v0l9.34-6.47h0Z" style="fill:#84a8c8;stroke:#e7e6e6"/><path d="M73.49,145.52l0,0L82.82,139h0Z" style="fill:#85a9c9;stroke:#e7e6e6"/><path d="M73.43,145.44l0,0L82.77,139v0Z" style="fill:#89adcc;stroke:#e7e6e6"/><path d="M68.75,148.66l0,0,4.67-3.23v0Z" style="fill:#89adcc;stroke:#e7e6e6"/><path d="M64.08,151.89l0,.05,4.67-3.23,0-.05Z" style="fill:#89adcc;stroke:#e7e6e6"/><path d="M64.06,151.87l0,0,4.68-3.23,0-.05Z" style="fill:#c8e8fb;stroke:#e7e6e6"/><path d="M68.72,148.62l0,0,4.67-3.22v0Z" style="fill:#a1c5e5;stroke:#e7e6e6"/><path d="M73.37,145.35v0l9.36-6.44v0Z" style="fill:#8aaece;stroke:#e7e6e6"/><path d="M68.69,148.57l0,0,4.69-3.22v0Z" style="fill:#8aaece;stroke:#e7e6e6"/><path d="M73.31,145.27v0l9.37-6.43v0Z" style="fill:#8db0d0;stroke:#e7e6e6"/><path d="M73.26,145.19l0,0,9.38-6.42,0,0Z" style="fill:#90b3d4;stroke:#e7e6e6"/><path d="M73.2,145.1l0,0,9.4-6.4v0Z" style="fill:#93b6d6;stroke:#e7e6e6"/><path d="M68.51,148.3l0,0,4.69-3.2,0,0Z" style="fill:#93b6d6;stroke:#e7e6e6"/><path d="M73.14,145v0l9.4-6.39v0Z" style="fill:#94b9d9;stroke:#e7e6e6"/><path d="M73.09,144.94l0,0,9.41-6.37v0Z" style="fill:#96bbdb;stroke:#e7e6e6"/><path d="M68.38,148.12v0l4.7-3.19,0,0Z" style="fill:#96bbdb;stroke:#e7e6e6"/><path d="M73,144.85l0,0,9.42-6.36h0Z" style="fill:#9abede;stroke:#e7e6e6"/><path d="M68.32,148v0l4.7-3.18,0,0Z" style="fill:#9abede;stroke:#e7e6e6"/><path d="M73,144.77v0l9.42-6.35h0Z" style="fill:#9cbfdf;stroke:#e7e6e6"/><path d="M72.91,144.68v0l9.43-6.34,0,0Z" style="fill:#9ec2e2;stroke:#e7e6e6"/><path d="M72.86,144.6l0,0,9.45-6.33v0Z" style="fill:#a0c4e4;stroke:#e7e6e6"/><path d="M72.8,144.51v0l9.45-6.31v0Z" style="fill:#a2c6e6;stroke:#e7e6e6"/><path d="M72.75,144.43l0,0,9.46-6.3v0Z" style="fill:#a6c9ea;stroke:#e7e6e6"/><path d="M72.69,144.35v0L82.14,138v0Z" style="fill:#a8cbeb;stroke:#e7e6e6"/><path d="M72.63,144.26v0L82.09,138h0Z" style="fill:#aacdee;stroke:#e7e6e6"/><path d="M72.58,144.18l0,0,9.49-6.26v0Z" style="fill:#acd0ef;stroke:#e7e6e6"/><path d="M72.52,144.09v0L82,137.82v0Z" style="fill:#afd2f1;stroke:#e7e6e6"/><path d="M72.47,144l0,0,9.5-6.24v0Z" style="fill:#b1d4f2;stroke:#e7e6e6"/><path d="M72.41,143.92v0l9.5-6.22,0,0Z" style="fill:#b5d7f3;stroke:#e7e6e6"/><path d="M72.35,143.84v0l9.52-6.22v0Z" style="fill:#b8daf4;stroke:#e7e6e6"/><path d="M72.3,143.75l0,0,9.53-6.2v0Z" style="fill:#bbdcf5;stroke:#e7e6e6"/><path d="M67.54,146.85l0,.05,4.76-3.11,0,0Z" style="fill:#bbdcf5;stroke:#e7e6e6"/><path d="M67.52,146.83l0,0,4.76-3.1,0,0Z" style="fill:#c6e7fb;stroke:#e7e6e6"/><path d="M67.51,146.81l0,0,4.76-3.1,0,0Z" style="fill:#d5edf8;stroke:#e7e6e6"/><path d="M67.49,146.78l0,.05,4.76-3.1,0,0Z" style="fill:#e3f2f7;stroke:#e7e6e6"/><path d="M81.78,137.48q-1.22-1.86-2.28-3.79l14.9-8.27c.53.94,1.08,1.87,1.67,2.78Z" style="fill:#466a8a;stroke:#e7e6e6"/><path d="M72.24,143.67c-.94-1.46-1.83-2.94-2.68-4.46l9.94-5.52q1.06,1.94,2.28,3.79Z" style="fill:#466a8a;stroke:#e7e6e6"/><path d="M79.47,133.64c-.72-1.29-1.39-2.6-2-3.94l15.44-7.22c.46,1,.95,2,1.48,2.89Z" style="fill:#4e7292;stroke:#e7e6e6"/><path d="M69.53,139.15c-.42-.75-.82-1.51-1.21-2.27l10.13-5.16q.49,1,1,1.92Z" style="fill:#4e7292;stroke:#e7e6e6"/><path d="M64.56,141.9c0-.08-.09-.16-.13-.24l5-2.74.13.23Z" style="fill:#4e7292;stroke:#e7e6e6"/><path d="M64.39,141.59c0-.08-.09-.16-.13-.24l5-2.72.12.23Z" style="fill:#547898;stroke:#e7e6e6"/><path d="M59.4,144.32l-.14-.26,5-2.71c0,.08.08.16.13.24Z" style="fill:#547898;stroke:#e7e6e6"/><path d="M64.22,141.28c0-.08-.09-.16-.13-.24l5-2.7.12.23Z" style="fill:#5a7e9e;stroke:#e7e6e6"/><path d="M59.22,144l0,0,5-2.71,0-.05Z" style="fill:#5a7e9e;stroke:#e7e6e6"/><path d="M54.23,146.7l0,.07,5-2.72,0-.06Z" style="fill:#5a7e9e;stroke:#e7e6e6"/><path d="M54.22,146.69l0,.06,5-2.71,0-.06Z" style="fill:#98bcdc;stroke:#e7e6e6"/><path d="M59.21,144l0,.06,5-2.72,0,0Z" style="fill:#6287a7;stroke:#e7e6e6"/><path d="M59.2,143.94l0,.05,5-2.71,0-.05Z" style="fill:#6b8fb0;stroke:#e7e6e6"/><path d="M59.18,143.92l0,.05,5-2.71,0,0Z" style="fill:#7498b8;stroke:#e7e6e6"/><path d="M59.17,143.89l0,.06,5-2.71,0-.05Z" style="fill:#7da1c2;stroke:#e7e6e6"/><path d="M59.16,143.87l0,0,5-2.7,0-.05Z" style="fill:#86abcb;stroke:#e7e6e6"/><path d="M54.16,146.57l0,.06,5-2.71,0,0Z" style="fill:#86abcb;stroke:#e7e6e6"/><path d="M59.15,143.85l0,.05,5-2.71,0-.05Z" style="fill:#90b3d4;stroke:#e7e6e6"/><path d="M59.13,143.82l0,.05,5-2.7,0,0Z" style="fill:#98bcdc;stroke:#e7e6e6"/><path d="M59.12,143.8l0,0,5-2.7,0-.05Z" style="fill:#a1c5e5;stroke:#e7e6e6"/><path d="M59.11,143.77l0,.06,5-2.7,0,0Z" style="fill:#aacdee;stroke:#e7e6e6"/><path d="M59.09,143.75l0,.05,5-2.7,0,0Z" style="fill:#b5d7f3;stroke:#e7e6e6"/><path d="M59.08,143.73l0,.05,5-2.7,0-.05Z" style="fill:#bfe0f7;stroke:#e7e6e6"/><path d="M59.07,143.7l0,.05,5-2.69,0-.05Z" style="fill:#c7e8fb;stroke:#e7e6e6"/><path d="M59.06,143.68l0,0,5-2.69,0,0Z" style="fill:#d1ebf9;stroke:#e7e6e6"/><path d="M64.05,141c0-.08-.09-.17-.13-.25l5-2.67.12.23Z" style="fill:#6085a5;stroke:#e7e6e6"/><path d="M59,143.65l0,0,5-2.69,0,0Z" style="fill:#6085a5;stroke:#e7e6e6"/><path d="M59,143.61l0,0L64,141v0Z" style="fill:#6f93b3;stroke:#e7e6e6"/><path d="M59,143.57l0,0,5-2.69v0Z" style="fill:#80a4c4;stroke:#e7e6e6"/><path d="M54,146.25l0,.06,5-2.68,0-.06Z" style="fill:#80a4c4;stroke:#e7e6e6"/><path d="M54,146.23l0,.06,5-2.68,0-.06Z" style="fill:#c0e1f8;stroke:#e7e6e6"/><path d="M59,143.53v0l5-2.68v0Z" style="fill:#90b3d4;stroke:#e7e6e6"/><path d="M54,146.21l0,0,5-2.69v0Z" style="fill:#90b3d4;stroke:#e7e6e6"/><path d="M59,143.49l0,0,5-2.68,0,0Z" style="fill:#9fc3e3;stroke:#e7e6e6"/><path d="M58.93,143.45l0,0,5-2.68,0,0Z" style="fill:#afd2f1;stroke:#e7e6e6"/><path d="M58.91,143.4l0,0,5-2.68,0,0Z" style="fill:#c1e2f9;stroke:#e7e6e6"/><path d="M58.89,143.36v0l5-2.68,0,0Z" style="fill:#d1ebf9;stroke:#e7e6e6"/><path d="M63.88,140.65c0-.08-.08-.16-.13-.24l5-2.65.12.23Z" style="fill:#668aab;stroke:#e7e6e6"/><path d="M63.72,140.34c0-.08-.09-.16-.13-.24l5-2.63c0,.07.07.15.11.22Z" style="fill:#6d90b1;stroke:#e7e6e6"/><path d="M58.69,143l-.14-.25,5-2.63c0,.08.08.16.13.24Z" style="fill:#6d90b1;stroke:#e7e6e6"/><path d="M63.55,140l-.12-.25,5-2.6.12.22Z" style="fill:#7397b7;stroke:#e7e6e6"/><path d="M63.39,139.71l-.13-.24,5.06-2.59.12.23Z" style="fill:#7a9ebe;stroke:#e7e6e6"/><path d="M68.29,136.82c-.39-.77-.76-1.53-1.12-2.31l10.29-4.81c.31.66.63,1.31,1,2Z" style="fill:#8db0d0;stroke:#e7e6e6"/><path d="M77.43,129.64c-.62-1.33-1.19-2.69-1.72-4.06l15.91-6.12c.38,1,.81,2,1.26,3Z" style="fill:#577b9b;stroke:#e7e6e6"/><path d="M67.13,134.44l0-.12,10.31-4.78,0,.1Z" style="fill:#577b9b;stroke:#e7e6e6"/><path d="M62,136.85v0l5.15-2.4v0Z" style="fill:#577b9b;stroke:#e7e6e6"/><path d="M61.94,136.74l0,0,5.16-2.39v0Z" style="fill:#6f93b3;stroke:#e7e6e6"/><path d="M67,134.25l-.05-.12,10.32-4.75,0,.1Z" style="fill:#5c80a0;stroke:#e7e6e6"/><path d="M67,134.06l-.06-.12,10.34-4.73,0,.11Z" style="fill:#6085a5;stroke:#e7e6e6"/><path d="M61.79,136.43v0L67,134.08v0Z" style="fill:#6085a5;stroke:#e7e6e6"/><path d="M56.63,138.81l0,.05,5.16-2.38,0,0Z" style="fill:#6085a5;stroke:#e7e6e6"/><path d="M56.62,138.78l0,.05,5.16-2.37,0-.05Z" style="fill:#9fc3e3;stroke:#e7e6e6"/><path d="M61.77,136.38v0L66.94,134v0Z" style="fill:#6d90b1;stroke:#e7e6e6"/><path d="M61.75,136.33v0L66.92,134v0Z" style="fill:#7a9ebe;stroke:#e7e6e6"/><path d="M61.72,136.28v0l5.17-2.36v0Z" style="fill:#86abcb;stroke:#e7e6e6"/><path d="M56.55,138.64v0l5.17-2.36v0Z" style="fill:#86abcb;stroke:#e7e6e6"/><path d="M66.87,133.87l-.06-.12,10.35-4.7,0,.1Z" style="fill:#658aaa;stroke:#e7e6e6"/><path d="M66.78,133.68l0-.13,10.36-4.66,0,.1Z" style="fill:#6a8eae;stroke:#e7e6e6"/><path d="M61.6,136l-.06-.13,5.19-2.34,0,.13Z" style="fill:#6a8eae;stroke:#e7e6e6"/><path d="M66.69,133.49l0-.13L77,128.72l0,.11Z" style="fill:#6f93b3;stroke:#e7e6e6"/><path d="M61.51,135.81l0,.05,5.18-2.33,0,0Z" style="fill:#6f93b3;stroke:#e7e6e6"/><path d="M61.5,135.78l0,.05,5.18-2.33,0,0Z" style="fill:#779bba;stroke:#e7e6e6"/><path d="M56.31,138.11l0,.06,5.18-2.33,0-.06Z" style="fill:#779bba;stroke:#e7e6e6"/><path d="M56.31,138.09l0,.07,5.18-2.33,0-.06Z" style="fill:#b7d9f4;stroke:#e7e6e6"/><path d="M61.48,135.75l0,.05,5.19-2.33,0,0Z" style="fill:#7da1c2;stroke:#e7e6e6"/><path d="M61.47,135.73l0,0,5.19-2.33,0,0Z" style="fill:#85a9c8;stroke:#e7e6e6"/><path d="M61.46,135.7l0,0,5.18-2.32v0Z" style="fill:#8db0d0;stroke:#e7e6e6"/><path d="M56.27,138l0,.06,5.19-2.32,0-.06Z" style="fill:#8db0d0;stroke:#e7e6e6"/><path d="M56.27,138l0,.06,5.18-2.32,0-.06Z" style="fill:#b8daf4;stroke:#e7e6e6"/><path d="M56.26,138l0,.07,5.19-2.32,0-.06Z" style="fill:#e4f3f8;stroke:#e7e6e6"/><path d="M61.44,135.67l0,0,5.19-2.32,0,0Z" style="fill:#93b8d8;stroke:#e7e6e6"/><path d="M61.43,135.64l0,0,5.19-2.32,0,0Z" style="fill:#9bbfde;stroke:#e7e6e6"/><path d="M66.61,133.29l-.06-.12,10.39-4.61,0,.1Z" style="fill:#7498b8;stroke:#e7e6e6"/><path d="M61.42,135.61l-.06-.14,5.19-2.3.06.12Z" style="fill:#7498b8;stroke:#e7e6e6"/><path d="M66.52,133.1l0-.12,10.4-4.58,0,.1Z" style="fill:#7a9ebe;stroke:#e7e6e6"/><path d="M66.44,132.91l-.06-.13,10.42-4.55,0,.11Z" style="fill:#7fa3c3;stroke:#e7e6e6"/><path d="M61.23,135.19l0-.13,5.2-2.28.06.13Z" style="fill:#7fa3c3;stroke:#e7e6e6"/><path d="M66.35,132.71l0-.12,10.42-4.52,0,.1Z" style="fill:#84a8c8;stroke:#e7e6e6"/><path d="M61.14,135l0,.05,5.2-2.27,0,0Z" style="fill:#84a8c8;stroke:#e7e6e6"/><path d="M61.13,135l0,0,5.21-2.28,0,0Z" style="fill:#8aaece;stroke:#e7e6e6"/><path d="M55.92,137.23l0,.05,5.2-2.27,0,0Z" style="fill:#8aaece;stroke:#e7e6e6"/><path d="M61.12,134.93l0,0,5.21-2.27,0,0Z" style="fill:#90b3d4;stroke:#e7e6e6"/><path d="M55.91,137.2l0,.08L61.15,135l0-.07Z" style="fill:#90b3d4;stroke:#e7e6e6"/><path d="M55.91,137.2l0,.07L61.15,135l0-.07Z" style="fill:#98bcdc;stroke:#e7e6e6"/><path d="M55.91,137.19l0,.08L61.15,135l0-.07Z" style="fill:#a1c5e5;stroke:#e7e6e6"/><path d="M55.91,137.19l0,.08L61.15,135l0-.07Z" style="fill:#aacdee;stroke:#e7e6e6"/><path d="M55.91,137.19l0,.08L61.15,135l0-.08Z" style="fill:#b4d6f3;stroke:#e7e6e6"/><path d="M55.91,137.19l0,.08L61.15,135l0-.08Z" style="fill:#bedff7;stroke:#e7e6e6"/><path d="M55.91,137.19l0,.07L61.15,135l0-.07Z" style="fill:#c6e7fb;stroke:#e7e6e6"/><path d="M55.9,137.18l0,.08L61.15,135l0-.07Z" style="fill:#d0ebf9;stroke:#e7e6e6"/><path d="M55.9,137.18l0,.08L61.15,135l0-.07Z" style="fill:#d9eef6;stroke:#e7e6e6"/><path d="M55.9,137.18l0,.08L61.15,135l0-.07Z" style="fill:#e4f3f7;stroke:#e7e6e6"/><path d="M55.9,137.18l0,.08,5.2-2.27,0-.08Z" style="fill:#edf7fa;stroke:#e7e6e6"/><path d="M55.9,137.18l0,.07,5.2-2.27,0-.07Z" style="fill:#f4fafc;stroke:#e7e6e6"/><path d="M55.9,137.17l0,.08L61.14,135l0-.07Z" style="fill:#fdfeff;stroke:#e7e6e6"/><path d="M55.9,137.17l0,.08L61.14,135l0-.07Z" style="fill:#fff;stroke:#e7e6e6"/><path d="M61.11,134.91l0,0,5.21-2.26,0-.05Z" style="fill:#96bbdb;stroke:#e7e6e6"/><path d="M55.9,137.17l0,.08L61.14,135l0-.07Z" style="fill:#96bbdb;stroke:#e7e6e6"/><path d="M55.9,137.17l0,.07L61.14,135l0-.07Z" style="fill:#a6c9ea;stroke:#e7e6e6"/><path d="M55.9,137.16l0,.08L61.14,135l0-.07Z" style="fill:#b7d9f4;stroke:#e7e6e6"/><path d="M55.89,137.16l0,.08L61.14,135l0-.07Z" style="fill:#c6e7fb;stroke:#e7e6e6"/><path d="M55.89,137.16l0,.07L61.14,135l0-.07Z" style="fill:#d8eef7;stroke:#e7e6e6"/><path d="M55.89,137.15l0,.08L61.13,135l0-.07Z" style="fill:#e8f5f8;stroke:#e7e6e6"/><path d="M55.89,137.15l0,.08L61.13,135l0-.07Z" style="fill:#f6fbfc;stroke:#e7e6e6"/><path d="M55.89,137.15l0,.07L61.13,135l0-.07Z" style="fill:#fff;stroke:#e7e6e6"/><path d="M61.1,134.88l0,.05,5.21-2.27,0,0Z" style="fill:#9cc0e0;stroke:#e7e6e6"/><path d="M61.09,134.85l0,.05,5.21-2.26,0,0Z" style="fill:#a2c6e6;stroke:#e7e6e6"/><path d="M55.87,137.12l0,0,5.21-2.27,0-.05Z" style="fill:#a2c6e6;stroke:#e7e6e6"/><path d="M61.08,134.83l0,0,5.21-2.27,0,0Z" style="fill:#a9cded;stroke:#e7e6e6"/><path d="M61.06,134.8l0,0,5.21-2.26,0-.05Z" style="fill:#afd2f1;stroke:#e7e6e6"/><path d="M66.27,132.52l0-.12,10.43-4.5,0,.11Z" style="fill:#8aaece;stroke:#e7e6e6"/><path d="M61.05,134.78l0,0,5.21-2.26v0Z" style="fill:#8aaece;stroke:#e7e6e6"/><path d="M61,134.73v0l5.22-2.26,0,0Z" style="fill:#93b8d8;stroke:#e7e6e6"/><path d="M61,134.69v0l5.22-2.26v0Z" style="fill:#9dc1e1;stroke:#e7e6e6"/><path d="M61,134.65v0l5.22-2.25v0Z" style="fill:#a8cbeb;stroke:#e7e6e6"/><path d="M61,134.61l0,0,5.22-2.24,0,0Z" style="fill:#b1d4f2;stroke:#e7e6e6"/><path d="M66.19,132.33l-.06-.13,10.45-4.46,0,.1Z" style="fill:#8fb3d3;stroke:#e7e6e6"/><path d="M66.1,132.13l0-.12,10.46-4.44,0,.11Z" style="fill:#93b8d8;stroke:#e7e6e6"/><path d="M60.87,134.36l0,0,5.22-2.23,0-.05Z" style="fill:#93b8d8;stroke:#e7e6e6"/><path d="M60.86,134.34l0,0,5.22-2.23,0,0Z" style="fill:#98bcdc;stroke:#e7e6e6"/><path d="M60.85,134.31l0,.05,5.22-2.22,0,0Z" style="fill:#9ec2e2;stroke:#e7e6e6"/><path d="M60.84,134.29l0,.05,5.23-2.22,0-.05Z" style="fill:#a5c8e9;stroke:#e7e6e6"/><path d="M60.84,134.27l0,0,5.23-2.23,0,0Z" style="fill:#a9cded;stroke:#e7e6e6"/><path d="M60.83,134.24l0,0,5.23-2.22,0,0Z" style="fill:#afd2f1;stroke:#e7e6e6"/><path d="M60.82,134.22l0,.05,5.23-2.22,0-.05Z" style="fill:#b7d9f4;stroke:#e7e6e6"/><path d="M55.58,136.44l0,.05,5.23-2.22,0-.05Z" style="fill:#b7d9f4;stroke:#e7e6e6"/><path d="M60.81,134.2l0,.05L66.06,132l0-.05Z" style="fill:#bcddf6;stroke:#e7e6e6"/><path d="M60.8,134.17l0,.05L66.05,132l0,0Z" style="fill:#c2e3f9;stroke:#e7e6e6"/><path d="M66,131.94l0-.13,10.47-4.4,0,.1Z" style="fill:#98bcdc;stroke:#e7e6e6"/><path d="M65.94,131.74l0-.12,10.48-4.38,0,.11Z" style="fill:#9dc1e1;stroke:#e7e6e6"/><path d="M60.7,133.94l0,.05,5.24-2.2,0,0Z" style="fill:#9dc1e1;stroke:#e7e6e6"/><path d="M60.69,133.91l0,.05,5.24-2.2,0,0Z" style="fill:#a4c7e8;stroke:#e7e6e6"/><path d="M60.68,133.89l0,.05,5.24-2.2,0-.05Z" style="fill:#a9cded;stroke:#e7e6e6"/><path d="M60.67,133.86l0,0,5.24-2.19,0-.05Z" style="fill:#b1d3f1;stroke:#e7e6e6"/><path d="M60.65,133.84l0,0,5.25-2.19,0,0Z" style="fill:#b8daf4;stroke:#e7e6e6"/><path d="M60.64,133.81l0,.05,5.25-2.19,0,0Z" style="fill:#bedff7;stroke:#e7e6e6"/><path d="M60.63,133.78l0,.05,5.25-2.19,0,0Z" style="fill:#c4e6fb;stroke:#e7e6e6"/><path d="M60.62,133.76l0,.05,5.25-2.19,0-.05Z" style="fill:#cbe9fc;stroke:#e7e6e6"/><path d="M65.86,131.55l-.06-.13,10.5-4.34,0,.1Z" style="fill:#a2c6e6;stroke:#e7e6e6"/><path d="M60.61,133.73l-.06-.13,5.25-2.18.06.13Z" style="fill:#a2c6e6;stroke:#e7e6e6"/><path d="M65.78,131.35l-.06-.12,10.52-4.32,0,.11Z" style="fill:#a8cbeb;stroke:#e7e6e6"/><path d="M60.52,133.52v0l5.25-2.17v0Z" style="fill:#a8cbeb;stroke:#e7e6e6"/><path d="M60.5,133.47v0l5.25-2.16v0Z" style="fill:#b4d6f3;stroke:#e7e6e6"/><path d="M60.48,133.42v0l5.25-2.16v0Z" style="fill:#c2e3f9;stroke:#e7e6e6"/><path d="M60.46,133.36v0l5.25-2.16v0Z" style="fill:#cfebf9;stroke:#e7e6e6"/><path d="M65.7,131.16l-.06-.13,10.53-4.29,0,.11Z" style="fill:#acd0ef;stroke:#e7e6e6"/><path d="M60.44,133.31l0,.06,5.26-2.16,0-.05Z" style="fill:#acd0ef;stroke:#e7e6e6"/><path d="M60.43,133.29l0,.06,5.26-2.16,0-.05Z" style="fill:#b1d4f2;stroke:#e7e6e6"/><path d="M60.42,133.27l0,0,5.26-2.15,0,0Z" style="fill:#b8daf4;stroke:#e7e6e6"/><path d="M60.41,133.25l0,.05,5.26-2.15,0-.05Z" style="fill:#bddef6;stroke:#e7e6e6"/><path d="M60.4,133.23l0,.05,5.25-2.15,0,0Z" style="fill:#c2e3f9;stroke:#e7e6e6"/><path d="M60.39,133.21l0,0,5.26-2.15,0-.05Z" style="fill:#c6e7fb;stroke:#e7e6e6"/><path d="M60.39,133.19l0,.05,5.26-2.15,0-.05Z" style="fill:#cce9fb;stroke:#e7e6e6"/><path d="M60.38,133.16l0,.06,5.26-2.15,0,0Z" style="fill:#d1ebf9;stroke:#e7e6e6"/><path d="M60.37,133.14l0,.06,5.26-2.15,0-.05Z" style="fill:#d7edf7;stroke:#e7e6e6"/><path d="M60.36,133.12l0,.06L65.64,131l0-.05Z" style="fill:#dceff6;stroke:#e7e6e6"/><path d="M65.62,131l-.06-.12,10.54-4.26,0,.11Z" style="fill:#b1d4f2;stroke:#e7e6e6"/><path d="M60.35,133.1,60.3,133l5.26-2.13.06.12Z" style="fill:#b1d4f2;stroke:#e7e6e6"/><path d="M65.54,130.77l-.05-.13L76,126.41l0,.11Z" style="fill:#b8daf4;stroke:#e7e6e6"/><path d="M60.27,132.89v0l5.27-2.12v0Z" style="fill:#b8daf4;stroke:#e7e6e6"/><path d="M60.25,132.85v0l5.27-2.12v0Z" style="fill:#c2e3f9;stroke:#e7e6e6"/><path d="M60.23,132.81l0,0,5.27-2.12v0Z" style="fill:#cce9fb;stroke:#e7e6e6"/><path d="M60.22,132.77v0l5.27-2.12v0Z" style="fill:#d7edf7;stroke:#e7e6e6"/><path d="M60.2,132.72v0l5.28-2.12,0,0Z" style="fill:#e2f2f7;stroke:#e7e6e6"/><path d="M65.46,130.57l0-.12L76,126.25l0,.1Z" style="fill:#bedff7;stroke:#e7e6e6"/><path d="M65.38,130.38l0-.13,10.57-4.17,0,.11Z" style="fill:#c3e4f9;stroke:#e7e6e6"/><path d="M60.1,132.47v0l5.28-2.09v0Z" style="fill:#c3e4f9;stroke:#e7e6e6"/><path d="M60.08,132.42v0l5.28-2.09v0Z" style="fill:#cfebf9;stroke:#e7e6e6"/><path d="M60.06,132.36v0l5.28-2.09v0Z" style="fill:#def0f6;stroke:#e7e6e6"/><path d="M60,132.31v0l5.29-2.08v0Z" style="fill:#e9f5f9;stroke:#e7e6e6"/><path d="M65.3,130.18l0-.13,10.59-4.14,0,.11Z" style="fill:#c7e8fb;stroke:#e7e6e6"/><path d="M60,132.26v0l5.29-2.08v0Z" style="fill:#c7e8fb;stroke:#e7e6e6"/><path d="M60,132.15v0l5.29-2.07v0Z" style="fill:#e3f2f7;stroke:#e7e6e6"/><path d="M65.23,130l0-.12,10.59-4.11,0,.1Z" style="fill:#cceafa;stroke:#e7e6e6"/><path d="M59.93,132.05l0-.14,5.3-2,0,.12Z" style="fill:#cceafa;stroke:#e7e6e6"/><path d="M65.15,129.79l-.05-.13,10.61-4.08,0,.11Z" style="fill:#d2ecf8;stroke:#e7e6e6"/><path d="M59.85,131.84v0l5.3-2.05v0Z" style="fill:#d2ecf8;stroke:#e7e6e6"/><path d="M59.83,131.78v0l5.3-2.05v0Z" style="fill:#e0f1f7;stroke:#e7e6e6"/><path d="M59.81,131.73v0l5.3-2v0Z" style="fill:#ebf6fa;stroke:#e7e6e6"/><path d="M59.79,131.68v0l5.3-2v0Z" style="fill:#f6fbfd;stroke:#e7e6e6"/><path d="M75.68,125.52c-.52-1.38-1-2.77-1.44-4.18l16.3-5c.32,1,.67,2.06,1.06,3.07Z" style="fill:#5f83a3;stroke:#e7e6e6"/><path d="M65.07,129.59l-.1-.28,10.62-4,.09.24Z" style="fill:#5f83a3;stroke:#e7e6e6"/><path d="M64.94,129.24l-.11-.29,10.65-4,.09.24Z" style="fill:#678cac;stroke:#e7e6e6"/><path d="M59.62,131.25l0-.12,5.32-2,0,.11Z" style="fill:#678cac;stroke:#e7e6e6"/><path d="M59.55,131.06l0-.12,5.32-2,0,.11Z" style="fill:#81a5c5;stroke:#e7e6e6"/><path d="M64.81,128.88c0-.09-.07-.18-.11-.28l10.67-3.92.09.24Z" style="fill:#7094b4;stroke:#e7e6e6"/><path d="M64.68,128.53c0-.09-.07-.19-.11-.28l10.69-3.87.09.24Z" style="fill:#7a9ebe;stroke:#e7e6e6"/><path d="M64.55,128.18c0-.1-.07-.19-.1-.29l10.7-3.81.09.24Z" style="fill:#83a6c6;stroke:#e7e6e6"/><path d="M64.42,127.82l-.1-.28L75,123.77l.09.25Z" style="fill:#8baecf;stroke:#e7e6e6"/><path d="M64.29,127.47l-.09-.29,10.74-3.71c0,.08,0,.16.08.24Z" style="fill:#94b9d9;stroke:#e7e6e6"/><path d="M64.17,127.11c0-.09-.06-.19-.1-.29l10.76-3.65.09.24Z" style="fill:#9dc1e1;stroke:#e7e6e6"/><path d="M64.05,126.75c0-.09-.06-.19-.1-.28l10.78-3.6a2.25,2.25,0,0,1,.08.24Z" style="fill:#a7caea;stroke:#e7e6e6"/><path d="M58.67,128.58c0-.11-.07-.21-.11-.31l5.39-1.8c0,.09.07.19.1.28Z" style="fill:#a7caea;stroke:#e7e6e6"/><path d="M63.93,126.4c0-.1-.06-.19-.1-.29l10.8-3.55c0,.08.05.16.08.25Z" style="fill:#afd2f1;stroke:#e7e6e6"/><path d="M63.81,126l-.09-.29,10.81-3.49c0,.08,0,.16.08.24Z" style="fill:#bbdcf5;stroke:#e7e6e6"/><path d="M58.41,127.81c0-.11-.07-.21-.1-.31l5.41-1.75.09.29Z" style="fill:#bbdcf5;stroke:#e7e6e6"/><path d="M63.69,125.68l-.09-.29L74.43,122a2.41,2.41,0,0,1,.08.25Z" style="fill:#c3e5fa;stroke:#e7e6e6"/><path d="M63.58,125.32l-.09-.29,10.85-3.38c0,.08,0,.16.07.24Z" style="fill:#cceafa;stroke:#e7e6e6"/><path d="M58.16,127l-.09-.31,5.42-1.7.09.29Z" style="fill:#cceafa;stroke:#e7e6e6"/><path d="M63.47,125l-.09-.29,10.86-3.33c0,.08.05.16.08.25Z" style="fill:#d7edf7;stroke:#e7e6e6"/><path d="M74.22,121.28l-.45-1.55,16.42-4.57c.11.38.22.76.34,1.14Z" style="fill:#1b405f;stroke:#e7e6e6"/><path d="M73.75,119.67c-.14-.52-.28-1-.41-1.57L89.88,114c.09.39.2.77.3,1.15Z" style="fill:#1f4263;stroke:#e7e6e6"/><path d="M73.33,118c-.13-.52-.26-1.05-.37-1.57l16.63-3.71c.09.39.18.77.28,1.16Z" style="fill:#214666;stroke:#e7e6e6"/><path d="M72.94,116.4l-.33-1.58,16.73-3.27.24,1.17Z" style="fill:#254969;stroke:#e7e6e6"/><path d="M72.6,114.76c-.1-.53-.2-1.06-.29-1.59l16.81-2.83.21,1.17Z" style="fill:#274c6c;stroke:#e7e6e6"/><path d="M61.44,116.93c0-.3-.11-.6-.16-.9l11.18-2c0,.25.09.5.14.76Z" style="fill:#274c6c;stroke:#e7e6e6"/><path d="M61.26,116c0-.3-.1-.6-.16-.9l11.21-1.88c0,.25.09.51.13.76Z" style="fill:#668aab;stroke:#e7e6e6"/><path d="M72.3,113.1c-.09-.53-.17-1.06-.25-1.59l16.88-2.39.18,1.17Z" style="fill:#2b4f6f;stroke:#e7e6e6"/><path d="M72.05,111.44c-.08-.53-.15-1.07-.21-1.6l16.94-1.94q.06.59.15,1.17Z" style="fill:#2e5373;stroke:#e7e6e6"/><path d="M71.83,109.78c-.06-.54-.11-1.08-.16-1.61l17-1.5.12,1.18Z" style="fill:#325676;stroke:#e7e6e6"/><path d="M71.67,108.1c0-.53-.09-1.07-.13-1.61l17-1c0,.39,0,.79.09,1.18Z" style="fill:#345979;stroke:#e7e6e6"/><path d="M71.54,106.43c0-.54-.06-1.08-.08-1.62l17-.61c0,.4,0,.79.06,1.19Z" style="fill:#385c7c;stroke:#e7e6e6"/><path d="M60.2,107.12c0-.3,0-.61-.05-.91l11.35-.56c0,.26,0,.52,0,.78Z" style="fill:#385c7c;stroke:#e7e6e6"/><path d="M60.14,106.13l0-.91,11.35-.41c0,.26,0,.52,0,.78Z" style="fill:#779bba;stroke:#e7e6e6"/><path d="M71.46,104.75c0-.54,0-1.08,0-1.62l17-.16c0,.39,0,.79,0,1.19Z" style="fill:#3b5f7f;stroke:#e7e6e6"/><path d="M71.42,103.07c0-.54,0-1.08,0-1.62l17,.28v1.19Z" style="fill:#3e6383;stroke:#e7e6e6"/><path d="M71.43,101.39c0-.54,0-1.08,0-1.62l17,.73c0,.39,0,.79,0,1.19Z" style="fill:#436686;stroke:#e7e6e6"/><path d="M71.48,99.71l.09-1.62,17,1.18c0,.39,0,.79-.07,1.18Z" style="fill:#456989;stroke:#e7e6e6"/><path d="M60.13,99.21c0-.63.06-1.27.11-1.9l11.33.78-.09,1.62Z" style="fill:#456989;stroke:#e7e6e6"/><path d="M71.58,98c0-.54.08-1.08.13-1.61l17,1.62c0,.39-.07.78-.1,1.18Z" style="fill:#486c8b;stroke:#e7e6e6"/><path d="M71.72,96.35c0-.53.11-1.07.17-1.6l16.92,2.06c0,.39-.09.79-.12,1.18Z" style="fill:#4b6f8e;stroke:#e7e6e6"/><path d="M71.9,94.68c.18-1.46.41-2.92.69-4.36l16.74,3.24c-.21,1.06-.38,2.13-.51,3.2Z" style="fill:#172742;stroke:#e7e6e6"/><path d="M72.6,90.26c.28-1.45.62-2.89,1-4.31l16.46,4.4c-.27,1-.52,2.1-.72,3.16Z" style="fill:#152f4c;stroke:#e7e6e6"/><path d="M73.61,85.89q.57-2.13,1.29-4.23L91,87.2c-.35,1-.66,2.06-.94,3.1Z" style="fill:#133756;stroke:#e7e6e6"/><path d="M74.92,81.6c.48-1.39,1-2.76,1.58-4.12l15.7,6.65c-.42,1-.81,2-1.16,3Z" style="fill:#1a3f5f;stroke:#e7e6e6"/><path d="M76.53,77.42c.58-1.36,1.2-2.69,1.86-4l15.2,7.72c-.49,1-1,2-1.37,2.94Z" style="fill:#244767;stroke:#e7e6e6"/><path d="M78.42,73.36c.67-1.31,1.39-2.6,2.14-3.87l14.62,8.77c-.55.93-1.08,1.88-1.57,2.84Z" style="fill:#1aa393;stroke:#e7e6e6"/><path d="M68.3,68.2c.25-.5.51-1,.78-1.49l10,5.38c-.23.42-.45.84-.67,1.27Z" style="fill:#2c5070;stroke:#e7e6e6"/><path d="M69.12,66.64q.39-.73.81-1.47l9.88,5.61c-.23.42-.47.84-.69,1.25Z" style="fill:#567a9b;stroke:#e7e6e6"/><path d="M70,65.1c.28-.49.56-1,.85-1.45l9.74,5.84-.72,1.24Z" style="fill:#81a5c5;stroke:#e7e6e6"/><path d="M80.6,69.44a63.82,63.82,0,0,1,8-10.67l12.48,11.61a47.46,47.46,0,0,0-5.9,7.84Z" style="fill:#1aa393;stroke:#e7e6e6"/><path d="M70.86,63.58c.37-.62.76-1.24,1.15-1.85l9.57,6.13c-.34.52-.66,1-1,1.58Z" style="fill:#1aa393;stroke:#e7e6e6"/><path d="M72.05,61.66c.39-.61.8-1.22,1.21-1.82l9.38,6.42c-.35.51-.69,1-1,1.55Z" style="fill:#33b4a4;stroke:#e7e6e6"/><path d="M73.3,59.78c.41-.6.83-1.2,1.26-1.78l9.19,6.69c-.37.5-.73,1-1.08,1.52Z" style="fill:#51bbb1;stroke:#e7e6e6"/><path d="M74.61,57.93c.43-.58.87-1.17,1.31-1.74l9,7c-.38.48-.75,1-1.12,1.48Z" style="fill:#6ac2bd;stroke:#e7e6e6"/><path d="M76,56.13c.45-.58.9-1.14,1.36-1.71l8.77,7.24c-.39.47-.78,1-1.16,1.44Z" style="fill:#7fc9c8;stroke:#e7e6e6"/><path d="M77.38,54.37c.47-.57.94-1.12,1.42-1.67l8.55,7.49c-.41.47-.81.94-1.21,1.42Z" style="fill:#92d0d4;stroke:#e7e6e6"/><path d="M73,50.74c.5-.6,1-1.2,1.53-1.78L78.8,52.7c-.48.55-1,1.1-1.42,1.67Z" style="fill:#92d0d4;stroke:#e7e6e6"/><path d="M78.85,52.64q.72-.81,1.47-1.62l8.31,7.75c-.42.45-.83.91-1.24,1.37Z" style="fill:#9ed6e4;stroke:#e7e6e6"/><path d="M88.68,58.72A63.81,63.81,0,0,1,98.76,50l9.79,14a46.85,46.85,0,0,0-7.41,6.44Z" style="fill:#29ae9e;stroke:#e7e6e6"/><path d="M80.37,51c.88-.95,1.79-1.87,2.72-2.77L91,56.37c-.79.76-1.56,1.55-2.31,2.35Z" style="fill:#29ae9e;stroke:#e7e6e6"/><path d="M83.14,48.15c.93-.9,1.89-1.78,2.86-2.63l7.46,8.57c-.83.73-1.64,1.47-2.43,2.23Z" style="fill:#58bdb4;stroke:#e7e6e6"/><path d="M86.06,45.47c1-.85,2-1.67,3-2.47l7,9q-1.31,1-2.55,2.1Z" style="fill:#80c9c9;stroke:#e7e6e6"/><path d="M89.11,43q1.53-1.2,3.12-2.31L98.76,50c-.9.63-1.79,1.29-2.65,2Z" style="fill:#9bd5e1;stroke:#e7e6e6"/><path d="M98.81,49.91a64.36,64.36,0,0,1,11.68-6.48l6.68,15.69a47.08,47.08,0,0,0-8.59,4.76Z" style="fill:#35b5a6;stroke:#e7e6e6"/><path d="M92.29,40.6l1.39-1L100,49.11c-.4.26-.79.53-1.18.8Z" style="fill:#35b5a6;stroke:#e7e6e6"/><path d="M89,36q.75-.53,1.5-1l3.15,4.72-1.39,1Z" style="fill:#35b5a6;stroke:#e7e6e6"/><path d="M93.74,39.61l1.42-.91,6.08,9.59-1.2.78Z" style="fill:#50baaf;stroke:#e7e6e6"/><path d="M95.22,38.66l1.43-.89,5.86,9.74c-.41.24-.81.49-1.21.75Z" style="fill:#61bfb9;stroke:#e7e6e6"/><path d="M96.72,37.73l1.45-.85,5.63,9.87-1.23.72Z" style="fill:#74c5c2;stroke:#e7e6e6"/><path d="M98.23,36.84c.49-.27,1-.55,1.48-.81l5.4,10c-.42.22-.84.45-1.25.69Z" style="fill:#82caca;stroke:#e7e6e6"/><path d="M99.77,36c.5-.26,1-.53,1.49-.78l5.17,10.12-1.27.67Z" style="fill:#91d0d4;stroke:#e7e6e6"/><path d="M101.33,35.18c.5-.26,1-.51,1.51-.75l4.93,10.24c-.43.2-.86.42-1.28.63Z" style="fill:#9bd5e1;stroke:#e7e6e6"/><path d="M102.91,34.4c.5-.25,1-.48,1.52-.72L109.12,44l-1.29.61Z" style="fill:#a5d9e5;stroke:#e7e6e6"/><path d="M100.45,29.27l1.64-.76,2.34,5.17c-.51.24-1,.47-1.52.72Z" style="fill:#a5d9e5;stroke:#e7e6e6"/><path d="M104.5,33.65,106,33l4.45,10.45-1.31.58Z" style="fill:#aedce7;stroke:#e7e6e6"/><path d="M110.55,43.41a63.45,63.45,0,0,1,12.77-3.91l3.27,16.73a47.29,47.29,0,0,0-9.38,2.87Z" style="fill:#48b9ae;stroke:#e7e6e6"/><path d="M106.11,33c.52-.22,1-.44,1.56-.64l4.2,10.55-1.32.55Z" style="fill:#48b9ae;stroke:#e7e6e6"/><path d="M103.89,27.72c.56-.24,1.11-.47,1.68-.69l2.1,5.28c-.52.2-1,.42-1.56.64Z" style="fill:#48b9ae;stroke:#e7e6e6"/><path d="M107.74,32.28c.52-.21,1-.41,1.57-.6l4,10.65c-.45.16-.89.33-1.34.51Z" style="fill:#5dbeb6;stroke:#e7e6e6"/><path d="M109.38,31.65l1.58-.57,3.71,10.74-1.34.49Z" style="fill:#6fc3c0;stroke:#e7e6e6"/><path d="M107.41,26.32l1.7-.61L111,31.08l-1.58.57Z" style="fill:#6fc3c0;stroke:#e7e6e6"/><path d="M111,31.06c.53-.19,1.06-.36,1.59-.53l3.46,10.82-1.36.45Z" style="fill:#7fc9c8;stroke:#e7e6e6"/><path d="M109.19,25.68l1.71-.57,1.73,5.42c-.53.17-1.06.34-1.59.53Z" style="fill:#7fc9c8;stroke:#e7e6e6"/><path d="M112.71,30.5l1.6-.49,3.21,10.9-1.37.42Z" style="fill:#8cced1;stroke:#e7e6e6"/><path d="M111,25.09l1.73-.53,1.6,5.45-1.6.49Z" style="fill:#8cced1;stroke:#e7e6e6"/><path d="M114.39,30q.81-.24,1.62-.45l2.95,11-1.38.39Z" style="fill:#98d3dc;stroke:#e7e6e6"/><path d="M116.08,29.52c.54-.15,1.09-.29,1.63-.42l2.7,11-1.39.35Z" style="fill:#a3d8e5;stroke:#e7e6e6"/><path d="M114.61,24l.84-.22,1.41,5.5-.78.21Z" style="fill:#a3d8e5;stroke:#e7e6e6"/><path d="M115.53,23.79l.83-.21,1.35,5.52-.78.19Z" style="fill:#b2dee9;stroke:#e7e6e6"/><path d="M117.78,29.08l1.64-.38,2.44,11.1-1.39.32Z" style="fill:#abdbe6;stroke:#e7e6e6"/><path d="M119.5,28.69l1.65-.35,2.17,11.16-1.4.29Z" style="fill:#b6dfe9;stroke:#e7e6e6"/><path d="M118.29,23.13l.53-.11L120,28.58l-.5.11Z" style="fill:#b6dfe9;stroke:#e7e6e6"/><path d="M118.9,23l.54-.11,1.13,5.57-.5.1Z" style="fill:#c3e4ed;stroke:#e7e6e6"/><path d="M119.52,22.87l.54-.1,1.09,5.57-.5.1Z" style="fill:#d1eaf1;stroke:#e7e6e6"/><path d="M123.39,39.49a63.2,63.2,0,0,1,13.31-1.17l-.29,17a47.1,47.1,0,0,0-9.77.86Z" style="fill:#58bdb3;stroke:#e7e6e6"/><path d="M121.22,28.33l2.52-.45,1.79,11.23c-.72.11-1.43.24-2.14.38Z" style="fill:#58bdb3;stroke:#e7e6e6"/><path d="M123.82,27.87c.84-.13,1.69-.25,2.54-.36l1.39,11.28c-.72.09-1.44.19-2.16.31Z" style="fill:#73c5c1;stroke:#e7e6e6"/><path d="M126.43,27.51q1.27-.17,2.55-.27l1,11.32c-.72.06-1.45.14-2.17.23Z" style="fill:#88cdce;stroke:#e7e6e6"/><path d="M129.05,27.23c.85-.07,1.71-.13,2.56-.18l.6,11.35-2.17.15Z" style="fill:#9ad4df;stroke:#e7e6e6"/><path d="M131.69,27.05c.85-.05,1.7-.08,2.56-.09l.2,11.36c-.72,0-1.45,0-2.17.08Z" style="fill:#a9dae6;stroke:#e7e6e6"/><path d="M131.39,21.37c.92-.05,1.83-.08,2.75-.1l.11,5.69c-.86,0-1.71,0-2.56.09Z" style="fill:#a9dae6;stroke:#e7e6e6"/><path d="M134.32,27h2.56l-.18,11.37c-.73,0-1.46,0-2.18,0Z" style="fill:#b8e0ea;stroke:#e7e6e6"/><path d="M136.76,38.32a66.19,66.19,0,0,1,8.31.68l-2.51,16.87a48,48,0,0,0-6.1-.51Z" style="fill:#026555;stroke:#e7e6e6"/><path d="M137,27c1.07,0,2.15.06,3.22.12l-.69,11.34c-.91-.05-1.82-.09-2.73-.1Z" style="fill:#026555;stroke:#e7e6e6"/><path d="M140.25,27.09c1.08.06,2.15.15,3.21.26l-1.17,11.3c-.91-.09-1.82-.17-2.73-.22Z" style="fill:#2d8f7f;stroke:#e7e6e6"/><path d="M140.6,21.41l.36,0-.37,5.67-.34,0Z" style="fill:#2d8f7f;stroke:#e7e6e6"/><path d="M141,21.44l.37,0L141,27.13l-.33,0Z" style="fill:#329484;stroke:#e7e6e6"/><path d="M141.42,15.77h.15l-.39,5.67H141Z" style="fill:#329484;stroke:#e7e6e6"/><path d="M141.66,15.79h.15l-.4,5.67h-.14Z" style="fill:#7bc6bd;stroke:#e7e6e6"/><path d="M141.49,21.47l.36,0-.44,5.66-.33,0Z" style="fill:#389a8a;stroke:#e7e6e6"/><path d="M141.93,21.51l.36,0-.47,5.67-.33,0Z" style="fill:#40a191;stroke:#e7e6e6"/><path d="M142.37,21.54l.36,0-.5,5.66-.33,0Z" style="fill:#45a798;stroke:#e7e6e6"/><path d="M142.81,21.58l.36,0-.53,5.66-.33,0Z" style="fill:#4bae9d;stroke:#e7e6e6"/><path d="M143.25,21.62l.36,0-.56,5.66-.33,0Z" style="fill:#51b5a5;stroke:#e7e6e6"/><path d="M143.69,21.66l.36,0-.59,5.65-.33,0Z" style="fill:#57baaa;stroke:#e7e6e6"/><path d="M143.54,27.36c1.07.11,2.13.25,3.2.4L145.07,39c-.91-.13-1.81-.24-2.72-.34Z" style="fill:#56b9a9;stroke:#e7e6e6"/><path d="M145.13,39a66.86,66.86,0,0,1,8.15,1.77l-4.69,16.39a48.61,48.61,0,0,0-6-1.3Z" style="fill:#0b6b5b;stroke:#e7e6e6"/><path d="M146.81,27.78q1.19.16,2.37.39l-2,11.18c-.67-.12-1.34-.24-2-.34Z" style="fill:#0b6b5b;stroke:#e7e6e6"/><path d="M149.25,28.18c.79.14,1.57.3,2.35.47l-2.4,11.11c-.66-.15-1.33-.28-2-.4Z" style="fill:#268a7a;stroke:#e7e6e6"/><path d="M151.68,28.67c.78.17,1.55.35,2.33.54l-2.76,11c-.66-.17-1.32-.32-2-.47Z" style="fill:#45a99a;stroke:#e7e6e6"/><path d="M154.08,29.23c.78.2,1.55.4,2.32.62l-3.12,10.93c-.66-.19-1.31-.36-2-.53Z" style="fill:#6dc2b5;stroke:#e7e6e6"/><path d="M153.34,40.8a62.56,62.56,0,0,1,7.84,2.81L154.4,59.25a49.42,49.42,0,0,0-5.76-2.07Z" style="fill:#107161;stroke:#e7e6e6"/><path d="M156.47,29.87c.77.22,1.53.46,2.29.7l-3.47,10.82c-.65-.21-1.3-.41-1.95-.59Z" style="fill:#107161;stroke:#e7e6e6"/><path d="M158.84,30.59c.76.25,1.51.51,2.27.78l-3.83,10.7c-.64-.23-1.29-.45-1.93-.66Z" style="fill:#2c8f7f;stroke:#e7e6e6"/><path d="M161.18,31.39c.75.27,1.5.55,2.24.85l-4.18,10.57c-.63-.25-1.27-.49-1.9-.72Z" style="fill:#4db0a0;stroke:#e7e6e6"/><path d="M163.1,26l2.41.91-2.09,5.29c-.74-.3-1.49-.58-2.24-.85Z" style="fill:#4db0a0;stroke:#e7e6e6"/><path d="M163.49,32.27c.74.29,1.48.6,2.21.92l-4.52,10.42c-.62-.27-1.25-.53-1.88-.78Z" style="fill:#75c5b9;stroke:#e7e6e6"/><path d="M165.59,27l.23.1-2.11,5.27-.22-.08Z" style="fill:#75c5b9;stroke:#e7e6e6"/><path d="M165.89,27.11l.24.09L164,32.47l-.21-.09Z" style="fill:#7cc7be;stroke:#e7e6e6"/><path d="M168,21.83l.08,0L166,27.14l-.08,0Z" style="fill:#7cc7be;stroke:#e7e6e6"/><path d="M168.18,21.9l.08,0-2.13,5.27-.08,0Z" style="fill:#bae1eb;stroke:#e7e6e6"/><path d="M166.2,27.23l.23.1-2.15,5.25-.22-.08Z" style="fill:#83cac2;stroke:#e7e6e6"/><path d="M166.51,27.36l.23.09-2.17,5.25-.22-.09Z" style="fill:#8ccdc6;stroke:#e7e6e6"/><path d="M166.82,27.48l.23.1-2.2,5.24-.21-.09Z" style="fill:#92cfca;stroke:#e7e6e6"/><path d="M167.12,27.61l.24.1-2.22,5.23-.22-.09Z" style="fill:#99d2cf;stroke:#e7e6e6"/><path d="M167.43,27.74l.23.1-2.24,5.22-.21-.09Z" style="fill:#a0d5d3;stroke:#e7e6e6"/><path d="M167.74,27.87l.23.1-2.27,5.22-.21-.1Z" style="fill:#a6d8d8;stroke:#e7e6e6"/><path d="M161.24,43.64a63.94,63.94,0,0,1,7.41,3.81l-8.76,14.62a46.69,46.69,0,0,0-5.45-2.8Z" style="fill:#177868;stroke:#e7e6e6"/><path d="M165.77,33.22c.59.25,1.16.51,1.74.78l-4.79,10.3c-.49-.23-1-.45-1.48-.66Z" style="fill:#177868;stroke:#e7e6e6"/><path d="M167.58,34l1.71.82L164.23,45l-1.46-.7Z" style="fill:#2e9080;stroke:#e7e6e6"/><path d="M169.36,34.89c.57.28,1.13.57,1.69.87l-5.32,10c-.48-.26-1-.5-1.44-.74Z" style="fill:#47aa9b;stroke:#e7e6e6"/><path d="M171.12,35.79l1.67.92L167.2,46.6c-.47-.26-.94-.52-1.42-.77Z" style="fill:#65bfb1;stroke:#e7e6e6"/><path d="M172.85,36.75l1.65,1-5.85,9.75c-.46-.28-.93-.55-1.39-.81Z" style="fill:#86cac3;stroke:#e7e6e6"/><path d="M168.71,47.48a65.81,65.81,0,0,1,6.85,4.75L165,65.58a48.46,48.46,0,0,0-5-3.49Z" style="fill:#1a7e6e;stroke:#e7e6e6"/><path d="M174.56,37.74l1.34.83-6.05,9.61-1.14-.7Z" style="fill:#1a7e6e;stroke:#e7e6e6"/><path d="M176,38.61l1.32.85L171,48.94l-1.12-.72Z" style="fill:#2f9282;stroke:#e7e6e6"/><path d="M177.35,39.5l1.3.88-6.47,9.35c-.36-.26-.73-.51-1.1-.75Z" style="fill:#45a798;stroke:#e7e6e6"/><path d="M178.71,40.43c.44.3.86.6,1.29.91l-6.67,9.2-1.09-.78Z" style="fill:#5abcac;stroke:#e7e6e6"/><path d="M180.06,41.38l1.26.94-6.87,9c-.35-.27-.71-.53-1.07-.79Z" style="fill:#78c6bc;stroke:#e7e6e6"/><path d="M181.38,42.37c.42.31.83.64,1.24,1l-7.06,8.9-1.06-.82Z" style="fill:#91cfca;stroke:#e7e6e6"/><path d="M175.61,52.27a64.14,64.14,0,0,1,6.17,5.6L169.53,69.73A46.61,46.61,0,0,0,165,65.61Z" style="fill:#218474;stroke:#e7e6e6"/><path d="M182.68,43.38q1.9,1.51,3.71,3.15L178.76,55c-1-.93-2.07-1.82-3.15-2.68Z" style="fill:#218474;stroke:#e7e6e6"/><path d="M186.45,46.58c1.2,1.09,2.37,2.23,3.5,3.39l-8.17,7.9q-1.44-1.48-3-2.88Z" style="fill:#63bfb1;stroke:#e7e6e6"/><path d="M181.82,57.92a61.62,61.62,0,0,1,5.39,6.36L173.52,74.43a47.66,47.66,0,0,0-4-4.67Z" style="fill:#288b7b;stroke:#e7e6e6"/><path d="M190,50c.31.32.62.64.92,1l-8.31,7.74c-.26-.27-.52-.55-.79-.82Z" style="fill:#288b7b;stroke:#e7e6e6"/><path d="M191,51.05q.47.5.9,1l-8.45,7.59-.77-.84Z" style="fill:#3a9c8c;stroke:#e7e6e6"/><path d="M191.92,52.1c.3.33.6.66.89,1l-8.6,7.43-.75-.85Z" style="fill:#4caf9f;stroke:#e7e6e6"/><path d="M192.86,53.16l.86,1L185,61.45l-.74-.87Z" style="fill:#62beaf;stroke:#e7e6e6"/><path d="M193.77,54.24c.29.34.57.68.85,1l-8.87,7.11L185,61.5Z" style="fill:#78c6bc;stroke:#e7e6e6"/><path d="M194.66,55.33l.83,1.05-9,6.94-.7-.89Z" style="fill:#8fcec8;stroke:#e7e6e6"/><path d="M195.53,56.44c.28.36.55.71.81,1.07l-9.13,6.77c-.22-.31-.45-.61-.68-.91Z" style="fill:#a1d5d4;stroke:#e7e6e6"/><path d="M200,53l.07.09-4.51,3.45-.07-.08Z" style="fill:#a1d5d4;stroke:#e7e6e6"/><path d="M200.15,53.13l.07.09-4.52,3.44-.06-.08Z" style="fill:#a8d8d8;stroke:#e7e6e6"/><path d="M204.67,49.68h0l-4.52,3.45h0Z" style="fill:#a8d8d8;stroke:#e7e6e6"/><path d="M204.73,49.76h0l-4.52,3.45h0Z" style="fill:#dceff5;stroke:#e7e6e6"/><path d="M200.27,53.28l.07.09-4.53,3.44-.06-.09Z" style="fill:#addbde;stroke:#e7e6e6"/><path d="M200.38,53.43l.07.09L195.92,57l-.06-.08Z" style="fill:#b3dee4;stroke:#e7e6e6"/><path d="M200.5,53.58l.06.09L196,57.09,196,57Z" style="fill:#b7e0ea;stroke:#e7e6e6"/><path d="M200.61,53.74l.07.08-4.55,3.41-.06-.08Z" style="fill:#bce2eb;stroke:#e7e6e6"/><path d="M200.73,53.89l.06.09-4.55,3.39-.06-.08Z" style="fill:#c1e4ed;stroke:#e7e6e6"/><path d="M200.84,54l.07.09-4.57,3.38-.06-.08Z" style="fill:#c5e6ee;stroke:#e7e6e6"/><path d="M187.25,64.33a65.29,65.29,0,0,1,4.51,7l-14.9,8.28a47,47,0,0,0-3.31-5.15Z" style="fill:#2e9080;stroke:#e7e6e6"/><path d="M196.39,57.57l.6.83L187.76,65l-.51-.7Z" style="fill:#2e9080;stroke:#e7e6e6"/><path d="M197,58.46l.59.84-9.32,6.5c-.16-.24-.33-.48-.5-.71Z" style="fill:#3b9e8e;stroke:#e7e6e6"/><path d="M201.65,55.15l.64.9-4.67,3.25-.59-.84Z" style="fill:#3b9e8e;stroke:#e7e6e6"/><path d="M197.67,59.36l.58.84-9.42,6.37-.49-.72Z" style="fill:#4aad9c;stroke:#e7e6e6"/><path d="M198.29,60.27c.19.28.38.56.56.85l-9.5,6.22-.48-.72Z" style="fill:#57baaa;stroke:#e7e6e6"/><path d="M198.9,61.18l.55.86-9.6,6.09c-.15-.25-.31-.49-.47-.73Z" style="fill:#6cc1b5;stroke:#e7e6e6"/><path d="M199.49,62.11,200,63l-9.68,6-.46-.74Z" style="fill:#7dc7bf;stroke:#e7e6e6"/><path d="M200.07,63c.18.29.36.58.53.87l-9.77,5.81-.45-.75Z" style="fill:#8fcec8;stroke:#e7e6e6"/><path d="M200.64,64l.52.88-9.86,5.67c-.14-.26-.29-.51-.44-.76Z" style="fill:#9ed4d2;stroke:#e7e6e6"/><path d="M205.53,61.08l0,.06L200.67,64l0-.05Z" style="fill:#9ed4d2;stroke:#e7e6e6"/><path d="M205.6,61.21l0,.06-4.9,2.88,0-.05Z" style="fill:#a5d7d6;stroke:#e7e6e6"/><path d="M210.5,58.32h0L205.6,61.2h0Z" style="fill:#a5d7d6;stroke:#e7e6e6"/><path d="M210.54,58.39h0l-4.89,2.89h0Z" style="fill:#d9eef3;stroke:#e7e6e6"/><path d="M205.68,61.34l0,0-4.9,2.88,0,0Z" style="fill:#aad9d9;stroke:#e7e6e6"/><path d="M205.75,61.46l0,.06-4.91,2.87,0,0Z" style="fill:#afdce1;stroke:#e7e6e6"/><path d="M205.83,61.59l0,.06L201,64.51l0-.06Z" style="fill:#b4dee7;stroke:#e7e6e6"/><path d="M205.9,61.72l0,.06L201,64.63l0-.06Z" style="fill:#b9e0ea;stroke:#e7e6e6"/><path d="M206,61.85l0,0-4.92,2.84,0,0Z" style="fill:#bee2ec;stroke:#e7e6e6"/><path d="M206.05,62l0,.05-4.92,2.83,0,0Z" style="fill:#c3e4ed;stroke:#e7e6e6"/><path d="M201.19,64.93l.51.89-9.94,5.52c-.14-.25-.28-.51-.43-.76Z" style="fill:#abdadb;stroke:#e7e6e6"/></g><path id="path5029-4" d="M139.68,100.14l-4,2.33,4.32-1.79A4.58,4.58,0,0,0,139.68,100.14Z" style="fill:#39a8e0"/><path id="path5021-4" d="M140.16,101.27l-4.52,1.21,4.64-.62A2.94,2.94,0,0,0,140.16,101.27Z" style="fill:#39a8e0"/><path id="path5009-6" d="M135.57,102.5l-4.63.61a4.21,4.21,0,0,0,.11.6Z" style="fill:#39a8e0"/><path id="path5005-0" d="M135.57,102.5l-4.32,1.8a3.94,3.94,0,0,0,.26.55l4.06-2.35Z" style="fill:#39a8e0"/><path id="path5094" d="M140.31,102.49h-4.67l4.64.6A3,3,0,0,0,140.31,102.49Z" style="fill:#39a8e0"/><path id="path5096" d="M140.16,103.71l-4.52-1.21,4.33,1.78A4.23,4.23,0,0,0,140.16,103.71Z" style="fill:#39a8e0"/><path id="path5098" d="M135.57,102.47l-4.32-1.78c-.08.19-.14.38-.2.57Z" style="fill:#39a8e0"/><path id="path5100" d="M135.57,102.48l-4.64-.6a4,4,0,0,0-.05.6Z" style="fill:#39a8e0"/><path id="path5102" d="M139.68,104.85l-4-2.34,3.71,2.85Q139.53,105.1,139.68,104.85Z" style="fill:#39a8e0"/><path id="path5104" d="M138.94,105.83l-3.31-3.31,2.86,3.71A4.28,4.28,0,0,0,138.94,105.83Z" style="fill:#39a8e0"/><path id="path5106" d="M135.58,102.47l-2.85-3.71-.46.4Z" style="fill:#39a8e0"/><path id="path5108" d="M135.57,102.47l-3.71-2.84a4,4,0,0,0-.34.5Z" style="fill:#39a8e0"/><path id="path5110" d="M138,106.57l-2.33-4,1.79,4.32A3.45,3.45,0,0,0,138,106.57Z" style="fill:#39a8e0"/><path id="path5112" d="M136.83,107.05l-1.21-4.52.61,4.65A4,4,0,0,0,136.83,107.05Z" style="fill:#39a8e0"/><path id="path5114" d="M135.6,102.46,135,97.83a3.75,3.75,0,0,0-.6.11Z" style="fill:#39a8e0"/><path id="path5116" d="M135.59,102.46l-1.8-4.32a3.82,3.82,0,0,0-.54.26l2.34,4.06Z" style="fill:#39a8e0"/><path id="path5118" d="M135.61,107.21v-4.67l-.61,4.64A6.08,6.08,0,0,0,135.61,107.21Z" style="fill:#39a8e0"/><path id="path5120" d="M134.38,107.06l1.22-4.52-1.79,4.33A4.23,4.23,0,0,0,134.38,107.06Z" style="fill:#39a8e0"/><path id="path5122" d="M135.62,102.47l1.78-4.32a4.3,4.3,0,0,0-.57-.2Z" style="fill:#39a8e0"/><path id="path5124" d="M135.61,102.46l.61-4.64c-.21,0-.41,0-.61,0v4.68Z" style="fill:#39a8e0"/><path id="path5126" d="M133.25,106.58l2.34-4-2.84,3.71A5.39,5.39,0,0,0,133.25,106.58Z" style="fill:#39a8e0"/><path id="path5128" d="M132.27,105.84l3.31-3.31-3.71,2.86a4.28,4.28,0,0,0,.4.45Z" style="fill:#39a8e0"/><path id="path5130" d="M135.64,102.48l3.7-2.85a4.28,4.28,0,0,0-.4-.45l-3.3,3.3Z" style="fill:#39a8e0"/><path id="path5132" d="M135.63,102.47l2.85-3.71a4.11,4.11,0,0,0-.51-.34l-2.34,4Z" style="fill:#39a8e0"/><circle cx="41.25" cy="74.27" r="14.22" transform="translate(-37.33 106.58) rotate(-83.3)" style="fill:none;stroke:#fff;stroke-miterlimit:10"/><path d="M41.17,81.26a10.79,10.79,0,0,1,2.49-.67,8.77,8.77,0,0,1,3,0c.16,0,.16,0,.16-.13,0-1.68,0-3.37,0-5.05a.25.25,0,0,1,.16-.27s0,0,0,.07v5.45c0,.14,0,.17-.17.14a9.26,9.26,0,0,0-4.84.31l0,0-.37.12a2.13,2.13,0,0,1,.44-.12,12.62,12.62,0,0,1,1.6-.33,11.49,11.49,0,0,1,3.26,0l.36.06V75.09a.27.27,0,0,1,.1-.22,9.88,9.88,0,0,0,.84-.87s0,.07,0,.09V82c0,.16,0,.19-.18.14a12.32,12.32,0,0,0-2.55-.47,14.58,14.58,0,0,0-2.29,0,16.13,16.13,0,0,0-3.16.5.41.41,0,0,1-.22,0,15.88,15.88,0,0,0-5.18-.49,12.27,12.27,0,0,0-2.82.5c-.13,0-.16,0-.16-.15v-9.7a.2.2,0,0,1,.17-.23l1.35-.39c.09,0,.13-.06.11-.15s0-.17.14-.2a6.87,6.87,0,0,1,4.52.06,7.94,7.94,0,0,1,1.89.94.12.12,0,0,0,.16,0,8.07,8.07,0,0,1,3.22-1.26,6,6,0,0,1,1.7-.06s.11,0,.1,0,0,.14-.14.13l-.45,0A7.79,7.79,0,0,0,40,72.5a.17.17,0,0,0-.09.16c0,2.51,0,5,0,7.52,0,.48,0,1,0,1.45v.14a2.58,2.58,0,0,1,.31-.22,8.45,8.45,0,0,1,3.65-1.4,7.1,7.1,0,0,1,2.3.07c.11,0,.11,0,.11-.1V75.73c0-.12,0-.19.15-.21s0,.07,0,.11v4.64c0,.17,0,.18-.18.15a7.51,7.51,0,0,0-5,.73l-.15.09c0,.05-.1.05-.12.07s0,0,0,0h0Z" style="fill:#fff"/><path d="M44,74.37l.45.4a1.32,1.32,0,0,0,0-.29,5.69,5.69,0,0,1,.59-3,6.73,6.73,0,0,1,.59-1c.06-.09.1-.12.18,0s.45.45.68.67c0,0,.06.08.12.08L46.49,71a3.78,3.78,0,0,1-.29-1.88,2.35,2.35,0,0,1,.29-.93,1.18,1.18,0,0,1,.39-.44A4.39,4.39,0,0,1,48.57,67c.88-.19,1.75-.41,2.62-.63.17,0,.16,0,.17.12s0,.52,0,.78a5,5,0,0,1,0,.67.76.76,0,0,1-.19.38,3.49,3.49,0,0,1-.81.62l-.5.3a5.82,5.82,0,0,0,.73-.07l.1,0c.25,0,.25,0,.19.22s-.14.46-.22.69a3.08,3.08,0,0,1-.87,1.21c-.79.7-1.64,1.32-2.49,1.94l-.06,0s-.06,0,0,.08.05,0,.07,0l.93.05h.12l-.27.31a10,10,0,0,1-1.4,1.36,2.59,2.59,0,0,1-1.26.57,1.83,1.83,0,0,1-.66-.06c-.09,0,0-.07,0-.1.33-.59.67-1.17,1-1.76A27.15,27.15,0,0,1,49,69.1a1.77,1.77,0,0,0,.34-.54l-.26.23a18.2,18.2,0,0,0-3.43,4.33c-.43.7-.84,1.42-1.25,2.13-.06.1-.09.09-.16,0A.59.59,0,0,1,44,75,1.78,1.78,0,0,1,44,74.37Z" style="fill:#c6c6c6"/><path d="M48.31,69.69c-.37.48-.74,1-1.1,1.44a26.29,26.29,0,0,0-1.72,2.78c-.64,1.17-1.32,2.33-1.92,3.52A11.71,11.71,0,0,0,43,78.8a.18.18,0,0,1-.13.11,1.33,1.33,0,0,0-.5.26l-.12.09s0-.06,0-.09C43.48,77,44.7,74.87,46,72.75a22.49,22.49,0,0,1,2.29-3l0,0S48.31,69.67,48.31,69.69Z" style="fill:#c6c6c6"/><path d="M48.15,72.9l0,0c0,.34.1.3-.4.26Z" style="fill:#c6c6c6"/><path d="M42,81.19l-.46.14a1.61,1.61,0,0,1,.43-.17Z" style="fill:#c5c4c2"/><path d="M41.17,81.26l-.21.1a.35.35,0,0,1,.19-.12Z" style="fill:#a0a09e"/><path d="M48.3,69.67l.12-.15,0,0-.13.15Z" style="fill:#1e1e1c"/><path d="M48.46,69.5c0-.07.06-.1.12-.16A.29.29,0,0,1,48.46,69.5Z" style="fill:#7f807f"/><path d="M39.79,81.75l-.41-.3a7.73,7.73,0,0,0-5.85-1.23c-.11,0-.12,0-.12-.09q0-4.26,0-8.5c0-.1.05-.12.12-.15a6.63,6.63,0,0,1,4.2.07,7.87,7.87,0,0,1,2,.94.18.18,0,0,1,.1.17v9.09Z" style="fill:#39a8e0"/><line x1="130.14" y1="100.12" x2="94.9" y2="80.97" style="fill:none;stroke:#39a8e0;stroke-miterlimit:10"/></svg>