<svg width="279" height="150" viewBox="0 0 279 150" fill="none" xmlns="http://www.w3.org/2000/svg">
<g opacity="0.5">
<path d="M138.559 60.7049C138.559 70.5656 130.566 78.5593 120.705 78.5593C110.844 78.5593 102.85 70.5656 102.85 60.7049C102.85 50.8442 110.844 42.8505 120.705 42.8505C130.566 42.8505 138.559 50.8442 138.559 60.7049Z" stroke="#27AAE1" stroke-width="9.52234"/>
<path d="M167.52 93.0809L213.484 133.258L208.221 139.279C205.625 142.249 201.113 142.552 198.144 139.956L157.556 104.479L167.52 93.0809Z" fill="#6B6B6B"/>
<rect x="153.366" y="86.3459" width="16.6641" height="9.52234" transform="rotate(42.0405 153.366 86.3459)" fill="#6B6B6B"/>
<path fill-rule="evenodd" clip-rule="evenodd" d="M120.657 95.4613C136.505 95.4613 149.858 84.7819 153.913 70.2272H168.577C164.241 92.7395 144.435 109.745 120.657 109.745C93.7047 109.745 71.8553 87.8955 71.8553 60.9429C71.8553 33.9903 93.7047 12.1409 120.657 12.1409C142.988 12.1409 161.816 27.1391 167.616 47.6117H152.507C147.292 35.1666 134.996 26.4244 120.657 26.4244C101.593 26.4244 86.1389 41.8788 86.1389 60.9429C86.1389 80.0069 101.593 95.4613 120.657 95.4613ZM155.163 61.8953H169.45C169.456 61.5785 169.459 61.261 169.459 60.9429C169.459 59.6611 169.41 58.391 169.313 57.1341H154.968C155.105 58.3848 155.176 59.6556 155.176 60.9429C155.176 61.2613 155.172 61.5788 155.163 61.8953Z" fill="#6B6B6B"/>
<line x1="159.947" y1="101.777" x2="202.417" y2="144.994" stroke="#6B6B6B" stroke-width="14.2835"/>
<line x1="176.649" y1="73.798" x2="200.454" y2="73.798" stroke="#27AAE1" stroke-width="4.76117"/>
<circle cx="202.835" cy="73.7982" r="3.57088" stroke="#27AAE1" stroke-width="2.38059"/>
<path d="M138.559 59.5145L209.977 59.5145" stroke="#27AAE1" stroke-width="4.76117"/>
<circle cx="212.358" cy="59.5147" r="3.57088" stroke="#27AAE1" stroke-width="2.38059"/>
<path d="M174.268 45.2312L200.978 45.2312" stroke="#27AAE1" stroke-width="4.76117"/>
<path d="M207.072 45.2311C207.072 47.1812 205.453 48.802 203.406 48.802C201.359 48.802 199.74 47.1812 199.74 45.2311C199.74 43.2811 201.359 41.6603 203.406 41.6603C205.453 41.6603 207.072 43.2811 207.072 45.2311Z" stroke="#27AAE1" stroke-width="2.38059"/>
<path fill-rule="evenodd" clip-rule="evenodd" d="M174.255 61.8953C174.264 61.4995 174.268 61.1027 174.268 60.7049C174.268 59.505 174.229 58.3143 174.151 57.134H181.307C181.375 58.3156 181.41 59.5062 181.41 60.7049C181.41 61.1026 181.406 61.4994 181.398 61.8953H174.255ZM173.197 71.4176C172.004 77.2948 169.848 82.8225 166.902 87.8292L173.304 91.0301C176.754 85.0602 179.216 78.4483 180.468 71.4176H173.197ZM120.705 114.268C131.389 114.268 141.343 111.14 149.7 105.749L151.852 108.977L153.663 111.693C144.172 117.84 132.855 121.41 120.705 121.41C87.1785 121.41 60 94.2313 60 60.7049C60 27.1785 87.1785 0 120.705 0C149.736 0 174.007 20.3789 179.994 47.6117H172.656C166.814 24.3587 145.77 7.14176 120.705 7.14176C91.1228 7.14176 67.1418 31.1228 67.1418 60.7049C67.1418 90.287 91.1228 114.268 120.705 114.268Z" fill="#27AAE1"/>
</g>
<path d="M213.96 77.6358C213.317 77.6358 212.739 77.4901 212.224 77.1987C211.719 76.9072 211.32 76.5044 211.029 75.9901C210.737 75.4672 210.591 74.8672 210.591 74.1901C210.591 73.5044 210.737 72.9044 211.029 72.3901C211.32 71.8758 211.719 71.4772 212.224 71.1944C212.739 70.903 213.317 70.7572 213.96 70.7572C214.551 70.7572 215.079 70.8901 215.541 71.1558C216.013 71.4215 216.386 71.8115 216.66 72.3258C216.943 72.8315 217.084 73.453 217.084 74.1901C217.084 74.9187 216.947 75.5401 216.673 76.0544C216.399 76.5687 216.026 76.963 215.554 77.2372C215.091 77.503 214.56 77.6358 213.96 77.6358ZM214.024 76.8258C214.504 76.8258 214.933 76.7187 215.31 76.5044C215.696 76.2815 215.996 75.973 216.21 75.5787C216.433 75.1758 216.544 74.713 216.544 74.1901C216.544 73.6587 216.433 73.1958 216.21 72.8015C215.996 72.4072 215.696 72.103 215.31 71.8887C214.933 71.6658 214.504 71.5544 214.024 71.5544C213.553 71.5544 213.129 71.6658 212.751 71.8887C212.374 72.103 212.074 72.4072 211.851 72.8015C211.629 73.1958 211.517 73.6587 211.517 74.1901C211.517 74.713 211.629 75.1758 211.851 75.5787C212.074 75.973 212.374 76.2815 212.751 76.5044C213.129 76.7187 213.553 76.8258 214.024 76.8258ZM216.57 77.5715V75.5401L216.66 74.1772L216.531 72.8144V68.0315H217.444V77.5715H216.57ZM224.217 77.5715V76.0801L224.178 75.8358V73.3415C224.178 72.7672 224.015 72.3258 223.689 72.0172C223.372 71.7087 222.897 71.5544 222.262 71.5544C221.825 71.5544 221.409 71.6272 221.015 71.773C220.621 71.9187 220.287 72.1115 220.012 72.3515L219.601 71.6701C219.944 71.3787 220.355 71.1558 220.835 71.0015C221.315 70.8387 221.821 70.7572 222.352 70.7572C223.227 70.7572 223.899 70.9758 224.371 71.413C224.851 71.8415 225.091 72.4972 225.091 73.3801V77.5715H224.217ZM221.889 77.6358C221.384 77.6358 220.942 77.5544 220.565 77.3915C220.197 77.2201 219.914 76.9887 219.717 76.6972C219.519 76.3972 219.421 76.0544 219.421 75.6687C219.421 75.3172 219.502 75.0001 219.665 74.7172C219.837 74.4258 220.111 74.1944 220.488 74.023C220.874 73.843 221.388 73.753 222.031 73.753H224.358V74.4344H222.057C221.405 74.4344 220.951 74.5501 220.694 74.7815C220.445 75.013 220.321 75.3001 220.321 75.643C220.321 76.0287 220.471 76.3372 220.771 76.5687C221.071 76.8001 221.491 76.9158 222.031 76.9158C222.545 76.9158 222.987 76.8001 223.355 76.5687C223.732 76.3287 224.007 75.9858 224.178 75.5401L224.384 76.1701C224.212 76.6158 223.912 76.9715 223.484 77.2372C223.064 77.503 222.532 77.6358 221.889 77.6358ZM229.705 77.6358C229.07 77.6358 228.582 77.4644 228.239 77.1215C227.896 76.7787 227.725 76.2944 227.725 75.6687V69.3301H228.637V75.6172C228.637 76.0115 228.736 76.3158 228.933 76.5301C229.139 76.7444 229.43 76.8515 229.807 76.8515C230.21 76.8515 230.545 76.7358 230.81 76.5044L231.132 77.1601C230.952 77.323 230.733 77.443 230.476 77.5201C230.227 77.5972 229.97 77.6358 229.705 77.6358ZM226.516 71.5801V70.8215H230.695V71.5801H226.516ZM237.024 77.5715V76.0801L236.985 75.8358V73.3415C236.985 72.7672 236.822 72.3258 236.496 72.0172C236.179 71.7087 235.704 71.5544 235.069 71.5544C234.632 71.5544 234.216 71.6272 233.822 71.773C233.428 71.9187 233.094 72.1115 232.819 72.3515L232.408 71.6701C232.751 71.3787 233.162 71.1558 233.642 71.0015C234.122 70.8387 234.628 70.7572 235.159 70.7572C236.034 70.7572 236.706 70.9758 237.178 71.413C237.658 71.8415 237.898 72.4972 237.898 73.3801V77.5715H237.024ZM234.696 77.6358C234.191 77.6358 233.749 77.5544 233.372 77.3915C233.004 77.2201 232.721 76.9887 232.524 76.6972C232.326 76.3972 232.228 76.0544 232.228 75.6687C232.228 75.3172 232.309 75.0001 232.472 74.7172C232.644 74.4258 232.918 74.1944 233.295 74.023C233.681 73.843 234.195 73.753 234.838 73.753H237.165V74.4344H234.864C234.212 74.4344 233.758 74.5501 233.501 74.7815C233.252 75.013 233.128 75.3001 233.128 75.643C233.128 76.0287 233.278 76.3372 233.578 76.5687C233.878 76.8001 234.298 76.9158 234.838 76.9158C235.352 76.9158 235.794 76.8001 236.162 76.5687C236.539 76.3287 236.814 75.9858 236.985 75.5401L237.191 76.1701C237.019 76.6158 236.719 76.9715 236.291 77.2372C235.871 77.503 235.339 77.6358 234.696 77.6358ZM243.861 77.6358C243.27 77.6358 242.739 77.503 242.267 77.2372C241.796 76.963 241.423 76.5687 241.149 76.0544C240.874 75.5401 240.737 74.9187 240.737 74.1901C240.737 73.453 240.874 72.8315 241.149 72.3258C241.431 71.8115 241.809 71.4215 242.28 71.1558C242.751 70.8901 243.279 70.7572 243.861 70.7572C244.504 70.7572 245.079 70.903 245.584 71.1944C246.099 71.4772 246.501 71.8758 246.793 72.3901C247.084 72.9044 247.23 73.5044 247.23 74.1901C247.23 74.8672 247.084 75.4672 246.793 75.9901C246.501 76.5044 246.099 76.9072 245.584 77.1987C245.079 77.4901 244.504 77.6358 243.861 77.6358ZM240.377 77.5715V68.0315H241.29V72.8144L241.161 74.1772L241.251 75.5401V77.5715H240.377ZM243.797 76.8258C244.277 76.8258 244.706 76.7187 245.083 76.5044C245.46 76.2815 245.76 75.973 245.983 75.5787C246.206 75.1758 246.317 74.713 246.317 74.1901C246.317 73.6587 246.206 73.1958 245.983 72.8015C245.76 72.4072 245.46 72.103 245.083 71.8887C244.706 71.6658 244.277 71.5544 243.797 71.5544C243.317 71.5544 242.884 71.6658 242.499 71.8887C242.121 72.103 241.821 72.4072 241.599 72.8015C241.384 73.1958 241.277 73.6587 241.277 74.1901C241.277 74.713 241.384 75.1758 241.599 75.5787C241.821 75.973 242.121 76.2815 242.499 76.5044C242.884 76.7187 243.317 76.8258 243.797 76.8258ZM253.283 77.5715V76.0801L253.245 75.8358V73.3415C253.245 72.7672 253.082 72.3258 252.756 72.0172C252.439 71.7087 251.963 71.5544 251.329 71.5544C250.892 71.5544 250.476 71.6272 250.082 71.773C249.688 71.9187 249.353 72.1115 249.079 72.3515L248.668 71.6701C249.01 71.3787 249.422 71.1558 249.902 71.0015C250.382 70.8387 250.888 70.7572 251.419 70.7572C252.293 70.7572 252.966 70.9758 253.438 71.413C253.918 71.8415 254.158 72.4972 254.158 73.3801V77.5715H253.283ZM250.956 77.6358C250.45 77.6358 250.009 77.5544 249.632 77.3915C249.263 77.2201 248.98 76.9887 248.783 76.6972C248.586 76.3972 248.488 76.0544 248.488 75.6687C248.488 75.3172 248.569 75.0001 248.732 74.7172C248.903 74.4258 249.178 74.1944 249.555 74.023C249.94 73.843 250.455 73.753 251.098 73.753H253.425V74.4344H251.123C250.472 74.4344 250.018 74.5501 249.76 74.7815C249.512 75.013 249.388 75.3001 249.388 75.643C249.388 76.0287 249.538 76.3372 249.838 76.5687C250.138 76.8001 250.558 76.9158 251.098 76.9158C251.612 76.9158 252.053 76.8001 252.422 76.5687C252.799 76.3287 253.073 75.9858 253.245 75.5401L253.45 76.1701C253.279 76.6158 252.979 76.9715 252.55 77.2372C252.13 77.503 251.599 77.6358 250.956 77.6358ZM258.45 77.6358C257.893 77.6358 257.366 77.5587 256.868 77.4044C256.371 77.2415 255.981 77.0401 255.698 76.8001L256.11 76.0801C256.384 76.2858 256.736 76.4658 257.164 76.6201C257.593 76.7658 258.043 76.8387 258.514 76.8387C259.157 76.8387 259.62 76.7401 259.903 76.543C260.186 76.3372 260.327 76.0672 260.327 75.733C260.327 75.4844 260.246 75.2915 260.083 75.1544C259.928 75.0087 259.723 74.9015 259.466 74.833C259.208 74.7558 258.921 74.6915 258.604 74.6401C258.287 74.5887 257.97 74.5287 257.653 74.4601C257.344 74.3915 257.061 74.293 256.804 74.1644C256.547 74.0272 256.337 73.843 256.174 73.6115C256.02 73.3801 255.943 73.0715 255.943 72.6858C255.943 72.3172 256.046 71.9872 256.251 71.6958C256.457 71.4044 256.757 71.1772 257.151 71.0144C257.554 70.843 258.043 70.7572 258.617 70.7572C259.054 70.7572 259.491 70.8172 259.928 70.9372C260.366 71.0487 260.726 71.1987 261.008 71.3872L260.61 72.1201C260.31 71.9144 259.988 71.7687 259.646 71.683C259.303 71.5887 258.96 71.5415 258.617 71.5415C258.008 71.5415 257.558 71.6487 257.267 71.863C256.984 72.0687 256.843 72.3344 256.843 72.6601C256.843 72.9172 256.92 73.1187 257.074 73.2644C257.237 73.4101 257.447 73.5258 257.704 73.6115C257.97 73.6887 258.257 73.753 258.566 73.8044C258.883 73.8558 259.196 73.9201 259.504 73.9972C259.821 74.0658 260.108 74.1644 260.366 74.293C260.631 74.413 260.841 74.5887 260.996 74.8201C261.158 75.043 261.24 75.3387 261.24 75.7072C261.24 76.1015 261.128 76.4444 260.906 76.7358C260.691 77.0187 260.374 77.2415 259.954 77.4044C259.543 77.5587 259.041 77.6358 258.45 77.6358ZM265.782 77.6358C265.079 77.6358 264.462 77.4901 263.931 77.1987C263.399 76.8987 262.983 76.4915 262.683 75.9772C262.383 75.4544 262.233 74.8587 262.233 74.1901C262.233 73.5215 262.375 72.9301 262.658 72.4158C262.949 71.9015 263.343 71.4987 263.841 71.2072C264.346 70.9072 264.912 70.7572 265.538 70.7572C266.172 70.7572 266.733 70.903 267.222 71.1944C267.719 71.4772 268.109 71.8801 268.392 72.403C268.675 72.9172 268.816 73.513 268.816 74.1901C268.816 74.233 268.812 74.2801 268.803 74.3315C268.803 74.3744 268.803 74.4215 268.803 74.473H262.928V73.7915H268.315L267.955 74.0615C267.955 73.573 267.848 73.1401 267.633 72.763C267.428 72.3772 267.145 72.0772 266.785 71.863C266.425 71.6487 266.009 71.5415 265.538 71.5415C265.075 71.5415 264.659 71.6487 264.291 71.863C263.922 72.0772 263.635 72.3772 263.429 72.763C263.223 73.1487 263.121 73.5901 263.121 74.0872V74.2287C263.121 74.743 263.232 75.1972 263.455 75.5915C263.686 75.9772 264.003 76.2815 264.406 76.5044C264.818 76.7187 265.285 76.8258 265.808 76.8258C266.219 76.8258 266.601 76.753 266.952 76.6072C267.312 76.4615 267.621 76.2387 267.878 75.9387L268.392 76.5301C268.092 76.8901 267.715 77.1644 267.261 77.353C266.815 77.5415 266.322 77.6358 265.782 77.6358ZM272.487 77.6358C271.93 77.6358 271.403 77.5587 270.906 77.4044C270.409 77.2415 270.019 77.0401 269.736 76.8001L270.147 76.0801C270.422 76.2858 270.773 76.4658 271.202 76.6201C271.63 76.7658 272.08 76.8387 272.552 76.8387C273.194 76.8387 273.657 76.7401 273.94 76.543C274.223 76.3372 274.364 76.0672 274.364 75.733C274.364 75.4844 274.283 75.2915 274.12 75.1544C273.966 75.0087 273.76 74.9015 273.503 74.833C273.246 74.7558 272.959 74.6915 272.642 74.6401C272.324 74.5887 272.007 74.5287 271.69 74.4601C271.382 74.3915 271.099 74.293 270.842 74.1644C270.584 74.0272 270.374 73.843 270.212 73.6115C270.057 73.3801 269.98 73.0715 269.98 72.6858C269.98 72.3172 270.083 71.9872 270.289 71.6958C270.494 71.4044 270.794 71.1772 271.189 71.0144C271.592 70.843 272.08 70.7572 272.654 70.7572C273.092 70.7572 273.529 70.8172 273.966 70.9372C274.403 71.0487 274.763 71.1987 275.046 71.3872L274.647 72.1201C274.347 71.9144 274.026 71.7687 273.683 71.683C273.34 71.5887 272.997 71.5415 272.654 71.5415C272.046 71.5415 271.596 71.6487 271.304 71.863C271.022 72.0687 270.88 72.3344 270.88 72.6601C270.88 72.9172 270.957 73.1187 271.112 73.2644C271.274 73.4101 271.484 73.5258 271.742 73.6115C272.007 73.6887 272.294 73.753 272.603 73.8044C272.92 73.8558 273.233 73.9201 273.542 73.9972C273.859 74.0658 274.146 74.1644 274.403 74.293C274.669 74.413 274.879 74.5887 275.033 74.8201C275.196 75.043 275.277 75.3387 275.277 75.7072C275.277 76.1015 275.166 76.4444 274.943 76.7358C274.729 77.0187 274.412 77.2415 273.992 77.4044C273.58 77.5587 273.079 77.6358 272.487 77.6358Z" fill="white"/>
<path d="M231.9 64.7785C231.317 64.7785 230.79 64.6457 230.319 64.3799C229.847 64.1057 229.47 63.7157 229.187 63.2099C228.913 62.6957 228.776 62.0699 228.776 61.3328C228.776 60.5957 228.913 59.9742 229.187 59.4685C229.461 58.9542 229.834 58.5642 230.306 58.2985C230.777 58.0328 231.309 57.8999 231.9 57.8999C232.543 57.8999 233.117 58.0457 233.623 58.3371C234.137 58.6199 234.54 59.0228 234.831 59.5457C235.123 60.0599 235.269 60.6557 235.269 61.3328C235.269 62.0185 235.123 62.6185 234.831 63.1328C234.54 63.6471 234.137 64.0499 233.623 64.3414C233.117 64.6328 232.543 64.7785 231.9 64.7785ZM228.416 67.2085V57.9642H229.29V59.9957L229.2 61.3457L229.329 62.7085V67.2085H228.416ZM231.836 63.9685C232.316 63.9685 232.744 63.8614 233.121 63.6471C233.499 63.4242 233.799 63.1157 234.021 62.7214C234.244 62.3185 234.356 61.8557 234.356 61.3328C234.356 60.8099 234.244 60.3514 234.021 59.9571C233.799 59.5628 233.499 59.2542 233.121 59.0314C232.744 58.8085 232.316 58.6971 231.836 58.6971C231.356 58.6971 230.923 58.8085 230.537 59.0314C230.16 59.2542 229.86 59.5628 229.637 59.9571C229.423 60.3514 229.316 60.8099 229.316 61.3328C229.316 61.8557 229.423 62.3185 229.637 62.7214C229.86 63.1157 230.16 63.4242 230.537 63.6471C230.923 63.8614 231.356 63.9685 231.836 63.9685ZM239.881 64.7785C239.229 64.7785 238.642 64.6328 238.119 64.3414C237.605 64.0414 237.198 63.6342 236.898 63.1199C236.598 62.5971 236.448 62.0014 236.448 61.3328C236.448 60.6557 236.598 60.0599 236.898 59.5457C237.198 59.0314 237.605 58.6285 238.119 58.3371C238.634 58.0457 239.221 57.8999 239.881 57.8999C240.549 57.8999 241.141 58.0457 241.655 58.3371C242.178 58.6285 242.585 59.0314 242.877 59.5457C243.177 60.0599 243.327 60.6557 243.327 61.3328C243.327 62.0014 243.177 62.5971 242.877 63.1199C242.585 63.6342 242.178 64.0414 241.655 64.3414C241.132 64.6328 240.541 64.7785 239.881 64.7785ZM239.881 63.9685C240.369 63.9685 240.802 63.8614 241.179 63.6471C241.557 63.4242 241.852 63.1157 242.067 62.7214C242.289 62.3185 242.401 61.8557 242.401 61.3328C242.401 60.8014 242.289 60.3385 242.067 59.9442C241.852 59.5499 241.557 59.2457 241.179 59.0314C240.802 58.8085 240.374 58.6971 239.894 58.6971C239.414 58.6971 238.985 58.8085 238.608 59.0314C238.231 59.2457 237.931 59.5499 237.708 59.9442C237.485 60.3385 237.374 60.8014 237.374 61.3328C237.374 61.8557 237.485 62.3185 237.708 62.7214C237.931 63.1157 238.231 63.4242 238.608 63.6471C238.985 63.8614 239.409 63.9685 239.881 63.9685ZM245.19 64.7142V55.1742H246.103V64.7142H245.19ZM248.643 64.7142V57.9642H249.556V64.7142H248.643ZM249.106 56.4728C248.917 56.4728 248.759 56.4085 248.63 56.2799C248.502 56.1514 248.437 55.9971 248.437 55.8171C248.437 55.6371 248.502 55.4871 248.63 55.3671C248.759 55.2385 248.917 55.1742 249.106 55.1742C249.295 55.1742 249.453 55.2342 249.582 55.3542C249.71 55.4742 249.775 55.6242 249.775 55.8042C249.775 55.9928 249.71 56.1514 249.582 56.2799C249.462 56.4085 249.303 56.4728 249.106 56.4728ZM254.899 64.7785C254.23 64.7785 253.63 64.6328 253.099 64.3414C252.576 64.0414 252.164 63.6342 251.864 63.1199C251.564 62.5971 251.414 62.0014 251.414 61.3328C251.414 60.6557 251.564 60.0599 251.864 59.5457C252.164 59.0314 252.576 58.6285 253.099 58.3371C253.63 58.0457 254.23 57.8999 254.899 57.8999C255.473 57.8999 255.992 58.0114 256.454 58.2342C256.917 58.4571 257.282 58.7914 257.547 59.2371L256.866 59.6999C256.634 59.3571 256.347 59.1042 256.004 58.9414C255.662 58.7785 255.289 58.6971 254.886 58.6971C254.406 58.6971 253.973 58.8085 253.587 59.0314C253.202 59.2457 252.897 59.5499 252.674 59.9442C252.452 60.3385 252.34 60.8014 252.34 61.3328C252.34 61.8642 252.452 62.3271 252.674 62.7214C252.897 63.1157 253.202 63.4242 253.587 63.6471C253.973 63.8614 254.406 63.9685 254.886 63.9685C255.289 63.9685 255.662 63.8871 256.004 63.7242C256.347 63.5614 256.634 63.3128 256.866 62.9785L257.547 63.4414C257.282 63.8785 256.917 64.2128 256.454 64.4442C255.992 64.6671 255.473 64.7785 254.899 64.7785ZM259.24 64.7142V57.9642H260.153V64.7142H259.24ZM259.703 56.4728C259.514 56.4728 259.356 56.4085 259.227 56.2799C259.099 56.1514 259.034 55.9971 259.034 55.8171C259.034 55.6371 259.099 55.4871 259.227 55.3671C259.356 55.2385 259.514 55.1742 259.703 55.1742C259.892 55.1742 260.05 55.2342 260.179 55.3542C260.307 55.4742 260.372 55.6242 260.372 55.8042C260.372 55.9928 260.307 56.1514 260.179 56.2799C260.059 56.4085 259.9 56.4728 259.703 56.4728ZM265.56 64.7785C264.857 64.7785 264.24 64.6328 263.709 64.3414C263.177 64.0414 262.762 63.6342 262.462 63.1199C262.162 62.5971 262.012 62.0014 262.012 61.3328C262.012 60.6642 262.153 60.0728 262.436 59.5585C262.727 59.0442 263.122 58.6414 263.619 58.3499C264.124 58.0499 264.69 57.8999 265.316 57.8999C265.95 57.8999 266.512 58.0457 267 58.3371C267.497 58.6199 267.887 59.0228 268.17 59.5457C268.453 60.0599 268.594 60.6557 268.594 61.3328C268.594 61.3757 268.59 61.4228 268.582 61.4742C268.582 61.5171 268.582 61.5642 268.582 61.6157H262.706V60.9342H268.093L267.733 61.2042C267.733 60.7157 267.626 60.2828 267.412 59.9057C267.206 59.5199 266.923 59.2199 266.563 59.0057C266.203 58.7914 265.787 58.6842 265.316 58.6842C264.853 58.6842 264.437 58.7914 264.069 59.0057C263.7 59.2199 263.413 59.5199 263.207 59.9057C263.002 60.2914 262.899 60.7328 262.899 61.2299V61.3714C262.899 61.8857 263.01 62.3399 263.233 62.7342C263.464 63.1199 263.782 63.4242 264.184 63.6471C264.596 63.8614 265.063 63.9685 265.586 63.9685C265.997 63.9685 266.379 63.8957 266.73 63.7499C267.09 63.6042 267.399 63.3814 267.656 63.0814L268.17 63.6728C267.87 64.0328 267.493 64.3071 267.039 64.4957C266.593 64.6842 266.1 64.7785 265.56 64.7785ZM272.265 64.7785C271.708 64.7785 271.181 64.7014 270.684 64.5471C270.187 64.3842 269.797 64.1828 269.514 63.9428L269.925 63.2228C270.2 63.4285 270.551 63.6085 270.98 63.7628C271.408 63.9085 271.858 63.9814 272.33 63.9814C272.973 63.9814 273.435 63.8828 273.718 63.6857C274.001 63.4799 274.143 63.2099 274.143 62.8757C274.143 62.6271 274.061 62.4342 273.898 62.2971C273.744 62.1514 273.538 62.0442 273.281 61.9757C273.024 61.8985 272.737 61.8342 272.42 61.7828C272.103 61.7314 271.785 61.6714 271.468 61.6028C271.16 61.5342 270.877 61.4357 270.62 61.3071C270.363 61.1699 270.153 60.9857 269.99 60.7542C269.835 60.5228 269.758 60.2142 269.758 59.8285C269.758 59.4599 269.861 59.1299 270.067 58.8385C270.273 58.5471 270.573 58.3199 270.967 58.1571C271.37 57.9857 271.858 57.8999 272.433 57.8999C272.87 57.8999 273.307 57.9599 273.744 58.0799C274.181 58.1914 274.541 58.3414 274.824 58.5299L274.425 59.2628C274.125 59.0571 273.804 58.9114 273.461 58.8257C273.118 58.7314 272.775 58.6842 272.433 58.6842C271.824 58.6842 271.374 58.7914 271.083 59.0057C270.8 59.2114 270.658 59.4771 270.658 59.8028C270.658 60.0599 270.735 60.2614 270.89 60.4071C271.053 60.5528 271.263 60.6685 271.52 60.7542C271.785 60.8314 272.073 60.8957 272.381 60.9471C272.698 60.9985 273.011 61.0628 273.32 61.1399C273.637 61.2085 273.924 61.3071 274.181 61.4357C274.447 61.5557 274.657 61.7314 274.811 61.9628C274.974 62.1857 275.055 62.4814 275.055 62.8499C275.055 63.2442 274.944 63.5871 274.721 63.8785C274.507 64.1614 274.19 64.3842 273.77 64.5471C273.358 64.7014 272.857 64.7785 272.265 64.7785Z" fill="white"/>
<path d="M215.229 49.7785C214.671 49.7785 214.144 49.7014 213.647 49.5471C213.15 49.3842 212.76 49.1828 212.477 48.9428L212.889 48.2228C213.163 48.4285 213.514 48.6085 213.943 48.7628C214.371 48.9085 214.821 48.9814 215.293 48.9814C215.936 48.9814 216.399 48.8828 216.681 48.6857C216.964 48.4799 217.106 48.2099 217.106 47.8757C217.106 47.6271 217.024 47.4342 216.861 47.2971C216.707 47.1514 216.501 47.0442 216.244 46.9757C215.987 46.8985 215.7 46.8342 215.383 46.7828C215.066 46.7314 214.749 46.6714 214.431 46.6028C214.123 46.5342 213.84 46.4357 213.583 46.3071C213.326 46.1699 213.116 45.9857 212.953 45.7542C212.799 45.5228 212.721 45.2142 212.721 44.8285C212.721 44.4599 212.824 44.1299 213.03 43.8385C213.236 43.5471 213.536 43.3199 213.93 43.1571C214.333 42.9857 214.821 42.8999 215.396 42.8999C215.833 42.8999 216.27 42.9599 216.707 43.0799C217.144 43.1914 217.504 43.3414 217.787 43.5299L217.389 44.2628C217.089 44.0571 216.767 43.9114 216.424 43.8257C216.081 43.7314 215.739 43.6842 215.396 43.6842C214.787 43.6842 214.337 43.7914 214.046 44.0057C213.763 44.2114 213.621 44.4771 213.621 44.8028C213.621 45.0599 213.699 45.2614 213.853 45.4071C214.016 45.5528 214.226 45.6685 214.483 45.7542C214.749 45.8314 215.036 45.8957 215.344 45.9471C215.661 45.9985 215.974 46.0628 216.283 46.1399C216.6 46.2085 216.887 46.3071 217.144 46.4357C217.41 46.5557 217.62 46.7314 217.774 46.9628C217.937 47.1857 218.019 47.4814 218.019 47.8499C218.019 48.2442 217.907 48.5871 217.684 48.8785C217.47 49.1614 217.153 49.3842 216.733 49.5471C216.321 49.7014 215.82 49.7785 215.229 49.7785ZM221.828 49.7785C221.194 49.7785 220.705 49.6071 220.362 49.2642C220.019 48.9214 219.848 48.4371 219.848 47.8114V41.4728H220.761V47.7599C220.761 48.1542 220.859 48.4585 221.056 48.6728C221.262 48.8871 221.554 48.9942 221.931 48.9942C222.334 48.9942 222.668 48.8785 222.934 48.6471L223.255 49.3028C223.075 49.4657 222.856 49.5857 222.599 49.6628C222.351 49.7399 222.094 49.7785 221.828 49.7785ZM218.639 43.7228V42.9642H222.818V43.7228H218.639ZM229.147 49.7142V48.2228L229.108 47.9785V45.4842C229.108 44.9099 228.945 44.4685 228.62 44.1599C228.303 43.8514 227.827 43.6971 227.193 43.6971C226.755 43.6971 226.34 43.7699 225.945 43.9157C225.551 44.0614 225.217 44.2542 224.943 44.4942L224.531 43.8128C224.874 43.5214 225.285 43.2985 225.765 43.1442C226.245 42.9814 226.751 42.8999 227.283 42.8999C228.157 42.8999 228.83 43.1185 229.301 43.5557C229.781 43.9842 230.021 44.6399 230.021 45.5228V49.7142H229.147ZM226.82 49.7785C226.314 49.7785 225.873 49.6971 225.495 49.5342C225.127 49.3628 224.844 49.1314 224.647 48.8399C224.45 48.5399 224.351 48.1971 224.351 47.8114C224.351 47.4599 224.433 47.1428 224.595 46.8599C224.767 46.5685 225.041 46.3371 225.418 46.1657C225.804 45.9857 226.318 45.8957 226.961 45.8957H229.288V46.5771H226.987C226.335 46.5771 225.881 46.6928 225.624 46.9242C225.375 47.1557 225.251 47.4428 225.251 47.7857C225.251 48.1714 225.401 48.4799 225.701 48.7114C226.001 48.9428 226.421 49.0585 226.961 49.0585C227.475 49.0585 227.917 48.9428 228.285 48.7114C228.663 48.4714 228.937 48.1285 229.108 47.6828L229.314 48.3128C229.143 48.7585 228.843 49.1142 228.414 49.3799C227.994 49.6457 227.463 49.7785 226.82 49.7785ZM235.946 42.8999C236.495 42.8999 236.975 43.0071 237.386 43.2214C237.806 43.4271 238.132 43.7442 238.363 44.1728C238.603 44.6014 238.723 45.1414 238.723 45.7928V49.7142H237.811V45.8828C237.811 45.1714 237.631 44.6357 237.271 44.2757C236.919 43.9071 236.422 43.7228 235.779 43.7228C235.299 43.7228 234.879 43.8214 234.519 44.0185C234.168 44.2071 233.893 44.4857 233.696 44.8542C233.508 45.2142 233.413 45.6514 233.413 46.1657V49.7142H232.501V42.9642H233.375V44.8157L233.233 44.4685C233.448 43.9799 233.791 43.5985 234.262 43.3242C234.733 43.0414 235.295 42.8999 235.946 42.8999ZM243.876 49.7785C243.233 49.7785 242.655 49.6328 242.141 49.3414C241.635 49.0499 241.236 48.6471 240.945 48.1328C240.653 47.6099 240.508 47.0099 240.508 46.3328C240.508 45.6471 240.653 45.0471 240.945 44.5328C241.236 44.0185 241.635 43.6199 242.141 43.3371C242.655 43.0457 243.233 42.8999 243.876 42.8999C244.468 42.8999 244.995 43.0328 245.458 43.2985C245.929 43.5642 246.302 43.9542 246.576 44.4685C246.859 44.9742 247.001 45.5957 247.001 46.3328C247.001 47.0614 246.863 47.6828 246.589 48.1971C246.315 48.7114 245.942 49.1057 245.471 49.3799C245.008 49.6457 244.476 49.7785 243.876 49.7785ZM243.941 48.9685C244.421 48.9685 244.849 48.8614 245.226 48.6471C245.612 48.4242 245.912 48.1157 246.126 47.7214C246.349 47.3185 246.461 46.8557 246.461 46.3328C246.461 45.8014 246.349 45.3385 246.126 44.9442C245.912 44.5499 245.612 44.2457 245.226 44.0314C244.849 43.8085 244.421 43.6971 243.941 43.6971C243.469 43.6971 243.045 43.8085 242.668 44.0314C242.291 44.2457 241.991 44.5499 241.768 44.9442C241.545 45.3385 241.433 45.8014 241.433 46.3328C241.433 46.8557 241.545 47.3185 241.768 47.7214C241.991 48.1157 242.291 48.4242 242.668 48.6471C243.045 48.8614 243.469 48.9685 243.941 48.9685ZM246.486 49.7142V47.6828L246.576 46.3199L246.448 44.9571V40.1742H247.361V49.7142H246.486ZM254.133 49.7142V48.2228L254.094 47.9785V45.4842C254.094 44.9099 253.931 44.4685 253.606 44.1599C253.289 43.8514 252.813 43.6971 252.179 43.6971C251.741 43.6971 251.326 43.7699 250.931 43.9157C250.537 44.0614 250.203 44.2542 249.929 44.4942L249.517 43.8128C249.86 43.5214 250.271 43.2985 250.751 43.1442C251.231 42.9814 251.737 42.8999 252.269 42.8999C253.143 42.8999 253.816 43.1185 254.287 43.5557C254.767 43.9842 255.007 44.6399 255.007 45.5228V49.7142H254.133ZM251.806 49.7785C251.3 49.7785 250.859 49.6971 250.481 49.5342C250.113 49.3628 249.83 49.1314 249.633 48.8399C249.436 48.5399 249.337 48.1971 249.337 47.8114C249.337 47.4599 249.419 47.1428 249.581 46.8599C249.753 46.5685 250.027 46.3371 250.404 46.1657C250.79 45.9857 251.304 45.8957 251.947 45.8957H254.274V46.5771H251.973C251.321 46.5771 250.867 46.6928 250.61 46.9242C250.361 47.1557 250.237 47.4428 250.237 47.7857C250.237 48.1714 250.387 48.4799 250.687 48.7114C250.987 48.9428 251.407 49.0585 251.947 49.0585C252.461 49.0585 252.903 48.9428 253.271 48.7114C253.649 48.4714 253.923 48.1285 254.094 47.6828L254.3 48.3128C254.129 48.7585 253.829 49.1142 253.4 49.3799C252.98 49.6457 252.449 49.7785 251.806 49.7785ZM257.487 49.7142V42.9642H258.361V44.8028L258.271 44.4814C258.459 43.9671 258.777 43.5771 259.222 43.3114C259.668 43.0371 260.221 42.8999 260.881 42.8999V43.7871C260.847 43.7871 260.812 43.7871 260.778 43.7871C260.744 43.7785 260.709 43.7742 260.675 43.7742C259.964 43.7742 259.407 43.9928 259.004 44.4299C258.601 44.8585 258.399 45.4714 258.399 46.2685V49.7142H257.487ZM265.171 49.7785C264.528 49.7785 263.949 49.6328 263.435 49.3414C262.929 49.0499 262.531 48.6471 262.239 48.1328C261.948 47.6099 261.802 47.0099 261.802 46.3328C261.802 45.6471 261.948 45.0471 262.239 44.5328C262.531 44.0185 262.929 43.6199 263.435 43.3371C263.949 43.0457 264.528 42.8999 265.171 42.8999C265.762 42.8999 266.289 43.0328 266.752 43.2985C267.224 43.5642 267.597 43.9542 267.871 44.4685C268.154 44.9742 268.295 45.5957 268.295 46.3328C268.295 47.0614 268.158 47.6828 267.884 48.1971C267.609 48.7114 267.237 49.1057 266.765 49.3799C266.302 49.6457 265.771 49.7785 265.171 49.7785ZM265.235 48.9685C265.715 48.9685 266.144 48.8614 266.521 48.6471C266.907 48.4242 267.207 48.1157 267.421 47.7214C267.644 47.3185 267.755 46.8557 267.755 46.3328C267.755 45.8014 267.644 45.3385 267.421 44.9442C267.207 44.5499 266.907 44.2457 266.521 44.0314C266.144 43.8085 265.715 43.6971 265.235 43.6971C264.764 43.6971 264.339 43.8085 263.962 44.0314C263.585 44.2457 263.285 44.5499 263.062 44.9442C262.839 45.3385 262.728 45.8014 262.728 46.3328C262.728 46.8557 262.839 47.3185 263.062 47.7214C263.285 48.1157 263.585 48.4242 263.962 48.6471C264.339 48.8614 264.764 48.9685 265.235 48.9685ZM267.781 49.7142V47.6828L267.871 46.3199L267.742 44.9571V40.1742H268.655V49.7142H267.781ZM273.01 49.7785C272.453 49.7785 271.926 49.7014 271.429 49.5471C270.932 49.3842 270.542 49.1828 270.259 48.9428L270.67 48.2228C270.945 48.4285 271.296 48.6085 271.725 48.7628C272.153 48.9085 272.603 48.9814 273.075 48.9814C273.717 48.9814 274.18 48.8828 274.463 48.6857C274.746 48.4799 274.887 48.2099 274.887 47.8757C274.887 47.6271 274.806 47.4342 274.643 47.2971C274.489 47.1514 274.283 47.0442 274.026 46.9757C273.769 46.8985 273.482 46.8342 273.165 46.7828C272.847 46.7314 272.53 46.6714 272.213 46.6028C271.905 46.5342 271.622 46.4357 271.365 46.3071C271.107 46.1699 270.897 45.9857 270.735 45.7542C270.58 45.5228 270.503 45.2142 270.503 44.8285C270.503 44.4599 270.606 44.1299 270.812 43.8385C271.017 43.5471 271.317 43.3199 271.712 43.1571C272.115 42.9857 272.603 42.8999 273.177 42.8999C273.615 42.8999 274.052 42.9599 274.489 43.0799C274.926 43.1914 275.286 43.3414 275.569 43.5299L275.17 44.2628C274.87 44.0571 274.549 43.9114 274.206 43.8257C273.863 43.7314 273.52 43.6842 273.177 43.6842C272.569 43.6842 272.119 43.7914 271.827 44.0057C271.545 44.2114 271.403 44.4771 271.403 44.8028C271.403 45.0599 271.48 45.2614 271.635 45.4071C271.797 45.5528 272.007 45.6685 272.265 45.7542C272.53 45.8314 272.817 45.8957 273.126 45.9471C273.443 45.9985 273.756 46.0628 274.065 46.1399C274.382 46.2085 274.669 46.3071 274.926 46.4357C275.192 46.5557 275.402 46.7314 275.556 46.9628C275.719 47.1857 275.8 47.4814 275.8 47.8499C275.8 48.2442 275.689 48.5871 275.466 48.8785C275.252 49.1614 274.935 49.3842 274.515 49.5471C274.103 49.7014 273.602 49.7785 273.01 49.7785Z" fill="white"/>
<path d="M68.5307 93.8322C67.4778 93.8322 66.5428 93.6201 65.7257 93.1958C64.9085 92.7715 64.2721 92.1665 63.8164 91.3808C63.3607 90.5951 63.1328 89.6601 63.1328 88.5758C63.1328 87.5229 63.3057 86.5486 63.6514 85.6529C63.9971 84.7572 64.4843 83.9794 65.1128 83.3194C65.7414 82.6436 66.48 82.1251 67.3285 81.7636C68.1928 81.4022 69.1278 81.2215 70.1335 81.2215C71.2178 81.2215 72.1371 81.4179 72.8914 81.8108C73.6457 82.1879 74.2271 82.7458 74.6357 83.4844C75.0443 84.2072 75.2485 85.0872 75.2485 86.1244C75.2485 87.6172 74.9735 88.9451 74.4235 90.1079C73.8735 91.2708 73.0957 92.1822 72.09 92.8422C71.0843 93.5022 69.8978 93.8322 68.5307 93.8322ZM68.8843 92.3472C69.9214 92.3472 70.8407 92.1036 71.6421 91.6165C72.4593 91.1136 73.0957 90.4222 73.5514 89.5422C74.0228 88.6622 74.2585 87.6644 74.2585 86.5486C74.2585 85.3229 73.8971 84.3722 73.1743 83.6965C72.4671 83.0208 71.4693 82.6829 70.1807 82.6829C69.1593 82.6829 68.24 82.9344 67.4228 83.4372C66.6057 83.9401 65.9614 84.6315 65.49 85.5115C65.0343 86.3758 64.8064 87.3736 64.8064 88.5051C64.8064 89.7151 65.16 90.6579 65.8671 91.3336C66.59 92.0094 67.5957 92.3472 68.8843 92.3472ZM72.9621 93.7144L73.6693 90.1551L74.3764 87.6565L74.6121 85.0636L75.3664 81.3394H77.04L74.565 93.7144H72.9621ZM82.8323 93.8322C81.8266 93.8322 80.8758 93.6908 79.9801 93.4079C79.0844 93.1251 78.393 92.7636 77.9058 92.3236L78.7073 91.0036C79.1787 91.4279 79.7994 91.7658 80.5694 92.0172C81.3394 92.2529 82.1487 92.3708 82.9973 92.3708C84.1758 92.3708 85.0794 92.1744 85.708 91.7815C86.3523 91.3886 86.6744 90.8465 86.6744 90.1551C86.6744 89.6836 86.5016 89.3301 86.1558 89.0944C85.8258 88.8429 85.3937 88.6544 84.8594 88.5286C84.3251 88.3872 83.7594 88.2536 83.1623 88.1279C82.5651 88.0022 81.9994 87.8451 81.4651 87.6565C80.9308 87.4522 80.4908 87.1458 80.1451 86.7372C79.8151 86.3286 79.6501 85.7786 79.6501 85.0872C79.6501 84.3015 79.8701 83.6179 80.3101 83.0365C80.7658 82.4551 81.3944 82.0072 82.1958 81.6929C82.9973 81.3786 83.9401 81.2215 85.0244 81.2215C85.8101 81.2215 86.588 81.3236 87.358 81.5279C88.128 81.7322 88.7487 82.0151 89.2201 82.3765L88.513 83.7201C88.0258 83.3429 87.4601 83.0758 86.8158 82.9186C86.1716 82.7458 85.5273 82.6594 84.883 82.6594C83.7358 82.6594 82.848 82.8715 82.2194 83.2958C81.6066 83.7044 81.3001 84.2465 81.3001 84.9222C81.3001 85.3936 81.4651 85.7551 81.7951 86.0065C82.1408 86.2579 82.5808 86.4544 83.1151 86.5958C83.6494 86.7372 84.2151 86.8708 84.8123 86.9965C85.4251 87.1065 85.9908 87.2636 86.5094 87.4679C87.0437 87.6722 87.4758 87.9708 87.8058 88.3636C88.1516 88.7408 88.3244 89.2751 88.3244 89.9665C88.3244 90.7836 88.0966 91.4829 87.6408 92.0644C87.1851 92.6301 86.5408 93.0701 85.708 93.3844C84.8908 93.6829 83.9323 93.8322 82.8323 93.8322ZM94.3418 93.8322C93.336 93.8322 92.3853 93.6908 91.4896 93.4079C90.5939 93.1251 89.9025 92.7636 89.4153 92.3236L90.2168 91.0036C90.6882 91.4279 91.3089 91.7658 92.0789 92.0172C92.8489 92.2529 93.6582 92.3708 94.5068 92.3708C95.6853 92.3708 96.5889 92.1744 97.2175 91.7815C97.8618 91.3886 98.1839 90.8465 98.1839 90.1551C98.1839 89.6836 98.011 89.3301 97.6653 89.0944C97.3353 88.8429 96.9032 88.6544 96.3689 88.5286C95.8346 88.3872 95.2689 88.2536 94.6718 88.1279C94.0746 88.0022 93.5089 87.8451 92.9746 87.6565C92.4403 87.4522 92.0003 87.1458 91.6546 86.7372C91.3246 86.3286 91.1596 85.7786 91.1596 85.0872C91.1596 84.3015 91.3796 83.6179 91.8196 83.0365C92.2753 82.4551 92.9039 82.0072 93.7053 81.6929C94.5068 81.3786 95.4496 81.2215 96.5339 81.2215C97.3196 81.2215 98.0975 81.3236 98.8675 81.5279C99.6375 81.7322 100.258 82.0151 100.73 82.3765L100.022 83.7201C99.5353 83.3429 98.9696 83.0758 98.3253 82.9186C97.681 82.7458 97.0368 82.6594 96.3925 82.6594C95.2453 82.6594 94.3575 82.8715 93.7289 83.2958C93.116 83.7044 92.8096 84.2465 92.8096 84.9222C92.8096 85.3936 92.9746 85.7551 93.3046 86.0065C93.6503 86.2579 94.0903 86.4544 94.6246 86.5958C95.1589 86.7372 95.7246 86.8708 96.3218 86.9965C96.9346 87.1065 97.5003 87.2636 98.0189 87.4679C98.5532 87.6722 98.9853 87.9708 99.3153 88.3636C99.661 88.7408 99.8339 89.2751 99.8339 89.9665C99.8339 90.7836 99.606 91.4829 99.1503 92.0644C98.6946 92.6301 98.0503 93.0701 97.2175 93.3844C96.4003 93.6829 95.4418 93.8322 94.3418 93.8322ZM102.245 93.7144L104.696 81.3394H106.37L103.918 93.7144H102.245ZM106.252 78.6051C105.922 78.6051 105.647 78.4951 105.427 78.2751C105.223 78.0551 105.121 77.7958 105.121 77.4972C105.121 77.1515 105.238 76.8529 105.474 76.6015C105.726 76.3501 106.04 76.2244 106.417 76.2244C106.747 76.2244 107.022 76.3265 107.242 76.5308C107.462 76.7351 107.572 76.9944 107.572 77.3086C107.572 77.6858 107.446 78.0001 107.195 78.2515C106.943 78.4872 106.629 78.6051 106.252 78.6051ZM112.181 93.8322C111.176 93.8322 110.225 93.6908 109.329 93.4079C108.434 93.1251 107.742 92.7636 107.255 92.3236L108.056 91.0036C108.528 91.4279 109.149 91.7658 109.919 92.0172C110.689 92.2529 111.498 92.3708 112.346 92.3708C113.525 92.3708 114.429 92.1744 115.057 91.7815C115.701 91.3886 116.024 90.8465 116.024 90.1551C116.024 89.6836 115.851 89.3301 115.505 89.0944C115.175 88.8429 114.743 88.6544 114.209 88.5286C113.674 88.3872 113.109 88.2536 112.511 88.1279C111.914 88.0022 111.349 87.8451 110.814 87.6565C110.28 87.4522 109.84 87.1458 109.494 86.7372C109.164 86.3286 108.999 85.7786 108.999 85.0872C108.999 84.3015 109.219 83.6179 109.659 83.0365C110.115 82.4551 110.744 82.0072 111.545 81.6929C112.346 81.3786 113.289 81.2215 114.374 81.2215C115.159 81.2215 115.937 81.3236 116.707 81.5279C117.477 81.7322 118.098 82.0151 118.569 82.3765L117.862 83.7201C117.375 83.3429 116.809 83.0758 116.165 82.9186C115.521 82.7458 114.876 82.6594 114.232 82.6594C113.085 82.6594 112.197 82.8715 111.569 83.2958C110.956 83.7044 110.649 84.2465 110.649 84.9222C110.649 85.3936 110.814 85.7551 111.144 86.0065C111.49 86.2579 111.93 86.4544 112.464 86.5958C112.999 86.7372 113.564 86.8708 114.161 86.9965C114.774 87.1065 115.34 87.2636 115.859 87.4679C116.393 87.6722 116.825 87.9708 117.155 88.3636C117.501 88.7408 117.674 89.2751 117.674 89.9665C117.674 90.7836 117.446 91.4829 116.99 92.0644C116.534 92.6301 115.89 93.0701 115.057 93.3844C114.24 93.6829 113.281 93.8322 112.181 93.8322ZM124.021 93.8322C123.314 93.8322 122.709 93.6829 122.206 93.3844C121.703 93.0701 121.35 92.6301 121.145 92.0644C120.957 91.4986 120.941 90.8229 121.098 90.0372L123.361 78.6051H125.035L122.772 89.9665C122.615 90.7365 122.67 91.3336 122.937 91.7579C123.22 92.1822 123.73 92.3944 124.469 92.3944C124.815 92.3944 125.152 92.3472 125.482 92.2529C125.812 92.1429 126.111 91.9779 126.378 91.7579L126.779 93.0308C126.386 93.3294 125.946 93.5415 125.459 93.6672C124.972 93.7772 124.492 93.8322 124.021 93.8322ZM120.344 82.7301L120.603 81.3394H128.264L127.981 82.7301H120.344ZM134.503 93.8322C133.45 93.8322 132.515 93.6201 131.698 93.1958C130.881 92.7715 130.244 92.1665 129.789 91.3808C129.333 90.5951 129.105 89.6601 129.105 88.5758C129.105 87.5229 129.278 86.5486 129.624 85.6529C129.969 84.7572 130.457 83.9794 131.085 83.3194C131.714 82.6436 132.452 82.1251 133.301 81.7636C134.165 81.4022 135.1 81.2215 136.106 81.2215C137.19 81.2215 138.109 81.4179 138.864 81.8108C139.618 82.1879 140.199 82.7458 140.608 83.4844C141.017 84.2072 141.221 85.0872 141.221 86.1244C141.221 87.6172 140.946 88.9451 140.396 90.1079C139.846 91.2708 139.068 92.1822 138.062 92.8422C137.057 93.5022 135.87 93.8322 134.503 93.8322ZM134.857 92.3472C135.894 92.3472 136.813 92.1036 137.614 91.6165C138.432 91.1136 139.068 90.4222 139.524 89.5422C139.995 88.6622 140.231 87.6644 140.231 86.5486C140.231 85.3229 139.869 84.3722 139.147 83.6965C138.439 83.0208 137.442 82.6829 136.153 82.6829C135.132 82.6829 134.212 82.9344 133.395 83.4372C132.578 83.9401 131.934 84.6315 131.462 85.5115C131.007 86.3758 130.779 87.3736 130.779 88.5051C130.779 89.7151 131.132 90.6579 131.839 91.3336C132.562 92.0094 133.568 92.3472 134.857 92.3472ZM138.934 93.7144L139.642 90.1551L140.349 87.6565L140.584 85.0636L141.339 81.3394H143.012L140.537 93.7144H138.934ZM153.708 81.2215C154.823 81.2215 155.735 81.4415 156.442 81.8815C157.165 82.3058 157.66 82.9265 157.927 83.7436C158.21 84.5608 158.233 85.5351 157.998 86.6665L156.583 93.7144H154.91L156.324 86.6429C156.575 85.4172 156.442 84.4586 155.923 83.7672C155.42 83.0758 154.525 82.7301 153.236 82.7301C151.916 82.7301 150.816 83.0915 149.936 83.8144C149.072 84.5372 148.49 85.6215 148.192 87.0672L146.872 93.7144H145.198L147.65 81.3394H149.253L148.545 84.8986L148.192 84.2858C148.789 83.2172 149.559 82.4394 150.502 81.9522C151.46 81.4651 152.529 81.2215 153.708 81.2215ZM165.064 93.8322C164.357 93.8322 163.752 93.6829 163.249 93.3844C162.746 93.0701 162.392 92.6301 162.188 92.0644C161.999 91.4986 161.984 90.8229 162.141 90.0372L164.404 78.6051H166.077L163.814 89.9665C163.657 90.7365 163.712 91.3336 163.979 91.7579C164.262 92.1822 164.773 92.3944 165.512 92.3944C165.857 92.3944 166.195 92.3472 166.525 92.2529C166.855 92.1429 167.154 91.9779 167.421 91.7579L167.822 93.0308C167.429 93.3294 166.989 93.5415 166.502 93.6672C166.014 93.7772 165.535 93.8322 165.064 93.8322ZM161.387 82.7301L161.646 81.3394H169.307L169.024 82.7301H161.387Z" fill="white"/>
<path d="M4.62857 56.1457H14.1429V57.7914H4.62857V56.1457ZM4.83429 65.4286H2.93143V47.4286H15.2743V49.0743H4.83429V65.4286ZM15.47 65.4286L23.6985 47.4286H25.5757L33.8042 65.4286H31.7985L24.2385 48.5343H25.01L17.45 65.4286H15.47ZM18.71 60.62L19.2757 59.0772H29.7414L30.3071 60.62H18.71ZM36.7819 65.4286V47.4286H38.6847V65.4286H36.7819ZM44.5414 65.4286V47.4286H51.2785C52.8042 47.4286 54.1157 47.6772 55.2128 48.1743C56.3099 48.6543 57.1499 49.3572 57.7328 50.2829C58.3328 51.1914 58.6328 52.2972 58.6328 53.6C58.6328 54.8686 58.3328 55.9657 57.7328 56.8914C57.1499 57.8 56.3099 58.5029 55.2128 59C54.1157 59.48 52.8042 59.72 51.2785 59.72H45.5957L46.4442 58.8457V65.4286H44.5414ZM56.8328 65.4286L52.2042 58.8972H54.2614L58.9157 65.4286H56.8328ZM46.4442 59L45.5957 58.1H51.2271C53.0271 58.1 54.3899 57.7057 55.3157 56.9172C56.2585 56.1286 56.7299 55.0229 56.7299 53.6C56.7299 52.16 56.2585 51.0457 55.3157 50.2572C54.3899 49.4686 53.0271 49.0743 51.2271 49.0743H45.5957L46.4442 48.1743V59Z" fill="#27AAE1"/>
<path d="M67.3925 65.5786C66.0925 65.5786 64.8625 65.3986 63.7025 65.0386C62.5425 64.6586 61.6325 64.1886 60.9725 63.6286L61.9325 61.9486C62.5725 62.4286 63.3925 62.8486 64.3925 63.2086C65.3925 63.5486 66.4425 63.7186 67.5425 63.7186C69.0425 63.7186 70.1225 63.4886 70.7825 63.0286C71.4425 62.5486 71.7725 61.9186 71.7725 61.1386C71.7725 60.5586 71.5825 60.1086 71.2025 59.7886C70.8425 59.4486 70.3625 59.1986 69.7625 59.0386C69.1625 58.8586 68.4925 58.7086 67.7525 58.5886C67.0125 58.4686 66.2725 58.3286 65.5325 58.1686C64.8125 58.0086 64.1525 57.7786 63.5525 57.4786C62.9525 57.1586 62.4625 56.7286 62.0825 56.1886C61.7225 55.6486 61.5425 54.9286 61.5425 54.0286C61.5425 53.1686 61.7825 52.3986 62.2625 51.7186C62.7425 51.0386 63.4425 50.5086 64.3625 50.1286C65.3025 49.7286 66.4425 49.5286 67.7825 49.5286C68.8025 49.5286 69.8225 49.6686 70.8425 49.9486C71.8625 50.2086 72.7025 50.5586 73.3625 50.9986L72.4325 52.7086C71.7325 52.2286 70.9825 51.8886 70.1825 51.6886C69.3825 51.4686 68.5825 51.3586 67.7825 51.3586C66.3625 51.3586 65.3125 51.6086 64.6325 52.1086C63.9725 52.5886 63.6425 53.2086 63.6425 53.9686C63.6425 54.5686 63.8225 55.0386 64.1825 55.3786C64.5625 55.7186 65.0525 55.9886 65.6525 56.1886C66.2725 56.3686 66.9425 56.5186 67.6625 56.6386C68.4025 56.7586 69.1325 56.9086 69.8525 57.0886C70.5925 57.2486 71.2625 57.4786 71.8625 57.7786C72.4825 58.0586 72.9725 58.4686 73.3325 59.0086C73.7125 59.5286 73.9025 60.2186 73.9025 61.0786C73.9025 61.9986 73.6425 62.7986 73.1225 63.4786C72.6225 64.1386 71.8825 64.6586 70.9025 65.0386C69.9425 65.3986 68.7725 65.5786 67.3925 65.5786ZM85.851 49.5286C87.131 49.5286 88.251 49.7786 89.211 50.2786C90.191 50.7586 90.951 51.4986 91.491 52.4986C92.051 53.4986 92.331 54.7586 92.331 56.2786V65.4286H90.201V56.4886C90.201 54.8286 89.781 53.5786 88.941 52.7386C88.121 51.8786 86.961 51.4486 85.461 51.4486C84.341 51.4486 83.361 51.6786 82.521 52.1386C81.701 52.5786 81.061 53.2286 80.601 54.0886C80.161 54.9286 79.941 55.9486 79.941 57.1486V65.4286H77.811V43.1686H79.941V53.9986L79.521 53.1886C80.021 52.0486 80.821 51.1586 81.921 50.5186C83.021 49.8586 84.331 49.5286 85.851 49.5286ZM107.954 65.4286V61.9486L107.864 61.3786V55.5586C107.864 54.2186 107.484 53.1886 106.724 52.4686C105.984 51.7486 104.874 51.3886 103.394 51.3886C102.374 51.3886 101.404 51.5586 100.484 51.8986C99.5644 52.2386 98.7844 52.6886 98.1444 53.2486L97.1844 51.6586C97.9844 50.9786 98.9444 50.4586 100.064 50.0986C101.184 49.7186 102.364 49.5286 103.604 49.5286C105.644 49.5286 107.214 50.0386 108.314 51.0586C109.434 52.0586 109.994 53.5886 109.994 55.6486V65.4286H107.954ZM102.524 65.5786C101.344 65.5786 100.314 65.3886 99.4344 65.0086C98.5744 64.6086 97.9144 64.0686 97.4544 63.3886C96.9944 62.6886 96.7644 61.8886 96.7644 60.9886C96.7644 60.1686 96.9544 59.4286 97.3344 58.7686C97.7344 58.0886 98.3744 57.5486 99.2544 57.1486C100.154 56.7286 101.354 56.5186 102.854 56.5186H108.284V58.1086H102.914C101.394 58.1086 100.334 58.3786 99.7344 58.9186C99.1544 59.4586 98.8644 60.1286 98.8644 60.9286C98.8644 61.8286 99.2144 62.5486 99.9144 63.0886C100.614 63.6286 101.594 63.8986 102.854 63.8986C104.054 63.8986 105.084 63.6286 105.944 63.0886C106.824 62.5286 107.464 61.7286 107.864 60.6886L108.344 62.1586C107.944 63.1986 107.244 64.0286 106.244 64.6486C105.264 65.2686 104.024 65.5786 102.524 65.5786ZM115.78 65.4286V49.6786H117.82V53.9686L117.61 53.2186C118.05 52.0186 118.79 51.1086 119.83 50.4886C120.87 49.8486 122.16 49.5286 123.7 49.5286V51.5986C123.62 51.5986 123.54 51.5986 123.46 51.5986C123.38 51.5786 123.3 51.5686 123.22 51.5686C121.56 51.5686 120.26 52.0786 119.32 53.0986C118.38 54.0986 117.91 55.5286 117.91 57.3886V65.4286H115.78ZM127.586 65.4286V49.6786H129.716V65.4286H127.586ZM128.666 46.1986C128.226 46.1986 127.856 46.0486 127.556 45.7486C127.256 45.4486 127.106 45.0886 127.106 44.6686C127.106 44.2486 127.256 43.8986 127.556 43.6186C127.856 43.3186 128.226 43.1686 128.666 43.1686C129.106 43.1686 129.476 43.3086 129.776 43.5886C130.076 43.8686 130.226 44.2186 130.226 44.6386C130.226 45.0786 130.076 45.4486 129.776 45.7486C129.496 46.0486 129.126 46.1986 128.666 46.1986ZM143.683 49.5286C144.963 49.5286 146.083 49.7786 147.043 50.2786C148.023 50.7586 148.783 51.4986 149.323 52.4986C149.883 53.4986 150.163 54.7586 150.163 56.2786V65.4286H148.033V56.4886C148.033 54.8286 147.613 53.5786 146.773 52.7386C145.953 51.8786 144.793 51.4486 143.293 51.4486C142.173 51.4486 141.193 51.6786 140.353 52.1386C139.533 52.5786 138.893 53.2286 138.433 54.0886C137.993 54.9286 137.773 55.9486 137.773 57.1486V65.4286H135.643V49.6786H137.683V53.9986L137.353 53.1886C137.853 52.0486 138.653 51.1586 139.753 50.5186C140.853 49.8586 142.163 49.5286 143.683 49.5286ZM162.636 71.3986C161.196 71.3986 159.816 71.1886 158.496 70.7686C157.176 70.3486 156.106 69.7486 155.286 68.9686L156.366 67.3486C157.106 68.0086 158.016 68.5286 159.096 68.9086C160.196 69.3086 161.356 69.5086 162.576 69.5086C164.576 69.5086 166.046 69.0386 166.986 68.0986C167.926 67.1786 168.396 65.7386 168.396 63.7786V59.8486L168.696 57.1486L168.486 54.4486V49.6786H170.526V63.5086C170.526 66.2286 169.856 68.2186 168.516 69.4786C167.196 70.7586 165.236 71.3986 162.636 71.3986ZM162.246 64.8286C160.746 64.8286 159.396 64.5086 158.196 63.8686C156.996 63.2086 156.046 62.2986 155.346 61.1386C154.666 59.9786 154.326 58.6486 154.326 57.1486C154.326 55.6486 154.666 54.3286 155.346 53.1886C156.046 52.0286 156.996 51.1286 158.196 50.4886C159.396 49.8486 160.746 49.5286 162.246 49.5286C163.646 49.5286 164.906 49.8186 166.026 50.3986C167.146 50.9786 168.036 51.8386 168.696 52.9786C169.356 54.1186 169.686 55.5086 169.686 57.1486C169.686 58.7886 169.356 60.1786 168.696 61.3186C168.036 62.4586 167.146 63.3286 166.026 63.9286C164.906 64.5286 163.646 64.8286 162.246 64.8286ZM162.456 62.9386C163.616 62.9386 164.646 62.6986 165.546 62.2186C166.446 61.7186 167.156 61.0386 167.676 60.1786C168.196 59.2986 168.456 58.2886 168.456 57.1486C168.456 56.0086 168.196 55.0086 167.676 54.1486C167.156 53.2886 166.446 52.6186 165.546 52.1386C164.646 51.6386 163.616 51.3886 162.456 51.3886C161.316 51.3886 160.286 51.6386 159.366 52.1386C158.466 52.6186 157.756 53.2886 157.236 54.1486C156.736 55.0086 156.486 56.0086 156.486 57.1486C156.486 58.2886 156.736 59.2986 157.236 60.1786C157.756 61.0386 158.466 61.7186 159.366 62.2186C160.286 62.6986 161.316 62.9386 162.456 62.9386Z" fill="white"/>
</svg>
