<svg id="Layer_1" data-name="Layer 1" xmlns="http://www.w3.org/2000/svg" viewBox="0 0 408.83 262.75"><defs><style>.cls-1,.cls-18,.cls-19,.cls-26,.cls-6,.cls-7{fill:none;}.cls-1,.cls-11,.cls-18,.cls-19,.cls-26,.cls-3,.cls-4,.cls-6,.cls-7{stroke:#2c3e50;stroke-miterlimit:10;}.cls-1,.cls-11,.cls-3,.cls-4,.cls-6{stroke-width:0.86px;}.cls-1{stroke-dasharray:1.72;}.cls-11,.cls-2{fill:#2c3e50;}.cls-20,.cls-3{fill:#ecf0f1;}.cls-4{fill:#fff;}.cls-5{fill:#e64c3c;}.cls-7{stroke-width:0.91px;}.cls-21,.cls-8{fill:#bdc3c7;}.cls-9{fill:#27aae1;}.cls-10{fill:#7f8c8d;}.cls-12{fill:#2878ae;}.cls-13{fill:#2e4155;}.cls-14{fill:#c18141;}.cls-15{fill:#35495e;}.cls-16{fill:#231f20;}.cls-17{fill:#2a7ec2;}.cls-18{stroke-width:2.58px;}.cls-19{stroke-width:1.72px;}.cls-21{font-size:4.3px;font-family:Montserrat-Light, Montserrat;font-weight:300;}.cls-22{letter-spacing:-0.01em;}.cls-23{letter-spacing:-0.01em;}.cls-24{letter-spacing:-0.01em;}.cls-25{opacity:0.5;}.cls-26{stroke-width:0.83px;stroke-dasharray:1.65;}.cls-27{fill:#39a9e0;}.cls-28{fill:#010101;}.cls-29{fill:#333f51;}</style></defs><polyline class="cls-1" points="164.89 122.1 164.89 108.35 210.28 108.35 210.28 82.35"/><polyline class="cls-1" points="148.56 122.1 148.56 94.61 182.62 94.61 182.62 73.04"/><line class="cls-1" x1="102.69" y1="122.1" x2="102.69" y2="94.6"/><rect class="cls-2" x="233.76" y="184.16" width="4.8" height="12.6"/><rect class="cls-3" x="190.55" y="124.6" width="91.7" height="63.62" rx="4"/><rect class="cls-4" x="194.87" y="128.53" width="82.58" height="50.28" rx="1"/><path class="cls-5" d="M194,131.35a1.12,1.12,0,1,1-1.12-1.12A1.12,1.12,0,0,1,194,131.35Z"/><line class="cls-6" x1="195.09" y1="134.71" x2="277.23" y2="134.71"/><rect class="cls-2" x="226.26" y="196.39" width="19.81" height="1.35"/><line class="cls-7" x1="-6.36" y1="199.64" x2="354" y2="199.64"/><path class="cls-3" d="M288.76,141.19h27.8a2,2,0,0,1,2,2v53.86a0,0,0,0,1,0,0h-31.8a0,0,0,0,1,0,0V143.19A2,2,0,0,1,288.76,141.19Z"/><rect class="cls-8" x="292.87" y="148.69" width="19.58" height="3.84" rx="1"/><rect class="cls-8" x="292.87" y="155.8" width="19.58" height="3.84" rx="1"/><path class="cls-9" d="M305,183.51a2.29,2.29,0,1,1-2.29-2.29A2.3,2.3,0,0,1,305,183.51Z"/><rect class="cls-2" x="129.46" y="183.87" width="4.8" height="12.6"/><rect class="cls-3" x="86.25" y="124.31" width="91.7" height="63.62" rx="4"/><rect class="cls-2" x="121.96" y="196.1" width="19.81" height="1.35"/><rect class="cls-4" x="90.58" y="128.24" width="82.58" height="50.28" rx="1"/><rect class="cls-10" x="94.28" y="138.05" width="17.62" height="0.85"/><rect class="cls-10" x="95.97" y="140.59" width="7.63" height="0.85"/><rect class="cls-10" x="99.7" y="144.04" width="9.66" height="0.85"/><rect class="cls-10" x="104.89" y="140.59" width="9.38" height="0.85"/><rect class="cls-10" x="115.46" y="140.59" width="6.78" height="0.85"/><rect class="cls-10" x="111.05" y="144.04" width="9.66" height="0.85"/><rect class="cls-10" x="99.7" y="146.41" width="7.81" height="0.85"/><rect class="cls-10" x="109" y="146.41" width="7.81" height="0.85"/><rect class="cls-10" x="99.7" y="148.95" width="7.81" height="0.85"/><rect class="cls-10" x="102.91" y="151.01" width="7.81" height="0.85"/><rect class="cls-10" x="112.24" y="151.01" width="6.78" height="0.85"/><rect class="cls-10" x="105.8" y="153.55" width="7.81" height="0.85"/><rect class="cls-10" x="115.11" y="153.55" width="4.07" height="0.85"/><rect class="cls-10" x="95.74" y="159.48" width="7.63" height="0.85"/><rect class="cls-10" x="99.47" y="162.93" width="9.66" height="0.85"/><rect class="cls-10" x="109.35" y="159.48" width="11.3" height="0.85"/><rect class="cls-10" x="110.83" y="162.93" width="9.66" height="0.85"/><rect class="cls-10" x="99.47" y="165.3" width="7.81" height="0.85"/><rect class="cls-10" x="108.78" y="165.3" width="7.81" height="0.85"/><rect class="cls-10" x="99.47" y="167.84" width="7.81" height="0.85"/><rect class="cls-10" x="102.69" y="169.9" width="7.81" height="0.85"/><rect class="cls-10" x="112.01" y="169.9" width="6.78" height="0.85"/><rect class="cls-10" x="104.58" y="159.48" width="3.11" height="0.85"/><rect class="cls-8" x="132.75" y="135.17" width="0.68" height="38.86"/><rect class="cls-10" x="140.15" y="139.02" width="17.62" height="0.85"/><rect class="cls-10" x="141.85" y="141.56" width="7.63" height="0.85"/><rect class="cls-10" x="145.57" y="145" width="9.66" height="0.85"/><rect class="cls-10" x="150.77" y="141.56" width="9.38" height="0.85"/><rect class="cls-10" x="161.33" y="141.56" width="6.78" height="0.85"/><rect class="cls-10" x="156.93" y="145" width="9.66" height="0.85"/><rect class="cls-10" x="145.57" y="147.37" width="7.81" height="0.85"/><rect class="cls-10" x="154.88" y="147.37" width="7.81" height="0.85"/><rect class="cls-10" x="145.57" y="149.92" width="7.81" height="0.85"/><rect class="cls-10" x="148.79" y="151.98" width="7.81" height="0.85"/><rect class="cls-10" x="158.11" y="151.98" width="6.78" height="0.85"/><rect class="cls-10" x="151.67" y="154.52" width="7.81" height="0.85"/><rect class="cls-10" x="160.99" y="154.52" width="4.07" height="0.85"/><rect class="cls-10" x="141.62" y="160.45" width="7.63" height="0.85"/><rect class="cls-10" x="145.35" y="163.89" width="9.66" height="0.85"/><rect class="cls-10" x="155.23" y="160.45" width="11.3" height="0.85"/><rect class="cls-10" x="156.7" y="163.89" width="9.66" height="0.85"/><rect class="cls-10" x="145.35" y="166.27" width="7.81" height="0.85"/><rect class="cls-10" x="154.66" y="166.27" width="7.81" height="0.85"/><rect class="cls-10" x="145.35" y="168.81" width="7.81" height="0.85"/><rect class="cls-10" x="148.56" y="170.87" width="7.81" height="0.85"/><rect class="cls-10" x="157.89" y="170.87" width="6.78" height="0.85"/><rect class="cls-10" x="150.46" y="160.45" width="3.11" height="0.85"/><rect class="cls-11" x="36.33" y="203.45" width="4.77" height="41.23" rx="1"/><rect class="cls-11" x="14.44" y="134.03" width="4.77" height="68.49" rx="1"/><path class="cls-8" d="M69.41,235v10.6s7.36,6.78,7.36,0v-6.77Z"/><path class="cls-2" d="M68.83,244.83a37.31,37.31,0,0,0-2.07,5.89c-.17,1.44,17.18,1.13,20.38-.62,1.77-1-1.24-3.3-3.11-4.13C79.74,244.07,68.83,244.83,68.83,244.83Z"/><path class="cls-12" d="M31.67,185.17c-2.4,1.2-2.12,9.5,0,11.19,7.73,6.18,36.47-1,38.79,0,3.21,1.38-2,41.65-2,41.65l10,.84s8.62-31.67,4.11-51.65C81.2,181,39.92,181.05,31.67,185.17Z"/><path class="cls-13" d="M53.9,155.84s-15.62,8.22-23.25,7.75l.07,7.38C41,169.29,54,163.46,54,163.46Z"/><path class="cls-14" d="M42,133.52v-8.83a55.43,55.43,0,0,1-4.09-5.5,70,70,0,0,1-2.75-8.25l22.78-8,.78,1s1.5,13.8,0,18.07c-.62,1.78-2.86,5.53-4.71,5.89-.89.17-3.5.38-3.5.38l-1,11Z"/><path class="cls-15" d="M49.27,139.37l-7.39-8s-11.13,5-13.82,8c-5.77,6.3-12.37,22.08-9.72,28.57,3.94,9.64,35.46-4.62,35.46-4.62l0-7.63s-20.46,10.77-26,6.95c-1-.71-.39-3.82,0-5a18.33,18.33,0,0,1,2.65-3.53l.3,31.81h26.8V163.82s1.14,5.79,1.77,7.66c1.26,3.75,6.48,14.43,6.48,14.43h6.48s-4.44-13.09-5.3-16.65c-2-8.1-2-23.06-5.08-29.68-1.84-3.91-10.53-8.16-10.53-8.16H49.85Z"/><path class="cls-13" d="M30.68,137.34a13.81,13.81,0,0,0-2.59,2c-5.77,6.3-12.38,22.08-9.72,28.57,1.41,3.47,6.41,3.83,12.23,2.89Zm-2.89,25.3c-1-.71-.39-3.82,0-5a18,18,0,0,1,2.65-3.53l.09,9.34A5.44,5.44,0,0,1,27.79,162.64Z"/><path class="cls-16" d="M39.68,122.13c-1.71.53-3.56-4.25-3.93-6a28.06,28.06,0,0,1,0-9.5c.71-2.68,1.34-8.86,13.36-8.84,2.79,0,9.65,2,9.65,7.44,0,1.74-4,2.34-5.53,2.52-1.88.23-5.69.58-7.46,1.24-1.35.49-3.62,3.68-4.36,4.91C40.09,116.09,42.14,121.38,39.68,122.13Z"/><path class="cls-14" d="M42.59,115.06c0,1.41-.7,2.56-1.57,2.56s-1.57-1.15-1.57-2.56.7-2.55,1.57-2.55S42.59,113.65,42.59,115.06Z"/><path class="cls-14" d="M53.83,156.43s1.84-2.1,2.7-2.12c2-.05,6.33,2.64,6.57,4.64.13,1.05-2.12,3.67-2.12,3.67H53.83Z"/><path class="cls-8" d="M73.71,236.09v10.6s7.37,6.77,7.37,0v-6.78Z"/><path class="cls-13" d="M53.79,155.84s-15.62,8.22-23.26,7.75L30.6,171c10.33-1.68,23.23-7.51,23.23-7.51Z"/><path class="cls-17" d="M31.76,185.17c-2.53,1.2-2.23,9.5,0,11.19,8.16,6.18,38.49-1,40.94,0,3.39,1.38-1.64,41.65-1.64,41.65l10,1.9s9.19-32.73,4.43-52.71C84,181,40.47,181.05,31.76,185.17Z"/><path class="cls-2" d="M73.06,246.76a38.86,38.86,0,0,0-2,5.89c-.16,1.44,16.53,1.13,19.61-.63,1.71-1-1.19-3.29-3-4.12C83.55,246,73.06,246.76,73.06,246.76Z"/><rect class="cls-11" x="14.95" y="200.63" width="50.31" height="5.64" rx="1"/><line class="cls-18" x1="56.94" y1="249.58" x2="38.45" y2="244.32"/><line class="cls-18" x1="22.61" y1="249.58" x2="38.45" y2="244.32"/><path class="cls-2" d="M54.7,250.91a3.1,3.1,0,1,0,3.1-3.1A3.09,3.09,0,0,0,54.7,250.91Z"/><path class="cls-2" d="M17.8,250.91a3.1,3.1,0,1,0,3.09-3.1A3.09,3.09,0,0,0,17.8,250.91Z"/><line class="cls-19" x1="38.72" y1="242.89" x2="38.72" y2="255.24"/><circle class="cls-2" cx="38.72" cy="256.66" r="3.09"/><rect class="cls-20" x="209.13" y="157.09" width="55.63" height="7.51" rx="1"/><g id="icon-search"><path class="cls-9" d="M213.32,159.11a1.36,1.36,0,0,1,.53.11,1.3,1.3,0,0,1,.43.29,1.35,1.35,0,0,1,.29.44,1.31,1.31,0,0,1,.11.52,1.44,1.44,0,0,1-.08.46,1.26,1.26,0,0,1-.22.39l.86.86a.13.13,0,0,1,0,.1.14.14,0,0,1,0,.11.14.14,0,0,1-.11.05.12.12,0,0,1-.1-.05l-.86-.86a1.26,1.26,0,0,1-.39.22,1.21,1.21,0,0,1-.46.08,1.23,1.23,0,0,1-.53-.11,1.26,1.26,0,0,1-.43-.29,1.3,1.3,0,0,1-.29-.43,1.36,1.36,0,0,1-.11-.53,1.31,1.31,0,0,1,.11-.52,1.35,1.35,0,0,1,.29-.44,1.42,1.42,0,0,1,.43-.29,1.4,1.4,0,0,1,.53-.11Zm0,.31a1,1,0,0,0-.41.08,1.13,1.13,0,0,0-.34.23,1,1,0,0,0-.22.33,1,1,0,0,0-.09.41,1,1,0,0,0,.09.41,1,1,0,0,0,.22.34,1.13,1.13,0,0,0,.34.23,1.09,1.09,0,0,0,.82,0,1,1,0,0,0,.34-.23,1,1,0,0,0,.22-.34,1,1,0,0,0,.09-.41,1,1,0,0,0-.09-.41,1,1,0,0,0-.22-.33,1,1,0,0,0-.34-.23A1,1,0,0,0,213.32,159.42Z"/></g><text class="cls-21" transform="translate(216.91 161.96)">s<tspan class="cls-22" x="2.06" y="0">e</tspan><tspan x="4.56" y="0">a</tspan><tspan class="cls-23" x="7.07" y="0">r</tspan><tspan class="cls-24" x="8.7" y="0">c</tspan><tspan x="11.05" y="0">h</tspan></text><circle class="cls-6" cx="101.64" cy="66.47" r="21.29"/><g id="icon-server"><path class="cls-9" d="M101.64,58a23.23,23.23,0,0,1,3,.19,16.58,16.58,0,0,1,2.69.55,5.57,5.57,0,0,1,2,1,1.74,1.74,0,0,1,.74,1.37V71.85a1.72,1.72,0,0,1-.74,1.36,5.75,5.75,0,0,1-2,1,17.72,17.72,0,0,1-2.69.55,24.5,24.5,0,0,1-6.09,0,17.72,17.72,0,0,1-2.69-.55,5.75,5.75,0,0,1-2-1,1.74,1.74,0,0,1-.75-1.36V61.09a1.75,1.75,0,0,1,.75-1.37,5.57,5.57,0,0,1,2-1,16.58,16.58,0,0,1,2.69-.55A23.19,23.19,0,0,1,101.64,58Zm6.92,13.81v-3.5a10.79,10.79,0,0,1-3,.91,25.31,25.31,0,0,1-7.77,0,10.79,10.79,0,0,1-3-.91v3.52a.77.77,0,0,0,.32.31,4.5,4.5,0,0,0,.87.41,13,13,0,0,0,1.37.39,16.53,16.53,0,0,0,1.93.3,24.56,24.56,0,0,0,4.85,0A16.53,16.53,0,0,0,106,73a12,12,0,0,0,1.36-.4,4.44,4.44,0,0,0,.88-.4C108.43,72,108.53,71.93,108.56,71.83Zm0-5.37V63a11.15,11.15,0,0,1-3,.9,25.31,25.31,0,0,1-7.77,0,10.81,10.81,0,0,1-3-.9v3.51c0,.09.13.19.32.32a5.32,5.32,0,0,0,.87.4,12.82,12.82,0,0,0,1.37.4,19.29,19.29,0,0,0,1.93.29,22.68,22.68,0,0,0,4.85,0,18.61,18.61,0,0,0,1.92-.29,12.17,12.17,0,0,0,1.37-.4,4.5,4.5,0,0,0,.87-.41.71.71,0,0,0,.33-.32Zm-6.92-6.91a20.45,20.45,0,0,0-2.4.13,14.64,14.64,0,0,0-1.92.29,12.72,12.72,0,0,0-1.36.39,4.88,4.88,0,0,0-.89.4.88.88,0,0,0-.34.33.88.88,0,0,0,.34.33,4.54,4.54,0,0,0,.89.4,12.72,12.72,0,0,0,1.36.39,16.32,16.32,0,0,0,1.92.3,24.16,24.16,0,0,0,4.81,0,16.32,16.32,0,0,0,1.92-.3,12.72,12.72,0,0,0,1.36-.39,4.54,4.54,0,0,0,.89-.4.88.88,0,0,0,.34-.33.88.88,0,0,0-.34-.33,5.23,5.23,0,0,0-.89-.4A12.72,12.72,0,0,0,106,60a14.64,14.64,0,0,0-1.92-.29A20.5,20.5,0,0,0,101.64,59.55Z"/></g><path class="cls-20" d="M192.83,54.86a.75.75,0,0,1-.79.72H170.57a.75.75,0,0,1-.79-.72V26a.75.75,0,0,1,.79-.72H192a.75.75,0,0,1,.79.72Z"/><g class="cls-25"><rect class="cls-8" x="172.02" y="31.35" width="5.18" height="2.61"/></g><g class="cls-25"><rect class="cls-8" x="172.02" y="35.11" width="5.18" height="2.61"/></g><g class="cls-25"><rect class="cls-8" x="172.02" y="38.88" width="5.18" height="2.61"/></g><g class="cls-25"><rect class="cls-8" x="172.02" y="42.65" width="5.18" height="2.61"/></g><g class="cls-25"><rect class="cls-8" x="172.02" y="46.41" width="5.18" height="2.61"/></g><rect class="cls-8" x="178.71" y="31.35" width="5.18" height="2.61"/><rect class="cls-8" x="178.71" y="35.11" width="5.18" height="2.61"/><rect class="cls-8" x="178.71" y="38.88" width="5.18" height="2.61"/><rect class="cls-8" x="178.71" y="42.65" width="5.18" height="2.61"/><rect class="cls-8" x="178.71" y="46.41" width="5.18" height="2.61"/><g class="cls-25"><rect class="cls-8" x="185.4" y="31.35" width="5.18" height="2.61"/></g><g class="cls-25"><rect class="cls-8" x="185.4" y="35.11" width="5.18" height="2.61"/></g><g class="cls-25"><rect class="cls-8" x="185.4" y="38.88" width="5.18" height="2.61"/></g><g class="cls-25"><rect class="cls-8" x="185.4" y="42.65" width="5.18" height="2.61"/></g><g class="cls-25"><rect class="cls-8" x="185.4" y="46.41" width="5.18" height="2.61"/></g><path class="cls-9" d="M192.66,44.69V42h-4.41a.26.26,0,0,1-.26-.26V39.14a.27.27,0,0,1,.26-.27h4.41V36.18c0-.14.1-.19.21-.1l5.42,4.2a.18.18,0,0,1,0,.31l-5.42,4.2c-.11.08-.21,0-.21-.1"/><circle class="cls-6" cx="182.36" cy="40.43" r="25.79" transform="translate(113.24 213.96) rotate(-80.78)"/><path class="cls-9" d="M135.75,20.38V18.67a2.5,2.5,0,0,0-2.57-2.58h-1.5c-1.06,0-1.15-.52-1.16-.78v-2.1a1.79,1.79,0,1,0-1.42,0v2.1c0,.19,0,.78-1.16.78h-1.49a2.5,2.5,0,0,0-2.58,2.58v1.71a1.8,1.8,0,0,0,.71,3.45,1.8,1.8,0,0,0,.71-3.45V18.67a1.1,1.1,0,0,1,1.16-1.16h1.49a3.53,3.53,0,0,0,1.16-.18v3.05a1.8,1.8,0,1,0,1.42,0V17.33a3.58,3.58,0,0,0,1.16.18h1.5a1.09,1.09,0,0,1,1.15,1.16v1.71a1.8,1.8,0,1,0,1.42,0ZM125.61,22a1,1,0,1,1-1-1A1,1,0,0,1,125.61,22Zm3.16-10.46a1,1,0,1,1,1,1A1,1,0,0,1,128.77,11.57ZM130.85,22a1,1,0,1,1-2.07,0,1,1,0,0,1,2.07,0Zm4.19,1a1,1,0,1,1,1-1A1,1,0,0,1,135,23.07Z"/><path class="cls-10" d="M141,30.83V29.11a2.51,2.51,0,0,0-2.58-2.58H136.9c-1.06,0-1.16-.51-1.16-.78V23.66a1.8,1.8,0,1,0-1.42,0v2.09c0,.19-.06.78-1.16.78h-1.5a2.51,2.51,0,0,0-2.58,2.58v1.72A1.81,1.81,0,0,0,128,32.48a1.8,1.8,0,1,0,2.5-1.65V29.11A1.1,1.1,0,0,1,131.66,28h1.5a3.33,3.33,0,0,0,1.16-.18v3.06a1.79,1.79,0,1,0,1.42,0V27.77a3.29,3.29,0,0,0,1.16.18h1.49a1.1,1.1,0,0,1,1.16,1.16v1.72a1.79,1.79,0,1,0,1.42,0Zm-10.14,1.65a1,1,0,1,1-1-1A1,1,0,0,1,130.83,32.48ZM134,22a1,1,0,1,1,1,1A1,1,0,0,1,134,22Zm2.07,10.47a1,1,0,1,1-1-1A1,1,0,0,1,136.06,32.48Zm4.2,1a1,1,0,1,1,1-1A1,1,0,0,1,140.26,33.52Z"/><path class="cls-20" d="M244.82,92.11a.71.71,0,0,1-.73.68h-20.2a.71.71,0,0,1-.73-.68V65a.71.71,0,0,1,.73-.68h20.2a.71.71,0,0,1,.73.68Z"/><rect class="cls-8" x="226.03" y="70" width="15.27" height="2.45"/><rect class="cls-8" x="226.03" y="74.71" width="10.07" height="2.45"/><rect class="cls-8" x="226.03" y="79.31" width="16.96" height="2.45"/><rect class="cls-8" x="226.03" y="84.13" width="10.07" height="2.45"/><path class="cls-9" d="M234,72.53a6,6,0,1,0,6,6A6,6,0,0,0,234,72.53ZM237.45,77l-4.32,4.32a.19.19,0,0,1-.28,0L230.53,79a.21.21,0,0,1,0-.29l.92-.91a.19.19,0,0,1,.28,0l1.12,1.11a.19.19,0,0,0,.28,0l3.12-3.11a.19.19,0,0,1,.28,0l.92.91A.19.19,0,0,1,237.45,77Z"/><path class="cls-20" d="M237.45,77l-4.32,4.32a.19.19,0,0,1-.28,0L230.53,79a.21.21,0,0,1,0-.29l.92-.91a.19.19,0,0,1,.28,0l1.12,1.11a.19.19,0,0,0,.28,0l3.12-3.11a.19.19,0,0,1,.28,0l.92.91A.19.19,0,0,1,237.45,77Z"/><circle class="cls-6" cx="234.51" cy="79.02" r="20.27" transform="translate(103.72 289.1) rotate(-76.72)"/><circle class="cls-6" cx="131.86" cy="23.83" r="17.56" transform="translate(59.39 136.53) rotate(-67.5)"/><line class="cls-26" x1="131.94" y1="122.1" x2="131.94" y2="47.6"/><path class="cls-9" d="M133.68,45.65a1.82,1.82,0,1,1-1.82-1.82A1.82,1.82,0,0,1,133.68,45.65Z"/><path class="cls-9" d="M184.44,71.23a1.82,1.82,0,1,1-1.82-1.82A1.82,1.82,0,0,1,184.44,71.23Z"/><circle class="cls-9" cx="210.28" cy="80.53" r="1.81"/><path class="cls-9" d="M104.5,92.79A1.82,1.82,0,1,1,102.69,91,1.81,1.81,0,0,1,104.5,92.79Z"/><path class="cls-27" d="M222.48,146.75v.3H221v1h1.35v.3H221v1.25h-.33v-2.9Z"/><path class="cls-27" d="M224.7,148.91h-1.58l-.32.74h-.36l1.31-2.9h.34l1.3,2.9H225Zm-.13-.31-.66-1.49-.65,1.49Z"/><path class="cls-27" d="M226.18,146.75v2.9h-.34v-2.9Z"/><path class="cls-27" d="M229,149.65l-.61-.93h-1v.92h-.33v-2.9h1.1c.72,0,1.14.35,1.14,1a.9.9,0,0,1-.65.94l.68,1Zm-.79-1.23c.52,0,.82-.23.82-.69s-.3-.68-.82-.68h-.77v1.37Z"/><path class="cls-28" d="M230.57,147.73c-.25,0-.43.08-.43.29,0,.49,1.22.24,1.22,1,0,.42-.39.61-.8.61a1.2,1.2,0,0,1-.84-.3l.12-.24a1.14,1.14,0,0,0,.73.28c.25,0,.46-.1.47-.32,0-.53-1.21-.26-1.21-1,0-.42.36-.6.76-.6a1.34,1.34,0,0,1,.7.2l-.13.25A1.12,1.12,0,0,0,230.57,147.73Z"/><path class="cls-28" d="M233.91,148.31v1.34h-.32v-1.26a.57.57,0,0,0-.62-.62.72.72,0,0,0-.74.81v1.07h-.32v-3.08h.32V148a.85.85,0,0,1,.85-.5A.77.77,0,0,1,233.91,148.31Z"/><path class="cls-28" d="M236,149.65v-.34a.93.93,0,0,1-.8.35.68.68,0,0,1-.75-.66c0-.38.31-.62.82-.62H236v-.14c0-.32-.2-.51-.59-.51a1.19,1.19,0,0,0-.69.25l-.13-.23a1.42,1.42,0,0,1,.89-.29.73.73,0,0,1,.84.75v1.44Zm0-.75v-.27h-.68c-.36,0-.55.12-.55.36s.19.4.5.4A.69.69,0,0,0,236,148.9Z"/><path class="cls-28" d="M238.13,147.46v.31a.73.73,0,0,0-.78.72v1.16H237v-2.18h.33V148A.81.81,0,0,1,238.13,147.46Z"/><path class="cls-28" d="M238.94,146.84a.22.22,0,0,1-.22.22.22.22,0,0,1,0-.44A.22.22,0,0,1,238.94,146.84Zm-.05.63v2.18h-.32v-2.18Z"/><path class="cls-28" d="M241.67,148.31v1.34h-.32v-1.26a.57.57,0,0,0-.62-.62.7.7,0,0,0-.73.71v1.17h-.33v-2.18H240V148a.85.85,0,0,1,.84-.49A.77.77,0,0,1,241.67,148.31Z"/><path class="cls-28" d="M244.3,147.47v1.95a1,1,0,0,1-1.1,1,1.4,1.4,0,0,1-.9-.32l.15-.23a1.17,1.17,0,0,0,.74.28.72.72,0,0,0,.78-.76v-.33a.85.85,0,0,1-.8.46,1,1,0,0,1-1-1.06,1,1,0,0,1,1-1,.84.84,0,0,1,.81.45v-.44Zm-.33,1a.75.75,0,1,0-1.49,0,.75.75,0,1,0,1.49,0Z"/><path class="cls-27" d="M245.25,149.47a.2.2,0,1,1-.2-.21A.2.2,0,0,1,245.25,149.47Z"/><path class="cls-27" d="M247.85,148.56a1.11,1.11,0,1,1-1.11-1.1A1.06,1.06,0,0,1,247.85,148.56Zm-1.89,0a.76.76,0,0,0,.78.82.82.82,0,1,0-.78-.82Z"/><path class="cls-27" d="M249.53,147.46v.31a.73.73,0,0,0-.79.72v1.16h-.32v-2.18h.32V148A.83.83,0,0,1,249.53,147.46Z"/><path class="cls-27" d="M251.87,147.47v1.95a1,1,0,0,1-1.1,1,1.4,1.4,0,0,1-.9-.32l.15-.23a1.14,1.14,0,0,0,.73.28.73.73,0,0,0,.79-.76v-.33a.85.85,0,0,1-.8.46,1,1,0,0,1-1-1.06,1,1,0,0,1,1-1,.85.85,0,0,1,.81.45v-.44Zm-.33,1a.75.75,0,1,0-1.49,0,.75.75,0,1,0,1.49,0Z"/><path class="cls-27" d="M226.6,151.88a3.49,3.49,0,0,1-2.17-.78,2.84,2.84,0,0,0-2.13-.72,2,2,0,0,0-1.22.7.09.09,0,0,1-.14,0,.09.09,0,0,1,0-.13,2.13,2.13,0,0,1,1.35-.79,3,3,0,0,1,2.28.76,3.39,3.39,0,0,0,4.18,0,.1.1,0,0,1,.13.15,3.89,3.89,0,0,1-2.26.78Z"/><path class="cls-29" d="M222.58,151.89l-.31,0a2.13,2.13,0,0,1-1.35-.79.11.11,0,0,1,0-.14.1.1,0,0,1,.14,0,2,2,0,0,0,1.22.7,2.85,2.85,0,0,0,2.13-.73,3.58,3.58,0,0,1,4.43,0,.1.1,0,0,1,0,.14.11.11,0,0,1-.14,0,3.33,3.33,0,0,0-4.18,0,3.26,3.26,0,0,1-2,.79Z"/><path class="cls-28" d="M230,151.23a.24.24,0,0,1-.05-.14.18.18,0,0,1,.07-.15.3.3,0,0,1,.2-.06.41.41,0,0,1,.16,0,.38.38,0,0,1,.13.09l-.08.07a.25.25,0,0,0-.1-.08l-.11,0a.21.21,0,0,0-.12,0,.1.1,0,0,0,0,.08.09.09,0,0,0,0,.07.52.52,0,0,0,.15.07.45.45,0,0,1,.24.11.18.18,0,0,1,.07.15.23.23,0,0,1-.08.16.27.27,0,0,1-.2.07.34.34,0,0,1-.18,0,.53.53,0,0,1-.17-.12l.09-.06.13.09.12,0a.17.17,0,0,0,.13,0,.12.12,0,0,0,.05-.09.09.09,0,0,0,0-.08.38.38,0,0,0-.19-.08l-.15,0Z"/><path class="cls-28" d="M230.85,150.6H231v.29h.19v.1H231v.5a.12.12,0,0,0,0,.09.1.1,0,0,0,.09,0h.07v.09h-.09c-.08,0-.13,0-.16-.05a.17.17,0,0,1-.05-.15V151h-.14v-.1h.14v-.29Z"/><path class="cls-28" d="M231.31,151a.88.88,0,0,1,.17-.12l.17,0a.29.29,0,0,1,.17,0,.26.26,0,0,1,.1.11.44.44,0,0,1,0,.13v.34a1.11,1.11,0,0,0,0,.19h-.11a.69.69,0,0,1,0-.13.48.48,0,0,1-.15.11.32.32,0,0,1-.16,0,.21.21,0,0,1-.16-.06.24.24,0,0,1-.07-.16.24.24,0,0,1,.05-.14.4.4,0,0,1,.15-.1l.34-.09v0a.18.18,0,0,0,0-.1.17.17,0,0,0-.12,0l-.12,0-.16.11Zm.52.47v-.26l-.24.06a.33.33,0,0,0-.13.09.13.13,0,0,0,0,.1.14.14,0,0,0,0,.09.17.17,0,0,0,.1,0l.13,0Z"/><path class="cls-28" d="M232.32,151a.44.44,0,0,1,.17-.08l.13,0,.11,0a.3.3,0,0,1,.08.08.33.33,0,0,1,0,.15v.56h-.11v-.55c0-.06,0-.1,0-.12a.12.12,0,0,0-.1,0l-.13,0-.15.08v.61h-.11v-.8h.11v.1Z"/><path class="cls-28" d="M233.66,150.57h.1v.87c0,.05,0,.1,0,.14a.75.75,0,0,0,0,.11h-.11a.52.52,0,0,1,0-.11.61.61,0,0,1-.14.1.35.35,0,0,1-.14,0,.3.3,0,0,1-.23-.11.42.42,0,0,1-.1-.3.41.41,0,0,1,.1-.31.27.27,0,0,1,.23-.11.35.35,0,0,1,.14,0l.14.09Zm0,.52a.55.55,0,0,0-.14-.09l-.12,0a.21.21,0,0,0-.17.07.36.36,0,0,0-.07.24.33.33,0,0,0,.07.24.19.19,0,0,0,.17.08l.12,0a.55.55,0,0,0,.14-.09Z"/><path class="cls-28" d="M234,151a.83.83,0,0,1,.16-.12.57.57,0,0,1,.18,0,.31.31,0,0,1,.17,0,.23.23,0,0,1,.09.11.25.25,0,0,1,0,.13v.34a.58.58,0,0,0,0,.19h-.11a.79.79,0,0,1,0-.13.39.39,0,0,1-.15.11.28.28,0,0,1-.15,0,.24.24,0,0,1-.17-.06.23.23,0,0,1-.06-.16.24.24,0,0,1,0-.14.28.28,0,0,1,.15-.1l.33-.09v0a.13.13,0,0,0,0-.1.16.16,0,0,0-.11,0l-.13,0-.15.11Zm.51.47v-.26l-.23.06a.38.38,0,0,0-.14.09.13.13,0,0,0,0,.1.11.11,0,0,0,0,.09.13.13,0,0,0,.1,0l.12,0Z"/><path class="cls-28" d="M235,151.07a.67.67,0,0,1,.14-.15.29.29,0,0,1,.16,0h0V151h0l-.1,0a.18.18,0,0,0-.09.07.35.35,0,0,0-.07.12.69.69,0,0,0,0,.13v.35h-.11v-.8H235Z"/><path class="cls-28" d="M236,150.57h.11v.87a.61.61,0,0,0,0,.14.75.75,0,0,0,0,.11h-.11a.52.52,0,0,1,0-.11l-.14.1-.14,0a.3.3,0,0,1-.23-.11.42.42,0,0,1-.1-.3.41.41,0,0,1,.1-.31.27.27,0,0,1,.23-.11.35.35,0,0,1,.14,0l.13.09Zm0,.52a.51.51,0,0,0-.13-.09l-.13,0a.2.2,0,0,0-.16.07.36.36,0,0,0-.07.24.33.33,0,0,0,.07.24.19.19,0,0,0,.17.08l.12,0a.51.51,0,0,0,.13-.09Z"/><path class="cls-28" d="M236.44,151.23a.2.2,0,0,1-.06-.14.18.18,0,0,1,.07-.15.32.32,0,0,1,.2-.06.41.41,0,0,1,.16,0,.3.3,0,0,1,.13.09l-.08.07a.32.32,0,0,0-.09-.08l-.12,0a.21.21,0,0,0-.12,0,.1.1,0,0,0,0,.08.09.09,0,0,0,0,.07.52.52,0,0,0,.15.07.53.53,0,0,1,.25.11.2.2,0,0,1,.06.15.23.23,0,0,1-.08.16.26.26,0,0,1-.2.07.39.39,0,0,1-.18,0,.53.53,0,0,1-.17-.12l.1-.06.12.09a.28.28,0,0,0,.13,0,.18.18,0,0,0,.13,0,.11.11,0,0,0,0-.09.11.11,0,0,0,0-.08.48.48,0,0,0-.2-.08l-.15,0Z"/><path class="cls-28" d="M237.21,151.52h.15v.17l-.11.23h-.07l.1-.23h-.07v-.17Z"/><path class="cls-28" d="M238.68,150.57h.11v.87a.61.61,0,0,0,0,.14.27.27,0,0,0,0,.11h-.11a.23.23,0,0,1,0-.11.65.65,0,0,1-.15.1.31.31,0,0,1-.13,0,.34.34,0,0,1-.24-.11.47.47,0,0,1-.09-.3.46.46,0,0,1,.09-.31.3.3,0,0,1,.24-.11.31.31,0,0,1,.13,0,.55.55,0,0,1,.14.09v-.43Zm0,.52a.51.51,0,0,0-.13-.09l-.13,0a.22.22,0,0,0-.17.07.43.43,0,0,0-.07.24.38.38,0,0,0,.07.24.21.21,0,0,0,.17.08l.13,0a.51.51,0,0,0,.13-.09v-.4Z"/><path class="cls-28" d="M239,151a.88.88,0,0,1,.17-.12l.17,0a.29.29,0,0,1,.17,0,.26.26,0,0,1,.1.11.44.44,0,0,1,0,.13v.34a1.11,1.11,0,0,0,0,.19h-.11a.69.69,0,0,1,0-.13.48.48,0,0,1-.15.11.32.32,0,0,1-.16,0,.21.21,0,0,1-.16-.06.23.23,0,0,1-.06-.16.23.23,0,0,1,0-.14.4.4,0,0,1,.15-.1l.34-.09v0a.18.18,0,0,0,0-.1.17.17,0,0,0-.12,0l-.12,0-.16.11Zm.52.47v-.26l-.24.06a.33.33,0,0,0-.13.09.13.13,0,0,0,0,.1.14.14,0,0,0,0,.09.17.17,0,0,0,.1,0l.13,0Z"/><path class="cls-28" d="M240,150.6h.11v.29h.2v.1h-.2v.5a.12.12,0,0,0,0,.09.1.1,0,0,0,.09,0h.08v.09h-.1a.19.19,0,0,1-.16-.05.21.21,0,0,1-.05-.15V151h-.14v-.1H240v-.29Z"/><path class="cls-28" d="M240.45,151a.61.61,0,0,1,.16-.12.57.57,0,0,1,.18,0,.27.27,0,0,1,.16,0,.26.26,0,0,1,.1.11.44.44,0,0,1,0,.13v.34a1.11,1.11,0,0,0,0,.19H241a.69.69,0,0,1,0-.13.48.48,0,0,1-.15.11.29.29,0,0,1-.16,0,.21.21,0,0,1-.16-.06.23.23,0,0,1-.06-.16.23.23,0,0,1,0-.14.4.4,0,0,1,.15-.1l.34-.09v0a.13.13,0,0,0,0-.1.17.17,0,0,0-.12,0,.53.53,0,0,0-.12,0,.72.72,0,0,0-.15.11Zm.51.47v-.26l-.24.06a.33.33,0,0,0-.13.09.13.13,0,0,0,0,.1.14.14,0,0,0,0,.09.17.17,0,0,0,.1,0l.13,0Z"/><path class="cls-28" d="M241.33,150.57h.11V151a.27.27,0,0,1,.12-.09.4.4,0,0,1,.15,0,.27.27,0,0,1,.23.11.4.4,0,0,1,.1.3.51.51,0,0,1,0,.22.28.28,0,0,1-.13.15.33.33,0,0,1-.16.05.28.28,0,0,1-.13,0,.55.55,0,0,1-.14-.09v.1h-.11v-1.12Zm.11.92a.33.33,0,0,0,.14.09l.12,0a.21.21,0,0,0,.16-.08.45.45,0,0,0,0-.48.21.21,0,0,0-.17-.08l-.13,0-.12.09v.4Z"/><path class="cls-28" d="M242.22,151a.66.66,0,0,1,.17-.12l.17,0a.31.31,0,0,1,.17,0,.26.26,0,0,1,.1.11.44.44,0,0,1,0,.13v.34a.58.58,0,0,0,0,.19h-.11a.69.69,0,0,1,0-.13.48.48,0,0,1-.15.11.32.32,0,0,1-.16,0,.21.21,0,0,1-.16-.06.2.2,0,0,1-.07-.16.24.24,0,0,1,.05-.14.28.28,0,0,1,.15-.1l.34-.09v0a.14.14,0,0,0-.05-.1.14.14,0,0,0-.11,0,.53.53,0,0,0-.12,0l-.16.11Zm.52.47v-.26l-.24.06c-.06,0-.11,0-.13.09a.14.14,0,0,0-.05.1.12.12,0,0,0,.14.12l.13,0Z"/><path class="cls-28" d="M243.13,151.23a.2.2,0,0,1-.06-.14.21.21,0,0,1,.07-.15.32.32,0,0,1,.2-.06.41.41,0,0,1,.16,0,.25.25,0,0,1,.13.09l-.08.07a.32.32,0,0,0-.09-.08l-.11,0a.23.23,0,0,0-.13,0,.1.1,0,0,0,0,.08.09.09,0,0,0,0,.07.52.52,0,0,0,.15.07.49.49,0,0,1,.25.11.2.2,0,0,1,.06.15.21.21,0,0,1-.07.16.28.28,0,0,1-.21.07.39.39,0,0,1-.18,0,.42.42,0,0,1-.16-.12l.09-.06.12.09a.28.28,0,0,0,.13,0,.18.18,0,0,0,.13,0,.11.11,0,0,0,0-.09.11.11,0,0,0,0-.08.43.43,0,0,0-.2-.08l-.15,0Z"/><path class="cls-28" d="M244.51,151.51a.55.55,0,0,1-.16.15.37.37,0,0,1-.17.05.34.34,0,0,1-.25-.11.5.5,0,0,1-.1-.31.45.45,0,0,1,.1-.3.3.3,0,0,1,.24-.11.28.28,0,0,1,.17.05.33.33,0,0,1,.12.14.71.71,0,0,1,0,.23h-.57a.35.35,0,0,0,0,.16.27.27,0,0,0,.09.12.23.23,0,0,0,.11,0,.31.31,0,0,0,.25-.16Zm-.12-.3a.3.3,0,0,0-.07-.18.26.26,0,0,0-.15-.07.19.19,0,0,0-.16.08.27.27,0,0,0-.06.17Z"/><path class="cls-28" d="M244.73,151.23a.2.2,0,0,1-.06-.14.18.18,0,0,1,.07-.15.32.32,0,0,1,.2-.06.41.41,0,0,1,.16,0,.3.3,0,0,1,.13.09l-.08.07a.32.32,0,0,0-.09-.08l-.12,0a.21.21,0,0,0-.12,0,.1.1,0,0,0,0,.08.09.09,0,0,0,0,.07.52.52,0,0,0,.15.07.53.53,0,0,1,.25.11.2.2,0,0,1,.06.15.23.23,0,0,1-.08.16.26.26,0,0,1-.2.07.39.39,0,0,1-.18,0,.53.53,0,0,1-.17-.12l.1-.06.12.09a.28.28,0,0,0,.13,0,.18.18,0,0,0,.13,0,.11.11,0,0,0,0-.09.11.11,0,0,0,0-.08.43.43,0,0,0-.2-.08l-.15,0Z"/><path class="cls-28" d="M245.5,151.52h.15v.17l-.11.23h-.07l.1-.23h-.07Z"/><path class="cls-28" d="M246.54,151l.13-.08a.35.35,0,0,1,.14,0,.28.28,0,0,1,.17.05.31.31,0,0,1,.12.15.49.49,0,0,1,0,.21.48.48,0,0,1,0,.22.31.31,0,0,1-.12.15.37.37,0,0,1-.17.05.35.35,0,0,1-.14,0,.51.51,0,0,1-.13-.09V152h-.11v-1.11h.11v.1Zm0,.5.13.09.13,0a.23.23,0,0,0,.17-.08.43.43,0,0,0,.06-.24.33.33,0,0,0-.07-.24.21.21,0,0,0-.17-.08.3.3,0,0,0-.12,0,.51.51,0,0,0-.13.09v.4Z"/><path class="cls-28" d="M247.67,151.71a.36.36,0,0,1-.26-.11.45.45,0,0,1-.1-.31.54.54,0,0,1,0-.22.35.35,0,0,1,.13-.14.31.31,0,0,1,.18-.05.26.26,0,0,1,.17.05.28.28,0,0,1,.13.15.4.4,0,0,1,0,.22.44.44,0,0,1-.1.3A.34.34,0,0,1,247.67,151.71Zm0-.09a.22.22,0,0,0,.17-.09.45.45,0,0,0,0-.48.23.23,0,0,0-.17-.08.25.25,0,0,0-.18.08.43.43,0,0,0-.07.24.38.38,0,0,0,.07.24A.23.23,0,0,0,247.66,151.62Z"/><path class="cls-28" d="M248.25,150.57h.11v1.12h-.11Z"/><path class="cls-28" d="M248.68,150.58h.11v.13h-.11Zm0,.31h.11v.8h-.11Z"/><path class="cls-28" d="M249.69,151.5a.58.58,0,0,1-.12.14.28.28,0,0,1-.19.07.37.37,0,0,1-.18-.05.38.38,0,0,1-.13-.15.51.51,0,0,1,0-.22.4.4,0,0,1,.1-.3.31.31,0,0,1,.25-.11.26.26,0,0,1,.17.05.34.34,0,0,1,.14.15l-.1,0-.09-.12a.19.19,0,0,0-.12,0,.21.21,0,0,0-.17.08.37.37,0,0,0-.07.25.33.33,0,0,0,.07.23.19.19,0,0,0,.16.08.23.23,0,0,0,.22-.16Z"/><path class="cls-28" d="M249.91,150.58H250v.13h-.11Zm0,.31H250v.8h-.11Z"/><path class="cls-28" d="M250.94,151.51a.55.55,0,0,1-.16.15.37.37,0,0,1-.17.05.34.34,0,0,1-.25-.11.5.5,0,0,1-.1-.31.45.45,0,0,1,.1-.3.3.3,0,0,1,.24-.11.28.28,0,0,1,.17.05.33.33,0,0,1,.12.14.71.71,0,0,1,.05.23h-.57a.35.35,0,0,0,0,.16.27.27,0,0,0,.09.12l.11,0a.31.31,0,0,0,.25-.16Zm-.12-.3a.25.25,0,0,0-.07-.18.26.26,0,0,0-.15-.07.19.19,0,0,0-.16.08.27.27,0,0,0-.06.17Z"/><path class="cls-28" d="M251.16,151.23a.2.2,0,0,1-.06-.14.18.18,0,0,1,.07-.15.32.32,0,0,1,.2-.06.41.41,0,0,1,.16,0,.25.25,0,0,1,.13.09l-.08.07a.32.32,0,0,0-.09-.08l-.12,0a.21.21,0,0,0-.12,0,.1.1,0,0,0,0,.08.09.09,0,0,0,0,.07.52.52,0,0,0,.15.07.49.49,0,0,1,.25.11.2.2,0,0,1,.06.15.19.19,0,0,1-.08.16.26.26,0,0,1-.2.07.39.39,0,0,1-.18,0,.42.42,0,0,1-.16-.12l.09-.06.12.09a.28.28,0,0,0,.13,0,.18.18,0,0,0,.13,0,.11.11,0,0,0,0-.09.11.11,0,0,0,0-.08.43.43,0,0,0-.2-.08l-.15,0Z"/></svg>