<svg id="Layer_1" data-name="Layer 1" xmlns="http://www.w3.org/2000/svg" viewBox="0 0 408.83 262.75"><defs><style>.cls-1,.cls-17,.cls-18,.cls-23,.cls-28,.cls-6,.cls-7{fill:none;}.cls-1,.cls-10,.cls-17,.cls-18,.cls-23,.cls-3,.cls-4,.cls-6,.cls-7{stroke:#323e50;}.cls-1,.cls-10,.cls-17,.cls-18,.cls-21,.cls-23,.cls-28,.cls-3,.cls-4,.cls-6,.cls-7{stroke-miterlimit:10;}.cls-1,.cls-10,.cls-3,.cls-4,.cls-6{stroke-width:0.86px;}.cls-1{stroke-dasharray:1.72;}.cls-10,.cls-2{fill:#323e50;}.cls-19,.cls-3{fill:#f3f6f7;}.cls-21,.cls-4{fill:#fff;}.cls-5{fill:#e24030;}.cls-7{stroke-width:0.91px;}.cls-8{fill:#c8cbcf;}.cls-9{fill:#36a9e1;}.cls-11{fill:#2474ad;}.cls-12{fill:#344155;}.cls-13{fill:#c78237;}.cls-14{fill:#9eaaaa;}.cls-15{fill:#1d1d1b;}.cls-16{fill:#2b7cc0;}.cls-17{stroke-width:2.58px;}.cls-18{stroke-width:1.72px;}.cls-20{fill:#39485d;}.cls-21{stroke:#c8cbcf;}.cls-22{fill:#879191;}.cls-23{stroke-width:0.83px;stroke-dasharray:1.65;}.cls-24{fill:#45a9e0;}.cls-25{fill:#13110c;}.cls-26{fill:#383f51;}.cls-27{opacity:0.5;}.cls-28{stroke:#879191;stroke-width:0.5px;}</style></defs><polyline class="cls-1" points="296.89 123.1 296.89 109.35 342.28 109.35 342.28 102.35"/><polyline class="cls-1" points="278.56 123.1 278.56 95.61 297.62 95.61 297.62 81.04"/><line class="cls-1" x1="163.69" y1="123.1" x2="163.69" y2="95.6"/><rect class="cls-2" x="263.76" y="184.16" width="4.8" height="12.6"/><rect class="cls-3" x="220.55" y="124.6" width="91.7" height="63.62" rx="4"/><rect class="cls-4" x="224.87" y="128.53" width="82.58" height="50.28" rx="1"/><path class="cls-5" d="M229,131.35a1.12,1.12,0,1,1-1.12-1.12A1.12,1.12,0,0,1,229,131.35Z"/><line class="cls-6" x1="225.09" y1="134.71" x2="307.23" y2="134.71"/><rect class="cls-2" x="256.26" y="196.39" width="19.81" height="1.35"/><line class="cls-7" x1="45.95" y1="199.64" x2="384" y2="199.64"/><path class="cls-3" d="M318.76,141.19h27.8a2,2,0,0,1,2,2v53.86a0,0,0,0,1,0,0h-31.8a0,0,0,0,1,0,0V143.19A2,2,0,0,1,318.76,141.19Z"/><rect class="cls-8" x="322.87" y="148.69" width="19.58" height="3.84" rx="1"/><rect class="cls-8" x="322.87" y="155.8" width="19.58" height="3.84" rx="1"/><path class="cls-9" d="M335,183.51a2.29,2.29,0,1,1-2.29-2.29A2.3,2.3,0,0,1,335,183.51Z"/><rect class="cls-2" x="159.46" y="183.87" width="4.8" height="12.6"/><rect class="cls-3" x="116.25" y="124.31" width="91.7" height="63.62" rx="4"/><rect class="cls-2" x="151.96" y="196.1" width="19.81" height="1.35"/><rect class="cls-4" x="120.58" y="128.24" width="82.58" height="50.28" rx="1"/><rect class="cls-8" x="154.75" y="135.17" width="0.68" height="38.86"/><rect class="cls-10" x="66.33" y="203.45" width="4.77" height="41.23" rx="1"/><rect class="cls-10" x="44.44" y="134.03" width="4.77" height="68.49" rx="1"/><path class="cls-8" d="M99.41,235v10.6s7.36,6.78,7.36,0v-6.77Z"/><path class="cls-2" d="M98.83,244.83a37.31,37.31,0,0,0-2.07,5.89c-.17,1.44,17.18,1.13,20.38-.62,1.77-1-1.24-3.3-3.11-4.13C109.74,244.07,98.83,244.83,98.83,244.83Z"/><path class="cls-11" d="M61.67,185.17c-2.4,1.2-2.12,9.5,0,11.19,7.73,6.18,36.47-1,38.79,0,3.21,1.38-2,41.65-2,41.65l10,.84s8.62-31.67,4.11-51.65C111.2,181,69.92,181.05,61.67,185.17Z"/><path class="cls-12" d="M83.9,155.84s-15.62,8.22-23.25,7.75l.07,7.38C71,169.29,84,163.46,84,163.46Z"/><path class="cls-13" d="M72,133.52v-8.83a55.43,55.43,0,0,1-4.09-5.5,70,70,0,0,1-2.75-8.25l22.78-8,.78,1s1.5,13.8,0,18.07c-.62,1.78-2.86,5.53-4.71,5.89-.89.17-3.5.38-3.5.38l-1,11Z"/><path class="cls-14" d="M79.27,139.37l-7.39-8s-11.13,5-13.82,8c-5.77,6.3-12.37,22.08-9.72,28.57,3.94,9.64,35.46-4.62,35.46-4.62l0-7.63s-20.46,10.77-26,6.95c-1-.71-.39-3.82,0-5a18.33,18.33,0,0,1,2.65-3.53l.3,31.81h26.8V163.82s1.14,5.79,1.77,7.66c1.26,3.75,6.48,14.43,6.48,14.43h6.48s-4.44-13.09-5.3-16.65c-2-8.1-2-23.06-5.08-29.68-1.84-3.91-10.53-8.16-10.53-8.16H79.85Z"/><path class="cls-14" d="M60.68,137.34a13.81,13.81,0,0,0-2.59,2c-5.77,6.3-12.38,22.08-9.72,28.57,1.41,3.47,6.41,3.83,12.23,2.89Zm-2.89,25.3c-1-.71-.39-3.82,0-5a18,18,0,0,1,2.65-3.53l.09,9.34A5.44,5.44,0,0,1,57.79,162.64Z"/><path class="cls-15" d="M69.68,122.13c-1.71.53-3.56-4.25-3.93-6a28.06,28.06,0,0,1,0-9.5c.71-2.68,1.34-8.86,13.36-8.84,2.79,0,9.65,2,9.65,7.44,0,1.74-4,2.34-5.53,2.52-1.88.23-5.69.58-7.46,1.24-1.35.49-3.62,3.68-4.36,4.91C70.09,116.09,72.14,121.38,69.68,122.13Z"/><path class="cls-13" d="M72.59,115.06c0,1.41-.7,2.56-1.57,2.56s-1.57-1.15-1.57-2.56.7-2.55,1.57-2.55S72.59,113.65,72.59,115.06Z"/><path class="cls-13" d="M83.83,156.43s1.84-2.1,2.7-2.12c2-.05,6.33,2.64,6.57,4.64.13,1.05-2.12,3.67-2.12,3.67H83.83Z"/><path class="cls-8" d="M103.71,236.09v10.6s7.37,6.77,7.37,0v-6.78Z"/><path class="cls-14" d="M83.79,155.84s-15.62,8.22-23.26,7.75L60.6,171c10.33-1.68,23.23-7.51,23.23-7.51Z"/><path class="cls-16" d="M61.76,185.17c-2.53,1.2-2.23,9.5,0,11.19,8.16,6.18,38.49-1,40.94,0,3.39,1.38-1.64,41.65-1.64,41.65l10,1.9s9.19-32.73,4.43-52.71C114,181,70.47,181.05,61.76,185.17Z"/><path class="cls-2" d="M103.06,246.76a38.86,38.86,0,0,0-2,5.89c-.16,1.44,16.53,1.13,19.61-.63,1.71-1-1.19-3.29-3-4.12C113.55,246,103.06,246.76,103.06,246.76Z"/><rect class="cls-10" x="44.95" y="200.63" width="50.31" height="5.64" rx="1"/><line class="cls-17" x1="86.94" y1="249.58" x2="68.45" y2="244.32"/><line class="cls-17" x1="52.61" y1="249.58" x2="68.45" y2="244.32"/><path class="cls-2" d="M84.7,250.91a3.1,3.1,0,1,0,3.1-3.1A3.09,3.09,0,0,0,84.7,250.91Z"/><path class="cls-2" d="M47.8,250.91a3.1,3.1,0,1,0,3.09-3.1A3.09,3.09,0,0,0,47.8,250.91Z"/><line class="cls-18" x1="68.72" y1="242.89" x2="68.72" y2="255.24"/><circle class="cls-2" cx="68.72" cy="256.66" r="3.09"/><rect class="cls-19" x="239.13" y="157.09" width="55.63" height="7.51" rx="1"/><g id="icon-search"><path class="cls-9" d="M243.32,159.11a1.36,1.36,0,0,1,.53.11,1.3,1.3,0,0,1,.43.29,1.35,1.35,0,0,1,.29.44,1.31,1.31,0,0,1,.11.52,1.44,1.44,0,0,1-.08.46,1.26,1.26,0,0,1-.22.39l.86.86a.13.13,0,0,1,0,.1.14.14,0,0,1,0,.11.14.14,0,0,1-.11.05.12.12,0,0,1-.1-.05l-.86-.86a1.26,1.26,0,0,1-.39.22,1.21,1.21,0,0,1-.46.08,1.23,1.23,0,0,1-.53-.11,1.26,1.26,0,0,1-.43-.29,1.3,1.3,0,0,1-.29-.43,1.36,1.36,0,0,1-.11-.53,1.31,1.31,0,0,1,.11-.52,1.35,1.35,0,0,1,.29-.44,1.42,1.42,0,0,1,.43-.29,1.4,1.4,0,0,1,.53-.11Zm0,.31a1,1,0,0,0-.41.08,1.13,1.13,0,0,0-.34.23,1,1,0,0,0-.22.33,1,1,0,0,0-.09.41,1,1,0,0,0,.09.41,1,1,0,0,0,.22.34,1.13,1.13,0,0,0,.34.23,1.09,1.09,0,0,0,.82,0,1,1,0,0,0,.34-.23,1,1,0,0,0,.22-.34,1,1,0,0,0,.09-.41,1,1,0,0,0-.09-.41,1,1,0,0,0-.22-.33,1,1,0,0,0-.34-.23A1,1,0,0,0,243.32,159.42Z"/></g><path class="cls-8" d="M247,161.69l.09-.18a1.29,1.29,0,0,0,.81.27c.48,0,.67-.16.67-.42,0-.65-1.49-.17-1.49-1.05,0-.34.28-.62.85-.62a1.43,1.43,0,0,1,.77.22l-.1.17a1.2,1.2,0,0,0-.67-.2c-.44,0-.64.18-.64.42,0,.68,1.49.2,1.49,1.06,0,.36-.31.61-.89.61A1.39,1.39,0,0,1,247,161.69Z"/><path class="cls-8" d="M251.32,160.89h-1.93a.9.9,0,0,0,1,.89.91.91,0,0,0,.72-.31l.12.14a1.08,1.08,0,0,1-.85.36,1.09,1.09,0,0,1-1.15-1.14,1.08,1.08,0,0,1,1.07-1.14,1.06,1.06,0,0,1,1.07,1.13Zm-1.93-.17h1.72a.85.85,0,0,0-.86-.84A.86.86,0,0,0,249.39,160.72Z"/><path class="cls-8" d="M253.55,160.53V162h-.21v-.4a.87.87,0,0,1-.81.41c-.5,0-.81-.25-.81-.64s.22-.63.84-.63h.77v-.18a.58.58,0,0,0-.66-.64,1.18,1.18,0,0,0-.78.29l-.1-.16a1.34,1.34,0,0,1,.89-.32A.77.77,0,0,1,253.55,160.53Zm-.22.76v-.42h-.76c-.47,0-.63.2-.63.45s.23.48.62.48A.76.76,0,0,0,253.33,161.29Z"/><path class="cls-8" d="M255.5,159.69v.21h-.05a.78.78,0,0,0-.8.89V162h-.22v-2.25h.21v.49A.86.86,0,0,1,255.5,159.69Z"/><path class="cls-8" d="M255.82,160.83a1.1,1.1,0,0,1,1.14-1.14,1,1,0,0,1,.85.42l-.16.11a.8.8,0,0,0-.69-.33.95.95,0,0,0,0,1.89.81.81,0,0,0,.69-.34l.16.12a1,1,0,0,1-.85.41A1.1,1.1,0,0,1,255.82,160.83Z"/><path class="cls-8" d="M260.43,160.64V162h-.22v-1.3a.68.68,0,0,0-.73-.77.8.8,0,0,0-.85.87V162h-.21v-3.2h.21v1.42a.94.94,0,0,1,.89-.49A.86.86,0,0,1,260.43,160.64Z"/><circle class="cls-6" cx="162.64" cy="63.47" r="26.84"/><g id="icon-server"><path class="cls-20" d="M176.64,54.79a20.77,20.77,0,0,1,2.77.19,14.92,14.92,0,0,1,2.46.54,5.09,5.09,0,0,1,1.8.95,1.77,1.77,0,0,1,.67,1.35V68.39a1.74,1.74,0,0,1-.67,1.34,4.93,4.93,0,0,1-1.8,1,14.89,14.89,0,0,1-2.46.55,21.48,21.48,0,0,1-5.55,0,15.13,15.13,0,0,1-2.46-.55,4.93,4.93,0,0,1-1.8-1,1.74,1.74,0,0,1-.67-1.34V57.82a1.77,1.77,0,0,1,.67-1.35,5.09,5.09,0,0,1,1.8-.95,15.15,15.15,0,0,1,2.46-.54A20.81,20.81,0,0,1,176.64,54.79Zm6.3,13.59V64.94a9.05,9.05,0,0,1-2.76.88,19.36,19.36,0,0,1-3.54.3,20.32,20.32,0,0,1-3.55-.3,9.14,9.14,0,0,1-2.76-.88v3.45c0,.09.12.19.29.31a3.45,3.45,0,0,0,.8.4,10.39,10.39,0,0,0,1.25.39,12.22,12.22,0,0,0,1.75.29,20.5,20.5,0,0,0,4.43,0,12.38,12.38,0,0,0,1.76-.29,9.23,9.23,0,0,0,1.25-.4,4.11,4.11,0,0,0,.79-.39A.62.62,0,0,0,182.94,68.38Zm0-5.29V59.65a9,9,0,0,1-2.76.89,21.1,21.1,0,0,1-7.09,0,9.13,9.13,0,0,1-2.76-.89V63.1c0,.09.12.19.29.32a4,4,0,0,0,.8.39,10.39,10.39,0,0,0,1.25.39,13.63,13.63,0,0,0,1.75.3c.7.07,1.44.11,2.22.11s1.51,0,2.21-.11a13.32,13.32,0,0,0,1.75-.3,10.39,10.39,0,0,0,1.25-.39,3.67,3.67,0,0,0,.8-.4.77.77,0,0,0,.3-.32Zm-6.3-6.79a19.21,19.21,0,0,0-2.2.12,16.3,16.3,0,0,0-1.75.29,10.79,10.79,0,0,0-1.24.39,4.41,4.41,0,0,0-.81.39.81.81,0,0,0-.31.33.8.8,0,0,0,.31.32,4.41,4.41,0,0,0,.81.39,10.79,10.79,0,0,0,1.24.39,16.3,16.3,0,0,0,1.75.29,20.14,20.14,0,0,0,4.39,0,15.48,15.48,0,0,0,1.75-.29,11,11,0,0,0,1.25-.39,4.6,4.6,0,0,0,.8-.39.8.8,0,0,0,.31-.32.81.81,0,0,0-.31-.33,4.6,4.6,0,0,0-.8-.39,11,11,0,0,0-1.25-.39,15.48,15.48,0,0,0-1.75-.29A19,19,0,0,0,176.64,56.3Z"/></g><g id="icon-server-2" data-name="icon-server"><path class="cls-14" d="M146.45,54.24a12.81,12.81,0,0,1,1.88.13,8.92,8.92,0,0,1,1.67.37,3.34,3.34,0,0,1,1.22.64,1.18,1.18,0,0,1,.46.91v7.18a1.18,1.18,0,0,1-.46.91A3.34,3.34,0,0,1,150,65a9.78,9.78,0,0,1-1.67.37,12.81,12.81,0,0,1-1.88.13,12.94,12.94,0,0,1-1.89-.13,10,10,0,0,1-1.67-.37,3.43,3.43,0,0,1-1.22-.64,1.2,1.2,0,0,1-.45-.91V56.29a1.2,1.2,0,0,1,.45-.91,3.43,3.43,0,0,1,1.22-.64,9.1,9.1,0,0,1,1.67-.37A12.94,12.94,0,0,1,146.45,54.24Zm4.28,9.22V61.12a6.19,6.19,0,0,1-1.88.61,14.56,14.56,0,0,1-4.81,0,6.12,6.12,0,0,1-1.87-.61v2.35c0,.06.08.13.19.21a3.11,3.11,0,0,0,.55.27,7.74,7.74,0,0,0,.84.26,8.76,8.76,0,0,0,1.2.2,11.92,11.92,0,0,0,1.5.08,12.13,12.13,0,0,0,1.5-.08,8.85,8.85,0,0,0,1.19-.2,6.11,6.11,0,0,0,.85-.27,2.73,2.73,0,0,0,.54-.26A.53.53,0,0,0,150.73,63.46Zm0-3.59V57.54a6.5,6.5,0,0,1-1.88.6,14.56,14.56,0,0,1-4.81,0,6.42,6.42,0,0,1-1.87-.6v2.34c0,.06.08.13.19.21a2.54,2.54,0,0,0,.55.27,6,6,0,0,0,.84.26,8.76,8.76,0,0,0,1.2.2,11.86,11.86,0,0,0,1.5.09,12.09,12.09,0,0,0,1.5-.09,8.85,8.85,0,0,0,1.19-.2,6,6,0,0,0,.84-.26,3.11,3.11,0,0,0,.55-.27.53.53,0,0,0,.2-.22Zm-4.28-4.6a11.76,11.76,0,0,0-1.49.08,8.85,8.85,0,0,0-1.19.2,6.08,6.08,0,0,0-.84.25,3.11,3.11,0,0,0-.55.27.58.58,0,0,0-.21.22.52.52,0,0,0,.21.22,3.11,3.11,0,0,0,.55.27,7.74,7.74,0,0,0,.84.26,10.81,10.81,0,0,0,1.19.2,14,14,0,0,0,1.49.08,14.11,14.11,0,0,0,1.49-.08,10.58,10.58,0,0,0,1.18-.2,8.75,8.75,0,0,0,.85-.26,4,4,0,0,0,.55-.27.52.52,0,0,0,.21-.22.58.58,0,0,0-.21-.22,4,4,0,0,0-.55-.27,6.71,6.71,0,0,0-.85-.25,8.68,8.68,0,0,0-1.18-.2A11.86,11.86,0,0,0,146.45,55.27Z"/></g><g id="icon-server-3" data-name="icon-server"><path class="cls-9" d="M159.92,58.35a29.29,29.29,0,0,1,3.55.22,19.52,19.52,0,0,1,3.14.65,6.76,6.76,0,0,1,2.3,1.12,2,2,0,0,1,.86,1.6V74.47a2,2,0,0,1-.86,1.59,6.5,6.5,0,0,1-2.3,1.13,20.71,20.71,0,0,1-3.14.64,28.75,28.75,0,0,1-7.1,0,20.71,20.71,0,0,1-3.14-.64,6.45,6.45,0,0,1-2.29-1.13,2,2,0,0,1-.87-1.59V61.94a2,2,0,0,1,.87-1.6,6.61,6.61,0,0,1,2.29-1.12,19.52,19.52,0,0,1,3.14-.65A29.29,29.29,0,0,1,159.92,58.35ZM168,74.46V70.38a12.56,12.56,0,0,1-3.53,1.05,28.68,28.68,0,0,1-9.06,0,12.56,12.56,0,0,1-3.53-1.05v4.09a.82.82,0,0,0,.38.37,5.15,5.15,0,0,0,1,.47,13.11,13.11,0,0,0,1.6.46,18,18,0,0,0,2.25.35,28.57,28.57,0,0,0,5.65,0,18.06,18.06,0,0,0,2.24-.35,13,13,0,0,0,1.6-.47,5.68,5.68,0,0,0,1-.46C167.83,74.69,168,74.57,168,74.46Zm0-6.27V64.11a12.56,12.56,0,0,1-3.53,1,28.68,28.68,0,0,1-9.06,0,12.56,12.56,0,0,1-3.53-1V68.2c0,.11.15.23.38.37a5.15,5.15,0,0,0,1,.47,13,13,0,0,0,1.6.47,20.28,20.28,0,0,0,2.25.34,28.57,28.57,0,0,0,5.65,0,20.44,20.44,0,0,0,2.24-.34,13.36,13.36,0,0,0,1.59-.47,5,5,0,0,0,1-.47c.23-.15.35-.27.38-.38Zm-8.06-8a25.23,25.23,0,0,0-2.81.15,18.7,18.7,0,0,0-2.23.34,13.45,13.45,0,0,0-1.59.46,5.51,5.51,0,0,0-1,.46,1,1,0,0,0-.4.39,1,1,0,0,0,.4.38,5.43,5.43,0,0,0,1,.47,15.82,15.82,0,0,0,1.59.45,20.73,20.73,0,0,0,2.23.35,28.27,28.27,0,0,0,5.62,0,20.73,20.73,0,0,0,2.23-.35,15.82,15.82,0,0,0,1.59-.45,5.43,5.43,0,0,0,1-.47,1,1,0,0,0,.4-.38,1,1,0,0,0-.4-.39,5.51,5.51,0,0,0-1-.46,13.45,13.45,0,0,0-1.59-.46,18.7,18.7,0,0,0-2.23-.34A25.1,25.1,0,0,0,159.92,60.14Z"/></g><circle class="cls-6" cx="341.75" cy="79.23" r="18.66" transform="translate(208.8 403.88) rotate(-80.78)"/><path class="cls-19" d="M307.93,70.14a.71.71,0,0,1-.73.68H287a.71.71,0,0,1-.73-.68V43a.71.71,0,0,1,.73-.68h20.2a.71.71,0,0,1,.73.68Z"/><rect class="cls-8" x="289.14" y="48.03" width="15.27" height="2.45"/><rect class="cls-8" x="289.14" y="52.74" width="10.07" height="2.45"/><rect class="cls-8" x="289.14" y="57.33" width="16.96" height="2.45"/><rect class="cls-8" x="289.14" y="62.16" width="10.07" height="2.45"/><path class="cls-9" d="M297.1,50.56a6,6,0,1,0,6,6A6,6,0,0,0,297.1,50.56ZM300.56,55l-4.32,4.32a.19.19,0,0,1-.28,0L293.64,57a.19.19,0,0,1,0-.28l.92-.92a.21.21,0,0,1,.28,0L296,56.93a.19.19,0,0,0,.28,0l3.12-3.11a.2.2,0,0,1,.28,0l.92.91A.21.21,0,0,1,300.56,55Z"/><path class="cls-19" d="M300.56,55l-4.32,4.32a.19.19,0,0,1-.28,0L293.64,57a.19.19,0,0,1,0-.28l.92-.92a.21.21,0,0,1,.28,0L296,56.93a.19.19,0,0,0,.28,0l3.12-3.11a.2.2,0,0,1,.28,0l.92.91A.21.21,0,0,1,300.56,55Z"/><circle class="cls-6" cx="297.62" cy="55.05" r="20.27" transform="translate(175.67 332.06) rotate(-76.72)"/><circle class="cls-6" cx="259.86" cy="24.83" r="17.56" transform="translate(137.48 255.41) rotate(-67.5)"/><path class="cls-21" d="M267.45,34.56a.52.52,0,0,1-.54.5h-14.7a.51.51,0,0,1-.53-.5V14.82a.51.51,0,0,1,.53-.5h14.7a.52.52,0,0,1,.54.5Z"/><path class="cls-19" d="M267.45,34.56a.52.52,0,0,1-.54.5h-14.7a.51.51,0,0,1-.53-.5V14.82a.51.51,0,0,1,.53-.5h14.7a.52.52,0,0,1,.54.5Z"/><path class="cls-9" d="M262.22,23.72v-1a1.48,1.48,0,0,0-1.53-1.52h-.89c-.62,0-.68-.31-.68-.47V19.48a1.06,1.06,0,0,0-.42-2,1.05,1.05,0,0,0-1.06,1.06,1.07,1.07,0,0,0,.64,1v1.23c0,.12,0,.47-.69.47h-.88a1.48,1.48,0,0,0-1.53,1.52v1a1.06,1.06,0,1,0,.84,0v-1a.64.64,0,0,1,.69-.68h.88a2,2,0,0,0,.69-.11v1.81a1.06,1.06,0,1,0,.84,0V21.91a2,2,0,0,0,.68.11h.89a.64.64,0,0,1,.68.68v1a1.07,1.07,0,1,0,.85,0Zm-6,1a.61.61,0,0,1-1.22,0,.61.61,0,1,1,1.22,0Zm1.87-6.2a.61.61,0,0,1,.62-.61.61.61,0,1,1,0,1.22A.61.61,0,0,1,258.08,18.5Zm1.23,6.2a.61.61,0,1,1-1.22,0,.61.61,0,1,1,1.22,0Zm2.49.61a.61.61,0,0,1-.62-.61.62.62,0,1,1,1.23,0A.61.61,0,0,1,261.8,25.31Z"/><path class="cls-22" d="M265.3,29.9v-1a1.48,1.48,0,0,0-1.52-1.53h-.89c-.62,0-.68-.31-.68-.46V25.66a1.07,1.07,0,1,0-.85,0V26.9c0,.11,0,.46-.68.46h-.88a1.48,1.48,0,0,0-1.53,1.53v1a1.08,1.08,0,0,0-.65,1,1.07,1.07,0,0,0,2.13,0,1.08,1.08,0,0,0-.64-1v-1a.65.65,0,0,1,.69-.69h.88a1.9,1.9,0,0,0,.68-.11V29.9a1.08,1.08,0,0,0-.64,1,1.07,1.07,0,0,0,2.13,0,1.08,1.08,0,0,0-.64-1V28.09a1.94,1.94,0,0,0,.68.11h.89a.65.65,0,0,1,.68.69v1a1.08,1.08,0,0,0-.64,1,1.07,1.07,0,0,0,2.13,0A1.08,1.08,0,0,0,265.3,29.9Zm-6,1a.61.61,0,0,1-.61.61.61.61,0,1,1,0-1.22A.61.61,0,0,1,259.3,30.88Zm1.87-6.2a.62.62,0,1,1,.62.62A.62.62,0,0,1,261.17,24.68Zm1.23,6.2a.62.62,0,1,1-.61-.61A.61.61,0,0,1,262.4,30.88Zm2.48.61a.61.61,0,1,1,.62-.61A.61.61,0,0,1,264.88,31.49Z"/><line class="cls-23" x1="259.94" y1="123.1" x2="259.94" y2="48.6"/><path class="cls-9" d="M261.68,46.65a1.82,1.82,0,1,1-1.82-1.82A1.82,1.82,0,0,1,261.68,46.65Z"/><path class="cls-9" d="M299.44,79.23a1.82,1.82,0,1,1-1.82-1.82A1.82,1.82,0,0,1,299.44,79.23Z"/><circle class="cls-9" cx="342.28" cy="101.53" r="1.81"/><path class="cls-9" d="M165.5,93.79A1.82,1.82,0,1,1,163.69,92,1.81,1.81,0,0,1,165.5,93.79Z"/><path class="cls-24" d="M252.48,146.75v.3H251v1h1.35v.3H251v1.25h-.33v-2.9Z"/><path class="cls-24" d="M254.7,148.91h-1.58l-.32.74h-.36l1.31-2.9h.34l1.3,2.9H255Zm-.13-.31-.66-1.49-.65,1.49Z"/><path class="cls-24" d="M256.18,146.75v2.9h-.34v-2.9Z"/><path class="cls-24" d="M259,149.65l-.61-.93h-.95v.92h-.33v-2.9h1.1c.72,0,1.14.35,1.14,1a.9.9,0,0,1-.65.94l.68,1Zm-.79-1.23c.52,0,.82-.23.82-.69s-.3-.68-.82-.68h-.77v1.37Z"/><path class="cls-25" d="M260.57,147.73c-.25,0-.43.08-.43.29,0,.49,1.22.24,1.22,1,0,.42-.39.61-.8.61a1.2,1.2,0,0,1-.84-.3l.12-.24a1.14,1.14,0,0,0,.73.28c.25,0,.46-.1.47-.32,0-.53-1.21-.26-1.21-1,0-.42.36-.6.76-.6a1.34,1.34,0,0,1,.7.2l-.13.25A1.12,1.12,0,0,0,260.57,147.73Z"/><path class="cls-25" d="M263.91,148.31v1.34h-.32v-1.26a.57.57,0,0,0-.62-.62.72.72,0,0,0-.74.81v1.07h-.32v-3.08h.32V148a.85.85,0,0,1,.85-.5A.77.77,0,0,1,263.91,148.31Z"/><path class="cls-25" d="M266,149.65v-.34a.93.93,0,0,1-.8.35.68.68,0,0,1-.75-.66c0-.38.31-.62.82-.62H266v-.14c0-.32-.2-.51-.59-.51a1.19,1.19,0,0,0-.69.25l-.13-.23a1.42,1.42,0,0,1,.89-.29.73.73,0,0,1,.84.75v1.44Zm0-.75v-.27h-.68c-.36,0-.55.12-.55.36s.19.4.5.4A.69.69,0,0,0,266,148.9Z"/><path class="cls-25" d="M268.13,147.46v.31a.73.73,0,0,0-.78.72v1.16H267v-2.18h.33V148A.81.81,0,0,1,268.13,147.46Z"/><path class="cls-25" d="M268.94,146.84a.22.22,0,0,1-.22.22.22.22,0,0,1,0-.44A.22.22,0,0,1,268.94,146.84Zm-.05.63v2.18h-.32v-2.18Z"/><path class="cls-25" d="M271.67,148.31v1.34h-.32v-1.26a.57.57,0,0,0-.62-.62.7.7,0,0,0-.73.71v1.17h-.33v-2.18H270V148a.85.85,0,0,1,.84-.49A.77.77,0,0,1,271.67,148.31Z"/><path class="cls-25" d="M274.3,147.47v1.95a1,1,0,0,1-1.1,1,1.4,1.4,0,0,1-.9-.32l.15-.23a1.17,1.17,0,0,0,.74.28.72.72,0,0,0,.78-.76v-.33a.85.85,0,0,1-.8.46,1,1,0,0,1-1-1.06,1,1,0,0,1,1-1,.84.84,0,0,1,.81.45v-.44Zm-.33,1a.75.75,0,1,0-1.49,0,.75.75,0,1,0,1.49,0Z"/><path class="cls-24" d="M275.25,149.47a.2.2,0,1,1-.2-.21A.2.2,0,0,1,275.25,149.47Z"/><path class="cls-24" d="M277.85,148.56a1.11,1.11,0,1,1-1.11-1.1A1.06,1.06,0,0,1,277.85,148.56Zm-1.89,0a.76.76,0,0,0,.78.82.82.82,0,1,0-.78-.82Z"/><path class="cls-24" d="M279.53,147.46v.31a.73.73,0,0,0-.79.72v1.16h-.32v-2.18h.32V148A.83.83,0,0,1,279.53,147.46Z"/><path class="cls-24" d="M281.87,147.47v1.95a1,1,0,0,1-1.1,1,1.4,1.4,0,0,1-.9-.32l.15-.23a1.14,1.14,0,0,0,.73.28.73.73,0,0,0,.79-.76v-.33a.85.85,0,0,1-.8.46,1,1,0,0,1-1-1.06,1,1,0,0,1,1-1,.85.85,0,0,1,.81.45v-.44Zm-.33,1a.75.75,0,1,0-1.49,0,.75.75,0,1,0,1.49,0Z"/><path class="cls-24" d="M256.6,151.88a3.49,3.49,0,0,1-2.17-.78,2.84,2.84,0,0,0-2.13-.72,2,2,0,0,0-1.22.7.09.09,0,0,1-.14,0,.09.09,0,0,1,0-.13,2.13,2.13,0,0,1,1.35-.79,3,3,0,0,1,2.28.76,3.39,3.39,0,0,0,4.18,0,.1.1,0,0,1,.13.15,3.89,3.89,0,0,1-2.26.78Z"/><path class="cls-26" d="M252.58,151.89l-.31,0a2.13,2.13,0,0,1-1.35-.79.11.11,0,0,1,0-.14.1.1,0,0,1,.14,0,2,2,0,0,0,1.22.7,2.85,2.85,0,0,0,2.13-.73,3.58,3.58,0,0,1,4.43,0,.1.1,0,0,1,0,.14.11.11,0,0,1-.14,0,3.33,3.33,0,0,0-4.18,0,3.26,3.26,0,0,1-2,.79Z"/><path class="cls-25" d="M260,151.23a.24.24,0,0,1,0-.14.18.18,0,0,1,.07-.15.3.3,0,0,1,.2-.06.41.41,0,0,1,.16,0,.38.38,0,0,1,.13.09l-.08.07a.25.25,0,0,0-.1-.08l-.11,0a.21.21,0,0,0-.12,0,.1.1,0,0,0,0,.08.09.09,0,0,0,0,.07.52.52,0,0,0,.15.07.45.45,0,0,1,.24.11.18.18,0,0,1,.07.15.23.23,0,0,1-.08.16.27.27,0,0,1-.2.07.34.34,0,0,1-.18,0,.53.53,0,0,1-.17-.12l.09-.06.13.09.12,0a.17.17,0,0,0,.13,0,.12.12,0,0,0,.05-.09.09.09,0,0,0,0-.08.38.38,0,0,0-.19-.08l-.15,0Z"/><path class="cls-25" d="M260.85,150.6H261v.29h.19v.1H261v.5a.12.12,0,0,0,0,.09.1.1,0,0,0,.09,0h.07v.09h-.09c-.08,0-.13,0-.16-.05a.17.17,0,0,1,0-.15V151h-.14v-.1h.14v-.29Z"/><path class="cls-25" d="M261.31,151a.88.88,0,0,1,.17-.12l.17,0a.29.29,0,0,1,.17,0,.26.26,0,0,1,.1.11.44.44,0,0,1,0,.13v.34a1.11,1.11,0,0,0,0,.19h-.11a.69.69,0,0,1,0-.13.48.48,0,0,1-.15.11.32.32,0,0,1-.16,0,.21.21,0,0,1-.16-.06.24.24,0,0,1-.07-.16.24.24,0,0,1,0-.14.4.4,0,0,1,.15-.1l.34-.09v0a.18.18,0,0,0,0-.1.17.17,0,0,0-.12,0,.53.53,0,0,0-.12,0l-.16.11Zm.52.47v-.26l-.24.06a.33.33,0,0,0-.13.09.13.13,0,0,0,0,.1.14.14,0,0,0,0,.09.17.17,0,0,0,.1,0l.13,0Z"/><path class="cls-25" d="M262.32,151a.44.44,0,0,1,.17-.08l.13,0,.11,0a.3.3,0,0,1,.08.08.33.33,0,0,1,0,.15v.56h-.11v-.55c0-.06,0-.1,0-.12a.12.12,0,0,0-.1,0l-.13,0-.15.08v.61h-.11v-.8h.11v.1Z"/><path class="cls-25" d="M263.66,150.57h.1v.87c0,.05,0,.1,0,.14a.75.75,0,0,0,0,.11h-.11a.52.52,0,0,1,0-.11.61.61,0,0,1-.14.1.35.35,0,0,1-.14,0,.3.3,0,0,1-.23-.11.42.42,0,0,1-.1-.3.41.41,0,0,1,.1-.31.27.27,0,0,1,.23-.11.35.35,0,0,1,.14,0l.14.09Zm0,.52a.55.55,0,0,0-.14-.09l-.12,0a.21.21,0,0,0-.17.07.36.36,0,0,0-.07.24.33.33,0,0,0,.07.24.19.19,0,0,0,.17.08l.12,0a.55.55,0,0,0,.14-.09Z"/><path class="cls-25" d="M264,151a.83.83,0,0,1,.16-.12.57.57,0,0,1,.18,0,.31.31,0,0,1,.17,0,.23.23,0,0,1,.09.11.25.25,0,0,1,0,.13v.34a.58.58,0,0,0,0,.19h-.11a.79.79,0,0,1,0-.13.39.39,0,0,1-.15.11.28.28,0,0,1-.15,0,.24.24,0,0,1-.17-.06.23.23,0,0,1-.06-.16.24.24,0,0,1,.05-.14.28.28,0,0,1,.15-.1l.33-.09v0a.13.13,0,0,0,0-.1.16.16,0,0,0-.11,0l-.13,0-.15.11Zm.51.47v-.26l-.23.06a.38.38,0,0,0-.14.09.13.13,0,0,0,0,.1.11.11,0,0,0,0,.09.13.13,0,0,0,.1,0l.12,0Z"/><path class="cls-25" d="M265,151.07a.67.67,0,0,1,.14-.15.29.29,0,0,1,.16,0h0V151h0l-.1,0a.18.18,0,0,0-.09.07.35.35,0,0,0-.07.12.69.69,0,0,0,0,.13v.35h-.11v-.8H265Z"/><path class="cls-25" d="M266,150.57h.11v.87a.61.61,0,0,0,0,.14.75.75,0,0,0,0,.11h-.11a.52.52,0,0,1,0-.11l-.14.1-.14,0a.3.3,0,0,1-.23-.11.42.42,0,0,1-.1-.3.41.41,0,0,1,.1-.31.27.27,0,0,1,.23-.11.35.35,0,0,1,.14,0l.13.09Zm0,.52a.51.51,0,0,0-.13-.09l-.13,0a.2.2,0,0,0-.16.07.36.36,0,0,0-.07.24.33.33,0,0,0,.07.24.19.19,0,0,0,.17.08l.12,0a.51.51,0,0,0,.13-.09Z"/><path class="cls-25" d="M266.44,151.23a.2.2,0,0,1-.06-.14.18.18,0,0,1,.07-.15.32.32,0,0,1,.2-.06.41.41,0,0,1,.16,0,.3.3,0,0,1,.13.09l-.08.07a.32.32,0,0,0-.09-.08l-.12,0a.21.21,0,0,0-.12,0,.1.1,0,0,0,0,.08.09.09,0,0,0,0,.07.52.52,0,0,0,.15.07.53.53,0,0,1,.25.11.2.2,0,0,1,.06.15.23.23,0,0,1-.08.16.26.26,0,0,1-.2.07.39.39,0,0,1-.18,0,.53.53,0,0,1-.17-.12l.1-.06.12.09a.28.28,0,0,0,.13,0,.18.18,0,0,0,.13,0,.11.11,0,0,0,0-.09.11.11,0,0,0,0-.08.48.48,0,0,0-.2-.08l-.15,0Z"/><path class="cls-25" d="M267.21,151.52h.15v.17l-.11.23h-.07l.1-.23h-.07v-.17Z"/><path class="cls-25" d="M268.68,150.57h.11v.87a.61.61,0,0,0,0,.14.27.27,0,0,0,0,.11h-.11a.23.23,0,0,1,0-.11.65.65,0,0,1-.15.1.31.31,0,0,1-.13,0,.34.34,0,0,1-.24-.11.47.47,0,0,1-.09-.3.46.46,0,0,1,.09-.31.3.3,0,0,1,.24-.11.31.31,0,0,1,.13,0,.55.55,0,0,1,.14.09v-.43Zm0,.52a.51.51,0,0,0-.13-.09l-.13,0a.22.22,0,0,0-.17.07.43.43,0,0,0-.07.24.38.38,0,0,0,.07.24.21.21,0,0,0,.17.08l.13,0a.51.51,0,0,0,.13-.09v-.4Z"/><path class="cls-25" d="M269,151a.88.88,0,0,1,.17-.12l.17,0a.29.29,0,0,1,.17,0,.26.26,0,0,1,.1.11.44.44,0,0,1,0,.13v.34a1.11,1.11,0,0,0,0,.19h-.11a.69.69,0,0,1,0-.13.48.48,0,0,1-.15.11.32.32,0,0,1-.16,0,.21.21,0,0,1-.16-.06.23.23,0,0,1-.06-.16.23.23,0,0,1,0-.14.4.4,0,0,1,.15-.1l.34-.09v0a.18.18,0,0,0,0-.1.17.17,0,0,0-.12,0l-.12,0-.16.11Zm.52.47v-.26l-.24.06a.33.33,0,0,0-.13.09.13.13,0,0,0,0,.1.14.14,0,0,0,0,.09.17.17,0,0,0,.1,0l.13,0Z"/><path class="cls-25" d="M270,150.6h.11v.29h.2v.1h-.2v.5a.12.12,0,0,0,0,.09.1.1,0,0,0,.09,0h.08v.09h-.1a.19.19,0,0,1-.16-.05.21.21,0,0,1,0-.15V151h-.14v-.1H270v-.29Z"/><path class="cls-25" d="M270.45,151a.61.61,0,0,1,.16-.12.57.57,0,0,1,.18,0,.27.27,0,0,1,.16,0,.26.26,0,0,1,.1.11.44.44,0,0,1,0,.13v.34a1.11,1.11,0,0,0,0,.19H271a.69.69,0,0,1,0-.13.48.48,0,0,1-.15.11.29.29,0,0,1-.16,0,.21.21,0,0,1-.16-.06.23.23,0,0,1-.06-.16.23.23,0,0,1,0-.14.4.4,0,0,1,.15-.1l.34-.09v0a.13.13,0,0,0,0-.1.17.17,0,0,0-.12,0,.53.53,0,0,0-.12,0,.72.72,0,0,0-.15.11Zm.51.47v-.26l-.24.06a.33.33,0,0,0-.13.09.13.13,0,0,0,0,.1.14.14,0,0,0,0,.09.17.17,0,0,0,.1,0l.13,0Z"/><path class="cls-25" d="M271.33,150.57h.11V151a.27.27,0,0,1,.12-.09.4.4,0,0,1,.15,0,.27.27,0,0,1,.23.11.4.4,0,0,1,.1.3.51.51,0,0,1,0,.22.28.28,0,0,1-.13.15.33.33,0,0,1-.16.05.28.28,0,0,1-.13,0,.55.55,0,0,1-.14-.09v.1h-.11v-1.12Zm.11.92a.33.33,0,0,0,.14.09l.12,0a.21.21,0,0,0,.16-.08.45.45,0,0,0,0-.48.21.21,0,0,0-.17-.08l-.13,0a.47.47,0,0,0-.12.09v.4Z"/><path class="cls-25" d="M272.22,151a.66.66,0,0,1,.17-.12l.17,0a.31.31,0,0,1,.17,0,.26.26,0,0,1,.1.11.44.44,0,0,1,0,.13v.34a.58.58,0,0,0,0,.19h-.11a.69.69,0,0,1,0-.13.48.48,0,0,1-.15.11.32.32,0,0,1-.16,0,.21.21,0,0,1-.16-.06.2.2,0,0,1-.07-.16.24.24,0,0,1,.05-.14.28.28,0,0,1,.15-.1l.34-.09v0a.14.14,0,0,0-.05-.1.14.14,0,0,0-.11,0l-.12,0-.16.11Zm.52.47v-.26l-.24.06c-.06,0-.11,0-.13.09a.14.14,0,0,0-.05.1.12.12,0,0,0,.14.12l.13,0Z"/><path class="cls-25" d="M273.13,151.23a.2.2,0,0,1-.06-.14.21.21,0,0,1,.07-.15.32.32,0,0,1,.2-.06.41.41,0,0,1,.16,0,.25.25,0,0,1,.13.09l-.08.07a.32.32,0,0,0-.09-.08l-.11,0a.23.23,0,0,0-.13,0,.1.1,0,0,0,0,.08.09.09,0,0,0,0,.07.52.52,0,0,0,.15.07.49.49,0,0,1,.25.11.2.2,0,0,1,.06.15.21.21,0,0,1-.07.16.28.28,0,0,1-.21.07.39.39,0,0,1-.18,0,.42.42,0,0,1-.16-.12l.09-.06.12.09a.28.28,0,0,0,.13,0,.18.18,0,0,0,.13,0,.11.11,0,0,0,0-.09.11.11,0,0,0,0-.08.43.43,0,0,0-.2-.08l-.15,0Z"/><path class="cls-25" d="M274.51,151.51a.55.55,0,0,1-.16.15.37.37,0,0,1-.17.05.34.34,0,0,1-.25-.11.5.5,0,0,1-.1-.31.45.45,0,0,1,.1-.3.3.3,0,0,1,.24-.11.28.28,0,0,1,.17.05.33.33,0,0,1,.12.14.71.71,0,0,1,.05.23h-.57a.35.35,0,0,0,0,.16.27.27,0,0,0,.09.12.23.23,0,0,0,.11,0,.31.31,0,0,0,.25-.16Zm-.12-.3a.3.3,0,0,0-.07-.18.26.26,0,0,0-.15-.07.19.19,0,0,0-.16.08.27.27,0,0,0-.06.17Z"/><path class="cls-25" d="M274.73,151.23a.2.2,0,0,1-.06-.14.18.18,0,0,1,.07-.15.32.32,0,0,1,.2-.06.41.41,0,0,1,.16,0,.3.3,0,0,1,.13.09l-.08.07a.32.32,0,0,0-.09-.08l-.12,0a.21.21,0,0,0-.12,0,.1.1,0,0,0,0,.08.09.09,0,0,0,0,.07.52.52,0,0,0,.15.07.53.53,0,0,1,.25.11.2.2,0,0,1,.06.15.23.23,0,0,1-.08.16.26.26,0,0,1-.2.07.39.39,0,0,1-.18,0,.53.53,0,0,1-.17-.12l.1-.06a.47.47,0,0,0,.12.09.28.28,0,0,0,.13,0,.18.18,0,0,0,.13,0,.11.11,0,0,0,0-.09.11.11,0,0,0,0-.08.43.43,0,0,0-.2-.08l-.15,0Z"/><path class="cls-25" d="M275.5,151.52h.15v.17l-.11.23h-.07l.1-.23h-.07Z"/><path class="cls-25" d="M276.54,151l.13-.08a.35.35,0,0,1,.14,0,.28.28,0,0,1,.17.05.31.31,0,0,1,.12.15.49.49,0,0,1,0,.21.48.48,0,0,1,0,.22.31.31,0,0,1-.12.15.37.37,0,0,1-.17.05.35.35,0,0,1-.14,0,.51.51,0,0,1-.13-.09V152h-.11v-1.11h.11v.1Zm0,.5.13.09.13,0a.23.23,0,0,0,.17-.08.43.43,0,0,0,.06-.24.33.33,0,0,0-.07-.24.21.21,0,0,0-.17-.08.3.3,0,0,0-.12,0,.51.51,0,0,0-.13.09v.4Z"/><path class="cls-25" d="M277.67,151.71a.36.36,0,0,1-.26-.11.45.45,0,0,1-.1-.31.54.54,0,0,1,0-.22.35.35,0,0,1,.13-.14.31.31,0,0,1,.18-.05.26.26,0,0,1,.17.05.28.28,0,0,1,.13.15.4.4,0,0,1,.05.22.44.44,0,0,1-.1.3A.34.34,0,0,1,277.67,151.71Zm0-.09a.22.22,0,0,0,.17-.09.45.45,0,0,0,0-.48.23.23,0,0,0-.17-.08.25.25,0,0,0-.18.08.43.43,0,0,0-.07.24.38.38,0,0,0,.07.24A.23.23,0,0,0,277.66,151.62Z"/><path class="cls-25" d="M278.25,150.57h.11v1.12h-.11Z"/><path class="cls-25" d="M278.68,150.58h.11v.13h-.11Zm0,.31h.11v.8h-.11Z"/><path class="cls-25" d="M279.69,151.5a.58.58,0,0,1-.12.14.28.28,0,0,1-.19.07.37.37,0,0,1-.18-.05.38.38,0,0,1-.13-.15.51.51,0,0,1,0-.22.4.4,0,0,1,.1-.3.31.31,0,0,1,.25-.11.26.26,0,0,1,.17.05.34.34,0,0,1,.14.15l-.1,0a.62.62,0,0,0-.09-.12.19.19,0,0,0-.12,0,.21.21,0,0,0-.17.08.37.37,0,0,0-.07.25.33.33,0,0,0,.07.23.19.19,0,0,0,.16.08.23.23,0,0,0,.22-.16Z"/><path class="cls-25" d="M279.91,150.58H280v.13h-.11Zm0,.31H280v.8h-.11Z"/><path class="cls-25" d="M280.94,151.51a.55.55,0,0,1-.16.15.37.37,0,0,1-.17.05.34.34,0,0,1-.25-.11.5.5,0,0,1-.1-.31.45.45,0,0,1,.1-.3.3.3,0,0,1,.24-.11.28.28,0,0,1,.17.05.33.33,0,0,1,.12.14.71.71,0,0,1,.05.23h-.57a.35.35,0,0,0,0,.16.27.27,0,0,0,.09.12l.11,0a.31.31,0,0,0,.25-.16Zm-.12-.3a.25.25,0,0,0-.07-.18.26.26,0,0,0-.15-.07.19.19,0,0,0-.16.08.27.27,0,0,0-.06.17Z"/><path class="cls-25" d="M281.16,151.23a.2.2,0,0,1-.06-.14.18.18,0,0,1,.07-.15.32.32,0,0,1,.2-.06.41.41,0,0,1,.16,0,.25.25,0,0,1,.13.09l-.08.07a.32.32,0,0,0-.09-.08l-.12,0a.21.21,0,0,0-.12,0,.1.1,0,0,0,0,.08.09.09,0,0,0,0,.07.52.52,0,0,0,.15.07.49.49,0,0,1,.25.11.2.2,0,0,1,.06.15.19.19,0,0,1-.08.16.26.26,0,0,1-.2.07.39.39,0,0,1-.18,0,.42.42,0,0,1-.16-.12l.09-.06a.47.47,0,0,0,.12.09.28.28,0,0,0,.13,0,.18.18,0,0,0,.13,0,.11.11,0,0,0,0-.09.11.11,0,0,0,0-.08.43.43,0,0,0-.2-.08l-.15,0Z"/><path class="cls-8" d="M128.59,141.65a3.43,3.43,0,0,1-.52,2.08,1.8,1.8,0,0,1-1.57.7,1.83,1.83,0,0,1-1.56-.68,3.35,3.35,0,0,1-.54-2v-1.11a3.4,3.4,0,0,1,.52-2.07,2.15,2.15,0,0,1,3.14,0,3.37,3.37,0,0,1,.53,2Zm-1.07-1.19a2.77,2.77,0,0,0-.24-1.32,1,1,0,0,0-1.56,0,2.48,2.48,0,0,0-.25,1.24v1.46a2.73,2.73,0,0,0,.25,1.33.83.83,0,0,0,.78.44.81.81,0,0,0,.76-.41,2.54,2.54,0,0,0,.26-1.27Z"/><path class="cls-8" d="M133.07,144.35H132v-5.14l-1.57.53v-.9l2.5-.92h.13Z"/><path class="cls-8" d="M140.12,141.65a3.5,3.5,0,0,1-.52,2.08,2.12,2.12,0,0,1-3.13,0,3.35,3.35,0,0,1-.54-2v-1.11a3.47,3.47,0,0,1,.51-2.07,2.16,2.16,0,0,1,3.15,0,3.37,3.37,0,0,1,.53,2Zm-1.07-1.19a2.63,2.63,0,0,0-.25-1.32.83.83,0,0,0-.78-.42.84.84,0,0,0-.77.39,2.58,2.58,0,0,0-.26,1.24v1.46a2.73,2.73,0,0,0,.25,1.33.85.85,0,0,0,.79.44.82.82,0,0,0,.76-.41,2.65,2.65,0,0,0,.26-1.27Z"/><path class="cls-8" d="M144.6,144.35h-1.06v-5.14l-1.57.53v-.9l2.49-.92h.14Z"/><path class="cls-8" d="M151.64,141.65a3.5,3.5,0,0,1-.51,2.08,2.13,2.13,0,0,1-3.14,0,3.35,3.35,0,0,1-.54-2v-1.11a3.47,3.47,0,0,1,.52-2.07,2.15,2.15,0,0,1,3.14,0,3.3,3.3,0,0,1,.53,2Zm-1.07-1.19a2.77,2.77,0,0,0-.24-1.32.85.85,0,0,0-.78-.42.84.84,0,0,0-.77.39,2.46,2.46,0,0,0-.26,1.24v1.46a2.73,2.73,0,0,0,.25,1.33.84.84,0,0,0,.78.44.8.8,0,0,0,.76-.41,2.54,2.54,0,0,0,.26-1.27Z"/><path class="cls-8" d="M126.37,148.57h-.65v-3.14l-1,.33v-.55l1.53-.56h.08Z"/><path class="cls-8" d="M130.28,146.93a2.14,2.14,0,0,1-.32,1.27,1.13,1.13,0,0,1-1,.43,1.12,1.12,0,0,1-.95-.42,2,2,0,0,1-.33-1.24v-.67A2.1,2.1,0,0,1,128,145a1.32,1.32,0,0,1,1.92,0,2.05,2.05,0,0,1,.33,1.23Zm-.66-.73a1.66,1.66,0,0,0-.15-.81.51.51,0,0,0-.47-.26.5.5,0,0,0-.47.25,1.46,1.46,0,0,0-.16.76V147a1.73,1.73,0,0,0,.15.82.51.51,0,0,0,.48.27.53.53,0,0,0,.47-.25,1.58,1.58,0,0,0,.15-.78Z"/><path class="cls-8" d="M132.62,148.57H132v-3.14l-1,.33v-.55l1.53-.56h.08Z"/><path class="cls-8" d="M136.53,146.93a2.14,2.14,0,0,1-.32,1.27,1.13,1.13,0,0,1-1,.43,1.12,1.12,0,0,1-.95-.42A2,2,0,0,1,134,147v-.67a2,2,0,0,1,.32-1.27,1.12,1.12,0,0,1,1-.42,1.14,1.14,0,0,1,1,.41,2.06,2.06,0,0,1,.32,1.23Zm-.65-.73a1.66,1.66,0,0,0-.15-.81.52.52,0,0,0-.48-.26.51.51,0,0,0-.47.25,1.56,1.56,0,0,0-.16.76V147a1.73,1.73,0,0,0,.15.82.56.56,0,0,0,.95,0,1.69,1.69,0,0,0,.16-.78Z"/><path class="cls-8" d="M138.87,148.57h-.65v-3.14l-1,.33v-.55l1.53-.56h.08Z"/><path class="cls-8" d="M142.78,146.93a2.15,2.15,0,0,1-.31,1.27,1.14,1.14,0,0,1-1,.43,1.12,1.12,0,0,1-1-.42,2.11,2.11,0,0,1-.33-1.24v-.67a2.1,2.1,0,0,1,.32-1.27,1.12,1.12,0,0,1,1-.42,1.14,1.14,0,0,1,1,.41,2,2,0,0,1,.32,1.23Zm-.65-.73a1.66,1.66,0,0,0-.15-.81.52.52,0,0,0-.48-.26.51.51,0,0,0-.47.25,1.56,1.56,0,0,0-.16.76V147a1.73,1.73,0,0,0,.15.82.53.53,0,0,0,.49.27.51.51,0,0,0,.46-.25,1.69,1.69,0,0,0,.16-.78Z"/><path class="cls-8" d="M145.13,148.57h-.65v-3.14l-1,.33v-.55l1.52-.56h.09Z"/><path class="cls-8" d="M149,146.93a2.15,2.15,0,0,1-.31,1.27,1.13,1.13,0,0,1-1,.43,1.15,1.15,0,0,1-1-.42,2.11,2.11,0,0,1-.33-1.24v-.67a2.1,2.1,0,0,1,.32-1.27,1.12,1.12,0,0,1,1-.42,1.14,1.14,0,0,1,1,.41,2,2,0,0,1,.32,1.23Zm-.65-.73a1.66,1.66,0,0,0-.15-.81.52.52,0,0,0-.48-.26.51.51,0,0,0-.47.25,1.56,1.56,0,0,0-.16.76V147a1.6,1.6,0,0,0,.16.82.56.56,0,0,0,.94,0,1.57,1.57,0,0,0,.16-.78Z"/><path class="cls-8" d="M151.38,148.57h-.65v-3.14l-1,.33v-.55l1.52-.56h.09Z"/><path class="cls-14" d="M157.64,138.65a.28.28,0,0,1,.31-.29.31.31,0,0,1,.22.08.32.32,0,0,1,.08.21.28.28,0,0,1-.08.2.31.31,0,0,1-.22.08.32.32,0,0,1-.23-.08A.28.28,0,0,1,157.64,138.65Zm.57,3h-.53v-2.37h.53Z"/><path class="cls-14" d="M159.13,141.64v-2h-.36v-.39h.36v-.22a.82.82,0,0,1,.22-.61.84.84,0,0,1,.62-.22,1.13,1.13,0,0,1,.3,0l0,.42-.2,0a.34.34,0,0,0-.38.39v.22h.48v.39h-.48v2Z"/><path class="cls-14" d="M162,140.34a3.32,3.32,0,0,1,.14-1,2.72,2.72,0,0,1,.4-.82,1.61,1.61,0,0,1,.56-.5l.1.31a1.74,1.74,0,0,0-.5.72,3.12,3.12,0,0,0-.21,1.1v.19a3.38,3.38,0,0,0,.19,1.19,1.71,1.71,0,0,0,.52.79l-.1.3a1.55,1.55,0,0,1-.56-.51,2.56,2.56,0,0,1-.4-.81A3.5,3.5,0,0,1,162,140.34Z"/><path class="cls-14" d="M164.36,138.69v.58h.42v.39h-.42V141a.37.37,0,0,0,0,.2.25.25,0,0,0,.19.06.58.58,0,0,0,.19,0v.42a1.48,1.48,0,0,1-.35.05c-.41,0-.62-.23-.62-.68v-1.35h-.39v-.39h.39v-.58Z"/><path class="cls-14" d="M166.17,140.88l.48-1.61h.57l-.94,2.73a.77.77,0,0,1-.74.6.87.87,0,0,1-.26,0v-.41h.1a.53.53,0,0,0,.31-.07.47.47,0,0,0,.16-.25l.08-.2-.84-2.36h.58Z"/><path class="cls-14" d="M169.76,140.48a1.39,1.39,0,0,1-.25.88.79.79,0,0,1-.67.33.83.83,0,0,1-.63-.26v1.13h-.53v-3.29h.49l0,.24a.79.79,0,0,1,.64-.29.83.83,0,0,1,.69.33,1.46,1.46,0,0,1,.24.9Zm-.53,0a1,1,0,0,0-.14-.56.46.46,0,0,0-.41-.21.5.5,0,0,0-.47.27v1a.5.5,0,0,0,.48.28.48.48,0,0,0,.4-.2A1.18,1.18,0,0,0,169.23,140.43Z"/><path class="cls-14" d="M171.41,141.69a1.12,1.12,0,0,1-.82-.32,1.17,1.17,0,0,1-.31-.85v-.07a1.47,1.47,0,0,1,.13-.64,1.08,1.08,0,0,1,.39-.43,1,1,0,0,1,.55-.16.91.91,0,0,1,.75.31,1.3,1.3,0,0,1,.27.88v.21h-1.56a.76.76,0,0,0,.2.47.62.62,0,0,0,.44.17.71.71,0,0,0,.59-.3l.29.28a.94.94,0,0,1-.38.33A1.19,1.19,0,0,1,171.41,141.69Zm-.06-2a.44.44,0,0,0-.35.15.89.89,0,0,0-.18.43h1v0a.64.64,0,0,0-.14-.4A.47.47,0,0,0,171.35,139.65Z"/><path class="cls-14" d="M174.87,139.93H173v-.44h1.89Zm0,.93H173v-.44h1.89Z"/><path class="cls-14" d="M177.55,139.93h-1.9v-.44h1.9Zm0,.93h-1.9v-.44h1.9Z"/><path class="cls-14" d="M180.22,139.93h-1.9v-.44h1.9Zm0,.93h-1.9v-.44h1.9Z"/><path class="cls-14" d="M181.06,139.39l-.27-.17a1.05,1.05,0,0,0,.2-.6v-.35h.47v.3a1,1,0,0,1-.12.46A1.15,1.15,0,0,1,181.06,139.39Z"/><path class="cls-14" d="M182.53,139.27l0,.24a.86.86,0,0,1,.68-.29.66.66,0,0,1,.66.37.82.82,0,0,1,.73-.37.72.72,0,0,1,.58.22.93.93,0,0,1,.2.64v1.56h-.53V140.1a.53.53,0,0,0-.1-.34.45.45,0,0,0-.33-.1.44.44,0,0,0-.3.1.47.47,0,0,0-.16.25v1.63h-.53v-1.56a.38.38,0,0,0-.43-.42.48.48,0,0,0-.46.26v1.72H182v-2.37Z"/><path class="cls-14" d="M186,140.43a1.46,1.46,0,0,1,.14-.63,1,1,0,0,1,.39-.43,1.08,1.08,0,0,1,.57-.15,1,1,0,0,1,.78.31,1.25,1.25,0,0,1,.33.82v.13a1.45,1.45,0,0,1-.13.63,1.08,1.08,0,0,1-.39.43,1.11,1.11,0,0,1-.58.15,1,1,0,0,1-.81-.34,1.28,1.28,0,0,1-.3-.89Zm.53,0a.9.9,0,0,0,.16.57.52.52,0,0,0,.84,0,1.07,1.07,0,0,0,.15-.62.9.9,0,0,0-.16-.57.49.49,0,0,0-.42-.21.48.48,0,0,0-.41.21A1,1,0,0,0,186.53,140.48Z"/><path class="cls-14" d="M188.72,140.44a1.44,1.44,0,0,1,.25-.89.82.82,0,0,1,.68-.33.76.76,0,0,1,.61.27v-1.22h.54v3.37h-.49l0-.24a.79.79,0,0,1-.64.29.83.83,0,0,1-.68-.34A1.47,1.47,0,0,1,188.72,140.44Zm.53,0a1,1,0,0,0,.14.57.45.45,0,0,0,.4.2.5.5,0,0,0,.47-.29v-1a.48.48,0,0,0-.47-.28.47.47,0,0,0-.4.2A1.16,1.16,0,0,0,189.25,140.48Z"/><path class="cls-14" d="M192.55,141.69a1.12,1.12,0,0,1-.82-.32,1.17,1.17,0,0,1-.31-.85v-.07a1.47,1.47,0,0,1,.13-.64,1.08,1.08,0,0,1,.39-.43,1,1,0,0,1,.55-.16.91.91,0,0,1,.75.31,1.3,1.3,0,0,1,.27.88v.21H192a.7.7,0,0,0,.19.47.62.62,0,0,0,.44.17.71.71,0,0,0,.59-.3l.29.28a.94.94,0,0,1-.38.33A1.19,1.19,0,0,1,192.55,141.69Zm-.06-2a.45.45,0,0,0-.35.15.89.89,0,0,0-.18.43h1v0a.64.64,0,0,0-.14-.4A.45.45,0,0,0,192.49,139.65Z"/><path class="cls-14" d="M194.64,141.64h-.53v-3.37h.53Z"/><path class="cls-14" d="M195.49,139.39l-.27-.17a1.05,1.05,0,0,0,.2-.6v-.35h.47v.3a1.16,1.16,0,0,1-.4.82Z"/><path class="cls-14" d="M197.54,140.38a3.29,3.29,0,0,1-.14.94,2.77,2.77,0,0,1-.4.83,1.87,1.87,0,0,1-.57.51l-.11-.3a1.63,1.63,0,0,0,.52-.78,3.33,3.33,0,0,0,.2-1.19v0a3.5,3.5,0,0,0-.17-1.11,1.9,1.9,0,0,0-.48-.81l-.07-.06.11-.3a1.57,1.57,0,0,1,.54.48,2.64,2.64,0,0,1,.41.78,3.32,3.32,0,0,1,.15.89Z"/><path class="cls-14" d="M158.71,147.83a1,1,0,0,1-.79-1v-.46c0-.33-.15-.5-.43-.5v-.39c.28,0,.43-.17.43-.5v-.46a1,1,0,0,1,.2-.64,1.19,1.19,0,0,1,.59-.36l.1.31c-.25.08-.38.31-.39.67V145a.71.71,0,0,1-.38.69.74.74,0,0,1,.38.7v.47c0,.37.14.59.39.67Z"/><path class="cls-14" d="M158.89,150.55h-.22a.48.48,0,0,0-.49.28v1.62h-.54v-2.37h.51v.26a.6.6,0,0,1,.54-.31.5.5,0,0,1,.19,0Z"/><path class="cls-14" d="M160.38,152.49a1.12,1.12,0,0,1-.82-.32,1.17,1.17,0,0,1-.31-.85v-.07a1.47,1.47,0,0,1,.13-.64,1,1,0,0,1,.39-.43,1,1,0,0,1,.55-.16.91.91,0,0,1,.75.31,1.3,1.3,0,0,1,.27.88v.21h-1.56a.78.78,0,0,0,.2.47.61.61,0,0,0,.43.17.71.71,0,0,0,.6-.3l.29.28a1,1,0,0,1-.38.33A1.19,1.19,0,0,1,160.38,152.49Zm-.06-2a.43.43,0,0,0-.35.15.81.81,0,0,0-.18.43h1v0a.64.64,0,0,0-.14-.4A.47.47,0,0,0,160.32,150.45Z"/><path class="cls-14" d="M161.81,151.24a1.43,1.43,0,0,1,.26-.89.83.83,0,0,1,.69-.33.78.78,0,0,1,.64.29l0-.24h.48v2.3a1,1,0,0,1-.29.74,1.13,1.13,0,0,1-.79.27,1.34,1.34,0,0,1-.51-.11.94.94,0,0,1-.38-.28l.25-.33a.77.77,0,0,0,.61.3.57.57,0,0,0,.42-.15.54.54,0,0,0,.15-.42v-.16a.79.79,0,0,1-.61.26.8.8,0,0,1-.68-.34A1.39,1.39,0,0,1,161.81,151.24Zm.53,0a1,1,0,0,0,.15.57.48.48,0,0,0,.4.2.5.5,0,0,0,.48-.28v-1a.5.5,0,0,0-.47-.27.47.47,0,0,0-.41.21A1,1,0,0,0,162.34,151.28Z"/><path class="cls-14" d="M164.61,149.45a.32.32,0,0,1,.08-.21.34.34,0,0,1,.44,0,.28.28,0,0,1,.08.21.24.24,0,0,1-.08.2.34.34,0,0,1-.44,0A.28.28,0,0,1,164.61,149.45Zm.57,3h-.54v-2.37h.54Z"/><path class="cls-14" d="M167.24,151.8a.25.25,0,0,0-.11-.22,1.34,1.34,0,0,0-.39-.13,1.91,1.91,0,0,1-.46-.15.6.6,0,0,1-.4-.56.64.64,0,0,1,.26-.51,1,1,0,0,1,.66-.21,1.09,1.09,0,0,1,.69.21.69.69,0,0,1,.26.55h-.53a.34.34,0,0,0-.12-.26.45.45,0,0,0-.3-.1.52.52,0,0,0-.29.08.28.28,0,0,0-.11.22.21.21,0,0,0,.11.19,1.22,1.22,0,0,0,.41.14,2,2,0,0,1,.5.16.74.74,0,0,1,.26.23.58.58,0,0,1,.09.33.62.62,0,0,1-.27.52,1.13,1.13,0,0,1-.69.2,1.21,1.21,0,0,1-.52-.11.81.81,0,0,1-.36-.29.64.64,0,0,1-.13-.4h.52a.39.39,0,0,0,.14.29.64.64,0,0,0,.67,0A.25.25,0,0,0,167.24,151.8Z"/><path class="cls-14" d="M169.05,149.49v.58h.42v.39h-.42v1.33a.25.25,0,0,0,.06.19.24.24,0,0,0,.19.07l.19,0v.42a1.48,1.48,0,0,1-.35.05c-.42,0-.62-.23-.62-.68v-1.35h-.39v-.39h.39v-.58Z"/><path class="cls-14" d="M171.28,150.55h-.22a.48.48,0,0,0-.49.28v1.62H170v-2.37h.51l0,.26a.57.57,0,0,1,.53-.31.5.5,0,0,1,.19,0Z"/><path class="cls-14" d="M172.64,151.68l.49-1.61h.56l-.94,2.73a.77.77,0,0,1-.74.6.87.87,0,0,1-.26,0V153h.1a.53.53,0,0,0,.31-.07.47.47,0,0,0,.16-.25l.08-.2-.84-2.36h.58Z"/><path class="cls-14" d="M177.37,150.73h-1.9v-.44h1.9Zm0,.93h-1.9v-.44h1.9Z"/><path class="cls-14" d="M178.21,150.19l-.27-.17a1.05,1.05,0,0,0,.2-.6v-.35h.47v.3a1.16,1.16,0,0,1-.4.82Z"/><path class="cls-14" d="M180.05,151.8a.24.24,0,0,0-.12-.22,1.34,1.34,0,0,0-.39-.13,2,2,0,0,1-.45-.15.6.6,0,0,1-.4-.56.63.63,0,0,1,.25-.51,1.19,1.19,0,0,1,1.35,0,.66.66,0,0,1,.26.55H180a.36.36,0,0,0-.11-.26.5.5,0,0,0-.31-.1.49.49,0,0,0-.28.08.25.25,0,0,0-.11.22.21.21,0,0,0,.1.19,1.41,1.41,0,0,0,.42.14,1.87,1.87,0,0,1,.49.16.78.78,0,0,1,.27.23.67.67,0,0,1,.08.33.64.64,0,0,1-.26.52,1.16,1.16,0,0,1-.7.2,1.24,1.24,0,0,1-.52-.11.94.94,0,0,1-.36-.29.7.7,0,0,1-.12-.4h.52a.33.33,0,0,0,.14.29.54.54,0,0,0,.35.11.58.58,0,0,0,.32-.08A.28.28,0,0,0,180.05,151.8Z"/><path class="cls-14" d="M181.86,149.49v.58h.42v.39h-.42v1.33a.31.31,0,0,0,0,.19.27.27,0,0,0,.2.07l.18,0v.42a1.48,1.48,0,0,1-.35.05c-.41,0-.61-.23-.61-.68v-1.35h-.4v-.39h.4v-.58Z"/><path class="cls-14" d="M184.26,152.44a1.06,1.06,0,0,1-.06-.22.83.83,0,0,1-.62.27.84.84,0,0,1-.59-.21.64.64,0,0,1-.23-.5.69.69,0,0,1,.29-.59,1.37,1.37,0,0,1,.8-.2h.33v-.16a.39.39,0,0,0-.1-.29.4.4,0,0,0-.32-.11.44.44,0,0,0-.29.09.28.28,0,0,0-.12.23h-.54a.61.61,0,0,1,.13-.36.82.82,0,0,1,.36-.27,1.15,1.15,0,0,1,.5-.1,1,1,0,0,1,.66.21.76.76,0,0,1,.26.59v1.07a1.25,1.25,0,0,0,.09.52v0Zm-.59-.38a.61.61,0,0,0,.3-.08.47.47,0,0,0,.21-.21v-.44h-.29a.78.78,0,0,0-.44.1.34.34,0,0,0-.15.29.32.32,0,0,0,.1.25A.4.4,0,0,0,183.67,152.06Z"/><path class="cls-14" d="M185.92,150.07l0,.27a.86.86,0,0,1,.69-.32c.5,0,.75.29.76.85v1.57h-.54V150.9a.45.45,0,0,0-.1-.33.41.41,0,0,0-.32-.11.53.53,0,0,0-.48.29v1.69h-.53v-2.37Z"/><path class="cls-14" d="M188,151.24a1.45,1.45,0,0,1,.26-.89.82.82,0,0,1,.68-.33.76.76,0,0,1,.61.27v-1.22h.54v3.37h-.49l0-.24a.81.81,0,0,1-.64.29.83.83,0,0,1-.68-.34A1.47,1.47,0,0,1,188,151.24Zm.54,0a1,1,0,0,0,.14.57.45.45,0,0,0,.39.2.51.51,0,0,0,.48-.29v-1a.49.49,0,0,0-.47-.28.47.47,0,0,0-.4.2A1.08,1.08,0,0,0,188.52,151.28Z"/><path class="cls-14" d="M192.2,152.44a.49.49,0,0,1-.06-.22.83.83,0,0,1-.63.27.81.81,0,0,1-.58-.21.64.64,0,0,1-.23-.5.7.7,0,0,1,.28-.59,1.42,1.42,0,0,1,.81-.2h.33v-.16a.4.4,0,0,0-.11-.29.37.37,0,0,0-.31-.11.49.49,0,0,0-.3.09.27.27,0,0,0-.11.23h-.54a.55.55,0,0,1,.13-.36.85.85,0,0,1,.35-.27,1.18,1.18,0,0,1,.5-.1,1,1,0,0,1,.67.21.75.75,0,0,1,.25.59v1.07a1.25,1.25,0,0,0,.09.52v0Zm-.59-.38a.61.61,0,0,0,.3-.08.53.53,0,0,0,.21-.21v-.44h-.29a.79.79,0,0,0-.45.1.34.34,0,0,0-.15.29.33.33,0,0,0,.11.25A.4.4,0,0,0,191.61,152.06Z"/><path class="cls-14" d="M194.61,150.55h-.22a.48.48,0,0,0-.49.28v1.62h-.54v-2.37h.51l0,.26a.57.57,0,0,1,.53-.31.5.5,0,0,1,.19,0Z"/><path class="cls-14" d="M195,151.24a1.44,1.44,0,0,1,.25-.89.82.82,0,0,1,.68-.33.78.78,0,0,1,.62.27v-1.22H197v3.37h-.48l0-.24a.79.79,0,0,1-.64.29.81.81,0,0,1-.67-.34A1.41,1.41,0,0,1,195,151.24Zm.53,0a1,1,0,0,0,.14.57.47.47,0,0,0,.4.2.52.52,0,0,0,.48-.29v-1a.5.5,0,0,0-.48-.28.47.47,0,0,0-.4.2A1.16,1.16,0,0,0,195.49,151.28Z"/><path class="cls-14" d="M197.86,150.19l-.27-.17a1.05,1.05,0,0,0,.2-.6v-.35h.47v.3a1.14,1.14,0,0,1-.11.46A1.18,1.18,0,0,1,197.86,150.19Z"/><path class="cls-14" d="M199,153.16l-.28-.17a1.58,1.58,0,0,0,.17-.35,1,1,0,0,0,.05-.3v-.41h.48v.38a1,1,0,0,1-.12.47A1.13,1.13,0,0,1,199,153.16Zm.16-3.14a.32.32,0,0,1,.24.08.32.32,0,0,1,.08.21.3.3,0,0,1-.08.21.36.36,0,0,1-.24.08.31.31,0,0,1-.22-.08.26.26,0,0,1-.09-.21.29.29,0,0,1,.09-.21A.27.27,0,0,1,199.15,150Z"/><path class="cls-14" d="M157.43,158.32c.26-.08.39-.31.39-.68v-.46a.69.69,0,0,1,.4-.69.73.73,0,0,1-.4-.71v-.45c0-.38-.13-.6-.39-.69l.1-.31a1.13,1.13,0,0,1,.6.37,1,1,0,0,1,.2.66v.44c0,.32.14.49.42.49v.39c-.28,0-.42.17-.42.5v.43a1,1,0,0,1-.8,1Z"/><path class="cls-14" d="M160.35,157.89a1.11,1.11,0,0,1-.82-.32,1.17,1.17,0,0,1-.31-.85v-.07a1.47,1.47,0,0,1,.13-.64,1,1,0,0,1,.39-.43,1,1,0,0,1,.55-.16.91.91,0,0,1,.75.31,1.3,1.3,0,0,1,.27.88v.21h-1.56a.76.76,0,0,0,.2.47.6.6,0,0,0,.43.17.71.71,0,0,0,.6-.3l.29.28a1,1,0,0,1-.38.33A1.19,1.19,0,0,1,160.35,157.89Zm-.06-2a.46.46,0,0,0-.36.15.89.89,0,0,0-.17.43h1v0a.64.64,0,0,0-.14-.4A.47.47,0,0,0,160.29,155.85Z"/><path class="cls-14" d="M162.44,157.84h-.53v-3.37h.53Z"/><path class="cls-14" d="M164.51,157.2a.24.24,0,0,0-.12-.22,1.34,1.34,0,0,0-.39-.13,2,2,0,0,1-.45-.15.6.6,0,0,1-.4-.56.62.62,0,0,1,.26-.51,1,1,0,0,1,.65-.21,1.05,1.05,0,0,1,.69.21.67.67,0,0,1,.27.55h-.54a.36.36,0,0,0-.11-.26.5.5,0,0,0-.31-.1.49.49,0,0,0-.28.08.25.25,0,0,0-.11.22.21.21,0,0,0,.1.19,1.41,1.41,0,0,0,.42.14,2.34,2.34,0,0,1,.49.16.78.78,0,0,1,.27.23.58.58,0,0,1,.08.33.61.61,0,0,1-.26.52,1.16,1.16,0,0,1-.7.2,1.24,1.24,0,0,1-.52-.11.94.94,0,0,1-.36-.29.7.7,0,0,1-.12-.4h.52a.36.36,0,0,0,.14.3.61.61,0,0,0,.35.1.56.56,0,0,0,.32-.08A.28.28,0,0,0,164.51,157.2Z"/><path class="cls-14" d="M166.7,157.89a1.11,1.11,0,0,1-.82-.32,1.18,1.18,0,0,1-.32-.85v-.07a1.47,1.47,0,0,1,.14-.64,1.06,1.06,0,0,1,.38-.43,1,1,0,0,1,.56-.16.93.93,0,0,1,.75.31,1.36,1.36,0,0,1,.26.88v.21H166.1a.66.66,0,0,0,.2.47.58.58,0,0,0,.43.17.74.74,0,0,0,.6-.3l.28.28a.94.94,0,0,1-.38.33A1.15,1.15,0,0,1,166.7,157.89Zm-.06-2a.46.46,0,0,0-.36.15.8.8,0,0,0-.17.43h1v0a.64.64,0,0,0-.15-.4A.44.44,0,0,0,166.64,155.85Z"/><path class="cls-14" d="M170.56,158.63a1,1,0,0,1-.79-1v-.46c0-.33-.15-.5-.43-.5v-.39c.28,0,.43-.17.43-.5v-.46a1,1,0,0,1,.2-.64,1.19,1.19,0,0,1,.59-.36l.1.31c-.25.08-.38.31-.39.67v.48a.71.71,0,0,1-.38.69.74.74,0,0,1,.38.7v.47c0,.37.14.59.39.67Z"/><path class="cls-14" d="M158,162.68a.3.3,0,0,1,.23.09.29.29,0,0,1,.08.21.32.32,0,0,1-.08.21.34.34,0,0,1-.23.08.32.32,0,0,1-.23-.08.28.28,0,0,1-.08-.21.25.25,0,0,1,.08-.21A.29.29,0,0,1,158,162.68Z"/><path class="cls-14" d="M159.39,162.68a.3.3,0,0,1,.23.09.29.29,0,0,1,.08.21.32.32,0,0,1-.08.21.37.37,0,0,1-.46,0,.28.28,0,0,1-.08-.21.25.25,0,0,1,.08-.21A.29.29,0,0,1,159.39,162.68Z"/><path class="cls-14" d="M160.8,162.68a.32.32,0,0,1,.23.09.29.29,0,0,1,.08.21.32.32,0,0,1-.08.21.36.36,0,0,1-.23.08.32.32,0,0,1-.23-.08.28.28,0,0,1-.08-.21.25.25,0,0,1,.08-.21A.29.29,0,0,1,160.8,162.68Z"/><path class="cls-14" d="M157.43,169.12c.26-.08.39-.31.39-.68V168a.69.69,0,0,1,.4-.69.73.73,0,0,1-.4-.71v-.45q0-.57-.39-.69l.1-.31a1.13,1.13,0,0,1,.6.37,1,1,0,0,1,.2.66v.44c0,.32.14.49.42.49v.39c-.28,0-.42.17-.42.5v.43a1,1,0,0,1-.8,1Z"/><path class="cls-8" d="M126.52,153.53h-.65v-3.14l-1,.33v-.55l1.53-.56h.08Z"/><path class="cls-8" d="M130.43,151.89a2.07,2.07,0,0,1-.32,1.27,1.13,1.13,0,0,1-1,.43,1.12,1.12,0,0,1-1-.42,2.11,2.11,0,0,1-.33-1.24v-.68a2.09,2.09,0,0,1,.32-1.26,1.12,1.12,0,0,1,1-.42,1.14,1.14,0,0,1,1,.41,2,2,0,0,1,.32,1.23Zm-.65-.73a1.66,1.66,0,0,0-.15-.81.58.58,0,0,0-.95,0,1.62,1.62,0,0,0-.16.76V152a1.73,1.73,0,0,0,.15.82.58.58,0,0,0,1,0,1.69,1.69,0,0,0,.16-.78Z"/><path class="cls-8" d="M132.77,153.53h-.64v-3.14l-1,.33v-.55l1.52-.56h.08Z"/><path class="cls-8" d="M136.68,151.89a2.15,2.15,0,0,1-.31,1.27,1.3,1.3,0,0,1-1.92,0,2.11,2.11,0,0,1-.33-1.24v-.68a2.09,2.09,0,0,1,.32-1.26,1.12,1.12,0,0,1,1-.42,1.14,1.14,0,0,1,1,.41,2,2,0,0,1,.32,1.23Zm-.65-.73a1.66,1.66,0,0,0-.15-.81.58.58,0,0,0-.95,0,1.62,1.62,0,0,0-.16.76V152a1.6,1.6,0,0,0,.16.82.57.57,0,0,0,.94,0A1.69,1.69,0,0,0,136,152Z"/><path class="cls-8" d="M139,153.53h-.65v-3.14l-1,.33v-.55l1.52-.56H139Z"/><path class="cls-8" d="M142.93,151.89a2.15,2.15,0,0,1-.31,1.27,1.13,1.13,0,0,1-1,.43,1.15,1.15,0,0,1-1-.42,2,2,0,0,1-.32-1.24v-.68a2.09,2.09,0,0,1,.31-1.26,1.12,1.12,0,0,1,1-.42,1.14,1.14,0,0,1,1,.41,2,2,0,0,1,.32,1.23Zm-.65-.73a1.66,1.66,0,0,0-.15-.81.58.58,0,0,0-.95,0,1.62,1.62,0,0,0-.16.76V152a1.72,1.72,0,0,0,.16.82.57.57,0,0,0,.94,0,1.57,1.57,0,0,0,.16-.78Z"/><path class="cls-8" d="M145.28,153.53h-.65v-3.14l-1,.33v-.55l1.53-.56h.08Z"/><path class="cls-8" d="M149.19,151.89a2.14,2.14,0,0,1-.32,1.27,1.13,1.13,0,0,1-1,.43,1.12,1.12,0,0,1-.95-.42,2,2,0,0,1-.33-1.24v-.68a2.09,2.09,0,0,1,.31-1.26,1.32,1.32,0,0,1,1.92,0,2.05,2.05,0,0,1,.33,1.23Zm-.66-.73a1.66,1.66,0,0,0-.15-.81.51.51,0,0,0-.47-.26.53.53,0,0,0-.48.24,1.64,1.64,0,0,0-.15.76V152a1.73,1.73,0,0,0,.15.82.5.5,0,0,0,.48.26.53.53,0,0,0,.47-.24,1.58,1.58,0,0,0,.15-.78Z"/><path class="cls-8" d="M151.53,153.53h-.65v-3.14l-1,.33v-.55l1.53-.56h.08Z"/><path class="cls-21" d="M349.55,90.57a.54.54,0,0,1-.56.52H333.45a.54.54,0,0,1-.57-.52V69.7a.55.55,0,0,1,.57-.53H349a.55.55,0,0,1,.56.53Z"/><path class="cls-19" d="M349.55,90.57a.54.54,0,0,1-.56.52H333.45a.54.54,0,0,1-.57-.52V69.7a.55.55,0,0,1,.57-.53H349a.55.55,0,0,1,.56.53Z"/><g class="cls-27"><rect class="cls-8" x="334.57" y="73.44" width="3.88" height="1.96"/></g><g class="cls-27"><rect class="cls-8" x="334.57" y="76.26" width="3.88" height="1.96"/></g><g class="cls-27"><rect class="cls-8" x="334.57" y="79.08" width="3.88" height="1.96"/></g><g class="cls-27"><rect class="cls-8" x="334.57" y="81.9" width="3.88" height="1.96"/></g><g class="cls-27"><rect class="cls-8" x="334.57" y="84.72" width="3.88" height="1.96"/></g><rect class="cls-8" x="339.57" y="73.44" width="3.88" height="1.96"/><rect class="cls-8" x="339.57" y="76.26" width="3.88" height="1.96"/><rect class="cls-8" x="339.57" y="79.08" width="3.88" height="1.96"/><rect class="cls-8" x="339.57" y="81.9" width="3.88" height="1.96"/><rect class="cls-8" x="339.57" y="84.72" width="3.88" height="1.96"/><g class="cls-27"><rect class="cls-8" x="344.58" y="73.44" width="3.88" height="1.96"/></g><g class="cls-27"><rect class="cls-8" x="344.58" y="76.26" width="3.88" height="1.96"/></g><g class="cls-27"><rect class="cls-8" x="344.58" y="79.08" width="3.88" height="1.96"/></g><g class="cls-27"><rect class="cls-8" x="344.58" y="81.9" width="3.88" height="1.96"/></g><g class="cls-27"><rect class="cls-8" x="344.58" y="84.72" width="3.88" height="1.96"/></g><path class="cls-9" d="M348.3,83.71V81.09H344a.26.26,0,0,1-.26-.26V78.31a.26.26,0,0,1,.26-.26h4.3V75.42c0-.13.1-.18.21-.09l5.28,4.08a.19.19,0,0,1,0,.31l-5.27,4.09c-.11.08-.21,0-.21-.1"/><path class="cls-8" d="M128.59,157.65a3.43,3.43,0,0,1-.52,2.08,1.8,1.8,0,0,1-1.57.7,1.83,1.83,0,0,1-1.56-.68,3.35,3.35,0,0,1-.54-2v-1.11a3.4,3.4,0,0,1,.52-2.07,2.15,2.15,0,0,1,3.14,0,3.37,3.37,0,0,1,.53,2Zm-1.07-1.19a2.77,2.77,0,0,0-.24-1.32,1,1,0,0,0-1.56,0,2.48,2.48,0,0,0-.25,1.24v1.46a2.73,2.73,0,0,0,.25,1.33.83.83,0,0,0,.78.44.81.81,0,0,0,.76-.41,2.54,2.54,0,0,0,.26-1.27Z"/><path class="cls-8" d="M133.07,160.35H132v-5.14l-1.57.53v-.9l2.5-.92h.13Z"/><path class="cls-8" d="M140.12,157.65a3.5,3.5,0,0,1-.52,2.08,2.12,2.12,0,0,1-3.13,0,3.35,3.35,0,0,1-.54-2v-1.11a3.47,3.47,0,0,1,.51-2.07,2.16,2.16,0,0,1,3.15,0,3.37,3.37,0,0,1,.53,2Zm-1.07-1.19a2.63,2.63,0,0,0-.25-1.32.83.83,0,0,0-.78-.42.84.84,0,0,0-.77.39,2.58,2.58,0,0,0-.26,1.24v1.46a2.73,2.73,0,0,0,.25,1.33.85.85,0,0,0,.79.44.82.82,0,0,0,.76-.41,2.65,2.65,0,0,0,.26-1.27Z"/><path class="cls-8" d="M144.6,160.35h-1.06v-5.14l-1.57.53v-.9l2.49-.92h.14Z"/><path class="cls-8" d="M151.64,157.65a3.5,3.5,0,0,1-.51,2.08,2.13,2.13,0,0,1-3.14,0,3.35,3.35,0,0,1-.54-2v-1.11a3.47,3.47,0,0,1,.52-2.07,2.15,2.15,0,0,1,3.14,0,3.3,3.3,0,0,1,.53,2Zm-1.07-1.19a2.77,2.77,0,0,0-.24-1.32.85.85,0,0,0-.78-.42.84.84,0,0,0-.77.39,2.46,2.46,0,0,0-.26,1.24v1.46a2.73,2.73,0,0,0,.25,1.33.84.84,0,0,0,.78.44.8.8,0,0,0,.76-.41,2.54,2.54,0,0,0,.26-1.27Z"/><path class="cls-8" d="M126.37,164.57h-.65v-3.14l-1,.33v-.55l1.53-.56h.08Z"/><path class="cls-8" d="M130.28,162.93a2.14,2.14,0,0,1-.32,1.27,1.13,1.13,0,0,1-1,.43,1.12,1.12,0,0,1-.95-.42,2,2,0,0,1-.33-1.24v-.67A2.1,2.1,0,0,1,128,161a1.32,1.32,0,0,1,1.92,0,2.05,2.05,0,0,1,.33,1.23Zm-.66-.73a1.66,1.66,0,0,0-.15-.81.51.51,0,0,0-.47-.26.5.5,0,0,0-.47.25,1.46,1.46,0,0,0-.16.76V163a1.73,1.73,0,0,0,.15.82.51.51,0,0,0,.48.27.53.53,0,0,0,.47-.25,1.58,1.58,0,0,0,.15-.78Z"/><path class="cls-8" d="M132.62,164.57H132v-3.14l-1,.33v-.55l1.53-.56h.08Z"/><path class="cls-8" d="M136.53,162.93a2.14,2.14,0,0,1-.32,1.27,1.13,1.13,0,0,1-1,.43,1.12,1.12,0,0,1-.95-.42A2,2,0,0,1,134,163v-.67a2,2,0,0,1,.32-1.27,1.12,1.12,0,0,1,1-.42,1.14,1.14,0,0,1,1,.41,2.06,2.06,0,0,1,.32,1.23Zm-.65-.73a1.66,1.66,0,0,0-.15-.81.52.52,0,0,0-.48-.26.51.51,0,0,0-.47.25,1.56,1.56,0,0,0-.16.76V163a1.73,1.73,0,0,0,.15.82.56.56,0,0,0,.95,0,1.69,1.69,0,0,0,.16-.78Z"/><path class="cls-8" d="M138.87,164.57h-.65v-3.14l-1,.33v-.55l1.53-.56h.08Z"/><path class="cls-8" d="M142.78,162.93a2.15,2.15,0,0,1-.31,1.27,1.14,1.14,0,0,1-1,.43,1.12,1.12,0,0,1-1-.42,2.11,2.11,0,0,1-.33-1.24v-.67a2.1,2.1,0,0,1,.32-1.27,1.12,1.12,0,0,1,1-.42,1.14,1.14,0,0,1,1,.41,2,2,0,0,1,.32,1.23Zm-.65-.73a1.66,1.66,0,0,0-.15-.81.52.52,0,0,0-.48-.26.51.51,0,0,0-.47.25,1.56,1.56,0,0,0-.16.76V163a1.73,1.73,0,0,0,.15.82.53.53,0,0,0,.49.27.51.51,0,0,0,.46-.25,1.69,1.69,0,0,0,.16-.78Z"/><path class="cls-8" d="M145.13,164.57h-.65v-3.14l-1,.33v-.55l1.52-.56h.09Z"/><path class="cls-8" d="M149,162.93a2.15,2.15,0,0,1-.31,1.27,1.13,1.13,0,0,1-1,.43,1.15,1.15,0,0,1-1-.42,2.11,2.11,0,0,1-.33-1.24v-.67a2.1,2.1,0,0,1,.32-1.27,1.12,1.12,0,0,1,1-.42,1.14,1.14,0,0,1,1,.41,2,2,0,0,1,.32,1.23Zm-.65-.73a1.66,1.66,0,0,0-.15-.81.52.52,0,0,0-.48-.26.51.51,0,0,0-.47.25,1.56,1.56,0,0,0-.16.76V163a1.6,1.6,0,0,0,.16.82.56.56,0,0,0,.94,0,1.57,1.57,0,0,0,.16-.78Z"/><path class="cls-8" d="M151.38,164.57h-.65v-3.14l-1,.33v-.55l1.52-.56h.09Z"/><path class="cls-8" d="M126.52,169.53h-.65v-3.14l-1,.33v-.55l1.53-.56h.08Z"/><path class="cls-8" d="M130.43,167.89a2.07,2.07,0,0,1-.32,1.27,1.13,1.13,0,0,1-1,.43,1.12,1.12,0,0,1-1-.42,2.11,2.11,0,0,1-.33-1.24v-.68a2.09,2.09,0,0,1,.32-1.26,1.12,1.12,0,0,1,1-.42,1.14,1.14,0,0,1,1,.41,2,2,0,0,1,.32,1.23Zm-.65-.73a1.66,1.66,0,0,0-.15-.81.58.58,0,0,0-.95,0,1.62,1.62,0,0,0-.16.76V168a1.73,1.73,0,0,0,.15.82.58.58,0,0,0,1,0,1.69,1.69,0,0,0,.16-.78Z"/><path class="cls-8" d="M132.77,169.53h-.64v-3.14l-1,.33v-.55l1.52-.56h.08Z"/><path class="cls-8" d="M136.68,167.89a2.15,2.15,0,0,1-.31,1.27,1.3,1.3,0,0,1-1.92,0,2.11,2.11,0,0,1-.33-1.24v-.68a2.09,2.09,0,0,1,.32-1.26,1.12,1.12,0,0,1,1-.42,1.14,1.14,0,0,1,1,.41,2,2,0,0,1,.32,1.23Zm-.65-.73a1.66,1.66,0,0,0-.15-.81.58.58,0,0,0-.95,0,1.62,1.62,0,0,0-.16.76V168a1.6,1.6,0,0,0,.16.82.57.57,0,0,0,.94,0A1.69,1.69,0,0,0,136,168Z"/><path class="cls-8" d="M139,169.53h-.65v-3.14l-1,.33v-.55l1.52-.56H139Z"/><path class="cls-8" d="M142.93,167.89a2.15,2.15,0,0,1-.31,1.27,1.13,1.13,0,0,1-1,.43,1.15,1.15,0,0,1-1-.42,2,2,0,0,1-.32-1.24v-.68a2.09,2.09,0,0,1,.31-1.26,1.12,1.12,0,0,1,1-.42,1.14,1.14,0,0,1,1,.41,2,2,0,0,1,.32,1.23Zm-.65-.73a1.66,1.66,0,0,0-.15-.81.58.58,0,0,0-.95,0,1.62,1.62,0,0,0-.16.76V168a1.72,1.72,0,0,0,.16.82.57.57,0,0,0,.94,0,1.57,1.57,0,0,0,.16-.78Z"/><path class="cls-8" d="M145.28,169.53h-.65v-3.14l-1,.33v-.55l1.53-.56h.08Z"/><path class="cls-8" d="M149.19,167.89a2.14,2.14,0,0,1-.32,1.27,1.13,1.13,0,0,1-1,.43,1.12,1.12,0,0,1-.95-.42,2,2,0,0,1-.33-1.24v-.68a2.09,2.09,0,0,1,.31-1.26,1.32,1.32,0,0,1,1.92,0,2.05,2.05,0,0,1,.33,1.23Zm-.66-.73a1.66,1.66,0,0,0-.15-.81.51.51,0,0,0-.47-.26.53.53,0,0,0-.48.24,1.64,1.64,0,0,0-.15.76V168a1.73,1.73,0,0,0,.15.82.5.5,0,0,0,.48.26.53.53,0,0,0,.47-.24,1.58,1.58,0,0,0,.15-.78Z"/><path class="cls-8" d="M151.53,169.53h-.65v-3.14l-1,.33v-.55l1.53-.56h.08Z"/><line class="cls-23" x1="237" y1="123.18" x2="237" y2="97.68"/><path class="cls-9" d="M238.82,95.6A1.82,1.82,0,1,1,237,93.79,1.82,1.82,0,0,1,238.82,95.6Z"/><circle class="cls-6" cx="237" cy="73.32" r="18.6" transform="translate(78.57 264.22) rotate(-67.5)"/><path class="cls-19" d="M246.47,85.18a.62.62,0,0,1-.64.59H228.18a.63.63,0,0,1-.65-.59V61.46a.63.63,0,0,1,.65-.59h17.65a.62.62,0,0,1,.64.59Z"/><path class="cls-9" d="M234.84,70.63a.52.52,0,0,1,.18-.41.69.69,0,0,1,.46-.16.7.7,0,0,1,.47.16.52.52,0,0,1,.18.41.5.5,0,0,1-.18.4.65.65,0,0,1-.47.16A.65.65,0,0,1,235,71,.5.5,0,0,1,234.84,70.63Zm1.23,4.68h-1.16V71.59h1.16Z"/><path class="cls-9" d="M236.84,75.31v-5h1.62a2.36,2.36,0,0,1,1.19.3,2.19,2.19,0,0,1,.83.85,2.54,2.54,0,0,1,.3,1.23v.24a2.63,2.63,0,0,1-.29,1.23,2.1,2.1,0,0,1-.82.85,2.26,2.26,0,0,1-1.18.31Zm1.21-4.08v3.16h.42a1,1,0,0,0,.8-.37,1.88,1.88,0,0,0,.28-1.1V72.7a1.85,1.85,0,0,0-.28-1.1,1,1,0,0,0-.81-.37Z"/><polyline class="cls-28" points="238.97 67.88 242.66 67.88 242.66 70.38 242.66 71.07"/><polyline class="cls-28" points="232.34 71.57 232.34 67.88 234.84 67.88 235.53 67.88"/><polyline class="cls-28" points="236.04 77.83 232.34 77.83 232.34 75.33 232.34 74.64"/><polyline class="cls-28" points="242.66 74.14 242.66 77.83 240.17 77.83 239.48 77.83"/></svg>