<svg id="Layer_1" data-name="Layer 1" xmlns="http://www.w3.org/2000/svg" xmlns:xlink="http://www.w3.org/1999/xlink" viewBox="0 0 408.83 262.75"><defs><style>.cls-1,.cls-12,.cls-13,.cls-2,.cls-21,.cls-22,.cls-26,.cls-30{fill:none;}.cls-12,.cls-13,.cls-15,.cls-2,.cls-21,.cls-22,.cls-25,.cls-26,.cls-5{stroke:#323e50;}.cls-12,.cls-13,.cls-15,.cls-2,.cls-21,.cls-22,.cls-25,.cls-26,.cls-30,.cls-5{stroke-miterlimit:10;}.cls-15,.cls-2,.cls-21,.cls-5{stroke-width:0.87px;}.cls-3{fill:#2474ad;}.cls-4{fill:#f8bc9b;}.cls-5,.cls-7{fill:#323e50;}.cls-6{fill:#c8cbcf;}.cls-8{fill:#526277;}.cls-9{fill:#f3b592;}.cls-10{fill:#1d1d1b;}.cls-11{fill:#f8ba98;}.cls-12{stroke-width:2.6px;}.cls-13{stroke-width:1.74px;}.cls-14{fill:#39485d;}.cls-15,.cls-19,.cls-25{fill:#f3f6f7;}.cls-16{fill:#36a9e1;}.cls-17{fill:#2b7cc0;}.cls-18{fill:#fff;}.cls-20{fill:#e24030;}.cls-21{stroke-dasharray:1.74;}.cls-22{stroke-width:0.94px;}.cls-23{fill:#9eaaaa;}.cls-24{fill:#879191;}.cls-27{clip-path:url(#clip-path);}.cls-28{fill:#d14c16;}.cls-29{fill:#2cb195;}.cls-30{stroke:#c8cbcf;stroke-width:0.3px;}.cls-31{fill:#45a9e0;}.cls-32{fill:#13110c;}.cls-33{fill:#383f51;}.cls-34{fill:#333f51;}.cls-35{fill:#37a9e1;}.cls-36{fill:#3a485e;}.cls-37{fill:#e04231;}</style><clipPath id="clip-path"><rect class="cls-1" x="55" y="116.57" width="82.38" height="50.16" rx="1"/></clipPath></defs><line class="cls-2" x1="271.08" y1="186.76" x2="380.19" y2="186.76"/><path class="cls-3" d="M264.88,148.23c-4.81,1-15.62,1.44-19.22,4.18-1.21.92-1.28,4.16-.26,5.28,4.29,4.71,23.76-1.22,29-4.84,2.89-2,5.33-9.43,5.33-9.43S268.71,147.45,264.88,148.23Z"/><path class="cls-4" d="M277,145s2.27-1.68,3.12-1.52c2,.37,5.68,3.94,5.5,6-.09,1.07-2.87,3.17-2.87,3.17l-7.06-1.51Z"/><line class="cls-2" x1="27.42" y1="187.13" x2="200.44" y2="187.13"/><rect class="cls-5" x="240.4" y="200.85" width="4.81" height="41.59" rx="1"/><rect class="cls-5" x="218.31" y="130.82" width="4.81" height="69.08" rx="1"/><path class="cls-6" d="M273.76,232.69v10.69s7.43,6.84,7.43,0v-6.83Z"/><path class="cls-7" d="M273.18,242.58a37.53,37.53,0,0,0-2.09,5.94c-.17,1.46,17.32,1.15,20.56-.62,1.78-1-1.26-3.33-3.14-4.16C284.18,241.82,273.18,242.58,273.18,242.58Z"/><path class="cls-8" d="M235.69,182.4c-2.42,1.21-2.13,9.59,0,11.29,7.8,6.24,36.79-1,39.13,0,3.24,1.4-2,42-2,42l10.1.85s8.69-31.94,4.15-52.09C285.66,178.22,244,178.25,235.69,182.4Z"/><path class="cls-9" d="M246.09,130.31v-8.92a56,56,0,0,1-4.14-5.54,72.37,72.37,0,0,1-2.77-8.32l23-8.12.79,1s1.51,13.92,0,18.22c-.63,1.8-2.89,5.58-4.75,5.94-.9.17-3.54.38-3.54.38l-1,11.11Z"/><path class="cls-10" d="M243.77,118.82c-1.73.53-3.59-4.29-4-6.06a28.08,28.08,0,0,1,0-9.59c.71-2.7,1.35-8.94,13.47-8.91,2.82,0,9.74,2,9.74,7.49,0,1.76-4.06,2.37-5.58,2.55-1.89.23-5.74.59-7.53,1.25-1.35.49-3.65,3.71-4.39,5C244.18,112.72,246.25,118.06,243.77,118.82Z"/><path class="cls-11" d="M246.71,111.69c0,1.42-.71,2.57-1.59,2.57s-1.58-1.15-1.58-2.57.71-2.58,1.58-2.58S246.71,110.26,246.71,111.69Z"/><path class="cls-6" d="M278.1,233.77v10.69s7.43,6.84,7.43,0v-6.83Z"/><path class="cls-7" d="M277.44,244.53a38.19,38.19,0,0,0-2,5.94c-.16,1.45,16.67,1.15,19.78-.63,1.72-1-1.21-3.32-3-4.16C288,243.76,277.44,244.53,277.44,244.53Z"/><rect class="cls-5" x="218.82" y="198" width="50.75" height="5.68" rx="1"/><line class="cls-12" x1="261.18" y1="247.38" x2="242.53" y2="242.07"/><line class="cls-12" x1="226.55" y1="247.38" x2="242.53" y2="242.07"/><path class="cls-7" d="M258.93,248.72a3.12,3.12,0,1,0,3.12-3.13A3.12,3.12,0,0,0,258.93,248.72Z"/><path class="cls-7" d="M221.7,248.72a3.12,3.12,0,1,0,3.12-3.13A3.12,3.12,0,0,0,221.7,248.72Z"/><line class="cls-13" x1="242.8" y1="240.63" x2="242.8" y2="253.08"/><path class="cls-7" d="M239.68,254.51a3.12,3.12,0,1,0,3.12-3.12A3.13,3.13,0,0,0,239.68,254.51Z"/><path class="cls-14" d="M235.78,182.4c-2.55,1.21-2.25,9.59,0,11.29,8.23,6.24,38.83-1,41.3,0,3.42,1.4-1.65,42-1.65,42l10.1,1.93s9.27-33,4.47-53.17C288.52,178.22,244.57,178.25,235.78,182.4Z"/><path class="cls-15" d="M154.88,128.3H183a2,2,0,0,1,2,2v54.35a0,0,0,0,1,0,0H152.88a0,0,0,0,1,0,0V130.3A2,2,0,0,1,154.88,128.3Z"/><rect class="cls-6" x="159.04" y="135.86" width="19.75" height="3.88" rx="1"/><rect class="cls-6" x="159.04" y="143.03" width="19.75" height="3.88" rx="1"/><path class="cls-16" d="M171.23,171a2.31,2.31,0,1,1-2.31-2.31A2.31,2.31,0,0,1,171.23,171Z"/><polygon class="cls-15" points="351.86 184.92 347.72 184.91 347.72 153.49 347.81 131.8 351.86 184.92"/><polygon class="cls-15" points="343.65 180.55 337.4 180.55 349.73 120.07 354.8 120.07 343.65 180.55"/><polygon class="cls-2" points="320.78 176.41 313.01 176.41 299.83 179.96 299.83 185.03 320.78 185.03 320.78 176.41"/><path class="cls-15" d="M254.94,123.79a4.25,4.25,0,0,0-2.81,1.08s-6.09-3.45-7.5-5.25a2.91,2.91,0,0,1-.43-1.9c.28-.9,2.27-2.18,2.12-3.11-.21-1.37-3-3.62-4.37-3.39-.84.14-2.11,1.61-2.41,2.4-.84,2.26,1.38,6.19,2.69,7.77,1.71,2.07,8.47,6.64,8.47,6.64a4.24,4.24,0,1,0,4.24-4.24Z"/><path class="cls-2" d="M259.17,131.38c0,1.1,0,2.2,0,3.3,0-1.13,4.3.52,4.75,1,2,2.07,2.05,5.65,5.34,5.32,1-.09,2-.58,2.85,0,1.64,1,1.55,4.71,3.09,6,1.08.91,2.59.29,3.61,1.33s1.11,3.38,2.14,4.47,2.41.57,3.42,1.49c1.19,1.06,1.37,3.56,2.54,4.68,1.33,1.28,3.21.12,4.73.88,2.13,1.06,2.51,5.09,4.06,7.4,1.45,2.15,3.65,2.5,5.24,4.3s2.21,5,4.64,5.06c3,.07,3.58,2.46,4.7,5.8"/><path class="cls-17" d="M243.41,125.1l-5.11,12.48s-1.66,11-2.38,18.33c-.42,4.27-1.94,27.44-1.94,27.44s18.4,2.25,21-3.85c1-2.31.32-11.68-.22-14.14-1.37-6.24,2.91-23.42.44-29.31C253.35,131.56,243.41,125.1,243.41,125.1Z"/><path class="cls-3" d="M237.37,135.45c-2.71,4.1-10,12.06-10.64,16.55-.2,1.5,2,3.84,3.55,3.91,6.36.3,15.94-17.66,17.08-23.93.63-3.46-2.9-10.43-2.9-10.43S239.52,132.19,237.37,135.45Z"/><path class="cls-4" d="M243.65,124.54s.41-2.79,1.12-3.28c1.68-1.14,6.81-1.23,8.11.33.69.82.21,4.27.21,4.27L247,129.78Z"/><path class="cls-18" d="M112.31,54.06a.58.58,0,0,1-.6.55H95.44a.58.58,0,0,1-.6-.55V32.2a.57.57,0,0,1,.6-.55h16.27a.57.57,0,0,1,.6.55Z"/><path class="cls-6" d="M111.71,54.82H95.44a.78.78,0,0,1-.81-.76V32.2a.78.78,0,0,1,.81-.76h16.27a.78.78,0,0,1,.81.76V54.06A.78.78,0,0,1,111.71,54.82Zm-16.27-23a.36.36,0,0,0-.39.34V54.06a.36.36,0,0,0,.39.33h16.27a.36.36,0,0,0,.38-.33V32.2a.36.36,0,0,0-.38-.34Z"/><path class="cls-19" d="M112.31,54.06a.58.58,0,0,1-.6.55H95.44a.58.58,0,0,1-.6-.55V32.2a.57.57,0,0,1,.6-.55h16.27a.57.57,0,0,1,.6.55Z"/><path class="cls-20" d="M110.91,51.29a1.55,1.55,0,1,1-1.55-1.55A1.55,1.55,0,0,1,110.91,51.29Z"/><path class="cls-20" d="M109.36,53.56a2.28,2.28,0,1,1,2.28-2.27A2.27,2.27,0,0,1,109.36,53.56Zm0-4.12a1.85,1.85,0,1,0,1.85,1.85A1.85,1.85,0,0,0,109.36,49.44Z"/><rect class="cls-6" x="97.68" y="37.48" width="11.39" height="1.7"/><rect class="cls-6" x="97.68" y="40.54" width="8.81" height="1.7"/><rect class="cls-6" x="97.68" y="43.61" width="5.23" height="1.7"/><rect class="cls-6" x="104.69" y="43.53" width="5.22" height="1.7"/><rect class="cls-6" x="97.68" y="46.67" width="8.81" height="1.7"/><rect class="cls-16" x="97.68" y="34.85" width="8.17" height="1.35"/><circle class="cls-2" cx="103.88" cy="40.1" r="31.43" transform="translate(2.07 85.2) rotate(-45)"/><line class="cls-21" x1="103.57" y1="110.32" x2="103.57" y2="73.38"/><path class="cls-14" d="M307.18,58.83c1.7.52,3.56,1.15,3.54,3.42,0,1.85-1.43,3.06-3.54,3.31V67.9h-1.46V65.57a7,7,0,0,1-4.13-1.81l.85-1.69a6.38,6.38,0,0,0,3.28,1.64V60.39c-1.66-.5-3.45-1.11-3.45-3.32,0-1.78,1.36-3,3.45-3.19V51.69h1.46v2.18A7.25,7.25,0,0,1,310.57,55l-.81,1.72a7.59,7.59,0,0,0-2.58-1Zm-1.46-.5v-2.6c-.78.13-1.26.53-1.26,1.16S305,58,305.72,58.33Zm1.46,5.37c.87-.19,1.37-.65,1.37-1.35s-.57-1.19-1.37-1.51Z"/><circle class="cls-16" cx="103.57" cy="74.25" r="1.83"/><circle class="cls-22" cx="306.34" cy="41.9" r="28.21"/><polyline class="cls-21" points="352.59 118.23 352.59 104.36 306.8 104.36 306.8 78.13"/><circle class="cls-16" cx="306.8" cy="76.3" r="1.83"/><path class="cls-14" d="M295.35,57.94v1.71h-8.58V57.94h1.48v-3.6h-1.48v-1.5h1.48V51c0-2.53,1.37-4,3.8-4a4.66,4.66,0,0,1,3.53,1.61l-.84,1.64A3.3,3.3,0,0,0,292.26,49c-1.23,0-1.91.72-1.91,2.12v1.75h3.14v1.5h-3.14v3.6Z"/><path class="cls-14" d="M327.81,57.41a6.91,6.91,0,0,1-4.76,2A6.28,6.28,0,0,1,317,55.21h-1.91V54.09h1.65a5.53,5.53,0,0,1-.07-.92,5.74,5.74,0,0,1,.07-.93h-1.65V51.12H317A6.34,6.34,0,0,1,323.14,47a6.67,6.67,0,0,1,4.65,1.9L326.6,50.4a4.86,4.86,0,0,0-3.44-1.56,4.36,4.36,0,0,0-3.88,2.28h4.4v1.12h-4.82a4.63,4.63,0,0,0-.09.92,4.14,4.14,0,0,0,.1.93h4.81v1.12h-4.4a4.36,4.36,0,0,0,3.88,2.28A5.17,5.17,0,0,0,326.6,56Z"/><path class="cls-18" d="M93.11,52.61a.47.47,0,0,1-.49.45H79.21a.47.47,0,0,1-.49-.45v-18a.48.48,0,0,1,.49-.45H92.62a.48.48,0,0,1,.49.45Z"/><path class="cls-19" d="M93.11,52.61a.47.47,0,0,1-.49.45H79.21a.47.47,0,0,1-.49-.45v-18a.48.48,0,0,1,.49-.45H92.62a.48.48,0,0,1,.49.45Z"/><path class="cls-20" d="M92,50.33a1.28,1.28,0,1,1-1.28-1.28A1.27,1.27,0,0,1,92,50.33Z"/><path class="cls-20" d="M90.68,52.16a1.84,1.84,0,1,1,1.84-1.83A1.84,1.84,0,0,1,90.68,52.16Zm0-3.39a1.56,1.56,0,1,0,1.56,1.56A1.56,1.56,0,0,0,90.68,48.77Z"/><rect class="cls-6" x="81.06" y="39.1" width="9.38" height="1.11"/><rect class="cls-6" x="81.06" y="41.62" width="4.3" height="1.11"/><rect class="cls-6" x="81.06" y="44.15" width="4.3" height="1.11"/><rect class="cls-6" x="81.06" y="46.67" width="7.26" height="1.11"/><rect class="cls-23" x="81.06" y="36.79" width="6.72" height="1.11"/><path class="cls-19" d="M128.68,52.61a.47.47,0,0,1-.49.45h-13.4a.47.47,0,0,1-.49-.45v-18a.48.48,0,0,1,.49-.45h13.4a.48.48,0,0,1,.49.45Z"/><path class="cls-20" d="M127.53,50.33a1.28,1.28,0,1,1-1.27-1.28A1.27,1.27,0,0,1,127.53,50.33Z"/><path class="cls-20" d="M126.26,52.16a1.84,1.84,0,1,1,1.84-1.83A1.84,1.84,0,0,1,126.26,52.16Zm0-3.39a1.56,1.56,0,1,0,1.56,1.56A1.56,1.56,0,0,0,126.26,48.77Z"/><rect class="cls-6" x="116.64" y="39.1" width="9.38" height="1.11"/><rect class="cls-6" x="116.64" y="41.62" width="7.26" height="1.11"/><rect class="cls-6" x="116.64" y="44.15" width="4.86" height="1.11"/><rect class="cls-6" x="121.46" y="46.67" width="2.58" height="1.11"/><rect class="cls-6" x="116.64" y="46.67" width="3.36" height="1.11"/><rect class="cls-24" x="116.64" y="36.79" width="6.73" height="1.11"/><rect class="cls-7" x="93.88" y="171.85" width="4.79" height="12.58"/><rect class="cls-25" x="50.77" y="112.42" width="91.49" height="63.47" rx="4"/><rect class="cls-18" x="55.3" y="116.34" width="82.16" height="13.29"/><circle class="cls-20" cx="58.05" cy="119.16" r="1.12"/><line class="cls-26" x1="55.3" y1="122.51" x2="137.25" y2="122.51"/><rect class="cls-7" x="86.4" y="184.05" width="19.76" height="1.35"/><path class="cls-24" d="M125.67,127c0,.09-.14.17-.31.17H114.27c-.17,0-.31-.08-.31-.17v-1.67c0-.09.14-.17.31-.17h11.09c.17,0,.31.08.31.17Z"/><path class="cls-16" d="M89.76,126.91a.18.18,0,0,1-.17.17H83.38a.17.17,0,0,1-.17-.17v-1.66a.17.17,0,0,1,.17-.18h6.21a.18.18,0,0,1,.17.18Z"/><rect class="cls-16" x="90.31" y="125.07" width="6.4" height="2" rx="0.17"/><path class="cls-16" d="M102.6,126.91a.16.16,0,0,1-.14.17H97.35a.16.16,0,0,1-.14-.17v-1.66a.16.16,0,0,1,.14-.18h5.11a.16.16,0,0,1,.14.18Z"/><path class="cls-16" d="M109.76,126.91a.18.18,0,0,1-.17.17h-6.26a.18.18,0,0,1-.18-.17v-1.66a.18.18,0,0,1,.18-.18h6.26a.18.18,0,0,1,.17.18Z"/><path class="cls-16" d="M126.24,125.71h.08v.65h.4v.06h-.48Z"/><path class="cls-16" d="M126.77,126.15a.27.27,0,0,1,.54,0,.27.27,0,1,1-.54,0Zm.47,0a.2.2,0,0,0-.2-.21.2.2,0,0,0-.2.21.19.19,0,0,0,.2.21A.2.2,0,0,0,127.24,126.15Z"/><path class="cls-16" d="M128,125.88v.48a.24.24,0,0,1-.27.27.35.35,0,0,1-.25-.09l0-.05a.35.35,0,0,0,.21.07c.14,0,.2-.06.2-.19v-.07a.24.24,0,0,1-.21.1.26.26,0,1,1,0-.52.24.24,0,0,1,.21.11v-.11Zm-.07.26a.19.19,0,0,0-.2-.2.2.2,0,1,0,0,.4A.19.19,0,0,0,127.89,126.14Z"/><path class="cls-16" d="M128.42,125.72a.06.06,0,0,1,.05-.06.05.05,0,0,1,.05,0,.06.06,0,0,1-.05.06A.05.05,0,0,1,128.42,125.72Zm0,.16h.08v.54h-.08Z"/><path class="cls-16" d="M129.2,126.11v.31h-.07v-.3c0-.12-.06-.17-.16-.17a.17.17,0,0,0-.19.19v.28h-.07v-.54h.07v.1a.23.23,0,0,1,.2-.1A.21.21,0,0,1,129.2,126.11Z"/><path class="cls-16" d="M129.62,126.15a.26.26,0,0,1,.27-.27.27.27,0,0,1,.28.27.27.27,0,0,1-.28.28A.27.27,0,0,1,129.62,126.15Zm.47,0a.2.2,0,0,0-.2-.21.2.2,0,0,0-.2.21.2.2,0,0,0,.2.21A.19.19,0,0,0,130.09,126.15Z"/><path class="cls-16" d="M130.59,125.88V126h0c-.11,0-.18.07-.18.2v.27h-.07v-.54h.06V126A.22.22,0,0,1,130.59,125.88Z"/><path class="cls-16" d="M131.5,126.42l-.17-.23h-.24v.22H131v-.71h.27c.18,0,.29.09.29.24a.24.24,0,0,1-.16.23l.17.24Zm0-.47c0-.11-.08-.18-.22-.18h-.19v.36h.19C131.42,126.13,131.5,126.06,131.5,126Z"/><path class="cls-16" d="M132.2,126.18h-.45a.2.2,0,0,0,.22.18.2.2,0,0,0,.16-.07l0,0a.26.26,0,0,1-.21.09.27.27,0,0,1-.28-.28.27.27,0,1,1,.53,0Zm-.45-.06h.39a.2.2,0,0,0-.2-.18A.19.19,0,0,0,131.75,126.12Z"/><path class="cls-16" d="M132.85,125.88v.48a.24.24,0,0,1-.27.27.37.37,0,0,1-.25-.09l0-.05a.35.35,0,0,0,.21.07c.14,0,.2-.06.2-.19v-.07a.23.23,0,0,1-.21.1.26.26,0,1,1,0-.52.24.24,0,0,1,.21.11v-.11Zm-.07.26a.2.2,0,1,0-.2.2A.19.19,0,0,0,132.78,126.14Z"/><path class="cls-16" d="M133,125.72a.06.06,0,0,1,.05-.06.06.06,0,0,1,.06,0,.06.06,0,0,1-.06.06A.06.06,0,0,1,133,125.72Zm0,.16h.07v.54h-.07Z"/><path class="cls-16" d="M133.26,126.36l0-.06a.29.29,0,0,0,.19.06c.1,0,.15,0,.15-.08s-.35,0-.35-.25.07-.15.21-.15a.36.36,0,0,1,.19.05l0,.06a.3.3,0,0,0-.16,0c-.1,0-.14,0-.14.09s.35,0,.35.24-.08.16-.22.16A.34.34,0,0,1,133.26,126.36Z"/><path class="cls-16" d="M134.12,126.39a.16.16,0,0,1-.12,0,.14.14,0,0,1-.15-.16V126h-.1v-.07h.1v-.11h.07v.11h.16V126h-.16v.32a.08.08,0,0,0,.09.09.11.11,0,0,0,.08,0Z"/><path class="cls-16" d="M134.7,126.18h-.45a.19.19,0,0,0,.21.18.22.22,0,0,0,.17-.07l0,0a.27.27,0,0,1-.21.09.27.27,0,0,1-.28-.28.26.26,0,1,1,.52,0Zm-.45-.06h.38a.19.19,0,0,0-.19-.18A.19.19,0,0,0,134.25,126.12Z"/><path class="cls-16" d="M135.12,125.88V126h0c-.11,0-.18.07-.18.2v.27h-.07v-.54h.07V126A.2.2,0,0,1,135.12,125.88Z"/><rect class="cls-7" x="55.3" y="129.63" width="82.16" height="7.93"/><rect class="cls-19" x="55.3" y="137.56" width="82.16" height="28.94"/><rect class="cls-18" x="76.04" y="139.06" width="12.3" height="19.1" rx="1"/><rect class="cls-6" x="77.83" y="145.6" width="8.73" height="1.78"/><rect class="cls-6" x="77.83" y="148.94" width="8.73" height="0.65"/><rect class="cls-6" x="77.83" y="149.96" width="8.73" height="0.65"/><rect class="cls-6" x="77.83" y="150.98" width="8.73" height="0.65"/><path class="cls-18" d="M68.3,133.84v.71H68v-1.91h.74a.72.72,0,0,1,.51.17.6.6,0,0,1,0,.88.79.79,0,0,1-.52.15Zm0-.26h.4a.37.37,0,0,0,.27-.09.3.3,0,0,0,.09-.24A.35.35,0,0,0,69,133a.37.37,0,0,0-.26-.09H68.3Z"/><path class="cls-18" d="M69.58,133.83a.92.92,0,0,1,.08-.38.65.65,0,0,1,.23-.26.68.68,0,0,1,.35-.09.65.65,0,0,1,.47.19.72.72,0,0,1,.19.49v.08a.75.75,0,0,1-.08.37.58.58,0,0,1-.23.26.68.68,0,0,1-.35.09.63.63,0,0,1-.48-.2.76.76,0,0,1-.18-.53Zm.32,0a.57.57,0,0,0,.09.34.31.31,0,0,0,.5,0,.65.65,0,0,0,.09-.37.57.57,0,0,0-.09-.34.29.29,0,0,0-.25-.13.29.29,0,0,0-.25.12A.67.67,0,0,0,69.9,133.86Z"/><path class="cls-18" d="M71.51,134.55h-.32v-2h.32Z"/><path class="cls-18" d="M71.86,132.76a.17.17,0,0,1,0-.12.17.17,0,0,1,.13,0,.22.22,0,0,1,.14,0,.2.2,0,0,1,0,.24.22.22,0,0,1-.14.05.17.17,0,0,1-.13-.05A.17.17,0,0,1,71.86,132.76Zm.34,1.79h-.32v-1.42h.32Z"/><path class="cls-18" d="M73.14,134.33a.32.32,0,0,0,.19-.07.23.23,0,0,0,.09-.18h.3a.46.46,0,0,1-.08.25.62.62,0,0,1-.5.25.58.58,0,0,1-.47-.19.77.77,0,0,1-.18-.54v0a.77.77,0,0,1,.17-.52.63.63,0,0,1,.48-.2.56.56,0,0,1,.41.15.54.54,0,0,1,.17.39h-.3a.25.25,0,0,0-.09-.2.26.26,0,0,0-.19-.08.28.28,0,0,0-.24.11.55.55,0,0,0-.09.34v.06a.61.61,0,0,0,.08.34A.29.29,0,0,0,73.14,134.33Z"/><path class="cls-18" d="M74.46,134.1l.29-1h.34l-.57,1.64a.45.45,0,0,1-.44.36l-.15,0v-.25H74a.3.3,0,0,0,.18,0,.36.36,0,0,0,.1-.15l0-.12-.5-1.42h.35Z"/><rect class="cls-18" x="90.04" y="139.06" width="12.3" height="19.1" rx="1"/><rect class="cls-6" x="91.83" y="145.6" width="8.73" height="1.78"/><rect class="cls-6" x="91.83" y="148.94" width="8.73" height="0.65"/><rect class="cls-6" x="91.83" y="149.96" width="8.73" height="0.65"/><rect class="cls-6" x="91.83" y="150.98" width="8.73" height="0.65"/><path class="cls-18" d="M58.62,139.06H72a1,1,0,0,1,1,1v25.8a0,0,0,0,1,0,0H57.62a0,0,0,0,1,0,0v-25.8A1,1,0,0,1,58.62,139.06Z"/><rect class="cls-18" x="103.88" y="139.06" width="12.3" height="19.1" rx="1"/><rect class="cls-6" x="105.66" y="145.6" width="8.73" height="1.78"/><rect class="cls-6" x="105.66" y="148.94" width="8.73" height="0.65"/><rect class="cls-6" x="105.66" y="149.96" width="8.73" height="0.65"/><rect class="cls-6" x="105.66" y="150.98" width="8.73" height="0.65"/><rect class="cls-18" x="117.87" y="139.06" width="12.3" height="19.1" rx="1"/><rect class="cls-6" x="119.66" y="145.6" width="8.73" height="1.78"/><rect class="cls-6" x="119.66" y="148.94" width="8.73" height="0.65"/><g class="cls-27"><rect class="cls-18" x="76" y="159.26" width="12.3" height="19.1" rx="1"/><rect class="cls-6" x="77.79" y="165.8" width="8.73" height="1.78"/><rect class="cls-6" x="77.79" y="169.14" width="8.73" height="0.65"/><rect class="cls-6" x="77.79" y="170.16" width="8.73" height="0.65"/><rect class="cls-6" x="77.79" y="171.18" width="8.73" height="0.65"/><rect class="cls-18" x="90" y="159.26" width="12.3" height="19.1" rx="1"/><rect class="cls-6" x="91.79" y="165.8" width="8.73" height="1.78"/><rect class="cls-6" x="91.79" y="169.14" width="8.73" height="0.65"/><rect class="cls-6" x="91.79" y="170.16" width="8.73" height="0.65"/><rect class="cls-6" x="91.79" y="171.18" width="8.73" height="0.65"/><rect class="cls-18" x="103.84" y="159.26" width="12.3" height="19.1" rx="1"/><rect class="cls-6" x="105.62" y="165.8" width="8.73" height="1.78"/><rect class="cls-6" x="105.62" y="169.14" width="8.73" height="0.65"/><rect class="cls-6" x="105.62" y="170.16" width="8.73" height="0.65"/><rect class="cls-6" x="105.62" y="171.18" width="8.73" height="0.65"/><rect class="cls-18" x="117.83" y="159.26" width="12.3" height="19.1" rx="1"/><rect class="cls-6" x="119.62" y="165.8" width="8.73" height="1.78"/><rect class="cls-6" x="119.62" y="169.14" width="8.73" height="0.65"/><rect class="cls-6" x="119.62" y="170.16" width="8.73" height="0.65"/><circle class="cls-16" cx="124.03" cy="162.51" r="1.08"/><rect class="cls-6" x="119.62" y="171.18" width="8.73" height="0.65"/><g id="icon-server"><path class="cls-18" d="M124,161.88h.21l.18.05a.31.31,0,0,1,.14.07.14.14,0,0,1,0,.1v.8a.16.16,0,0,1,0,.1l-.14.07-.18,0-.21,0-.21,0-.19,0a.4.4,0,0,1-.13-.07.12.12,0,0,1,0-.1v-.8a.11.11,0,0,1,0-.1.27.27,0,0,1,.13-.07l.19-.05Zm.47,1v-.26a.53.53,0,0,1-.21.06,1.09,1.09,0,0,1-.26,0,1.12,1.12,0,0,1-.27,0,.53.53,0,0,1-.21-.06v.26l0,0,.06,0,.1,0,.13,0h.33l.14,0,.09,0,.06,0Zm0-.4v-.26a.53.53,0,0,1-.21.06,1.09,1.09,0,0,1-.26,0,1.12,1.12,0,0,1-.27,0,.53.53,0,0,1-.21-.06v.26l0,0,.06,0,.1,0,.13,0h.33l.14,0,.09,0,.06,0,0,0ZM124,162h-.17l-.13,0-.09,0-.07,0s0,0,0,0l0,0,.07,0,.09,0,.13,0h.33l.13,0,.1,0,.06,0,0,0s0,0,0,0l-.06,0-.1,0-.13,0Z"/></g></g><rect class="cls-6" x="119.66" y="149.96" width="8.73" height="0.65"/><rect class="cls-6" x="119.66" y="150.98" width="8.73" height="0.65"/><rect class="cls-26" x="55.09" y="116.34" width="82.38" height="50.16" rx="1"/><rect class="cls-6" x="59.25" y="144.28" width="9.99" height="0.89"/><rect class="cls-16" x="70.89" y="144.22" width="1.01" height="1.01"/><rect class="cls-6" x="59.25" y="146" width="9.99" height="0.89"/><rect class="cls-16" x="70.89" y="145.94" width="1.01" height="1.01"/><rect class="cls-6" x="59.25" y="147.73" width="9.99" height="0.89"/><rect class="cls-16" x="70.89" y="147.67" width="1.01" height="1.01"/><rect class="cls-6" x="59.25" y="149.45" width="9.99" height="0.89"/><rect class="cls-16" x="70.89" y="149.39" width="1.01" height="1.01"/><rect class="cls-6" x="59.25" y="156.7" width="9.99" height="0.89"/><rect class="cls-16" x="70.89" y="156.64" width="1.01" height="1.01"/><rect class="cls-6" x="59.25" y="158.57" width="9.99" height="0.89"/><rect class="cls-16" x="70.89" y="158.51" width="1.01" height="1.01"/><rect class="cls-6" x="59.25" y="160.45" width="9.99" height="0.89"/><rect class="cls-16" x="70.89" y="160.39" width="1.01" height="1.01"/><rect class="cls-6" x="59.25" y="162.32" width="9.99" height="0.89"/><rect class="cls-16" x="70.89" y="162.26" width="1.01" height="1.01"/><rect class="cls-6" x="59.25" y="151.17" width="9.99" height="0.89"/><rect class="cls-16" x="70.89" y="151.11" width="1.01" height="1.01"/><path class="cls-16" d="M111.11,162.5a1.08,1.08,0,1,1-1.08-1.08A1.08,1.08,0,0,1,111.11,162.5Z"/><g id="icon-server-2" data-name="icon-server"><path class="cls-18" d="M110,161.87h.21l.18.05a.26.26,0,0,1,.14.07.14.14,0,0,1,0,.1v.8a.16.16,0,0,1,0,.1.37.37,0,0,1-.14.07l-.18,0-.21,0-.21,0-.19,0a.4.4,0,0,1-.13-.07.12.12,0,0,1,0-.1v-.8a.11.11,0,0,1,0-.1.27.27,0,0,1,.13-.07l.19-.05Zm.47,1v-.26a.52.52,0,0,1-.2.06,1.23,1.23,0,0,1-.54,0,.65.65,0,0,1-.21-.06v.26l0,0,.06,0,.1,0,.13,0h.34l.13,0,.09,0,.06,0Zm0-.4v-.26a.52.52,0,0,1-.2.06l-.27,0-.27,0a.65.65,0,0,1-.21-.06v.26l0,0,.06,0,.1,0,.13,0h.34l.13,0,.09,0,.06,0,0,0ZM110,162h-.17l-.13,0-.09,0-.06,0,0,0s0,0,0,0l.06,0,.09,0,.13,0h.33l.14,0,.09,0,.06,0s0,0,0,0l0,0-.06,0-.09,0-.14,0Z"/></g><circle class="cls-16" cx="110.03" cy="142.5" r="1.08"/><g id="icon-server-3" data-name="icon-server"><path class="cls-18" d="M110,141.88h.21l.18,0a.37.37,0,0,1,.14.07.16.16,0,0,1,0,.11v.79a.16.16,0,0,1,0,.11.37.37,0,0,1-.14.07l-.18,0h-.42l-.19,0a.4.4,0,0,1-.13-.07.13.13,0,0,1,0-.11v-.79a.13.13,0,0,1,0-.11.4.4,0,0,1,.13-.07l.19,0Zm.47,1v-.26a.52.52,0,0,1-.2.07,1.83,1.83,0,0,1-.54,0,.65.65,0,0,1-.21-.07v.26l0,0,.06,0,.1,0,.13,0h.34l.13,0,.09,0,.06,0S110.5,142.91,110.5,142.9Zm0-.4v-.26a.52.52,0,0,1-.2.07,1.83,1.83,0,0,1-.54,0,.65.65,0,0,1-.21-.07v.27l0,0,.06,0,.1,0,.13,0h.34l.13,0,.09,0,.06,0s0,0,0,0ZM110,142h-.17l-.13,0-.09,0-.06,0s0,0,0,0l0,0,.06,0,.09,0,.13,0h.33l.14,0,.09,0,.06,0,0,0s0,0,0,0l-.06,0-.09,0-.14,0Z"/></g><circle class="cls-16" cx="124.03" cy="142.5" r="1.08"/><g id="icon-server-4" data-name="icon-server"><path class="cls-18" d="M124,141.88h.21l.18,0a.46.46,0,0,1,.14.07.16.16,0,0,1,0,.11v.79a.16.16,0,0,1,0,.11l-.14.07-.18,0h-.42l-.19,0a.4.4,0,0,1-.13-.07.13.13,0,0,1,0-.11v-.79a.13.13,0,0,1,0-.11.4.4,0,0,1,.13-.07l.19,0Zm.47,1v-.26a.52.52,0,0,1-.21.07,1.1,1.1,0,0,1-.26,0,1.14,1.14,0,0,1-.27,0,.52.52,0,0,1-.21-.07v.26l0,0,.06,0,.1,0,.13,0h.33l.14,0,.09,0,.06,0Zm0-.4v-.26a.52.52,0,0,1-.21.07,1.1,1.1,0,0,1-.26,0,1.14,1.14,0,0,1-.27,0,.52.52,0,0,1-.21-.07v.27l0,0,.06,0,.1,0,.13,0h.33l.14,0,.09,0,.06,0,0,0ZM124,142h-.17l-.13,0-.09,0-.07,0s0,0,0,0l0,0,.07,0,.09,0,.13,0h.33l.13,0,.1,0,.06,0,0,0s0,0,0,0l-.06,0-.1,0-.13,0Z"/></g><path class="cls-16" d="M83.21,142.43a1.08,1.08,0,1,1-1.08-1.08A1.08,1.08,0,0,1,83.21,142.43Z"/><g id="icon-server-5" data-name="icon-server"><path class="cls-18" d="M82.13,141.8l.21,0,.18,0a.46.46,0,0,1,.14.07.14.14,0,0,1,0,.1v.8a.14.14,0,0,1,0,.1.31.31,0,0,1-.14.07l-.18.05h-.42l-.19-.05a.23.23,0,0,1-.13-.07.12.12,0,0,1-.06-.1V142a.12.12,0,0,1,.06-.1.32.32,0,0,1,.13-.07l.19,0Zm.47,1v-.26a.73.73,0,0,1-.21.07l-.26,0-.27,0a.73.73,0,0,1-.21-.07v.26l0,0,.06,0a.17.17,0,0,0,.1,0l.13,0h.33l.14,0,.09,0,.06,0Zm0-.4v-.26a.73.73,0,0,1-.21.07l-.26,0-.27,0a.73.73,0,0,1-.21-.07v.26l0,0a.11.11,0,0,1,.06,0l.1,0,.13,0h.33l.14,0,.09,0,.06,0,0,0Zm-.47-.51H82l-.13,0-.1,0-.06,0,0,0,0,0,.06,0,.1,0,.13,0h.33l.13,0,.1,0,.06,0,0,0,0,0-.06,0-.1,0-.13,0Z"/></g><path class="cls-16" d="M97.21,142.43a1.09,1.09,0,1,1-1.09-1.08A1.08,1.08,0,0,1,97.21,142.43Z"/><g id="icon-server-6" data-name="icon-server"><path class="cls-18" d="M96.13,141.8l.2,0,.19,0a.46.46,0,0,1,.14.07.14.14,0,0,1,0,.1v.8a.14.14,0,0,1,0,.1.31.31,0,0,1-.14.07l-.19.05h-.41l-.19-.05a.31.31,0,0,1-.14-.07.14.14,0,0,1,0-.1V142a.14.14,0,0,1,0-.1.46.46,0,0,1,.14-.07l.19,0Zm.47,1v-.26a.73.73,0,0,1-.21.07l-.26,0-.27,0a.73.73,0,0,1-.21-.07v.26l0,0,.06,0a.17.17,0,0,0,.1,0l.13,0h.33l.13,0,.1,0,.06,0Zm0-.4v-.26a.73.73,0,0,1-.21.07l-.26,0-.27,0a.73.73,0,0,1-.21-.07v.26l0,0,.06,0,.1,0,.13,0h.33l.13,0,.1,0,.06,0,0,0Zm-.47-.51H96l-.13,0-.1,0-.06,0,0,0,0,0,.06,0,.1,0,.13,0h.33l.13,0,.1,0,.06,0,0,0,0,0-.06,0-.1,0-.13,0Z"/></g><path class="cls-16" d="M83.21,162.42a1.08,1.08,0,1,1-1.08-1.08A1.09,1.09,0,0,1,83.21,162.42Z"/><g id="icon-server-7" data-name="icon-server"><path class="cls-18" d="M82.13,161.8h.21l.18,0a.46.46,0,0,1,.14.07.16.16,0,0,1,0,.11v.79a.16.16,0,0,1,0,.11.46.46,0,0,1-.14.07l-.18,0h-.42l-.19,0a.32.32,0,0,1-.13-.07.14.14,0,0,1-.06-.11V162a.14.14,0,0,1,.06-.11.32.32,0,0,1,.13-.07l.19,0Zm.47,1v-.26a.73.73,0,0,1-.21.07,1.1,1.1,0,0,1-.26,0,1.14,1.14,0,0,1-.27,0,.73.73,0,0,1-.21-.07v.26s0,0,0,0l.06,0,.1,0,.13,0h.33l.14,0,.09,0,.06,0S82.6,162.83,82.6,162.82Zm0-.4v-.26a.52.52,0,0,1-.21.07,1.1,1.1,0,0,1-.26,0,1.14,1.14,0,0,1-.27,0,.52.52,0,0,1-.21-.07v.26s0,0,0,0l.06,0,.1,0,.13,0h.33l.14,0,.09,0,.06,0s0,0,0,0Zm-.47-.51H82l-.13,0-.1,0-.06,0,0,0,0,0,.06,0,.1,0,.13,0h.33l.13,0,.1,0,.06,0,0,0,0,0-.06,0-.1,0-.13,0Z"/></g><path class="cls-16" d="M97.21,162.42a1.09,1.09,0,1,1-1.09-1.08A1.09,1.09,0,0,1,97.21,162.42Z"/><g id="icon-server-8" data-name="icon-server"><path class="cls-18" d="M96.13,161.8h.2l.19,0a.46.46,0,0,1,.14.07.16.16,0,0,1,0,.11v.79a.16.16,0,0,1,0,.11.46.46,0,0,1-.14.07l-.19,0h-.41l-.19,0a.46.46,0,0,1-.14-.07.16.16,0,0,1,0-.11V162a.16.16,0,0,1,0-.11.46.46,0,0,1,.14-.07l.19,0Zm.47,1v-.26a.73.73,0,0,1-.21.07,1.1,1.1,0,0,1-.26,0,1.14,1.14,0,0,1-.27,0,.73.73,0,0,1-.21-.07v.26s0,0,0,0l.06,0,.1,0,.13,0h.33l.13,0,.1,0,.06,0S96.6,162.83,96.6,162.82Zm0-.4v-.26a.52.52,0,0,1-.21.07,1.1,1.1,0,0,1-.26,0,1.14,1.14,0,0,1-.27,0,.52.52,0,0,1-.21-.07v.26s0,0,0,0l.06,0,.1,0,.13,0h.33l.13,0,.1,0,.06,0s0,0,0,0Zm-.47-.51H96l-.13,0-.1,0-.06,0,0,0,0,0,.06,0,.1,0,.13,0h.33l.13,0,.1,0,.06,0,0,0,0,0-.06,0-.1,0-.13,0Z"/></g><rect class="cls-28" x="77.83" y="156.72" width="0.95" height="0.95"/><rect class="cls-29" x="80.02" y="156.72" width="0.95" height="0.95"/><rect class="cls-6" x="81.12" y="156.72" width="0.95" height="0.95"/><rect class="cls-7" x="78.92" y="156.72" width="0.95" height="0.95"/><rect class="cls-28" x="91.76" y="156.72" width="0.95" height="0.95"/><rect class="cls-6" x="93.95" y="156.72" width="0.95" height="0.95"/><rect class="cls-6" x="95.05" y="156.72" width="0.95" height="0.95"/><rect class="cls-6" x="92.86" y="156.72" width="0.95" height="0.95"/><rect class="cls-28" x="105.66" y="156.72" width="0.95" height="0.95"/><rect class="cls-29" x="107.86" y="156.72" width="0.95" height="0.95"/><rect class="cls-6" x="108.95" y="156.72" width="0.95" height="0.95"/><rect class="cls-7" x="106.76" y="156.72" width="0.95" height="0.95"/><rect class="cls-28" x="119.66" y="156.72" width="0.95" height="0.95"/><rect class="cls-29" x="121.86" y="156.72" width="0.95" height="0.95"/><rect class="cls-6" x="122.95" y="156.72" width="0.95" height="0.95"/><rect class="cls-6" x="120.76" y="156.72" width="0.95" height="0.95"/><rect class="cls-30" x="77.84" y="153.31" width="4.08" height="0.65"/><rect class="cls-30" x="82.6" y="153.31" width="2.64" height="0.65"/><rect class="cls-30" x="91.95" y="153.31" width="5.26" height="0.65"/><rect class="cls-30" x="105.74" y="153.31" width="4.08" height="0.65"/><rect class="cls-30" x="110.51" y="153.31" width="3.67" height="0.65"/><rect class="cls-30" x="119.72" y="153.31" width="3.08" height="0.65"/><rect class="cls-6" x="59.25" y="141.68" width="7.85" height="1.78"/><rect class="cls-6" x="59.25" y="153.95" width="7.85" height="1.78"/><path class="cls-31" d="M58.26,124.59v.21h-1v.71h.93v.21h-.93v.86H57v-2Z"/><path class="cls-31" d="M59.78,126.07H58.7l-.22.51h-.24l.89-2h.23l.89,2H60Zm-.09-.21-.45-1-.45,1Z"/><path class="cls-31" d="M60.79,124.59v2h-.22v-2Z"/><path class="cls-31" d="M62.7,126.58l-.42-.64h-.66v.63H61.4v-2h.75c.5,0,.78.25.78.67a.62.62,0,0,1-.44.64l.46.68Zm-.55-.84c.36,0,.57-.16.57-.48s-.21-.46-.57-.46h-.53v.94Z"/><path class="cls-32" d="M63.8,125.26c-.17,0-.29.06-.29.2,0,.34.83.17.83.7,0,.3-.26.43-.55.43a.87.87,0,0,1-.57-.21l.08-.16a.81.81,0,0,0,.5.19c.18,0,.32-.07.32-.22,0-.37-.83-.18-.82-.71,0-.28.24-.41.52-.41a.9.9,0,0,1,.47.14l-.08.17A.85.85,0,0,0,63.8,125.26Z"/><path class="cls-32" d="M66.09,125.66v.92h-.22v-.86a.39.39,0,0,0-.42-.43.5.5,0,0,0-.51.56v.73h-.22v-2.11h.22v1a.58.58,0,0,1,.58-.34A.53.53,0,0,1,66.09,125.66Z"/><path class="cls-32" d="M67.51,126.58v-.23a.65.65,0,0,1-.55.24.46.46,0,0,1-.5-.45c0-.27.2-.43.56-.43h.49v-.1c0-.22-.14-.35-.4-.35a.83.83,0,0,0-.48.17l-.09-.15a1,1,0,0,1,.61-.2c.37,0,.57.19.58.51v1Zm0-.51v-.19H67c-.25,0-.38.08-.38.25s.14.27.35.27A.48.48,0,0,0,67.51,126.07Z"/><path class="cls-32" d="M69,125.08v.21a.51.51,0,0,0-.54.49v.8h-.22v-1.49h.22v.33A.56.56,0,0,1,69,125.08Z"/><path class="cls-32" d="M69.53,124.66a.15.15,0,0,1-.14.15.15.15,0,0,1-.15-.15.14.14,0,0,1,.15-.15A.14.14,0,0,1,69.53,124.66Zm0,.43v1.49h-.22v-1.49Z"/><path class="cls-32" d="M71.41,125.66v.92h-.23v-.86a.39.39,0,0,0-.42-.43.49.49,0,0,0-.5.49v.8H70v-1.49h.22v.32a.59.59,0,0,1,.58-.33A.53.53,0,0,1,71.41,125.66Z"/><path class="cls-32" d="M73.2,125.09v1.33a.69.69,0,0,1-.75.72,1,1,0,0,1-.61-.22l.1-.16a.81.81,0,0,0,.5.19.5.5,0,0,0,.54-.52v-.23a.58.58,0,0,1-.55.31.67.67,0,0,1-.68-.72.66.66,0,0,1,.68-.71.57.57,0,0,1,.55.31v-.3Zm-.22.71a.51.51,0,1,0-1,0,.51.51,0,1,0,1,0Z"/><path class="cls-31" d="M73.86,126.46a.14.14,0,1,1-.28,0,.14.14,0,1,1,.28,0Z"/><path class="cls-31" d="M75.64,125.83a.76.76,0,1,1-1.52,0,.76.76,0,0,1,1.52,0Zm-1.3,0a.52.52,0,0,0,.54.56.53.53,0,0,0,.54-.56.53.53,0,0,0-.54-.56A.53.53,0,0,0,74.34,125.83Z"/><path class="cls-31" d="M76.78,125.08v.21a.49.49,0,0,0-.53.49v.8H76v-1.49h.22v.33A.55.55,0,0,1,76.78,125.08Z"/><path class="cls-31" d="M78.39,125.09v1.33a.69.69,0,0,1-.76.72,1,1,0,0,1-.61-.22l.1-.16a.84.84,0,0,0,.51.19.5.5,0,0,0,.53-.52v-.23a.57.57,0,0,1-.55.31.72.72,0,0,1,0-1.43.57.57,0,0,1,.55.31v-.3Zm-.23.71a.51.51,0,1,0-1,0,.51.51,0,1,0,1,0Z"/><path class="cls-31" d="M61.08,128.11a2.34,2.34,0,0,1-1.48-.54,2,2,0,0,0-1.46-.49,1.29,1.29,0,0,0-.83.48.07.07,0,0,1-.1,0,.06.06,0,0,1,0-.09,1.42,1.42,0,0,1,.92-.54,2.1,2.1,0,0,1,1.56.52,2.31,2.31,0,0,0,2.86,0,.07.07,0,1,1,.09.1,2.61,2.61,0,0,1-1.55.54Z"/><path class="cls-33" d="M58.33,128.11h-.21a1.42,1.42,0,0,1-.92-.54.07.07,0,0,1,0-.1.08.08,0,0,1,.1,0,1.34,1.34,0,0,0,.83.48,1.94,1.94,0,0,0,1.46-.5,2.43,2.43,0,0,1,3,0,.06.06,0,0,1,0,.09.07.07,0,0,1-.1,0,2.27,2.27,0,0,0-2.86,0,2.25,2.25,0,0,1-1.35.54Z"/><path class="cls-32" d="M63.44,127.66a.12.12,0,0,1,0-.09.13.13,0,0,1,.05-.11.17.17,0,0,1,.13,0l.11,0a.2.2,0,0,1,.09.06l-.05,0-.07,0-.08,0-.08,0a.09.09,0,0,0,0,.06s0,0,0,0a.32.32,0,0,0,.11,0,.34.34,0,0,1,.16.08.14.14,0,0,1,.05.1.16.16,0,0,1-.05.11.25.25,0,0,1-.15,0,.27.27,0,0,1-.12,0,.33.33,0,0,1-.11-.08l.06,0a.24.24,0,0,0,.09.06.11.11,0,0,0,.08,0l.09,0a.09.09,0,0,0,0-.07.08.08,0,0,0,0,0,.4.4,0,0,0-.13-.06l-.11,0Z"/><path class="cls-32" d="M64,127.23h.08v.2h.13v.07h-.13v.34s0,0,0,.06a.06.06,0,0,0,.06,0h0V128h-.06a.16.16,0,0,1-.11,0,.12.12,0,0,1,0-.11v-.35H63.9v-.07H64v-.2Z"/><path class="cls-32" d="M64.31,127.52a.5.5,0,0,1,.12-.08l.11,0a.21.21,0,0,1,.12,0,.23.23,0,0,1,.07.07.28.28,0,0,1,0,.09v.24a.3.3,0,0,0,0,.13h-.08a.34.34,0,0,1,0-.09.34.34,0,0,1-.11.07.2.2,0,0,1-.11,0,.21.21,0,0,1-.11,0,.15.15,0,0,1,0-.11.19.19,0,0,1,0-.1.26.26,0,0,1,.1-.07l.24-.06v0a.1.1,0,0,0,0-.07.09.09,0,0,0-.07,0l-.09,0a.46.46,0,0,0-.1.07Zm.36.32v-.17l-.17,0a.2.2,0,0,0-.09.06.09.09,0,0,0,0,.07.09.09,0,0,0,0,.06l.06,0a.15.15,0,0,0,.09,0Z"/><path class="cls-32" d="M65,127.49l.12,0,.09,0a.1.1,0,0,1,.07,0l.06,0a.3.3,0,0,1,0,.1V128h-.07v-.38a.12.12,0,0,0,0-.09l-.07,0h-.08l-.11,0V128h-.07v-.55H65v.06Z"/><path class="cls-32" d="M65.92,127.21H66v.6a.28.28,0,0,0,0,.09.17.17,0,0,0,0,.08h-.08a.25.25,0,0,1,0-.08l-.1.07-.09,0a.21.21,0,0,1-.16-.08.27.27,0,0,1-.07-.2.29.29,0,0,1,.07-.22.2.2,0,0,1,.16-.07l.09,0,.1.06Zm0,.36-.09-.06a.15.15,0,0,0-.09,0,.13.13,0,0,0-.12.05.25.25,0,0,0,0,.16.27.27,0,0,0,0,.17.17.17,0,0,0,.12,0,.11.11,0,0,0,.08,0l.1-.06Z"/><path class="cls-32" d="M66.16,127.52l.11-.08.12,0a.24.24,0,0,1,.12,0,.13.13,0,0,1,.06.07.29.29,0,0,1,0,.09v.24a.57.57,0,0,0,0,.13h-.07a.51.51,0,0,1,0-.09.3.3,0,0,1-.1.07.23.23,0,0,1-.11,0,.18.18,0,0,1-.11,0,.16.16,0,0,1,0-.11.21.21,0,0,1,0-.1.2.2,0,0,1,.1-.07l.23-.06v0a.09.09,0,0,0,0-.07.11.11,0,0,0-.08,0l-.08,0-.11.07Zm.35.32v-.17l-.16,0a.2.2,0,0,0-.09.06.09.09,0,0,0,0,.07.14.14,0,0,0,0,.06l.07,0a.15.15,0,0,0,.09,0Z"/><path class="cls-32" d="M66.85,127.55a.45.45,0,0,1,.09-.1.27.27,0,0,1,.12,0h0v.08H67a.18.18,0,0,0-.07,0,.19.19,0,0,0,0,.09.13.13,0,0,0,0,.08V128h-.08v-.55h.08Z"/><path class="cls-32" d="M67.54,127.21h.08v.69a.45.45,0,0,0,0,.08h-.08a.25.25,0,0,1,0-.08l-.1.07-.09,0a.19.19,0,0,1-.16-.08.27.27,0,0,1-.07-.2.29.29,0,0,1,.07-.22.2.2,0,0,1,.16-.07l.09,0a.24.24,0,0,1,.09.06Zm0,.36a.24.24,0,0,0-.09-.06.12.12,0,0,0-.08,0,.13.13,0,0,0-.12.05.25.25,0,0,0,0,.16.26.26,0,0,0,0,.17.17.17,0,0,0,.12,0,.12.12,0,0,0,.08,0,.24.24,0,0,0,.09-.06Z"/><path class="cls-32" d="M67.82,127.66a.12.12,0,0,1,0-.09.16.16,0,0,1,0-.11.2.2,0,0,1,.14,0l.11,0,.09.06-.06,0-.06,0-.08,0-.09,0a.14.14,0,0,0,0,.06.06.06,0,0,0,0,0l.1,0a.38.38,0,0,1,.17.08.13.13,0,0,1,0,.1.16.16,0,0,1,0,.11.2.2,0,0,1-.14,0,.27.27,0,0,1-.12,0,.28.28,0,0,1-.12-.08l.07,0,.08.06a.15.15,0,0,0,.09,0l.09,0a.09.09,0,0,0,0-.07.05.05,0,0,0,0,0,.31.31,0,0,0-.13-.06l-.1,0Z"/><path class="cls-32" d="M68.35,127.86h.1V128l-.08.15h0l.07-.15h-.05v-.12Z"/><path class="cls-32" d="M69.36,127.21h.07v.6a.28.28,0,0,0,0,.09.17.17,0,0,0,0,.08h-.08s0-.06,0-.08l-.1.07-.09,0a.21.21,0,0,1-.16-.08.32.32,0,0,1-.07-.2.34.34,0,0,1,.07-.22.2.2,0,0,1,.16-.07l.09,0,.1.06v-.29Zm0,.36a.24.24,0,0,0-.09-.06.15.15,0,0,0-.09,0,.13.13,0,0,0-.12.05.25.25,0,0,0,0,.16.27.27,0,0,0,0,.17.18.18,0,0,0,.12,0,.15.15,0,0,0,.09,0,.24.24,0,0,0,.09-.06v-.27Z"/><path class="cls-32" d="M69.6,127.52l.11-.08.12,0a.21.21,0,0,1,.12,0,.13.13,0,0,1,.06.07.29.29,0,0,1,0,.09v.24a.57.57,0,0,0,0,.13H70a.51.51,0,0,1,0-.09.3.3,0,0,1-.1.07.23.23,0,0,1-.11,0,.18.18,0,0,1-.11,0,.15.15,0,0,1,0-.11.19.19,0,0,1,0-.1.2.2,0,0,1,.1-.07l.23-.06v0a.1.1,0,0,0-.1-.1l-.09,0-.11.07Zm.35.32v-.17l-.16,0a.2.2,0,0,0-.09.06.09.09,0,0,0,0,.07.14.14,0,0,0,0,.06l.07,0a.15.15,0,0,0,.09,0Z"/><path class="cls-32" d="M70.25,127.23h.07v.2h.14v.07h-.14v.34a.08.08,0,0,0,0,.06.09.09,0,0,0,.06,0h.06V128h-.07a.11.11,0,0,1-.14-.14v-.35h-.1v-.07h.1v-.2Z"/><path class="cls-32" d="M70.57,127.52l.11-.08.12,0a.2.2,0,0,1,.11,0,.12.12,0,0,1,.07.07.28.28,0,0,1,0,.09v.24a.59.59,0,0,0,0,.13h-.08a.34.34,0,0,1,0-.09.34.34,0,0,1-.11.07.19.19,0,0,1-.1,0,.21.21,0,0,1-.12,0,.21.21,0,0,1,0-.11.14.14,0,0,1,0-.1.2.2,0,0,1,.1-.07l.23-.06v0a.09.09,0,0,0,0-.07.11.11,0,0,0-.08,0l-.09,0a.46.46,0,0,0-.1.07Zm.35.32v-.17l-.16,0c-.05,0-.08,0-.1.06a.09.09,0,0,0,0,.07.09.09,0,0,0,0,.06l.07,0a.18.18,0,0,0,.09,0Z"/><path class="cls-32" d="M71.17,127.21h.07v.29l.09-.06.1,0a.18.18,0,0,1,.16.08.27.27,0,0,1,.07.2.33.33,0,0,1,0,.15.18.18,0,0,1-.09.1.15.15,0,0,1-.11,0l-.09,0-.1-.06V128h-.07v-.77Zm.07.63.1.06.08,0a.14.14,0,0,0,.12-.06.24.24,0,0,0,0-.16.25.25,0,0,0,0-.16.16.16,0,0,0-.12-.06l-.09,0-.09.07v.27Z"/><path class="cls-32" d="M71.78,127.52a.5.5,0,0,1,.12-.08l.11,0a.21.21,0,0,1,.12,0,.23.23,0,0,1,.07.07.28.28,0,0,1,0,.09v.24a.3.3,0,0,0,0,.13h-.08a.64.64,0,0,0,0-.09.23.23,0,0,1-.1.07.2.2,0,0,1-.11,0,.21.21,0,0,1-.11,0,.15.15,0,0,1,0-.11.19.19,0,0,1,0-.1.26.26,0,0,1,.1-.07l.23-.06v0a.1.1,0,0,0-.1-.1l-.09,0a.46.46,0,0,0-.1.07Zm.35.32v-.17l-.16,0a.2.2,0,0,0-.09.06.09.09,0,0,0,0,.07.09.09,0,0,0,0,.06l.06,0a.15.15,0,0,0,.09,0A.27.27,0,0,0,72.13,127.84Z"/><path class="cls-32" d="M72.4,127.66a.18.18,0,0,1,0-.09.16.16,0,0,1,0-.11.21.21,0,0,1,.14,0l.11,0s.06,0,.09.06l-.06,0-.06,0-.08,0-.08,0a.09.09,0,0,0,0,.06s0,0,0,0l.1,0a.33.33,0,0,1,.17.08.15.15,0,0,1,0,.21.2.2,0,0,1-.14,0,.27.27,0,0,1-.12,0,.33.33,0,0,1-.11-.08l.06,0a.24.24,0,0,0,.09.06.11.11,0,0,0,.08,0l.09,0a.09.09,0,0,0,0-.07.08.08,0,0,0,0,0,.48.48,0,0,0-.14-.06l-.1,0Z"/><path class="cls-32" d="M73.35,127.85a.33.33,0,0,1-.11.1.19.19,0,0,1-.12,0,.25.25,0,0,1-.17-.08.4.4,0,0,1,0-.42.21.21,0,0,1,.16-.07.27.27,0,0,1,.12,0,.28.28,0,0,1,.09.1s0,.1,0,.16H73a.36.36,0,0,0,0,.11.24.24,0,0,0,.06.08l.08,0c.06,0,.11,0,.17-.11Zm-.08-.21a.22.22,0,0,0,0-.12.14.14,0,0,0-.1,0,.13.13,0,0,0-.11,0,.18.18,0,0,0-.05.11Z"/><path class="cls-32" d="M73.5,127.66a.12.12,0,0,1,0-.09.13.13,0,0,1,.05-.11.2.2,0,0,1,.14,0l.11,0a.24.24,0,0,1,.08.06l0,0a.18.18,0,0,0-.07,0l-.07,0-.09,0a.09.09,0,0,0,0,.06s0,0,0,0a.19.19,0,0,0,.1,0,.38.38,0,0,1,.17.08.18.18,0,0,1,0,.1.16.16,0,0,1-.05.11.22.22,0,0,1-.14,0,.21.21,0,0,1-.12,0,.28.28,0,0,1-.12-.08l.06,0,.09.06a.15.15,0,0,0,.09,0l.08,0a.09.09,0,0,0,0-.07s0,0,0,0a.31.31,0,0,0-.13-.06l-.1,0Z"/><path class="cls-32" d="M74,127.86h.1V128l-.08.15h0l.07-.15h0Z"/><path class="cls-32" d="M74.74,127.5a.24.24,0,0,1,.09-.06l.09,0a.27.27,0,0,1,.12,0,.23.23,0,0,1,.08.11.32.32,0,0,1,0,.14.41.41,0,0,1,0,.16.39.39,0,0,1-.08.1.27.27,0,0,1-.12,0l-.09,0-.09-.06v.27h-.08v-.75h.08v.07Zm0,.34a.24.24,0,0,0,.09.06l.09,0a.14.14,0,0,0,.11-.06.28.28,0,0,0,0-.32.14.14,0,0,0-.12-.06l-.08,0-.09.06v.28Z"/><path class="cls-32" d="M75.51,128a.21.21,0,0,1-.17-.08.29.29,0,0,1-.08-.21.28.28,0,0,1,0-.15.27.27,0,0,1,.08-.1.27.27,0,0,1,.12,0,.21.21,0,0,1,.12,0,.24.24,0,0,1,.09.11.24.24,0,0,1,0,.15.32.32,0,0,1-.07.2A.23.23,0,0,1,75.51,128Zm0-.07a.13.13,0,0,0,.11,0,.23.23,0,0,0,0-.17.21.21,0,0,0,0-.16.14.14,0,0,0-.11-.06.14.14,0,0,0-.12.06.21.21,0,0,0,0,.16.23.23,0,0,0,0,.17A.13.13,0,0,0,75.51,127.92Z"/><path class="cls-32" d="M75.91,127.21H76V128h-.08Z"/><path class="cls-32" d="M76.2,127.21h.08v.09H76.2Zm0,.22h.08V128H76.2Z"/><path class="cls-32" d="M76.9,127.84a.3.3,0,0,1-.09.1.21.21,0,0,1-.13,0,.19.19,0,0,1-.12,0,.18.18,0,0,1-.09-.1.33.33,0,0,1,0-.15.32.32,0,0,1,.07-.2.23.23,0,0,1,.29,0,.36.36,0,0,1,.1.11l-.07,0a.27.27,0,0,0-.07-.08.11.11,0,0,0-.08,0,.14.14,0,0,0-.11.06.22.22,0,0,0,0,.17.22.22,0,0,0,0,.16.16.16,0,0,0,.11,0,.18.18,0,0,0,.15-.11Z"/><path class="cls-32" d="M77.05,127.21h.07v.09h-.07Zm0,.22h.07V128h-.07Z"/><path class="cls-32" d="M77.75,127.85a.26.26,0,0,1-.11.1.19.19,0,0,1-.12,0,.21.21,0,0,1-.16-.08.35.35,0,0,1,0-.42.2.2,0,0,1,.16-.07.2.2,0,0,1,.11,0,.28.28,0,0,1,.09.1.38.38,0,0,1,0,.16h-.39s0,.08,0,.11l.06.08.08,0a.2.2,0,0,0,.17-.11Zm-.08-.21a.17.17,0,0,0,0-.12.13.13,0,0,0-.1,0,.14.14,0,0,0-.11,0,.17.17,0,0,0,0,.11Z"/><path class="cls-32" d="M77.9,127.66a.18.18,0,0,1,0-.09.16.16,0,0,1,0-.11.2.2,0,0,1,.14,0l.11,0,.09.06-.06,0-.06,0-.08,0-.08,0a.09.09,0,0,0,0,.06.06.06,0,0,0,0,0l.1,0a.38.38,0,0,1,.17.08.15.15,0,0,1,0,.21.2.2,0,0,1-.14,0,.27.27,0,0,1-.12,0,.35.35,0,0,1-.12-.08l.07,0,.08.06a.15.15,0,0,0,.09,0l.09,0a.09.09,0,0,0,0-.07.05.05,0,0,0,0,0,.31.31,0,0,0-.13-.06l-.1,0Z"/><path class="cls-18" d="M59.81,135.27a.08.08,0,0,1-.09.08H57.25a.08.08,0,0,1-.09-.08V132a.09.09,0,0,1,.09-.08h2.47a.09.09,0,0,1,.09.08v3.32Z"/><path class="cls-34" d="M59.81,135.27a.08.08,0,0,1-.09.08H57.25a.08.08,0,0,1-.09-.08V132a.09.09,0,0,1,.09-.08h2.47a.09.09,0,0,1,.09.08v3.32Z"/><circle class="cls-35" cx="59.36" cy="134.85" r="0.23"/><path class="cls-35" d="M59.36,135.19a.34.34,0,0,1,0-.68.34.34,0,1,1,0,.68Zm0-.63a.29.29,0,1,0,.29.29A.29.29,0,0,0,59.36,134.56Z"/><rect class="cls-6" x="57.59" y="132.78" width="1.73" height="0.2"/><rect class="cls-6" x="57.59" y="133.25" width="0.79" height="0.2"/><rect class="cls-6" x="57.59" y="133.71" width="0.79" height="0.2"/><rect class="cls-6" x="57.59" y="134.18" width="1.34" height="0.2"/><rect class="cls-35" x="57.59" y="132.36" width="1.24" height="0.2"/><path class="cls-36" d="M65.85,135.31a.09.09,0,0,1-.09.08H63.29a.09.09,0,0,1-.09-.08V132a.08.08,0,0,1,.09-.08h2.47a.08.08,0,0,1,.09.08v3.32Z"/><rect class="cls-6" x="63.63" y="132.82" width="1.73" height="0.2"/><rect class="cls-6" x="63.63" y="133.28" width="1.34" height="0.2"/><rect class="cls-6" x="63.63" y="133.75" width="0.89" height="0.2"/><rect class="cls-6" x="64.52" y="134.21" width="0.47" height="0.2"/><rect class="cls-6" x="63.63" y="134.21" width="0.62" height="0.2"/><rect class="cls-18" x="63.63" y="132.39" width="1.24" height="0.2"/><circle class="cls-37" cx="62.47" cy="134.85" r="0.23"/><path class="cls-37" d="M62.47,135.19a.34.34,0,0,1,0-.68.34.34,0,1,1,0,.68Zm0-.63a.29.29,0,1,0,.29.29A.29.29,0,0,0,62.47,134.56Z"/><path class="cls-35" d="M63.43,136a.12.12,0,0,1-.13.12H59.74a.12.12,0,0,1-.13-.12V131.2a.13.13,0,0,1,.13-.12H63.3a.12.12,0,0,1,.13.12Z"/><circle class="cls-18" cx="62.79" cy="135.38" r="0.34"/><path class="cls-18" d="M62.79,135.85a.47.47,0,1,1,.46-.47A.46.46,0,0,1,62.79,135.85Zm0-.91a.44.44,0,0,0-.44.44.44.44,0,0,0,.88,0A.44.44,0,0,0,62.79,134.94Z"/><rect class="cls-18" x="60.23" y="132.5" width="2.49" height="0.1"/><rect class="cls-18" x="60.23" y="133.17" width="1.93" height="0.1"/><rect class="cls-18" x="60.23" y="133.84" width="1.14" height="0.1"/><rect class="cls-18" x="61.77" y="133.82" width="1.14" height="0.1"/><rect class="cls-18" x="60.23" y="134.51" width="1.93" height="0.1"/><rect class="cls-18" x="60.23" y="131.79" width="1.79" height="0.29"/><path class="cls-18" d="M317.64,45.86a.7.7,0,0,1-.73.66H297.06a.7.7,0,0,1-.73-.66V19.18a.69.69,0,0,1,.73-.66h19.85a.7.7,0,0,1,.73.66Z"/><path class="cls-6" d="M316.91,46.78H297.06a1,1,0,0,1-1-.92V19.18a1,1,0,0,1,1-.92h19.85a1,1,0,0,1,1,.92V45.86A1,1,0,0,1,316.91,46.78Zm-19.85-28a.44.44,0,0,0-.47.4V45.86a.44.44,0,0,0,.47.4h19.85a.44.44,0,0,0,.47-.4V19.18a.44.44,0,0,0-.47-.4Z"/><path class="cls-18" d="M317.64,45.86a.7.7,0,0,1-.73.66H297.06a.7.7,0,0,1-.73-.66V19.18a.69.69,0,0,1,.73-.66h19.85a.7.7,0,0,1,.73.66Z"/><rect class="cls-6" x="299.79" y="25.63" width="13.9" height="2.07"/><rect class="cls-6" x="299.79" y="29.36" width="10.75" height="2.07"/><rect class="cls-6" x="299.79" y="33.1" width="6.37" height="2.07"/><rect class="cls-6" x="308.34" y="33.01" width="6.37" height="2.07"/><path class="cls-10" d="M302.62,23.43a1.19,1.19,0,0,1-.53.38,2.24,2.24,0,0,1-.76.12,1.48,1.48,0,0,1-.79-.2,1.31,1.31,0,0,1-.52-.57,2,2,0,0,1-.19-.87V22a1.82,1.82,0,0,1,.38-1.24,1.31,1.31,0,0,1,1.06-.45,1.43,1.43,0,0,1,.94.29,1.21,1.21,0,0,1,.41.84H302a.67.67,0,0,0-.73-.64.72.72,0,0,0-.63.3,1.54,1.54,0,0,0-.22.87v.27a1.42,1.42,0,0,0,.24.88.79.79,0,0,0,.67.32.91.91,0,0,0,.67-.22v-.69h-.73v-.46h1.33Z"/><path class="cls-10" d="M304.61,21.81a1,1,0,0,0-.24,0,.53.53,0,0,0-.54.31v1.79h-.59V21.27h.56v.29a.69.69,0,0,1,.59-.34.41.41,0,0,1,.21,0Z"/><path class="cls-10" d="M306.47,23.89a.85.85,0,0,1-.07-.25.89.89,0,0,1-.69.29.92.92,0,0,1-.64-.22.79.79,0,0,1,.06-1.2,1.52,1.52,0,0,1,.89-.22h.36v-.17a.49.49,0,0,0-.11-.33.46.46,0,0,0-.35-.12.52.52,0,0,0-.33.1.32.32,0,0,0-.12.25h-.59a.69.69,0,0,1,.14-.4,1.05,1.05,0,0,1,.39-.29,1.35,1.35,0,0,1,.55-.11,1.12,1.12,0,0,1,.73.23.86.86,0,0,1,.28.65v1.18a1.25,1.25,0,0,0,.1.56v.05Zm-.65-.43a.73.73,0,0,0,.33-.08.57.57,0,0,0,.23-.23v-.49h-.32a.94.94,0,0,0-.49.11.36.36,0,0,0-.16.32.34.34,0,0,0,.11.27A.44.44,0,0,0,305.82,23.46Z"/><path class="cls-10" d="M308.13,21.27v.3a1,1,0,0,1,.77-.35c.54,0,.82.31.83.94v1.73h-.59v-1.7a.56.56,0,0,0-.11-.37.45.45,0,0,0-.35-.12.57.57,0,0,0-.53.32v1.87h-.59V21.27Z"/><path class="cls-10" d="M311.07,20.64v.63h.46v.44h-.46v1.46a.29.29,0,0,0,.06.21.25.25,0,0,0,.21.07.76.76,0,0,0,.21,0v.46a1.35,1.35,0,0,1-.39.05c-.45,0-.68-.25-.68-.74V21.71h-.43v-.44h.43v-.63Z"/><rect class="cls-6" x="299.79" y="36.36" width="10.75" height="2.07"/><rect class="cls-6" x="299.79" y="40.1" width="6.37" height="2.07"/><rect class="cls-6" x="308.34" y="40.01" width="6.37" height="2.07"/></svg>