<svg id="Layer_1" data-name="Layer 1" xmlns="http://www.w3.org/2000/svg" xmlns:xlink="http://www.w3.org/1999/xlink" viewBox="0 0 408.83 262.75"><defs><style>.cls-1,.cls-18,.cls-19,.cls-2,.cls-20,.cls-21,.cls-25,.cls-28,.cls-29,.cls-3,.cls-32,.cls-39,.cls-48,.cls-8,.cls-9{fill:none;}.cls-10,.cls-18,.cls-19,.cls-2,.cls-20,.cls-21,.cls-24,.cls-25,.cls-26,.cls-3,.cls-33,.cls-4,.cls-48,.cls-6,.cls-8,.cls-9{stroke:#323e50;}.cls-10,.cls-18,.cls-19,.cls-2,.cls-20,.cls-21,.cls-24,.cls-25,.cls-26,.cls-28,.cls-29,.cls-3,.cls-30,.cls-32,.cls-33,.cls-39,.cls-4,.cls-48,.cls-49,.cls-6,.cls-8,.cls-9{stroke-miterlimit:10;}.cls-2{stroke-width:4px;}.cls-24,.cls-3{stroke-width:0.87px;}.cls-24,.cls-33,.cls-36,.cls-4{fill:#f3f6f7;}.cls-4{stroke-width:0.64px;}.cls-30,.cls-5{fill:#c8cbcf;}.cls-26,.cls-34,.cls-49,.cls-6{fill:#fff;}.cls-6,.cls-8{stroke-width:0.68px;}.cls-7{fill:#4298d3;}.cls-10,.cls-11{fill:#323e50;}.cls-10,.cls-48{stroke-width:0.86px;}.cls-12{fill:#a93734;}.cls-13{fill:#344155;}.cls-14{fill:#f8ba98;}.cls-15{fill:#39485d;}.cls-16{fill:#835946;}.cls-17{fill:#72221c;}.cls-18{stroke-width:2.58px;}.cls-19{stroke-width:1.72px;}.cls-20{stroke-width:0.82px;stroke-dasharray:2.35;}.cls-21{stroke-width:1.01px;stroke-dasharray:2.9;}.cls-22{fill:#36a9e1;}.cls-23{fill:#e24030;}.cls-25{stroke-width:1.04px;}.cls-27{fill:#2cb195;}.cls-28{stroke:#39485d;}.cls-29,.cls-30,.cls-32,.cls-39,.cls-49{stroke:#c8cbcf;}.cls-29{stroke-width:0.89px;}.cls-30{stroke-width:0.7px;}.cls-31{fill:#9eaaaa;}.cls-35{fill:#879191;}.cls-37{clip-path:url(#clip-path);}.cls-38{fill:#d14c16;}.cls-39{stroke-width:0.3px;}.cls-40{fill:#45a9e0;}.cls-41{fill:#13110c;}.cls-42{fill:#383f51;}.cls-43{fill:#333f51;}.cls-44{fill:#37a9e1;}.cls-45{fill:#3a485e;}.cls-46{fill:#e04231;}.cls-47{fill:#1d1d1b;}.cls-50{opacity:0.5;}</style><clipPath id="clip-path"><rect class="cls-1" x="210.32" y="121.8" width="82.38" height="50.16" rx="1"/></clipPath></defs><line class="cls-2" x1="69.74" y1="142.16" x2="102.36" y2="131.96"/><line class="cls-3" x1="343.91" y1="191.62" x2="185.5" y2="191.62"/><path class="cls-4" d="M83.79,80.27h7.5c5,0,5-4,5-9V69.11H83.79Z"/><path class="cls-5" d="M91.62,80.25V69.38h-4v7.5c0,1.68,1.67,3.08,3.85,3.35v0Z"/><path class="cls-6" d="M87.77,75.65V53.73h-21V75.65a4.62,4.62,0,0,0,4.63,4.62h20.2V80.2A4.62,4.62,0,0,1,87.77,75.65Z"/><rect class="cls-7" x="69.77" y="57.41" width="7.45" height="7.45"/><line class="cls-8" x1="69.77" y1="67.73" x2="85.05" y2="67.73"/><line class="cls-8" x1="69.77" y1="69.73" x2="85.05" y2="69.73"/><line class="cls-8" x1="69.77" y1="71.73" x2="85.05" y2="71.73"/><line class="cls-8" x1="69.77" y1="73.72" x2="85.05" y2="73.72"/><line class="cls-8" x1="79.21" y1="58.14" x2="85.05" y2="58.14"/><line class="cls-8" x1="79.21" y1="60.14" x2="85.05" y2="60.14"/><line class="cls-8" x1="79.21" y1="62.14" x2="85.05" y2="62.14"/><line class="cls-8" x1="79.21" y1="64.13" x2="85.05" y2="64.13"/><circle class="cls-9" cx="80.29" cy="69" r="25.62"/><rect class="cls-10" x="350.05" y="203.5" width="4.77" height="41.23" rx="1" transform="translate(704.86 448.22) rotate(180)"/><rect class="cls-10" x="371.94" y="134.07" width="4.77" height="68.49" rx="1" transform="translate(748.64 336.63) rotate(180)"/><path class="cls-5" d="M321.74,235.06v10.61s-7.36,6.77-7.36,0v-6.78Z"/><path class="cls-11" d="M322.32,244.87a37.31,37.31,0,0,1,2.07,5.89c.17,1.44-17.18,1.14-20.38-.62-1.77-1,1.24-3.29,3.11-4.12C311.41,244.11,322.32,244.87,322.32,244.87Z"/><path class="cls-12" d="M359.48,185.21c2.4,1.2,2.12,9.51,0,11.2-7.73,6.18-36.47-1-38.79,0-3.21,1.38,2,41.64,2,41.64l-10,.84s-8.62-31.66-4.11-51.64C310,181.06,351.23,181.1,359.48,185.21Z"/><path class="cls-13" d="M337.25,155.88s15.62,8.22,23.25,7.75l-.07,7.39c-10.32-1.68-23.23-7.51-23.23-7.51Z"/><path class="cls-14" d="M349.18,133.57v-8.84a55.43,55.43,0,0,0,4.09-5.5A69.44,69.44,0,0,0,356,111l-22.78-8-.78,1s-1.5,13.81,0,18.07c.62,1.78,2.86,5.54,4.71,5.89.89.17,3.5.38,3.5.38l1,11Z"/><path class="cls-15" d="M341.88,139.42l7.39-8s11.13,5,13.82,8c5.77,6.3,12.37,22.08,9.72,28.56-3.94,9.64-35.46-4.62-35.46-4.62l0-7.62s20.46,10.76,26,6.95c1-.71.39-3.82,0-5a18.15,18.15,0,0,0-2.65-3.54l-.3,31.82h-26.8v-22.1s-1.14,5.8-1.77,7.66c-1.26,3.75-6.48,14.44-6.48,14.44h-6.48s4.44-13.1,5.3-16.65c2-8.1,2-23.06,5.08-29.68,1.84-3.92,10.53-8.17,10.53-8.17h1.48Z"/><path class="cls-13" d="M360.55,170.87c5.81.95,10.82.58,12.23-2.89,2.66-6.48-3.95-22.26-9.72-28.56a13.81,13.81,0,0,0-2.59-2Zm.07-7.39.09-9.34a18.15,18.15,0,0,1,2.65,3.54c.39,1.19,1,4.3,0,5A5.44,5.44,0,0,1,360.62,163.48Z"/><path class="cls-16" d="M351.47,122.18c1.71.53,3.56-4.25,3.93-6a28.12,28.12,0,0,0,0-9.51c-.71-2.67-1.34-8.85-13.36-8.83-2.79,0-9.65,2-9.65,7.43,0,1.74,4,2.34,5.53,2.53a44.16,44.16,0,0,1,7.46,1.23c1.34.49,3.62,3.68,4.36,4.91C351.06,116.13,349,121.42,351.47,122.18Z"/><path class="cls-14" d="M348.56,115.11c0,1.41.7,2.55,1.57,2.55s1.57-1.14,1.57-2.55-.7-2.55-1.57-2.55S348.56,113.7,348.56,115.11Z"/><path class="cls-14" d="M337.32,156.48s-1.84-2.1-2.7-2.13c-2,0-6.33,2.65-6.57,4.64-.14,1,2.12,3.67,2.12,3.67h7.15Z"/><path class="cls-5" d="M317.44,236.13v10.6s-7.37,6.78-7.37,0V240Z"/><path class="cls-13" d="M337.36,155.88s15.62,8.22,23.26,7.75l-.07,7.39c-10.33-1.68-23.23-7.51-23.23-7.51Z"/><path class="cls-17" d="M359.39,185.21c2.53,1.2,2.23,9.51,0,11.2-8.16,6.18-38.49-1-40.94,0-3.39,1.38,1.64,41.64,1.64,41.64l-10,1.91s-9.19-32.73-4.43-52.71C307.11,181.06,350.68,181.1,359.39,185.21Z"/><path class="cls-11" d="M318.09,246.8a38.86,38.86,0,0,1,2,5.89c.16,1.44-16.53,1.14-19.61-.62-1.71-1,1.19-3.29,3-4.12C307.6,246,318.09,246.8,318.09,246.8Z"/><rect class="cls-10" x="325.89" y="200.68" width="50.31" height="5.64" rx="1" transform="translate(702.1 406.99) rotate(180)"/><line class="cls-18" x1="334.21" y1="249.63" x2="352.7" y2="244.36"/><line class="cls-18" x1="368.54" y1="249.63" x2="352.7" y2="244.36"/><path class="cls-11" d="M336.45,251a3.1,3.1,0,1,1-3.1-3.09A3.1,3.1,0,0,1,336.45,251Z"/><path class="cls-11" d="M373.35,251a3.1,3.1,0,1,1-3.09-3.09A3.09,3.09,0,0,1,373.35,251Z"/><line class="cls-19" x1="352.43" y1="242.94" x2="352.43" y2="255.28"/><circle class="cls-11" cx="352.43" cy="256.7" r="3.09"/><path class="cls-16" d="M340.05,100.33c1.74-4,14-2.35,17.3.41,4.22,3.5,6.16,16.21,4.58,21.46-2.44,8.08-17.38,25.07-25.38,22.24-4.54-1.6,6.6-14,6.6-14s5.32-9.31,5.22-12.75C348.23,112.91,338.11,104.74,340.05,100.33Z"/><circle class="cls-16" cx="346.16" cy="100.28" r="5.62"/><circle class="cls-16" cx="354.82" cy="104.09" r="5.62"/><circle class="cls-16" cx="358.24" cy="111.52" r="5.62"/><circle class="cls-16" cx="358.24" cy="119.35" r="5.62"/><circle class="cls-16" cx="355.11" cy="124.98" r="5.62"/><circle class="cls-9" cx="326.1" cy="30.5" r="25.73" transform="translate(221.49 340.87) rotate(-76.72)"/><polyline class="cls-20" points="277.86 121.04 256.03 121.04 256.03 81.05"/><polyline class="cls-21" points="288.58 123.27 288.58 31.56 296.43 31.56"/><polyline class="cls-21" points="232.96 135.2 232.96 87.42 180.43 87.44 180.43 79.14"/><circle class="cls-22" cx="256.03" cy="81.92" r="1.81"/><path class="cls-22" d="M298.43,31.56a1.81,1.81,0,1,1-1.81-1.81A1.81,1.81,0,0,1,298.43,31.56Z"/><path class="cls-22" d="M182.19,77.07a1.82,1.82,0,1,1-1.81-1.81A1.81,1.81,0,0,1,182.19,77.07Z"/><circle class="cls-23" cx="215.09" cy="123.86" r="1.12"/><path class="cls-24" d="M43.27,136.92h55a4,4,0,0,1,4,4v48.94a0,0,0,0,1,0,0h-63a0,0,0,0,1,0,0V140.92A4,4,0,0,1,43.27,136.92Z"/><line class="cls-25" x1="185.5" y1="191.62" x2="28.58" y2="191.62"/><rect class="cls-26" x="44.5" y="142.59" width="26.27" height="12.01" rx="1"/><rect class="cls-27" x="62.5" y="144.75" width="5.25" height="8.25" rx="1"/><rect class="cls-5" x="47.5" y="149.44" width="6.03" height="3.56" rx="1"/><rect class="cls-5" x="54.97" y="149.44" width="6.03" height="3.56" rx="1"/><line class="cls-28" x1="48.5" y1="146.75" x2="60.75" y2="146.75"/><line class="cls-20" x1="80.6" y1="132.6" x2="80.6" y2="97.6"/><circle class="cls-22" cx="80.6" cy="98.47" r="1.81"/><rect class="cls-11" x="141.93" y="174.97" width="26.03" height="4.09" transform="translate(-22.07 331.97) rotate(-90)"/><rect class="cls-29" x="44.61" y="162.66" width="52.79" height="16.67" rx="1"/><path class="cls-30" d="M66.64,162.91h8.71a0,0,0,0,1,0,0v2.89a1,1,0,0,1-1,1H67.64a1,1,0,0,1-1-1v-2.89A0,0,0,0,1,66.64,162.91Z"/><rect class="cls-11" x="39.27" y="185.96" width="63" height="3.91"/><rect class="cls-11" x="136.05" y="174.97" width="26.03" height="4.09" transform="translate(-27.96 326.09) rotate(-90)"/><rect class="cls-11" x="153.7" y="174.97" width="26.03" height="4.09" transform="translate(-10.31 343.73) rotate(-90)"/><rect class="cls-11" x="147.82" y="174.97" width="26.03" height="4.09" transform="translate(-16.19 337.85) rotate(-90)"/><rect class="cls-31" x="165.91" y="175.11" width="26.03" height="4.09" transform="translate(77.67 407.68) rotate(-111)"/><line class="cls-32" x1="109.62" y1="190.13" x2="143.17" y2="190.13"/><line class="cls-32" x1="109.06" y1="188.65" x2="142.61" y2="188.65"/><line class="cls-32" x1="109.34" y1="187.17" x2="142.89" y2="187.17"/><line class="cls-32" x1="108.79" y1="185.69" x2="142.34" y2="185.69"/><rect class="cls-11" x="249.2" y="177.08" width="4.79" height="12.58"/><rect class="cls-33" x="206.09" y="117.66" width="91.49" height="63.47" rx="4"/><rect class="cls-34" x="210.63" y="121.58" width="82.16" height="13.29"/><circle class="cls-23" cx="213.37" cy="124.39" r="1.12"/><line class="cls-9" x1="210.63" y1="127.74" x2="292.57" y2="127.74"/><rect class="cls-11" x="241.72" y="189.28" width="19.76" height="1.35"/><path class="cls-35" d="M281,132.19c0,.09-.14.17-.31.17H269.59c-.17,0-.31-.08-.31-.17v-1.66c0-.1.14-.17.31-.17h11.09c.17,0,.31.07.31.17Z"/><path class="cls-22" d="M245.08,132.14a.17.17,0,0,1-.17.17H238.7a.17.17,0,0,1-.17-.17v-1.66a.17.17,0,0,1,.17-.17h6.21a.17.17,0,0,1,.17.17Z"/><rect class="cls-22" x="245.63" y="130.31" width="6.4" height="2" rx="0.17"/><path class="cls-22" d="M257.92,132.14a.15.15,0,0,1-.14.17h-5.11a.15.15,0,0,1-.14-.17v-1.66a.15.15,0,0,1,.14-.17h5.11a.15.15,0,0,1,.14.17Z"/><path class="cls-22" d="M265.09,132.14a.17.17,0,0,1-.18.17h-6.26a.17.17,0,0,1-.17-.17v-1.66a.17.17,0,0,1,.17-.17h6.26a.17.17,0,0,1,.18.17Z"/><path class="cls-22" d="M281.56,130.94h.08v.65h.4v.07h-.48Z"/><path class="cls-22" d="M282.09,131.39a.28.28,0,1,1,.55,0,.28.28,0,0,1-.55,0Zm.47,0a.19.19,0,0,0-.19-.21.2.2,0,0,0-.21.21.21.21,0,0,0,.21.21A.2.2,0,0,0,282.56,131.39Z"/><path class="cls-22" d="M283.29,131.12v.47a.24.24,0,0,1-.27.27.37.37,0,0,1-.25-.08l0-.06a.3.3,0,0,0,.21.07c.14,0,.2-.06.2-.19v-.07a.24.24,0,0,1-.21.11.27.27,0,1,1,0-.53.24.24,0,0,1,.21.11v-.1Zm-.08.25a.2.2,0,0,0-.4,0,.2.2,0,0,0,.4,0Z"/><path class="cls-22" d="M283.74,131a.05.05,0,0,1,.05,0s.06,0,.06,0,0,.05-.06.05A.05.05,0,0,1,283.74,131Zm0,.17h.07v.54h-.07Z"/><path class="cls-22" d="M284.53,131.34v.32h-.07v-.31a.15.15,0,0,0-.17-.17.17.17,0,0,0-.18.19v.29H284v-.54h.06v.1a.22.22,0,0,1,.21-.11A.21.21,0,0,1,284.53,131.34Z"/><path class="cls-22" d="M284.94,131.39a.27.27,0,0,1,.28-.28.27.27,0,0,1,.27.28.26.26,0,0,1-.27.27A.27.27,0,0,1,284.94,131.39Zm.48,0a.2.2,0,0,0-.2-.21.19.19,0,0,0-.2.21.2.2,0,0,0,.2.21A.2.2,0,0,0,285.42,131.39Z"/><path class="cls-22" d="M285.91,131.11v.07h0a.18.18,0,0,0-.18.2v.28h-.07v-.54h.07v.1A.2.2,0,0,1,285.91,131.11Z"/><path class="cls-22" d="M286.82,131.66l-.16-.23h-.25v.23h-.08v-.72h.27c.19,0,.29.09.29.25a.21.21,0,0,1-.16.22l.18.25Zm0-.47c0-.12-.08-.18-.22-.18h-.19v.36h.19C286.74,131.37,286.82,131.3,286.82,131.19Z"/><path class="cls-22" d="M287.53,131.41h-.45a.2.2,0,0,0,.21.19.26.26,0,0,0,.17-.07l0,0a.27.27,0,0,1-.21.09.26.26,0,0,1-.28-.27.26.26,0,1,1,.52,0Zm-.45,0h.38a.19.19,0,0,0-.38,0Z"/><path class="cls-22" d="M288.18,131.12v.47a.23.23,0,0,1-.27.27.37.37,0,0,1-.25-.08l0-.06a.28.28,0,0,0,.21.07c.13,0,.2-.06.2-.19v-.07a.26.26,0,0,1-.21.11.27.27,0,1,1,0-.53.25.25,0,0,1,.21.11v-.1Zm-.07.25a.2.2,0,0,0-.21-.19.19.19,0,0,0-.2.19.19.19,0,0,0,.2.2A.2.2,0,0,0,288.11,131.37Z"/><path class="cls-22" d="M288.37,131a.05.05,0,1,1,.05.05A0,0,0,0,1,288.37,131Zm0,.17h.08v.54h-.08Z"/><path class="cls-22" d="M288.58,131.59l0-.05a.33.33,0,0,0,.19.06c.1,0,.14,0,.14-.09s-.35,0-.35-.24.08-.16.22-.16a.41.41,0,0,1,.19,0l0,.06a.26.26,0,0,0-.15,0c-.1,0-.14,0-.14.09s.34,0,.34.24-.08.15-.22.15A.36.36,0,0,1,288.58,131.59Z"/><path class="cls-22" d="M289.44,131.62a.15.15,0,0,1-.11,0,.15.15,0,0,1-.16-.16v-.32h-.09v-.06h.09V131h.07v.12h.17v.06h-.17v.32a.09.09,0,0,0,.1.1.11.11,0,0,0,.08,0Z"/><path class="cls-22" d="M290,131.41h-.45a.21.21,0,0,0,.22.19.24.24,0,0,0,.16-.07l0,0a.26.26,0,0,1-.21.09.28.28,0,1,1,.25-.27Zm-.45,0H290a.19.19,0,0,0-.2-.18A.19.19,0,0,0,289.57,131.36Z"/><path class="cls-22" d="M290.45,131.11v.07h0a.18.18,0,0,0-.18.2v.28h-.07v-.54h.06v.1A.22.22,0,0,1,290.45,131.11Z"/><rect class="cls-11" x="210.63" y="134.86" width="82.16" height="7.93"/><rect class="cls-36" x="210.63" y="142.8" width="82.16" height="28.94"/><rect class="cls-34" x="231.36" y="144.29" width="12.3" height="19.1" rx="1"/><rect class="cls-5" x="233.15" y="150.84" width="8.73" height="1.78"/><rect class="cls-5" x="233.15" y="154.17" width="8.73" height="0.65"/><rect class="cls-5" x="233.15" y="155.19" width="8.73" height="0.65"/><rect class="cls-5" x="233.15" y="156.21" width="8.73" height="0.65"/><path class="cls-34" d="M223.62,139.08v.71h-.33v-1.92H224a.77.77,0,0,1,.51.17.62.62,0,0,1,0,.88.83.83,0,0,1-.52.16Zm0-.27h.4a.37.37,0,0,0,.27-.09.3.3,0,0,0,.09-.24.33.33,0,0,0-.35-.34h-.41Z"/><path class="cls-34" d="M224.9,139.06a.87.87,0,0,1,.08-.37.61.61,0,0,1,.24-.26.64.64,0,0,1,.34-.09.63.63,0,0,1,.47.18.74.74,0,0,1,.19.49v.08a.79.79,0,0,1-.09.38.56.56,0,0,1-.23.25.65.65,0,0,1-.35.09.61.61,0,0,1-.48-.2.76.76,0,0,1-.18-.53Zm.32,0a.55.55,0,0,0,.09.34.29.29,0,0,0,.25.13.29.29,0,0,0,.26-.13.63.63,0,0,0,.09-.37.51.51,0,0,0-.1-.34.31.31,0,0,0-.5,0A.61.61,0,0,0,225.22,139.09Z"/><path class="cls-34" d="M226.84,139.79h-.32v-2h.32Z"/><path class="cls-34" d="M227.19,138a.16.16,0,0,1,0-.12.2.2,0,0,1,.14-.05.19.19,0,0,1,.13.05.17.17,0,0,1,0,.24.15.15,0,0,1-.13,0,.16.16,0,0,1-.14,0A.16.16,0,0,1,227.19,138Zm.34,1.8h-.32v-1.43h.32Z"/><path class="cls-34" d="M228.46,139.56a.27.27,0,0,0,.2-.07.25.25,0,0,0,.08-.17h.3a.43.43,0,0,1-.08.24.55.55,0,0,1-.21.19.68.68,0,0,1-.29.06.6.6,0,0,1-.47-.19.76.76,0,0,1-.18-.53v0a.75.75,0,0,1,.18-.52.58.58,0,0,1,.47-.19.6.6,0,0,1,.42.15.5.5,0,0,1,.16.38h-.3a.3.3,0,0,0-.08-.2.28.28,0,0,0-.2-.08.29.29,0,0,0-.24.12.53.53,0,0,0-.09.34v0a.53.53,0,0,0,.09.34A.26.26,0,0,0,228.46,139.56Z"/><path class="cls-34" d="M229.78,139.33l.29-1h.34l-.56,1.64a.47.47,0,0,1-.45.36l-.15,0v-.25h.06a.3.3,0,0,0,.18,0,.24.24,0,0,0,.1-.15l0-.12-.5-1.42h.34Z"/><rect class="cls-34" x="245.36" y="144.29" width="12.3" height="19.1" rx="1"/><rect class="cls-5" x="247.15" y="150.84" width="8.73" height="1.78"/><rect class="cls-5" x="247.15" y="154.17" width="8.73" height="0.65"/><rect class="cls-5" x="247.15" y="155.19" width="8.73" height="0.65"/><rect class="cls-5" x="247.15" y="156.21" width="8.73" height="0.65"/><path class="cls-34" d="M213.95,144.29h13.34a1,1,0,0,1,1,1v25.8a0,0,0,0,1,0,0H212.95a0,0,0,0,1,0,0v-25.8A1,1,0,0,1,213.95,144.29Z"/><rect class="cls-34" x="259.2" y="144.29" width="12.3" height="19.1" rx="1"/><rect class="cls-5" x="260.99" y="150.84" width="8.73" height="1.78"/><rect class="cls-5" x="260.99" y="154.17" width="8.73" height="0.65"/><rect class="cls-5" x="260.99" y="155.19" width="8.73" height="0.65"/><rect class="cls-5" x="260.99" y="156.21" width="8.73" height="0.65"/><rect class="cls-34" x="273.2" y="144.29" width="12.3" height="19.1" rx="1"/><rect class="cls-5" x="274.98" y="150.84" width="8.73" height="1.78"/><rect class="cls-5" x="274.98" y="154.17" width="8.73" height="0.65"/><g class="cls-37"><rect class="cls-34" x="231.32" y="164.5" width="12.3" height="19.1" rx="1"/><rect class="cls-5" x="233.11" y="171.04" width="8.73" height="1.78"/><rect class="cls-5" x="233.11" y="174.37" width="8.73" height="0.65"/><rect class="cls-5" x="233.11" y="175.39" width="8.73" height="0.65"/><rect class="cls-5" x="233.11" y="176.41" width="8.73" height="0.65"/><rect class="cls-34" x="245.32" y="164.5" width="12.3" height="19.1" rx="1"/><rect class="cls-5" x="247.11" y="171.04" width="8.73" height="1.78"/><rect class="cls-5" x="247.11" y="174.37" width="8.73" height="0.65"/><rect class="cls-5" x="247.11" y="175.39" width="8.73" height="0.65"/><rect class="cls-5" x="247.11" y="176.41" width="8.73" height="0.65"/><rect class="cls-34" x="259.16" y="164.5" width="12.3" height="19.1" rx="1"/><rect class="cls-5" x="260.94" y="171.04" width="8.73" height="1.78"/><rect class="cls-5" x="260.94" y="174.37" width="8.73" height="0.65"/><rect class="cls-5" x="260.94" y="175.39" width="8.73" height="0.65"/><rect class="cls-5" x="260.94" y="176.41" width="8.73" height="0.65"/><rect class="cls-34" x="273.16" y="164.5" width="12.3" height="19.1" rx="1"/><rect class="cls-5" x="274.94" y="171.04" width="8.73" height="1.78"/><rect class="cls-5" x="274.94" y="174.37" width="8.73" height="0.65"/><rect class="cls-5" x="274.94" y="175.39" width="8.73" height="0.65"/><circle class="cls-22" cx="279.35" cy="167.74" r="1.08"/><rect class="cls-5" x="274.94" y="176.41" width="8.73" height="0.65"/><g id="icon-server"><path class="cls-34" d="M279.35,167.11l.21,0,.19,0a.4.4,0,0,1,.13.07.11.11,0,0,1,.05.1v.8a.11.11,0,0,1-.05.1.27.27,0,0,1-.13.07.58.58,0,0,1-.19,0l-.21,0-.21,0a.58.58,0,0,1-.19,0,.27.27,0,0,1-.13-.07.14.14,0,0,1-.05-.1v-.8a.14.14,0,0,1,.05-.1.4.4,0,0,1,.13-.07l.19,0Zm.48,1v-.26l-.21.07-.27,0-.27,0-.21-.07v.26l0,0,.06,0,.09,0,.13,0h.34l.13,0,.09,0,.06,0S279.83,168.15,279.83,168.14Zm0-.4v-.26l-.21.07-.27,0-.27,0-.21-.07v.26s0,0,0,0l.06,0a.12.12,0,0,0,.09,0l.13,0h.34l.13,0a.12.12,0,0,0,.09,0l.06,0s0,0,0,0Zm-.48-.51h-.17l-.13,0-.09,0-.06,0,0,0s0,0,0,0l.06,0,.09,0,.13,0h.34l.13,0,.09,0,.06,0s0,0,0,0l0,0-.06,0-.09,0-.13,0Z"/></g></g><rect class="cls-5" x="274.98" y="155.19" width="8.73" height="0.65"/><rect class="cls-5" x="274.98" y="156.21" width="8.73" height="0.65"/><rect class="cls-9" x="210.41" y="121.58" width="82.38" height="50.16" rx="1"/><rect class="cls-5" x="214.57" y="149.52" width="9.99" height="0.89"/><rect class="cls-22" x="226.21" y="149.46" width="1.01" height="1.01"/><rect class="cls-5" x="214.57" y="151.24" width="9.99" height="0.89"/><rect class="cls-22" x="226.21" y="151.18" width="1.01" height="1.01"/><rect class="cls-5" x="214.57" y="152.96" width="9.99" height="0.89"/><rect class="cls-22" x="226.21" y="152.9" width="1.01" height="1.01"/><rect class="cls-5" x="214.57" y="154.68" width="9.99" height="0.89"/><rect class="cls-22" x="226.21" y="154.62" width="1.01" height="1.01"/><rect class="cls-5" x="214.57" y="161.93" width="9.99" height="0.89"/><rect class="cls-22" x="226.21" y="161.87" width="1.01" height="1.01"/><rect class="cls-5" x="214.57" y="163.81" width="9.99" height="0.89"/><rect class="cls-22" x="226.21" y="163.74" width="1.01" height="1.01"/><rect class="cls-5" x="214.57" y="165.68" width="9.99" height="0.89"/><rect class="cls-22" x="226.21" y="165.62" width="1.01" height="1.01"/><rect class="cls-5" x="214.57" y="167.56" width="9.99" height="0.89"/><rect class="cls-22" x="226.21" y="167.5" width="1.01" height="1.01"/><rect class="cls-5" x="214.57" y="156.41" width="9.99" height="0.89"/><rect class="cls-22" x="226.21" y="156.35" width="1.01" height="1.01"/><path class="cls-22" d="M266.43,167.73a1.08,1.08,0,1,1-1.08-1.08A1.08,1.08,0,0,1,266.43,167.73Z"/><g id="icon-server-2" data-name="icon-server"><path class="cls-34" d="M265.35,167.1l.21,0,.19,0a.4.4,0,0,1,.13.07.11.11,0,0,1,.05.1v.8a.11.11,0,0,1-.05.1.27.27,0,0,1-.13.07.58.58,0,0,1-.19,0l-.21,0-.21,0a.48.48,0,0,1-.18,0,.26.26,0,0,1-.14-.07.14.14,0,0,1-.05-.1v-.8a.14.14,0,0,1,.05-.1.37.37,0,0,1,.14-.07l.18,0Zm.48,1v-.26l-.21.07-.27,0-.27,0a.77.77,0,0,1-.2-.07v.26l0,0,.06,0,.09,0,.13,0h.34l.13,0,.1,0,.06,0Zm0-.4v-.26l-.21.07-.27,0-.27,0a.77.77,0,0,1-.2-.07v.26s0,0,0,0l.06,0a.14.14,0,0,0,.09,0l.13,0h.34l.13,0a.17.17,0,0,0,.1,0l.06,0a0,0,0,0,0,0,0Zm-.48-.51h-.16l-.14,0-.09,0-.06,0s0,0,0,0l0,0,.06,0,.09,0,.14,0h.33l.13,0,.09,0,.06,0,0,0s0,0,0,0l-.06,0-.09,0-.13,0Z"/></g><circle class="cls-22" cx="265.35" cy="147.74" r="1.08"/><g id="icon-server-3" data-name="icon-server"><path class="cls-34" d="M265.35,147.11h.21l.19,0a.27.27,0,0,1,.13.07.11.11,0,0,1,.05.1v.8a.11.11,0,0,1-.05.1.4.4,0,0,1-.13.07l-.19,0-.21,0-.21,0-.18,0a.37.37,0,0,1-.14-.07.14.14,0,0,1-.05-.1v-.8a.14.14,0,0,1,.05-.1.26.26,0,0,1,.14-.07l.18,0Zm.48,1v-.26a.65.65,0,0,1-.21.06,1.23,1.23,0,0,1-.54,0,.52.52,0,0,1-.2-.06v.26s0,0,0,0l.06,0,.09,0,.13,0h.34l.13,0,.1,0,.06,0Zm0-.4v-.26a.65.65,0,0,1-.21.06,1.23,1.23,0,0,1-.54,0,.52.52,0,0,1-.2-.06v.26l0,0,.06,0,.09,0,.13,0h.34l.13,0,.1,0,.06,0,0,0Zm-.48-.52h-.16l-.14,0-.09,0-.06,0,0,0,0,0,.06,0,.09,0,.14,0h.33l.13,0,.09,0,.06,0,0,0s0,0,0,0l-.06,0-.09,0-.13,0Z"/></g><circle class="cls-22" cx="279.35" cy="147.74" r="1.08"/><g id="icon-server-4" data-name="icon-server"><path class="cls-34" d="M279.35,147.11h.21l.19,0a.27.27,0,0,1,.13.07.11.11,0,0,1,.05.1v.8a.11.11,0,0,1-.05.1.4.4,0,0,1-.13.07l-.19,0-.21,0-.21,0-.19,0a.4.4,0,0,1-.13-.07.14.14,0,0,1-.05-.1v-.8a.14.14,0,0,1,.05-.1.27.27,0,0,1,.13-.07l.19,0Zm.48,1v-.26a.65.65,0,0,1-.21.06,1.23,1.23,0,0,1-.54,0,.65.65,0,0,1-.21-.06v.26l0,0,.06,0,.09,0,.13,0h.34l.13,0,.09,0,.06,0Zm0-.4v-.26a.65.65,0,0,1-.21.06,1.23,1.23,0,0,1-.54,0,.65.65,0,0,1-.21-.06v.26l0,0,.06,0,.09,0,.13,0h.34l.13,0,.09,0,.06,0,0,0Zm-.48-.52h-.17l-.13,0-.09,0-.06,0s0,0,0,0l0,0,.06,0,.09,0,.13,0h.34l.13,0,.09,0,.06,0,0,0s0,0,0,0l-.06,0-.09,0-.13,0Z"/></g><path class="cls-22" d="M238.53,147.67a1.08,1.08,0,1,1-1.08-1.09A1.08,1.08,0,0,1,238.53,147.67Z"/><g id="icon-server-5" data-name="icon-server"><path class="cls-34" d="M237.45,147h.21l.18,0a.37.37,0,0,1,.14.07.16.16,0,0,1,.05.11v.79a.16.16,0,0,1-.05.11.37.37,0,0,1-.14.07l-.18,0h-.42l-.19,0a.4.4,0,0,1-.13-.07.13.13,0,0,1,0-.11v-.79a.13.13,0,0,1,0-.11.4.4,0,0,1,.13-.07l.19,0Zm.48,1v-.26a.65.65,0,0,1-.21.07,1.83,1.83,0,0,1-.54,0,.65.65,0,0,1-.21-.07v.26s0,0,0,0l.06,0,.09,0,.13,0h.34l.13,0,.09,0,.06,0Zm0-.4v-.26a.65.65,0,0,1-.21.07,1.83,1.83,0,0,1-.54,0,.65.65,0,0,1-.21-.07v.27l0,0,.06,0,.09,0,.13,0h.34l.13,0,.09,0,.06,0,0,0Zm-.48-.51h-.17l-.13,0-.09,0-.06,0s0,0,0,0l0,0,.06,0,.09,0,.13,0h.34l.13,0,.09,0,.06,0,0,0,0,0-.06,0-.09,0-.13,0Z"/></g><path class="cls-22" d="M252.53,147.67a1.08,1.08,0,1,1-1.08-1.09A1.08,1.08,0,0,1,252.53,147.67Z"/><g id="icon-server-6" data-name="icon-server"><path class="cls-34" d="M251.45,147h.21l.18,0a.37.37,0,0,1,.14.07.16.16,0,0,1,.05.11v.79a.16.16,0,0,1-.05.11.37.37,0,0,1-.14.07l-.18,0h-.42l-.19,0a.4.4,0,0,1-.13-.07.13.13,0,0,1,0-.11v-.79a.13.13,0,0,1,0-.11.4.4,0,0,1,.13-.07l.19,0Zm.47,1v-.26a.52.52,0,0,1-.2.07,1.83,1.83,0,0,1-.54,0,.65.65,0,0,1-.21-.07v.26l0,0,.06,0,.1,0,.13,0h.34l.13,0,.09,0,.06,0S251.92,148.07,251.92,148.06Zm0-.4v-.26a.52.52,0,0,1-.2.07,1.83,1.83,0,0,1-.54,0,.65.65,0,0,1-.21-.07v.27l0,0,.06,0,.1,0,.13,0h.34l.13,0,.09,0,.06,0s0,0,0,0Zm-.47-.51h-.17l-.13,0-.09,0-.06,0s0,0,0,0l0,0,.06,0,.09,0,.13,0h.33l.14,0,.09,0,.06,0,0,0s0,0,0,0l-.06,0-.09,0-.14,0Z"/></g><path class="cls-22" d="M238.53,167.66a1.08,1.08,0,1,1-1.08-1.08A1.08,1.08,0,0,1,238.53,167.66Z"/><g id="icon-server-7" data-name="icon-server"><path class="cls-34" d="M237.45,167h.21l.18.05a.26.26,0,0,1,.14.07.14.14,0,0,1,.05.1v.8a.16.16,0,0,1-.05.1.37.37,0,0,1-.14.07l-.18,0-.21,0-.21,0-.19,0a.4.4,0,0,1-.13-.07.12.12,0,0,1,0-.1v-.8a.11.11,0,0,1,0-.1.27.27,0,0,1,.13-.07l.19-.05Zm.48,1v-.26a.65.65,0,0,1-.21.06l-.27,0-.27,0a.65.65,0,0,1-.21-.06v.26l0,0,.06,0,.09,0,.13,0h.34l.13,0,.09,0,.06,0Zm0-.4v-.26a.65.65,0,0,1-.21.06l-.27,0-.27,0a.65.65,0,0,1-.21-.06v.26l0,0,.06,0,.09,0,.13,0h.34l.13,0,.09,0,.06,0,0,0Zm-.48-.52h-.17l-.13,0-.09,0-.06,0,0,0,0,0,.06,0,.09,0,.13,0h.34l.13,0,.09,0,.06,0,0,0,0,0-.06,0-.09,0-.13,0Z"/></g><path class="cls-22" d="M252.53,167.66a1.08,1.08,0,1,1-1.08-1.08A1.08,1.08,0,0,1,252.53,167.66Z"/><g id="icon-server-8" data-name="icon-server"><path class="cls-34" d="M251.45,167h.21l.18.05a.26.26,0,0,1,.14.07.14.14,0,0,1,.05.1v.8a.16.16,0,0,1-.05.1.37.37,0,0,1-.14.07l-.18,0-.21,0-.21,0-.19,0a.4.4,0,0,1-.13-.07.12.12,0,0,1,0-.1v-.8a.11.11,0,0,1,0-.1.27.27,0,0,1,.13-.07l.19-.05Zm.47,1v-.26a.52.52,0,0,1-.2.06l-.27,0-.27,0a.65.65,0,0,1-.21-.06v.26l0,0,.06,0,.1,0,.13,0h.34l.13,0,.09,0,.06,0Zm0-.4v-.26a.52.52,0,0,1-.2.06l-.27,0-.27,0a.65.65,0,0,1-.21-.06v.26l0,0,.06,0,.1,0,.13,0h.34l.13,0,.09,0,.06,0,0,0Zm-.47-.52h-.17l-.13,0-.09,0-.06,0,0,0s0,0,0,0l.06,0,.09,0,.13,0h.33l.14,0,.09,0,.06,0s0,0,0,0l0,0-.06,0-.09,0-.14,0Z"/></g><rect class="cls-38" x="233.15" y="161.95" width="0.95" height="0.95"/><rect class="cls-27" x="235.35" y="161.95" width="0.95" height="0.95"/><rect class="cls-5" x="236.44" y="161.95" width="0.95" height="0.95"/><rect class="cls-11" x="234.25" y="161.95" width="0.95" height="0.95"/><rect class="cls-38" x="247.08" y="161.95" width="0.95" height="0.95"/><rect class="cls-5" x="249.28" y="161.95" width="0.95" height="0.95"/><rect class="cls-5" x="250.37" y="161.95" width="0.95" height="0.95"/><rect class="cls-5" x="248.18" y="161.95" width="0.95" height="0.95"/><rect class="cls-38" x="260.99" y="161.95" width="0.95" height="0.95"/><rect class="cls-27" x="263.18" y="161.95" width="0.95" height="0.95"/><rect class="cls-5" x="264.28" y="161.95" width="0.95" height="0.95"/><rect class="cls-11" x="262.08" y="161.95" width="0.95" height="0.95"/><rect class="cls-38" x="274.98" y="161.95" width="0.95" height="0.95"/><rect class="cls-27" x="277.18" y="161.95" width="0.95" height="0.95"/><rect class="cls-5" x="278.28" y="161.95" width="0.95" height="0.95"/><rect class="cls-5" x="276.08" y="161.95" width="0.95" height="0.95"/><rect class="cls-39" x="233.16" y="158.55" width="4.08" height="0.65"/><rect class="cls-39" x="237.93" y="158.55" width="2.64" height="0.65"/><rect class="cls-39" x="247.27" y="158.55" width="5.26" height="0.65"/><rect class="cls-39" x="261.07" y="158.55" width="4.08" height="0.65"/><rect class="cls-39" x="265.83" y="158.55" width="3.67" height="0.65"/><rect class="cls-39" x="275.05" y="158.55" width="3.08" height="0.65"/><rect class="cls-5" x="214.57" y="146.91" width="7.85" height="1.78"/><rect class="cls-5" x="214.57" y="159.18" width="7.85" height="1.78"/><path class="cls-40" d="M213.59,129.82V130h-1v.72h.93v.2h-.93v.86h-.23v-2Z"/><path class="cls-40" d="M215.11,131.3H214l-.22.51h-.24l.89-2h.24l.89,2h-.25Zm-.1-.21-.45-1-.44,1Z"/><path class="cls-40" d="M216.12,129.82v2h-.23v-2Z"/><path class="cls-40" d="M218,131.81l-.42-.63H217v.63h-.23v-2h.75c.5,0,.79.25.79.67a.61.61,0,0,1-.45.64l.47.68Zm-.55-.84c.36,0,.57-.16.57-.47s-.21-.47-.57-.47H217V131Z"/><path class="cls-41" d="M219.12,130.49c-.16,0-.29.06-.29.21,0,.33.83.16.83.7,0,.29-.26.42-.54.42a.83.83,0,0,1-.58-.21l.09-.16a.73.73,0,0,0,.49.19c.18,0,.32-.07.32-.22,0-.36-.82-.18-.82-.71,0-.28.25-.4.52-.4a.93.93,0,0,1,.48.13l-.09.17A.85.85,0,0,0,219.12,130.49Z"/><path class="cls-41" d="M221.41,130.89v.92h-.22V131a.39.39,0,0,0-.42-.43.51.51,0,0,0-.51.56v.73H220v-2.1h.22v.94a.58.58,0,0,1,.58-.34A.53.53,0,0,1,221.41,130.89Z"/><path class="cls-41" d="M222.84,131.81v-.23a.65.65,0,0,1-.55.24.46.46,0,0,1-.51-.45c0-.26.21-.43.56-.43h.49v-.09c0-.22-.14-.36-.4-.36a.79.79,0,0,0-.47.18l-.1-.16a1,1,0,0,1,.61-.2c.37,0,.58.2.58.51v1Zm0-.51v-.18h-.46c-.25,0-.38.07-.38.24s.13.28.34.28A.48.48,0,0,0,222.83,131.3Z"/><path class="cls-41" d="M224.3,130.31v.22a.49.49,0,0,0-.53.49v.79h-.22v-1.49h.22v.33A.55.55,0,0,1,224.3,130.31Z"/><path class="cls-41" d="M224.85,129.89a.14.14,0,1,1-.28,0,.14.14,0,1,1,.28,0Zm0,.43v1.49h-.22v-1.49Z"/><path class="cls-41" d="M226.73,130.89v.92h-.22V131a.39.39,0,0,0-.43-.43.5.5,0,0,0-.5.49v.8h-.22v-1.49h.22v.33a.59.59,0,0,1,.58-.34A.53.53,0,0,1,226.73,130.89Z"/><path class="cls-41" d="M228.53,130.32v1.34a.69.69,0,0,1-.76.71,1,1,0,0,1-.61-.22l.1-.16a.78.78,0,0,0,.51.19.5.5,0,0,0,.54-.52v-.23a.6.6,0,0,1-.56.32.72.72,0,0,1,0-1.44.61.61,0,0,1,.56.31v-.3Zm-.22.71a.52.52,0,0,0-.52-.54.54.54,0,0,0,0,1.08A.52.52,0,0,0,228.31,131Z"/><path class="cls-40" d="M229.18,131.69a.14.14,0,1,1-.28,0,.14.14,0,1,1,.28,0Z"/><path class="cls-40" d="M231,131.06a.76.76,0,1,1-.76-.75A.72.72,0,0,1,231,131.06Zm-1.29,0a.52.52,0,0,0,.53.56.56.56,0,0,0,0-1.12A.52.52,0,0,0,229.67,131.07Z"/><path class="cls-40" d="M232.11,130.31v.22a.5.5,0,0,0-.54.49v.79h-.22v-1.49h.22v.33A.55.55,0,0,1,232.11,130.31Z"/><path class="cls-40" d="M233.71,130.32v1.34a.69.69,0,0,1-.75.71,1,1,0,0,1-.62-.22l.11-.16a.74.74,0,0,0,.5.19.5.5,0,0,0,.54-.52v-.23a.6.6,0,0,1-.55.32.72.72,0,0,1,0-1.44.6.6,0,0,1,.56.31v-.3Zm-.22.71a.51.51,0,0,0-.51-.54.54.54,0,0,0,0,1.08A.51.51,0,0,0,233.49,131Z"/><path class="cls-40" d="M216.41,133.34a2.42,2.42,0,0,1-1.49-.53,1.94,1.94,0,0,0-1.46-.5,1.34,1.34,0,0,0-.83.48.08.08,0,0,1-.1,0,.08.08,0,0,1,0-.1,1.38,1.38,0,0,1,.92-.53,2,2,0,0,1,1.56.52,2.33,2.33,0,0,0,2.87,0,.06.06,0,0,1,.09,0,.06.06,0,0,1,0,.09,2.57,2.57,0,0,1-1.54.54Z"/><path class="cls-42" d="M213.66,133.35l-.22,0a1.42,1.42,0,0,1-.92-.54.06.06,0,0,1,0-.09.08.08,0,0,1,.1,0,1.25,1.25,0,0,0,.83.48,2,2,0,0,0,1.46-.49,2.45,2.45,0,0,1,3,0,.07.07,0,0,1,0,.1.06.06,0,0,1-.09,0,2.29,2.29,0,0,0-2.87,0,2.25,2.25,0,0,1-1.34.54Z"/><path class="cls-41" d="M218.76,132.89a.11.11,0,0,1,0-.09.12.12,0,0,1,.05-.1.2.2,0,0,1,.14,0l.11,0,.09.07-.06,0a.18.18,0,0,0-.07-.05l-.07,0a.12.12,0,0,0-.09,0,.06.06,0,0,0,0,.1s0,0,.1,0a.54.54,0,0,1,.17.08.15.15,0,0,1,0,.21.17.17,0,0,1-.14.05l-.12,0-.12-.08.07-.05.08.07.09,0a.11.11,0,0,0,.08,0,.08.08,0,0,0,0-.07s0,0,0-.05a.23.23,0,0,0-.13,0l-.1,0Z"/><path class="cls-41" d="M219.32,132.46h.07v.2h.14v.07h-.14v.34a.14.14,0,0,0,0,.07l.06,0h.06v.07h-.07a.11.11,0,0,1-.14-.14v-.35h-.1v-.07h.1v-.2Z"/><path class="cls-41" d="M219.64,132.76a.28.28,0,0,1,.11-.08.27.27,0,0,1,.12,0,.2.2,0,0,1,.11,0,.18.18,0,0,1,.07.08.22.22,0,0,1,0,.09v.23a.51.51,0,0,0,0,.13H220a.28.28,0,0,1,0-.09l-.11.08-.1,0a.16.16,0,0,1-.12,0,.18.18,0,0,1,0-.11.12.12,0,0,1,0-.09.15.15,0,0,1,.1-.07.77.77,0,0,1,.23-.06v0a.09.09,0,0,0,0-.07.11.11,0,0,0-.08,0l-.09,0-.1.07Zm.35.32v-.18l-.16,0a.19.19,0,0,0-.1.05.11.11,0,0,0,0,.07.06.06,0,0,0,0,.06.09.09,0,0,0,.07,0l.08,0Z"/><path class="cls-41" d="M220.32,132.73l.12-.06.09,0,.07,0,.06.06a.15.15,0,0,1,0,.1v.38h-.07v-.38a.15.15,0,0,0,0-.08.09.09,0,0,0-.07,0l-.09,0-.11,0v.42h-.07v-.55h.07v.07Z"/><path class="cls-41" d="M221.24,132.44h.07v.6a.38.38,0,0,0,0,.1s0,.05,0,.07h-.07a.24.24,0,0,1,0-.08l-.09.07-.1,0a.21.21,0,0,1-.16-.07.4.4,0,0,1,0-.42.23.23,0,0,1,.16-.08l.09,0,.1.07Zm0,.36a.24.24,0,0,0-.09-.06l-.09,0a.14.14,0,0,0-.11.05.21.21,0,0,0,0,.16.22.22,0,0,0,0,.17.14.14,0,0,0,.11.06l.09,0,.09-.07Z"/><path class="cls-41" d="M221.48,132.76a.38.38,0,0,1,.11-.08.27.27,0,0,1,.12,0,.21.21,0,0,1,.12,0,.16.16,0,0,1,.06.08.2.2,0,0,1,0,.09v.23a.53.53,0,0,0,0,.13h-.07a.29.29,0,0,1,0-.09.39.39,0,0,1-.1.08l-.11,0a.15.15,0,0,1-.11,0,.14.14,0,0,1,0-.11.16.16,0,0,1,0-.09.18.18,0,0,1,.1-.07.88.88,0,0,1,.23-.06v0a.1.1,0,0,0-.1-.1l-.09,0-.1.07Zm.35.32v-.18l-.16,0a.19.19,0,0,0-.09.05.11.11,0,0,0,0,.07.11.11,0,0,0,.09.09l.09,0Z"/><path class="cls-41" d="M222.17,132.79a.36.36,0,0,1,.1-.11.2.2,0,0,1,.11,0h0v.08h0l-.06,0a.12.12,0,0,0-.07.05.2.2,0,0,0,0,.08.29.29,0,0,0,0,.09v.24h-.07v-.55h.07Z"/><path class="cls-41" d="M222.87,132.44h.07v.6a.38.38,0,0,0,0,.1s0,.05,0,.07h-.08s0-.05,0-.08l-.1.07-.09,0a.2.2,0,0,1-.16-.07.35.35,0,0,1,0-.42.23.23,0,0,1,.16-.08l.09,0,.1.07Zm0,.36a.24.24,0,0,0-.09-.06l-.09,0a.17.17,0,0,0-.12.05.25.25,0,0,0,0,.16.22.22,0,0,0,.05.17.14.14,0,0,0,.11.06l.09,0,.09-.07Z"/><path class="cls-41" d="M223.14,132.89a.15.15,0,0,1,0-.09.12.12,0,0,1,.05-.1.22.22,0,0,1,.14,0l.11,0a.22.22,0,0,1,.09.07l-.06,0-.06-.05-.08,0a.11.11,0,0,0-.08,0,.05.05,0,0,0,0,0,.08.08,0,0,0,0,.05.19.19,0,0,0,.1,0,.44.44,0,0,1,.17.08.14.14,0,0,1,0,.1.12.12,0,0,1,0,.11.16.16,0,0,1-.14.05l-.12,0-.11-.08.06-.05.09.07.08,0a.12.12,0,0,0,.09,0,.09.09,0,0,0,0-.07s0,0,0-.05a.27.27,0,0,0-.14,0l-.1,0Z"/><path class="cls-41" d="M223.67,133.09h.1v.12l-.07.15h0l.07-.15h-.05v-.12Z"/><path class="cls-41" d="M224.68,132.44h.07v.6s0,.06,0,.1,0,.05,0,.07h-.07a.24.24,0,0,1,0-.08l-.09.07-.1,0a.21.21,0,0,1-.16-.07.4.4,0,0,1,0-.42.23.23,0,0,1,.16-.08l.09,0,.1.07v-.3Zm0,.36a.24.24,0,0,0-.09-.06l-.09,0a.16.16,0,0,0-.11.05.25.25,0,0,0,0,.16.26.26,0,0,0,0,.17.14.14,0,0,0,.11.06l.09,0,.09-.07v-.27Z"/><path class="cls-41" d="M224.92,132.76a.32.32,0,0,1,.12-.08l.11,0a.21.21,0,0,1,.12,0,.27.27,0,0,1,.07.08.22.22,0,0,1,0,.09v.23a.27.27,0,0,0,0,.13h-.08s0-.06,0-.09a.39.39,0,0,1-.1.08l-.11,0a.15.15,0,0,1-.11,0,.14.14,0,0,1,0-.11.16.16,0,0,1,0-.09.18.18,0,0,1,.1-.07l.23-.06v0a.1.1,0,0,0-.1-.1l-.09,0-.1.07Zm.35.32v-.18l-.16,0a.19.19,0,0,0-.09.05.11.11,0,0,0,0,.07.06.06,0,0,0,0,.06.07.07,0,0,0,.06,0l.09,0Z"/><path class="cls-41" d="M225.57,132.46h.07v.2h.14v.07h-.14v.34a.09.09,0,0,0,0,.07.08.08,0,0,0,.06,0h.05v.07h-.07a.18.18,0,0,1-.11,0,.16.16,0,0,1,0-.11v-.35h-.1v-.07h.1v-.2Z"/><path class="cls-41" d="M225.89,132.76a.28.28,0,0,1,.11-.08.27.27,0,0,1,.12,0,.24.24,0,0,1,.12,0,.16.16,0,0,1,.06.08.2.2,0,0,1,0,.09v.23a.53.53,0,0,0,0,.13h-.07a.29.29,0,0,1,0-.09l-.1.08-.11,0a.14.14,0,0,1-.15-.15.16.16,0,0,1,0-.09.15.15,0,0,1,.1-.07.88.88,0,0,1,.23-.06v0a.09.09,0,0,0,0-.07.1.1,0,0,0-.08,0l-.08,0-.11.07Zm.35.32v-.18l-.16,0a.19.19,0,0,0-.09.05.11.11,0,0,0,0,.07.08.08,0,0,0,0,.06.09.09,0,0,0,.07,0l.09,0Z"/><path class="cls-41" d="M226.49,132.44h.08v.29l.08-.06.1,0a.19.19,0,0,1,.16.08.28.28,0,0,1,.07.21.4.4,0,0,1,0,.15.27.27,0,0,1-.08.1.27.27,0,0,1-.12,0l-.09,0a.24.24,0,0,1-.09-.06v.07h-.08v-.77Zm.08.63.09.07h.09a.16.16,0,0,0,.11-.05.26.26,0,0,0,0-.17.25.25,0,0,0,0-.16.17.17,0,0,0-.12-.05.15.15,0,0,0-.09,0l-.08.06v.27Z"/><path class="cls-41" d="M227.11,132.76a.28.28,0,0,1,.11-.08.27.27,0,0,1,.12,0,.2.2,0,0,1,.11,0,.18.18,0,0,1,.07.08.22.22,0,0,1,0,.09v.23a.51.51,0,0,0,0,.13h-.08a.28.28,0,0,1,0-.09l-.11.08-.1,0a.16.16,0,0,1-.12,0,.18.18,0,0,1,0-.11.12.12,0,0,1,0-.09.15.15,0,0,1,.1-.07.77.77,0,0,1,.23-.06v0a.09.09,0,0,0,0-.07.11.11,0,0,0-.08,0l-.09,0-.1.07Zm.35.32v-.18l-.16,0a.19.19,0,0,0-.1.05.11.11,0,0,0,0,.07.06.06,0,0,0,0,.06.09.09,0,0,0,.07,0l.08,0Z"/><path class="cls-41" d="M227.73,132.89a.11.11,0,0,1,0-.09.1.1,0,0,1,.05-.1.17.17,0,0,1,.13,0l.11,0a.22.22,0,0,1,.09.07l0,0-.07-.05-.08,0a.11.11,0,0,0-.08,0,.05.05,0,0,0,0,0,.08.08,0,0,0,0,.05.19.19,0,0,0,.11,0,.38.38,0,0,1,.16.08.16.16,0,0,1,0,.1.14.14,0,0,1,0,.11.2.2,0,0,1-.15.05l-.12,0-.11-.08.06-.05.09.07.08,0a.12.12,0,0,0,.09,0,.09.09,0,0,0,0-.07s0,0,0-.05a.27.27,0,0,0-.13,0l-.11,0Z"/><path class="cls-41" d="M228.67,133.09a.35.35,0,0,1-.11.1.27.27,0,0,1-.12,0,.2.2,0,0,1-.16-.07.32.32,0,0,1-.07-.22.27.27,0,0,1,.07-.2.21.21,0,0,1,.16-.08.15.15,0,0,1,.11,0,.18.18,0,0,1,.09.1.33.33,0,0,1,0,.15h-.39a.31.31,0,0,0,0,.11.28.28,0,0,0,.06.08.13.13,0,0,0,.08,0,.21.21,0,0,0,.17-.12Zm-.08-.21a.17.17,0,0,0-.05-.12.14.14,0,0,0-.1,0,.14.14,0,0,0-.11,0,.19.19,0,0,0,0,.12Z"/><path class="cls-41" d="M228.82,132.89a.11.11,0,0,1,0-.09.12.12,0,0,1,.05-.1.2.2,0,0,1,.14,0l.11,0,.09.07-.06,0-.06-.05-.08,0s-.07,0-.08,0a.05.05,0,0,0,0,0s0,0,0,.05.05,0,.1,0a.54.54,0,0,1,.17.08.14.14,0,0,1,0,.1.12.12,0,0,1-.05.11.16.16,0,0,1-.14.05l-.12,0-.12-.08.07-.05.08.07.09,0a.12.12,0,0,0,.09,0,.09.09,0,0,0,0-.07s0,0,0-.05a.23.23,0,0,0-.13,0l-.1,0Z"/><path class="cls-41" d="M229.35,133.09h.1v.12l-.08.15h0l.07-.15h-.05Z"/><path class="cls-41" d="M230.06,132.73l.09-.06.1,0a.15.15,0,0,1,.11,0,.18.18,0,0,1,.09.1.61.61,0,0,1,0,.15.4.4,0,0,1,0,.15.2.2,0,0,1-.08.1.23.23,0,0,1-.11,0l-.1,0a.24.24,0,0,1-.09-.06v.28H230v-.76h.07v.07Zm0,.34a.24.24,0,0,0,.09.06.15.15,0,0,0,.09,0,.14.14,0,0,0,.11-.05.22.22,0,0,0,.05-.17.25.25,0,0,0-.05-.16.16.16,0,0,0-.11-.05.15.15,0,0,0-.09,0,.24.24,0,0,0-.09.06v.27Z"/><path class="cls-41" d="M230.84,133.22a.22.22,0,0,1-.18-.08.27.27,0,0,1-.07-.2.41.41,0,0,1,0-.16.2.2,0,0,1,.09-.09.2.2,0,0,1,.24,0,.3.3,0,0,1,.09.1.33.33,0,0,1,0,.15.3.3,0,0,1-.07.21A.21.21,0,0,1,230.84,133.22Zm0-.06a.17.17,0,0,0,.12-.06.27.27,0,0,0,0-.17.25.25,0,0,0,0-.16.15.15,0,0,0-.12-.05.13.13,0,0,0-.12.05.26.26,0,0,0-.05.17.25.25,0,0,0,.05.16A.14.14,0,0,0,230.83,133.16Z"/><path class="cls-41" d="M231.24,132.44h.07v.77h-.07Z"/><path class="cls-41" d="M231.53,132.45h.07v.09h-.07Zm0,.21h.07v.55h-.07Z"/><path class="cls-41" d="M232.22,133.08a.44.44,0,0,1-.08.1.23.23,0,0,1-.14,0,.27.27,0,0,1-.12,0,.39.39,0,0,1-.08-.1.4.4,0,0,1,0-.15.28.28,0,0,1,.07-.21.21.21,0,0,1,.17-.08.19.19,0,0,1,.12,0,.45.45,0,0,1,.09.1l-.07,0a.35.35,0,0,0-.06-.09.14.14,0,0,0-.09,0,.14.14,0,0,0-.11.06.29.29,0,0,0,0,.17.25.25,0,0,0,0,.16.14.14,0,0,0,.11.06.16.16,0,0,0,.15-.12Z"/><path class="cls-41" d="M232.37,132.45h.08v.09h-.08Zm0,.21h.08v.55h-.08Z"/><path class="cls-41" d="M233.07,133.09a.35.35,0,0,1-.11.1.2.2,0,0,1-.11,0,.22.22,0,0,1-.17-.07.38.38,0,0,1-.07-.22.32.32,0,0,1,.07-.2.23.23,0,0,1,.16-.08.19.19,0,0,1,.12,0,.16.16,0,0,1,.08.1.33.33,0,0,1,0,.15h-.38a.18.18,0,0,0,0,.11.12.12,0,0,0,.06.08.11.11,0,0,0,.07,0A.21.21,0,0,0,233,133Zm-.07-.21a.23.23,0,0,0-.06-.12.14.14,0,0,0-.1,0,.16.16,0,0,0-.11,0,.28.28,0,0,0,0,.12Z"/><path class="cls-41" d="M233.23,132.89a.11.11,0,0,1,0-.09.12.12,0,0,1,0-.1.22.22,0,0,1,.14,0l.11,0a.22.22,0,0,1,.09.07l-.06,0-.06-.05-.08,0a.11.11,0,0,0-.08,0,.05.05,0,0,0,0,0,.08.08,0,0,0,0,.05.19.19,0,0,0,.1,0,.44.44,0,0,1,.17.08.16.16,0,0,1,0,.1.13.13,0,0,1-.06.11.16.16,0,0,1-.14.05l-.12,0-.11-.08.06-.05.09.07.08,0a.12.12,0,0,0,.09,0,.09.09,0,0,0,0-.07s0,0,0-.05a.27.27,0,0,0-.13,0l-.11,0Z"/><path class="cls-34" d="M215.13,140.51a.09.09,0,0,1-.09.08h-2.47a.09.09,0,0,1-.09-.08v-3.32a.09.09,0,0,1,.09-.09H215a.09.09,0,0,1,.09.09v3.32Z"/><path class="cls-43" d="M215.13,140.51a.09.09,0,0,1-.09.08h-2.47a.09.09,0,0,1-.09-.08v-3.32a.09.09,0,0,1,.09-.09H215a.09.09,0,0,1,.09.09v3.32Z"/><circle class="cls-44" cx="214.69" cy="140.08" r="0.23"/><path class="cls-44" d="M214.69,140.42a.34.34,0,1,1,0-.67.34.34,0,0,1,0,.67Zm0-.62a.29.29,0,1,0,.28.28A.29.29,0,0,0,214.69,139.8Z"/><rect class="cls-5" x="212.91" y="138.02" width="1.73" height="0.2"/><rect class="cls-5" x="212.91" y="138.48" width="0.79" height="0.2"/><rect class="cls-5" x="212.91" y="138.95" width="0.79" height="0.2"/><rect class="cls-5" x="212.91" y="139.41" width="1.34" height="0.2"/><rect class="cls-44" x="212.91" y="137.59" width="1.24" height="0.2"/><path class="cls-45" d="M221.18,140.54a.08.08,0,0,1-.09.08h-2.47a.08.08,0,0,1-.09-.08v-3.32a.09.09,0,0,1,.09-.08h2.47a.09.09,0,0,1,.09.08v3.32Z"/><rect class="cls-5" x="218.96" y="138.05" width="1.73" height="0.2"/><rect class="cls-5" x="218.96" y="138.52" width="1.34" height="0.2"/><rect class="cls-5" x="218.96" y="138.98" width="0.89" height="0.2"/><rect class="cls-5" x="219.84" y="139.45" width="0.47" height="0.2"/><rect class="cls-5" x="218.96" y="139.45" width="0.62" height="0.2"/><rect class="cls-34" x="218.96" y="137.62" width="1.24" height="0.2"/><circle class="cls-46" cx="217.8" cy="140.08" r="0.23"/><path class="cls-46" d="M217.8,140.42a.34.34,0,1,1,0-.67.34.34,0,0,1,0,.67Zm0-.62a.29.29,0,1,0,.28.28A.29.29,0,0,0,217.8,139.8Z"/><path class="cls-44" d="M218.76,141.22a.12.12,0,0,1-.13.12h-3.57a.12.12,0,0,1-.13-.12v-4.78a.12.12,0,0,1,.13-.12h3.57a.12.12,0,0,1,.13.12Z"/><circle class="cls-34" cx="218.11" cy="140.62" r="0.34"/><path class="cls-34" d="M218.11,141.08a.47.47,0,1,1,.47-.46A.47.47,0,0,1,218.11,141.08Zm0-.9a.44.44,0,0,0-.44.44.44.44,0,0,0,.44.44.44.44,0,0,0,0-.88Z"/><rect class="cls-34" x="215.56" y="137.73" width="2.49" height="0.1"/><rect class="cls-34" x="215.56" y="138.4" width="1.93" height="0.1"/><rect class="cls-34" x="215.56" y="139.07" width="1.14" height="0.1"/><rect class="cls-34" x="217.09" y="139.06" width="1.14" height="0.1"/><rect class="cls-34" x="215.56" y="139.74" width="1.93" height="0.1"/><rect class="cls-34" x="215.56" y="137.02" width="1.79" height="0.29"/><path class="cls-47" d="M70.08,82.65,71,85.1l.92-2.45h.72v3.2h-.56V84.79l.06-1.41-1,2.47h-.4l-.94-2.46.06,1.4v1.06h-.56v-3.2Z"/><path class="cls-47" d="M74.83,85.85a.71.71,0,0,1-.07-.22.84.84,0,0,1-.62.26.9.9,0,0,1-.59-.2.72.72,0,0,1,.06-1.09,1.35,1.35,0,0,1,.81-.2h.33v-.16a.44.44,0,0,0-.11-.3.42.42,0,0,0-.31-.11.49.49,0,0,0-.3.09.3.3,0,0,0-.12.24h-.53a.58.58,0,0,1,.13-.37.89.89,0,0,1,.35-.27,1.35,1.35,0,0,1,.5-.09,1,1,0,0,1,.67.21.74.74,0,0,1,.25.59V85.3a1.23,1.23,0,0,0,.09.51v0Zm-.59-.39a.66.66,0,0,0,.3-.07.53.53,0,0,0,.21-.21v-.45h-.29a.78.78,0,0,0-.45.11.32.32,0,0,0-.15.29.33.33,0,0,0,.1.24A.41.41,0,0,0,74.24,85.46Z"/><path class="cls-47" d="M76.49,83.47v.28a.85.85,0,0,1,.7-.32c.49,0,.74.28.75.85v1.57h-.53V84.31a.55.55,0,0,0-.1-.34.43.43,0,0,0-.32-.11.5.5,0,0,0-.48.3v1.69H76V83.47Z"/><path class="cls-47" d="M80.09,85.62a.85.85,0,0,1-.67.27.76.76,0,0,1-.59-.22,1,1,0,0,1-.19-.66V83.47h.53V85c0,.31.12.46.37.46a.54.54,0,0,0,.53-.28V83.47h.53v2.38h-.5Z"/><path class="cls-47" d="M82.63,85.2a.27.27,0,0,0-.11-.22,1.73,1.73,0,0,0-.39-.13,1.94,1.94,0,0,1-.46-.14.61.61,0,0,1-.4-.56.65.65,0,0,1,.26-.52,1.06,1.06,0,0,1,.66-.2,1.09,1.09,0,0,1,.69.21.68.68,0,0,1,.26.55h-.53a.32.32,0,0,0-.12-.26.4.4,0,0,0-.3-.1.45.45,0,0,0-.29.08.25.25,0,0,0-.11.22.23.23,0,0,0,.11.19,1.29,1.29,0,0,0,.41.13,2.39,2.39,0,0,1,.5.17.66.66,0,0,1,.26.23.57.57,0,0,1,.09.32.61.61,0,0,1-.27.52,1.07,1.07,0,0,1-.69.2,1.21,1.21,0,0,1-.52-.1.81.81,0,0,1-.36-.29.68.68,0,0,1-.13-.4h.52a.4.4,0,0,0,.14.29.56.56,0,0,0,.35.1.49.49,0,0,0,.32-.08A.23.23,0,0,0,82.63,85.2Z"/><path class="cls-47" d="M84.75,85.47a.45.45,0,0,0,.33-.12.41.41,0,0,0,.15-.29h.5a.81.81,0,0,1-.14.42.93.93,0,0,1-.35.3,1,1,0,0,1-.48.11,1,1,0,0,1-.79-.32,1.26,1.26,0,0,1-.29-.89v-.06a1.24,1.24,0,0,1,.29-.87,1.12,1.12,0,0,1,1.48-.08.91.91,0,0,1,.28.65h-.5a.53.53,0,0,0-.14-.33.45.45,0,0,0-.34-.13.49.49,0,0,0-.4.18,1,1,0,0,0-.14.57v.09a1,1,0,0,0,.14.58A.48.48,0,0,0,84.75,85.47Z"/><path class="cls-47" d="M87.53,84l-.22,0a.48.48,0,0,0-.49.28v1.63h-.54V83.47h.51l0,.27a.6.6,0,0,1,.53-.31.5.5,0,0,1,.19,0Z"/><path class="cls-47" d="M88,82.85a.28.28,0,0,1,.08-.2.26.26,0,0,1,.22-.08.3.3,0,0,1,.23.08.32.32,0,0,1,0,.4.3.3,0,0,1-.23.08.26.26,0,0,1-.22-.08A.28.28,0,0,1,88,82.85Zm.57,3h-.54V83.47h.54Z"/><path class="cls-47" d="M91.4,84.68a1.39,1.39,0,0,1-.25.88.87.87,0,0,1-1.29.08v1.12h-.54V83.47h.49l0,.24a.77.77,0,0,1,.63-.28.82.82,0,0,1,.69.32,1.5,1.5,0,0,1,.24.9Zm-.53,0a1,1,0,0,0-.14-.57.45.45,0,0,0-.4-.21.48.48,0,0,0-.47.27v1.06a.49.49,0,0,0,.47.28.46.46,0,0,0,.4-.21A1.14,1.14,0,0,0,90.87,84.64Z"/><path class="cls-47" d="M92.68,82.89v.58h.42v.4h-.42v1.32a.34.34,0,0,0,0,.2.25.25,0,0,0,.19.06l.19,0v.41a1.1,1.1,0,0,1-.35,0c-.41,0-.62-.22-.62-.68V83.87h-.39v-.4h.39v-.58Z"/><circle class="cls-48" cx="255.64" cy="50.89" r="26.84"/><g id="icon-server-9" data-name="icon-server"><path class="cls-15" d="M269.63,42.21a19.27,19.27,0,0,1,2.78.19,14.37,14.37,0,0,1,2.46.54,5.09,5.09,0,0,1,1.8,1,1.75,1.75,0,0,1,.67,1.34V55.81a1.74,1.74,0,0,1-.67,1.34,4.93,4.93,0,0,1-1.8,1,14.37,14.37,0,0,1-2.46.54,20.36,20.36,0,0,1-5.55,0,14,14,0,0,1-2.46-.54,4.93,4.93,0,0,1-1.8-1,1.75,1.75,0,0,1-.68-1.34V45.23a1.76,1.76,0,0,1,.68-1.34,5.09,5.09,0,0,1,1.8-1,14,14,0,0,1,2.46-.54A19.23,19.23,0,0,1,269.63,42.21Zm6.31,13.59V52.36a9.05,9.05,0,0,1-2.76.88,21.1,21.1,0,0,1-7.09,0,9.05,9.05,0,0,1-2.76-.88v3.45c0,.09.12.19.29.31a4,4,0,0,0,.79.4,11,11,0,0,0,1.25.39,16.11,16.11,0,0,0,1.76.29,20.5,20.5,0,0,0,4.43,0,13.63,13.63,0,0,0,1.75-.3,9.85,9.85,0,0,0,1.25-.39,4,4,0,0,0,.8-.39C275.82,56,275.92,55.89,275.94,55.8Zm0-5.29V47.07a9.32,9.32,0,0,1-2.76.89,19.41,19.41,0,0,1-3.55.29,21.32,21.32,0,0,1-3.54-.29,9.32,9.32,0,0,1-2.76-.89v3.45c0,.09.12.19.29.31a3.55,3.55,0,0,0,.79.4,11,11,0,0,0,1.25.39,14,14,0,0,0,1.76.29,20.5,20.5,0,0,0,4.43,0,13.81,13.81,0,0,0,1.75-.29,11,11,0,0,0,1.25-.39,4.18,4.18,0,0,0,.8-.4.67.67,0,0,0,.29-.32Zm-6.31-6.79a19,19,0,0,0-2.19.12,15.88,15.88,0,0,0-1.75.29,10.79,10.79,0,0,0-1.24.39,4.41,4.41,0,0,0-.81.39.8.8,0,0,0-.31.32.81.81,0,0,0,.31.33,4.41,4.41,0,0,0,.81.39,9.19,9.19,0,0,0,1.24.38,13.63,13.63,0,0,0,1.75.3,22,22,0,0,0,4.39,0,13.63,13.63,0,0,0,1.75-.3,9.19,9.19,0,0,0,1.24-.38,4.41,4.41,0,0,0,.81-.39.81.81,0,0,0,.31-.33.8.8,0,0,0-.31-.32,4.41,4.41,0,0,0-.81-.39,10.79,10.79,0,0,0-1.24-.39,15.88,15.88,0,0,0-1.75-.29A19.09,19.09,0,0,0,269.63,43.72Z"/></g><g id="icon-server-10" data-name="icon-server"><path class="cls-31" d="M239.45,41.66a12.9,12.9,0,0,1,1.88.13,9.81,9.81,0,0,1,1.67.36,3.35,3.35,0,0,1,1.22.65,1.21,1.21,0,0,1,.46.91v7.18a1.23,1.23,0,0,1-.46.91,3.34,3.34,0,0,1-1.22.64,10.84,10.84,0,0,1-1.67.37,14.87,14.87,0,0,1-3.77,0,11.11,11.11,0,0,1-1.67-.37,3.34,3.34,0,0,1-1.22-.64,1.23,1.23,0,0,1-.46-.91V43.71a1.21,1.21,0,0,1,.46-.91,3.35,3.35,0,0,1,1.22-.65,10,10,0,0,1,1.67-.36A12.94,12.94,0,0,1,239.45,41.66Zm4.28,9.22V48.54a6,6,0,0,1-1.88.6,13.88,13.88,0,0,1-4.81,0,6,6,0,0,1-1.88-.6v2.35a.61.61,0,0,0,.2.21,3.33,3.33,0,0,0,.54.27,8,8,0,0,0,2,.46,14.16,14.16,0,0,0,1.5.08,14.45,14.45,0,0,0,1.5-.08,8.85,8.85,0,0,0,1.19-.2,6.58,6.58,0,0,0,.85-.27,2.23,2.23,0,0,0,.54-.27A.47.47,0,0,0,243.73,50.88Zm0-3.59V45a6.29,6.29,0,0,1-1.88.61,14.56,14.56,0,0,1-4.81,0,6.29,6.29,0,0,1-1.88-.61V47.3a.53.53,0,0,0,.2.21,3.33,3.33,0,0,0,.54.27,8,8,0,0,0,2,.46,11.92,11.92,0,0,0,1.5.08,12.13,12.13,0,0,0,1.5-.08,8.85,8.85,0,0,0,1.19-.2,7.74,7.74,0,0,0,.84-.26,2.65,2.65,0,0,0,.54-.27.58.58,0,0,0,.21-.22Zm-4.28-4.61a14.3,14.3,0,0,0-1.5.08,10.58,10.58,0,0,0-1.18.2,8.75,8.75,0,0,0-.85.26,3.33,3.33,0,0,0-.54.27.74.74,0,0,0-.22.22c0,.06.1.13.22.22a3.33,3.33,0,0,0,.54.27,8.75,8.75,0,0,0,.85.26,8.84,8.84,0,0,0,1.18.19,10.37,10.37,0,0,0,1.5.08,12,12,0,0,0,1.49-.08,8.84,8.84,0,0,0,1.18-.19,8.75,8.75,0,0,0,.85-.26,3.33,3.33,0,0,0,.54-.27c.13-.09.2-.16.22-.22s-.09-.13-.22-.22a3.33,3.33,0,0,0-.54-.27,8.75,8.75,0,0,0-.85-.26,10.58,10.58,0,0,0-1.18-.2A14.26,14.26,0,0,0,239.45,42.68Z"/></g><g id="icon-server-11" data-name="icon-server"><path class="cls-22" d="M252.92,45.77a29.29,29.29,0,0,1,3.55.22,19.52,19.52,0,0,1,3.14.65,6.44,6.44,0,0,1,2.29,1.12,2,2,0,0,1,.87,1.59V61.89a2,2,0,0,1-.87,1.59,6.62,6.62,0,0,1-2.29,1.13,20.71,20.71,0,0,1-3.14.64,28.75,28.75,0,0,1-7.1,0,20.71,20.71,0,0,1-3.14-.64,6.67,6.67,0,0,1-2.3-1.13,2,2,0,0,1-.86-1.59V49.35a2,2,0,0,1,.86-1.59,6.5,6.5,0,0,1,2.3-1.12,19.52,19.52,0,0,1,3.14-.65A29.17,29.17,0,0,1,252.92,45.77ZM261,61.88V57.8a12.56,12.56,0,0,1-3.53,1.05,27.55,27.55,0,0,1-4.53.35,28.69,28.69,0,0,1-4.53-.35,12.46,12.46,0,0,1-3.53-1.05v4.09a.84.84,0,0,0,.37.37,6.37,6.37,0,0,0,1,.47,13.11,13.11,0,0,0,1.6.46,18.06,18.06,0,0,0,2.24.35,28.22,28.22,0,0,0,2.83.14c1,0,1.93,0,2.83-.14a18.06,18.06,0,0,0,2.24-.35,13,13,0,0,0,1.6-.47,5.15,5.15,0,0,0,1-.47A.82.82,0,0,0,261,61.88Zm0-6.27V51.53a12.56,12.56,0,0,1-3.53,1,26.5,26.5,0,0,1-4.53.35,27.55,27.55,0,0,1-4.53-.35,12.46,12.46,0,0,1-3.53-1v4.09a.84.84,0,0,0,.37.37,5.59,5.59,0,0,0,1,.47,13.11,13.11,0,0,0,1.6.46,18.06,18.06,0,0,0,2.24.35,28.67,28.67,0,0,0,5.66,0,18.37,18.37,0,0,0,2.24-.35,13.45,13.45,0,0,0,1.59-.46,5,5,0,0,0,1-.47c.22-.15.35-.27.38-.38Zm-8.06-8a28,28,0,0,0-2.81.14,20.33,20.33,0,0,0-2.23.35,15.82,15.82,0,0,0-1.59.45,6.14,6.14,0,0,0-1,.47,1,1,0,0,0-.4.38,1,1,0,0,0,.4.39,5.51,5.51,0,0,0,1,.46,13.45,13.45,0,0,0,1.59.46,20.33,20.33,0,0,0,2.23.35,25.36,25.36,0,0,0,2.81.13,27.7,27.7,0,0,0,2.8-.13,20.56,20.56,0,0,0,2.24-.35,13.45,13.45,0,0,0,1.59-.46,5.51,5.51,0,0,0,1-.46,1,1,0,0,0,.4-.39,1,1,0,0,0-.4-.38,6.14,6.14,0,0,0-1-.47,15.82,15.82,0,0,0-1.59-.45,20.56,20.56,0,0,0-2.24-.35A27.61,27.61,0,0,0,252.92,47.56Z"/></g><path class="cls-49" d="M337,44.3a.76.76,0,0,1-.79.73H314.57a.76.76,0,0,1-.79-.73V15.2a.76.76,0,0,1,.79-.73h21.66a.76.76,0,0,1,.79.73Z"/><path class="cls-36" d="M337,44.3a.76.76,0,0,1-.79.73H314.57a.76.76,0,0,1-.79-.73V15.2a.76.76,0,0,1,.79-.73h21.66a.76.76,0,0,1,.79.73Z"/><g class="cls-50"><rect class="cls-5" x="316.13" y="20.42" width="5.41" height="2.73"/></g><g class="cls-50"><rect class="cls-5" x="316.13" y="24.35" width="5.41" height="2.73"/></g><g class="cls-50"><rect class="cls-5" x="316.13" y="28.28" width="5.41" height="2.73"/></g><g class="cls-50"><rect class="cls-5" x="316.13" y="32.21" width="5.41" height="2.73"/></g><g class="cls-50"><rect class="cls-5" x="316.13" y="36.15" width="5.41" height="2.73"/></g><rect class="cls-5" x="323.11" y="20.42" width="5.41" height="2.73"/><rect class="cls-5" x="323.11" y="24.35" width="5.41" height="2.73"/><rect class="cls-5" x="323.11" y="28.28" width="5.41" height="2.73"/><rect class="cls-5" x="323.11" y="32.21" width="5.41" height="2.73"/><rect class="cls-5" x="323.11" y="36.15" width="5.41" height="2.73"/><g class="cls-50"><rect class="cls-5" x="330.09" y="20.42" width="5.41" height="2.73"/></g><g class="cls-50"><rect class="cls-5" x="330.09" y="24.35" width="5.41" height="2.73"/></g><g class="cls-50"><rect class="cls-5" x="330.09" y="28.28" width="5.41" height="2.73"/></g><g class="cls-50"><rect class="cls-5" x="330.09" y="32.21" width="5.41" height="2.73"/></g><g class="cls-50"><rect class="cls-5" x="330.09" y="36.15" width="5.41" height="2.73"/></g><path class="cls-22" d="M335.28,34.74V31.08h-6a.37.37,0,0,1-.36-.36V27.21a.37.37,0,0,1,.36-.37h6V23.19c0-.2.13-.26.28-.14l7.36,5.7a.25.25,0,0,1,0,.43l-7.36,5.69c-.15.12-.28.06-.28-.13"/><path class="cls-34" d="M188.86,56.42a.56.56,0,0,1-.59.54H172a.56.56,0,0,1-.59-.54V34.55A.56.56,0,0,1,172,34h16.28a.56.56,0,0,1,.59.54Z"/><path class="cls-5" d="M188.27,57.18H172a.78.78,0,0,1-.8-.76V34.55a.78.78,0,0,1,.8-.75h16.28a.79.79,0,0,1,.81.75V56.42A.79.79,0,0,1,188.27,57.18ZM172,34.22a.36.36,0,0,0-.38.33V56.42a.36.36,0,0,0,.38.33h16.28a.36.36,0,0,0,.38-.33V34.55a.36.36,0,0,0-.38-.33Z"/><path class="cls-36" d="M188.86,56.42a.56.56,0,0,1-.59.54H172a.56.56,0,0,1-.59-.54V34.55A.56.56,0,0,1,172,34h16.28a.56.56,0,0,1,.59.54Z"/><path class="cls-23" d="M187.47,53.65a1.55,1.55,0,1,1-1.55-1.55A1.55,1.55,0,0,1,187.47,53.65Z"/><path class="cls-23" d="M185.92,55.92a2.28,2.28,0,1,1,2.27-2.27A2.28,2.28,0,0,1,185.92,55.92Zm0-4.12a1.85,1.85,0,1,0,1.85,1.85A1.85,1.85,0,0,0,185.92,51.8Z"/><rect class="cls-5" x="174.23" y="39.84" width="11.39" height="1.7"/><rect class="cls-5" x="174.23" y="42.9" width="8.81" height="1.7"/><rect class="cls-5" x="174.23" y="45.97" width="5.23" height="1.7"/><rect class="cls-5" x="181.24" y="45.89" width="5.22" height="1.7"/><rect class="cls-5" x="174.23" y="49.03" width="8.81" height="1.7"/><rect class="cls-22" x="174.23" y="37.21" width="8.17" height="1.35"/><circle class="cls-3" cx="180.43" cy="42.46" r="31.43" transform="translate(22.82 140.02) rotate(-45)"/><path class="cls-34" d="M169.67,55a.47.47,0,0,1-.49.45H155.77a.47.47,0,0,1-.49-.45V37a.47.47,0,0,1,.49-.45h13.41a.47.47,0,0,1,.49.45Z"/><path class="cls-36" d="M169.67,55a.47.47,0,0,1-.49.45H155.77a.47.47,0,0,1-.49-.45V37a.47.47,0,0,1,.49-.45h13.41a.47.47,0,0,1,.49.45Z"/><path class="cls-23" d="M168.51,52.69a1.27,1.27,0,1,1-1.27-1.28A1.27,1.27,0,0,1,168.51,52.69Z"/><path class="cls-23" d="M167.24,54.52a1.84,1.84,0,1,1,1.84-1.83A1.84,1.84,0,0,1,167.24,54.52Zm0-3.39a1.56,1.56,0,1,0,1.56,1.56A1.56,1.56,0,0,0,167.24,51.13Z"/><rect class="cls-5" x="157.62" y="41.46" width="9.38" height="1.11"/><rect class="cls-5" x="157.62" y="43.98" width="4.3" height="1.11"/><rect class="cls-5" x="157.62" y="46.51" width="4.3" height="1.11"/><rect class="cls-5" x="157.62" y="49.03" width="7.26" height="1.11"/><rect class="cls-31" x="157.62" y="39.15" width="6.72" height="1.11"/><path class="cls-36" d="M205.24,55a.47.47,0,0,1-.49.45h-13.4a.47.47,0,0,1-.49-.45V37a.47.47,0,0,1,.49-.45h13.4a.47.47,0,0,1,.49.45Z"/><path class="cls-23" d="M204.09,52.69a1.28,1.28,0,1,1-1.27-1.28A1.27,1.27,0,0,1,204.09,52.69Z"/><path class="cls-23" d="M202.82,54.52a1.84,1.84,0,1,1,1.83-1.83A1.83,1.83,0,0,1,202.82,54.52Zm0-3.39a1.56,1.56,0,1,0,1.56,1.56A1.56,1.56,0,0,0,202.82,51.13Z"/><rect class="cls-5" x="193.19" y="41.46" width="9.38" height="1.11"/><rect class="cls-5" x="193.19" y="43.98" width="7.26" height="1.11"/><rect class="cls-5" x="193.19" y="46.51" width="4.86" height="1.11"/><rect class="cls-5" x="198.02" y="49.03" width="2.58" height="1.11"/><rect class="cls-5" x="193.19" y="49.03" width="3.36" height="1.11"/><rect class="cls-35" x="193.19" y="39.15" width="6.73" height="1.11"/></svg>