<svg id="Layer_1" data-name="Layer 1" xmlns="http://www.w3.org/2000/svg" xmlns:xlink="http://www.w3.org/1999/xlink" viewBox="0 0 408.83 262.75"><defs><style>.cls-1,.cls-2,.cls-21,.cls-22,.cls-26,.cls-27,.cls-29,.cls-3,.cls-32,.cls-33,.cls-36,.cls-46,.cls-8,.cls-9{fill:none;}.cls-13,.cls-2,.cls-21,.cls-22,.cls-26,.cls-27,.cls-28,.cls-29,.cls-3,.cls-30,.cls-37,.cls-4,.cls-6,.cls-8,.cls-9{stroke:#2c3e50;}.cls-13,.cls-2,.cls-21,.cls-22,.cls-26,.cls-27,.cls-28,.cls-29,.cls-3,.cls-30,.cls-32,.cls-33,.cls-34,.cls-36,.cls-37,.cls-4,.cls-46,.cls-6,.cls-8,.cls-9{stroke-miterlimit:10;}.cls-2{stroke-width:4px;}.cls-28,.cls-3{stroke-width:0.87px;}.cls-10,.cls-28,.cls-37,.cls-4{fill:#ecf0f1;}.cls-4{stroke-width:0.64px;}.cls-34,.cls-5{fill:#bdc3c7;}.cls-12,.cls-30,.cls-41,.cls-6{fill:#fff;}.cls-6,.cls-8{stroke-width:0.68px;}.cls-7{fill:#3b97d3;}.cls-11{fill:#7f8c8d;}.cls-13,.cls-14{fill:#2c3e50;}.cls-13{stroke-width:0.86px;}.cls-15{fill:#a53c3c;}.cls-16{fill:#2e4155;}.cls-17{fill:#fab492;}.cls-18{fill:#35495e;}.cls-19{fill:#7a5748;}.cls-20{fill:#6c1e1f;}.cls-21{stroke-width:2.58px;}.cls-22{stroke-width:1.72px;}.cls-23,.cls-38{fill:#27aae1;}.cls-24{opacity:0.5;}.cls-25{fill:#e64c3c;}.cls-26{stroke-width:0.82px;stroke-dasharray:2.35;}.cls-27{stroke-width:1.01px;stroke-dasharray:2.9;}.cls-29{stroke-width:1.04px;}.cls-31{fill:#26b99a;}.cls-32{stroke:#35495e;}.cls-33,.cls-34,.cls-36,.cls-46{stroke:#bdc3c7;}.cls-33{stroke-width:0.89px;}.cls-34{stroke-width:0.7px;}.cls-35{fill:#95a5a5;}.cls-38{font-size:1.03px;}.cls-38,.cls-41{font-family:Montserrat-Regular, Montserrat;}.cls-39{letter-spacing:-0.01em;}.cls-40{letter-spacing:-0.02em;}.cls-41{font-size:2.69px;}.cls-42{letter-spacing:-0.01em;}.cls-43{letter-spacing:-0.01em;}.cls-44{clip-path:url(#clip-path);}.cls-45{fill:#d25627;}.cls-46{stroke-width:0.3px;}.cls-47{fill:#39a9e0;}.cls-48{fill:#010101;}.cls-49{fill:#333f51;}.cls-50{fill:#2d3f50;}.cls-51{fill:#29aae1;}.cls-52{fill:#364a5e;}.cls-53{fill:#e44e3c;}</style><clipPath id="clip-path"><rect class="cls-1" x="211.32" y="121.8" width="82.38" height="50.16" rx="1"/></clipPath></defs><line class="cls-2" x1="50.74" y1="142.16" x2="83.36" y2="131.96"/><line class="cls-3" x1="324.91" y1="191.62" x2="215.8" y2="191.62"/><path class="cls-4" d="M65.79,79.27h7.5c5,0,5-4,5-9V68.11H65.79Z"/><path class="cls-5" d="M73.62,79.25V68.38h-4v7.5c0,1.68,1.67,3.08,3.85,3.35v0Z"/><path class="cls-6" d="M69.77,74.65V52.73h-21V74.65a4.62,4.62,0,0,0,4.63,4.62h20.2V79.2A4.61,4.61,0,0,1,69.77,74.65Z"/><rect class="cls-7" x="51.77" y="56.41" width="7.45" height="7.45"/><line class="cls-8" x1="51.77" y1="66.73" x2="67.05" y2="66.73"/><line class="cls-8" x1="51.77" y1="68.73" x2="67.05" y2="68.73"/><line class="cls-8" x1="51.77" y1="70.73" x2="67.05" y2="70.73"/><line class="cls-8" x1="51.77" y1="72.72" x2="67.05" y2="72.72"/><line class="cls-8" x1="61.21" y1="57.14" x2="67.05" y2="57.14"/><line class="cls-8" x1="61.21" y1="59.14" x2="67.05" y2="59.14"/><line class="cls-8" x1="61.21" y1="61.14" x2="67.05" y2="61.14"/><line class="cls-8" x1="61.21" y1="63.13" x2="67.05" y2="63.13"/><circle class="cls-9" cx="61.29" cy="66" r="29.46"/><path class="cls-10" d="M116.81,77h2.57a8.78,8.78,0,0,0,8.78-8.78H116.81Z"/><path class="cls-11" d="M123.94,77.21h-7.37V68H128.4v4.79A4.46,4.46,0,0,1,123.94,77.21Zm-6.9-.47h6.9a4,4,0,0,0,4-4V68.43H117Z"/><path class="cls-5" d="M124.31,77V68.39h-2.77v6.37c0,1.12,1.15,2,2.66,2.23v0Z"/><path class="cls-12" d="M121.65,73.79V58.7H107.21V73.79A3.18,3.18,0,0,0,110.4,77h13.91v0A3.19,3.19,0,0,1,121.65,73.79Z"/><path class="cls-11" d="M124.54,77.21H110.4A3.42,3.42,0,0,1,107,73.79V58.47h14.91V73.79a2.92,2.92,0,0,0,2.45,2.9l.2,0ZM107.45,58.94V73.79a3,3,0,0,0,3,2.95h12.71a3.39,3.39,0,0,1-1.69-2.95V58.94Z"/><rect class="cls-5" x="109.26" y="61.24" width="5.13" height="5.13"/><path class="cls-5" d="M114.62,66.6H109V61h5.59Zm-5.12-.47h4.65V61.47H109.5Z"/><rect class="cls-5" x="109.26" y="68.11" width="10.52" height="0.47"/><rect class="cls-5" x="109.26" y="69.48" width="10.52" height="0.47"/><rect class="cls-5" x="109.26" y="70.86" width="10.52" height="0.47"/><rect class="cls-5" x="109.26" y="72.23" width="10.52" height="0.47"/><rect class="cls-5" x="115.76" y="61.5" width="4.02" height="0.47"/><rect class="cls-5" x="115.76" y="62.88" width="4.02" height="0.47"/><rect class="cls-5" x="115.76" y="64.25" width="4.02" height="0.47"/><rect class="cls-5" x="115.76" y="65.63" width="4.02" height="0.47"/><circle class="cls-9" cx="115.82" cy="67.84" r="20.29"/><rect class="cls-13" x="331.05" y="203.5" width="4.77" height="41.23" rx="1" transform="translate(666.86 448.22) rotate(180)"/><rect class="cls-13" x="352.94" y="134.07" width="4.77" height="68.49" rx="1" transform="translate(710.64 336.63) rotate(180)"/><path class="cls-5" d="M302.74,235.06v10.61s-7.36,6.77-7.36,0v-6.78Z"/><path class="cls-14" d="M303.32,244.87a37.31,37.31,0,0,1,2.07,5.89c.17,1.44-17.18,1.14-20.38-.62-1.77-1,1.24-3.29,3.11-4.12C292.41,244.11,303.32,244.87,303.32,244.87Z"/><path class="cls-15" d="M340.48,185.21c2.4,1.2,2.12,9.51,0,11.2-7.73,6.18-36.47-1-38.79,0-3.21,1.38,2,41.64,2,41.64l-10,.84s-8.62-31.66-4.11-51.64C291,181.06,332.23,181.1,340.48,185.21Z"/><path class="cls-16" d="M318.25,155.88s15.62,8.22,23.25,7.75l-.07,7.39c-10.32-1.68-23.23-7.51-23.23-7.51Z"/><path class="cls-17" d="M330.18,133.57v-8.84a55.43,55.43,0,0,0,4.09-5.5A69.44,69.44,0,0,0,337,111l-22.78-8-.78,1s-1.5,13.81,0,18.07c.62,1.78,2.86,5.54,4.71,5.89.89.17,3.5.38,3.5.38l1,11Z"/><path class="cls-18" d="M322.88,139.41l7.39-7.95s11.13,5,13.82,7.95c5.77,6.31,12.37,22.09,9.72,28.57-3.94,9.64-35.46-4.62-35.46-4.62l0-7.62s20.46,10.76,26,6.95c1-.71.39-3.82,0-5a18.15,18.15,0,0,0-2.65-3.54l-.3,31.82h-26.8v-22.1s-1.14,5.8-1.77,7.66c-1.26,3.75-6.48,14.44-6.48,14.44h-6.48s4.44-13.1,5.3-16.65c2-8.1,2-23.06,5.08-29.68,1.84-3.92,10.53-8.17,10.53-8.17h1.48Z"/><path class="cls-16" d="M341.55,170.87c5.81.95,10.82.58,12.23-2.89,2.65-6.48-3.95-22.26-9.72-28.57a14.25,14.25,0,0,0-2.59-2Zm.07-7.39.09-9.34a18.15,18.15,0,0,1,2.65,3.54c.39,1.19,1,4.3,0,5A5.44,5.44,0,0,1,341.62,163.48Z"/><path class="cls-19" d="M332.47,122.18c1.71.53,3.56-4.25,3.93-6a28.12,28.12,0,0,0,0-9.51c-.71-2.67-1.34-8.85-13.36-8.83-2.79,0-9.65,2-9.65,7.43,0,1.74,4,2.34,5.53,2.53a44.16,44.16,0,0,1,7.46,1.23c1.34.49,3.62,3.68,4.36,4.91C332.06,116.13,330,121.42,332.47,122.18Z"/><path class="cls-17" d="M329.56,115.11c0,1.41.7,2.55,1.57,2.55s1.57-1.14,1.57-2.55-.7-2.55-1.57-2.55S329.56,113.7,329.56,115.11Z"/><path class="cls-17" d="M318.32,156.48s-1.84-2.1-2.7-2.13c-2,0-6.33,2.65-6.57,4.64-.14,1,2.12,3.67,2.12,3.67h7.15Z"/><path class="cls-5" d="M298.44,236.13v10.6s-7.37,6.78-7.37,0V240Z"/><path class="cls-16" d="M318.36,155.88s15.62,8.22,23.26,7.75l-.07,7.39c-10.33-1.68-23.23-7.51-23.23-7.51Z"/><path class="cls-20" d="M340.39,185.21c2.53,1.2,2.23,9.51,0,11.2-8.16,6.18-38.49-1-40.94,0-3.39,1.38,1.64,41.64,1.64,41.64l-10,1.91s-9.19-32.73-4.43-52.71C288.11,181.06,331.68,181.1,340.39,185.21Z"/><path class="cls-14" d="M299.09,246.8a38.86,38.86,0,0,1,2,5.89c.16,1.44-16.53,1.14-19.61-.62-1.71-1,1.19-3.29,3-4.12C288.6,246,299.09,246.8,299.09,246.8Z"/><rect class="cls-13" x="306.89" y="200.68" width="50.31" height="5.64" rx="1" transform="translate(664.1 406.99) rotate(180)"/><line class="cls-21" x1="315.21" y1="249.63" x2="333.7" y2="244.36"/><line class="cls-21" x1="349.54" y1="249.63" x2="333.7" y2="244.36"/><path class="cls-14" d="M317.45,251a3.1,3.1,0,1,1-3.1-3.09A3.1,3.1,0,0,1,317.45,251Z"/><path class="cls-14" d="M354.35,251a3.1,3.1,0,1,1-3.09-3.09A3.09,3.09,0,0,1,354.35,251Z"/><line class="cls-22" x1="333.43" y1="242.94" x2="333.43" y2="255.28"/><circle class="cls-14" cx="333.43" cy="256.7" r="3.09"/><path class="cls-19" d="M321.05,100.33c1.74-4,14-2.35,17.3.41,4.22,3.5,6.16,16.21,4.58,21.46-2.44,8.08-17.38,25.07-25.38,22.24-4.54-1.6,6.6-14,6.6-14s5.32-9.31,5.22-12.75C329.23,112.91,319.11,104.74,321.05,100.33Z"/><circle class="cls-19" cx="327.16" cy="100.28" r="5.62"/><circle class="cls-19" cx="335.82" cy="104.09" r="5.62"/><circle class="cls-19" cx="339.24" cy="111.52" r="5.62"/><circle class="cls-19" cx="339.24" cy="119.35" r="5.62"/><circle class="cls-19" cx="336.11" cy="124.98" r="5.62"/><circle class="cls-9" cx="217.63" cy="57.21" r="21.24"/><g id="icon-server"><path class="cls-23" d="M217.63,48.78a24.89,24.89,0,0,1,3,.19,17.72,17.72,0,0,1,2.69.55,5.66,5.66,0,0,1,2,1,1.77,1.77,0,0,1,.74,1.37V62.58a1.75,1.75,0,0,1-.74,1.36,5.66,5.66,0,0,1-2,1,16.58,16.58,0,0,1-2.69.55,24.34,24.34,0,0,1-6.07,0,16.8,16.8,0,0,1-2.69-.55,5.52,5.52,0,0,1-2-1,1.72,1.72,0,0,1-.74-1.36V51.85a1.74,1.74,0,0,1,.74-1.37,5.52,5.52,0,0,1,2-1,18,18,0,0,1,2.69-.55A24.93,24.93,0,0,1,217.63,48.78Zm6.89,13.79v-3.5a10.32,10.32,0,0,1-3,.9,24.37,24.37,0,0,1-7.75,0,10.32,10.32,0,0,1-3-.9v3.51c0,.09.13.19.32.32a5.32,5.32,0,0,0,.87.4,12.3,12.3,0,0,0,1.37.39,16,16,0,0,0,1.92.3,24.46,24.46,0,0,0,4.84,0,16.32,16.32,0,0,0,1.92-.3,12,12,0,0,0,1.36-.4,4.58,4.58,0,0,0,.87-.4C224.39,62.77,224.5,62.66,224.52,62.57Zm0-5.37V53.71a11,11,0,0,1-3,.9,25.18,25.18,0,0,1-7.75,0,10.32,10.32,0,0,1-3-.9v3.5c0,.09.13.2.32.32a4.58,4.58,0,0,0,.87.4,12.17,12.17,0,0,0,1.37.4,16,16,0,0,0,1.92.3,24.46,24.46,0,0,0,4.84,0,15.79,15.79,0,0,0,1.91-.3,12.82,12.82,0,0,0,1.37-.4,4.58,4.58,0,0,0,.87-.4.83.83,0,0,0,.33-.33Zm-6.89-6.89a20.21,20.21,0,0,0-2.4.13,14.2,14.2,0,0,0-1.91.29,13,13,0,0,0-1.37.39,5.07,5.07,0,0,0-.88.4.88.88,0,0,0-.34.33.88.88,0,0,0,.34.33,6,6,0,0,0,.88.4,13,13,0,0,0,1.37.39,18.36,18.36,0,0,0,1.91.29,22.67,22.67,0,0,0,2.4.12,23,23,0,0,0,2.4-.12,18.8,18.8,0,0,0,1.91-.29,12.72,12.72,0,0,0,1.36-.39,5.5,5.5,0,0,0,.88-.4.81.81,0,0,0,.34-.33.81.81,0,0,0-.34-.33,4.73,4.73,0,0,0-.88-.4,12.72,12.72,0,0,0-1.36-.39,14.46,14.46,0,0,0-1.91-.29A20.45,20.45,0,0,0,217.63,50.31Z"/></g><path class="cls-10" d="M294.55,44.9a.75.75,0,0,1-.79.72H272.34a.75.75,0,0,1-.79-.72V16.11a.75.75,0,0,1,.79-.72h21.42a.75.75,0,0,1,.79.72Z"/><g class="cls-24"><rect class="cls-5" x="273.78" y="21.44" width="5.17" height="2.61"/></g><g class="cls-24"><rect class="cls-5" x="273.78" y="25.2" width="5.17" height="2.61"/></g><g class="cls-24"><rect class="cls-5" x="273.78" y="28.95" width="5.17" height="2.61"/></g><g class="cls-24"><rect class="cls-5" x="273.78" y="32.71" width="5.17" height="2.61"/></g><g class="cls-24"><rect class="cls-5" x="273.78" y="36.47" width="5.17" height="2.61"/></g><rect class="cls-5" x="280.46" y="21.44" width="5.17" height="2.61"/><rect class="cls-5" x="280.46" y="25.2" width="5.17" height="2.61"/><rect class="cls-5" x="280.46" y="28.95" width="5.17" height="2.61"/><rect class="cls-5" x="280.46" y="32.71" width="5.17" height="2.61"/><rect class="cls-5" x="280.46" y="36.47" width="5.17" height="2.61"/><g class="cls-24"><rect class="cls-5" x="287.13" y="21.44" width="5.17" height="2.61"/></g><g class="cls-24"><rect class="cls-5" x="287.13" y="25.2" width="5.17" height="2.61"/></g><g class="cls-24"><rect class="cls-5" x="287.13" y="28.95" width="5.17" height="2.61"/></g><g class="cls-24"><rect class="cls-5" x="287.13" y="32.71" width="5.17" height="2.61"/></g><g class="cls-24"><rect class="cls-5" x="287.13" y="36.47" width="5.17" height="2.61"/></g><path class="cls-23" d="M294.38,34.75V32.06H290a.27.27,0,0,1-.26-.27V29.21A.26.26,0,0,1,290,29h4.4V26.26c0-.14.1-.19.21-.1L300,30.35a.19.19,0,0,1,0,.31l-5.41,4.19c-.11.08-.21,0-.21-.1"/><path class="cls-12" d="M355.36,67.63a.64.64,0,0,1-.66.6H336.77a.64.64,0,0,1-.66-.6V43.54a.64.64,0,0,1,.66-.6H354.7a.64.64,0,0,1,.66.6Z"/><path class="cls-5" d="M354.7,68.47H336.77a.87.87,0,0,1-.89-.84V43.54a.87.87,0,0,1,.89-.84H354.7a.87.87,0,0,1,.89.84V67.63A.87.87,0,0,1,354.7,68.47Zm-17.93-25.3a.4.4,0,0,0-.42.37V67.63a.4.4,0,0,0,.42.37H354.7a.4.4,0,0,0,.42-.37V43.54a.4.4,0,0,0-.42-.37Z"/><path class="cls-12" d="M355.36,67.63a.64.64,0,0,1-.66.6H336.77a.64.64,0,0,1-.66-.6V43.54a.64.64,0,0,1,.66-.6H354.7a.64.64,0,0,1,.66.6Z"/><circle class="cls-25" cx="352.11" cy="64.58" r="1.7"/><path class="cls-25" d="M352.11,67.08a2.51,2.51,0,1,1,2.51-2.51A2.51,2.51,0,0,1,352.11,67.08Zm0-4.54a2,2,0,1,0,2,2A2,2,0,0,0,352.11,62.54Z"/><rect class="cls-5" x="339.24" y="49.36" width="12.55" height="1.87"/><rect class="cls-5" x="339.24" y="52.73" width="9.71" height="1.87"/><rect class="cls-5" x="339.24" y="56.11" width="5.76" height="1.87"/><rect class="cls-5" x="346.96" y="56.03" width="5.76" height="1.87"/><rect class="cls-5" x="339.24" y="59.49" width="9.71" height="1.87"/><rect class="cls-23" x="339.24" y="46.47" width="9" height="1.48"/><circle class="cls-9" cx="284.1" cy="30.5" r="25.73" transform="translate(189.14 300) rotate(-76.72)"/><circle class="cls-9" cx="345.73" cy="55.31" r="19.79"/><polyline class="cls-26" points="238.86 121.04 217.03 121.04 217.03 81.05"/><polyline class="cls-27" points="246.59 123.27 246.59 31.56 254.43 31.56"/><polyline class="cls-27" points="254.43 135.2 254.43 87.42 346.96 87.44 346.96 79.14"/><circle class="cls-23" cx="217.03" cy="81.92" r="1.81"/><path class="cls-23" d="M254.43,31.56a1.81,1.81,0,1,1-1.81-1.81A1.81,1.81,0,0,1,254.43,31.56Z"/><path class="cls-23" d="M348.77,78.68A1.81,1.81,0,1,1,347,76.87,1.81,1.81,0,0,1,348.77,78.68Z"/><circle class="cls-25" cx="216.09" cy="123.86" r="1.12"/><path class="cls-28" d="M24.27,136.92h55a4,4,0,0,1,4,4v48.94a0,0,0,0,1,0,0h-63a0,0,0,0,1,0,0V140.92A4,4,0,0,1,24.27,136.92Z"/><line class="cls-29" x1="166.5" y1="191.62" x2="9.58" y2="191.62"/><rect class="cls-30" x="25.5" y="142.59" width="26.27" height="12.01" rx="1"/><rect class="cls-31" x="43.5" y="144.75" width="5.25" height="8.25" rx="1"/><rect class="cls-5" x="28.5" y="149.44" width="6.03" height="3.56" rx="1"/><rect class="cls-5" x="35.97" y="149.44" width="6.03" height="3.56" rx="1"/><line class="cls-32" x1="29.5" y1="146.75" x2="41.75" y2="146.75"/><line class="cls-26" x1="61.6" y1="132.6" x2="61.6" y2="97.6"/><circle class="cls-23" cx="61.6" cy="98.47" r="1.81"/><rect class="cls-14" x="122.93" y="174.97" width="26.03" height="4.09" transform="translate(-41.07 312.97) rotate(-90)"/><rect class="cls-33" x="25.61" y="162.66" width="52.79" height="16.67" rx="1"/><path class="cls-34" d="M47.64,162.91h8.71a0,0,0,0,1,0,0v2.89a1,1,0,0,1-1,1H48.64a1,1,0,0,1-1-1v-2.89A0,0,0,0,1,47.64,162.91Z"/><rect class="cls-14" x="20.27" y="185.96" width="63" height="3.91"/><rect class="cls-14" x="117.05" y="174.97" width="26.03" height="4.09" transform="translate(-46.96 307.09) rotate(-90)"/><rect class="cls-14" x="134.7" y="174.97" width="26.03" height="4.09" transform="translate(-29.31 324.73) rotate(-90)"/><rect class="cls-14" x="128.82" y="174.97" width="26.03" height="4.09" transform="translate(-35.19 318.85) rotate(-90)"/><rect class="cls-35" x="146.91" y="175.11" width="26.03" height="4.09" transform="translate(51.86 389.94) rotate(-111)"/><line class="cls-36" x1="90.62" y1="190.13" x2="124.17" y2="190.13"/><line class="cls-36" x1="90.06" y1="188.65" x2="123.61" y2="188.65"/><line class="cls-36" x1="90.34" y1="187.17" x2="123.89" y2="187.17"/><line class="cls-36" x1="89.79" y1="185.69" x2="123.34" y2="185.69"/><rect class="cls-14" x="250.2" y="177.08" width="4.79" height="12.58"/><rect class="cls-37" x="207.09" y="117.66" width="91.49" height="63.47" rx="4"/><rect class="cls-12" x="211.63" y="121.58" width="82.16" height="13.29"/><circle class="cls-25" cx="214.37" cy="124.39" r="1.12"/><line class="cls-9" x1="211.63" y1="127.74" x2="293.57" y2="127.74"/><rect class="cls-14" x="242.72" y="189.28" width="19.76" height="1.35"/><path class="cls-11" d="M282,132.19c0,.09-.14.17-.31.17H270.59c-.17,0-.31-.08-.31-.17v-1.66c0-.1.14-.17.31-.17h11.09c.17,0,.31.07.31.17Z"/><path class="cls-23" d="M246.08,132.14a.17.17,0,0,1-.17.17H239.7a.17.17,0,0,1-.17-.17v-1.66a.17.17,0,0,1,.17-.17h6.21a.17.17,0,0,1,.17.17Z"/><rect class="cls-23" x="246.63" y="130.31" width="6.4" height="2" rx="0.17"/><path class="cls-23" d="M258.92,132.14a.15.15,0,0,1-.14.17h-5.11a.15.15,0,0,1-.14-.17v-1.66a.15.15,0,0,1,.14-.17h5.11a.15.15,0,0,1,.14.17Z"/><path class="cls-23" d="M266.09,132.14a.17.17,0,0,1-.18.17h-6.26a.17.17,0,0,1-.17-.17v-1.66a.17.17,0,0,1,.17-.17h6.26a.17.17,0,0,1,.18.17Z"/><text class="cls-38" transform="translate(282.45 131.66)"><tspan class="cls-39">L</tspan><tspan x="0.6" y="0">og in or Regis</tspan><tspan class="cls-40" x="7.61" y="0">t</tspan><tspan x="8.01" y="0">er</tspan></text><rect class="cls-14" x="211.63" y="134.86" width="82.16" height="7.93"/><rect class="cls-10" x="211.63" y="142.8" width="82.16" height="28.94"/><rect class="cls-12" x="232.36" y="144.29" width="12.3" height="19.1" rx="1"/><rect class="cls-5" x="234.15" y="150.84" width="8.73" height="1.78"/><rect class="cls-5" x="234.15" y="154.17" width="8.73" height="0.65"/><rect class="cls-5" x="234.15" y="155.19" width="8.73" height="0.65"/><rect class="cls-5" x="234.15" y="156.21" width="8.73" height="0.65"/><text class="cls-41" transform="translate(224.09 139.76)"><tspan class="cls-42">P</tspan><tspan x="1.9" y="0">oli</tspan><tspan class="cls-43" x="5.04" y="0">c</tspan><tspan x="6.53" y="0">y</tspan></text><rect class="cls-12" x="246.36" y="144.29" width="12.3" height="19.1" rx="1"/><rect class="cls-5" x="248.15" y="150.84" width="8.73" height="1.78"/><rect class="cls-5" x="248.15" y="154.17" width="8.73" height="0.65"/><rect class="cls-5" x="248.15" y="155.19" width="8.73" height="0.65"/><rect class="cls-5" x="248.15" y="156.21" width="8.73" height="0.65"/><path class="cls-12" d="M214.95,144.29h13.34a1,1,0,0,1,1,1v25.8a0,0,0,0,1,0,0H213.95a0,0,0,0,1,0,0v-25.8A1,1,0,0,1,214.95,144.29Z"/><rect class="cls-12" x="260.2" y="144.29" width="12.3" height="19.1" rx="1"/><rect class="cls-5" x="261.99" y="150.84" width="8.73" height="1.78"/><rect class="cls-5" x="261.99" y="154.17" width="8.73" height="0.65"/><rect class="cls-5" x="261.99" y="155.19" width="8.73" height="0.65"/><rect class="cls-5" x="261.99" y="156.21" width="8.73" height="0.65"/><rect class="cls-12" x="274.2" y="144.29" width="12.3" height="19.1" rx="1"/><rect class="cls-5" x="275.98" y="150.84" width="8.73" height="1.78"/><rect class="cls-5" x="275.98" y="154.17" width="8.73" height="0.65"/><g class="cls-44"><rect class="cls-12" x="232.32" y="164.5" width="12.3" height="19.1" rx="1"/><rect class="cls-5" x="234.11" y="171.04" width="8.73" height="1.78"/><rect class="cls-5" x="234.11" y="174.37" width="8.73" height="0.65"/><rect class="cls-5" x="234.11" y="175.39" width="8.73" height="0.65"/><rect class="cls-5" x="234.11" y="176.41" width="8.73" height="0.65"/><rect class="cls-12" x="246.32" y="164.5" width="12.3" height="19.1" rx="1"/><rect class="cls-5" x="248.11" y="171.04" width="8.73" height="1.78"/><rect class="cls-5" x="248.11" y="174.37" width="8.73" height="0.65"/><rect class="cls-5" x="248.11" y="175.39" width="8.73" height="0.65"/><rect class="cls-5" x="248.11" y="176.41" width="8.73" height="0.65"/><rect class="cls-12" x="260.16" y="164.5" width="12.3" height="19.1" rx="1"/><rect class="cls-5" x="261.94" y="171.04" width="8.73" height="1.78"/><rect class="cls-5" x="261.94" y="174.37" width="8.73" height="0.65"/><rect class="cls-5" x="261.94" y="175.39" width="8.73" height="0.65"/><rect class="cls-5" x="261.94" y="176.41" width="8.73" height="0.65"/><rect class="cls-12" x="274.16" y="164.5" width="12.3" height="19.1" rx="1"/><rect class="cls-5" x="275.94" y="171.04" width="8.73" height="1.78"/><rect class="cls-5" x="275.94" y="174.37" width="8.73" height="0.65"/><rect class="cls-5" x="275.94" y="175.39" width="8.73" height="0.65"/><circle class="cls-23" cx="280.35" cy="167.74" r="1.08"/><rect class="cls-5" x="275.94" y="176.41" width="8.73" height="0.65"/><g id="icon-server-2" data-name="icon-server"><path class="cls-12" d="M280.35,167.11l.21,0,.19,0a.4.4,0,0,1,.13.07.11.11,0,0,1,.05.1v.8a.11.11,0,0,1-.05.1.27.27,0,0,1-.13.07.58.58,0,0,1-.19,0l-.21,0-.21,0a.58.58,0,0,1-.19,0,.27.27,0,0,1-.13-.07.14.14,0,0,1-.05-.1v-.8a.14.14,0,0,1,.05-.1.4.4,0,0,1,.13-.07l.19,0Zm.48,1v-.26l-.21.07-.27,0-.27,0-.21-.07v.26l0,0,.06,0,.09,0,.13,0h.34l.13,0,.09,0,.06,0S280.83,168.15,280.83,168.14Zm0-.4v-.26l-.21.07-.27,0-.27,0-.21-.07v.26s0,0,0,0l.06,0a.12.12,0,0,0,.09,0l.13,0h.34l.13,0a.12.12,0,0,0,.09,0l.06,0s0,0,0,0Zm-.48-.51h-.17l-.13,0-.09,0-.06,0,0,0s0,0,0,0l.06,0,.09,0,.13,0h.34l.13,0,.09,0,.06,0s0,0,0,0l0,0-.06,0-.09,0-.13,0Z"/></g></g><rect class="cls-5" x="275.98" y="155.19" width="8.73" height="0.65"/><rect class="cls-5" x="275.98" y="156.21" width="8.73" height="0.65"/><rect class="cls-9" x="211.41" y="121.58" width="82.38" height="50.16" rx="1"/><rect class="cls-5" x="215.57" y="149.52" width="9.99" height="0.89"/><rect class="cls-23" x="227.21" y="149.45" width="1.01" height="1.01"/><rect class="cls-5" x="215.57" y="151.24" width="9.99" height="0.89"/><rect class="cls-23" x="227.21" y="151.18" width="1.01" height="1.01"/><rect class="cls-5" x="215.57" y="152.96" width="9.99" height="0.89"/><rect class="cls-23" x="227.21" y="152.9" width="1.01" height="1.01"/><rect class="cls-5" x="215.57" y="154.68" width="9.99" height="0.89"/><rect class="cls-23" x="227.21" y="154.62" width="1.01" height="1.01"/><rect class="cls-5" x="215.57" y="161.93" width="9.99" height="0.89"/><rect class="cls-23" x="227.21" y="161.87" width="1.01" height="1.01"/><rect class="cls-5" x="215.57" y="163.81" width="9.99" height="0.89"/><rect class="cls-23" x="227.21" y="163.74" width="1.01" height="1.01"/><rect class="cls-5" x="215.57" y="165.68" width="9.99" height="0.89"/><rect class="cls-23" x="227.21" y="165.62" width="1.01" height="1.01"/><rect class="cls-5" x="215.57" y="167.56" width="9.99" height="0.89"/><rect class="cls-23" x="227.21" y="167.5" width="1.01" height="1.01"/><rect class="cls-5" x="215.57" y="156.41" width="9.99" height="0.89"/><rect class="cls-23" x="227.21" y="156.35" width="1.01" height="1.01"/><path class="cls-23" d="M267.43,167.73a1.08,1.08,0,1,1-1.08-1.08A1.08,1.08,0,0,1,267.43,167.73Z"/><g id="icon-server-3" data-name="icon-server"><path class="cls-12" d="M266.35,167.1l.21,0,.19,0a.4.4,0,0,1,.13.07.11.11,0,0,1,.05.1v.8a.11.11,0,0,1-.05.1.27.27,0,0,1-.13.07.58.58,0,0,1-.19,0l-.21,0-.21,0a.48.48,0,0,1-.18,0,.26.26,0,0,1-.14-.07.14.14,0,0,1-.05-.1v-.8a.14.14,0,0,1,.05-.1.37.37,0,0,1,.14-.07l.18,0Zm.48,1v-.26l-.21.07-.27,0-.27,0a.77.77,0,0,1-.2-.07v.26l0,0,.06,0,.09,0,.13,0h.34l.13,0,.1,0,.06,0Zm0-.4v-.26l-.21.07-.27,0-.27,0a.77.77,0,0,1-.2-.07v.26s0,0,0,0l.06,0a.14.14,0,0,0,.09,0l.13,0h.34l.13,0a.17.17,0,0,0,.1,0l.06,0a0,0,0,0,0,0,0Zm-.48-.51h-.16l-.14,0-.09,0-.06,0s0,0,0,0l0,0,.06,0,.09,0,.14,0h.33l.13,0,.09,0,.06,0,0,0s0,0,0,0l-.06,0-.09,0-.13,0Z"/></g><circle class="cls-23" cx="266.35" cy="147.74" r="1.08"/><g id="icon-server-4" data-name="icon-server"><path class="cls-12" d="M266.35,147.11h.21l.19,0a.27.27,0,0,1,.13.07.11.11,0,0,1,.05.1v.8a.11.11,0,0,1-.05.1.4.4,0,0,1-.13.07l-.19,0-.21,0-.21,0-.18,0a.37.37,0,0,1-.14-.07.14.14,0,0,1-.05-.1v-.8a.14.14,0,0,1,.05-.1.26.26,0,0,1,.14-.07l.18,0Zm.48,1v-.26a.65.65,0,0,1-.21.06,1.23,1.23,0,0,1-.54,0,.52.52,0,0,1-.2-.06v.26s0,0,0,0l.06,0,.09,0,.13,0h.34l.13,0,.1,0,.06,0Zm0-.4v-.26a.65.65,0,0,1-.21.06,1.23,1.23,0,0,1-.54,0,.52.52,0,0,1-.2-.06v.26l0,0,.06,0,.09,0,.13,0h.34l.13,0,.1,0,.06,0,0,0Zm-.48-.52h-.16l-.14,0-.09,0-.06,0,0,0,0,0,.06,0,.09,0,.14,0h.33l.13,0,.09,0,.06,0,0,0s0,0,0,0l-.06,0-.09,0-.13,0Z"/></g><circle class="cls-23" cx="280.35" cy="147.74" r="1.08"/><g id="icon-server-5" data-name="icon-server"><path class="cls-12" d="M280.35,147.11h.21l.19,0a.27.27,0,0,1,.13.07.11.11,0,0,1,.05.1v.8a.11.11,0,0,1-.05.1.4.4,0,0,1-.13.07l-.19,0-.21,0-.21,0-.19,0a.4.4,0,0,1-.13-.07.14.14,0,0,1-.05-.1v-.8a.14.14,0,0,1,.05-.1.27.27,0,0,1,.13-.07l.19,0Zm.48,1v-.26a.65.65,0,0,1-.21.06,1.23,1.23,0,0,1-.54,0,.65.65,0,0,1-.21-.06v.26l0,0,.06,0,.09,0,.13,0h.34l.13,0,.09,0,.06,0Zm0-.4v-.26a.65.65,0,0,1-.21.06,1.23,1.23,0,0,1-.54,0,.65.65,0,0,1-.21-.06v.26l0,0,.06,0,.09,0,.13,0h.34l.13,0,.09,0,.06,0,0,0Zm-.48-.52h-.17l-.13,0-.09,0-.06,0s0,0,0,0l0,0,.06,0,.09,0,.13,0h.34l.13,0,.09,0,.06,0,0,0s0,0,0,0l-.06,0-.09,0-.13,0Z"/></g><path class="cls-23" d="M239.53,147.67a1.08,1.08,0,1,1-1.08-1.09A1.08,1.08,0,0,1,239.53,147.67Z"/><g id="icon-server-6" data-name="icon-server"><path class="cls-12" d="M238.45,147h.21l.18,0a.37.37,0,0,1,.14.07.16.16,0,0,1,.05.11v.79a.16.16,0,0,1-.05.11.37.37,0,0,1-.14.07l-.18,0h-.42l-.19,0a.4.4,0,0,1-.13-.07.13.13,0,0,1,0-.11v-.79a.13.13,0,0,1,0-.11.4.4,0,0,1,.13-.07l.19,0Zm.48,1v-.26a.65.65,0,0,1-.21.07,1.83,1.83,0,0,1-.54,0,.65.65,0,0,1-.21-.07v.26s0,0,0,0l.06,0,.09,0,.13,0h.34l.13,0,.09,0,.06,0Zm0-.4v-.26a.65.65,0,0,1-.21.07,1.83,1.83,0,0,1-.54,0,.65.65,0,0,1-.21-.07v.27l0,0,.06,0,.09,0,.13,0h.34l.13,0,.09,0,.06,0,0,0Zm-.48-.51h-.17l-.13,0-.09,0-.06,0s0,0,0,0l0,0,.06,0,.09,0,.13,0h.34l.13,0,.09,0,.06,0,0,0,0,0-.06,0-.09,0-.13,0Z"/></g><path class="cls-23" d="M253.53,147.67a1.08,1.08,0,1,1-1.08-1.09A1.08,1.08,0,0,1,253.53,147.67Z"/><g id="icon-server-7" data-name="icon-server"><path class="cls-12" d="M252.45,147h.21l.18,0a.37.37,0,0,1,.14.07.16.16,0,0,1,.05.11v.79a.16.16,0,0,1-.05.11.37.37,0,0,1-.14.07l-.18,0h-.42l-.19,0a.4.4,0,0,1-.13-.07.13.13,0,0,1,0-.11v-.79a.13.13,0,0,1,0-.11.4.4,0,0,1,.13-.07l.19,0Zm.47,1v-.26a.52.52,0,0,1-.2.07,1.83,1.83,0,0,1-.54,0,.65.65,0,0,1-.21-.07v.26l0,0,.06,0,.1,0,.13,0h.34l.13,0,.09,0,.06,0S252.92,148.07,252.92,148.06Zm0-.4v-.26a.52.52,0,0,1-.2.07,1.83,1.83,0,0,1-.54,0,.65.65,0,0,1-.21-.07v.27l0,0,.06,0,.1,0,.13,0h.34l.13,0,.09,0,.06,0s0,0,0,0Zm-.47-.51h-.17l-.13,0-.09,0-.06,0s0,0,0,0l0,0,.06,0,.09,0,.13,0h.33l.14,0,.09,0,.06,0,0,0s0,0,0,0l-.06,0-.09,0-.14,0Z"/></g><path class="cls-23" d="M239.53,167.66a1.08,1.08,0,1,1-1.08-1.08A1.08,1.08,0,0,1,239.53,167.66Z"/><g id="icon-server-8" data-name="icon-server"><path class="cls-12" d="M238.45,167h.21l.18.05a.26.26,0,0,1,.14.07.14.14,0,0,1,.05.1v.8a.16.16,0,0,1-.05.1.37.37,0,0,1-.14.07l-.18,0-.21,0-.21,0-.19,0a.4.4,0,0,1-.13-.07.12.12,0,0,1,0-.1v-.8a.11.11,0,0,1,0-.1.27.27,0,0,1,.13-.07l.19-.05Zm.48,1v-.26a.65.65,0,0,1-.21.06l-.27,0-.27,0a.65.65,0,0,1-.21-.06v.26l0,0,.06,0,.09,0,.13,0h.34l.13,0,.09,0,.06,0Zm0-.4v-.26a.65.65,0,0,1-.21.06l-.27,0-.27,0a.65.65,0,0,1-.21-.06v.26l0,0,.06,0,.09,0,.13,0h.34l.13,0,.09,0,.06,0,0,0Zm-.48-.52h-.17l-.13,0-.09,0-.06,0,0,0,0,0,.06,0,.09,0,.13,0h.34l.13,0,.09,0,.06,0,0,0,0,0-.06,0-.09,0-.13,0Z"/></g><path class="cls-23" d="M253.53,167.66a1.08,1.08,0,1,1-1.08-1.08A1.08,1.08,0,0,1,253.53,167.66Z"/><g id="icon-server-9" data-name="icon-server"><path class="cls-12" d="M252.45,167h.21l.18.05a.26.26,0,0,1,.14.07.14.14,0,0,1,.05.1v.8a.16.16,0,0,1-.05.1.37.37,0,0,1-.14.07l-.18,0-.21,0-.21,0-.19,0a.4.4,0,0,1-.13-.07.12.12,0,0,1,0-.1v-.8a.11.11,0,0,1,0-.1.27.27,0,0,1,.13-.07l.19-.05Zm.47,1v-.26a.52.52,0,0,1-.2.06l-.27,0-.27,0a.65.65,0,0,1-.21-.06v.26l0,0,.06,0,.1,0,.13,0h.34l.13,0,.09,0,.06,0Zm0-.4v-.26a.52.52,0,0,1-.2.06l-.27,0-.27,0a.65.65,0,0,1-.21-.06v.26l0,0,.06,0,.1,0,.13,0h.34l.13,0,.09,0,.06,0,0,0Zm-.47-.52h-.17l-.13,0-.09,0-.06,0,0,0s0,0,0,0l.06,0,.09,0,.13,0h.33l.14,0,.09,0,.06,0s0,0,0,0l0,0-.06,0-.09,0-.14,0Z"/></g><rect class="cls-45" x="234.15" y="161.95" width="0.95" height="0.95"/><rect class="cls-31" x="236.35" y="161.95" width="0.95" height="0.95"/><rect class="cls-5" x="237.44" y="161.95" width="0.95" height="0.95"/><rect class="cls-14" x="235.25" y="161.95" width="0.95" height="0.95"/><rect class="cls-45" x="248.08" y="161.95" width="0.95" height="0.95"/><rect class="cls-5" x="250.28" y="161.95" width="0.95" height="0.95"/><rect class="cls-5" x="251.37" y="161.95" width="0.95" height="0.95"/><rect class="cls-5" x="249.18" y="161.95" width="0.95" height="0.95"/><rect class="cls-45" x="261.99" y="161.95" width="0.95" height="0.95"/><rect class="cls-31" x="264.18" y="161.95" width="0.95" height="0.95"/><rect class="cls-5" x="265.28" y="161.95" width="0.95" height="0.95"/><rect class="cls-14" x="263.08" y="161.95" width="0.95" height="0.95"/><rect class="cls-45" x="275.98" y="161.95" width="0.95" height="0.95"/><rect class="cls-31" x="278.18" y="161.95" width="0.95" height="0.95"/><rect class="cls-5" x="279.28" y="161.95" width="0.95" height="0.95"/><rect class="cls-5" x="277.08" y="161.95" width="0.95" height="0.95"/><rect class="cls-46" x="234.16" y="158.55" width="4.08" height="0.65"/><rect class="cls-46" x="238.93" y="158.55" width="2.64" height="0.65"/><rect class="cls-46" x="248.27" y="158.55" width="5.26" height="0.65"/><rect class="cls-46" x="262.07" y="158.55" width="4.08" height="0.65"/><rect class="cls-46" x="266.83" y="158.55" width="3.67" height="0.65"/><rect class="cls-46" x="276.05" y="158.55" width="3.08" height="0.65"/><rect class="cls-5" x="215.57" y="146.91" width="7.85" height="1.78"/><rect class="cls-5" x="215.57" y="159.18" width="7.85" height="1.78"/><path class="cls-47" d="M214.59,129.82V130h-1v.72h.93v.2h-.93v.86h-.23v-2Z"/><path class="cls-47" d="M216.11,131.3H215l-.22.51h-.24l.89-2h.24l.89,2h-.25Zm-.1-.21-.45-1-.44,1Z"/><path class="cls-47" d="M217.12,129.82v2h-.23v-2Z"/><path class="cls-47" d="M219,131.81l-.42-.63H218v.63h-.23v-2h.75c.5,0,.79.25.79.67a.61.61,0,0,1-.45.64l.47.68Zm-.55-.84c.36,0,.57-.16.57-.47s-.21-.47-.57-.47H218V131Z"/><path class="cls-48" d="M220.12,130.49c-.16,0-.29.06-.29.21,0,.33.83.16.83.7,0,.29-.26.42-.54.42a.83.83,0,0,1-.58-.21l.09-.16a.73.73,0,0,0,.49.19c.18,0,.32-.07.32-.22,0-.36-.82-.18-.82-.71,0-.28.25-.4.52-.4a.93.93,0,0,1,.48.13l-.09.17A.85.85,0,0,0,220.12,130.49Z"/><path class="cls-48" d="M222.41,130.89v.92h-.22V131a.39.39,0,0,0-.42-.43.51.51,0,0,0-.51.56v.73H221v-2.1h.22v.94a.58.58,0,0,1,.58-.34A.53.53,0,0,1,222.41,130.89Z"/><path class="cls-48" d="M223.84,131.81v-.23a.65.65,0,0,1-.55.24.46.46,0,0,1-.51-.45c0-.26.21-.43.56-.43h.49v-.09c0-.22-.14-.36-.4-.36a.79.79,0,0,0-.47.18l-.1-.16a1,1,0,0,1,.61-.2c.37,0,.58.2.58.51v1Zm0-.51v-.18h-.46c-.25,0-.38.07-.38.24s.13.28.34.28A.48.48,0,0,0,223.83,131.3Z"/><path class="cls-48" d="M225.3,130.31v.22a.49.49,0,0,0-.53.49v.79h-.22v-1.49h.22v.33A.55.55,0,0,1,225.3,130.31Z"/><path class="cls-48" d="M225.85,129.89a.14.14,0,1,1-.28,0,.14.14,0,1,1,.28,0Zm0,.43v1.49h-.22v-1.49Z"/><path class="cls-48" d="M227.73,130.89v.92h-.22V131a.39.39,0,0,0-.43-.43.5.5,0,0,0-.5.49v.8h-.22v-1.49h.22v.33a.59.59,0,0,1,.58-.34A.53.53,0,0,1,227.73,130.89Z"/><path class="cls-48" d="M229.53,130.32v1.34a.69.69,0,0,1-.76.71,1,1,0,0,1-.61-.22l.1-.16a.78.78,0,0,0,.51.19.5.5,0,0,0,.54-.52v-.23a.6.6,0,0,1-.56.32.72.72,0,0,1,0-1.44.61.61,0,0,1,.56.31v-.3Zm-.22.71a.52.52,0,0,0-.52-.54.54.54,0,0,0,0,1.08A.52.52,0,0,0,229.31,131Z"/><path class="cls-47" d="M230.18,131.69a.14.14,0,1,1-.28,0,.14.14,0,1,1,.28,0Z"/><path class="cls-47" d="M232,131.06a.76.76,0,1,1-.76-.75A.72.72,0,0,1,232,131.06Zm-1.29,0a.52.52,0,0,0,.53.56.56.56,0,0,0,0-1.12A.52.52,0,0,0,230.67,131.07Z"/><path class="cls-47" d="M233.11,130.31v.22a.5.5,0,0,0-.54.49v.79h-.22v-1.49h.22v.33A.55.55,0,0,1,233.11,130.31Z"/><path class="cls-47" d="M234.71,130.32v1.34a.69.69,0,0,1-.75.71,1,1,0,0,1-.62-.22l.11-.16a.74.74,0,0,0,.5.19.5.5,0,0,0,.54-.52v-.23a.6.6,0,0,1-.55.32.72.72,0,0,1,0-1.44.6.6,0,0,1,.56.31v-.3Zm-.22.71a.51.51,0,0,0-.51-.54.54.54,0,0,0,0,1.08A.51.51,0,0,0,234.49,131Z"/><path class="cls-47" d="M217.41,133.34a2.42,2.42,0,0,1-1.49-.53,1.94,1.94,0,0,0-1.46-.5,1.34,1.34,0,0,0-.83.48.08.08,0,0,1-.1,0,.08.08,0,0,1,0-.1,1.38,1.38,0,0,1,.92-.53,2,2,0,0,1,1.56.52,2.33,2.33,0,0,0,2.87,0,.06.06,0,0,1,.09,0,.06.06,0,0,1,0,.09,2.57,2.57,0,0,1-1.54.54Z"/><path class="cls-49" d="M214.66,133.35l-.22,0a1.42,1.42,0,0,1-.92-.54.06.06,0,0,1,0-.09.08.08,0,0,1,.1,0,1.25,1.25,0,0,0,.83.48,2,2,0,0,0,1.46-.49,2.45,2.45,0,0,1,3,0,.07.07,0,0,1,0,.1.06.06,0,0,1-.09,0,2.29,2.29,0,0,0-2.87,0,2.25,2.25,0,0,1-1.34.54Z"/><path class="cls-48" d="M219.76,132.89a.11.11,0,0,1,0-.09.12.12,0,0,1,.05-.1.2.2,0,0,1,.14,0l.11,0,.09.07-.06,0a.18.18,0,0,0-.07-.05l-.07,0a.12.12,0,0,0-.09,0,.06.06,0,0,0,0,.1s0,0,.1,0a.54.54,0,0,1,.17.08.15.15,0,0,1,0,.21.17.17,0,0,1-.14.05l-.12,0-.12-.08.07-.05.08.07.09,0a.11.11,0,0,0,.08,0,.08.08,0,0,0,0-.07s0,0,0-.05a.23.23,0,0,0-.13,0l-.1,0Z"/><path class="cls-48" d="M220.32,132.46h.07v.2h.14v.07h-.14v.34a.14.14,0,0,0,0,.07l.06,0h.06v.07h-.07a.11.11,0,0,1-.14-.14v-.35h-.1v-.07h.1v-.2Z"/><path class="cls-48" d="M220.64,132.76a.28.28,0,0,1,.11-.08.27.27,0,0,1,.12,0,.2.2,0,0,1,.11,0,.18.18,0,0,1,.07.08.22.22,0,0,1,0,.09v.23a.51.51,0,0,0,0,.13H221a.28.28,0,0,1,0-.09l-.11.08-.1,0a.16.16,0,0,1-.12,0,.18.18,0,0,1,0-.11.12.12,0,0,1,0-.09.15.15,0,0,1,.1-.07.77.77,0,0,1,.23-.06v0a.09.09,0,0,0,0-.07.11.11,0,0,0-.08,0l-.09,0-.1.07Zm.35.32v-.18l-.16,0a.19.19,0,0,0-.1.05.11.11,0,0,0,0,.07.06.06,0,0,0,0,.06.09.09,0,0,0,.07,0l.08,0Z"/><path class="cls-48" d="M221.32,132.73l.12-.06.09,0,.07,0,.06.06a.15.15,0,0,1,0,.1v.38h-.07v-.38a.15.15,0,0,0,0-.08.09.09,0,0,0-.07,0l-.09,0-.11,0v.42h-.07v-.55h.07v.07Z"/><path class="cls-48" d="M222.24,132.44h.07v.6a.38.38,0,0,0,0,.1s0,.05,0,.07h-.07a.24.24,0,0,1,0-.08l-.09.07-.1,0a.21.21,0,0,1-.16-.07.4.4,0,0,1,0-.42.23.23,0,0,1,.16-.08l.09,0,.1.07Zm0,.36a.24.24,0,0,0-.09-.06l-.09,0a.14.14,0,0,0-.11.05.21.21,0,0,0,0,.16.22.22,0,0,0,0,.17.14.14,0,0,0,.11.06l.09,0,.09-.07Z"/><path class="cls-48" d="M222.48,132.76a.38.38,0,0,1,.11-.08.27.27,0,0,1,.12,0,.21.21,0,0,1,.12,0,.16.16,0,0,1,.06.08.2.2,0,0,1,0,.09v.23a.53.53,0,0,0,0,.13h-.07a.29.29,0,0,1,0-.09.39.39,0,0,1-.1.08l-.11,0a.15.15,0,0,1-.11,0,.14.14,0,0,1,0-.11.16.16,0,0,1,0-.09.18.18,0,0,1,.1-.07.88.88,0,0,1,.23-.06v0a.1.1,0,0,0-.1-.1l-.09,0-.1.07Zm.35.32v-.18l-.16,0a.19.19,0,0,0-.09.05.11.11,0,0,0,0,.07.11.11,0,0,0,.09.09l.09,0Z"/><path class="cls-48" d="M223.17,132.79a.36.36,0,0,1,.1-.11.2.2,0,0,1,.11,0h0v.08h0l-.06,0a.12.12,0,0,0-.07.05.2.2,0,0,0,0,.08.29.29,0,0,0,0,.09v.24h-.07v-.55h.07Z"/><path class="cls-48" d="M223.87,132.44h.07v.6a.38.38,0,0,0,0,.1s0,.05,0,.07h-.08s0-.05,0-.08l-.1.07-.09,0a.2.2,0,0,1-.16-.07.35.35,0,0,1,0-.42.23.23,0,0,1,.16-.08l.09,0,.1.07Zm0,.36a.24.24,0,0,0-.09-.06l-.09,0a.17.17,0,0,0-.12.05.25.25,0,0,0,0,.16.22.22,0,0,0,.05.17.14.14,0,0,0,.11.06l.09,0,.09-.07Z"/><path class="cls-48" d="M224.14,132.89a.15.15,0,0,1,0-.09.12.12,0,0,1,.05-.1.22.22,0,0,1,.14,0l.11,0a.22.22,0,0,1,.09.07l-.06,0-.06-.05-.08,0a.11.11,0,0,0-.08,0,.05.05,0,0,0,0,0,.08.08,0,0,0,0,.05.19.19,0,0,0,.1,0,.44.44,0,0,1,.17.08.14.14,0,0,1,0,.1.12.12,0,0,1,0,.11.16.16,0,0,1-.14.05l-.12,0-.11-.08.06-.05.09.07.08,0a.12.12,0,0,0,.09,0,.09.09,0,0,0,0-.07s0,0,0-.05a.27.27,0,0,0-.14,0l-.1,0Z"/><path class="cls-48" d="M224.67,133.09h.1v.12l-.07.15h0l.07-.15h-.05v-.12Z"/><path class="cls-48" d="M225.68,132.44h.07v.6s0,.06,0,.1,0,.05,0,.07h-.07a.24.24,0,0,1,0-.08l-.09.07-.1,0a.21.21,0,0,1-.16-.07.4.4,0,0,1,0-.42.23.23,0,0,1,.16-.08l.09,0,.1.07v-.3Zm0,.36a.24.24,0,0,0-.09-.06l-.09,0a.16.16,0,0,0-.11.05.25.25,0,0,0,0,.16.26.26,0,0,0,0,.17.14.14,0,0,0,.11.06l.09,0,.09-.07v-.27Z"/><path class="cls-48" d="M225.92,132.76a.32.32,0,0,1,.12-.08l.11,0a.21.21,0,0,1,.12,0,.27.27,0,0,1,.07.08.22.22,0,0,1,0,.09v.23a.27.27,0,0,0,0,.13h-.08s0-.06,0-.09a.39.39,0,0,1-.1.08l-.11,0a.15.15,0,0,1-.11,0,.14.14,0,0,1,0-.11.16.16,0,0,1,0-.09.18.18,0,0,1,.1-.07l.23-.06v0a.1.1,0,0,0-.1-.1l-.09,0-.1.07Zm.35.32v-.18l-.16,0a.19.19,0,0,0-.09.05.11.11,0,0,0,0,.07.06.06,0,0,0,0,.06.07.07,0,0,0,.06,0l.09,0Z"/><path class="cls-48" d="M226.57,132.46h.07v.2h.14v.07h-.14v.34a.09.09,0,0,0,0,.07.08.08,0,0,0,.06,0h.05v.07h-.07a.18.18,0,0,1-.11,0,.16.16,0,0,1,0-.11v-.35h-.1v-.07h.1v-.2Z"/><path class="cls-48" d="M226.89,132.76a.28.28,0,0,1,.11-.08.27.27,0,0,1,.12,0,.24.24,0,0,1,.12,0,.16.16,0,0,1,.06.08.2.2,0,0,1,0,.09v.23a.53.53,0,0,0,0,.13h-.07a.29.29,0,0,1,0-.09l-.1.08-.11,0a.14.14,0,0,1-.15-.15.16.16,0,0,1,0-.09.15.15,0,0,1,.1-.07.88.88,0,0,1,.23-.06v0a.09.09,0,0,0,0-.07.1.1,0,0,0-.08,0l-.08,0-.11.07Zm.35.32v-.18l-.16,0a.19.19,0,0,0-.09.05.11.11,0,0,0,0,.07.08.08,0,0,0,0,.06.09.09,0,0,0,.07,0l.09,0Z"/><path class="cls-48" d="M227.49,132.44h.08v.29l.08-.06.1,0a.19.19,0,0,1,.16.08.28.28,0,0,1,.07.21.4.4,0,0,1,0,.15.27.27,0,0,1-.08.1.27.27,0,0,1-.12,0l-.09,0a.24.24,0,0,1-.09-.06v.07h-.08v-.77Zm.08.63.09.07h.09a.16.16,0,0,0,.11-.05.26.26,0,0,0,0-.17.25.25,0,0,0,0-.16.17.17,0,0,0-.12-.05.15.15,0,0,0-.09,0l-.08.06v.27Z"/><path class="cls-48" d="M228.11,132.76a.28.28,0,0,1,.11-.08.27.27,0,0,1,.12,0,.2.2,0,0,1,.11,0,.18.18,0,0,1,.07.08.22.22,0,0,1,0,.09v.23a.51.51,0,0,0,0,.13h-.08a.28.28,0,0,1,0-.09l-.11.08-.1,0a.16.16,0,0,1-.12,0,.18.18,0,0,1,0-.11.12.12,0,0,1,0-.09.15.15,0,0,1,.1-.07.77.77,0,0,1,.23-.06v0a.09.09,0,0,0,0-.07.11.11,0,0,0-.08,0l-.09,0-.1.07Zm.35.32v-.18l-.16,0a.19.19,0,0,0-.1.05.11.11,0,0,0,0,.07.06.06,0,0,0,0,.06.09.09,0,0,0,.07,0l.08,0Z"/><path class="cls-48" d="M228.73,132.89a.11.11,0,0,1,0-.09.1.1,0,0,1,.05-.1.17.17,0,0,1,.13,0l.11,0a.22.22,0,0,1,.09.07l0,0-.07-.05-.08,0a.11.11,0,0,0-.08,0,.05.05,0,0,0,0,0,.08.08,0,0,0,0,.05.19.19,0,0,0,.11,0,.38.38,0,0,1,.16.08.16.16,0,0,1,0,.1.14.14,0,0,1,0,.11.2.2,0,0,1-.15.05l-.12,0-.11-.08.06-.05.09.07.08,0a.12.12,0,0,0,.09,0,.09.09,0,0,0,0-.07s0,0,0-.05a.27.27,0,0,0-.13,0l-.11,0Z"/><path class="cls-48" d="M229.67,133.09a.35.35,0,0,1-.11.1.27.27,0,0,1-.12,0,.2.2,0,0,1-.16-.07.32.32,0,0,1-.07-.22.27.27,0,0,1,.07-.2.21.21,0,0,1,.16-.08.15.15,0,0,1,.11,0,.18.18,0,0,1,.09.1.33.33,0,0,1,0,.15h-.39a.31.31,0,0,0,0,.11.28.28,0,0,0,.06.08.13.13,0,0,0,.08,0,.21.21,0,0,0,.17-.12Zm-.08-.21a.17.17,0,0,0-.05-.12.14.14,0,0,0-.1,0,.14.14,0,0,0-.11,0,.19.19,0,0,0,0,.12Z"/><path class="cls-48" d="M229.82,132.89a.11.11,0,0,1,0-.09.12.12,0,0,1,.05-.1.2.2,0,0,1,.14,0l.11,0,.09.07-.06,0-.06-.05-.08,0s-.07,0-.08,0a.05.05,0,0,0,0,0s0,0,0,.05.05,0,.1,0a.54.54,0,0,1,.17.08.14.14,0,0,1,0,.1.12.12,0,0,1-.05.11.16.16,0,0,1-.14.05l-.12,0-.12-.08.07-.05.08.07.09,0a.12.12,0,0,0,.09,0,.09.09,0,0,0,0-.07s0,0,0-.05a.23.23,0,0,0-.13,0l-.1,0Z"/><path class="cls-48" d="M230.35,133.09h.1v.12l-.08.15h0l.07-.15h-.05Z"/><path class="cls-48" d="M231.06,132.73l.09-.06.1,0a.15.15,0,0,1,.11,0,.18.18,0,0,1,.09.1.61.61,0,0,1,0,.15.4.4,0,0,1,0,.15.2.2,0,0,1-.08.1.23.23,0,0,1-.11,0l-.1,0a.24.24,0,0,1-.09-.06v.28H231v-.76h.07v.07Zm0,.34a.24.24,0,0,0,.09.06.15.15,0,0,0,.09,0,.14.14,0,0,0,.11-.05.22.22,0,0,0,.05-.17.25.25,0,0,0-.05-.16.16.16,0,0,0-.11-.05.15.15,0,0,0-.09,0,.24.24,0,0,0-.09.06v.27Z"/><path class="cls-48" d="M231.84,133.22a.22.22,0,0,1-.18-.08.27.27,0,0,1-.07-.2.41.41,0,0,1,0-.16.2.2,0,0,1,.09-.09.2.2,0,0,1,.24,0,.3.3,0,0,1,.09.1.33.33,0,0,1,0,.15.3.3,0,0,1-.07.21A.21.21,0,0,1,231.84,133.22Zm0-.06a.17.17,0,0,0,.12-.06.27.27,0,0,0,0-.17.25.25,0,0,0,0-.16.15.15,0,0,0-.12-.05.13.13,0,0,0-.12.05.26.26,0,0,0-.05.17.25.25,0,0,0,.05.16A.14.14,0,0,0,231.83,133.16Z"/><path class="cls-48" d="M232.24,132.44h.07v.77h-.07Z"/><path class="cls-48" d="M232.53,132.45h.07v.09h-.07Zm0,.21h.07v.55h-.07Z"/><path class="cls-48" d="M233.22,133.08a.44.44,0,0,1-.08.1.23.23,0,0,1-.14,0,.27.27,0,0,1-.12,0,.39.39,0,0,1-.08-.1.4.4,0,0,1,0-.15.28.28,0,0,1,.07-.21.21.21,0,0,1,.17-.08.19.19,0,0,1,.12,0,.45.45,0,0,1,.09.1l-.07,0a.35.35,0,0,0-.06-.09.14.14,0,0,0-.09,0,.14.14,0,0,0-.11.06.29.29,0,0,0,0,.17.25.25,0,0,0,0,.16.14.14,0,0,0,.11.06.16.16,0,0,0,.15-.12Z"/><path class="cls-48" d="M233.37,132.45h.08v.09h-.08Zm0,.21h.08v.55h-.08Z"/><path class="cls-48" d="M234.07,133.09a.35.35,0,0,1-.11.1.2.2,0,0,1-.11,0,.22.22,0,0,1-.17-.07.38.38,0,0,1-.07-.22.32.32,0,0,1,.07-.2.23.23,0,0,1,.16-.08.19.19,0,0,1,.12,0,.16.16,0,0,1,.08.1.33.33,0,0,1,0,.15h-.38a.18.18,0,0,0,0,.11.12.12,0,0,0,.06.08.11.11,0,0,0,.07,0A.21.21,0,0,0,234,133Zm-.07-.21a.23.23,0,0,0-.06-.12.14.14,0,0,0-.1,0,.16.16,0,0,0-.11,0,.28.28,0,0,0,0,.12Z"/><path class="cls-48" d="M234.23,132.89a.11.11,0,0,1,0-.09.12.12,0,0,1,0-.1.22.22,0,0,1,.14,0l.11,0a.22.22,0,0,1,.09.07l-.06,0-.06-.05-.08,0a.11.11,0,0,0-.08,0,.05.05,0,0,0,0,0,.08.08,0,0,0,0,.05.19.19,0,0,0,.1,0,.44.44,0,0,1,.17.08.16.16,0,0,1,0,.1.13.13,0,0,1-.06.11.16.16,0,0,1-.14.05l-.12,0-.11-.08.06-.05.09.07.08,0a.12.12,0,0,0,.09,0,.09.09,0,0,0,0-.07s0,0,0-.05a.27.27,0,0,0-.13,0l-.11,0Z"/><path class="cls-12" d="M216.13,140.51a.09.09,0,0,1-.09.08h-2.47a.09.09,0,0,1-.09-.08v-3.32a.09.09,0,0,1,.09-.09H216a.09.09,0,0,1,.09.09v3.32Z"/><path class="cls-50" d="M216.13,140.51a.09.09,0,0,1-.09.08h-2.47a.09.09,0,0,1-.09-.08v-3.32a.09.09,0,0,1,.09-.09H216a.09.09,0,0,1,.09.09v3.32Z"/><circle class="cls-51" cx="215.69" cy="140.08" r="0.23"/><path class="cls-51" d="M215.69,140.42a.34.34,0,1,1,0-.67.34.34,0,0,1,0,.67Zm0-.62a.29.29,0,1,0,.28.28A.29.29,0,0,0,215.69,139.8Z"/><rect class="cls-5" x="213.91" y="138.02" width="1.73" height="0.2"/><rect class="cls-5" x="213.91" y="138.48" width="0.79" height="0.2"/><rect class="cls-5" x="213.91" y="138.95" width="0.79" height="0.2"/><rect class="cls-5" x="213.91" y="139.41" width="1.34" height="0.2"/><rect class="cls-51" x="213.91" y="137.59" width="1.24" height="0.2"/><path class="cls-52" d="M222.18,140.54a.08.08,0,0,1-.09.08h-2.47a.08.08,0,0,1-.09-.08v-3.32a.09.09,0,0,1,.09-.08h2.47a.09.09,0,0,1,.09.08v3.32Z"/><rect class="cls-5" x="219.96" y="138.05" width="1.73" height="0.2"/><rect class="cls-5" x="219.96" y="138.52" width="1.34" height="0.2"/><rect class="cls-5" x="219.96" y="138.98" width="0.89" height="0.2"/><rect class="cls-5" x="220.84" y="139.45" width="0.47" height="0.2"/><rect class="cls-5" x="219.96" y="139.45" width="0.62" height="0.2"/><rect class="cls-12" x="219.96" y="137.62" width="1.24" height="0.2"/><circle class="cls-53" cx="218.8" cy="140.08" r="0.23"/><path class="cls-53" d="M218.8,140.42a.34.34,0,1,1,0-.67.34.34,0,0,1,0,.67Zm0-.62a.29.29,0,1,0,.28.28A.29.29,0,0,0,218.8,139.8Z"/><path class="cls-51" d="M219.76,141.22a.12.12,0,0,1-.13.12h-3.57a.12.12,0,0,1-.13-.12v-4.78a.12.12,0,0,1,.13-.12h3.57a.12.12,0,0,1,.13.12Z"/><circle class="cls-12" cx="219.11" cy="140.62" r="0.34"/><path class="cls-12" d="M219.11,141.08a.47.47,0,1,1,.47-.46A.47.47,0,0,1,219.11,141.08Zm0-.9a.44.44,0,0,0-.44.44.44.44,0,0,0,.44.44.44.44,0,0,0,0-.88Z"/><rect class="cls-12" x="216.56" y="137.73" width="2.49" height="0.1"/><rect class="cls-12" x="216.56" y="138.4" width="1.93" height="0.1"/><rect class="cls-12" x="216.56" y="139.07" width="1.14" height="0.1"/><rect class="cls-12" x="218.09" y="139.06" width="1.14" height="0.1"/><rect class="cls-12" x="216.56" y="139.74" width="1.93" height="0.1"/><rect class="cls-12" x="216.56" y="137.02" width="1.79" height="0.29"/></svg>