<svg id="Layer_1" data-name="Layer 1" xmlns="http://www.w3.org/2000/svg" xmlns:xlink="http://www.w3.org/1999/xlink" viewBox="0 0 408.83 262.75"><defs><style>.cls-1,.cls-15,.cls-16,.cls-25,.cls-27,.cls-31,.cls-37,.cls-6{fill:none;}.cls-2{fill:#323e50;}.cls-3,.cls-9{fill:#f3f6f7;}.cls-16,.cls-25,.cls-3,.cls-6{stroke:#323e50;}.cls-15,.cls-25,.cls-27,.cls-3,.cls-31,.cls-37,.cls-6{stroke-miterlimit:10;}.cls-4{fill:#fff;}.cls-5{fill:#e24030;}.cls-7{fill:#879191;}.cls-8{fill:#36a9e1;}.cls-10{fill:#c8cbcf;}.cls-11{fill:#4298d3;}.cls-12{clip-path:url(#clip-path);}.cls-13{fill:#d14c16;}.cls-14{fill:#2cb195;}.cls-15,.cls-31{stroke:#c8cbcf;}.cls-15{stroke-width:0.3px;}.cls-16{stroke-linecap:round;stroke-linejoin:round;}.cls-17{fill:#ededed;}.cls-18{fill:#010101;}.cls-19{fill:#39485d;}.cls-20{fill:#936037;}.cls-21{fill:#344155;}.cls-22{fill:#f8ba98;}.cls-23{fill:#835845;}.cls-24{fill:#9eaaaa;}.cls-25{stroke-dasharray:2;}.cls-26{clip-path:url(#clip-path-2);}.cls-27{stroke:#36a9e1;stroke-width:2px;}.cls-28{fill:#c78237;}.cls-29{fill:#1d1d1b;}.cls-30{fill:#3c3c3b;}.cls-32{fill:#45a9e0;}.cls-33{fill:#13110c;}.cls-34{fill:#383f51;}.cls-35{fill:#787878;}.cls-36{fill:#686868;}.cls-37{stroke:#1d1d1b;stroke-width:0.5px;}</style><clipPath id="clip-path"><rect class="cls-1" x="190" y="122.57" width="82.38" height="50.16" rx="1"/></clipPath><clipPath id="clip-path-2"><circle class="cls-1" cx="80.72" cy="65.07" r="16.2"/></clipPath></defs><rect class="cls-2" x="228.88" y="177.85" width="4.79" height="12.58"/><rect class="cls-3" x="185.77" y="118.42" width="91.49" height="63.47" rx="4"/><rect class="cls-4" x="190.3" y="122.34" width="82.16" height="13.29"/><circle class="cls-5" cx="193.05" cy="125.16" r="1.12"/><line class="cls-6" x1="190.3" y1="128.51" x2="272.25" y2="128.51"/><rect class="cls-2" x="221.4" y="190.05" width="19.76" height="1.35"/><path class="cls-7" d="M260.67,133c0,.09-.14.17-.31.17H249.27c-.17,0-.31-.08-.31-.17v-1.67c0-.09.14-.17.31-.17h11.09c.17,0,.31.08.31.17Z"/><path class="cls-8" d="M224.76,132.91a.18.18,0,0,1-.17.17h-6.21a.17.17,0,0,1-.17-.17v-1.66a.17.17,0,0,1,.17-.18h6.21a.18.18,0,0,1,.17.18Z"/><rect class="cls-8" x="225.31" y="131.07" width="6.4" height="2" rx="0.17"/><path class="cls-8" d="M237.6,132.91a.16.16,0,0,1-.14.17h-5.11a.16.16,0,0,1-.14-.17v-1.66a.16.16,0,0,1,.14-.18h5.11a.16.16,0,0,1,.14.18Z"/><path class="cls-8" d="M244.76,132.91a.18.18,0,0,1-.17.17h-6.26a.18.18,0,0,1-.18-.17v-1.66a.18.18,0,0,1,.18-.18h6.26a.18.18,0,0,1,.17.18Z"/><path class="cls-8" d="M261.24,131.71h.08v.65h.4v.06h-.48Z"/><path class="cls-8" d="M261.77,132.15a.27.27,0,0,1,.54,0,.27.27,0,1,1-.54,0Zm.47,0a.2.2,0,0,0-.2-.21.2.2,0,0,0-.2.21.2.2,0,0,0,.2.21A.19.19,0,0,0,262.24,132.15Z"/><path class="cls-8" d="M263,131.88v.48a.24.24,0,0,1-.27.27.35.35,0,0,1-.25-.09l0,0a.35.35,0,0,0,.21.07c.14,0,.2-.06.2-.19v-.07a.24.24,0,0,1-.21.1.26.26,0,1,1,0-.52.24.24,0,0,1,.21.11v-.11Zm-.07.26a.19.19,0,0,0-.2-.2.2.2,0,1,0,0,.4A.19.19,0,0,0,262.89,132.14Z"/><path class="cls-8" d="M263.42,131.72a.06.06,0,0,1,.05-.06.06.06,0,1,1,0,.11A.05.05,0,0,1,263.42,131.72Zm0,.16h.07v.54h-.07Z"/><path class="cls-8" d="M264.21,132.11v.31h-.08v-.3c0-.12-.06-.17-.16-.17a.18.18,0,0,0-.19.19v.28h-.07v-.54h.07v.1a.23.23,0,0,1,.2-.1A.21.21,0,0,1,264.21,132.11Z"/><path class="cls-8" d="M264.62,132.15a.28.28,0,0,1,.55,0,.28.28,0,1,1-.55,0Zm.47,0a.2.2,0,0,0-.2-.21.2.2,0,0,0-.2.21.2.2,0,0,0,.2.21A.19.19,0,0,0,265.09,132.15Z"/><path class="cls-8" d="M265.59,131.88V132h0c-.11,0-.18.07-.18.2v.27h-.07v-.54h.07V132A.2.2,0,0,1,265.59,131.88Z"/><path class="cls-8" d="M266.5,132.42l-.16-.23h-.25v.22H266v-.71h.27c.18,0,.29.09.29.24a.23.23,0,0,1-.16.23l.17.24Zm0-.47c0-.11-.08-.18-.22-.18h-.19v.36h.19C266.42,132.13,266.5,132.07,266.5,132Z"/><path class="cls-8" d="M267.21,132.18h-.46a.2.2,0,0,0,.22.18.2.2,0,0,0,.16-.07l0,.05a.26.26,0,0,1-.21.09.27.27,0,0,1-.28-.28.27.27,0,1,1,.53,0Zm-.46-.06h.39a.19.19,0,0,0-.19-.18A.2.2,0,0,0,266.75,132.12Z"/><path class="cls-8" d="M267.85,131.88v.48a.24.24,0,0,1-.27.27.37.37,0,0,1-.25-.09l0,0a.35.35,0,0,0,.21.07c.14,0,.2-.06.2-.19v-.07a.23.23,0,0,1-.21.1.26.26,0,1,1,0-.52.24.24,0,0,1,.21.11v-.11Zm-.07.26a.2.2,0,1,0-.2.2A.19.19,0,0,0,267.78,132.14Z"/><path class="cls-8" d="M268,131.72a.06.06,0,0,1,.06-.06.05.05,0,0,1,0,.05.06.06,0,0,1,0,.06A.06.06,0,0,1,268,131.72Zm0,.16h.07v.54h-.07Z"/><path class="cls-8" d="M268.26,132.36l0-.06a.31.31,0,0,0,.19.06c.11,0,.15,0,.15-.08s-.35,0-.35-.25.08-.15.21-.15a.36.36,0,0,1,.19.05l0,.06a.3.3,0,0,0-.16-.05c-.1,0-.14,0-.14.09s.35,0,.35.24-.08.16-.22.16A.34.34,0,0,1,268.26,132.36Z"/><path class="cls-8" d="M269.12,132.39a.16.16,0,0,1-.12,0,.14.14,0,0,1-.15-.16V132h-.1v-.07h.1v-.11h.07v.11h.16V132h-.16v.32c0,.06,0,.1.09.1a.11.11,0,0,0,.08,0Z"/><path class="cls-8" d="M269.7,132.18h-.45a.19.19,0,0,0,.21.18.21.21,0,0,0,.17-.07l0,.05a.27.27,0,0,1-.21.09.27.27,0,0,1-.28-.28.26.26,0,1,1,.52,0Zm-.45-.06h.38a.19.19,0,0,0-.19-.18A.19.19,0,0,0,269.25,132.12Z"/><path class="cls-8" d="M270.12,131.88V132h0c-.11,0-.18.07-.18.2v.27h-.07v-.54h.07V132A.2.2,0,0,1,270.12,131.88Z"/><rect class="cls-2" x="190.3" y="135.63" width="82.16" height="7.93"/><rect class="cls-9" x="190.3" y="143.56" width="82.16" height="28.94"/><rect class="cls-4" x="211.04" y="145.06" width="12.3" height="19.1" rx="1"/><rect class="cls-10" x="212.83" y="151.6" width="8.73" height="1.78"/><rect class="cls-10" x="212.83" y="154.94" width="8.73" height="0.65"/><rect class="cls-10" x="212.83" y="155.96" width="8.73" height="0.65"/><rect class="cls-10" x="212.83" y="156.98" width="8.73" height="0.65"/><g id="icon-server"><path class="cls-4" d="M199.17,137.53a2.78,2.78,0,0,1,.51,0,3,3,0,0,1,.45.09,1.07,1.07,0,0,1,.32.18.3.3,0,0,1,.13.24V140a.3.3,0,0,1-.13.25.88.88,0,0,1-.32.17,3,3,0,0,1-.45.1,4.12,4.12,0,0,1-.51,0,4.07,4.07,0,0,1-.5,0,3,3,0,0,1-.45-.1.88.88,0,0,1-.32-.17.3.3,0,0,1-.13-.25v-1.92a.3.3,0,0,1,.13-.24,1.07,1.07,0,0,1,.32-.18,3,3,0,0,1,.45-.09A2.74,2.74,0,0,1,199.17,137.53Zm1.15,2.47v-.62a1.84,1.84,0,0,1-.5.16,4.19,4.19,0,0,1-1.29,0,1.84,1.84,0,0,1-.5-.16V140s0,0,.05.06a.53.53,0,0,0,.15.07,1.14,1.14,0,0,0,.22.07,2.29,2.29,0,0,0,.32.06l.4,0,.41,0a2.29,2.29,0,0,0,.32-.06,1.14,1.14,0,0,0,.22-.07.53.53,0,0,0,.15-.07S200.32,140,200.32,140Zm0-1v-.62a1.84,1.84,0,0,1-.5.16,4.19,4.19,0,0,1-1.29,0,1.84,1.84,0,0,1-.5-.16V139s0,0,.05.06a.53.53,0,0,0,.15.07,1.14,1.14,0,0,0,.22.07l.32.06.4,0,.41,0,.32-.06a1.14,1.14,0,0,0,.22-.07.53.53,0,0,0,.15-.07s0,0,0-.06Zm-1.15-1.23a2.61,2.61,0,0,0-.4,0l-.31,0-.23.07-.15.07s-.05,0-.05.06,0,0,.05.06l.15.07.23.07.31.06.4,0,.4,0,.32-.06.23-.07.14-.07s.06,0,.06-.06,0,0-.06-.06l-.14-.07-.23-.07a2,2,0,0,0-.32,0A2.55,2.55,0,0,0,199.17,137.81Z"/></g><g id="icon-server-2" data-name="icon-server"><path class="cls-9" d="M193.68,137.43l.35,0,.3.07a.57.57,0,0,1,.22.12.21.21,0,0,1,.09.16v1.31a.22.22,0,0,1-.09.17.75.75,0,0,1-.22.11l-.3.07-.35,0-.34,0-.3-.07a.75.75,0,0,1-.22-.11.22.22,0,0,1-.09-.17V137.8a.21.21,0,0,1,.09-.16.57.57,0,0,1,.22-.12l.3-.07Zm.78,1.68v-.43a1,1,0,0,1-.34.11,2.06,2.06,0,0,1-.44,0,2,2,0,0,1-.43,0,.91.91,0,0,1-.34-.11v.43l0,0,.1,0,.15,0,.22,0,.27,0,.28,0a1,1,0,0,0,.21,0l.16,0,.1,0Zm0-.65V138a1,1,0,0,1-.34.11,2.06,2.06,0,0,1-.44,0,3,3,0,0,1-.43,0,.91.91,0,0,1-.34-.11v.43l0,0,.1,0,.15.05.22,0H194a1,1,0,0,0,.21,0l.16-.05.1,0,0,0Zm-.78-.84h-.27l-.21,0-.16.05a.31.31,0,0,0-.1.05s0,0,0,0,0,0,0,0l.1,0,.16.05.21,0H194l.21,0,.16-.05a.19.19,0,0,0,.09,0s0,0,0,0,0,0,0,0a.19.19,0,0,0-.09-.05l-.16-.05-.21,0Z"/></g><g id="icon-server-3" data-name="icon-server"><path class="cls-11" d="M196.13,138.18a4.54,4.54,0,0,1,.65,0,4.06,4.06,0,0,1,.57.12,1.37,1.37,0,0,1,.42.2.39.39,0,0,1,.16.29v2.28a.39.39,0,0,1-.16.29,1.26,1.26,0,0,1-.42.2,3,3,0,0,1-.57.12,4.54,4.54,0,0,1-.65,0,4.49,4.49,0,0,1-.64,0,3,3,0,0,1-.57-.12,1.26,1.26,0,0,1-.42-.2.39.39,0,0,1-.16-.29v-2.28a.39.39,0,0,1,.16-.29,1.26,1.26,0,0,1,.42-.2,4.06,4.06,0,0,1,.57-.12A4.49,4.49,0,0,1,196.13,138.18Zm1.47,2.93v-.74a2.72,2.72,0,0,1-.64.19,5.7,5.7,0,0,1-1.65,0,2.72,2.72,0,0,1-.64-.19v.74s0,0,.07.07l.18.08.29.09.41.06a4.12,4.12,0,0,0,.51,0,4.17,4.17,0,0,0,.52,0l.41-.06.29-.09.18-.08S197.6,141.13,197.6,141.11Zm0-1.14v-.74a2.72,2.72,0,0,1-.64.19,5.7,5.7,0,0,1-1.65,0,2.72,2.72,0,0,1-.64-.19V140s0,0,.07.07l.18.08.29.09.41.06a4.12,4.12,0,0,0,.51,0,4.17,4.17,0,0,0,.52,0l.41-.06.29-.09.18-.08s.07,0,.07-.07Zm-1.47-1.46a4.35,4.35,0,0,0-.51,0l-.4.06-.29.09a.9.9,0,0,0-.19.08.22.22,0,0,0-.07.07l.07.07a.85.85,0,0,0,.19.09l.29.08.4.06a4.36,4.36,0,0,0,.51,0,4.41,4.41,0,0,0,.52,0l.4-.06.29-.08a.85.85,0,0,0,.19-.09l.07-.07a.22.22,0,0,0-.07-.07.9.9,0,0,0-.19-.08l-.29-.09-.4-.06A4.43,4.43,0,0,0,196.13,138.51Z"/></g><path class="cls-4" d="M203,140.55v-1.91h.57a.94.94,0,0,1,.45.11.87.87,0,0,1,.31.32,1.06,1.06,0,0,1,.1.48v.09a.9.9,0,0,1-.11.48.72.72,0,0,1-.3.32.9.9,0,0,1-.46.11Zm.34-1.64v1.38h.21a.52.52,0,0,0,.41-.17.71.71,0,0,0,.14-.47v-.1a.74.74,0,0,0-.14-.48.47.47,0,0,0-.39-.16Z"/><path class="cls-4" d="M205.54,140.55a.63.63,0,0,1,0-.13.49.49,0,0,1-.38.16.53.53,0,0,1-.35-.12.38.38,0,0,1-.13-.3.4.4,0,0,1,.17-.35.74.74,0,0,1,.48-.13h.2v-.09a.28.28,0,0,0-.06-.18.29.29,0,0,0-.19-.06.32.32,0,0,0-.18.05.16.16,0,0,0-.07.14h-.32a.37.37,0,0,1,.08-.22.49.49,0,0,1,.21-.16.73.73,0,0,1,.3-.06.59.59,0,0,1,.39.13.46.46,0,0,1,.16.35v.64a.67.67,0,0,0,.05.31v0Zm-.35-.23a.34.34,0,0,0,.18,0,.27.27,0,0,0,.13-.13v-.26h-.17a.49.49,0,0,0-.27.06.2.2,0,0,0-.09.17.2.2,0,0,0,.06.15A.21.21,0,0,0,205.19,140.32Z"/><path class="cls-4" d="M206.55,138.78v.35h.25v.24h-.25v.79a.19.19,0,0,0,0,.12.19.19,0,0,0,.12,0l.11,0v.25l-.21,0c-.24,0-.37-.14-.37-.41v-.8H206v-.24h.23v-.35Z"/><path class="cls-4" d="M207.9,140.55a.28.28,0,0,1,0-.13.47.47,0,0,1-.37.16.51.51,0,0,1-.35-.12.39.39,0,0,1-.14-.3.4.4,0,0,1,.17-.35.79.79,0,0,1,.49-.13h.19v-.09a.28.28,0,0,0-.06-.18.25.25,0,0,0-.19-.06.35.35,0,0,0-.18.05.19.19,0,0,0-.07.14H207a.37.37,0,0,1,.08-.22.49.49,0,0,1,.21-.16.73.73,0,0,1,.3-.06.62.62,0,0,1,.4.13.43.43,0,0,1,.15.35v.64a.66.66,0,0,0,.06.31v0Zm-.35-.23a.39.39,0,0,0,.18,0,.3.3,0,0,0,.12-.13v-.26h-.17a.49.49,0,0,0-.27.06.2.2,0,0,0-.09.17.2.2,0,0,0,.06.15A.23.23,0,0,0,207.55,140.32Z"/><path class="cls-4" d="M209.76,139.86a.82.82,0,0,1-.15.52.5.5,0,0,1-.41.2.46.46,0,0,1-.39-.18l0,.15h-.28v-2h.32v.74a.45.45,0,0,1,.37-.17.5.5,0,0,1,.41.2.87.87,0,0,1,.15.54Zm-.32,0a.56.56,0,0,0-.09-.35.25.25,0,0,0-.23-.11.29.29,0,0,0-.29.18v.58a.28.28,0,0,0,.29.19.27.27,0,0,0,.23-.11.63.63,0,0,0,.09-.34Z"/><path class="cls-4" d="M210.87,140.55a.63.63,0,0,1,0-.13.49.49,0,0,1-.38.16.51.51,0,0,1-.35-.12.43.43,0,0,1,0-.65.74.74,0,0,1,.48-.13h.2v-.09a.24.24,0,0,0-.07-.18.24.24,0,0,0-.18-.06.3.3,0,0,0-.18.05.16.16,0,0,0-.07.14H210a.32.32,0,0,1,.08-.22.49.49,0,0,1,.21-.16.72.72,0,0,1,.29-.06.62.62,0,0,1,.4.13.46.46,0,0,1,.16.35v.64a.67.67,0,0,0,0,.31v0Zm-.35-.23a.34.34,0,0,0,.18,0,.27.27,0,0,0,.13-.13v-.26h-.18a.48.48,0,0,0-.26.06.2.2,0,0,0-.09.17.2.2,0,0,0,.06.15A.21.21,0,0,0,210.52,140.32Z"/><path class="cls-4" d="M212.28,140.17a.14.14,0,0,0-.07-.13A.76.76,0,0,0,212,140a1.54,1.54,0,0,1-.28-.09.37.37,0,0,1-.24-.33.38.38,0,0,1,.16-.31.56.56,0,0,1,.39-.13.7.7,0,0,1,.42.13.4.4,0,0,1,.15.33h-.32a.25.25,0,0,0-.06-.16.29.29,0,0,0-.19-.06.31.31,0,0,0-.17,0,.16.16,0,0,0-.06.13.14.14,0,0,0,.06.12,1.2,1.2,0,0,0,.25.08,1.21,1.21,0,0,1,.29.1.37.37,0,0,1,.16.14.29.29,0,0,1,.05.19.36.36,0,0,1-.16.31.65.65,0,0,1-.41.12.75.75,0,0,1-.31-.06.5.5,0,0,1-.22-.18.39.39,0,0,1-.07-.23h.31a.21.21,0,0,0,.08.17.33.33,0,0,0,.21.06.31.31,0,0,0,.19-.05A.13.13,0,0,0,212.28,140.17Z"/><path class="cls-4" d="M213.5,140.58a.64.64,0,0,1-.49-.19.69.69,0,0,1-.19-.51v0a.79.79,0,0,1,.08-.38.58.58,0,0,1,.23-.26.61.61,0,0,1,.78.09.75.75,0,0,1,.16.52v.13h-.93a.43.43,0,0,0,.12.28.35.35,0,0,0,.26.11.45.45,0,0,0,.36-.18l.17.16a.63.63,0,0,1-.23.2A.68.68,0,0,1,213.5,140.58Zm0-1.22a.26.26,0,0,0-.21.09.48.48,0,0,0-.11.26h.61v0a.37.37,0,0,0-.08-.25A.29.29,0,0,0,213.46,139.36Z"/><path class="cls-4" d="M215.12,140.17a.16.16,0,0,0-.07-.13.74.74,0,0,0-.24-.08,1.21,1.21,0,0,1-.27-.09.37.37,0,0,1-.24-.33.36.36,0,0,1,.16-.31.56.56,0,0,1,.39-.13.65.65,0,0,1,.41.13.38.38,0,0,1,.16.33h-.32a.21.21,0,0,0-.07-.16.24.24,0,0,0-.18-.06.29.29,0,0,0-.17,0,.15.15,0,0,0-.07.13.14.14,0,0,0,.06.12l.25.08a1.16,1.16,0,0,1,.3.1.44.44,0,0,1,.16.14.38.38,0,0,1-.11.5.66.66,0,0,1-.42.12.78.78,0,0,1-.31-.06.53.53,0,0,1-.21-.18.4.4,0,0,1-.08-.23h.31a.26.26,0,0,0,.09.17.39.39,0,0,0,.4,0A.15.15,0,0,0,215.12,140.17Z"/><rect class="cls-4" x="225.04" y="145.06" width="12.3" height="19.1" rx="1"/><rect class="cls-10" x="226.83" y="151.6" width="8.73" height="1.78"/><rect class="cls-10" x="226.83" y="154.94" width="8.73" height="0.65"/><rect class="cls-10" x="226.83" y="155.96" width="8.73" height="0.65"/><rect class="cls-10" x="226.83" y="156.98" width="8.73" height="0.65"/><path class="cls-4" d="M193.62,145.06H207a1,1,0,0,1,1,1v25.8a0,0,0,0,1,0,0H192.62a0,0,0,0,1,0,0v-25.8A1,1,0,0,1,193.62,145.06Z"/><rect class="cls-4" x="238.88" y="145.06" width="12.3" height="19.1" rx="1"/><rect class="cls-10" x="240.66" y="151.6" width="8.73" height="1.78"/><rect class="cls-10" x="240.66" y="154.94" width="8.73" height="0.65"/><rect class="cls-10" x="240.66" y="155.96" width="8.73" height="0.65"/><rect class="cls-10" x="240.66" y="156.98" width="8.73" height="0.65"/><rect class="cls-4" x="252.87" y="145.06" width="12.3" height="19.1" rx="1"/><rect class="cls-10" x="254.66" y="151.6" width="8.73" height="1.78"/><rect class="cls-10" x="254.66" y="154.94" width="8.73" height="0.65"/><g class="cls-12"><rect class="cls-4" x="211" y="165.26" width="12.3" height="19.1" rx="1"/><rect class="cls-10" x="212.79" y="171.8" width="8.73" height="1.78"/><rect class="cls-10" x="212.79" y="175.14" width="8.73" height="0.65"/><rect class="cls-10" x="212.79" y="176.16" width="8.73" height="0.65"/><rect class="cls-10" x="212.79" y="177.18" width="8.73" height="0.65"/><rect class="cls-4" x="225" y="165.26" width="12.3" height="19.1" rx="1"/><rect class="cls-10" x="226.79" y="171.8" width="8.73" height="1.78"/><rect class="cls-10" x="226.79" y="175.14" width="8.73" height="0.65"/><rect class="cls-10" x="226.79" y="176.16" width="8.73" height="0.65"/><rect class="cls-10" x="226.79" y="177.18" width="8.73" height="0.65"/><rect class="cls-4" x="238.84" y="165.26" width="12.3" height="19.1" rx="1"/><rect class="cls-10" x="240.62" y="171.8" width="8.73" height="1.78"/><rect class="cls-10" x="240.62" y="175.14" width="8.73" height="0.65"/><rect class="cls-10" x="240.62" y="176.16" width="8.73" height="0.65"/><rect class="cls-10" x="240.62" y="177.18" width="8.73" height="0.65"/><rect class="cls-4" x="252.83" y="165.26" width="12.3" height="19.1" rx="1"/><rect class="cls-10" x="254.62" y="171.8" width="8.73" height="1.78"/><rect class="cls-10" x="254.62" y="175.14" width="8.73" height="0.65"/><rect class="cls-10" x="254.62" y="176.16" width="8.73" height="0.65"/><circle class="cls-8" cx="259.03" cy="168.51" r="1.08"/><rect class="cls-10" x="254.62" y="177.18" width="8.73" height="0.65"/><g id="icon-server-4" data-name="icon-server"><path class="cls-4" d="M259,167.88h.21l.18.05a.31.31,0,0,1,.14.07.14.14,0,0,1,.05.1v.8a.16.16,0,0,1-.05.1l-.14.07-.18,0-.21,0-.21,0-.19,0a.4.4,0,0,1-.13-.07.12.12,0,0,1-.05-.1v-.8a.11.11,0,0,1,.05-.1.27.27,0,0,1,.13-.07l.19-.05Zm.47,1v-.26a.53.53,0,0,1-.21.06,1.09,1.09,0,0,1-.26,0,1.12,1.12,0,0,1-.27,0,.53.53,0,0,1-.21-.06v.26l0,0,.06,0,.1,0,.13,0h.33l.14,0,.09,0,.06,0Zm0-.4v-.26a.53.53,0,0,1-.21.06,1.09,1.09,0,0,1-.26,0,1.12,1.12,0,0,1-.27,0,.53.53,0,0,1-.21-.06v.26l0,0,.06,0,.1,0,.13,0h.33l.14,0,.09,0,.06,0,0,0ZM259,168h-.17l-.13,0-.09,0-.07,0s0,0,0,0l0,0,.07,0,.09,0,.13,0h.33l.13,0,.1,0,.06,0,0,0s0,0,0,0l-.06,0-.1,0-.13,0Z"/></g></g><rect class="cls-10" x="254.66" y="155.96" width="8.73" height="0.65"/><rect class="cls-10" x="254.66" y="156.98" width="8.73" height="0.65"/><rect class="cls-6" x="190.09" y="122.34" width="82.38" height="50.16" rx="1"/><rect class="cls-10" x="194.25" y="150.28" width="9.99" height="0.89"/><rect class="cls-8" x="205.89" y="150.22" width="1.01" height="1.01"/><rect class="cls-10" x="194.25" y="152" width="9.99" height="0.89"/><rect class="cls-8" x="205.89" y="151.94" width="1.01" height="1.01"/><rect class="cls-10" x="194.25" y="153.73" width="9.99" height="0.89"/><rect class="cls-8" x="205.89" y="153.67" width="1.01" height="1.01"/><rect class="cls-10" x="194.25" y="155.45" width="9.99" height="0.89"/><rect class="cls-8" x="205.89" y="155.39" width="1.01" height="1.01"/><rect class="cls-10" x="194.25" y="162.7" width="9.99" height="0.89"/><rect class="cls-8" x="205.89" y="162.64" width="1.01" height="1.01"/><rect class="cls-10" x="194.25" y="164.57" width="9.99" height="0.89"/><rect class="cls-8" x="205.89" y="164.51" width="1.01" height="1.01"/><rect class="cls-10" x="194.25" y="166.45" width="9.99" height="0.89"/><rect class="cls-8" x="205.89" y="166.39" width="1.01" height="1.01"/><rect class="cls-10" x="194.25" y="168.32" width="9.99" height="0.89"/><rect class="cls-8" x="205.89" y="168.26" width="1.01" height="1.01"/><rect class="cls-10" x="194.25" y="157.17" width="9.99" height="0.89"/><rect class="cls-8" x="205.89" y="157.11" width="1.01" height="1.01"/><path class="cls-8" d="M246.11,168.5a1.08,1.08,0,1,1-1.08-1.08A1.08,1.08,0,0,1,246.11,168.5Z"/><g id="icon-server-5" data-name="icon-server"><path class="cls-4" d="M245,167.87h.21l.18.05a.26.26,0,0,1,.14.07.14.14,0,0,1,.05.1v.8a.16.16,0,0,1-.05.1.37.37,0,0,1-.14.07l-.18,0-.21,0-.21,0-.19,0a.4.4,0,0,1-.13-.07.12.12,0,0,1-.05-.1v-.8a.11.11,0,0,1,.05-.1.27.27,0,0,1,.13-.07l.19-.05Zm.47,1v-.26a.52.52,0,0,1-.2.06,1.23,1.23,0,0,1-.54,0,.65.65,0,0,1-.21-.06v.26l0,0,.06,0,.1,0,.13,0h.34l.13,0,.09,0,.06,0Zm0-.4v-.26a.52.52,0,0,1-.2.06l-.27,0-.27,0a.65.65,0,0,1-.21-.06v.26l0,0,.06,0,.1,0,.13,0h.34l.13,0,.09,0,.06,0,0,0ZM245,168h-.17l-.13,0-.09,0-.06,0,0,0s0,0,0,0l.06,0,.09,0,.13,0h.33l.14,0,.09,0,.06,0s0,0,0,0l0,0-.06,0-.09,0-.14,0Z"/></g><circle class="cls-8" cx="245.03" cy="148.5" r="1.08"/><g id="icon-server-6" data-name="icon-server"><path class="cls-4" d="M245,147.88h.21l.18,0a.37.37,0,0,1,.14.07.16.16,0,0,1,.05.11v.79a.16.16,0,0,1-.05.11.37.37,0,0,1-.14.07l-.18,0h-.42l-.19,0a.4.4,0,0,1-.13-.07.13.13,0,0,1-.05-.11v-.79a.13.13,0,0,1,.05-.11.4.4,0,0,1,.13-.07l.19,0Zm.47,1v-.26a.52.52,0,0,1-.2.07,1.83,1.83,0,0,1-.54,0,.65.65,0,0,1-.21-.07v.26l0,0,.06,0,.1,0,.13,0h.34l.13,0,.09,0,.06,0S245.5,148.91,245.5,148.9Zm0-.4v-.26a.52.52,0,0,1-.2.07,1.83,1.83,0,0,1-.54,0,.65.65,0,0,1-.21-.07v.27l0,0,.06,0,.1,0,.13,0h.34l.13,0,.09,0,.06,0s0,0,0,0ZM245,148h-.17l-.13,0-.09,0-.06,0s0,0,0,0l0,0,.06,0,.09,0,.13,0h.33l.14,0,.09,0,.06,0,0,0s0,0,0,0l-.06,0-.09,0-.14,0Z"/></g><circle class="cls-8" cx="259.03" cy="148.5" r="1.08"/><g id="icon-server-7" data-name="icon-server"><path class="cls-4" d="M259,147.88h.21l.18,0a.46.46,0,0,1,.14.07.16.16,0,0,1,.05.11v.79a.16.16,0,0,1-.05.11l-.14.07-.18,0h-.42l-.19,0a.4.4,0,0,1-.13-.07.13.13,0,0,1-.05-.11v-.79a.13.13,0,0,1,.05-.11.4.4,0,0,1,.13-.07l.19,0Zm.47,1v-.26a.52.52,0,0,1-.21.07,1.1,1.1,0,0,1-.26,0,1.14,1.14,0,0,1-.27,0,.52.52,0,0,1-.21-.07v.26l0,0,.06,0,.1,0,.13,0h.33l.14,0,.09,0,.06,0Zm0-.4v-.26a.52.52,0,0,1-.21.07,1.1,1.1,0,0,1-.26,0,1.14,1.14,0,0,1-.27,0,.52.52,0,0,1-.21-.07v.27l0,0,.06,0,.1,0,.13,0h.33l.14,0,.09,0,.06,0,0,0ZM259,148h-.17l-.13,0-.09,0-.07,0s0,0,0,0l0,0,.07,0,.09,0,.13,0h.33l.13,0,.1,0,.06,0,0,0s0,0,0,0l-.06,0-.1,0-.13,0Z"/></g><path class="cls-8" d="M218.21,148.43a1.08,1.08,0,1,1-1.08-1.08A1.08,1.08,0,0,1,218.21,148.43Z"/><g id="icon-server-8" data-name="icon-server"><path class="cls-4" d="M217.13,147.8l.21,0,.18,0a.46.46,0,0,1,.14.07.14.14,0,0,1,.05.1v.8a.14.14,0,0,1-.05.1.31.31,0,0,1-.14.07l-.18.05h-.42l-.19-.05a.23.23,0,0,1-.13-.07.12.12,0,0,1-.06-.1V148a.12.12,0,0,1,.06-.1.32.32,0,0,1,.13-.07l.19,0Zm.47,1v-.26a.73.73,0,0,1-.21.07l-.26,0-.27,0a.73.73,0,0,1-.21-.07v.26l0,0,.06,0a.17.17,0,0,0,.1,0l.13,0h.33l.14,0,.09,0,.06,0Zm0-.4v-.26a.73.73,0,0,1-.21.07l-.26,0-.27,0a.73.73,0,0,1-.21-.07v.26l0,0a.09.09,0,0,1,.06,0l.1,0,.13,0h.33l.14,0,.09,0,.06,0,0,0Zm-.47-.51H217l-.13,0-.1,0-.06,0,0,0,0,0,.06,0,.1,0,.13,0h.33l.13,0,.1,0,.06,0,0,0,0,0-.06,0-.1,0-.13,0Z"/></g><path class="cls-8" d="M232.21,148.43a1.09,1.09,0,1,1-1.09-1.08A1.08,1.08,0,0,1,232.21,148.43Z"/><g id="icon-server-9" data-name="icon-server"><path class="cls-4" d="M231.13,147.8l.2,0,.19,0a.46.46,0,0,1,.14.07.14.14,0,0,1,.05.1v.8a.14.14,0,0,1-.05.1.31.31,0,0,1-.14.07l-.19.05h-.41l-.19-.05a.31.31,0,0,1-.14-.07.14.14,0,0,1-.05-.1V148a.14.14,0,0,1,.05-.1.46.46,0,0,1,.14-.07l.19,0Zm.47,1v-.26a.73.73,0,0,1-.21.07l-.26,0-.27,0a.73.73,0,0,1-.21-.07v.26l0,0,.06,0a.17.17,0,0,0,.1,0l.13,0h.33l.13,0,.1,0,.06,0Zm0-.4v-.26a.73.73,0,0,1-.21.07l-.26,0-.27,0a.73.73,0,0,1-.21-.07v.26l0,0,.06,0,.1,0,.13,0h.33l.13,0,.1,0,.06,0,0,0Zm-.47-.51H231l-.13,0-.1,0-.06,0,0,0,0,0,.06,0,.1,0,.13,0h.33l.13,0,.1,0,.06,0,0,0,0,0-.06,0-.1,0-.13,0Z"/></g><path class="cls-8" d="M218.21,168.42a1.08,1.08,0,1,1-1.08-1.08A1.09,1.09,0,0,1,218.21,168.42Z"/><g id="icon-server-10" data-name="icon-server"><path class="cls-4" d="M217.13,167.8h.21l.18,0,.14.07a.16.16,0,0,1,.05.11v.79a.16.16,0,0,1-.05.11.46.46,0,0,1-.14.07l-.18,0h-.42l-.19,0a.32.32,0,0,1-.13-.07.14.14,0,0,1-.06-.11V168a.14.14,0,0,1,.06-.11.32.32,0,0,1,.13-.07l.19,0Zm.47,1v-.26a.73.73,0,0,1-.21.07,1.1,1.1,0,0,1-.26,0,1.14,1.14,0,0,1-.27,0,.73.73,0,0,1-.21-.07v.26s0,0,0,0l.06,0,.1,0,.13,0h.33l.14,0,.09,0,.06,0S217.6,168.83,217.6,168.82Zm0-.4v-.26a.52.52,0,0,1-.21.07,1.1,1.1,0,0,1-.26,0,1.14,1.14,0,0,1-.27,0,.52.52,0,0,1-.21-.07v.26s0,0,0,0l.06,0,.1,0,.13,0h.33l.14,0,.09,0,.06,0s0,0,0,0Zm-.47-.51H217l-.13,0-.1,0-.06,0,0,0,0,0,.06,0,.1,0,.13,0h.33l.13,0,.1,0,.06,0,0,0,0,0-.06,0-.1,0-.13,0Z"/></g><path class="cls-8" d="M232.21,168.42a1.09,1.09,0,1,1-1.09-1.08A1.09,1.09,0,0,1,232.21,168.42Z"/><g id="icon-server-11" data-name="icon-server"><path class="cls-4" d="M231.13,167.8h.2l.19,0,.14.07a.16.16,0,0,1,.05.11v.79a.16.16,0,0,1-.05.11.46.46,0,0,1-.14.07l-.19,0h-.41l-.19,0a.46.46,0,0,1-.14-.07.16.16,0,0,1-.05-.11V168a.16.16,0,0,1,.05-.11l.14-.07.19,0Zm.47,1v-.26a.73.73,0,0,1-.21.07,1.1,1.1,0,0,1-.26,0,1.14,1.14,0,0,1-.27,0,.73.73,0,0,1-.21-.07v.26s0,0,0,0l.06,0,.1,0,.13,0h.33l.13,0,.1,0,.06,0S231.6,168.83,231.6,168.82Zm0-.4v-.26a.52.52,0,0,1-.21.07,1.1,1.1,0,0,1-.26,0,1.14,1.14,0,0,1-.27,0,.52.52,0,0,1-.21-.07v.26s0,0,0,0l.06,0,.1,0,.13,0h.33l.13,0,.1,0,.06,0s0,0,0,0Zm-.47-.51H231l-.13,0-.1,0-.06,0,0,0,0,0,.06,0,.1,0,.13,0h.33l.13,0,.1,0,.06,0,0,0,0,0-.06,0-.1,0-.13,0Z"/></g><rect class="cls-13" x="212.83" y="162.72" width="0.95" height="0.95"/><rect class="cls-14" x="215.02" y="162.72" width="0.95" height="0.95"/><rect class="cls-10" x="216.12" y="162.72" width="0.95" height="0.95"/><rect class="cls-2" x="213.92" y="162.72" width="0.95" height="0.95"/><rect class="cls-13" x="226.76" y="162.72" width="0.95" height="0.95"/><rect class="cls-10" x="228.95" y="162.72" width="0.95" height="0.95"/><rect class="cls-10" x="230.05" y="162.72" width="0.95" height="0.95"/><rect class="cls-10" x="227.86" y="162.72" width="0.95" height="0.95"/><rect class="cls-13" x="240.66" y="162.72" width="0.95" height="0.95"/><rect class="cls-14" x="242.86" y="162.72" width="0.95" height="0.95"/><rect class="cls-10" x="243.95" y="162.72" width="0.95" height="0.95"/><rect class="cls-2" x="241.76" y="162.72" width="0.95" height="0.95"/><rect class="cls-13" x="254.66" y="162.72" width="0.95" height="0.95"/><rect class="cls-14" x="256.86" y="162.72" width="0.95" height="0.95"/><rect class="cls-10" x="257.95" y="162.72" width="0.95" height="0.95"/><rect class="cls-10" x="255.76" y="162.72" width="0.95" height="0.95"/><rect class="cls-15" x="212.84" y="159.31" width="4.08" height="0.65"/><rect class="cls-15" x="217.6" y="159.31" width="2.64" height="0.65"/><rect class="cls-15" x="226.95" y="159.31" width="5.26" height="0.65"/><rect class="cls-15" x="240.74" y="159.31" width="4.08" height="0.65"/><rect class="cls-15" x="245.51" y="159.31" width="3.67" height="0.65"/><rect class="cls-15" x="254.72" y="159.31" width="3.08" height="0.65"/><rect class="cls-10" x="194.25" y="147.68" width="7.85" height="1.78"/><rect class="cls-10" x="194.25" y="159.95" width="7.85" height="1.78"/><path class="cls-6" d="M176.61,183.82a1.09,1.09,0,0,0,.08-.15s.05-.09.07-.14a1,1,0,0,0,.05-.16.83.83,0,0,0,0-.15,1.23,1.23,0,0,0,0-.19s0-.07,0-.11v0a1.5,1.5,0,0,0,0-.2s0-.08,0-.12a.84.84,0,0,0-.05-.17c0-.05,0-.1,0-.14a1.09,1.09,0,0,0-.08-.15.83.83,0,0,0-.07-.13l-.1-.12-.11-.13,0,0-.1-.08-.14-.11-.14-.07-.15-.08-.15,0-.16-.05h-.17l-.13,0h-9.51a1.67,1.67,0,0,0,0,3.33h5a18.91,18.91,0,0,1-10.59,3.2,19.13,19.13,0,0,1-8.85-36.08,1.66,1.66,0,0,0-1.54-2.94,22.45,22.45,0,1,0,26.72,35.3l.08-.1Z"/><line class="cls-16" x1="146.8" y1="138.91" x2="144.7" y2="136.12"/><line class="cls-16" x1="146.22" y1="134.18" x2="142.53" y2="136.95"/><line class="cls-16" x1="167.32" y1="161.74" x2="163" y2="164.99"/><polygon class="cls-8" points="153.2 154.75 143.56 141.7 150.48 136.44 157.01 145.45 153.2 154.75"/><circle class="cls-6" cx="135.38" cy="96.71" r="22.73" transform="translate(18.23 214.85) rotate(-80.78)"/><path class="cls-17" d="M165.32,117.71a2.31,2.31,0,1,1-2.3-2.31A2.31,2.31,0,0,1,165.32,117.71Z"/><path class="cls-2" d="M219.93,64.34a3.24,3.24,0,0,1-2.64-1.82c-.83-1.49-.6-3.21.51-3.83l10.7-6a1.79,1.79,0,0,1,.89-.23A3.27,3.27,0,0,1,232,54.31c.83,1.49.6,3.22-.51,3.84l-10.7,6A1.82,1.82,0,0,1,219.93,64.34ZM229.39,53a1.23,1.23,0,0,0-.63.16l-10.7,6c-.85.47-1,1.87-.29,3.1a2.73,2.73,0,0,0,2.16,1.53,1.33,1.33,0,0,0,.63-.15l10.7-6c.85-.47,1-1.86.29-3.1A2.75,2.75,0,0,0,229.39,53Z"/><path class="cls-2" d="M226.18,56.74a.57.57,0,0,1-.71.39.57.57,0,0,1-.44-.68.59.59,0,0,1,.72-.4A.58.58,0,0,1,226.18,56.74Z"/><path class="cls-2" d="M226.59,59.08a.59.59,0,1,1-.44-.68A.57.57,0,0,1,226.59,59.08Z"/><path class="cls-2" d="M230.81,55.92a.59.59,0,1,1-.44-.68A.57.57,0,0,1,230.81,55.92Z"/><path class="cls-2" d="M229.65,58a.59.59,0,0,1-.72.39.58.58,0,0,1-.44-.68.6.6,0,0,1,1.16.29Z"/><rect class="cls-2" x="223.97" y="57.75" width="0.69" height="0.69"/><rect class="cls-2" x="227.85" y="54.76" width="0.69" height="0.69"/><path class="cls-8" d="M219.89,61.84l-.53-.1a5.09,5.09,0,0,1,1.41-2.64,5.22,5.22,0,0,1,1.16-.88l.27.48a4.64,4.64,0,0,0-2.31,3.14Z"/><path class="cls-2" d="M209.25,68.07h-.06a.28.28,0,0,1-.21-.33c.68-3,3.92-4.81,6.52-6.27l1.23-.7a.26.26,0,0,1,.37.09.28.28,0,0,1-.09.38l-1.24.7c-2.51,1.41-5.64,3.16-6.26,5.92A.27.27,0,0,1,209.25,68.07Z"/><path class="cls-2" d="M209,71.33h0a.27.27,0,0,1-.22-.32c.71-3.76,4.18-6.06,7-7.9.46-.31.9-.6,1.31-.89a.26.26,0,0,1,.38.07.26.26,0,0,1-.06.37l-1.33.9c-2.7,1.79-6.06,4-6.73,7.55A.26.26,0,0,1,209,71.33Z"/><path class="cls-2" d="M210.88,70.79h-.06a.27.27,0,0,1-.21-.32c.68-3,3.92-4.82,6.53-6.28l1.22-.7a.28.28,0,0,1,.38.09.29.29,0,0,1-.1.38l-1.24.7c-2.51,1.41-5.63,3.16-6.25,5.93A.28.28,0,0,1,210.88,70.79Z"/><path class="cls-18" d="M213.26,46.08c-.42-1-.93-1.88-1.43-2.8a.14.14,0,0,0-.09-.15l-.12-.23a10.88,10.88,0,0,1-1.31-2.59v-.17a.23.23,0,0,0-.05-.15,2.1,2.1,0,0,1,0-.36c0-.3-.46-.08-.49.13-.27,1.91-1.86,3.34-3.28,4.5a19,19,0,0,0-3.61,3.33c-2.12,2.88-2.85,6.78-.67,9.82a5.46,5.46,0,0,0,3.73,2.46.14.14,0,0,0,.07.19,48.56,48.56,0,0,0-.06,5.26c0,.37.61.13.6-.16a49.62,49.62,0,0,1,.05-5,3.57,3.57,0,0,0,1,0,4.54,4.54,0,0,0,1.5-.6,15.31,15.31,0,0,0,2.57-1.71,8,8,0,0,0,3-5A13.48,13.48,0,0,0,213.26,46.08Zm-3-4.47.27.47c.25.4.49.82.72,1.24A9.81,9.81,0,0,1,210,45.19C210.11,44,210.22,42.82,210.27,41.61Zm-.44,4.4a12.76,12.76,0,0,0,1.71-2.17l.59,1.12a17.39,17.39,0,0,1,1.94,5.68.32.32,0,0,0-.1.1A8.4,8.4,0,0,1,211,53.19a8.68,8.68,0,0,1-3.43,1.19c.19-.65.41-1.3.63-2A39.39,39.39,0,0,0,209.83,46Zm-2.65-1.86a10.56,10.56,0,0,0,2.51-2.86,37.23,37.23,0,0,1-.39,4.6.19.19,0,0,0,0,.21c0,.16-.05.31-.07.46a33,33,0,0,1-.87,3.72,8.82,8.82,0,0,1-2.06-5.18.17.17,0,0,0-.09-.13Zm-1.51,1.23A8.77,8.77,0,0,0,208.12,51c-.2.64-.41,1.28-.62,1.92a32.41,32.41,0,0,0-1.09,3.85,7.09,7.09,0,0,1-2.58-3,15.28,15.28,0,0,1-1.42-4.16.15.15,0,0,0-.16-.13c.11-.25.24-.49.37-.72A11.51,11.51,0,0,1,205.67,45.38Zm.44,13.27c0,.26-.05.53-.07.79-1.92-.23-3.45-2-4.19-3.7a7.12,7.12,0,0,1,.05-5.46,15.63,15.63,0,0,0,1.39,3.86,6.94,6.94,0,0,0,3,3.27h0C206.22,57.82,206.16,58.23,206.11,58.65ZM212,57a14,14,0,0,1-2.48,1.85,6,6,0,0,1-1.69.82,3.46,3.46,0,0,1-1.2,0,.15.15,0,0,0,0-.17c0-.3.05-.59.07-.88a22,22,0,0,1,.74-3.71,9.69,9.69,0,0,0,3.87-1.36,10.15,10.15,0,0,0,2.83-2.25v0A7,7,0,0,1,212,57Z"/><rect class="cls-16" x="141.18" y="145.83" width="28.68" height="8.94" transform="translate(182.27 -64.32) rotate(53.08)"/><line class="cls-6" x1="37.15" y1="193.28" x2="322.38" y2="193.28"/><path class="cls-3" d="M283.75,135h27.72a2,2,0,0,1,2,2v53.73a0,0,0,0,1,0,0H281.75a0,0,0,0,1,0,0V137A2,2,0,0,1,283.75,135Z"/><rect class="cls-10" x="287.85" y="142.45" width="19.54" height="3.83" rx="1"/><rect class="cls-10" x="287.85" y="149.55" width="19.54" height="3.83" rx="1"/><path class="cls-8" d="M299.9,177.19a2.29,2.29,0,1,1-2.28-2.28A2.28,2.28,0,0,1,299.9,177.19Z"/><rect class="cls-3" x="325.49" y="204.42" width="46.23" height="8.16" rx="1" transform="translate(697.21 417) rotate(180)"/><rect class="cls-3" x="366.96" y="207.37" width="4.76" height="52.25" rx="1" transform="translate(738.68 466.99) rotate(180)"/><rect class="cls-3" x="322.09" y="207.37" width="4.76" height="52.25" rx="1" transform="translate(648.94 466.99) rotate(180)"/><rect class="cls-3" x="321.52" y="203.97" width="50.19" height="3.63" rx="1" transform="translate(693.24 411.57) rotate(180)"/><rect class="cls-3" x="368.32" y="159.06" width="4.76" height="48.31" rx="1" transform="translate(741.4 366.43) rotate(180)"/><path class="cls-19" d="M318.24,239.79v10.58s-7.34,6.76-7.34,0v-6.76Z"/><path class="cls-20" d="M318.82,249.58a37.11,37.11,0,0,1,2.07,5.88c.16,1.43-17.14,1.13-20.34-.62-1.77-1,1.24-3.29,3.11-4.12C307.94,248.82,318.82,249.58,318.82,249.58Z"/><path class="cls-7" d="M355.89,190.06c2.4,1.2,2.11,9.48,0,11.17-7.71,6.17-36.38-1-38.7,0-3.2,1.38,2,41.55,2,41.55l-10,.83s-8.59-31.58-4.1-51.51C306.47,185.92,347.66,186,355.89,190.06Z"/><path class="cls-21" d="M333.71,160.8s15.58,8.2,23.2,7.73l-.07,7.37c-10.3-1.67-23.17-7.49-23.17-7.49Z"/><path class="cls-22" d="M345.61,138.54v-8.82a55.8,55.8,0,0,0,4.09-5.48,70.83,70.83,0,0,0,2.74-8.23l-22.72-8-.79,1s-1.49,13.77,0,18c.63,1.78,2.86,5.52,4.7,5.88.89.17,3.5.37,3.5.37l1,11Z"/><path class="cls-19" d="M338.34,144.37l7.37-7.93s11.1,5,13.79,7.93c5.75,6.29,12.34,22,9.69,28.5-3.93,9.62-35.38-4.61-35.38-4.61l.05-7.6s20.4,10.74,25.93,6.93c1-.71.39-3.81,0-5a18.19,18.19,0,0,0-2.65-3.52l-.29,31.73H330.11v-22s-1.14,5.79-1.76,7.64c-1.26,3.74-6.47,14.4-6.47,14.4h-6.46s4.42-13.06,5.28-16.61c2-8.07,2-23,5.07-29.61,1.83-3.9,10.51-8.14,10.51-8.14h1.47Z"/><path class="cls-21" d="M357,175.76c5.8.94,10.79.58,12.2-2.89,2.65-6.47-3.94-22.21-9.69-28.5a15,15,0,0,0-2.59-2Zm.07-7.38.09-9.31a18.24,18.24,0,0,1,2.64,3.52c.39,1.19,1,4.29,0,5A5.3,5.3,0,0,1,357,168.38Z"/><path class="cls-23" d="M347.9,127.18c1.71.52,3.55-4.25,3.92-6a27.94,27.94,0,0,0,0-9.48c-.7-2.67-1.34-8.84-13.33-8.82-2.78,0-9.63,2-9.63,7.42,0,1.74,4,2.34,5.52,2.52a44.38,44.38,0,0,1,7.45,1.23c1.34.49,3.61,3.67,4.34,4.9C347.49,121.14,345.45,126.42,347.9,127.18Z"/><ellipse class="cls-22" cx="346.57" cy="120.12" rx="1.57" ry="2.55"/><path class="cls-22" d="M333.78,161.4s-1.84-2.1-2.69-2.12c-2-.05-6.31,2.63-6.56,4.62-.13,1,2.12,3.67,2.12,3.67h7.13Z"/><path class="cls-2" d="M314,240.86v10.58s-7.35,6.76-7.35,0v-6.76Z"/><path class="cls-21" d="M333.83,160.8s15.58,8.2,23.2,7.73L357,175.9c-10.3-1.67-23.18-7.49-23.18-7.49Z"/><path class="cls-24" d="M355.8,190.06c2.52,1.2,2.23,9.48,0,11.17-8.14,6.17-38.4-1-40.85,0-3.38,1.38,1.64,41.55,1.64,41.55l-10,1.9s-9.17-32.65-4.42-52.58C303.65,185.92,347.11,186,355.8,190.06Z"/><path class="cls-20" d="M314.6,251.51a37.94,37.94,0,0,1,2,5.87c.16,1.44-16.49,1.14-19.56-.62-1.71-1,1.19-3.28,3-4.11C304.13,250.75,314.6,251.51,314.6,251.51Z"/><circle class="cls-6" cx="214.37" cy="56.56" r="21.24"/><circle class="cls-6" cx="280.85" cy="29.85" r="25.73" transform="translate(187.27 296.33) rotate(-76.72)"/><circle class="cls-6" cx="342.48" cy="58.66" r="19.79"/><path class="cls-3" d="M117.1,124.18H76.33a2.45,2.45,0,0,0-2.45,2.45v64.42H117.1a2.44,2.44,0,0,0,2.45-2.44v-62A2.45,2.45,0,0,0,117.1,124.18Z"/><rect class="cls-4" x="77.69" y="128.53" width="38.6" height="23.92"/><rect class="cls-10" x="77.69" y="128.53" width="38.6" height="2.28"/><rect class="cls-24" x="77.69" y="130.82" width="38.6" height="2.47"/><rect class="cls-9" x="79.44" y="137.1" width="18.75" height="11.8"/><rect class="cls-10" x="100.71" y="136.85" width="13.4" height="1.1"/><rect class="cls-10" x="100.71" y="138.95" width="5.44" height="1.1"/><rect class="cls-10" x="100.71" y="141.04" width="8.05" height="1.1"/><rect class="cls-8" x="80.54" y="142.39" width="1.19" height="6.51"/><rect class="cls-7" x="83.1" y="145.64" width="1.19" height="3.26"/><rect class="cls-2" x="85.66" y="139.5" width="1.19" height="9.4"/><rect class="cls-10" x="88.22" y="143.43" width="1.19" height="5.47"/><rect class="cls-10" x="90.51" y="143.43" width="1.19" height="5.47"/><rect class="cls-2" x="92.71" y="139.5" width="1.19" height="9.4"/><rect class="cls-8" x="95.53" y="142.39" width="1.19" height="6.51"/><line class="cls-25" x1="80.8" y1="84.8" x2="80.8" y2="120.12"/><g class="cls-26"><rect class="cls-10" x="77.12" y="67.18" width="7.63" height="0.86"/><rect class="cls-10" x="74.77" y="56.79" width="11.9" height="0.86"/><rect class="cls-10" x="75.24" y="70.14" width="10.34" height="0.86"/><rect class="cls-10" x="76.7" y="73.11" width="8.51" height="0.86"/><rect class="cls-10" x="75.65" y="59.56" width="9.93" height="0.86"/><rect class="cls-10" x="76.03" y="54.02" width="9.18" height="0.86"/><path class="cls-27" d="M85.72,48.87s-11,4.07-11,9c0,5.79,10.93,6.22,10.94,12.77,0,5-10.3,10.62-10.3,10.62"/><path class="cls-27" d="M75.72,48.87s11,4.07,11,9c0,5.79-10.93,6.22-10.94,12.77,0,5,10.3,10.62,10.3,10.62"/></g><circle class="cls-6" cx="80.72" cy="65.07" r="16.2"/><rect class="cls-8" x="131.19" y="185.94" width="8.1" height="5.5" rx="0.34"/><path class="cls-2" d="M129.84,192V179.86a.6.6,0,0,1,.6-.6h11a.26.26,0,0,1,.25.19.26.26,0,0,1-.12.29l-1.32.77V192a.6.6,0,0,1-.6.6h-9.21A.6.6,0,0,1,129.84,192Zm.6-12.2a.08.08,0,0,0-.08.09V192a.08.08,0,0,0,.08.09h9.21a.09.09,0,0,0,.09-.09V180.36a.25.25,0,0,1,.13-.22l.62-.37Z"/><path class="cls-2" d="M133,191.35a.25.25,0,0,0,.25-.25v-7.34a.25.25,0,0,0-.25-.25.26.26,0,0,0-.26.25v7.34A.26.26,0,0,0,133,191.35Z"/><path class="cls-2" d="M133,184.53h2a.25.25,0,0,0,.26-.25A.26.26,0,0,0,135,184h-2a.26.26,0,0,0-.26.26A.26.26,0,0,0,133,184.53Z"/><path class="cls-2" d="M133.15,187.18h2a.26.26,0,0,0,0-.52h-2a.26.26,0,0,0,0,.52Z"/><path class="cls-2" d="M133.15,189.82h2a.26.26,0,0,0,0-.51h-2a.26.26,0,1,0,0,.51Z"/><path class="cls-2" d="M133.23,188.5h.69a.26.26,0,0,0,.25-.26.25.25,0,0,0-.25-.25h-.69a.25.25,0,0,0-.25.25A.26.26,0,0,0,133.23,188.5Z"/><path class="cls-2" d="M133,185.85h.68a.26.26,0,0,0,.26-.25.26.26,0,0,0-.26-.26H133a.26.26,0,0,0-.26.26A.26.26,0,0,0,133,185.85Z"/><path class="cls-2" d="M133.23,191.36h.69a.26.26,0,0,0,0-.52h-.69a.26.26,0,0,0,0,.52Z"/><path class="cls-2" d="M127.55,192.4H115.1a.8.8,0,0,1-.81-.8V176.1l-1.79-1a.35.35,0,0,1,.18-.65h14.87a.81.81,0,0,1,.81.81V191.6A.8.8,0,0,1,127.55,192.4Z"/><path class="cls-4" d="M114,175.11l.85.49a.34.34,0,0,1,.17.3v15.7a.11.11,0,0,0,.12.11h12.45a.11.11,0,0,0,.12-.11V175.22a.11.11,0,0,0-.12-.11Z"/><rect class="cls-13" x="115.92" y="183.49" width="10.95" height="7.44" rx="0.46"/><path class="cls-2" d="M121.34,190.81a.35.35,0,0,1-.35-.35v-9.91a.35.35,0,1,1,.7,0v9.91A.35.35,0,0,1,121.34,190.81Z"/><path class="cls-2" d="M121.34,181.59h-2.77a.35.35,0,0,1,0-.7h2.77a.35.35,0,0,1,0,.7Z"/><path class="cls-2" d="M121.11,185.16h-2.77a.35.35,0,0,1,0-.69h2.77a.35.35,0,1,1,0,.69Z"/><path class="cls-2" d="M121.11,188.74h-2.77a.35.35,0,0,1,0-.7h2.77a.35.35,0,1,1,0,.7Z"/><path class="cls-2" d="M121,187h-.92a.35.35,0,0,1-.34-.35.34.34,0,0,1,.34-.34H121a.34.34,0,0,1,.35.34A.35.35,0,0,1,121,187Z"/><path class="cls-2" d="M121.28,183.37h-.92A.35.35,0,0,1,120,183a.35.35,0,0,1,.35-.35h.92a.35.35,0,0,1,.35.35A.35.35,0,0,1,121.28,183.37Z"/><path class="cls-2" d="M121,190.81h-.92a.35.35,0,0,1,0-.69H121a.35.35,0,1,1,0,.69Z"/><path class="cls-28" d="M88.09,179.63s.21,2.69-.35,3.29c-1.31,1.43-6.06,2.59-7.61,1.43-.81-.62-1.1-3.93-1.1-3.93l4.79-4.93Z"/><polygon class="cls-29" points="54.99 251.6 54.91 256.9 74.76 256.9 65.68 251.6 54.99 251.6"/><polygon class="cls-7" points="54.91 216.66 54.99 251.6 65.68 251.6 68.23 216.66 54.91 216.66"/><polygon class="cls-7" points="40.36 216.66 40.43 251.6 51.12 251.6 53.67 216.66 40.36 216.66"/><path class="cls-30" d="M71.64,95.07c1.24-4-6.5-11.53-9.9-11.94-4.32-.51-12.51,7.11-14.56,11.94-3.15,7.44-4.3,30,1.75,33.67,3.44,2.08,4.12-14.54,4.12-14.54s2.23-10.34,4.21-12.7C60,98.19,70.25,99.56,71.64,95.07Z"/><path class="cls-9" d="M37.78,150.21l-.12,6q-.16,7.86-.32,15.7Q37,189,36.63,206q-.15,7.64-.31,15.27H69l.76-62s1.34,6.81,2.08,9c1.48,4.4,6.94,12.62,6.94,12.62l5.1-5.24s-2-5.81-3-10c-2.32-9.5-4.94-29-8.59-36.77-2.16-4.59-9.74-7.65-9.74-7.65H60.81l-.69,9.33s-8.67-9.32-8.67-9.33c-.63-.67-6.55,2.56-7.32,3a21.27,21.27,0,0,0-6,5.06A23.94,23.94,0,0,0,34,139c-.83,3.6-1.95,7.8-1.35,11.49.62,3.87,3.45,5.91,7,7.08,8.24,2.75,17.18,2.18,25.81,1.18l-.07-9c-5.84,3.63-11.88,7.08-18.46,9.08"/><path class="cls-28" d="M51.56,124.28V113.91a65.49,65.49,0,0,1-4.81-6.45c-1.18-2.27-3.23-9.69-3.23-9.69l26.74-9.45.92,1.16s1.76,16.2,0,21.2c-.73,2.09-3.35,6.5-5.53,6.92-1,.2-4.11.44-4.11.44L60.35,131Z"/><path class="cls-29" d="M72.11,92.36c1.57-4-8.21-11.53-12.52-11.93-5.46-.51-15.82,7.1-18.41,11.93-4,7.44-5.44,30,2.21,33.67,4.35,2.08,5.21-14.53,5.21-14.53s2.83-10.35,5.33-12.71C57.44,95.48,70.36,96.86,72.11,92.36Z"/><line class="cls-31" x1="60.21" y1="132.44" x2="60.21" y2="151.12"/><line class="cls-31" x1="60.21" y1="221.31" x2="60.21" y2="160.54"/><polygon class="cls-29" points="40.43 251.6 40.36 256.9 60.21 256.9 51.12 251.6 40.43 251.6"/><path class="cls-28" d="M63.59,150.87s2.17-2.47,3.18-2.49c2.36-.06,7.42,3.1,7.71,5.44.15,1.24-2.5,4.31-2.5,4.31H63.59Z"/><line class="cls-25" x1="213.78" y1="114.81" x2="213.78" y2="80.4"/><polyline class="cls-25" points="243.33 115.4 243.33 30.91 251.18 30.91"/><polyline class="cls-25" points="263.39 115.4 263.39 91.29 343.71 91.29 343.71 81.27"/><polyline class="cls-25" points="143.33 132.84 135.43 132.84 135.43 122.57"/><path class="cls-8" d="M82.61,86.51A1.81,1.81,0,1,1,80.8,84.7,1.81,1.81,0,0,1,82.61,86.51Z"/><circle class="cls-8" cx="135.43" cy="123.43" r="1.81"/><circle class="cls-8" cx="213.78" cy="81.27" r="1.81"/><path class="cls-8" d="M251.18,30.91a1.81,1.81,0,1,1-1.81-1.81A1.81,1.81,0,0,1,251.18,30.91Z"/><path class="cls-8" d="M345.52,82a1.81,1.81,0,1,1-1.81-1.81A1.81,1.81,0,0,1,345.52,82Z"/><path class="cls-32" d="M193.26,130.59v.21h-1v.71h.93v.21h-.93v.86H192v-2Z"/><path class="cls-32" d="M194.78,132.07H193.7l-.22.51h-.24l.89-2h.23l.89,2H195Zm-.09-.21-.45-1-.45,1Z"/><path class="cls-32" d="M195.79,130.59v2h-.22v-2Z"/><path class="cls-32" d="M197.7,132.58l-.42-.64h-.66v.63h-.22v-2h.75c.5,0,.78.25.78.67a.62.62,0,0,1-.44.64l.46.68Zm-.55-.84c.36,0,.57-.16.57-.48s-.21-.46-.57-.46h-.53v.94Z"/><path class="cls-33" d="M198.8,131.26c-.17,0-.29.06-.29.2,0,.34.83.17.83.7,0,.3-.26.43-.55.43a.87.87,0,0,1-.57-.21l.08-.16a.81.81,0,0,0,.5.19c.18,0,.32-.07.32-.22,0-.37-.83-.18-.82-.71,0-.28.24-.41.52-.41a.9.9,0,0,1,.47.14l-.08.17A.85.85,0,0,0,198.8,131.26Z"/><path class="cls-33" d="M201.09,131.66v.92h-.22v-.86a.39.39,0,0,0-.42-.43.5.5,0,0,0-.51.56v.73h-.22v-2.11h.22v.95a.58.58,0,0,1,.58-.34A.53.53,0,0,1,201.09,131.66Z"/><path class="cls-33" d="M202.51,132.58v-.23a.65.65,0,0,1-.55.24.46.46,0,0,1-.5-.45c0-.27.2-.43.56-.43h.49v-.1c0-.22-.14-.35-.4-.35a.83.83,0,0,0-.48.17l-.09-.15a1,1,0,0,1,.61-.2c.37,0,.57.19.58.51v1Zm0-.51v-.19H202c-.25,0-.38.08-.38.25s.14.27.35.27A.48.48,0,0,0,202.51,132.07Z"/><path class="cls-33" d="M204,131.08v.21a.51.51,0,0,0-.54.49v.8h-.22v-1.49h.22v.33A.56.56,0,0,1,204,131.08Z"/><path class="cls-33" d="M204.53,130.66a.15.15,0,0,1-.14.15.15.15,0,0,1-.15-.15.14.14,0,0,1,.15-.15A.14.14,0,0,1,204.53,130.66Zm0,.43v1.49h-.22v-1.49Z"/><path class="cls-33" d="M206.41,131.66v.92h-.23v-.86a.39.39,0,0,0-.42-.43.49.49,0,0,0-.5.49v.8H205v-1.49h.22v.32a.59.59,0,0,1,.58-.33A.53.53,0,0,1,206.41,131.66Z"/><path class="cls-33" d="M208.2,131.09v1.33a.69.69,0,0,1-.75.72,1,1,0,0,1-.61-.22l.1-.16a.81.81,0,0,0,.5.19.5.5,0,0,0,.54-.52v-.23a.58.58,0,0,1-.55.31.67.67,0,0,1-.68-.72.66.66,0,0,1,.68-.71.57.57,0,0,1,.55.31v-.3Zm-.22.71a.51.51,0,1,0-1,0,.51.51,0,1,0,1,0Z"/><path class="cls-32" d="M208.86,132.46a.14.14,0,0,1-.28,0,.14.14,0,1,1,.28,0Z"/><path class="cls-32" d="M210.64,131.83a.76.76,0,1,1-1.52,0,.76.76,0,0,1,1.52,0Zm-1.3,0a.52.52,0,0,0,.54.56.53.53,0,0,0,.54-.56.53.53,0,0,0-.54-.56A.53.53,0,0,0,209.34,131.83Z"/><path class="cls-32" d="M211.78,131.08v.21a.49.49,0,0,0-.53.49v.8H211v-1.49h.22v.33A.55.55,0,0,1,211.78,131.08Z"/><path class="cls-32" d="M213.39,131.09v1.33a.69.69,0,0,1-.76.72,1,1,0,0,1-.61-.22l.1-.16a.84.84,0,0,0,.51.19.5.5,0,0,0,.53-.52v-.23a.57.57,0,0,1-.55.31.72.72,0,0,1,0-1.43.57.57,0,0,1,.55.31v-.3Zm-.23.71a.51.51,0,1,0-1,0,.51.51,0,1,0,1,0Z"/><path class="cls-32" d="M196.08,134.11a2.34,2.34,0,0,1-1.48-.54,2,2,0,0,0-1.46-.49,1.29,1.29,0,0,0-.83.48.07.07,0,0,1-.1,0,.06.06,0,0,1,0-.09,1.42,1.42,0,0,1,.92-.54,2.1,2.1,0,0,1,1.56.52,2.31,2.31,0,0,0,2.86,0,.07.07,0,1,1,.09.1,2.61,2.61,0,0,1-1.55.54Z"/><path class="cls-34" d="M193.33,134.11h-.21a1.42,1.42,0,0,1-.92-.54.07.07,0,0,1,0-.1.08.08,0,0,1,.1,0,1.34,1.34,0,0,0,.83.48,1.94,1.94,0,0,0,1.46-.5,2.43,2.43,0,0,1,3,0,.06.06,0,0,1,0,.09.07.07,0,0,1-.1,0,2.27,2.27,0,0,0-2.86,0,2.25,2.25,0,0,1-1.35.54Z"/><path class="cls-33" d="M198.44,133.66a.12.12,0,0,1,0-.09.13.13,0,0,1,0-.11.17.17,0,0,1,.13,0l.11,0a.2.2,0,0,1,.09.06l-.05.05-.07-.05-.08,0-.08,0a.09.09,0,0,0,0,.06s0,0,0,.05a.32.32,0,0,0,.11,0,.34.34,0,0,1,.16.08.14.14,0,0,1,.05.1.16.16,0,0,1-.05.11.25.25,0,0,1-.15.05l-.12,0a.33.33,0,0,1-.11-.08l.06,0,.09.06a.11.11,0,0,0,.08,0l.09,0a.09.09,0,0,0,0-.07.08.08,0,0,0,0-.05.4.4,0,0,0-.13-.06l-.11,0Z"/><path class="cls-33" d="M199,133.23h.08v.2h.13v.07h-.13v.34s0,0,0,.06a.06.06,0,0,0,.06,0h0V134h-.06a.16.16,0,0,1-.11,0,.12.12,0,0,1,0-.11v-.35h-.09v-.07H199v-.2Z"/><path class="cls-33" d="M199.31,133.52a.5.5,0,0,1,.12-.08l.11,0a.21.21,0,0,1,.12,0,.23.23,0,0,1,.07.07.28.28,0,0,1,0,.09v.24a.3.3,0,0,0,0,.13h-.08a.34.34,0,0,1,0-.09.34.34,0,0,1-.11.07.2.2,0,0,1-.11,0,.21.21,0,0,1-.11,0,.15.15,0,0,1,0-.11.19.19,0,0,1,0-.1.26.26,0,0,1,.1-.07l.24-.06v0a.1.1,0,0,0,0-.07.09.09,0,0,0-.07,0l-.09,0a.46.46,0,0,0-.1.07Zm.36.32v-.17l-.17,0a.2.2,0,0,0-.09.06.09.09,0,0,0,0,.07.09.09,0,0,0,0,.06l.06,0a.15.15,0,0,0,.09,0Z"/><path class="cls-33" d="M200,133.49l.12-.05.09,0a.1.1,0,0,1,.07,0l.06.05a.3.3,0,0,1,0,.1V134h-.07v-.38a.12.12,0,0,0,0-.09l-.07,0h-.08l-.11.05V134h-.07v-.55H200v.06Z"/><path class="cls-33" d="M200.92,133.21H201v.6a.28.28,0,0,0,0,.09.17.17,0,0,0,0,.08h-.08a.25.25,0,0,1,0-.08l-.1.07-.09,0a.21.21,0,0,1-.16-.08.27.27,0,0,1-.07-.2.29.29,0,0,1,.07-.22.2.2,0,0,1,.16-.07l.09,0,.1.06Zm0,.36-.09-.06a.15.15,0,0,0-.09,0,.13.13,0,0,0-.12,0,.25.25,0,0,0,0,.16.27.27,0,0,0,0,.17.17.17,0,0,0,.12,0,.11.11,0,0,0,.08,0l.1-.06Z"/><path class="cls-33" d="M201.16,133.52l.11-.08.12,0a.24.24,0,0,1,.12,0,.13.13,0,0,1,.06.07.29.29,0,0,1,0,.09v.24a.57.57,0,0,0,0,.13h-.07a.51.51,0,0,1,0-.09.3.3,0,0,1-.1.07.23.23,0,0,1-.11,0,.18.18,0,0,1-.11,0,.16.16,0,0,1-.05-.11.21.21,0,0,1,0-.1.2.2,0,0,1,.1-.07l.23-.06v0a.09.09,0,0,0,0-.07.11.11,0,0,0-.08,0l-.08,0-.11.07Zm.35.32v-.17l-.16,0a.2.2,0,0,0-.09.06.09.09,0,0,0,0,.07.14.14,0,0,0,0,.06l.07,0a.15.15,0,0,0,.09,0Z"/><path class="cls-33" d="M201.85,133.55a.45.45,0,0,1,.09-.1l.12,0h0v.08H202a.18.18,0,0,0-.07.05.19.19,0,0,0,0,.09.13.13,0,0,0,0,.08V134h-.08v-.55h.08Z"/><path class="cls-33" d="M202.54,133.21h.08v.69a.45.45,0,0,0,0,.08h-.08a.25.25,0,0,1,0-.08l-.1.07-.09,0a.19.19,0,0,1-.16-.08.27.27,0,0,1-.07-.2.29.29,0,0,1,.07-.22.2.2,0,0,1,.16-.07l.09,0a.24.24,0,0,1,.09.06Zm0,.36-.09-.06a.12.12,0,0,0-.08,0,.13.13,0,0,0-.12,0,.25.25,0,0,0-.05.16.26.26,0,0,0,.05.17.17.17,0,0,0,.12,0,.12.12,0,0,0,.08,0l.09-.06Z"/><path class="cls-33" d="M202.82,133.66a.12.12,0,0,1,0-.09.16.16,0,0,1,.05-.11.2.2,0,0,1,.14,0l.11,0a.47.47,0,0,1,.09.06l-.06.05-.06-.05-.08,0-.09,0a.14.14,0,0,0,0,.06.06.06,0,0,0,0,.05l.1,0a.38.38,0,0,1,.17.08.13.13,0,0,1,0,.1.16.16,0,0,1-.05.11.2.2,0,0,1-.14.05l-.12,0a.28.28,0,0,1-.12-.08l.07,0,.08.06a.15.15,0,0,0,.09,0l.09,0a.09.09,0,0,0,0-.07.05.05,0,0,0,0-.05.31.31,0,0,0-.13-.06l-.1,0Z"/><path class="cls-33" d="M203.35,133.86h.1V134l-.08.15h0l.07-.15h-.05v-.12Z"/><path class="cls-33" d="M204.36,133.21h.07v.6a.28.28,0,0,0,0,.09.17.17,0,0,0,0,.08h-.08s0-.06,0-.08l-.1.07-.09,0a.21.21,0,0,1-.16-.08.32.32,0,0,1-.07-.2.34.34,0,0,1,.07-.22.2.2,0,0,1,.16-.07l.09,0,.1.06v-.29Zm0,.36-.09-.06a.15.15,0,0,0-.09,0,.13.13,0,0,0-.12,0,.25.25,0,0,0,0,.16.27.27,0,0,0,0,.17.18.18,0,0,0,.12,0,.15.15,0,0,0,.09,0l.09-.06v-.27Z"/><path class="cls-33" d="M204.6,133.52l.11-.08.12,0a.21.21,0,0,1,.12,0,.13.13,0,0,1,.06.07.29.29,0,0,1,0,.09v.24a.57.57,0,0,0,0,.13H205a.51.51,0,0,1,0-.09.3.3,0,0,1-.1.07.23.23,0,0,1-.11,0,.18.18,0,0,1-.11,0,.15.15,0,0,1,0-.11.19.19,0,0,1,0-.1.2.2,0,0,1,.1-.07l.23-.06v0a.1.1,0,0,0-.1-.1l-.09,0-.11.07Zm.35.32v-.17l-.16,0a.2.2,0,0,0-.09.06.09.09,0,0,0,0,.07.14.14,0,0,0,0,.06l.07,0a.15.15,0,0,0,.09,0Z"/><path class="cls-33" d="M205.25,133.23h.07v.2h.14v.07h-.14v.34a.08.08,0,0,0,0,.06l.06,0h.06V134h-.07a.11.11,0,0,1-.14-.14v-.35h-.1v-.07h.1v-.2Z"/><path class="cls-33" d="M205.57,133.52l.11-.08.12,0a.2.2,0,0,1,.11,0,.12.12,0,0,1,.07.07.28.28,0,0,1,0,.09v.24a.59.59,0,0,0,0,.13h-.08a.34.34,0,0,1,0-.09.34.34,0,0,1-.11.07.19.19,0,0,1-.1,0,.21.21,0,0,1-.12,0,.21.21,0,0,1,0-.11.14.14,0,0,1,0-.1.2.2,0,0,1,.1-.07l.23-.06v0a.09.09,0,0,0,0-.07.11.11,0,0,0-.08,0l-.09,0a.46.46,0,0,0-.1.07Zm.35.32v-.17l-.16,0s-.08,0-.1.06a.09.09,0,0,0,0,.07.09.09,0,0,0,0,.06l.07,0a.18.18,0,0,0,.09,0Z"/><path class="cls-33" d="M206.17,133.21h.07v.29l.09-.06.1,0a.18.18,0,0,1,.16.08.27.27,0,0,1,.07.2.33.33,0,0,1,0,.15.18.18,0,0,1-.09.1.15.15,0,0,1-.11,0l-.09,0-.1-.06V134h-.07v-.77Zm.07.63.1.06.08,0a.14.14,0,0,0,.12-.06.24.24,0,0,0,0-.16.25.25,0,0,0,0-.16.16.16,0,0,0-.12-.06l-.09,0-.09.07v.27Z"/><path class="cls-33" d="M206.78,133.52a.5.5,0,0,1,.12-.08l.11,0a.21.21,0,0,1,.12,0,.23.23,0,0,1,.07.07.28.28,0,0,1,0,.09v.24a.3.3,0,0,0,0,.13h-.08a.64.64,0,0,0,0-.09.23.23,0,0,1-.1.07.2.2,0,0,1-.11,0,.21.21,0,0,1-.11,0,.15.15,0,0,1,0-.11.19.19,0,0,1,0-.1.26.26,0,0,1,.1-.07l.23-.06v0a.1.1,0,0,0-.1-.1l-.09,0a.46.46,0,0,0-.1.07Zm.35.32v-.17l-.16,0a.2.2,0,0,0-.09.06.09.09,0,0,0,0,.07.09.09,0,0,0,0,.06l.06,0a.15.15,0,0,0,.09,0A.27.27,0,0,0,207.13,133.84Z"/><path class="cls-33" d="M207.4,133.66a.18.18,0,0,1,0-.09.16.16,0,0,1,0-.11.21.21,0,0,1,.14,0l.11,0s.06,0,.09.06l-.06.05-.06-.05-.08,0a.15.15,0,0,0-.08,0,.09.09,0,0,0,0,.06s0,0,0,.05l.1,0a.33.33,0,0,1,.17.08.15.15,0,0,1,0,.21.2.2,0,0,1-.14.05l-.12,0a.33.33,0,0,1-.11-.08l.06,0,.09.06a.11.11,0,0,0,.08,0l.09,0a.09.09,0,0,0,0-.07.08.08,0,0,0,0-.05l-.14-.06-.1,0Z"/><path class="cls-33" d="M208.35,133.85a.33.33,0,0,1-.11.1.19.19,0,0,1-.12,0,.25.25,0,0,1-.17-.08.4.4,0,0,1,0-.42.21.21,0,0,1,.16-.07l.12,0a.28.28,0,0,1,.09.1s0,.1,0,.16H208a.36.36,0,0,0,0,.11.24.24,0,0,0,.06.08l.08,0c.06,0,.11,0,.17-.11Zm-.08-.21a.22.22,0,0,0-.05-.12.14.14,0,0,0-.1,0,.13.13,0,0,0-.11.05.18.18,0,0,0,0,.11Z"/><path class="cls-33" d="M208.5,133.66a.12.12,0,0,1,0-.09.13.13,0,0,1,0-.11.2.2,0,0,1,.14,0l.11,0a.24.24,0,0,1,.08.06l-.05.05a.18.18,0,0,0-.07-.05l-.07,0-.09,0a.09.09,0,0,0,0,.06s0,0,0,.05a.19.19,0,0,0,.1,0,.38.38,0,0,1,.17.08.18.18,0,0,1,0,.1.16.16,0,0,1-.05.11.22.22,0,0,1-.14.05.21.21,0,0,1-.12,0,.28.28,0,0,1-.12-.08l.06,0,.09.06a.15.15,0,0,0,.09,0l.08,0a.09.09,0,0,0,0-.07s0,0,0-.05a.31.31,0,0,0-.13-.06l-.1,0Z"/><path class="cls-33" d="M209,133.86h.1V134l-.08.15h0l.07-.15H209Z"/><path class="cls-33" d="M209.74,133.5a.24.24,0,0,1,.09-.06l.09,0a.27.27,0,0,1,.12,0,.23.23,0,0,1,.08.11.32.32,0,0,1,0,.14.41.41,0,0,1,0,.16.39.39,0,0,1-.08.1l-.12,0-.09,0-.09-.06v.27h-.08v-.75h.08v.07Zm0,.34.09.06.09,0a.14.14,0,0,0,.11-.06.28.28,0,0,0,0-.32.14.14,0,0,0-.12-.06l-.08,0-.09.06v.28Z"/><path class="cls-33" d="M210.51,134a.21.21,0,0,1-.17-.08.29.29,0,0,1-.08-.21.28.28,0,0,1,0-.15.27.27,0,0,1,.08-.1l.12,0a.21.21,0,0,1,.12,0,.24.24,0,0,1,.09.11.24.24,0,0,1,0,.15.32.32,0,0,1-.07.2A.23.23,0,0,1,210.51,134Zm0-.07a.13.13,0,0,0,.11,0,.23.23,0,0,0,0-.17.21.21,0,0,0,0-.16.14.14,0,0,0-.11-.06.14.14,0,0,0-.12.06.21.21,0,0,0,0,.16.23.23,0,0,0,0,.17A.13.13,0,0,0,210.51,133.92Z"/><path class="cls-33" d="M210.91,133.21H211V134h-.08Z"/><path class="cls-33" d="M211.2,133.21h.08v.09h-.08Zm0,.22h.08V134h-.08Z"/><path class="cls-33" d="M211.9,133.84a.3.3,0,0,1-.09.1.21.21,0,0,1-.13.05.19.19,0,0,1-.12,0,.18.18,0,0,1-.09-.1.33.33,0,0,1,0-.15.32.32,0,0,1,.07-.2.23.23,0,0,1,.29-.05.36.36,0,0,1,.1.11l-.07,0a.27.27,0,0,0-.07-.08.11.11,0,0,0-.08,0,.14.14,0,0,0-.11.06.22.22,0,0,0,0,.17.22.22,0,0,0,0,.16.16.16,0,0,0,.11,0,.18.18,0,0,0,.15-.11Z"/><path class="cls-33" d="M212.05,133.21h.07v.09h-.07Zm0,.22h.07V134h-.07Z"/><path class="cls-33" d="M212.75,133.85a.26.26,0,0,1-.11.1.19.19,0,0,1-.12,0,.21.21,0,0,1-.16-.08.35.35,0,0,1,0-.42.2.2,0,0,1,.16-.07.2.2,0,0,1,.11,0,.28.28,0,0,1,.09.1.38.38,0,0,1,0,.16h-.39s0,.08,0,.11l.06.08.08,0a.2.2,0,0,0,.17-.11Zm-.08-.21a.17.17,0,0,0,0-.12.13.13,0,0,0-.1,0,.14.14,0,0,0-.11.05.17.17,0,0,0,0,.11Z"/><path class="cls-33" d="M212.9,133.66a.18.18,0,0,1,0-.09.16.16,0,0,1,0-.11.2.2,0,0,1,.14,0l.11,0a.47.47,0,0,1,.09.06l-.06.05-.06-.05-.08,0a.13.13,0,0,0-.08,0,.09.09,0,0,0,0,.06.06.06,0,0,0,0,.05l.1,0a.38.38,0,0,1,.17.08.15.15,0,0,1,0,.21.2.2,0,0,1-.14.05l-.12,0a.35.35,0,0,1-.12-.08l.07,0,.08.06a.15.15,0,0,0,.09,0l.09,0a.09.09,0,0,0,0-.07.05.05,0,0,0,0-.05.31.31,0,0,0-.13-.06l-.1,0Z"/><circle class="cls-2" cx="275.17" cy="25.51" r="1.23"/><circle class="cls-2" cx="275.17" cy="25.51" r="3.8"/><path class="cls-2" d="M279.78,29.68s-3.12,3.56-7.88.78l7.1,12.3h-4.94a1.32,1.32,0,0,0-1.12,1.48v4.67h21.13V43.8a1.51,1.51,0,0,0-1.47-1.21c-1.3-.09-4.33,0-4.33,0h-.78Z"/><path class="cls-2" d="M281.05,25.79h10.34l0,1.16,2.68,3.17,4.76-2.94a1.42,1.42,0,0,1,1.79.37c.41,1.22-.34,1.53-.34,1.53l-5.86,3.58a1.56,1.56,0,0,1-1.39,0l-2.77-3.35h-3c-.46-.11-.75-1.09-.75-1.09h-5.94A8.2,8.2,0,0,0,281.05,25.79Z"/><path class="cls-2" d="M281.08,25.79h10.34l0-1.15,2.69-3.18,4.76,2.95a1.42,1.42,0,0,0,1.79-.38c.41-1.21-.34-1.53-.34-1.53l-5.86-3.58a1.56,1.56,0,0,0-1.39,0l-2.77,3.35h-2.95c-.46.11-.75,1.1-.75,1.1h-5.95A7.91,7.91,0,0,1,281.08,25.79Z"/><path class="cls-2" d="M268.27,38.61l.51-1.72h.56l-.83,2.41H268l-.84-2.41h.56Z"/><path class="cls-2" d="M270.73,38.14h-1.17V37.7h1.17Z"/><path class="cls-2" d="M273.29,38.55l.38-1.66h.53l-.65,2.41h-.45l-.52-1.66-.5,1.66h-.45L271,36.89h.53l.39,1.64.49-1.64h.41Z"/><path class="cls-2" d="M286,13.88h.47a.85.85,0,0,0,.57-.19.64.64,0,0,0,.21-.52.71.71,0,0,0-.18-.52.69.69,0,0,0-.53-.18.72.72,0,0,0-.51.18.59.59,0,0,0-.2.47h-.78a1.13,1.13,0,0,1,.19-.65,1.25,1.25,0,0,1,.53-.46,1.73,1.73,0,0,1,.76-.16,1.55,1.55,0,0,1,1.09.35,1.2,1.2,0,0,1,.4,1,1,1,0,0,1-.2.58,1.16,1.16,0,0,1-.51.42,1.2,1.2,0,0,1,.58.41,1.15,1.15,0,0,1,.2.67,1.28,1.28,0,0,1-.43,1,1.71,1.71,0,0,1-1.13.37,1.66,1.66,0,0,1-1.1-.36,1.19,1.19,0,0,1-.42-1h.77a.66.66,0,0,0,.21.5.8.8,0,0,0,.55.19.85.85,0,0,0,.57-.19.84.84,0,0,0,0-1.12,1,1,0,0,0-.65-.2H286Z"/><path class="cls-2" d="M290.38,14.89H288.7v-.62h1.68Z"/><path class="cls-2" d="M292.25,14.24l.66-1.14h.86l-1,1.7,1.09,1.75H293l-.69-1.18-.68,1.18h-.86l1.09-1.75-1.05-1.7h.85Z"/><path class="cls-2" d="M265.61,18.62h-1.93v2h-.83V15.86h3v.67h-2.21V18h1.93Z"/><path class="cls-2" d="M266.48,18.7a5.17,5.17,0,0,1,.2-1.44,4,4,0,0,1,.6-1.22,2.45,2.45,0,0,1,.84-.76l.16.47a2.48,2.48,0,0,0-.76,1.07,4.9,4.9,0,0,0-.31,1.65v.29a5.14,5.14,0,0,0,.28,1.77,2.62,2.62,0,0,0,.79,1.19l-.16.45a2.36,2.36,0,0,1-.84-.76,4.21,4.21,0,0,1-.6-1.22A5.37,5.37,0,0,1,266.48,18.7Z"/><path class="cls-2" d="M270.09,18.26l.68-1.17h.89l-1.09,1.75,1.13,1.8h-.89l-.71-1.21-.7,1.21h-.89l1.12-1.8-1.08-1.75h.88Z"/><path class="cls-2" d="M273.74,18.75a4.71,4.71,0,0,1-.2,1.41,3.88,3.88,0,0,1-.61,1.24,2.41,2.41,0,0,1-.85.77l-.15-.45a2.63,2.63,0,0,0,.78-1.16,5.26,5.26,0,0,0,.28-1.79v-.08a5.12,5.12,0,0,0-.25-1.66,2.82,2.82,0,0,0-.71-1.21l-.1-.09.15-.45a2.44,2.44,0,0,1,.82.72,4,4,0,0,1,.6,1.17,5,5,0,0,1,.24,1.32Z"/><path class="cls-2" d="M339.66,65.36h-2.47V62.23A5.59,5.59,0,0,0,335.06,59s-1.81-2.47-1.87-4,.08-5.3,1.94-7.08,2.23-2.12,5.85-3c0,0,5.67-.81,8.42,3.16,0,0,1.57,1.75,1.22,6l2.08,4.62h-1.57a1.08,1.08,0,0,0-.61,1l0,4.9-3.09.73a1.07,1.07,0,0,0-.67,1.14l0,4h-2.36v-7l2.87-1.16a2,2,0,0,0,.61-1.24v-.92s2.34-1,.69-3.42c0,0-1.28-1.5-3.2,0,0,0-1.52,2.42.78,3.38l0,.84-3.46,1.5v9.2a.69.69,0,0,0,.69.57h4.49a1.07,1.07,0,0,0,.59-.86V66.87l2.71-.59a1.83,1.83,0,0,0,.94-1.41V60.36h1.2s1-.51,1-1.18v-.82l-2.09-4.56s.24-3.09-.16-4c0,0-1.18-5.27-7.71-6.45A11.58,11.58,0,0,0,333.71,47,11.39,11.39,0,0,0,332,56.84a16.65,16.65,0,0,0,2.51,3.94s1.1.82,1,1.55v4a.79.79,0,0,0,.8.75h4.51a1,1,0,0,0,.64-1.06V57.51L344.74,56a1.49,1.49,0,0,0,.67-1.14V50a1.83,1.83,0,0,0,.73-2.67A1.87,1.87,0,1,0,343.66,50v4.6l-3.37,1.65a1.62,1.62,0,0,0-.57,1.09V59.5L337.3,58V55.07a2.2,2.2,0,0,0,1.09-3,2.15,2.15,0,0,0-4,1.3c.43,1.52,1.26,1.65,1.26,1.65v3.35s.24.84.83,1.06l3.34,2.16v3.68Z"/><path class="cls-35" d="M132,103.83l-7.91.9.25.57,11.93,5.26.76-.17S134.64,104.26,132,103.83Z"/><polygon class="cls-35" points="145.17 88.25 141.42 95.12 142.05 96.52 146.81 102.7 147.06 102.46 145.72 88.31 145.17 88.25"/><polygon class="cls-35" points="129.68 89.73 141.72 94.93 142.05 96.52 131.44 103.91 128.84 97.2 129.68 89.73"/><polygon class="cls-35" points="133.76 82.86 122.87 91.02 129.93 89.98 133.76 82.86"/><polygon class="cls-36" points="133.66 83.05 145.72 88.31 142.44 96.14 129.93 89.98 133.66 83.05"/><polygon class="cls-36" points="129.93 89.98 123.03 90.9 122.6 91.84 124.1 104.73 131.44 103.91 129.93 89.98"/><path class="cls-36" d="M142.44,96.14l-11,7.74,5.45,6.6,9.63-7s.69-.85.27-1.43S142.44,96.14,142.44,96.14Z"/><line class="cls-37" x1="128.84" y1="88.26" x2="125.78" y2="85.2"/><path class="cls-29" d="M125.22,84.5h-.35V82.78l-.52.18v-.3l.83-.3h0Z"/><path class="cls-29" d="M127.4,84.5H126v-.25l.71-.77a1.67,1.67,0,0,0,.21-.29A.41.41,0,0,0,127,83a.37.37,0,0,0-.09-.25.29.29,0,0,0-.23-.09.33.33,0,0,0-.26.11.37.37,0,0,0-.1.28h-.36a.7.7,0,0,1,.09-.35.67.67,0,0,1,.26-.24.84.84,0,0,1,.87.07.54.54,0,0,1,.18.43.75.75,0,0,1-.09.34,1.78,1.78,0,0,1-.3.39l-.52.56h1Z"/><path class="cls-29" d="M129.06,83.6a1.17,1.17,0,0,1-.17.69.61.61,0,0,1-.53.24.63.63,0,0,1-.52-.23,1.15,1.15,0,0,1-.17-.68v-.37a1.14,1.14,0,0,1,.17-.69.7.7,0,0,1,1,0,1.05,1.05,0,0,1,.18.67Zm-.36-.4a.84.84,0,0,0-.08-.44.28.28,0,0,0-.26-.14.29.29,0,0,0-.25.13.77.77,0,0,0-.09.42v.48a1,1,0,0,0,.08.45.3.3,0,0,0,.26.14.28.28,0,0,0,.26-.13.91.91,0,0,0,.08-.43Z"/><line class="cls-37" x1="145.03" y1="95.85" x2="148.08" y2="92.79"/><path class="cls-29" d="M149.43,92.79h-.35V91.08l-.53.18V91l.83-.31h.05Z"/><path class="cls-29" d="M151.13,92.79h-.35V91.08l-.52.18V91l.83-.31h0Z"/><path class="cls-29" d="M152.84,92.79h-.35V91.08l-.53.18V91l.83-.31h.05Z"/></svg>