<svg id="Layer_1" data-name="Layer 1" xmlns="http://www.w3.org/2000/svg" xmlns:xlink="http://www.w3.org/1999/xlink" viewBox="0 0 408.83 262.75"><defs><style>.cls-1,.cls-20,.cls-21,.cls-31,.cls-33,.cls-37,.cls-6{fill:none;}.cls-2{fill:#2c3e50;}.cls-12,.cls-3{fill:#ecf0f1;}.cls-21,.cls-3,.cls-31,.cls-6{stroke:#2c3e50;}.cls-20,.cls-3,.cls-31,.cls-33,.cls-37,.cls-6{stroke-miterlimit:10;}.cls-15,.cls-4{fill:#fff;}.cls-5{fill:#e64c3c;}.cls-7{fill:#7f8c8d;}.cls-8,.cls-9{fill:#27aae1;}.cls-9{font-size:1.03px;}.cls-15,.cls-9{font-family:Montserrat-Regular, Montserrat;}.cls-10{letter-spacing:-0.01em;}.cls-11{letter-spacing:-0.02em;}.cls-13{fill:#bdc3c7;}.cls-14{fill:#3b97d3;}.cls-15{font-size:2.69px;}.cls-16{letter-spacing:0em;}.cls-17{clip-path:url(#clip-path);}.cls-18{fill:#d25627;}.cls-19{fill:#26b99a;}.cls-20,.cls-37{stroke:#bdc3c7;}.cls-20{stroke-width:0.3px;}.cls-21{stroke-linecap:round;stroke-linejoin:round;}.cls-22{fill:#e6e7e8;}.cls-23{fill:#35495e;}.cls-24{fill:#8b5e3c;}.cls-25{fill:#2e4155;}.cls-26{fill:#fab492;}.cls-27{fill:#7a5647;}.cls-28{fill:#95a5a5;}.cls-29{opacity:0.5;}.cls-30{fill:#d3d6d6;}.cls-31{stroke-dasharray:2;}.cls-32{clip-path:url(#clip-path-2);}.cls-33{stroke:#27aae1;stroke-width:2px;}.cls-34{fill:#c18141;}.cls-35{fill:#414042;}.cls-36{fill:#231f20;}.cls-38{fill:#39a9e0;}.cls-39{fill:#010101;}.cls-40{fill:#333f51;}</style><clipPath id="clip-path"><rect class="cls-1" x="215" y="124.57" width="82.38" height="50.16" rx="1"/></clipPath><clipPath id="clip-path-2"><circle class="cls-1" cx="105.72" cy="67.07" r="16.2"/></clipPath></defs><rect class="cls-2" x="253.88" y="179.85" width="4.79" height="12.58"/><rect class="cls-3" x="210.77" y="120.42" width="91.49" height="63.47" rx="4"/><rect class="cls-4" x="215.3" y="124.34" width="82.16" height="13.29"/><circle class="cls-5" cx="218.05" cy="127.16" r="1.12"/><line class="cls-6" x1="215.3" y1="130.51" x2="297.25" y2="130.51"/><rect class="cls-2" x="246.4" y="192.05" width="19.76" height="1.35"/><path class="cls-7" d="M285.67,135c0,.09-.14.17-.31.17H274.27c-.17,0-.31-.08-.31-.17v-1.67c0-.09.14-.17.31-.17h11.09c.17,0,.31.08.31.17Z"/><path class="cls-8" d="M249.76,134.91a.18.18,0,0,1-.17.17h-6.21a.17.17,0,0,1-.17-.17v-1.66a.17.17,0,0,1,.17-.18h6.21a.18.18,0,0,1,.17.18Z"/><rect class="cls-8" x="250.31" y="133.07" width="6.4" height="2" rx="0.17"/><path class="cls-8" d="M262.6,134.91a.16.16,0,0,1-.14.17h-5.11a.16.16,0,0,1-.14-.17v-1.66a.16.16,0,0,1,.14-.18h5.11a.16.16,0,0,1,.14.18Z"/><path class="cls-8" d="M269.76,134.91a.18.18,0,0,1-.17.17h-6.26a.18.18,0,0,1-.18-.17v-1.66a.18.18,0,0,1,.18-.18h6.26a.18.18,0,0,1,.17.18Z"/><text class="cls-9" transform="translate(286.12 134.42)"><tspan class="cls-10">L</tspan><tspan x="0.6" y="0">og in or Regis</tspan><tspan class="cls-11" x="7.61" y="0">t</tspan><tspan x="8.01" y="0">er</tspan></text><rect class="cls-2" x="215.3" y="137.63" width="82.16" height="7.93"/><rect class="cls-12" x="215.3" y="145.56" width="82.16" height="28.94"/><rect class="cls-4" x="236.04" y="147.06" width="12.3" height="19.1" rx="1"/><rect class="cls-13" x="237.83" y="153.6" width="8.73" height="1.78"/><rect class="cls-13" x="237.83" y="156.94" width="8.73" height="0.65"/><rect class="cls-13" x="237.83" y="157.96" width="8.73" height="0.65"/><rect class="cls-13" x="237.83" y="158.98" width="8.73" height="0.65"/><g id="icon-server"><path class="cls-4" d="M224.17,139.53a2.78,2.78,0,0,1,.51,0,3,3,0,0,1,.45.09,1.07,1.07,0,0,1,.32.18.3.3,0,0,1,.13.24V142a.3.3,0,0,1-.13.25.88.88,0,0,1-.32.17,3,3,0,0,1-.45.1,4.12,4.12,0,0,1-.51,0,4.07,4.07,0,0,1-.5,0,3,3,0,0,1-.45-.1.88.88,0,0,1-.32-.17.3.3,0,0,1-.13-.25v-1.92a.3.3,0,0,1,.13-.24,1.07,1.07,0,0,1,.32-.18,3,3,0,0,1,.45-.09A2.74,2.74,0,0,1,224.17,139.53Zm1.15,2.47v-.62a1.84,1.84,0,0,1-.5.16,4.19,4.19,0,0,1-1.29,0,1.84,1.84,0,0,1-.5-.16V142s0,0,.05.06a.53.53,0,0,0,.15.07,1.14,1.14,0,0,0,.22.07,2.29,2.29,0,0,0,.32.06l.4,0,.41,0a2.29,2.29,0,0,0,.32-.06,1.14,1.14,0,0,0,.22-.07.53.53,0,0,0,.15-.07S225.32,142,225.32,142Zm0-1v-.62a1.84,1.84,0,0,1-.5.16,4.19,4.19,0,0,1-1.29,0,1.84,1.84,0,0,1-.5-.16V141s0,0,.05.06a.53.53,0,0,0,.15.07,1.14,1.14,0,0,0,.22.07l.32.06.4,0,.41,0,.32-.06a1.14,1.14,0,0,0,.22-.07.53.53,0,0,0,.15-.07s0,0,0-.06Zm-1.15-1.23a2.42,2.42,0,0,0-.39,0,2,2,0,0,0-.32,0l-.23.07-.15.07s-.05,0-.05.06,0,0,.05.06l.15.07.23.07.32.06.39,0,.4,0,.32-.06.23-.07.14-.07s.06,0,.06-.06,0,0-.06-.06l-.14-.07-.23-.07a2,2,0,0,0-.32,0A2.55,2.55,0,0,0,224.17,139.81Z"/></g><g id="icon-server-2" data-name="icon-server"><path class="cls-12" d="M218.68,139.43l.35,0,.3.07a.57.57,0,0,1,.22.12.21.21,0,0,1,.09.16v1.31a.22.22,0,0,1-.09.17.75.75,0,0,1-.22.11l-.3.07-.35,0-.34,0-.3-.07a.75.75,0,0,1-.22-.11.22.22,0,0,1-.09-.17V139.8a.21.21,0,0,1,.09-.16.57.57,0,0,1,.22-.12l.3-.07Zm.78,1.68v-.43a1,1,0,0,1-.34.11,2.06,2.06,0,0,1-.44,0,2,2,0,0,1-.43,0,.91.91,0,0,1-.34-.11v.43l0,0,.1,0,.15,0,.22,0,.27,0,.28,0a1,1,0,0,0,.21,0l.16,0,.1,0Zm0-.65V140a1,1,0,0,1-.34.11,2.06,2.06,0,0,1-.44,0,3,3,0,0,1-.43,0,.91.91,0,0,1-.34-.11v.43l0,0,.1,0,.15.05.22,0H219a1,1,0,0,0,.21,0l.16-.05.1,0,0,0Zm-.78-.84h-.27l-.21,0-.16.05a.31.31,0,0,0-.1.05s0,0,0,0,0,0,0,0l.1,0,.16.05.21,0H219l.21,0,.16-.05a.19.19,0,0,0,.09,0s0,0,0,0,0,0,0,0a.19.19,0,0,0-.09-.05l-.16-.05-.21,0Z"/></g><g id="icon-server-3" data-name="icon-server"><path class="cls-14" d="M221.13,140.18a4.54,4.54,0,0,1,.65,0,4.06,4.06,0,0,1,.57.12,1.37,1.37,0,0,1,.42.2.39.39,0,0,1,.16.29v2.28a.39.39,0,0,1-.16.29,1.26,1.26,0,0,1-.42.2,3,3,0,0,1-.57.12,4.54,4.54,0,0,1-.65,0,4.49,4.49,0,0,1-.64,0,3,3,0,0,1-.57-.12,1.26,1.26,0,0,1-.42-.2.39.39,0,0,1-.16-.29v-2.28a.39.39,0,0,1,.16-.29,1.26,1.26,0,0,1,.42-.2,4.06,4.06,0,0,1,.57-.12A4.49,4.49,0,0,1,221.13,140.18Zm1.47,2.93v-.74a2.72,2.72,0,0,1-.64.19,5.7,5.7,0,0,1-1.65,0,2.72,2.72,0,0,1-.64-.19v.74s0,0,.07.07l.18.08.29.09.41.06a4.12,4.12,0,0,0,.51,0,4.17,4.17,0,0,0,.52,0l.41-.06.29-.09.18-.08S222.6,143.13,222.6,143.11Zm0-1.14v-.74a2.72,2.72,0,0,1-.64.19,5.7,5.7,0,0,1-1.65,0,2.72,2.72,0,0,1-.64-.19V142s0,0,.07.07l.18.08.29.09.41.06a4.12,4.12,0,0,0,.51,0,4.17,4.17,0,0,0,.52,0l.41-.06.29-.09.18-.08s.07,0,.07-.07Zm-1.47-1.46a4.35,4.35,0,0,0-.51,0l-.4.06-.29.09a.9.9,0,0,0-.19.08.22.22,0,0,0-.07.07l.07.07a.85.85,0,0,0,.19.09l.29.08.4.06a4.36,4.36,0,0,0,.51,0,4.41,4.41,0,0,0,.52,0l.4-.06.29-.08a.85.85,0,0,0,.19-.09l.07-.07a.22.22,0,0,0-.07-.07.9.9,0,0,0-.19-.08l-.29-.09-.4-.06A4.43,4.43,0,0,0,221.13,140.51Z"/></g><text class="cls-15" transform="translate(227.77 142.53)">Data<tspan class="cls-16" x="6.5" y="0">b</tspan><tspan x="8.32" y="0">ases</tspan></text><rect class="cls-4" x="250.04" y="147.06" width="12.3" height="19.1" rx="1"/><rect class="cls-13" x="251.83" y="153.6" width="8.73" height="1.78"/><rect class="cls-13" x="251.83" y="156.94" width="8.73" height="0.65"/><rect class="cls-13" x="251.83" y="157.96" width="8.73" height="0.65"/><rect class="cls-13" x="251.83" y="158.98" width="8.73" height="0.65"/><path class="cls-4" d="M218.62,147.06H232a1,1,0,0,1,1,1v25.8a0,0,0,0,1,0,0H217.62a0,0,0,0,1,0,0v-25.8A1,1,0,0,1,218.62,147.06Z"/><rect class="cls-4" x="263.88" y="147.06" width="12.3" height="19.1" rx="1"/><rect class="cls-13" x="265.66" y="153.6" width="8.73" height="1.78"/><rect class="cls-13" x="265.66" y="156.94" width="8.73" height="0.65"/><rect class="cls-13" x="265.66" y="157.96" width="8.73" height="0.65"/><rect class="cls-13" x="265.66" y="158.98" width="8.73" height="0.65"/><rect class="cls-4" x="277.87" y="147.06" width="12.3" height="19.1" rx="1"/><rect class="cls-13" x="279.66" y="153.6" width="8.73" height="1.78"/><rect class="cls-13" x="279.66" y="156.94" width="8.73" height="0.65"/><g class="cls-17"><rect class="cls-4" x="236" y="167.26" width="12.3" height="19.1" rx="1"/><rect class="cls-13" x="237.79" y="173.8" width="8.73" height="1.78"/><rect class="cls-13" x="237.79" y="177.14" width="8.73" height="0.65"/><rect class="cls-13" x="237.79" y="178.16" width="8.73" height="0.65"/><rect class="cls-13" x="237.79" y="179.18" width="8.73" height="0.65"/><rect class="cls-4" x="250" y="167.26" width="12.3" height="19.1" rx="1"/><rect class="cls-13" x="251.79" y="173.8" width="8.73" height="1.78"/><rect class="cls-13" x="251.79" y="177.14" width="8.73" height="0.65"/><rect class="cls-13" x="251.79" y="178.16" width="8.73" height="0.65"/><rect class="cls-13" x="251.79" y="179.18" width="8.73" height="0.65"/><rect class="cls-4" x="263.84" y="167.26" width="12.3" height="19.1" rx="1"/><rect class="cls-13" x="265.62" y="173.8" width="8.73" height="1.78"/><rect class="cls-13" x="265.62" y="177.14" width="8.73" height="0.65"/><rect class="cls-13" x="265.62" y="178.16" width="8.73" height="0.65"/><rect class="cls-13" x="265.62" y="179.18" width="8.73" height="0.65"/><rect class="cls-4" x="277.83" y="167.26" width="12.3" height="19.1" rx="1"/><rect class="cls-13" x="279.62" y="173.8" width="8.73" height="1.78"/><rect class="cls-13" x="279.62" y="177.14" width="8.73" height="0.65"/><rect class="cls-13" x="279.62" y="178.16" width="8.73" height="0.65"/><circle class="cls-8" cx="284.03" cy="170.51" r="1.08"/><rect class="cls-13" x="279.62" y="179.18" width="8.73" height="0.65"/><g id="icon-server-4" data-name="icon-server"><path class="cls-4" d="M284,169.88h.21l.18.05a.31.31,0,0,1,.14.07.14.14,0,0,1,.05.1v.8a.16.16,0,0,1-.05.1l-.14.07-.18,0-.21,0-.21,0-.19,0a.4.4,0,0,1-.13-.07.12.12,0,0,1-.05-.1v-.8a.11.11,0,0,1,.05-.1.27.27,0,0,1,.13-.07l.19-.05Zm.47,1v-.26a.53.53,0,0,1-.21.06,1.09,1.09,0,0,1-.26,0,1.12,1.12,0,0,1-.27,0,.53.53,0,0,1-.21-.06v.26l0,0,.06,0,.1,0,.13,0h.33l.14,0,.09,0,.06,0Zm0-.4v-.26a.53.53,0,0,1-.21.06,1.09,1.09,0,0,1-.26,0,1.12,1.12,0,0,1-.27,0,.53.53,0,0,1-.21-.06v.26l0,0,.06,0,.1,0,.13,0h.33l.14,0,.09,0,.06,0,0,0ZM284,170h-.17l-.13,0-.09,0-.07,0s0,0,0,0l0,0,.07,0,.09,0,.13,0h.33l.13,0,.1,0,.06,0,0,0s0,0,0,0l-.06,0-.1,0-.13,0Z"/></g></g><rect class="cls-13" x="279.66" y="157.96" width="8.73" height="0.65"/><rect class="cls-13" x="279.66" y="158.98" width="8.73" height="0.65"/><rect class="cls-6" x="215.09" y="124.34" width="82.38" height="50.16" rx="1"/><rect class="cls-13" x="219.25" y="152.28" width="9.99" height="0.89"/><rect class="cls-8" x="230.89" y="152.22" width="1.01" height="1.01"/><rect class="cls-13" x="219.25" y="154" width="9.99" height="0.89"/><rect class="cls-8" x="230.89" y="153.94" width="1.01" height="1.01"/><rect class="cls-13" x="219.25" y="155.73" width="9.99" height="0.89"/><rect class="cls-8" x="230.89" y="155.67" width="1.01" height="1.01"/><rect class="cls-13" x="219.25" y="157.45" width="9.99" height="0.89"/><rect class="cls-8" x="230.89" y="157.39" width="1.01" height="1.01"/><rect class="cls-13" x="219.25" y="164.7" width="9.99" height="0.89"/><rect class="cls-8" x="230.89" y="164.64" width="1.01" height="1.01"/><rect class="cls-13" x="219.25" y="166.57" width="9.99" height="0.89"/><rect class="cls-8" x="230.89" y="166.51" width="1.01" height="1.01"/><rect class="cls-13" x="219.25" y="168.45" width="9.99" height="0.89"/><rect class="cls-8" x="230.89" y="168.39" width="1.01" height="1.01"/><rect class="cls-13" x="219.25" y="170.32" width="9.99" height="0.89"/><rect class="cls-8" x="230.89" y="170.26" width="1.01" height="1.01"/><rect class="cls-13" x="219.25" y="159.17" width="9.99" height="0.89"/><rect class="cls-8" x="230.89" y="159.11" width="1.01" height="1.01"/><path class="cls-8" d="M271.11,170.5a1.08,1.08,0,1,1-1.08-1.08A1.08,1.08,0,0,1,271.11,170.5Z"/><g id="icon-server-5" data-name="icon-server"><path class="cls-4" d="M270,169.87h.21l.18.05a.26.26,0,0,1,.14.07.14.14,0,0,1,.05.1v.8a.16.16,0,0,1-.05.1.37.37,0,0,1-.14.07l-.18,0-.21,0-.21,0-.19,0a.4.4,0,0,1-.13-.07.12.12,0,0,1-.05-.1v-.8a.11.11,0,0,1,.05-.1.27.27,0,0,1,.13-.07l.19-.05Zm.47,1v-.26a.52.52,0,0,1-.2.06,1.23,1.23,0,0,1-.54,0,.65.65,0,0,1-.21-.06v.26l0,0,.06,0,.1,0,.13,0h.34l.13,0,.09,0,.06,0Zm0-.4v-.26a.52.52,0,0,1-.2.06l-.27,0-.27,0a.65.65,0,0,1-.21-.06v.26l0,0,.06,0,.1,0,.13,0h.34l.13,0,.09,0,.06,0,0,0ZM270,170h-.17l-.13,0-.09,0-.06,0,0,0s0,0,0,0l.06,0,.09,0,.13,0h.33l.14,0,.09,0,.06,0s0,0,0,0l0,0-.06,0-.09,0-.14,0Z"/></g><circle class="cls-8" cx="270.03" cy="150.5" r="1.08"/><g id="icon-server-6" data-name="icon-server"><path class="cls-4" d="M270,149.88h.21l.18,0a.37.37,0,0,1,.14.07.16.16,0,0,1,.05.11v.79a.16.16,0,0,1-.05.11.37.37,0,0,1-.14.07l-.18,0h-.42l-.19,0a.4.4,0,0,1-.13-.07.13.13,0,0,1-.05-.11v-.79a.13.13,0,0,1,.05-.11.4.4,0,0,1,.13-.07l.19,0Zm.47,1v-.26a.52.52,0,0,1-.2.07,1.83,1.83,0,0,1-.54,0,.65.65,0,0,1-.21-.07v.26l0,0,.06,0,.1,0,.13,0h.34l.13,0,.09,0,.06,0S270.5,150.91,270.5,150.9Zm0-.4v-.26a.52.52,0,0,1-.2.07,1.83,1.83,0,0,1-.54,0,.65.65,0,0,1-.21-.07v.27l0,0,.06,0,.1,0,.13,0h.34l.13,0,.09,0,.06,0s0,0,0,0ZM270,150h-.17l-.13,0-.09,0-.06,0s0,0,0,0l0,0,.06,0,.09,0,.13,0h.33l.14,0,.09,0,.06,0,0,0s0,0,0,0l-.06,0-.09,0-.14,0Z"/></g><circle class="cls-8" cx="284.03" cy="150.5" r="1.08"/><g id="icon-server-7" data-name="icon-server"><path class="cls-4" d="M284,149.88h.21l.18,0a.46.46,0,0,1,.14.07.16.16,0,0,1,.05.11v.79a.16.16,0,0,1-.05.11l-.14.07-.18,0h-.42l-.19,0a.4.4,0,0,1-.13-.07.13.13,0,0,1-.05-.11v-.79a.13.13,0,0,1,.05-.11.4.4,0,0,1,.13-.07l.19,0Zm.47,1v-.26a.52.52,0,0,1-.21.07,1.1,1.1,0,0,1-.26,0,1.14,1.14,0,0,1-.27,0,.52.52,0,0,1-.21-.07v.26l0,0,.06,0,.1,0,.13,0h.33l.14,0,.09,0,.06,0Zm0-.4v-.26a.52.52,0,0,1-.21.07,1.1,1.1,0,0,1-.26,0,1.14,1.14,0,0,1-.27,0,.52.52,0,0,1-.21-.07v.27l0,0,.06,0,.1,0,.13,0h.33l.14,0,.09,0,.06,0,0,0ZM284,150h-.17l-.13,0-.09,0-.07,0s0,0,0,0l0,0,.07,0,.09,0,.13,0h.33l.13,0,.1,0,.06,0,0,0s0,0,0,0l-.06,0-.1,0-.13,0Z"/></g><path class="cls-8" d="M243.21,150.43a1.08,1.08,0,1,1-1.08-1.08A1.08,1.08,0,0,1,243.21,150.43Z"/><g id="icon-server-8" data-name="icon-server"><path class="cls-4" d="M242.13,149.8l.21,0,.18,0a.46.46,0,0,1,.14.07.14.14,0,0,1,.05.1v.8a.14.14,0,0,1-.05.1.31.31,0,0,1-.14.07l-.18.05h-.42l-.19-.05a.23.23,0,0,1-.13-.07.12.12,0,0,1-.06-.1V150a.12.12,0,0,1,.06-.1.32.32,0,0,1,.13-.07l.19,0Zm.47,1v-.26a.73.73,0,0,1-.21.07l-.26,0-.27,0a.73.73,0,0,1-.21-.07v.26l0,0,.06,0a.17.17,0,0,0,.1,0l.13,0h.33l.14,0,.09,0,.06,0Zm0-.4v-.26a.73.73,0,0,1-.21.07l-.26,0-.27,0a.73.73,0,0,1-.21-.07v.26l0,0a.09.09,0,0,1,.06,0l.1,0,.13,0h.33l.14,0,.09,0,.06,0,0,0Zm-.47-.51H242l-.13,0-.1,0-.06,0,0,0,0,0,.06,0,.1,0,.13,0h.33l.13,0,.1,0,.06,0,0,0,0,0-.06,0-.1,0-.13,0Z"/></g><path class="cls-8" d="M257.21,150.43a1.09,1.09,0,1,1-1.09-1.08A1.08,1.08,0,0,1,257.21,150.43Z"/><g id="icon-server-9" data-name="icon-server"><path class="cls-4" d="M256.13,149.8l.2,0,.19,0a.46.46,0,0,1,.14.07.14.14,0,0,1,0,.1v.8a.14.14,0,0,1,0,.1.31.31,0,0,1-.14.07l-.19.05h-.41l-.19-.05a.31.31,0,0,1-.14-.07.14.14,0,0,1-.05-.1V150a.14.14,0,0,1,.05-.1.46.46,0,0,1,.14-.07l.19,0Zm.47,1v-.26a.73.73,0,0,1-.21.07l-.26,0-.27,0a.73.73,0,0,1-.21-.07v.26l0,0,.06,0a.17.17,0,0,0,.1,0l.13,0h.33l.13,0,.1,0,.06,0Zm0-.4v-.26a.73.73,0,0,1-.21.07l-.26,0-.27,0a.73.73,0,0,1-.21-.07v.26l0,0,.06,0,.1,0,.13,0h.33l.13,0,.1,0,.06,0,0,0Zm-.47-.51H256l-.13,0-.1,0-.06,0,0,0,0,0,.06,0,.1,0,.13,0h.33l.13,0,.1,0,.06,0,0,0,0,0-.06,0-.1,0-.13,0Z"/></g><path class="cls-8" d="M243.21,170.42a1.08,1.08,0,1,1-1.08-1.08A1.09,1.09,0,0,1,243.21,170.42Z"/><g id="icon-server-10" data-name="icon-server"><path class="cls-4" d="M242.13,169.8h.21l.18,0,.14.07a.16.16,0,0,1,.05.11v.79a.16.16,0,0,1-.05.11.46.46,0,0,1-.14.07l-.18,0h-.42l-.19,0a.32.32,0,0,1-.13-.07.14.14,0,0,1-.06-.11V170a.14.14,0,0,1,.06-.11.32.32,0,0,1,.13-.07l.19,0Zm.47,1v-.26a.73.73,0,0,1-.21.07,1.1,1.1,0,0,1-.26,0,1.14,1.14,0,0,1-.27,0,.73.73,0,0,1-.21-.07v.26s0,0,0,0l.06,0,.1,0,.13,0h.33l.14,0,.09,0,.06,0S242.6,170.83,242.6,170.82Zm0-.4v-.26a.52.52,0,0,1-.21.07,1.1,1.1,0,0,1-.26,0,1.14,1.14,0,0,1-.27,0,.52.52,0,0,1-.21-.07v.26s0,0,0,0l.06,0,.1,0,.13,0h.33l.14,0,.09,0,.06,0s0,0,0,0Zm-.47-.51H242l-.13,0-.1,0-.06,0,0,0,0,0,.06,0,.1,0,.13,0h.33l.13,0,.1,0,.06,0,0,0,0,0-.06,0-.1,0-.13,0Z"/></g><path class="cls-8" d="M257.21,170.42a1.09,1.09,0,1,1-1.09-1.08A1.09,1.09,0,0,1,257.21,170.42Z"/><g id="icon-server-11" data-name="icon-server"><path class="cls-4" d="M256.13,169.8h.2l.19,0,.14.07a.16.16,0,0,1,0,.11v.79a.16.16,0,0,1,0,.11l-.14.07-.19,0h-.41l-.19,0a.46.46,0,0,1-.14-.07.16.16,0,0,1-.05-.11V170a.16.16,0,0,1,.05-.11l.14-.07.19,0Zm.47,1v-.26a.73.73,0,0,1-.21.07,1.1,1.1,0,0,1-.26,0,1.14,1.14,0,0,1-.27,0,.73.73,0,0,1-.21-.07v.26s0,0,0,0l.06,0,.1,0,.13,0h.33l.13,0,.1,0,.06,0S256.6,170.83,256.6,170.82Zm0-.4v-.26a.52.52,0,0,1-.21.07,1.1,1.1,0,0,1-.26,0,1.14,1.14,0,0,1-.27,0,.52.52,0,0,1-.21-.07v.26s0,0,0,0l.06,0,.1,0,.13,0h.33l.13,0,.1,0,.06,0s0,0,0,0Zm-.47-.51H256l-.13,0-.1,0-.06,0,0,0,0,0,.06,0,.1,0,.13,0h.33l.13,0,.1,0,.06,0,0,0,0,0-.06,0-.1,0-.13,0Z"/></g><rect class="cls-18" x="237.83" y="164.72" width="0.95" height="0.95"/><rect class="cls-19" x="240.02" y="164.72" width="0.95" height="0.95"/><rect class="cls-13" x="241.12" y="164.72" width="0.95" height="0.95"/><rect class="cls-2" x="238.92" y="164.72" width="0.95" height="0.95"/><rect class="cls-18" x="251.76" y="164.72" width="0.95" height="0.95"/><rect class="cls-13" x="253.95" y="164.72" width="0.95" height="0.95"/><rect class="cls-13" x="255.05" y="164.72" width="0.95" height="0.95"/><rect class="cls-13" x="252.86" y="164.72" width="0.95" height="0.95"/><rect class="cls-18" x="265.66" y="164.72" width="0.95" height="0.95"/><rect class="cls-19" x="267.86" y="164.72" width="0.95" height="0.95"/><rect class="cls-13" x="268.95" y="164.72" width="0.95" height="0.95"/><rect class="cls-2" x="266.76" y="164.72" width="0.95" height="0.95"/><rect class="cls-18" x="279.66" y="164.72" width="0.95" height="0.95"/><rect class="cls-19" x="281.86" y="164.72" width="0.95" height="0.95"/><rect class="cls-13" x="282.95" y="164.72" width="0.95" height="0.95"/><rect class="cls-13" x="280.76" y="164.72" width="0.95" height="0.95"/><rect class="cls-20" x="237.84" y="161.31" width="4.08" height="0.65"/><rect class="cls-20" x="242.6" y="161.31" width="2.64" height="0.65"/><rect class="cls-20" x="251.95" y="161.31" width="5.26" height="0.65"/><rect class="cls-20" x="265.74" y="161.31" width="4.08" height="0.65"/><rect class="cls-20" x="270.51" y="161.31" width="3.67" height="0.65"/><rect class="cls-20" x="279.72" y="161.31" width="3.08" height="0.65"/><rect class="cls-13" x="219.25" y="149.68" width="7.85" height="1.78"/><rect class="cls-13" x="219.25" y="161.95" width="7.85" height="1.78"/><path class="cls-6" d="M201.61,185.82a1.09,1.09,0,0,0,.08-.15s.05-.09.07-.14a1,1,0,0,0,.05-.16.83.83,0,0,0,0-.15,1.23,1.23,0,0,0,0-.19s0-.07,0-.11v0a1.5,1.5,0,0,0,0-.2s0-.08,0-.12a.84.84,0,0,0-.05-.17c0-.05,0-.1,0-.14a1.09,1.09,0,0,0-.08-.15.83.83,0,0,0-.07-.13l-.1-.12-.11-.13,0,0-.1-.08-.14-.11-.14-.07-.15-.08-.15,0-.16-.05h-.17l-.13,0h-9.51a1.67,1.67,0,0,0,0,3.33h5a18.91,18.91,0,0,1-10.59,3.2,19.13,19.13,0,0,1-8.85-36.08,1.66,1.66,0,0,0-1.54-2.94,22.45,22.45,0,1,0,26.72,35.3l.08-.1Z"/><line class="cls-21" x1="171.8" y1="140.91" x2="169.7" y2="138.12"/><line class="cls-21" x1="171.22" y1="136.18" x2="167.53" y2="138.95"/><line class="cls-21" x1="192.32" y1="163.74" x2="188" y2="166.99"/><polygon class="cls-8" points="178.2 156.75 168.56 143.7 175.48 138.44 182.01 147.45 178.2 156.75"/><circle class="cls-6" cx="160.38" cy="98.71" r="22.73" transform="translate(37.25 241.21) rotate(-80.78)"/><path class="cls-22" d="M190.32,119.71a2.31,2.31,0,1,1-2.3-2.31A2.31,2.31,0,0,1,190.32,119.71Z"/><path class="cls-2" d="M151.42,105.49a9.68,9.68,0,1,1,9.68-9.68A9.69,9.69,0,0,1,151.42,105.49Zm0-18.69a9,9,0,1,0,9,9A9,9,0,0,0,151.42,86.8Z"/><path class="cls-2" d="M150.22,98.53a.88.88,0,0,1-1.71-.44.88.88,0,0,1,1.71.44Z"/><path class="cls-2" d="M150.83,102a.89.89,0,1,1-.66-1A.85.85,0,0,1,150.83,102Z"/><path class="cls-2" d="M156.13,97.23a.85.85,0,0,1-1.06.59.83.83,0,1,1,.41-1.61A.85.85,0,0,1,156.13,97.23Z"/><path class="cls-2" d="M154.4,100.28a.87.87,0,0,1-1.07.59.83.83,0,1,1,.41-1.61A.87.87,0,0,1,154.4,100.28Z"/><rect class="cls-2" x="146.92" y="100.04" width="1.03" height="1.03"/><rect class="cls-2" x="151.72" y="95.5" width="1.03" height="1.03"/><path class="cls-8" d="M148.53,94.4a2.55,2.55,0,1,1,2.55-2.55A2.55,2.55,0,0,1,148.53,94.4Zm0-4.43a1.88,1.88,0,1,0,1.88,1.88A1.89,1.89,0,0,0,148.53,90Z"/><rect class="cls-2" x="156.62" y="92.19" width="1.12" height="0.81" transform="translate(-22.83 122.18) rotate(-39.84)"/><polygon class="cls-2" points="156.23 92.33 157.09 91.61 156.57 90.99 155.71 91.71 156.23 92.33"/><path class="cls-2" d="M157.84,93.63l.24-.19a.42.42,0,0,0,0-.58l-.86.72A.41.41,0,0,0,157.84,93.63Z"/><path class="cls-2" d="M156.3,90.68l-.32-.39a.4.4,0,0,0-.57-.05l-.23.19a.4.4,0,0,0-.06.57l.33.39Z"/><path class="cls-2" d="M165.28,109.75a3.55,3.55,0,0,1-2.89-2c-.91-1.64-.66-3.52.56-4.2l11.7-6.52a1.9,1.9,0,0,1,1-.25,3.55,3.55,0,0,1,2.89,2c.91,1.64.66,3.52-.56,4.2l-11.7,6.52A1.9,1.9,0,0,1,165.28,109.75Zm10.34-12.36a1.3,1.3,0,0,0-.68.18l-11.71,6.52c-.93.52-1.07,2-.32,3.39a3,3,0,0,0,2.37,1.68A1.3,1.3,0,0,0,166,109l11.7-6.52c.94-.52,1.08-2,.33-3.39A3,3,0,0,0,175.62,97.39Z"/><path class="cls-2" d="M172.12,101.44a.65.65,0,1,1-.48-.75A.63.63,0,0,1,172.12,101.44Z"/><path class="cls-2" d="M172.56,104a.65.65,0,0,1-1.26-.31.64.64,0,0,1,.78-.44A.63.63,0,0,1,172.56,104Z"/><path class="cls-2" d="M177.18,100.55a.64.64,0,0,1-.78.43.61.61,0,1,1,.3-1.18A.64.64,0,0,1,177.18,100.55Z"/><path class="cls-2" d="M175.9,102.78a.65.65,0,0,1-1.26-.32.64.64,0,0,1,.78-.43A.63.63,0,0,1,175.9,102.78Z"/><rect class="cls-2" x="169.7" y="102.55" width="0.76" height="0.76"/><rect class="cls-2" x="173.94" y="99.28" width="0.76" height="0.75"/><path class="cls-8" d="M165.23,107l-.58-.11A5.57,5.57,0,0,1,166.2,104a5.44,5.44,0,0,1,1.27-1l.29.53a4.71,4.71,0,0,0-1.14.85A5.07,5.07,0,0,0,165.23,107Z"/><path class="cls-2" d="M153.59,113.83h-.06a.3.3,0,0,1-.23-.35c.74-3.29,4.28-5.27,7.13-6.87.48-.26.93-.52,1.35-.77a.3.3,0,0,1,.3.52c-.42.25-.88.5-1.36.77-2.74,1.54-6.16,3.45-6.84,6.48A.3.3,0,0,1,153.59,113.83Z"/><path class="cls-2" d="M153.3,117.4h-.06a.3.3,0,0,1-.24-.34c.79-4.12,4.57-6.63,7.62-8.65.5-.33,1-.65,1.43-1a.3.3,0,0,1,.42.08.3.3,0,0,1-.07.41c-.46.32-1,.64-1.46,1-2.95,2-6.62,4.39-7.35,8.26A.3.3,0,0,1,153.3,117.4Z"/><path class="cls-2" d="M155.38,116.81h-.07a.3.3,0,0,1-.22-.36c.74-3.28,4.28-5.27,7.13-6.86l1.34-.77a.3.3,0,0,1,.41.1.3.3,0,0,1-.1.41l-1.36.78c-2.74,1.54-6.16,3.45-6.84,6.47A.3.3,0,0,1,155.38,116.81Z"/><rect class="cls-21" x="166.18" y="147.83" width="28.68" height="8.94" transform="translate(193.85 -83.51) rotate(53.08)"/><line class="cls-6" x1="24.3" y1="195.28" x2="347.38" y2="195.28"/><path class="cls-3" d="M308.75,137h27.72a2,2,0,0,1,2,2v53.73a0,0,0,0,1,0,0H306.75a0,0,0,0,1,0,0V139A2,2,0,0,1,308.75,137Z"/><rect class="cls-13" x="312.85" y="144.45" width="19.54" height="3.83" rx="1"/><rect class="cls-13" x="312.85" y="151.55" width="19.54" height="3.83" rx="1"/><path class="cls-8" d="M324.9,179.19a2.29,2.29,0,1,1-2.28-2.28A2.28,2.28,0,0,1,324.9,179.19Z"/><rect class="cls-3" x="350.49" y="206.42" width="46.23" height="8.16" rx="1" transform="translate(747.21 421) rotate(180)"/><rect class="cls-3" x="391.96" y="209.37" width="4.76" height="52.25" rx="1" transform="translate(788.68 470.99) rotate(180)"/><rect class="cls-3" x="347.09" y="209.37" width="4.76" height="52.25" rx="1" transform="translate(698.94 470.99) rotate(180)"/><rect class="cls-3" x="346.52" y="205.97" width="50.19" height="3.63" rx="1" transform="translate(743.24 415.57) rotate(180)"/><rect class="cls-3" x="393.32" y="161.06" width="4.76" height="48.31" rx="1" transform="translate(791.4 370.43) rotate(180)"/><path class="cls-23" d="M343.24,241.79v10.58s-7.34,6.76-7.34,0v-6.76Z"/><path class="cls-24" d="M343.82,251.58a37.11,37.11,0,0,1,2.07,5.88c.16,1.43-17.14,1.13-20.34-.62-1.77-1,1.24-3.29,3.11-4.12C332.94,250.82,343.82,251.58,343.82,251.58Z"/><path class="cls-7" d="M380.89,192.06c2.4,1.2,2.11,9.48,0,11.17-7.71,6.17-36.38-1-38.7,0-3.2,1.38,2,41.55,2,41.55l-10,.83s-8.59-31.58-4.1-51.51C331.47,187.92,372.66,188,380.89,192.06Z"/><path class="cls-25" d="M358.71,162.8s15.58,8.2,23.2,7.73l-.07,7.37c-10.3-1.67-23.17-7.49-23.17-7.49Z"/><path class="cls-26" d="M370.61,140.54v-8.82a55.8,55.8,0,0,0,4.09-5.48,70.83,70.83,0,0,0,2.74-8.23l-22.72-8-.79,1s-1.49,13.77,0,18c.63,1.78,2.86,5.52,4.7,5.88.89.17,3.5.37,3.5.37l1,11Z"/><path class="cls-23" d="M363.34,146.37l7.37-7.93s11.1,5,13.79,7.93c5.75,6.29,12.34,22,9.69,28.5-3.93,9.62-35.38-4.61-35.38-4.61l.05-7.6s20.4,10.74,25.93,6.93c1-.71.39-3.81,0-5a18.19,18.19,0,0,0-2.65-3.52l-.29,31.73H355.11v-22s-1.14,5.79-1.76,7.64c-1.26,3.74-6.47,14.4-6.47,14.4h-6.46s4.42-13.06,5.28-16.61c2-8.07,2-23,5.07-29.61,1.83-3.9,10.51-8.14,10.51-8.14h1.47Z"/><path class="cls-25" d="M382,177.76c5.8.94,10.79.58,12.2-2.89,2.65-6.47-3.94-22.21-9.69-28.5a15,15,0,0,0-2.59-2Zm.07-7.38.09-9.31a18.24,18.24,0,0,1,2.64,3.52c.39,1.19,1,4.29,0,5A5.3,5.3,0,0,1,382,170.38Z"/><path class="cls-27" d="M372.9,129.18c1.71.52,3.55-4.25,3.92-6a27.94,27.94,0,0,0,0-9.48c-.7-2.67-1.34-8.84-13.33-8.82-2.78,0-9.63,2-9.63,7.42,0,1.74,4,2.34,5.52,2.52a44.38,44.38,0,0,1,7.45,1.23c1.34.49,3.61,3.67,4.34,4.9C372.49,123.14,370.45,128.42,372.9,129.18Z"/><ellipse class="cls-26" cx="371.57" cy="122.12" rx="1.57" ry="2.55"/><path class="cls-26" d="M358.78,163.4s-1.84-2.1-2.69-2.12c-2-.05-6.31,2.63-6.56,4.62-.13,1,2.12,3.67,2.12,3.67h7.13Z"/><path class="cls-2" d="M339,242.86v10.58s-7.35,6.76-7.35,0v-6.76Z"/><path class="cls-25" d="M358.83,162.8s15.58,8.2,23.2,7.73L382,177.9c-10.3-1.67-23.18-7.49-23.18-7.49Z"/><path class="cls-28" d="M380.8,192.06c2.52,1.2,2.23,9.48,0,11.17-8.14,6.17-38.4-1-40.85,0-3.38,1.38,1.64,41.55,1.64,41.55l-10,1.9s-9.17-32.65-4.42-52.58C328.65,187.92,372.11,188,380.8,192.06Z"/><path class="cls-24" d="M339.6,253.51a37.94,37.94,0,0,1,2,5.87c.16,1.44-16.49,1.14-19.56-.62-1.71-1,1.19-3.28,3-4.11C329.13,252.75,339.6,253.51,339.6,253.51Z"/><circle class="cls-6" cx="239.37" cy="58.56" r="21.24"/><g id="icon-server-12" data-name="icon-server"><path class="cls-8" d="M239.37,50.13a23.08,23.08,0,0,1,3,.19,18,18,0,0,1,2.69.55,5.52,5.52,0,0,1,2,1,1.73,1.73,0,0,1,.74,1.37V63.93a1.72,1.72,0,0,1-.74,1.36,5.52,5.52,0,0,1-2,1,16.8,16.8,0,0,1-2.69.55,24.34,24.34,0,0,1-6.07,0,16.58,16.58,0,0,1-2.69-.55,5.66,5.66,0,0,1-2-1,1.75,1.75,0,0,1-.74-1.36V53.2a1.76,1.76,0,0,1,.74-1.37,5.66,5.66,0,0,1,2-1,17.72,17.72,0,0,1,2.69-.55A23,23,0,0,1,239.37,50.13Zm6.9,13.78V60.42a10.32,10.32,0,0,1-3,.9,23.19,23.19,0,0,1-3.88.31,24.08,24.08,0,0,1-3.87-.31,10.32,10.32,0,0,1-3-.9v3.51c0,.08.13.19.32.31a4,4,0,0,0,.87.4A10.21,10.21,0,0,0,235,65a16.19,16.19,0,0,0,1.93.3,24.36,24.36,0,0,0,4.83,0,16,16,0,0,0,1.92-.3,12.17,12.17,0,0,0,1.37-.4,5.32,5.32,0,0,0,.87-.4C246.14,64.11,246.25,64,246.27,63.91Zm0-5.36V55.06a11,11,0,0,1-3,.9,25.18,25.18,0,0,1-7.75,0,11,11,0,0,1-3-.9v3.5c0,.09.13.19.32.32a4.58,4.58,0,0,0,.87.4,12,12,0,0,0,1.36.4A18.85,18.85,0,0,0,237,60a24.36,24.36,0,0,0,4.83,0,18.61,18.61,0,0,0,1.92-.29,12,12,0,0,0,1.36-.4,4.73,4.73,0,0,0,.88-.4c.19-.13.3-.24.32-.33Zm-6.9-6.89a23,23,0,0,0-2.4.12,16.12,16.12,0,0,0-1.91.3,12.72,12.72,0,0,0-1.36.39,4.15,4.15,0,0,0-.88.4c-.2.13-.31.23-.34.33a.75.75,0,0,0,.34.32,4.15,4.15,0,0,0,.88.4,9.31,9.31,0,0,0,1.36.39,16.12,16.12,0,0,0,1.91.3,23,23,0,0,0,2.4.12,22.67,22.67,0,0,0,2.4-.12,15.79,15.79,0,0,0,1.91-.3,9.47,9.47,0,0,0,1.37-.39,4.41,4.41,0,0,0,.88-.4.75.75,0,0,0,.34-.32c0-.1-.14-.2-.34-.33a4.41,4.41,0,0,0-.88-.4,13,13,0,0,0-1.37-.39,15.79,15.79,0,0,0-1.91-.3A22.67,22.67,0,0,0,239.37,51.66Z"/></g><path class="cls-12" d="M316.29,46.25a.75.75,0,0,1-.78.71H294.08a.75.75,0,0,1-.78-.71V17.46a.75.75,0,0,1,.78-.72h21.43a.75.75,0,0,1,.78.72Z"/><g class="cls-29"><rect class="cls-13" x="295.53" y="22.79" width="5.17" height="2.61"/></g><g class="cls-29"><rect class="cls-13" x="295.53" y="26.54" width="5.17" height="2.61"/></g><g class="cls-29"><rect class="cls-13" x="295.53" y="30.3" width="5.17" height="2.61"/></g><g class="cls-29"><rect class="cls-13" x="295.53" y="34.06" width="5.17" height="2.61"/></g><g class="cls-29"><rect class="cls-13" x="295.53" y="37.82" width="5.17" height="2.61"/></g><rect class="cls-13" x="302.2" y="22.79" width="5.17" height="2.61"/><rect class="cls-13" x="302.2" y="26.54" width="5.17" height="2.61"/><rect class="cls-13" x="302.2" y="30.3" width="5.17" height="2.61"/><rect class="cls-13" x="302.2" y="34.06" width="5.17" height="2.61"/><rect class="cls-13" x="302.2" y="37.82" width="5.17" height="2.61"/><g class="cls-29"><rect class="cls-13" x="308.88" y="22.79" width="5.17" height="2.61"/></g><g class="cls-29"><rect class="cls-13" x="308.88" y="26.54" width="5.17" height="2.61"/></g><g class="cls-29"><rect class="cls-13" x="308.88" y="30.3" width="5.17" height="2.61"/></g><g class="cls-29"><rect class="cls-13" x="308.88" y="34.06" width="5.17" height="2.61"/></g><g class="cls-29"><rect class="cls-13" x="308.88" y="37.82" width="5.17" height="2.61"/></g><path class="cls-8" d="M316.13,36.1V33.41h-4.4a.28.28,0,0,1-.27-.27V30.56a.27.27,0,0,1,.27-.26h4.4V27.61c0-.14.1-.19.21-.1l5.41,4.18a.19.19,0,0,1,0,.32l-5.4,4.19c-.11.08-.21,0-.21-.1"/><path class="cls-4" d="M377.1,73a.63.63,0,0,1-.65.6H358.51a.63.63,0,0,1-.65-.6V48.89a.63.63,0,0,1,.65-.61h17.94a.63.63,0,0,1,.65.61Z"/><path class="cls-13" d="M376.45,73.81H358.51a.86.86,0,0,1-.89-.83V48.89a.87.87,0,0,1,.89-.84h17.94a.87.87,0,0,1,.89.84V73A.86.86,0,0,1,376.45,73.81ZM358.51,48.52a.39.39,0,0,0-.42.37V73a.4.4,0,0,0,.42.37h17.94a.4.4,0,0,0,.42-.37V48.89a.39.39,0,0,0-.42-.37Z"/><path class="cls-4" d="M377.1,73a.63.63,0,0,1-.65.6H358.51a.63.63,0,0,1-.65-.6V48.89a.63.63,0,0,1,.65-.61h17.94a.63.63,0,0,1,.65.61Z"/><circle class="cls-5" cx="373.86" cy="69.92" r="1.7"/><path class="cls-5" d="M373.86,72.43a2.51,2.51,0,1,1,2.51-2.51A2.51,2.51,0,0,1,373.86,72.43Zm0-4.55a2,2,0,1,0,2,2A2,2,0,0,0,373.86,67.88Z"/><rect class="cls-13" x="360.98" y="54.71" width="12.55" height="1.87"/><rect class="cls-13" x="360.98" y="58.08" width="9.71" height="1.87"/><rect class="cls-13" x="360.98" y="61.46" width="5.76" height="1.87"/><rect class="cls-13" x="368.71" y="61.38" width="5.76" height="1.87"/><rect class="cls-13" x="360.98" y="64.84" width="9.71" height="1.87"/><rect class="cls-8" x="360.98" y="51.81" width="9" height="1.48"/><circle class="cls-6" cx="305.85" cy="31.85" r="25.73" transform="translate(204.58 322.2) rotate(-76.72)"/><circle class="cls-6" cx="367.48" cy="60.66" r="19.79"/><path class="cls-3" d="M144.55,190.61a2.23,2.23,0,0,1-1.94,2.44H62.11a2.23,2.23,0,0,1-1.94-2.44v-43.5a2.23,2.23,0,0,1,1.94-2.44h80.5a2.23,2.23,0,0,1,1.94,2.44Z"/><rect class="cls-30" x="64.56" y="161.81" width="39.88" height="27.63" rx="1.65"/><path class="cls-3" d="M142.1,126.18H101.33a2.45,2.45,0,0,0-2.45,2.45v64.42H142.1a2.44,2.44,0,0,0,2.45-2.44v-62A2.45,2.45,0,0,0,142.1,126.18Z"/><rect class="cls-4" x="102.69" y="130.53" width="38.6" height="23.92"/><rect class="cls-2" x="98.88" y="158.34" width="18.28" height="1.28"/><rect class="cls-8" x="64.56" y="149.46" width="16.3" height="2.27"/><rect class="cls-13" x="102.69" y="130.53" width="38.6" height="2.28"/><rect class="cls-28" x="102.69" y="132.82" width="38.6" height="2.47"/><rect class="cls-12" x="104.44" y="139.1" width="18.75" height="11.8"/><rect class="cls-13" x="125.71" y="138.85" width="13.4" height="1.1"/><rect class="cls-13" x="125.71" y="140.95" width="5.44" height="1.1"/><rect class="cls-13" x="125.71" y="143.04" width="8.05" height="1.1"/><rect class="cls-8" x="105.54" y="144.39" width="1.19" height="6.51"/><rect class="cls-7" x="108.1" y="147.64" width="1.19" height="3.26"/><rect class="cls-2" x="110.66" y="141.5" width="1.19" height="9.4"/><rect class="cls-13" x="113.22" y="145.43" width="1.19" height="5.47"/><rect class="cls-13" x="115.51" y="145.43" width="1.19" height="5.47"/><rect class="cls-2" x="117.71" y="141.5" width="1.19" height="9.4"/><rect class="cls-8" x="120.53" y="144.39" width="1.19" height="6.51"/><line class="cls-31" x1="105.8" y1="86.8" x2="105.8" y2="122.12"/><g class="cls-32"><rect class="cls-13" x="102.12" y="69.18" width="7.63" height="0.86"/><rect class="cls-13" x="99.77" y="58.79" width="11.9" height="0.86"/><rect class="cls-13" x="100.24" y="72.14" width="10.34" height="0.86"/><rect class="cls-13" x="101.7" y="75.11" width="8.51" height="0.86"/><rect class="cls-13" x="100.65" y="61.56" width="9.93" height="0.86"/><rect class="cls-13" x="101.03" y="56.02" width="9.18" height="0.86"/><path class="cls-33" d="M110.72,50.87s-11,4.07-11,9c0,5.79,10.93,6.22,10.94,12.77,0,5-10.3,10.62-10.3,10.62"/><path class="cls-33" d="M100.72,50.87s11,4.07,11,9c0,5.79-10.93,6.22-10.94,12.77,0,5,10.3,10.62,10.3,10.62"/></g><circle class="cls-6" cx="105.72" cy="67.07" r="16.2"/><rect class="cls-8" x="156.19" y="187.94" width="8.1" height="5.5" rx="0.34"/><path class="cls-2" d="M154.84,194V181.86a.6.6,0,0,1,.6-.6h11a.26.26,0,0,1,.25.19.26.26,0,0,1-.12.29l-1.32.77V194a.6.6,0,0,1-.6.6h-9.21A.6.6,0,0,1,154.84,194Zm.6-12.2a.08.08,0,0,0-.08.09V194a.08.08,0,0,0,.08.09h9.21a.09.09,0,0,0,.09-.09V182.36a.25.25,0,0,1,.13-.22l.62-.37Z"/><path class="cls-2" d="M158,193.35a.25.25,0,0,0,.25-.25v-7.34a.25.25,0,0,0-.25-.25.26.26,0,0,0-.26.25v7.34A.26.26,0,0,0,158,193.35Z"/><path class="cls-2" d="M158,186.53h2a.25.25,0,0,0,.26-.25A.26.26,0,0,0,160,186h-2a.26.26,0,0,0-.26.26A.26.26,0,0,0,158,186.53Z"/><path class="cls-2" d="M158.15,189.18h2a.26.26,0,0,0,0-.52h-2a.26.26,0,1,0,0,.52Z"/><path class="cls-2" d="M158.15,191.82h2a.26.26,0,0,0,0-.51h-2a.26.26,0,1,0,0,.51Z"/><path class="cls-2" d="M158.23,190.5h.69a.26.26,0,0,0,.25-.26.25.25,0,0,0-.25-.25h-.69a.25.25,0,0,0-.25.25A.26.26,0,0,0,158.23,190.5Z"/><path class="cls-2" d="M158,187.85h.68a.26.26,0,0,0,.26-.25.26.26,0,0,0-.26-.26H158a.26.26,0,0,0-.26.26A.26.26,0,0,0,158,187.85Z"/><path class="cls-2" d="M158.23,193.36h.69a.26.26,0,0,0,0-.52h-.69a.26.26,0,0,0,0,.52Z"/><path class="cls-2" d="M152.55,194.4H140.1a.8.8,0,0,1-.81-.8V178.1l-1.79-1a.35.35,0,0,1,.18-.65h14.87a.81.81,0,0,1,.81.81V193.6A.8.8,0,0,1,152.55,194.4Z"/><path class="cls-4" d="M139,177.11l.85.49a.34.34,0,0,1,.17.3v15.7a.11.11,0,0,0,.12.11h12.45a.11.11,0,0,0,.12-.11V177.22a.11.11,0,0,0-.12-.11Z"/><rect class="cls-18" x="140.92" y="185.49" width="10.95" height="7.44" rx="0.46"/><path class="cls-2" d="M146.34,192.81a.35.35,0,0,1-.35-.35v-9.91a.35.35,0,1,1,.7,0v9.91A.35.35,0,0,1,146.34,192.81Z"/><path class="cls-2" d="M146.34,183.59h-2.77a.35.35,0,0,1,0-.7h2.77a.35.35,0,0,1,0,.7Z"/><path class="cls-2" d="M146.11,187.16h-2.77a.35.35,0,0,1,0-.69h2.77a.35.35,0,1,1,0,.69Z"/><path class="cls-2" d="M146.11,190.74h-2.77a.35.35,0,0,1,0-.7h2.77a.35.35,0,0,1,0,.7Z"/><path class="cls-2" d="M146,189h-.92a.35.35,0,0,1-.34-.35.34.34,0,0,1,.34-.34H146a.34.34,0,0,1,.35.34A.35.35,0,0,1,146,189Z"/><path class="cls-2" d="M146.28,185.37h-.92A.35.35,0,0,1,145,185a.35.35,0,0,1,.35-.35h.92a.35.35,0,0,1,.35.35A.35.35,0,0,1,146.28,185.37Z"/><path class="cls-2" d="M146,192.81h-.92a.35.35,0,0,1,0-.69H146a.35.35,0,1,1,0,.69Z"/><path class="cls-34" d="M83.09,181.63s.21,2.69-.35,3.29c-1.31,1.43-6.06,2.59-7.61,1.43-.81-.62-1.1-3.93-1.1-3.93l4.79-4.93Z"/><polygon class="cls-35" points="48.63 253.6 48.55 258.9 68.4 258.9 59.32 253.6 48.63 253.6"/><polygon class="cls-7" points="49.91 218.66 49.99 253.6 60.68 253.6 63.23 218.66 49.91 218.66"/><polygon class="cls-7" points="35.36 218.66 35.43 253.6 46.12 253.6 48.67 218.66 35.36 218.66"/><path class="cls-35" d="M66.64,97.07c1.24-4-6.5-11.53-9.9-11.94-4.32-.51-12.51,7.11-14.56,11.94-3.15,7.44-4.3,30,1.75,33.67,3.44,2.08,4.12-14.54,4.12-14.54s2.23-10.34,4.21-12.7C55,100.19,65.25,101.56,66.64,97.07Z"/><path class="cls-12" d="M32.78,152.21l-.12,6q-.16,7.86-.32,15.7Q32,191,31.63,208q-.15,7.64-.31,15.27H64l.76-62s1.34,6.81,2.08,9c1.48,4.4,6.94,12.62,6.94,12.62l5.1-5.24s-2-5.81-3-10c-2.32-9.5-4.94-29-8.59-36.77-2.16-4.59-9.74-7.65-9.74-7.65H55.81l-.69,9.33s-8.67-9.32-8.67-9.33c-.63-.67-6.55,2.56-7.32,3a21.27,21.27,0,0,0-6,5.06A23.94,23.94,0,0,0,29,141c-.83,3.6-1.95,7.8-1.35,11.49.62,3.87,3.45,5.91,7,7.08,8.24,2.75,17.18,2.18,25.81,1.18l-.07-9c-5.84,3.63-11.88,7.08-18.46,9.08"/><path class="cls-34" d="M46.56,126.28V115.91a65.49,65.49,0,0,1-4.81-6.45c-1.18-2.27-3.23-9.69-3.23-9.69l26.74-9.45.92,1.16s1.76,16.2,0,21.2c-.73,2.09-3.35,6.5-5.53,6.92-1,.2-4.11.44-4.11.44L55.35,133Z"/><path class="cls-36" d="M67.11,94.36c1.57-4-8.21-11.53-12.52-11.93-5.46-.51-15.82,7.1-18.41,11.93-4,7.44-5.44,30,2.21,33.67,4.35,2.08,5.21-14.53,5.21-14.53s2.83-10.35,5.33-12.71C52.44,97.48,65.36,98.86,67.11,94.36Z"/><line class="cls-37" x1="55.21" y1="134.44" x2="55.21" y2="153.12"/><line class="cls-37" x1="55.21" y1="223.31" x2="55.21" y2="162.54"/><polygon class="cls-36" points="35.43 253.6 35.36 258.9 55.21 258.9 46.12 253.6 35.43 253.6"/><path class="cls-2" d="M62.17,172.34a8.09,8.09,0,0,1,.46-16l.83-4.36-.44-.08a.5.5,0,0,1-.4-.58l.13-.66a.49.49,0,0,1,.58-.39l5.87,1.12a.5.5,0,0,1,.4.58l-.13.65a.5.5,0,0,1-.58.4l-.44-.09-.84,4.36a8.09,8.09,0,0,1-5.44,15Z"/><path class="cls-4" d="M63.25,150.72s-.08,0-.08.05l-.13.66a.08.08,0,0,0,.06.08l.65.12a.22.22,0,0,1,.17.25l-.9,4.73a.21.21,0,0,1-.19.17,7.66,7.66,0,0,0-.58,15.14,7.66,7.66,0,0,0,5-14.29.21.21,0,0,1-.11-.23l.9-4.73a.2.2,0,0,1,.25-.16l.65.12a.06.06,0,0,0,.08-.06l.13-.65s0-.07-.06-.08Z"/><path class="cls-8" d="M66.78,161.1a.93.93,0,0,1-1.09.73.92.92,0,0,1-.73-1.08A.93.93,0,0,1,66,160,.94.94,0,0,1,66.78,161.1Z"/><path class="cls-8" d="M65.67,162a1.07,1.07,0,1,1,1.25-.85A1.07,1.07,0,0,1,65.67,162Zm.34-1.82a.78.78,0,0,0-.29,1.54.78.78,0,1,0,.29-1.54Z"/><path class="cls-8" d="M62.52,162.59a.65.65,0,0,1-.75.51.64.64,0,1,1,.24-1.26A.65.65,0,0,1,62.52,162.59Z"/><path class="cls-8" d="M61.74,163.24A.78.78,0,0,1,62,161.7a.77.77,0,0,1,.62.92A.78.78,0,0,1,61.74,163.24ZM62,162a.5.5,0,0,0-.58.4.49.49,0,0,0,.39.58.51.51,0,0,0,.59-.4A.5.5,0,0,0,62,162Z"/><path class="cls-8" d="M68.79,160a3.74,3.74,0,0,1,0,1.49c-.51,2.7-3.9,4.33-7.57,3.63a40.21,40.21,0,0,1-4.31-.92A6.76,6.76,0,1,0,68.79,160Z"/><rect class="cls-2" x="65.69" y="149.94" width="0.43" height="4.65" transform="translate(-96.02 188.44) rotate(-79.19)"/><path class="cls-14" d="M66.35,166.48a.64.64,0,1,1-1.26-.24.64.64,0,0,1,1.26.24Z"/><path class="cls-14" d="M65.57,167.13a.78.78,0,0,1,.3-1.54.78.78,0,1,1-.3,1.54Zm.24-1.26a.5.5,0,1,0-.18,1,.49.49,0,0,0,.58-.39A.51.51,0,0,0,65.81,165.87Z"/><path class="cls-34" d="M58.59,152.87s2.17-2.47,3.18-2.49c2.36-.06,7.42,3.1,7.71,5.44.15,1.24-2.5,4.31-2.5,4.31H58.59Z"/><line class="cls-31" x1="238.78" y1="116.81" x2="238.78" y2="82.4"/><polyline class="cls-31" points="268.33 117.4 268.33 32.91 276.18 32.91"/><polyline class="cls-31" points="288.39 117.4 288.39 93.29 368.71 93.29 368.71 83.27"/><polyline class="cls-31" points="168.33 134.84 160.43 134.84 160.43 124.57"/><path class="cls-8" d="M107.61,88.51a1.81,1.81,0,1,1-1.81-1.81A1.81,1.81,0,0,1,107.61,88.51Z"/><circle class="cls-8" cx="160.43" cy="125.43" r="1.81"/><circle class="cls-8" cx="238.78" cy="83.27" r="1.81"/><path class="cls-8" d="M276.18,32.91a1.81,1.81,0,1,1-1.81-1.81A1.81,1.81,0,0,1,276.18,32.91Z"/><path class="cls-8" d="M370.52,84a1.81,1.81,0,1,1-1.81-1.81A1.81,1.81,0,0,1,370.52,84Z"/><path class="cls-38" d="M218.26,132.59v.21h-1v.71h.93v.21h-.93v.86H217v-2Z"/><path class="cls-38" d="M219.78,134.07H218.7l-.22.51h-.24l.89-2h.23l.89,2H220Zm-.09-.21-.45-1-.45,1Z"/><path class="cls-38" d="M220.79,132.59v2h-.22v-2Z"/><path class="cls-38" d="M222.7,134.58l-.42-.64h-.66v.63h-.22v-2h.75c.5,0,.78.25.78.67a.62.62,0,0,1-.44.64l.46.68Zm-.55-.84c.36,0,.57-.16.57-.48s-.21-.46-.57-.46h-.53v.94Z"/><path class="cls-39" d="M223.8,133.26c-.17,0-.29.06-.29.2,0,.34.83.17.83.7,0,.3-.26.43-.55.43a.87.87,0,0,1-.57-.21l.08-.16a.81.81,0,0,0,.5.19c.18,0,.32-.07.32-.22,0-.37-.83-.18-.82-.71,0-.28.24-.41.52-.41a.9.9,0,0,1,.47.14l-.08.17A.85.85,0,0,0,223.8,133.26Z"/><path class="cls-39" d="M226.09,133.66v.92h-.22v-.86a.39.39,0,0,0-.42-.43.5.5,0,0,0-.51.56v.73h-.22v-2.11h.22v.95a.58.58,0,0,1,.58-.34A.53.53,0,0,1,226.09,133.66Z"/><path class="cls-39" d="M227.51,134.58v-.23a.65.65,0,0,1-.55.24.46.46,0,0,1-.5-.45c0-.27.2-.43.56-.43h.49v-.1c0-.22-.14-.35-.4-.35a.83.83,0,0,0-.48.17l-.09-.15a1,1,0,0,1,.61-.2c.37,0,.57.19.58.51v1Zm0-.51v-.19H227c-.25,0-.38.08-.38.25s.14.27.35.27A.48.48,0,0,0,227.51,134.07Z"/><path class="cls-39" d="M229,133.08v.21a.51.51,0,0,0-.54.49v.8h-.22v-1.49h.22v.33A.56.56,0,0,1,229,133.08Z"/><path class="cls-39" d="M229.53,132.66a.15.15,0,0,1-.14.15.15.15,0,0,1-.15-.15.14.14,0,0,1,.15-.15A.14.14,0,0,1,229.53,132.66Zm0,.43v1.49h-.22v-1.49Z"/><path class="cls-39" d="M231.41,133.66v.92h-.23v-.86a.39.39,0,0,0-.42-.43.49.49,0,0,0-.5.49v.8H230v-1.49h.22v.32a.59.59,0,0,1,.58-.33A.53.53,0,0,1,231.41,133.66Z"/><path class="cls-39" d="M233.2,133.09v1.33a.69.69,0,0,1-.75.72,1,1,0,0,1-.61-.22l.1-.16a.81.81,0,0,0,.5.19.5.5,0,0,0,.54-.52v-.23a.58.58,0,0,1-.55.31.67.67,0,0,1-.68-.72.66.66,0,0,1,.68-.71.57.57,0,0,1,.55.31v-.3Zm-.22.71a.51.51,0,1,0-1,0,.51.51,0,1,0,1,0Z"/><path class="cls-38" d="M233.86,134.46a.14.14,0,0,1-.28,0,.14.14,0,1,1,.28,0Z"/><path class="cls-38" d="M235.64,133.83a.76.76,0,1,1-1.52,0,.76.76,0,0,1,1.52,0Zm-1.3,0a.52.52,0,0,0,.54.56.53.53,0,0,0,.54-.56.53.53,0,0,0-.54-.56A.53.53,0,0,0,234.34,133.83Z"/><path class="cls-38" d="M236.78,133.08v.21a.49.49,0,0,0-.53.49v.8H236v-1.49h.22v.33A.55.55,0,0,1,236.78,133.08Z"/><path class="cls-38" d="M238.39,133.09v1.33a.69.69,0,0,1-.76.72,1,1,0,0,1-.61-.22l.1-.16a.84.84,0,0,0,.51.19.5.5,0,0,0,.53-.52v-.23a.57.57,0,0,1-.55.31.72.72,0,0,1,0-1.43.57.57,0,0,1,.55.31v-.3Zm-.23.71a.51.51,0,1,0-1,0,.51.51,0,1,0,1,0Z"/><path class="cls-38" d="M221.08,136.11a2.34,2.34,0,0,1-1.48-.54,2,2,0,0,0-1.46-.49,1.29,1.29,0,0,0-.83.48.07.07,0,0,1-.1,0,.06.06,0,0,1,0-.09,1.42,1.42,0,0,1,.92-.54,2.1,2.1,0,0,1,1.56.52,2.31,2.31,0,0,0,2.86,0,.07.07,0,1,1,.09.1,2.61,2.61,0,0,1-1.55.54Z"/><path class="cls-40" d="M218.33,136.11h-.21a1.42,1.42,0,0,1-.92-.54.07.07,0,0,1,0-.1.08.08,0,0,1,.1,0,1.34,1.34,0,0,0,.83.48,1.94,1.94,0,0,0,1.46-.5,2.43,2.43,0,0,1,3,0,.06.06,0,0,1,0,.09.07.07,0,0,1-.1,0,2.27,2.27,0,0,0-2.86,0,2.25,2.25,0,0,1-1.35.54Z"/><path class="cls-39" d="M223.44,135.66a.12.12,0,0,1,0-.09.13.13,0,0,1,0-.11.17.17,0,0,1,.13,0l.11,0a.2.2,0,0,1,.09.06l-.05.05-.07-.05-.08,0-.08,0a.09.09,0,0,0,0,.06s0,0,0,.05a.32.32,0,0,0,.11,0,.34.34,0,0,1,.16.08.14.14,0,0,1,.05.1.16.16,0,0,1-.05.11.25.25,0,0,1-.15.05l-.12,0a.33.33,0,0,1-.11-.08l.06,0,.09.06a.11.11,0,0,0,.08,0l.09,0a.09.09,0,0,0,0-.07.08.08,0,0,0,0-.05.4.4,0,0,0-.13-.06l-.11,0Z"/><path class="cls-39" d="M224,135.23h.08v.2h.13v.07h-.13v.34s0,0,0,.06a.06.06,0,0,0,.06,0h0V136h-.06a.16.16,0,0,1-.11,0,.12.12,0,0,1,0-.11v-.35h-.09v-.07H224v-.2Z"/><path class="cls-39" d="M224.31,135.52a.5.5,0,0,1,.12-.08l.11,0a.21.21,0,0,1,.12,0,.23.23,0,0,1,.07.07.28.28,0,0,1,0,.09v.24a.3.3,0,0,0,0,.13h-.08a.34.34,0,0,1,0-.09.34.34,0,0,1-.11.07.2.2,0,0,1-.11,0,.21.21,0,0,1-.11,0,.15.15,0,0,1,0-.11.19.19,0,0,1,0-.1.26.26,0,0,1,.1-.07l.24-.06v0a.1.1,0,0,0,0-.07.09.09,0,0,0-.07,0l-.09,0a.46.46,0,0,0-.1.07Zm.36.32v-.17l-.17,0a.2.2,0,0,0-.09.06.09.09,0,0,0,0,.07.09.09,0,0,0,0,.06l.06,0a.15.15,0,0,0,.09,0Z"/><path class="cls-39" d="M225,135.49l.12-.05.09,0a.1.1,0,0,1,.07,0l.06.05a.3.3,0,0,1,0,.1V136h-.07v-.38a.12.12,0,0,0,0-.09l-.07,0h-.08l-.11.05V136h-.07v-.55H225v.06Z"/><path class="cls-39" d="M225.92,135.21H226v.6a.28.28,0,0,0,0,.09.17.17,0,0,0,0,.08h-.08a.25.25,0,0,1,0-.08l-.1.07-.09,0a.21.21,0,0,1-.16-.08.27.27,0,0,1-.07-.2.29.29,0,0,1,.07-.22.2.2,0,0,1,.16-.07l.09,0,.1.06Zm0,.36-.09-.06a.15.15,0,0,0-.09,0,.13.13,0,0,0-.12,0,.25.25,0,0,0,0,.16.27.27,0,0,0,0,.17.17.17,0,0,0,.12,0,.11.11,0,0,0,.08,0l.1-.06Z"/><path class="cls-39" d="M226.16,135.52l.11-.08.12,0a.24.24,0,0,1,.12,0,.13.13,0,0,1,.06.07.29.29,0,0,1,0,.09v.24a.57.57,0,0,0,0,.13h-.07a.51.51,0,0,1,0-.09.3.3,0,0,1-.1.07.23.23,0,0,1-.11,0,.18.18,0,0,1-.11,0,.16.16,0,0,1-.05-.11.21.21,0,0,1,0-.1.2.2,0,0,1,.1-.07l.23-.06v0a.09.09,0,0,0,0-.07.11.11,0,0,0-.08,0l-.08,0-.11.07Zm.35.32v-.17l-.16,0a.2.2,0,0,0-.09.06.09.09,0,0,0,0,.07.14.14,0,0,0,0,.06l.07,0a.15.15,0,0,0,.09,0Z"/><path class="cls-39" d="M226.85,135.55a.45.45,0,0,1,.09-.1l.12,0h0v.08H227a.18.18,0,0,0-.07.05.19.19,0,0,0,0,.09.13.13,0,0,0,0,.08V136h-.08v-.55h.08Z"/><path class="cls-39" d="M227.54,135.21h.08v.69a.45.45,0,0,0,0,.08h-.08a.25.25,0,0,1,0-.08l-.1.07-.09,0a.19.19,0,0,1-.16-.08.27.27,0,0,1-.07-.2.29.29,0,0,1,.07-.22.2.2,0,0,1,.16-.07l.09,0a.24.24,0,0,1,.09.06Zm0,.36-.09-.06a.12.12,0,0,0-.08,0,.13.13,0,0,0-.12,0,.25.25,0,0,0-.05.16.26.26,0,0,0,.05.17.17.17,0,0,0,.12,0,.12.12,0,0,0,.08,0l.09-.06Z"/><path class="cls-39" d="M227.82,135.66a.12.12,0,0,1,0-.09.16.16,0,0,1,.05-.11.2.2,0,0,1,.14,0l.11,0a.47.47,0,0,1,.09.06l-.06.05-.06-.05-.08,0-.09,0a.14.14,0,0,0,0,.06.06.06,0,0,0,0,.05l.1,0a.38.38,0,0,1,.17.08.13.13,0,0,1,0,.1.16.16,0,0,1-.05.11.2.2,0,0,1-.14.05l-.12,0a.28.28,0,0,1-.12-.08l.07,0,.08.06a.15.15,0,0,0,.09,0l.09,0a.09.09,0,0,0,0-.07.05.05,0,0,0,0-.05.31.31,0,0,0-.13-.06l-.1,0Z"/><path class="cls-39" d="M228.35,135.86h.1V136l-.08.15h0l.07-.15h-.05v-.12Z"/><path class="cls-39" d="M229.36,135.21h.07v.6a.28.28,0,0,0,0,.09.17.17,0,0,0,0,.08h-.08s0-.06,0-.08l-.1.07-.09,0a.21.21,0,0,1-.16-.08.32.32,0,0,1-.07-.2.34.34,0,0,1,.07-.22.2.2,0,0,1,.16-.07l.09,0,.1.06v-.29Zm0,.36-.09-.06a.15.15,0,0,0-.09,0,.13.13,0,0,0-.12,0,.25.25,0,0,0,0,.16.27.27,0,0,0,0,.17.18.18,0,0,0,.12,0,.15.15,0,0,0,.09,0l.09-.06v-.27Z"/><path class="cls-39" d="M229.6,135.52l.11-.08.12,0a.21.21,0,0,1,.12,0,.13.13,0,0,1,.06.07.29.29,0,0,1,0,.09v.24a.57.57,0,0,0,0,.13H230a.51.51,0,0,1,0-.09.3.3,0,0,1-.1.07.23.23,0,0,1-.11,0,.18.18,0,0,1-.11,0,.15.15,0,0,1,0-.11.19.19,0,0,1,0-.1.2.2,0,0,1,.1-.07l.23-.06v0a.1.1,0,0,0-.1-.1l-.09,0-.11.07Zm.35.32v-.17l-.16,0a.2.2,0,0,0-.09.06.09.09,0,0,0,0,.07.14.14,0,0,0,0,.06l.07,0a.15.15,0,0,0,.09,0Z"/><path class="cls-39" d="M230.25,135.23h.07v.2h.14v.07h-.14v.34a.08.08,0,0,0,0,.06l.06,0h.06V136h-.07a.11.11,0,0,1-.14-.14v-.35h-.1v-.07h.1v-.2Z"/><path class="cls-39" d="M230.57,135.52l.11-.08.12,0a.2.2,0,0,1,.11,0,.12.12,0,0,1,.07.07.28.28,0,0,1,0,.09v.24a.59.59,0,0,0,0,.13h-.08a.34.34,0,0,1,0-.09.34.34,0,0,1-.11.07.19.19,0,0,1-.1,0,.21.21,0,0,1-.12,0,.21.21,0,0,1,0-.11.14.14,0,0,1,0-.1.2.2,0,0,1,.1-.07l.23-.06v0a.09.09,0,0,0,0-.07.11.11,0,0,0-.08,0l-.09,0a.46.46,0,0,0-.1.07Zm.35.32v-.17l-.16,0s-.08,0-.1.06a.09.09,0,0,0,0,.07.09.09,0,0,0,0,.06l.07,0a.18.18,0,0,0,.09,0Z"/><path class="cls-39" d="M231.17,135.21h.07v.29l.09-.06.1,0a.18.18,0,0,1,.16.08.27.27,0,0,1,.07.2.33.33,0,0,1,0,.15.18.18,0,0,1-.09.1.15.15,0,0,1-.11,0l-.09,0-.1-.06V136h-.07v-.77Zm.07.63.1.06.08,0a.14.14,0,0,0,.12-.06.24.24,0,0,0,0-.16.25.25,0,0,0,0-.16.16.16,0,0,0-.12-.06l-.09,0-.09.07v.27Z"/><path class="cls-39" d="M231.78,135.52a.5.5,0,0,1,.12-.08l.11,0a.21.21,0,0,1,.12,0,.23.23,0,0,1,.07.07.28.28,0,0,1,0,.09v.24a.3.3,0,0,0,0,.13h-.08a.64.64,0,0,0,0-.09.23.23,0,0,1-.1.07.2.2,0,0,1-.11,0,.21.21,0,0,1-.11,0,.15.15,0,0,1,0-.11.19.19,0,0,1,0-.1.26.26,0,0,1,.1-.07l.23-.06v0a.1.1,0,0,0-.1-.1l-.09,0a.46.46,0,0,0-.1.07Zm.35.32v-.17l-.16,0a.2.2,0,0,0-.09.06.09.09,0,0,0,0,.07.09.09,0,0,0,0,.06l.06,0a.15.15,0,0,0,.09,0A.27.27,0,0,0,232.13,135.84Z"/><path class="cls-39" d="M232.4,135.66a.18.18,0,0,1,0-.09.16.16,0,0,1,0-.11.21.21,0,0,1,.14,0l.11,0s.06,0,.09.06l-.06.05-.06-.05-.08,0a.15.15,0,0,0-.08,0,.09.09,0,0,0,0,.06s0,0,0,.05l.1,0a.33.33,0,0,1,.17.08.15.15,0,0,1,0,.21.2.2,0,0,1-.14.05l-.12,0a.33.33,0,0,1-.11-.08l.06,0,.09.06a.11.11,0,0,0,.08,0l.09,0a.09.09,0,0,0,0-.07.08.08,0,0,0,0-.05l-.14-.06-.1,0Z"/><path class="cls-39" d="M233.35,135.85a.33.33,0,0,1-.11.1.19.19,0,0,1-.12,0,.25.25,0,0,1-.17-.08.4.4,0,0,1,0-.42.21.21,0,0,1,.16-.07l.12,0a.28.28,0,0,1,.09.1s0,.1,0,.16H233a.36.36,0,0,0,0,.11.24.24,0,0,0,.06.08l.08,0c.06,0,.11,0,.17-.11Zm-.08-.21a.22.22,0,0,0-.05-.12.14.14,0,0,0-.1,0,.13.13,0,0,0-.11.05.18.18,0,0,0,0,.11Z"/><path class="cls-39" d="M233.5,135.66a.12.12,0,0,1,0-.09.13.13,0,0,1,0-.11.2.2,0,0,1,.14,0l.11,0a.24.24,0,0,1,.08.06l-.05.05a.18.18,0,0,0-.07-.05l-.07,0-.09,0a.09.09,0,0,0,0,.06s0,0,0,.05a.19.19,0,0,0,.1,0,.38.38,0,0,1,.17.08.18.18,0,0,1,0,.1.16.16,0,0,1-.05.11.22.22,0,0,1-.14.05.21.21,0,0,1-.12,0,.28.28,0,0,1-.12-.08l.06,0,.09.06a.15.15,0,0,0,.09,0l.08,0a.09.09,0,0,0,0-.07s0,0,0-.05a.31.31,0,0,0-.13-.06l-.1,0Z"/><path class="cls-39" d="M234,135.86h.1V136l-.08.15h0l.07-.15H234Z"/><path class="cls-39" d="M234.74,135.5a.24.24,0,0,1,.09-.06l.09,0a.27.27,0,0,1,.12,0,.23.23,0,0,1,.08.11.32.32,0,0,1,0,.14.41.41,0,0,1,0,.16.39.39,0,0,1-.08.1l-.12,0-.09,0-.09-.06v.27h-.08v-.75h.08v.07Zm0,.34.09.06.09,0a.14.14,0,0,0,.11-.06.28.28,0,0,0,0-.32.14.14,0,0,0-.12-.06l-.08,0-.09.06v.28Z"/><path class="cls-39" d="M235.51,136a.21.21,0,0,1-.17-.08.29.29,0,0,1-.08-.21.28.28,0,0,1,0-.15.27.27,0,0,1,.08-.1l.12,0a.21.21,0,0,1,.12,0,.24.24,0,0,1,.09.11.24.24,0,0,1,0,.15.32.32,0,0,1-.07.2A.23.23,0,0,1,235.51,136Zm0-.07a.13.13,0,0,0,.11,0,.23.23,0,0,0,0-.17.21.21,0,0,0,0-.16.14.14,0,0,0-.11-.06.14.14,0,0,0-.12.06.21.21,0,0,0,0,.16.23.23,0,0,0,0,.17A.13.13,0,0,0,235.51,135.92Z"/><path class="cls-39" d="M235.91,135.21H236V136h-.08Z"/><path class="cls-39" d="M236.2,135.21h.08v.09h-.08Zm0,.22h.08V136h-.08Z"/><path class="cls-39" d="M236.9,135.84a.3.3,0,0,1-.09.1.21.21,0,0,1-.13.05.19.19,0,0,1-.12,0,.18.18,0,0,1-.09-.1.33.33,0,0,1,0-.15.32.32,0,0,1,.07-.2.23.23,0,0,1,.29-.05.36.36,0,0,1,.1.11l-.07,0a.27.27,0,0,0-.07-.08.11.11,0,0,0-.08,0,.14.14,0,0,0-.11.06.22.22,0,0,0,0,.17.22.22,0,0,0,0,.16.16.16,0,0,0,.11,0,.18.18,0,0,0,.15-.11Z"/><path class="cls-39" d="M237.05,135.21h.07v.09h-.07Zm0,.22h.07V136h-.07Z"/><path class="cls-39" d="M237.75,135.85a.26.26,0,0,1-.11.1.19.19,0,0,1-.12,0,.21.21,0,0,1-.16-.08.35.35,0,0,1,0-.42.2.2,0,0,1,.16-.07.2.2,0,0,1,.11,0,.28.28,0,0,1,.09.1.38.38,0,0,1,0,.16h-.39s0,.08,0,.11l.06.08.08,0a.2.2,0,0,0,.17-.11Zm-.08-.21a.17.17,0,0,0,0-.12.13.13,0,0,0-.1,0,.14.14,0,0,0-.11.05.17.17,0,0,0,0,.11Z"/><path class="cls-39" d="M237.9,135.66a.18.18,0,0,1,0-.09.16.16,0,0,1,0-.11.2.2,0,0,1,.14,0l.11,0a.47.47,0,0,1,.09.06l-.06.05-.06-.05-.08,0a.13.13,0,0,0-.08,0,.09.09,0,0,0,0,.06.06.06,0,0,0,0,.05l.1,0a.38.38,0,0,1,.17.08.15.15,0,0,1,0,.21.2.2,0,0,1-.14.05l-.12,0a.35.35,0,0,1-.12-.08l.07,0,.08.06a.15.15,0,0,0,.09,0l.09,0a.09.09,0,0,0,0-.07.05.05,0,0,0,0-.05.31.31,0,0,0-.13-.06l-.1,0Z"/></svg>