<svg id="Layer_1" data-name="Layer 1" xmlns="http://www.w3.org/2000/svg" viewBox="0 0 408.83 262.75"><defs><style>.cls-1,.cls-15,.cls-16,.cls-28,.cls-6,.cls-7{fill:none;}.cls-1,.cls-13,.cls-15,.cls-16,.cls-9{stroke:#323e50;}.cls-1,.cls-13,.cls-15,.cls-16,.cls-24,.cls-28,.cls-6,.cls-7,.cls-9{stroke-miterlimit:10;}.cls-1{stroke-width:0.91px;}.cls-2{fill:#c78237;}.cls-21,.cls-3{fill:#1d1d1b;}.cls-4{fill:#626e7c;}.cls-5{fill:#72221c;}.cls-6,.cls-7{stroke:#fff;}.cls-7{stroke-width:0.5px;opacity:0.64;}.cls-8{fill:#a46c56;}.cls-25,.cls-9{fill:#f3f6f7;}.cls-13,.cls-15,.cls-16,.cls-9{stroke-width:0.86px;}.cls-10{fill:#c8cbcf;}.cls-11,.cls-17,.cls-27{fill:#36a9e1;}.cls-12{fill:#323e50;}.cls-13,.cls-24,.cls-30{fill:#fff;}.cls-14{fill:#e24030;}.cls-16{stroke-dasharray:1.72;}.cls-17{font-size:11px;}.cls-17,.cls-21{font-family:Roboto-Medium, Roboto;font-weight:500;}.cls-18{letter-spacing:-0.01em;}.cls-19{letter-spacing:-0.01em;}.cls-20{fill:#4298d3;}.cls-21{font-size:7px;}.cls-22{letter-spacing:-0.01em;}.cls-23{letter-spacing:-0.01em;}.cls-24{stroke:#c8cbcf;}.cls-26{opacity:0.5;}.cls-27{font-size:4.25px;font-family:Roboto-Black, Roboto;font-weight:800;}.cls-28{stroke:#879191;stroke-width:0.25px;}.cls-29{fill:#879191;}.cls-31{fill:#9eaaaa;}</style></defs><line class="cls-1" x1="82.62" y1="199.64" x2="378" y2="199.64"/><path class="cls-2" d="M91.68,168.71s.22,2.68-.35,3.29c-1.31,1.42-6.06,2.59-7.6,1.42-.81-.61-1.11-3.93-1.11-3.93l4.8-4.93Z"/><polygon class="cls-3" points="59.05 254.66 58.98 259.97 78.3 259.97 69.45 254.66 59.05 254.66"/><polygon class="cls-4" points="58.81 199.64 58.88 254.66 69.58 254.66 72.12 199.64 58.81 199.64"/><polygon class="cls-4" points="44.25 199.48 44.32 254.66 55.02 254.66 57.56 199.48 44.25 199.48"/><path class="cls-5" d="M41.68,146.07c0,1.51-.09,3-.13,4.53q-.16,5.91-.32,11.81c-.19,6.73.09,9,.09,12.34,0,.78,0-1.82,0,0-.11,3.82-10.51,20.76-10.61,24.59l29.73.2c6.92,0,26.94,3.4,27-1.81L73.33,174.91l.36-22S75,158,75.77,159.67c1.48,3.31,7,9.49,7,9.49l5.09-3.94s-2-4.37-3-7.5c-2.32-7.15-4.94-21.81-8.59-27.66-2.15-3.45-9.74-5.75-9.74-5.75H64.7l-.69,7-8.67-7c-.63-.51-6.55,1.92-7.32,2.26a20.86,20.86,0,0,0-6,3.81,15.92,15.92,0,0,0-4.09,7.24c-.83,2.71-1.95,5.86-1.36,8.64s3.45,4.44,7,5.33c8.23,2.07,17.17,1.63,25.8.88l-.07-6.73a92.41,92.41,0,0,1-18.46,6.82"/><path class="cls-2" d="M55.45,127.35V117a65.49,65.49,0,0,1-4.81-6.45c-1.18-2.26-3.22-9.68-3.22-9.68l26.73-9.45.93,1.15s1.75,16.2,0,21.21c-.74,2.09-3.36,6.5-5.54,6.91-1,.2-4.1.45-4.1.45L64.24,134Z"/><line class="cls-6" x1="64.1" y1="135.5" x2="64.1" y2="154.18"/><polygon class="cls-3" points="44.32 254.66 44.25 259.97 64.1 259.97 55.02 254.66 44.32 254.66"/><path class="cls-2" d="M67.48,153.93s2.17-2.47,3.18-2.49c2.36-.06,7.42,3.1,7.71,5.44.15,1.24-2.49,4.31-2.49,4.31h-8.4Z"/><path class="cls-7" d="M78.89,188.84l4.91,7.82a5.65,5.65,0,0,1-4.28,1.78c-5.33.26-8.81-.53-11.74-.69-6.58-.36-8.17-.57-17.44-.68-2.93,0-13.9-.25-16.19-.24L38,188.72"/><line class="cls-7" x1="45.28" y1="173.57" x2="70.57" y2="173.57"/><path class="cls-8" d="M55.91,109.35c-1.71.53-3.56-4.25-3.93-6a28.06,28.06,0,0,1,0-9.5C52.69,91.17,53.32,85,65.34,85,68.13,85,75,87,75,92.44c0,1.74-4,2.34-5.53,2.52A44.17,44.17,0,0,0,62,96.2c-1.35.49-3.62,3.68-4.36,4.91C56.32,103.31,58.37,108.6,55.91,109.35Z"/><circle class="cls-8" cx="61.22" cy="87.46" r="5.62"/><circle class="cls-8" cx="52.56" cy="91.27" r="5.62"/><circle class="cls-8" cx="49.14" cy="98.7" r="5.62"/><circle class="cls-8" cx="49.14" cy="106.53" r="5.62"/><circle class="cls-8" cx="45.94" cy="110.06" r="5.62"/><path class="cls-9" d="M312.76,141.19h27.8a2,2,0,0,1,2,2v53.86a0,0,0,0,1,0,0h-31.8a0,0,0,0,1,0,0V143.19A2,2,0,0,1,312.76,141.19Z"/><rect class="cls-10" x="316.87" y="148.69" width="19.58" height="3.84" rx="1"/><rect class="cls-10" x="316.87" y="155.8" width="19.58" height="3.84" rx="1"/><path class="cls-11" d="M329,183.51a2.29,2.29,0,1,1-2.29-2.29A2.3,2.3,0,0,1,329,183.51Z"/><rect class="cls-12" x="150.76" y="184.16" width="4.8" height="12.6"/><rect class="cls-9" x="107.55" y="124.6" width="91.7" height="63.62" rx="4"/><rect class="cls-13" x="111.87" y="128.53" width="82.58" height="50.28" rx="1"/><path class="cls-14" d="M116.5,131.79a1.12,1.12,0,1,1-1.12-1.12A1.12,1.12,0,0,1,116.5,131.79Z"/><line class="cls-15" x1="112.09" y1="134.71" x2="194.23" y2="134.71"/><rect class="cls-12" x="143.26" y="196.39" width="19.81" height="1.35"/><rect class="cls-12" x="255.46" y="183.87" width="4.8" height="12.6"/><rect class="cls-12" x="247.96" y="196.1" width="19.81" height="1.35"/><path class="cls-16" d="M259.49,128.24l5-3.88a41,41,0,0,0,15.79-36.24"/><path class="cls-16" d="M277.93,124.31l6.64-4.82c14.67-10.63,22.52-27.6,20.82-44.95l-.21-2.19"/><path class="cls-16" d="M250.68,128.24l-5-3.88a41,41,0,0,1-15.8-36.24"/><line class="cls-16" x1="254.69" y1="132.1" x2="254.69" y2="104.6"/><path class="cls-16" d="M232.94,124.6l-6.64-4.82c-14.67-10.64-22.53-27.6-20.83-44.95l.22-2.19"/><polygon class="cls-11" points="230.15 83.5 232.39 88.64 230.15 88.64 230.15 83.5"/><polygon class="cls-11" points="230.15 83.5 227.92 88.64 230.15 88.64 230.15 83.5"/><text class="cls-17" transform="translate(183.81 67.22)">Disc<tspan class="cls-18" x="21.43" y="0">o</tspan><tspan class="cls-19" x="27.61" y="0">v</tspan><tspan x="32.98" y="0">er</tspan></text><text class="cls-17" transform="translate(215.05 82.38)">Select</text><text class="cls-17" transform="translate(245.56 98.64)">Use</text><text class="cls-17" transform="translate(265.75 82.38)">Adopt</text><text class="cls-17" transform="translate(295.1 67.03)">Cite</text><polygon class="cls-11" points="305.18 68.25 302.94 73.4 305.18 73.4 305.18 68.25"/><polygon class="cls-11" points="305.18 68.25 307.41 73.4 305.18 73.4 305.18 68.25"/><polygon class="cls-11" points="280.01 83.5 277.77 88.64 280.01 88.64 280.01 83.5"/><polygon class="cls-11" points="280.01 83.5 282.25 88.64 280.01 88.64 280.01 83.5"/><polygon class="cls-11" points="254.58 100.51 252.35 105.65 254.58 105.65 254.58 100.51"/><polygon class="cls-11" points="254.58 100.51 256.82 105.65 254.58 105.65 254.58 100.51"/><rect class="cls-9" x="209.25" y="124.31" width="91.7" height="63.62" rx="4"/><rect class="cls-13" x="213.58" y="128.24" width="82.58" height="50.28" rx="1"/><g id="icon-server"><path class="cls-20" d="M238.32,159.71a9.62,9.62,0,0,1,1.22.08,7.37,7.37,0,0,1,1.07.24,2,2,0,0,1,.79.42.76.76,0,0,1,.29.58v4.62a.78.78,0,0,1-.29.59,2.35,2.35,0,0,1-.79.42,6.28,6.28,0,0,1-1.07.23,8.07,8.07,0,0,1-1.22.08,7.93,7.93,0,0,1-1.21-.08,6.62,6.62,0,0,1-1.08-.23,2.39,2.39,0,0,1-.78-.42.76.76,0,0,1-.3-.59V161a.74.74,0,0,1,.3-.58A2.07,2.07,0,0,1,236,160a7.84,7.84,0,0,1,1.08-.24A9.46,9.46,0,0,1,238.32,159.71Zm2.76,5.94v-1.51a4.1,4.1,0,0,1-1.21.39,9.31,9.31,0,0,1-3.1,0,3.76,3.76,0,0,1-1.2-.39v1.51a.29.29,0,0,0,.12.14,2.3,2.3,0,0,0,.35.17,3.26,3.26,0,0,0,.55.17,4.21,4.21,0,0,0,.77.13,7.33,7.33,0,0,0,1,.05,7.58,7.58,0,0,0,1-.05,4.54,4.54,0,0,0,.77-.13,3.86,3.86,0,0,0,.54-.17,1.63,1.63,0,0,0,.35-.17C241,165.73,241.07,165.69,241.08,165.65Zm0-2.31v-1.51a4.1,4.1,0,0,1-1.21.39,9.31,9.31,0,0,1-3.1,0,4,4,0,0,1-1.2-.39v1.51a.29.29,0,0,0,.12.14,2.3,2.3,0,0,0,.35.17,4.53,4.53,0,0,0,.55.17,5.3,5.3,0,0,0,.77.13,7.33,7.33,0,0,0,1,.05,7.58,7.58,0,0,0,1-.05,5.82,5.82,0,0,0,.77-.13,5,5,0,0,0,.54-.17,1.91,1.91,0,0,0,.35-.17c.08-.06.12-.1.13-.14Zm-2.76-3c-.33,0-.65,0-1,0s-.55.08-.76.13a3.86,3.86,0,0,0-.54.17,2.06,2.06,0,0,0-.36.17c-.08.06-.12.1-.13.14a.27.27,0,0,0,.13.14,2,2,0,0,0,.36.18,4,4,0,0,0,.54.16,5.65,5.65,0,0,0,.76.13,7.52,7.52,0,0,0,1,.05,7.33,7.33,0,0,0,1-.05,5.55,5.55,0,0,0,.77-.13,5,5,0,0,0,.54-.16,1.56,1.56,0,0,0,.35-.18c.08,0,.13-.1.14-.14s-.06-.08-.14-.14a1.63,1.63,0,0,0-.35-.17,5,5,0,0,0-.54-.17,7.61,7.61,0,0,0-.77-.13A9.61,9.61,0,0,0,238.32,160.37Z"/></g><g id="icon-server-2" data-name="icon-server"><path class="cls-20" d="M225.13,159.47a7.22,7.22,0,0,1,.82.05,4.62,4.62,0,0,1,.73.17,1.53,1.53,0,0,1,.54.28.54.54,0,0,1,.2.4v3.13a.54.54,0,0,1-.2.4,1.53,1.53,0,0,1-.54.28,3.74,3.74,0,0,1-.73.16,5.63,5.63,0,0,1-1.64,0,3.74,3.74,0,0,1-.73-.16,1.53,1.53,0,0,1-.54-.28.54.54,0,0,1-.2-.4v-3.13a.54.54,0,0,1,.2-.4,1.53,1.53,0,0,1,.54-.28,4.62,4.62,0,0,1,.73-.17A7.22,7.22,0,0,1,225.13,159.47Zm1.87,4v-1a2.93,2.93,0,0,1-.82.26,6.17,6.17,0,0,1-2.1,0,2.83,2.83,0,0,1-.82-.26v1a.15.15,0,0,0,.09.09,1,1,0,0,0,.23.12l.37.12.52.09q.32,0,.66,0t.66,0l.52-.09.37-.12a1,1,0,0,0,.23-.12A.15.15,0,0,0,227,163.5Zm0-1.57v-1a2.64,2.64,0,0,1-.82.26,6.17,6.17,0,0,1-2.1,0,2.55,2.55,0,0,1-.82-.26v1a.19.19,0,0,0,.09.1l.23.11a2.68,2.68,0,0,0,.37.12l.52.09q.32,0,.66,0t.66,0l.52-.09a2.68,2.68,0,0,0,.37-.12l.23-.11a.26.26,0,0,0,.09-.1Zm-1.87-2c-.23,0-.45,0-.65,0a4.23,4.23,0,0,0-.52.09,2.74,2.74,0,0,0-.37.11.88.88,0,0,0-.24.12.26.26,0,0,0-.09.1l.09.09a.88.88,0,0,0,.24.12,2.74,2.74,0,0,0,.37.11,2.91,2.91,0,0,0,.52.09c.2,0,.42,0,.65,0s.45,0,.65,0a2.91,2.91,0,0,0,.52-.09,2.74,2.74,0,0,0,.37-.11l.24-.12.09-.09a.26.26,0,0,0-.09-.1,1.33,1.33,0,0,0-.24-.12,2.74,2.74,0,0,0-.37-.11,4.23,4.23,0,0,0-.52-.09C225.58,159.93,225.36,159.92,225.13,159.92Z"/></g><g id="icon-server-3" data-name="icon-server"><path class="cls-20" d="M231,161.27a13,13,0,0,1,1.55.09,9.72,9.72,0,0,1,1.37.28,3,3,0,0,1,1,.5.87.87,0,0,1,.37.69v5.48a.9.9,0,0,1-.37.7,3,3,0,0,1-1,.49,8.49,8.49,0,0,1-1.37.28,13,13,0,0,1-1.55.1,12.88,12.88,0,0,1-1.55-.1,8.85,8.85,0,0,1-1.38-.28,2.92,2.92,0,0,1-1-.49.91.91,0,0,1-.38-.7v-5.48a.88.88,0,0,1,.38-.69,2.92,2.92,0,0,1,1-.5,10.18,10.18,0,0,1,1.38-.28A12.92,12.92,0,0,1,231,161.27Zm3.52,7v-1.78A5.32,5.32,0,0,1,233,167a11.51,11.51,0,0,1-2,.16,12.6,12.6,0,0,1-2-.16,5,5,0,0,1-1.54-.46v1.79c0,.05.06.1.16.16a2.28,2.28,0,0,0,.44.21,6.75,6.75,0,0,0,.7.2,8.58,8.58,0,0,0,1,.15,12.74,12.74,0,0,0,2.47,0,8.24,8.24,0,0,0,1-.15,6.1,6.1,0,0,0,.7-.2,3.33,3.33,0,0,0,.45-.21C234.47,168.41,234.53,168.35,234.54,168.3Zm0-2.73v-1.79a5.32,5.32,0,0,1-1.54.46,12.33,12.33,0,0,1-4,0,5,5,0,0,1-1.54-.46v1.79c0,.05.06.1.16.16a1.81,1.81,0,0,0,.44.21,6.75,6.75,0,0,0,.7.2,8.58,8.58,0,0,0,1,.15,12.74,12.74,0,0,0,2.47,0,8.24,8.24,0,0,0,1-.15,6.1,6.1,0,0,0,.7-.2,1.64,1.64,0,0,0,.44-.21c.1-.06.16-.12.17-.16ZM231,162.05a12.07,12.07,0,0,0-1.23.06,8,8,0,0,0-1,.15,6.1,6.1,0,0,0-.7.2,1.92,1.92,0,0,0-.45.21c-.1.06-.16.12-.17.16s.07.11.17.17a2.52,2.52,0,0,0,.45.2,4.58,4.58,0,0,0,.7.2,8,8,0,0,0,1,.15,9.7,9.7,0,0,0,1.23.07,9.43,9.43,0,0,0,1.22-.07,8.24,8.24,0,0,0,1-.15,5.35,5.35,0,0,0,.7-.2,2.52,2.52,0,0,0,.45-.2.44.44,0,0,0,.17-.17.44.44,0,0,0-.17-.16,1.92,1.92,0,0,0-.45-.21c-.21-.07-.44-.14-.7-.2a8.24,8.24,0,0,0-1-.15A11.73,11.73,0,0,0,231,162.05Z"/></g><text class="cls-21" transform="translate(216.84 175.07)">Databases</text><text class="cls-21" transform="translate(238.92 157.37)"><tspan class="cls-22">P</tspan><tspan x="4.43" y="0">olicies</tspan></text><text class="cls-21" transform="translate(260.31 175.14)">Standa<tspan class="cls-23" x="21.97" y="0">r</tspan><tspan x="24.37" y="0">ds</tspan></text><path class="cls-14" d="M217.73,132a1.12,1.12,0,1,1-1.12-1.12A1.12,1.12,0,0,1,217.73,132Z"/><line class="cls-15" x1="214.32" y1="134.93" x2="296.46" y2="134.93"/><polygon class="cls-11" points="205.69 68.54 207.92 73.68 205.69 73.68 205.69 68.54"/><polygon class="cls-11" points="205.69 68.54 203.45 73.68 205.69 73.68 205.69 68.54"/><path class="cls-24" d="M268.37,168.09a.25.25,0,0,1-.26.24h-7.28a.26.26,0,0,1-.27-.24v-9.78a.26.26,0,0,1,.27-.24h7.28a.25.25,0,0,1,.26.24Z"/><path class="cls-25" d="M268.37,168.09a.25.25,0,0,1-.26.24h-7.28a.26.26,0,0,1-.27-.24v-9.78a.26.26,0,0,1,.27-.24h7.28a.25.25,0,0,1,.26.24Z"/><path class="cls-25" d="M268.1,167.76a.24.24,0,0,1-.24.23H261a.24.24,0,0,1-.25-.23v-9.12a.24.24,0,0,1,.25-.23h6.83a.24.24,0,0,1,.24.23Z"/><rect class="cls-10" x="261.75" y="160.33" width="5.16" height="0.82"/><rect class="cls-10" x="261.75" y="161.91" width="3.41" height="0.82"/><rect class="cls-10" x="261.75" y="163.46" width="5.73" height="0.82"/><rect class="cls-10" x="261.75" y="165.08" width="3.41" height="0.82"/><path class="cls-11" d="M264.44,161.18a2,2,0,1,0,2,2A2,2,0,0,0,264.44,161.18Zm1.17,1.49-1.46,1.46a.07.07,0,0,1-.09,0l-.79-.78a.09.09,0,0,1,0-.1l.31-.3a.07.07,0,0,1,.1,0l.38.37a.06.06,0,0,0,.09,0l1.06-1a.07.07,0,0,1,.09,0l.31.31A.06.06,0,0,1,265.61,162.67Z"/><path class="cls-25" d="M265.61,162.67l-1.46,1.46a.07.07,0,0,1-.09,0l-.79-.78a.09.09,0,0,1,0-.1l.31-.31a.09.09,0,0,1,.1,0l.38.38a.06.06,0,0,0,.09,0l1.06-1a.07.07,0,0,1,.09,0l.31.31A.06.06,0,0,1,265.61,162.67Z"/><path class="cls-24" d="M292.1,168.28a.26.26,0,0,1-.27.25h-7.32a.26.26,0,0,1-.27-.25v-9.83a.26.26,0,0,1,.27-.25h7.32a.26.26,0,0,1,.27.25Z"/><path class="cls-25" d="M292.1,168.28a.26.26,0,0,1-.27.25h-7.32a.26.26,0,0,1-.27-.25v-9.83a.26.26,0,0,1,.27-.25h7.32a.26.26,0,0,1,.27.25Z"/><g class="cls-26"><rect class="cls-10" x="285.04" y="160.21" width="1.83" height="0.92"/></g><g class="cls-26"><rect class="cls-10" x="285.04" y="161.54" width="1.83" height="0.92"/></g><g class="cls-26"><rect class="cls-10" x="285.04" y="162.87" width="1.83" height="0.92"/></g><g class="cls-26"><rect class="cls-10" x="285.04" y="164.2" width="1.83" height="0.92"/></g><g class="cls-26"><rect class="cls-10" x="285.04" y="165.53" width="1.83" height="0.92"/></g><rect class="cls-10" x="287.4" y="160.21" width="1.83" height="0.92"/><rect class="cls-10" x="287.4" y="161.54" width="1.83" height="0.92"/><rect class="cls-10" x="287.4" y="162.87" width="1.83" height="0.92"/><rect class="cls-10" x="287.4" y="164.2" width="1.83" height="0.92"/><rect class="cls-10" x="287.4" y="165.53" width="1.83" height="0.92"/><g class="cls-26"><rect class="cls-10" x="289.76" y="160.21" width="1.83" height="0.92"/></g><g class="cls-26"><rect class="cls-10" x="289.76" y="161.54" width="1.83" height="0.92"/></g><g class="cls-26"><rect class="cls-10" x="289.76" y="162.87" width="1.83" height="0.92"/></g><g class="cls-26"><rect class="cls-10" x="289.76" y="164.2" width="1.83" height="0.92"/></g><g class="cls-26"><rect class="cls-10" x="289.76" y="165.53" width="1.83" height="0.92"/></g><path class="cls-11" d="M291.51,165.05v-1.23h-2a.13.13,0,0,1-.13-.13v-1.18a.13.13,0,0,1,.13-.13h2v-1.23c0-.07.05-.09.1-.05L294.1,163a.08.08,0,0,1,0,.14l-2.48,1.93c-.05,0-.1,0-.1,0"/><path class="cls-24" d="M285.71,168.77a.29.29,0,0,1-.31.28H277a.29.29,0,0,1-.31-.28V157.5a.3.3,0,0,1,.31-.28h8.38a.3.3,0,0,1,.31.28Z"/><path class="cls-25" d="M285.71,168.77a.29.29,0,0,1-.31.28H277a.29.29,0,0,1-.31-.28V157.5a.3.3,0,0,1,.31-.28h8.38a.3.3,0,0,1,.31.28Z"/><text class="cls-27" transform="translate(279.42 164.34)">iD</text><polyline class="cls-28" points="282.11 159.86 284.33 159.86 284.33 161.36 284.33 161.78"/><polyline class="cls-28" points="278.11 162.08 278.11 159.86 279.62 159.86 280.03 159.86"/><polyline class="cls-28" points="280.34 165.85 278.11 165.85 278.11 164.35 278.11 163.93"/><polyline class="cls-28" points="284.33 163.63 284.33 165.85 282.83 165.85 282.41 165.85"/><path class="cls-24" d="M276,168.81a.29.29,0,0,1-.31.28h-8.38a.29.29,0,0,1-.31-.28V157.54a.3.3,0,0,1,.31-.28h8.38a.3.3,0,0,1,.31.28Z"/><path class="cls-25" d="M276,168.81a.29.29,0,0,1-.31.28h-8.38a.29.29,0,0,1-.31-.28V157.54a.3.3,0,0,1,.31-.28h8.38a.3.3,0,0,1,.31.28Z"/><path class="cls-11" d="M273,162.62V162a.84.84,0,0,0-.87-.87h-.5c-.36,0-.39-.17-.39-.26v-.71a.61.61,0,0,0,.36-.56.61.61,0,1,0-.84.56v.71c0,.06,0,.26-.4.26h-.5a.84.84,0,0,0-.87.87v.58a.61.61,0,0,0-.37.56.61.61,0,1,0,1.21,0,.62.62,0,0,0-.36-.56V162a.37.37,0,0,1,.39-.39h.5a1.16,1.16,0,0,0,.4-.06v1a.61.61,0,0,0-.37.56.61.61,0,1,0,1.21,0,.62.62,0,0,0-.36-.56v-1a1.07,1.07,0,0,0,.39.06h.5a.36.36,0,0,1,.39.39v.58a.62.62,0,0,0-.36.56.61.61,0,1,0,1.21,0A.61.61,0,0,0,273,162.62Zm-3.42.56a.35.35,0,1,1-.35-.35A.35.35,0,0,1,269.61,163.18Zm1.07-3.54a.35.35,0,0,1,.35-.35.35.35,0,0,1,.35.35.35.35,0,0,1-.35.35A.34.34,0,0,1,270.68,159.64Zm.7,3.54a.35.35,0,0,1-.35.35.35.35,0,1,1,0-.7A.35.35,0,0,1,271.38,163.18Zm1.41.35a.35.35,0,0,1,0-.7.35.35,0,0,1,0,.7Z"/><path class="cls-29" d="M274.8,166.15v-.58a.85.85,0,0,0-.88-.87h-.5c-.36,0-.39-.17-.39-.26v-.71a.61.61,0,0,0,.36-.56.61.61,0,1,0-.84.56v.71c0,.06,0,.26-.39.26h-.51a.84.84,0,0,0-.87.87v.58a.6.6,0,0,0-.37.56.61.61,0,0,0,.61.6.6.6,0,0,0,.24-1.16v-.58a.37.37,0,0,1,.39-.39h.51a1.14,1.14,0,0,0,.39-.06v1a.6.6,0,1,0,.84.56.61.61,0,0,0-.36-.56v-1a1.14,1.14,0,0,0,.39.06h.5a.38.38,0,0,1,.4.39v.58a.6.6,0,1,0,.84.56A.61.61,0,0,0,274.8,166.15Zm-3.43.56a.35.35,0,0,1-.7,0,.35.35,0,0,1,.7,0Zm1.07-3.54a.35.35,0,1,1,.7,0,.35.35,0,1,1-.7,0Zm.7,3.54a.35.35,0,1,1-.7,0,.35.35,0,1,1,.7,0Zm1.42.35a.35.35,0,0,1-.35-.35.34.34,0,0,1,.35-.35.35.35,0,0,1,.35.35A.35.35,0,0,1,274.56,167.06Z"/><path class="cls-30" d="M257.21,151.08a.37.37,0,0,1-.39.35H246.23a.38.38,0,0,1-.39-.35V136.84a.38.38,0,0,1,.39-.35h10.59a.37.37,0,0,1,.39.35Z"/><path class="cls-10" d="M256.82,151.57H246.23a.51.51,0,0,1-.53-.49V136.84a.51.51,0,0,1,.53-.49h10.59a.51.51,0,0,1,.53.49v14.24A.51.51,0,0,1,256.82,151.57Zm-10.59-14.94a.23.23,0,0,0-.25.21v14.24a.23.23,0,0,0,.25.21h10.59a.23.23,0,0,0,.25-.21V136.84a.23.23,0,0,0-.25-.21Z"/><path class="cls-25" d="M257.21,151.08a.37.37,0,0,1-.39.35H246.23a.38.38,0,0,1-.39-.35V136.84a.38.38,0,0,1,.39-.35h10.59a.37.37,0,0,1,.39.35Z"/><path class="cls-14" d="M256.3,149.27a1,1,0,1,1-1-1A1,1,0,0,1,256.3,149.27Z"/><path class="cls-14" d="M255.3,150.75a1.48,1.48,0,1,1,1.48-1.48A1.49,1.49,0,0,1,255.3,150.75Zm0-2.68a1.21,1.21,0,1,0,1.2,1.2A1.21,1.21,0,0,0,255.3,148.07Z"/><rect class="cls-10" x="247.69" y="140.28" width="7.42" height="1.11"/><rect class="cls-10" x="247.69" y="142.28" width="5.74" height="1.11"/><rect class="cls-10" x="247.69" y="144.27" width="3.4" height="1.11"/><rect class="cls-10" x="252.25" y="144.22" width="3.4" height="1.11"/><rect class="cls-10" x="247.69" y="146.27" width="5.74" height="1.11"/><rect class="cls-11" x="247.69" y="138.57" width="5.32" height="0.88"/><path class="cls-30" d="M244.71,150.13a.31.31,0,0,1-.31.3h-8.73a.31.31,0,0,1-.32-.3V138.41a.3.3,0,0,1,.32-.29h8.73a.3.3,0,0,1,.31.29Z"/><path class="cls-25" d="M244.71,150.13a.31.31,0,0,1-.31.3h-8.73a.31.31,0,0,1-.32-.3V138.41a.3.3,0,0,1,.32-.29h8.73a.3.3,0,0,1,.31.29Z"/><path class="cls-14" d="M244,148.65a.83.83,0,0,1-1.66,0,.83.83,0,0,1,1.66,0Z"/><path class="cls-14" d="M243.14,149.84a1.2,1.2,0,1,1,1.19-1.19A1.19,1.19,0,0,1,243.14,149.84Zm0-2.21a1,1,0,1,0,0,2,1,1,0,0,0,0-2Z"/><rect class="cls-10" x="236.87" y="141.34" width="6.11" height="0.72"/><rect class="cls-10" x="236.87" y="142.98" width="2.8" height="0.72"/><rect class="cls-10" x="236.87" y="144.62" width="2.8" height="0.72"/><rect class="cls-10" x="236.87" y="146.27" width="4.72" height="0.72"/><rect class="cls-31" x="236.87" y="139.84" width="4.38" height="0.72"/><path class="cls-25" d="M267.87,150.13a.31.31,0,0,1-.32.3h-8.72a.31.31,0,0,1-.32-.3V138.41a.3.3,0,0,1,.32-.29h8.72a.3.3,0,0,1,.32.29Z"/><path class="cls-14" d="M267.12,148.65a.83.83,0,1,1-.82-.83A.83.83,0,0,1,267.12,148.65Z"/><path class="cls-14" d="M266.3,149.84a1.2,1.2,0,1,1,1.19-1.19A1.19,1.19,0,0,1,266.3,149.84Zm0-2.21a1,1,0,1,0,0,2,1,1,0,0,0,0-2Z"/><rect class="cls-10" x="260.03" y="141.34" width="6.11" height="0.72"/><rect class="cls-10" x="260.03" y="142.98" width="4.72" height="0.72"/><rect class="cls-10" x="260.03" y="144.62" width="3.16" height="0.72"/><rect class="cls-10" x="263.17" y="146.27" width="1.68" height="0.72"/><rect class="cls-10" x="260.03" y="146.27" width="2.19" height="0.72"/><rect class="cls-29" x="260.03" y="139.84" width="4.38" height="0.72"/><circle class="cls-8" cx="39.01" cy="115.08" r="3.53"/><path class="cls-3" d="M128.69,154.09a1.82,1.82,0,0,1,1.81-2,1.52,1.52,0,0,1,1.13.49l-.27.32a1.13,1.13,0,0,0-.85-.37c-.79,0-1.3.61-1.3,1.59s.47,1.61,1.31,1.61a1.07,1.07,0,0,0,.7-.23v-1h-.83V154h1.29v1.65a1.64,1.64,0,0,1-1.21.46A1.8,1.8,0,0,1,128.69,154.09Z"/><path class="cls-3" d="M132.36,154.6a1.36,1.36,0,1,1,1.35,1.53A1.39,1.39,0,0,1,132.36,154.6Zm2.19,0c0-.66-.34-1.12-.84-1.12s-.84.46-.84,1.12.34,1.12.84,1.12S134.55,155.27,134.55,154.6Z"/><path class="cls-3" d="M135.61,154.6a1.36,1.36,0,1,1,1.35,1.53A1.39,1.39,0,0,1,135.61,154.6Zm2.19,0c0-.66-.34-1.12-.84-1.12s-.84.46-.84,1.12.34,1.12.84,1.12S137.8,155.27,137.8,154.6Z"/><path class="cls-3" d="M138.87,154.6a1.38,1.38,0,0,1,1.26-1.53,1.21,1.21,0,0,1,.82.34l0-.5v-1.12h.49v4.27H141l0-.35h0a1.29,1.29,0,0,1-.89.42C139.34,156.13,138.87,155.58,138.87,154.6Zm2.06.72v-1.53a1,1,0,0,0-.71-.3c-.47,0-.84.45-.84,1.11s.29,1.11.8,1.11A1,1,0,0,0,140.93,155.32Z"/><path class="cls-3" d="M143.4,154.6a1.38,1.38,0,0,1,1.26-1.53,1.21,1.21,0,0,1,.82.34l0-.5v-1.12H146v4.27h-.41l0-.35h0a1.29,1.29,0,0,1-.89.42C143.87,156.13,143.4,155.58,143.4,154.6Zm2.06.72v-1.53a1,1,0,0,0-.71-.3c-.47,0-.84.45-.84,1.11s.29,1.11.8,1.11A1,1,0,0,0,145.46,155.32Z"/><path class="cls-3" d="M146.76,155.3c0-.63.55-1,1.79-1.09,0-.37-.13-.73-.6-.73a1.63,1.63,0,0,0-.87.31l-.19-.34a2.14,2.14,0,0,1,1.14-.38c.71,0,1,.47,1,1.2v1.79h-.4l0-.35h0a1.58,1.58,0,0,1-1,.42A.79.79,0,0,1,146.76,155.3Zm1.79,0v-.81c-1,.11-1.31.35-1.31.73s.23.46.51.46A1.19,1.19,0,0,0,148.55,155.35Z"/><path class="cls-3" d="M150,155.16v-1.62h-.44v-.37l.46,0,.06-.81h.41v.81h.79v.4h-.79v1.63c0,.35.11.56.45.56a.94.94,0,0,0,.33-.08l.1.37a1.68,1.68,0,0,1-.54.11C150.18,156.13,150,155.74,150,155.16Z"/><path class="cls-3" d="M151.6,155.3c0-.63.55-1,1.79-1.09,0-.37-.12-.73-.6-.73a1.63,1.63,0,0,0-.87.31l-.19-.34a2.17,2.17,0,0,1,1.14-.38c.71,0,1,.47,1,1.2v1.79h-.41l0-.35h0a1.55,1.55,0,0,1-1,.42A.8.8,0,0,1,151.6,155.3Zm1.79,0v-.81c-1,.11-1.3.35-1.3.73s.22.46.51.46A1.17,1.17,0,0,0,153.39,155.35Z"/><path class="cls-3" d="M156,153.14h.4l.05.43h0a1.3,1.3,0,0,1,.91-.5.76.76,0,0,1,.8.56,1.4,1.4,0,0,1,1-.56c.6,0,.89.4.89,1.14v1.85h-.49v-1.79c0-.54-.17-.77-.54-.77a1.08,1.08,0,0,0-.74.45v2.11h-.49v-1.79c0-.54-.17-.77-.54-.77a1.08,1.08,0,0,0-.73.45v2.11H156Z"/><path class="cls-3" d="M160.8,155.3c0-.63.55-1,1.79-1.09,0-.37-.13-.73-.6-.73a1.63,1.63,0,0,0-.87.31l-.19-.34a2.14,2.14,0,0,1,1.14-.38c.71,0,1,.47,1,1.2v1.79h-.4l-.05-.35h0a1.58,1.58,0,0,1-1,.42A.79.79,0,0,1,160.8,155.3Zm1.79,0v-.81c-1,.11-1.31.35-1.31.73s.23.46.51.46A1.19,1.19,0,0,0,162.59,155.35Z"/><path class="cls-3" d="M164,153.14h.41l0,.42h0a1.41,1.41,0,0,1,1-.49c.61,0,.89.4.89,1.14v1.85h-.5v-1.79c0-.54-.16-.77-.55-.77a1.09,1.09,0,0,0-.79.45v2.11H164Z"/><path class="cls-3" d="M167.11,155.3c0-.63.54-1,1.79-1.09,0-.37-.13-.73-.61-.73a1.59,1.59,0,0,0-.86.31l-.2-.34a2.21,2.21,0,0,1,1.15-.38c.71,0,1,.47,1,1.2v1.79H169l0-.35h0a1.53,1.53,0,0,1-1,.42A.79.79,0,0,1,167.11,155.3Zm1.79,0v-.81c-1,.11-1.31.35-1.31.73s.22.46.51.46A1.21,1.21,0,0,0,168.9,155.35Z"/><path class="cls-3" d="M170.09,156.62a.81.81,0,0,1,.43-.66v0a.52.52,0,0,1-.26-.47.68.68,0,0,1,.32-.54v0a1,1,0,0,1-.38-.78,1,1,0,0,1,1.09-1,1.16,1.16,0,0,1,.41.07h1v.38h-.6a.83.83,0,0,1,.24.6,1,1,0,0,1-1.07,1,.94.94,0,0,1-.43-.1.43.43,0,0,0-.19.35c0,.18.12.31.51.31h.57c.68,0,1,.22,1,.7s-.57,1-1.47,1C170.58,157.4,170.09,157.12,170.09,156.62Zm2.2-.16c0-.26-.21-.36-.59-.36h-.51a1.67,1.67,0,0,1-.37,0,.61.61,0,0,0-.3.49c0,.31.31.51.84.51S172.29,156.77,172.29,156.46Zm-.38-2.35a.62.62,0,1,0-1.24,0,.62.62,0,1,0,1.24,0Z"/><path class="cls-3" d="M173,154.6a1.41,1.41,0,0,1,1.31-1.53c.75,0,1.17.53,1.17,1.37a1.14,1.14,0,0,1,0,.28h-2a1,1,0,0,0,1,1,1.25,1.25,0,0,0,.73-.24l.17.33a1.74,1.74,0,0,1-1,.3A1.4,1.4,0,0,1,173,154.6Zm2-.23c0-.59-.26-.91-.72-.91a.89.89,0,0,0-.83.91Z"/><path class="cls-3" d="M176.23,153.14h.4l.05.43h0a1.3,1.3,0,0,1,.91-.5.76.76,0,0,1,.8.56,1.4,1.4,0,0,1,1-.56c.6,0,.89.4.89,1.14v1.85h-.49v-1.79c0-.54-.17-.77-.54-.77a1.08,1.08,0,0,0-.74.45v2.11H178v-1.79c0-.54-.17-.77-.54-.77a1.08,1.08,0,0,0-.73.45v2.11h-.49Z"/><path class="cls-3" d="M181,154.6a1.41,1.41,0,0,1,1.31-1.53c.75,0,1.17.53,1.17,1.37a1.14,1.14,0,0,1,0,.28h-2a1,1,0,0,0,1,1,1.2,1.2,0,0,0,.72-.24l.18.33a1.76,1.76,0,0,1-1,.3A1.4,1.4,0,0,1,181,154.6Zm2-.23c0-.59-.26-.91-.72-.91a.89.89,0,0,0-.83.91Z"/><path class="cls-3" d="M184.18,153.14h.4l0,.42h0a1.41,1.41,0,0,1,1-.49c.61,0,.89.4.89,1.14v1.85H186v-1.79c0-.54-.17-.77-.55-.77a1.09,1.09,0,0,0-.8.45v2.11h-.49Z"/><path class="cls-3" d="M187.54,155.16v-1.62h-.43v-.37l.46,0,.06-.81H188v.81h.79v.4H188v1.63c0,.35.11.56.45.56a.94.94,0,0,0,.33-.08l.1.37a1.68,1.68,0,0,1-.54.11C187.75,156.13,187.54,155.74,187.54,155.16Z"/><path class="cls-3" d="M128.92,160.12h1.23c.8,0,1.38.29,1.38,1.11s-.58,1.16-1.38,1.16h-.73v1.67h-.5Zm1.16,1.87c.61,0,.95-.25.95-.76s-.34-.7-.95-.7h-.66V162Zm0,.27.4-.26,1.2,2.06h-.57Z"/><path class="cls-3" d="M132,162.6a1.41,1.41,0,0,1,1.31-1.53c.74,0,1.16.53,1.16,1.37a1.19,1.19,0,0,1,0,.28h-2a1,1,0,0,0,1,1,1.2,1.2,0,0,0,.72-.24l.18.33a1.79,1.79,0,0,1-1,.3A1.4,1.4,0,0,1,132,162.6Zm2-.23c0-.59-.26-.91-.72-.91a.9.9,0,0,0-.84.91Z"/><path class="cls-3" d="M135.2,161.14h.41l0,.34h0a1.52,1.52,0,0,1,.93-.41c.75,0,1.15.59,1.15,1.49s-.59,1.57-1.26,1.57a1.3,1.3,0,0,1-.81-.34l0,.51v1h-.5Zm2.05,1.42c0-.64-.22-1.07-.77-1.07a1.18,1.18,0,0,0-.78.39v1.53a1.12,1.12,0,0,0,.71.3C136.89,163.71,137.25,163.28,137.25,162.56Z"/><path class="cls-3" d="M138.53,161.14h.41l0,.53h0a1,1,0,0,1,.83-.6.71.71,0,0,1,.31.06l-.09.43a.88.88,0,0,0-.29,0c-.24,0-.54.17-.73.67v1.87h-.5Z"/><path class="cls-3" d="M140.34,162.6a1.36,1.36,0,1,1,1.35,1.53A1.39,1.39,0,0,1,140.34,162.6Zm2.19,0c0-.66-.34-1.12-.84-1.12s-.84.46-.84,1.12.34,1.12.84,1.12S142.53,163.27,142.53,162.6Z"/><path class="cls-3" d="M143.6,162.6a1.38,1.38,0,0,1,1.26-1.53,1.21,1.21,0,0,1,.82.34l0-.5v-1.12h.49v4.27h-.41l0-.35h0a1.25,1.25,0,0,1-.88.42C144.07,164.13,143.6,163.58,143.6,162.6Zm2.06.72v-1.53a1,1,0,0,0-.71-.3c-.47,0-.84.45-.84,1.11s.29,1.11.8,1.11A1,1,0,0,0,145.66,163.32Z"/><path class="cls-3" d="M147.1,163v-1.85h.49v1.79c0,.54.17.77.55.77s.51-.15.78-.49v-2.07h.5v2.92H149l0-.46h0a1.23,1.23,0,0,1-1,.53C147.37,164.13,147.1,163.73,147.1,163Z"/><path class="cls-3" d="M150.18,162.6a1.42,1.42,0,0,1,1.41-1.53,1.25,1.25,0,0,1,.85.34l-.25.33a.86.86,0,0,0-.58-.26,1,1,0,0,0-.92,1.12c0,.67.37,1.12.91,1.12a1.05,1.05,0,0,0,.68-.29l.21.33a1.42,1.42,0,0,1-.94.37A1.38,1.38,0,0,1,150.18,162.6Z"/><path class="cls-3" d="M153.05,160.22a.34.34,0,0,1,.68,0,.34.34,0,0,1-.68,0Zm.09.92h.49v2.92h-.49Z"/><path class="cls-3" d="M155.07,163.76h0l0,.3h-.4v-4.27h.5V161l0,.53a1.48,1.48,0,0,1,.92-.41c.75,0,1.15.59,1.15,1.48s-.59,1.58-1.26,1.58A1.32,1.32,0,0,1,155.07,163.76Zm1.58-1.2c0-.64-.22-1.07-.76-1.07a1.16,1.16,0,0,0-.78.39v1.53a1.1,1.1,0,0,0,.71.3C156.3,163.71,156.65,163.28,156.65,162.56Z"/><path class="cls-3" d="M157.91,163.47v-3.68h.49v3.72c0,.15.07.21.14.21h.11l.06.37a.67.67,0,0,1-.28,0C158.06,164.13,157.91,163.89,157.91,163.47Z"/><path class="cls-3" d="M159.22,162.6a1.41,1.41,0,0,1,1.31-1.53c.74,0,1.16.53,1.16,1.37a1.19,1.19,0,0,1,0,.28h-2a1,1,0,0,0,1,1,1.2,1.2,0,0,0,.72-.24l.18.33a1.79,1.79,0,0,1-1,.3A1.4,1.4,0,0,1,159.22,162.6Zm2-.23c0-.59-.26-.91-.72-.91a.9.9,0,0,0-.84.91Z"/><path class="cls-3" d="M163.61,161.14H164l0,.53h0a1,1,0,0,1,.83-.6.71.71,0,0,1,.31.06l-.09.43a.88.88,0,0,0-.29,0c-.24,0-.54.17-.73.67v1.87h-.5Z"/><path class="cls-3" d="M165.42,162.6a1.41,1.41,0,0,1,1.31-1.53c.74,0,1.16.53,1.16,1.37a2.16,2.16,0,0,1,0,.28h-2a1,1,0,0,0,1,1,1.22,1.22,0,0,0,.72-.24l.18.33a1.8,1.8,0,0,1-1,.3A1.4,1.4,0,0,1,165.42,162.6Zm2-.23c0-.59-.27-.91-.72-.91a.9.9,0,0,0-.84.91Z"/><path class="cls-3" d="M168.29,163.73l.24-.33a1.33,1.33,0,0,0,.86.35c.38,0,.58-.21.58-.46s-.35-.43-.67-.55-.87-.35-.87-.84.37-.83,1-.83a1.48,1.48,0,0,1,.91.33l-.24.31a1.12,1.12,0,0,0-.66-.25c-.37,0-.54.19-.54.41s.32.39.65.51.89.33.89.88-.38.87-1.06.87A1.79,1.79,0,0,1,168.29,163.73Z"/><path class="cls-3" d="M170.91,162.6a1.41,1.41,0,0,1,1.31-1.53c.74,0,1.16.53,1.16,1.37a2.16,2.16,0,0,1,0,.28h-2a1,1,0,0,0,1,1,1.25,1.25,0,0,0,.73-.24l.18.33a1.8,1.8,0,0,1-1,.3A1.4,1.4,0,0,1,170.91,162.6Zm2-.23c0-.59-.27-.91-.72-.91a.9.9,0,0,0-.84.91Z"/><path class="cls-3" d="M173.84,163.3c0-.63.55-1,1.79-1.09,0-.37-.13-.73-.6-.73a1.63,1.63,0,0,0-.87.31l-.2-.34a2.21,2.21,0,0,1,1.15-.38c.71,0,1,.47,1,1.2v1.79h-.41l0-.35h0a1.53,1.53,0,0,1-1,.42A.79.79,0,0,1,173.84,163.3Zm1.79,0v-.81c-1,.11-1.31.35-1.31.73s.23.46.51.46A1.19,1.19,0,0,0,175.63,163.35Z"/><path class="cls-3" d="M177,161.14h.41l0,.53h0a1,1,0,0,1,.83-.6.78.78,0,0,1,.31.06l-.1.43a.82.82,0,0,0-.28,0c-.24,0-.54.17-.74.67v1.87H177Z"/><path class="cls-3" d="M178.85,162.6a1.41,1.41,0,0,1,1.4-1.53,1.23,1.23,0,0,1,.85.34l-.25.33a.86.86,0,0,0-.58-.26c-.53,0-.91.46-.91,1.12s.36,1.12.9,1.12a1.05,1.05,0,0,0,.68-.29l.22.33a1.47,1.47,0,0,1-.95.37A1.37,1.37,0,0,1,178.85,162.6Z"/><path class="cls-3" d="M181.8,159.79h.49V161l0,.6a1.42,1.42,0,0,1,1-.48c.62,0,.89.4.89,1.14v1.85h-.49v-1.79c0-.54-.17-.77-.55-.77a1.09,1.09,0,0,0-.8.45v2.11h-.49Z"/><path class="cls-3" d="M128.69,170.08c0-1.27.7-2,1.68-2s1.69.77,1.69,2-.7,2-1.69,2S128.69,171.34,128.69,170.08Zm2.85,0c0-1-.46-1.59-1.17-1.59s-1.16.61-1.16,1.59.46,1.61,1.16,1.61S131.54,171.06,131.54,170.08Z"/><path class="cls-3" d="M132.86,169.14h.41l0,.34h0a1.57,1.57,0,0,1,.93-.41c.76,0,1.16.59,1.16,1.49s-.6,1.57-1.26,1.57a1.3,1.3,0,0,1-.81-.34v1.5h-.49Zm2,1.42c0-.64-.22-1.07-.77-1.07a1.2,1.2,0,0,0-.78.39v1.53a1.16,1.16,0,0,0,.71.3C134.54,171.71,134.9,171.28,134.9,170.56Z"/><path class="cls-3" d="M136,170.6a1.41,1.41,0,0,1,1.31-1.53c.74,0,1.16.53,1.16,1.37a1.19,1.19,0,0,1,0,.28h-2a1,1,0,0,0,1,1,1.2,1.2,0,0,0,.72-.24l.18.33a1.79,1.79,0,0,1-1,.3A1.4,1.4,0,0,1,136,170.6Zm2-.23c0-.59-.26-.91-.72-.91a.9.9,0,0,0-.84.91Z"/><path class="cls-3" d="M139.16,169.14h.41l0,.42h0a1.41,1.41,0,0,1,1-.49c.61,0,.89.4.89,1.14v1.85H141v-1.79c0-.54-.16-.77-.55-.77a1.09,1.09,0,0,0-.79.45v2.11h-.5Z"/><path class="cls-3" d="M143.32,171.73l.25-.33a1.33,1.33,0,0,0,.86.35c.38,0,.57-.21.57-.46s-.35-.43-.67-.55-.87-.35-.87-.84.38-.83,1-.83a1.45,1.45,0,0,1,.9.33l-.23.31a1.15,1.15,0,0,0-.67-.25c-.36,0-.53.19-.53.41s.31.39.64.51.89.33.89.88-.37.87-1.06.87A1.83,1.83,0,0,1,143.32,171.73Z"/><path class="cls-3" d="M145.94,170.6a1.42,1.42,0,0,1,1.41-1.53,1.25,1.25,0,0,1,.85.34l-.25.33a.86.86,0,0,0-.58-.26,1,1,0,0,0-.92,1.12c0,.67.37,1.12.9,1.12a1.06,1.06,0,0,0,.69-.29l.21.33a1.42,1.42,0,0,1-.94.37A1.37,1.37,0,0,1,145.94,170.6Z"/><path class="cls-3" d="M148.9,167.79h.49V169l0,.6a1.4,1.4,0,0,1,1-.48c.61,0,.89.4.89,1.14v1.85h-.49v-1.79c0-.54-.17-.77-.55-.77a1.09,1.09,0,0,0-.8.45v2.11h-.49Z"/><path class="cls-3" d="M151.94,170.6a1.36,1.36,0,1,1,1.35,1.53A1.39,1.39,0,0,1,151.94,170.6Zm2.19,0c0-.66-.34-1.12-.84-1.12s-.84.46-.84,1.12.34,1.12.84,1.12S154.13,171.27,154.13,170.6Z"/><path class="cls-3" d="M155.39,171.47v-3.68h.49v3.72c0,.15.07.21.14.21h.11l.06.37a.67.67,0,0,1-.28,0C155.54,172.13,155.39,171.89,155.39,171.47Z"/><path class="cls-3" d="M156.74,171.3c0-.63.55-1,1.79-1.09,0-.37-.13-.73-.6-.73a1.63,1.63,0,0,0-.87.31l-.2-.34a2.21,2.21,0,0,1,1.15-.38c.71,0,1,.47,1,1.2v1.79h-.41l0-.35h0a1.53,1.53,0,0,1-1,.42A.79.79,0,0,1,156.74,171.3Zm1.79,0v-.81c-1,.11-1.31.35-1.31.73s.23.46.51.46A1.19,1.19,0,0,0,158.53,171.35Z"/><path class="cls-3" d="M159.94,169.14h.41l0,.53h0a1,1,0,0,1,.83-.6.75.75,0,0,1,.31.06l-.1.43a.82.82,0,0,0-.28,0c-.24,0-.54.17-.74.67v1.87h-.49Z"/><path class="cls-3" d="M161.68,171.73l.24-.33a1.33,1.33,0,0,0,.86.35c.38,0,.57-.21.57-.46s-.34-.43-.66-.55-.87-.35-.87-.84.37-.83,1-.83a1.5,1.5,0,0,1,.91.33l-.24.31a1.12,1.12,0,0,0-.66-.25c-.37,0-.54.19-.54.41s.32.39.65.51.89.33.89.88-.38.87-1.07.87A1.78,1.78,0,0,1,161.68,171.73Z"/><path class="cls-3" d="M164.51,167.79h.5V169l0,.6a1.4,1.4,0,0,1,1-.48c.61,0,.89.4.89,1.14v1.85h-.5v-1.79c0-.54-.16-.77-.55-.77a1.09,1.09,0,0,0-.79.45v2.11h-.5Z"/><path class="cls-3" d="M167.69,168.22a.34.34,0,0,1,.68,0,.34.34,0,0,1-.68,0Zm.09.92h.49v2.92h-.49Z"/><path class="cls-3" d="M169.25,169.14h.41l0,.34h0a1.52,1.52,0,0,1,.93-.41c.75,0,1.15.59,1.15,1.49s-.59,1.57-1.26,1.57a1.3,1.3,0,0,1-.81-.34l0,.51v1h-.5Zm2,1.42c0-.64-.22-1.07-.76-1.07a1.18,1.18,0,0,0-.78.39v1.53a1.12,1.12,0,0,0,.71.3C170.94,171.71,171.29,171.28,171.29,170.56Z"/><path class="cls-3" d="M116.63,141.6h.83l.4,2.31c.07.49.15,1,.23,1.47h0c.09-.49.19-1,.29-1.47l.57-2.31h.7l.57,2.31.3,1.47h0c.07-.49.14-1,.22-1.47l.39-2.31H122l-.88,4.58h-1l-.57-2.41c-.08-.36-.14-.71-.2-1.05h0q-.09.51-.21,1.05l-.55,2.41h-1Z"/><path class="cls-3" d="M122.39,144.46a1.67,1.67,0,0,1,1.58-1.8c.93,0,1.42.67,1.42,1.63a2,2,0,0,1,0,.39h-2.18a1,1,0,0,0,1,1,1.45,1.45,0,0,0,.8-.25l.27.5a2.15,2.15,0,0,1-1.18.38A1.66,1.66,0,0,1,122.39,144.46Zm2.31-.33c0-.53-.24-.85-.71-.85a.86.86,0,0,0-.82.85Z"/><path class="cls-3" d="M127.56,142.74h.66l.07.37h0a1.66,1.66,0,0,1,1-.45c.86,0,1.35.69,1.35,1.75s-.7,1.86-1.47,1.86a1.38,1.38,0,0,1-.88-.38l0,.57v1.08h-.81Zm2.31,1.68c0-.69-.23-1.1-.75-1.1a1.1,1.1,0,0,0-.75.39v1.6a1.09,1.09,0,0,0,.69.29C129.52,145.6,129.87,145.19,129.87,144.42Z"/><path class="cls-3" d="M131.51,142.74h.66l.06.61h0a1.17,1.17,0,0,1,1-.69.82.82,0,0,1,.39.07l-.14.7a1,1,0,0,0-.35-.06c-.27,0-.6.19-.81.71v2.1h-.81Z"/><path class="cls-3" d="M133.83,144.46a1.64,1.64,0,1,1,1.63,1.81A1.66,1.66,0,0,1,133.83,144.46Zm2.44,0c0-.69-.3-1.14-.81-1.14s-.8.45-.8,1.14.3,1.15.8,1.15S136.27,145.15,136.27,144.46Z"/><path class="cls-3" d="M137.9,142.74h.66l.06.47h0a1.5,1.5,0,0,1,1.06-.55.94.94,0,0,1,1,.61,1.55,1.55,0,0,1,1.1-.61c.73,0,1.07.5,1.07,1.36v2.16H142v-2.05c0-.57-.17-.78-.53-.78a1,1,0,0,0-.72.43v2.4H140v-2.05c0-.57-.17-.78-.53-.78a1.08,1.08,0,0,0-.72.43v2.4h-.8Z"/><path class="cls-3" d="M143.57,144.46a1.64,1.64,0,1,1,1.64,1.81A1.67,1.67,0,0,1,143.57,144.46Zm2.44,0c0-.69-.3-1.14-.8-1.14s-.81.45-.81,1.14.3,1.15.81,1.15S146,145.15,146,144.46Z"/><path class="cls-3" d="M147.61,145v-1.64h-.49v-.6l.53,0,.09-.94h.67v.94h.88v.64h-.88V145c0,.4.16.6.49.6a1.35,1.35,0,0,0,.36-.07l.14.59a2.31,2.31,0,0,1-.71.13C147.9,146.27,147.61,145.76,147.61,145Z"/><path class="cls-3" d="M149.67,144.46a1.68,1.68,0,0,1,1.59-1.8c.93,0,1.42.67,1.42,1.63a1.87,1.87,0,0,1,0,.39h-2.18a1,1,0,0,0,1,1,1.43,1.43,0,0,0,.8-.25l.28.5a2.15,2.15,0,0,1-1.18.38A1.67,1.67,0,0,1,149.67,144.46Zm2.31-.33c0-.53-.23-.85-.7-.85a.87.87,0,0,0-.83.85Z"/><path class="cls-3" d="M153.38,143.33a.52.52,0,1,1,.52.54A.52.52,0,0,1,153.38,143.33Zm0,2.39a.52.52,0,1,1,.52.55A.53.53,0,0,1,153.38,145.72Z"/><polygon class="cls-11" points="126.16 154.41 122.77 152.93 122.77 154.41 126.16 154.41"/><polygon class="cls-11" points="126.16 154.41 122.77 155.88 122.77 154.41 126.16 154.41"/><polygon class="cls-11" points="126.16 162.41 122.77 160.93 122.77 162.41 126.16 162.41"/><polygon class="cls-11" points="126.16 162.41 122.77 163.88 122.77 162.41 126.16 162.41"/><polygon class="cls-11" points="126.16 170.41 122.77 168.93 122.77 170.41 126.16 170.41"/><polygon class="cls-11" points="126.16 170.41 122.77 171.88 122.77 170.41 126.16 170.41"/></svg>