<svg id="Layer_1" data-name="Layer 1" xmlns="http://www.w3.org/2000/svg" viewBox="0 0 408.83 262.75"><defs><style>.cls-1,.cls-15,.cls-16,.cls-21,.cls-6,.cls-7{fill:none;}.cls-1,.cls-13,.cls-15,.cls-16,.cls-9{stroke:#323e50;}.cls-1,.cls-13,.cls-15,.cls-16,.cls-18,.cls-21,.cls-6,.cls-7,.cls-9{stroke-miterlimit:10;}.cls-1{stroke-width:0.91px;}.cls-2{fill:#c78237;}.cls-3{fill:#1d1d1b;}.cls-4{fill:#626e7c;}.cls-5{fill:#72221c;}.cls-6,.cls-7{stroke:#fff;}.cls-7{stroke-width:0.5px;opacity:0.64;}.cls-8{fill:#a46c56;}.cls-19,.cls-9{fill:#f3f6f7;}.cls-13,.cls-15,.cls-16,.cls-9{stroke-width:0.86px;}.cls-10{fill:#c8cbcf;}.cls-11{fill:#36a9e1;}.cls-12{fill:#323e50;}.cls-13,.cls-18,.cls-23{fill:#fff;}.cls-14{fill:#e24030;}.cls-16{stroke-dasharray:1.72;}.cls-17{fill:#4298d3;}.cls-18{stroke:#c8cbcf;}.cls-20{opacity:0.5;}.cls-21{stroke:#879191;stroke-width:0.25px;}.cls-22{fill:#879191;}.cls-24{fill:#9eaaaa;}</style></defs><line class="cls-1" x1="82.62" y1="199.64" x2="378" y2="199.64"/><path class="cls-2" d="M91.68,168.71s.22,2.68-.35,3.29c-1.31,1.42-6.06,2.59-7.6,1.42-.81-.61-1.11-3.93-1.11-3.93l4.8-4.93Z"/><polygon class="cls-3" points="59.05 254.66 58.98 259.97 78.3 259.97 69.45 254.66 59.05 254.66"/><polygon class="cls-4" points="58.81 199.64 58.88 254.66 69.58 254.66 72.12 199.64 58.81 199.64"/><polygon class="cls-4" points="44.25 199.48 44.32 254.66 55.02 254.66 57.56 199.48 44.25 199.48"/><path class="cls-5" d="M41.68,146.07c0,1.51-.09,3-.13,4.53q-.16,5.91-.32,11.81c-.19,6.73.09,9,.09,12.34,0,.78,0-1.82,0,0-.11,3.82-10.51,20.76-10.61,24.59l29.73.2c6.92,0,26.94,3.4,27-1.81L73.33,174.91l.36-22S75,158,75.77,159.67c1.48,3.31,7,9.49,7,9.49l5.09-3.94s-2-4.37-3-7.5c-2.32-7.15-4.94-21.81-8.59-27.66-2.15-3.45-9.74-5.75-9.74-5.75H64.7l-.69,7-8.67-7c-.63-.51-6.55,1.92-7.32,2.26a20.86,20.86,0,0,0-6,3.81,15.92,15.92,0,0,0-4.09,7.24c-.83,2.71-1.95,5.86-1.36,8.64s3.45,4.44,7,5.33c8.23,2.07,17.17,1.63,25.8.88l-.07-6.73a92.41,92.41,0,0,1-18.46,6.82"/><path class="cls-2" d="M55.45,127.35V117a65.49,65.49,0,0,1-4.81-6.45c-1.18-2.26-3.22-9.68-3.22-9.68l26.73-9.45.93,1.15s1.75,16.2,0,21.21c-.74,2.09-3.36,6.5-5.54,6.91-1,.2-4.1.45-4.1.45L64.24,134Z"/><line class="cls-6" x1="64.1" y1="135.5" x2="64.1" y2="154.18"/><polygon class="cls-3" points="44.32 254.66 44.25 259.97 64.1 259.97 55.02 254.66 44.32 254.66"/><path class="cls-2" d="M67.48,153.93s2.17-2.47,3.18-2.49c2.36-.06,7.42,3.1,7.71,5.44.15,1.24-2.49,4.31-2.49,4.31h-8.4Z"/><path class="cls-7" d="M78.89,188.84l4.91,7.82a5.65,5.65,0,0,1-4.28,1.78c-5.33.26-8.81-.53-11.74-.69-6.58-.36-8.17-.57-17.44-.68-2.93,0-13.9-.25-16.19-.24L38,188.72"/><line class="cls-7" x1="45.28" y1="173.57" x2="70.57" y2="173.57"/><path class="cls-8" d="M55.91,109.35c-1.71.53-3.56-4.25-3.93-6a28.06,28.06,0,0,1,0-9.5C52.69,91.17,53.32,85,65.34,85,68.13,85,75,87,75,92.44c0,1.74-4,2.34-5.53,2.52A44.17,44.17,0,0,0,62,96.2c-1.35.49-3.62,3.68-4.36,4.91C56.32,103.31,58.37,108.6,55.91,109.35Z"/><circle class="cls-8" cx="61.22" cy="87.46" r="5.62"/><circle class="cls-8" cx="52.56" cy="91.27" r="5.62"/><circle class="cls-8" cx="49.14" cy="98.7" r="5.62"/><circle class="cls-8" cx="49.14" cy="106.53" r="5.62"/><circle class="cls-8" cx="45.94" cy="110.06" r="5.62"/><path class="cls-9" d="M312.76,141.19h27.8a2,2,0,0,1,2,2v53.86a0,0,0,0,1,0,0h-31.8a0,0,0,0,1,0,0V143.19A2,2,0,0,1,312.76,141.19Z"/><rect class="cls-10" x="316.87" y="148.69" width="19.58" height="3.84" rx="1"/><rect class="cls-10" x="316.87" y="155.8" width="19.58" height="3.84" rx="1"/><path class="cls-11" d="M329,183.51a2.29,2.29,0,1,1-2.29-2.29A2.3,2.3,0,0,1,329,183.51Z"/><rect class="cls-12" x="150.76" y="184.16" width="4.8" height="12.6"/><rect class="cls-9" x="107.55" y="124.6" width="91.7" height="63.62" rx="4"/><rect class="cls-13" x="111.87" y="128.53" width="82.58" height="50.28" rx="1"/><path class="cls-14" d="M116.5,131.79a1.12,1.12,0,1,1-1.12-1.12A1.12,1.12,0,0,1,116.5,131.79Z"/><line class="cls-15" x1="112.09" y1="134.71" x2="194.23" y2="134.71"/><rect class="cls-12" x="143.26" y="196.39" width="19.81" height="1.35"/><rect class="cls-12" x="255.46" y="183.87" width="4.8" height="12.6"/><rect class="cls-12" x="247.96" y="196.1" width="19.81" height="1.35"/><path class="cls-16" d="M259.49,128.24l5-3.88a41,41,0,0,0,15.79-36.24"/><path class="cls-16" d="M277.93,124.31l6.64-4.82c14.67-10.63,22.52-27.6,20.82-44.95l-.21-2.19"/><path class="cls-16" d="M250.68,128.24l-5-3.88a41,41,0,0,1-15.8-36.24"/><line class="cls-16" x1="254.69" y1="132.1" x2="254.69" y2="104.6"/><path class="cls-16" d="M232.94,124.6l-6.64-4.82c-14.67-10.64-22.53-27.6-20.83-44.95l.22-2.19"/><polygon class="cls-11" points="230.15 83.5 232.39 88.64 230.15 88.64 230.15 83.5"/><polygon class="cls-11" points="230.15 83.5 227.92 88.64 230.15 88.64 230.15 83.5"/><path class="cls-11" d="M184.6,67.22V59.4h2.31a3.69,3.69,0,0,1,1.84.46A3.22,3.22,0,0,1,190,61.17a4.24,4.24,0,0,1,.44,1.95v.39a4.14,4.14,0,0,1-.45,2,3.1,3.1,0,0,1-1.26,1.3,3.84,3.84,0,0,1-1.88.45ZM186,60.5v5.64h.89a2.06,2.06,0,0,0,1.64-.67,3,3,0,0,0,.58-1.92v-.44a3,3,0,0,0-.55-1.94,2,2,0,0,0-1.61-.67Z"/><path class="cls-11" d="M191.67,59.9a.68.68,0,0,1,.19-.5.72.72,0,0,1,.54-.2.74.74,0,0,1,.55.2.68.68,0,0,1,.19.5.66.66,0,0,1-.19.49.74.74,0,0,1-.55.2.72.72,0,0,1-.54-.2A.66.66,0,0,1,191.67,59.9Zm1.38,7.32h-1.3V61.41h1.3Z"/><path class="cls-11" d="M197.73,65.64a.6.6,0,0,0-.29-.53,3,3,0,0,0-.95-.32,4.52,4.52,0,0,1-1.11-.36,1.48,1.48,0,0,1-1-1.37,1.53,1.53,0,0,1,.63-1.25,2.51,2.51,0,0,1,1.62-.51,2.58,2.58,0,0,1,1.68.52,1.63,1.63,0,0,1,.64,1.34h-1.3a.84.84,0,0,0-.28-.63,1.07,1.07,0,0,0-.74-.25,1.22,1.22,0,0,0-.71.2.62.62,0,0,0-.27.53.54.54,0,0,0,.26.47,3.28,3.28,0,0,0,1,.33,4.87,4.87,0,0,1,1.2.41,1.65,1.65,0,0,1,.65.56,1.43,1.43,0,0,1,.21.79,1.48,1.48,0,0,1-.65,1.27,2.72,2.72,0,0,1-1.7.49,3,3,0,0,1-1.27-.26,2.12,2.12,0,0,1-.87-.71,1.65,1.65,0,0,1-.31-1h1.26a.92.92,0,0,0,.35.71,1.35,1.35,0,0,0,.86.25,1.32,1.32,0,0,0,.78-.19A.63.63,0,0,0,197.73,65.64Z"/><path class="cls-11" d="M202.54,66.29a1.2,1.2,0,0,0,.81-.29,1,1,0,0,0,.34-.7h1.23a1.88,1.88,0,0,1-.34,1,2.25,2.25,0,0,1-.86.75,2.58,2.58,0,0,1-1.17.27,2.47,2.47,0,0,1-1.93-.79,3.12,3.12,0,0,1-.72-2.18v-.14a3.09,3.09,0,0,1,.71-2.12,2.48,2.48,0,0,1,1.94-.8,2.37,2.37,0,0,1,1.69.61,2.16,2.16,0,0,1,.68,1.58h-1.23a1.2,1.2,0,0,0-.34-.82,1.1,1.1,0,0,0-.81-.32,1.14,1.14,0,0,0-1,.46,2.31,2.31,0,0,0-.35,1.39v.21a2.36,2.36,0,0,0,.34,1.41A1.16,1.16,0,0,0,202.54,66.29Z"/><path class="cls-11" d="M205.66,64.26a3.52,3.52,0,0,1,.34-1.54,2.55,2.55,0,0,1,.95-1,2.74,2.74,0,0,1,1.41-.37,2.57,2.57,0,0,1,1.91.76,3,3,0,0,1,.79,2v.31a3.44,3.44,0,0,1-.33,1.53,2.48,2.48,0,0,1-1,1,2.66,2.66,0,0,1-1.42.37,2.51,2.51,0,0,1-2-.82,3.15,3.15,0,0,1-.74-2.18Zm1.31.12a2.33,2.33,0,0,0,.37,1.4,1.2,1.2,0,0,0,1,.51,1.19,1.19,0,0,0,1-.52,2.63,2.63,0,0,0,.37-1.51,2.29,2.29,0,0,0-.38-1.39,1.28,1.28,0,0,0-2,0A2.54,2.54,0,0,0,207,64.38Z"/><path class="cls-11" d="M214.14,65.57l1.23-4.16h1.35l-2,5.81h-1.13l-2-5.81h1.35Z"/><path class="cls-11" d="M220,67.33a2.69,2.69,0,0,1-2-.78,2.86,2.86,0,0,1-.77-2.08v-.16a3.57,3.57,0,0,1,.33-1.56,2.6,2.6,0,0,1,1-1.07,2.5,2.5,0,0,1,1.35-.38,2.29,2.29,0,0,1,1.83.76,3.15,3.15,0,0,1,.65,2.14v.53h-3.8a1.76,1.76,0,0,0,.48,1.14,1.47,1.47,0,0,0,1.07.42,1.77,1.77,0,0,0,1.46-.73l.7.67a2.29,2.29,0,0,1-.93.81A3,3,0,0,1,220,67.33Zm-.16-5a1.1,1.1,0,0,0-.86.38,1.94,1.94,0,0,0-.42,1h2.48v-.09a1.54,1.54,0,0,0-.35-1A1.06,1.06,0,0,0,219.86,62.35Z"/><path class="cls-11" d="M226.41,62.6a3.19,3.19,0,0,0-.54,0,1.18,1.18,0,0,0-1.2.69v4h-1.31V61.41h1.25l0,.65A1.47,1.47,0,0,1,226,61.3a1.19,1.19,0,0,1,.46.08Z"/><path class="cls-11" d="M219.93,80.36a.93.93,0,0,0-.36-.79,4.25,4.25,0,0,0-1.31-.57,6.37,6.37,0,0,1-1.5-.63,2,2,0,0,1-1.07-1.75,1.9,1.9,0,0,1,.77-1.56,3.1,3.1,0,0,1,2-.61,3.36,3.36,0,0,1,1.45.3,2.43,2.43,0,0,1,1,.86,2.21,2.21,0,0,1,.36,1.23h-1.35a1.24,1.24,0,0,0-.38-1,1.61,1.61,0,0,0-1.1-.35,1.67,1.67,0,0,0-1,.29,1,1,0,0,0-.36.79.86.86,0,0,0,.39.72,4.64,4.64,0,0,0,1.31.56,6.06,6.06,0,0,1,1.47.62,2.28,2.28,0,0,1,.81.79,2.1,2.1,0,0,1,.26,1,1.88,1.88,0,0,1-.75,1.56,3.28,3.28,0,0,1-2,.57,3.78,3.78,0,0,1-1.56-.31,2.58,2.58,0,0,1-1.11-.87,2.19,2.19,0,0,1-.4-1.29h1.36a1.26,1.26,0,0,0,.44,1,1.92,1.92,0,0,0,1.27.37,1.67,1.67,0,0,0,1.06-.29A.92.92,0,0,0,219.93,80.36Z"/><path class="cls-11" d="M224.91,82.48a2.72,2.72,0,0,1-2-.78,2.84,2.84,0,0,1-.77-2.08v-.16a3.37,3.37,0,0,1,.34-1.55,2.49,2.49,0,0,1,2.29-1.45,2.28,2.28,0,0,1,1.84.76,3.18,3.18,0,0,1,.64,2.14v.52h-3.79a1.76,1.76,0,0,0,.48,1.14,1.43,1.43,0,0,0,1.06.42,1.77,1.77,0,0,0,1.46-.72l.7.67a2.29,2.29,0,0,1-.93.81A2.93,2.93,0,0,1,224.91,82.48Zm-.15-5a1.1,1.1,0,0,0-.87.37,1.94,1.94,0,0,0-.42,1.05H226v-.1a1.62,1.62,0,0,0-.35-1A1.11,1.11,0,0,0,224.76,77.51Z"/><path class="cls-11" d="M229.64,82.38h-1.3V74.13h1.3Z"/><path class="cls-11" d="M233.63,82.48a2.73,2.73,0,0,1-2-.78,2.84,2.84,0,0,1-.77-2.08v-.16a3.5,3.5,0,0,1,.34-1.55,2.52,2.52,0,0,1,.94-1.07,2.56,2.56,0,0,1,1.36-.38,2.26,2.26,0,0,1,1.83.76,3.18,3.18,0,0,1,.65,2.14v.52h-3.8a1.76,1.76,0,0,0,.48,1.14,1.43,1.43,0,0,0,1.06.42,1.76,1.76,0,0,0,1.46-.72l.71.67a2.38,2.38,0,0,1-.94.81A2.89,2.89,0,0,1,233.63,82.48Zm-.16-5a1.1,1.1,0,0,0-.87.37,1.94,1.94,0,0,0-.42,1.05h2.49v-.1a1.62,1.62,0,0,0-.35-1A1.11,1.11,0,0,0,233.47,77.51Z"/><path class="cls-11" d="M239.36,81.44a1.19,1.19,0,0,0,.81-.28,1,1,0,0,0,.34-.71h1.23a1.91,1.91,0,0,1-.34,1,2.15,2.15,0,0,1-.86.74,2.58,2.58,0,0,1-1.17.27,2.47,2.47,0,0,1-1.93-.79,3.1,3.1,0,0,1-.72-2.18v-.13a3.09,3.09,0,0,1,.71-2.12,2.45,2.45,0,0,1,1.94-.8,2.41,2.41,0,0,1,1.69.6,2.17,2.17,0,0,1,.68,1.59h-1.23a1.18,1.18,0,0,0-.34-.82,1.06,1.06,0,0,0-.81-.32,1.15,1.15,0,0,0-1,.45,2.35,2.35,0,0,0-.35,1.4v.21a2.36,2.36,0,0,0,.34,1.41A1.15,1.15,0,0,0,239.36,81.44Z"/><path class="cls-11" d="M244.36,75.15v1.42h1v1h-1v3.25a.76.76,0,0,0,.13.48.63.63,0,0,0,.48.14,1.73,1.73,0,0,0,.45-.05v1a3.3,3.3,0,0,1-.86.12c-1,0-1.5-.55-1.5-1.66V77.53h-1v-1h1V75.15Z"/><path class="cls-11" d="M252.08,90.82v5.23a2.55,2.55,0,0,1-.8,2A3.49,3.49,0,0,1,247,98a2.58,2.58,0,0,1-.79-2V90.82h1.36v5.23a1.7,1.7,0,0,0,.39,1.2,1.6,1.6,0,0,0,1.18.41q1.56,0,1.56-1.65V90.82Z"/><path class="cls-11" d="M256.66,97.06a.6.6,0,0,0-.29-.53,3,3,0,0,0-1-.32,4.67,4.67,0,0,1-1.11-.36,1.47,1.47,0,0,1-1-1.37,1.53,1.53,0,0,1,.63-1.25,2.5,2.5,0,0,1,1.61-.51,2.59,2.59,0,0,1,1.69.52,1.62,1.62,0,0,1,.64,1.33h-1.31a.77.77,0,0,0-.28-.62,1,1,0,0,0-.74-.25,1.18,1.18,0,0,0-.7.2.62.62,0,0,0-.27.53.55.55,0,0,0,.25.47,3.48,3.48,0,0,0,1,.33,4.87,4.87,0,0,1,1.2.41,1.65,1.65,0,0,1,.65.56,1.41,1.41,0,0,1,.21.79,1.5,1.5,0,0,1-.65,1.27,2.72,2.72,0,0,1-1.7.49,3,3,0,0,1-1.27-.26,2,2,0,0,1-.87-.71,1.65,1.65,0,0,1-.31-1h1.26a.94.94,0,0,0,.35.71,1.35,1.35,0,0,0,.86.25,1.32,1.32,0,0,0,.78-.2A.6.6,0,0,0,256.66,97.06Z"/><path class="cls-11" d="M261.64,98.75a2.69,2.69,0,0,1-2-.78,2.84,2.84,0,0,1-.77-2.09v-.16a3.53,3.53,0,0,1,.33-1.55,2.6,2.6,0,0,1,.95-1.07,2.5,2.5,0,0,1,1.35-.38,2.26,2.26,0,0,1,1.83.76,3.2,3.2,0,0,1,.65,2.14v.53h-3.8a1.76,1.76,0,0,0,.48,1.14,1.45,1.45,0,0,0,1.06.42,1.77,1.77,0,0,0,1.46-.73l.71.67a2.29,2.29,0,0,1-.93.81A3,3,0,0,1,261.64,98.75Zm-.16-5a1.08,1.08,0,0,0-.86.37,1.9,1.9,0,0,0-.43,1h2.49V95.1a1.59,1.59,0,0,0-.35-1A1.1,1.1,0,0,0,261.48,93.77Z"/><path class="cls-11" d="M270.92,80.56h-3l-.63,1.82h-1.41l2.95-7.82H270l3,7.82h-1.42Zm-2.65-1.1h2.27l-1.13-3.24Z"/><path class="cls-11" d="M273.49,79.43a3.42,3.42,0,0,1,.63-2.16,2,2,0,0,1,1.67-.81,1.89,1.89,0,0,1,1.49.64v-3h1.31v8.25H277.4l-.06-.6a1.92,1.92,0,0,1-1.56.7,2,2,0,0,1-1.65-.82A3.52,3.52,0,0,1,273.49,79.43Zm1.31.11a2.39,2.39,0,0,0,.34,1.38,1.09,1.09,0,0,0,1,.5,1.24,1.24,0,0,0,1.17-.71V78.23a1.21,1.21,0,0,0-1.16-.7,1.11,1.11,0,0,0-1,.5A2.68,2.68,0,0,0,274.8,79.54Z"/><path class="cls-11" d="M279.7,79.42a3.52,3.52,0,0,1,.34-1.54,2.43,2.43,0,0,1,.95-1,2.65,2.65,0,0,1,1.41-.37,2.53,2.53,0,0,1,1.91.76,3,3,0,0,1,.79,2v.31a3.48,3.48,0,0,1-.33,1.54,2.4,2.4,0,0,1-.95,1,2.66,2.66,0,0,1-1.42.37,2.53,2.53,0,0,1-2-.81,3.17,3.17,0,0,1-.74-2.19Zm1.31.11a2.29,2.29,0,0,0,.37,1.4,1.3,1.3,0,0,0,2.06,0,2.65,2.65,0,0,0,.37-1.51,2.33,2.33,0,0,0-.38-1.4,1.22,1.22,0,0,0-1-.51,1.2,1.2,0,0,0-1,.5A2.56,2.56,0,0,0,281,79.53Z"/><path class="cls-11" d="M291.3,79.53a3.43,3.43,0,0,1-.61,2.15,2,2,0,0,1-1.65.8,2,2,0,0,1-1.53-.62v2.75h-1.3v-8h1.2l.06.59a1.89,1.89,0,0,1,1.56-.7,2,2,0,0,1,1.67.79,3.57,3.57,0,0,1,.6,2.2Zm-1.3-.11a2.35,2.35,0,0,0-.35-1.38,1.12,1.12,0,0,0-1-.51,1.21,1.21,0,0,0-1.15.66v2.58a1.22,1.22,0,0,0,1.16.67,1.14,1.14,0,0,0,1-.5A2.69,2.69,0,0,0,290,79.42Z"/><path class="cls-11" d="M294,75.15v1.42h1v1h-1v3.25a.71.71,0,0,0,.13.48.6.6,0,0,0,.47.14,1.85,1.85,0,0,0,.46-.05v1a3.36,3.36,0,0,1-.86.12c-1,0-1.51-.55-1.51-1.66V77.53h-1v-1h1V75.15Z"/><path class="cls-11" d="M301.86,64.49a2.86,2.86,0,0,1-.92,2,3.14,3.14,0,0,1-2.14.7,3.08,3.08,0,0,1-1.65-.44,2.94,2.94,0,0,1-1.1-1.26,4.54,4.54,0,0,1-.4-1.9v-.73a4.59,4.59,0,0,1,.39-2,3,3,0,0,1,1.13-1.3,3.14,3.14,0,0,1,1.69-.45,3,3,0,0,1,2.08.7,2.87,2.87,0,0,1,.92,2h-1.35a2,2,0,0,0-.49-1.22,1.68,1.68,0,0,0-1.16-.37,1.58,1.58,0,0,0-1.36.65,3.24,3.24,0,0,0-.49,1.9v.69a3.39,3.39,0,0,0,.46,1.94,1.51,1.51,0,0,0,1.33.67,1.76,1.76,0,0,0,1.2-.36,1.86,1.86,0,0,0,.51-1.2Z"/><path class="cls-11" d="M303,59.71a.77.77,0,0,1,1.29-.5.69.69,0,0,1,.19.5.66.66,0,0,1-.19.49.86.86,0,0,1-1.1,0A.7.7,0,0,1,303,59.71ZM304.34,67H303V61.22h1.31Z"/><path class="cls-11" d="M307.39,59.81v1.41h1v1h-1v3.24a.67.67,0,0,0,.14.48.59.59,0,0,0,.47.15,2.3,2.3,0,0,0,.45,0v1a3.24,3.24,0,0,1-.86.12c-1,0-1.5-.55-1.5-1.66V62.19h-1v-1h1V59.81Z"/><path class="cls-11" d="M312,67.14a2.69,2.69,0,0,1-2-.78,2.81,2.81,0,0,1-.78-2.08v-.16a3.57,3.57,0,0,1,.34-1.56,2.55,2.55,0,0,1,.94-1.06,2.48,2.48,0,0,1,1.36-.39,2.29,2.29,0,0,1,1.83.76,3.23,3.23,0,0,1,.65,2.15v.52h-3.8a1.76,1.76,0,0,0,.48,1.14,1.45,1.45,0,0,0,1.06.42,1.74,1.74,0,0,0,1.46-.73l.71.68a2.44,2.44,0,0,1-.94.8A2.76,2.76,0,0,1,312,67.14Zm-.16-5a1.11,1.11,0,0,0-.87.38,1.94,1.94,0,0,0-.42,1.05H313v-.1a1.6,1.6,0,0,0-.35-1A1.07,1.07,0,0,0,311.82,62.16Z"/><polygon class="cls-11" points="305.18 68.25 302.94 73.4 305.18 73.4 305.18 68.25"/><polygon class="cls-11" points="305.18 68.25 307.41 73.4 305.18 73.4 305.18 68.25"/><polygon class="cls-11" points="280.01 83.5 277.77 88.64 280.01 88.64 280.01 83.5"/><polygon class="cls-11" points="280.01 83.5 282.25 88.64 280.01 88.64 280.01 83.5"/><polygon class="cls-11" points="254.58 100.51 252.35 105.65 254.58 105.65 254.58 100.51"/><polygon class="cls-11" points="254.58 100.51 256.82 105.65 254.58 105.65 254.58 100.51"/><rect class="cls-9" x="209.25" y="124.31" width="91.7" height="63.62" rx="4"/><rect class="cls-13" x="213.58" y="128.24" width="82.58" height="50.28" rx="1"/><g id="icon-server"><path class="cls-17" d="M238.32,159.71a9.62,9.62,0,0,1,1.22.08,7.37,7.37,0,0,1,1.07.24,2,2,0,0,1,.79.42.76.76,0,0,1,.29.58v4.62a.78.78,0,0,1-.29.59,2.35,2.35,0,0,1-.79.42,6.28,6.28,0,0,1-1.07.23,8.07,8.07,0,0,1-1.22.08,7.93,7.93,0,0,1-1.21-.08,6.62,6.62,0,0,1-1.08-.23,2.39,2.39,0,0,1-.78-.42.76.76,0,0,1-.3-.59V161a.74.74,0,0,1,.3-.58A2.07,2.07,0,0,1,236,160a7.84,7.84,0,0,1,1.08-.24A9.46,9.46,0,0,1,238.32,159.71Zm2.76,5.94v-1.51a4.1,4.1,0,0,1-1.21.39,9.31,9.31,0,0,1-3.1,0,3.76,3.76,0,0,1-1.2-.39v1.51a.29.29,0,0,0,.12.14,2.3,2.3,0,0,0,.35.17,3.26,3.26,0,0,0,.55.17,4.21,4.21,0,0,0,.77.13,7.33,7.33,0,0,0,1,.05,7.58,7.58,0,0,0,1-.05,4.54,4.54,0,0,0,.77-.13,3.86,3.86,0,0,0,.54-.17,1.63,1.63,0,0,0,.35-.17C241,165.73,241.07,165.69,241.08,165.65Zm0-2.31v-1.51a4.1,4.1,0,0,1-1.21.39,9.31,9.31,0,0,1-3.1,0,4,4,0,0,1-1.2-.39v1.51a.29.29,0,0,0,.12.14,2.3,2.3,0,0,0,.35.17,4.53,4.53,0,0,0,.55.17,5.3,5.3,0,0,0,.77.13,7.33,7.33,0,0,0,1,.05,7.58,7.58,0,0,0,1-.05,5.82,5.82,0,0,0,.77-.13,5,5,0,0,0,.54-.17,1.91,1.91,0,0,0,.35-.17c.08-.06.12-.1.13-.14Zm-2.76-3c-.33,0-.65,0-1,0s-.55.08-.76.13a3.86,3.86,0,0,0-.54.17,2.06,2.06,0,0,0-.36.17c-.08.06-.12.1-.13.14a.27.27,0,0,0,.13.14,2,2,0,0,0,.36.18,4,4,0,0,0,.54.16,5.65,5.65,0,0,0,.76.13,7.52,7.52,0,0,0,1,.05,7.33,7.33,0,0,0,1-.05,5.55,5.55,0,0,0,.77-.13,5,5,0,0,0,.54-.16,1.56,1.56,0,0,0,.35-.18c.08,0,.13-.1.14-.14s-.06-.08-.14-.14a1.63,1.63,0,0,0-.35-.17,5,5,0,0,0-.54-.17,7.61,7.61,0,0,0-.77-.13A9.61,9.61,0,0,0,238.32,160.37Z"/></g><g id="icon-server-2" data-name="icon-server"><path class="cls-17" d="M225.13,159.47a7.22,7.22,0,0,1,.82.05,4.62,4.62,0,0,1,.73.17,1.53,1.53,0,0,1,.54.28.54.54,0,0,1,.2.4v3.13a.54.54,0,0,1-.2.4,1.53,1.53,0,0,1-.54.28,3.74,3.74,0,0,1-.73.16,5.63,5.63,0,0,1-1.64,0,3.74,3.74,0,0,1-.73-.16,1.53,1.53,0,0,1-.54-.28.54.54,0,0,1-.2-.4v-3.13a.54.54,0,0,1,.2-.4,1.53,1.53,0,0,1,.54-.28,4.62,4.62,0,0,1,.73-.17A7.22,7.22,0,0,1,225.13,159.47Zm1.87,4v-1a2.93,2.93,0,0,1-.82.26,6.17,6.17,0,0,1-2.1,0,2.83,2.83,0,0,1-.82-.26v1a.15.15,0,0,0,.09.09,1,1,0,0,0,.23.12l.37.12.52.09q.32,0,.66,0t.66,0l.52-.09.37-.12a1,1,0,0,0,.23-.12A.15.15,0,0,0,227,163.5Zm0-1.57v-1a2.64,2.64,0,0,1-.82.26,6.17,6.17,0,0,1-2.1,0,2.55,2.55,0,0,1-.82-.26v1a.19.19,0,0,0,.09.1l.23.11a2.68,2.68,0,0,0,.37.12l.52.09q.32,0,.66,0t.66,0l.52-.09a2.68,2.68,0,0,0,.37-.12l.23-.11a.26.26,0,0,0,.09-.1Zm-1.87-2c-.23,0-.45,0-.65,0a4.23,4.23,0,0,0-.52.09,2.74,2.74,0,0,0-.37.11.88.88,0,0,0-.24.12.26.26,0,0,0-.09.1l.09.09a.88.88,0,0,0,.24.12,2.74,2.74,0,0,0,.37.11,2.91,2.91,0,0,0,.52.09c.2,0,.42,0,.65,0s.45,0,.65,0a2.91,2.91,0,0,0,.52-.09,2.74,2.74,0,0,0,.37-.11l.24-.12.09-.09a.26.26,0,0,0-.09-.1,1.33,1.33,0,0,0-.24-.12,2.74,2.74,0,0,0-.37-.11,4.23,4.23,0,0,0-.52-.09C225.58,159.93,225.36,159.92,225.13,159.92Z"/></g><g id="icon-server-3" data-name="icon-server"><path class="cls-17" d="M231,161.27a13,13,0,0,1,1.55.09,9.72,9.72,0,0,1,1.37.28,3,3,0,0,1,1,.5.87.87,0,0,1,.37.69v5.48a.9.9,0,0,1-.37.7,3,3,0,0,1-1,.49,8.49,8.49,0,0,1-1.37.28,13,13,0,0,1-1.55.1,12.88,12.88,0,0,1-1.55-.1,8.85,8.85,0,0,1-1.38-.28,2.92,2.92,0,0,1-1-.49.91.91,0,0,1-.38-.7v-5.48a.88.88,0,0,1,.38-.69,2.92,2.92,0,0,1,1-.5,10.18,10.18,0,0,1,1.38-.28A12.92,12.92,0,0,1,231,161.27Zm3.52,7v-1.78A5.32,5.32,0,0,1,233,167a11.51,11.51,0,0,1-2,.16,12.6,12.6,0,0,1-2-.16,5,5,0,0,1-1.54-.46v1.79c0,.05.06.1.16.16a2.28,2.28,0,0,0,.44.21,6.75,6.75,0,0,0,.7.2,8.58,8.58,0,0,0,1,.15,12.74,12.74,0,0,0,2.47,0,8.24,8.24,0,0,0,1-.15,6.1,6.1,0,0,0,.7-.2,3.33,3.33,0,0,0,.45-.21C234.47,168.41,234.53,168.35,234.54,168.3Zm0-2.73v-1.79a5.32,5.32,0,0,1-1.54.46,12.33,12.33,0,0,1-4,0,5,5,0,0,1-1.54-.46v1.79c0,.05.06.1.16.16a1.81,1.81,0,0,0,.44.21,6.75,6.75,0,0,0,.7.2,8.58,8.58,0,0,0,1,.15,12.74,12.74,0,0,0,2.47,0,8.24,8.24,0,0,0,1-.15,6.1,6.1,0,0,0,.7-.2,1.64,1.64,0,0,0,.44-.21c.1-.06.16-.12.17-.16ZM231,162.05a12.07,12.07,0,0,0-1.23.06,8,8,0,0,0-1,.15,6.1,6.1,0,0,0-.7.2,1.92,1.92,0,0,0-.45.21c-.1.06-.16.12-.17.16s.07.11.17.17a2.52,2.52,0,0,0,.45.2,4.58,4.58,0,0,0,.7.2,8,8,0,0,0,1,.15,9.7,9.7,0,0,0,1.23.07,9.43,9.43,0,0,0,1.22-.07,8.24,8.24,0,0,0,1-.15,5.35,5.35,0,0,0,.7-.2,2.52,2.52,0,0,0,.45-.2.44.44,0,0,0,.17-.17.44.44,0,0,0-.17-.16,1.92,1.92,0,0,0-.45-.21c-.21-.07-.44-.14-.7-.2a8.24,8.24,0,0,0-1-.15A11.73,11.73,0,0,0,231,162.05Z"/></g><path class="cls-3" d="M217.35,175.07v-5h1.47a2.26,2.26,0,0,1,1.17.3,2,2,0,0,1,.79.83,2.61,2.61,0,0,1,.28,1.24v.25a2.61,2.61,0,0,1-.28,1.24,2,2,0,0,1-.8.83,2.48,2.48,0,0,1-1.2.29Zm.86-4.28v3.59h.57a1.27,1.27,0,0,0,1-.43,1.83,1.83,0,0,0,.37-1.22v-.27a1.87,1.87,0,0,0-.35-1.24,1.23,1.23,0,0,0-1-.43Z"/><path class="cls-3" d="M224.05,175.07a1,1,0,0,1-.09-.35,1.3,1.3,0,0,1-1,.42,1.29,1.29,0,0,1-.9-.32,1,1,0,0,1-.36-.79,1,1,0,0,1,.44-.9,2.15,2.15,0,0,1,1.26-.32h.51v-.24a.63.63,0,0,0-.16-.46.62.62,0,0,0-.49-.17.71.71,0,0,0-.47.14.43.43,0,0,0-.18.36h-.83a1,1,0,0,1,.2-.57,1.37,1.37,0,0,1,.55-.42,1.94,1.94,0,0,1,.78-.15,1.53,1.53,0,0,1,1,.33,1.17,1.17,0,0,1,.4.92v1.67a1.93,1.93,0,0,0,.14.79v.06Zm-.91-.6a.93.93,0,0,0,.46-.12.73.73,0,0,0,.33-.32v-.7h-.45a1.25,1.25,0,0,0-.69.16.52.52,0,0,0-.24.46.5.5,0,0,0,.16.38A.65.65,0,0,0,223.14,174.47Z"/><path class="cls-3" d="M226.67,170.47v.9h.65V172h-.65v2.06a.52.52,0,0,0,.08.31.41.41,0,0,0,.3.09,1.36,1.36,0,0,0,.29,0v.64a2.14,2.14,0,0,1-.54.08c-.64,0-1-.35-1-1.06V172h-.61v-.62h.61v-.9Z"/><path class="cls-3" d="M230.17,175.07a1.25,1.25,0,0,1-.1-.35,1.28,1.28,0,0,1-1,.42,1.33,1.33,0,0,1-.91-.32,1,1,0,0,1-.35-.79,1,1,0,0,1,.44-.9,2.12,2.12,0,0,1,1.25-.32H230v-.24a.63.63,0,0,0-.16-.46.61.61,0,0,0-.49-.17.7.7,0,0,0-.46.14.43.43,0,0,0-.18.36h-.83a.9.9,0,0,1,.2-.57,1.31,1.31,0,0,1,.55-.42,1.92,1.92,0,0,1,.77-.15,1.54,1.54,0,0,1,1,.33,1.13,1.13,0,0,1,.39.92v1.67a1.93,1.93,0,0,0,.14.79v.06Zm-.92-.6a1,1,0,0,0,.47-.12A.76.76,0,0,0,230,174v-.7h-.44a1.32,1.32,0,0,0-.7.16.54.54,0,0,0-.23.46.46.46,0,0,0,.16.38A.63.63,0,0,0,229.25,174.47Z"/><path class="cls-3" d="M235,173.26a2.21,2.21,0,0,1-.39,1.37,1.23,1.23,0,0,1-1,.51,1.2,1.2,0,0,1-1-.47l0,.4h-.75v-5.25h.83v1.91a1.2,1.2,0,0,1,1-.43,1.25,1.25,0,0,1,1.06.51,2.22,2.22,0,0,1,.39,1.4Zm-.83-.07a1.61,1.61,0,0,0-.21-.91.71.71,0,0,0-.62-.3.78.78,0,0,0-.76.48V174a.79.79,0,0,0,.77.48.7.7,0,0,0,.6-.29,1.58,1.58,0,0,0,.22-.88Z"/><path class="cls-3" d="M237.89,175.07a1.88,1.88,0,0,1-.09-.35,1.3,1.3,0,0,1-1,.42,1.31,1.31,0,0,1-.91-.32,1,1,0,0,1-.35-.79,1,1,0,0,1,.44-.9,2.12,2.12,0,0,1,1.25-.32h.51v-.24a.63.63,0,0,0-.16-.46.62.62,0,0,0-.49-.17.68.68,0,0,0-.46.14.43.43,0,0,0-.18.36h-.83a.9.9,0,0,1,.2-.57,1.25,1.25,0,0,1,.55-.42,1.92,1.92,0,0,1,.77-.15,1.56,1.56,0,0,1,1,.33,1.16,1.16,0,0,1,.39.92v1.67a1.93,1.93,0,0,0,.14.79v.06Zm-.91-.6a.9.9,0,0,0,.46-.12.73.73,0,0,0,.33-.32v-.7h-.45a1.28,1.28,0,0,0-.69.16.52.52,0,0,0-.23.46.46.46,0,0,0,.16.38A.61.61,0,0,0,237,174.47Z"/><path class="cls-3" d="M241.54,174.06a.37.37,0,0,0-.18-.33,1.84,1.84,0,0,0-.6-.21,3.15,3.15,0,0,1-.71-.22.94.94,0,0,1-.62-.88,1,1,0,0,1,.4-.8,1.61,1.61,0,0,1,1-.32,1.68,1.68,0,0,1,1.08.33,1,1,0,0,1,.4.85h-.83a.54.54,0,0,0-.17-.4.73.73,0,0,0-.48-.15.74.74,0,0,0-.44.12.4.4,0,0,0-.17.34.33.33,0,0,0,.16.3,2.09,2.09,0,0,0,.65.21,2.89,2.89,0,0,1,.76.26,1.15,1.15,0,0,1,.42.35.92.92,0,0,1,.13.51,1,1,0,0,1-.41.81,1.76,1.76,0,0,1-1.09.31,1.92,1.92,0,0,1-.81-.17,1.37,1.37,0,0,1-.55-.45,1.07,1.07,0,0,1-.2-.62h.81a.58.58,0,0,0,.22.46.91.91,0,0,0,.54.16.85.85,0,0,0,.5-.13A.37.37,0,0,0,241.54,174.06Z"/><path class="cls-3" d="M244.71,175.14a1.74,1.74,0,0,1-1.28-.5,1.82,1.82,0,0,1-.49-1.32v-.11a2.15,2.15,0,0,1,.22-1,1.56,1.56,0,0,1,.6-.67,1.5,1.5,0,0,1,.86-.25,1.41,1.41,0,0,1,1.16.49,2,2,0,0,1,.42,1.36v.33h-2.42a1.09,1.09,0,0,0,.31.73.89.89,0,0,0,.67.27,1.13,1.13,0,0,0,.93-.47l.45.43a1.65,1.65,0,0,1-.59.52A1.92,1.92,0,0,1,244.71,175.14Zm-.1-3.17a.71.71,0,0,0-.55.24,1.25,1.25,0,0,0-.27.67h1.59v-.07a1.06,1.06,0,0,0-.23-.63A.7.7,0,0,0,244.61,172Z"/><path class="cls-3" d="M248.91,174.06a.37.37,0,0,0-.18-.33,1.82,1.82,0,0,0-.61-.21,3.22,3.22,0,0,1-.7-.22,1,1,0,0,1-.63-.88,1,1,0,0,1,.41-.8,1.61,1.61,0,0,1,1-.32,1.68,1.68,0,0,1,1.08.33,1,1,0,0,1,.4.85h-.83a.52.52,0,0,0-.18-.4.68.68,0,0,0-.47-.15.74.74,0,0,0-.44.12.41.41,0,0,0-.18.34.35.35,0,0,0,.16.3,2.29,2.29,0,0,0,.66.21,2.89,2.89,0,0,1,.76.26,1.15,1.15,0,0,1,.42.35.92.92,0,0,1,.13.51,1,1,0,0,1-.41.81,1.76,1.76,0,0,1-1.09.31,1.92,1.92,0,0,1-.81-.17,1.37,1.37,0,0,1-.55-.45,1.07,1.07,0,0,1-.2-.62h.81a.58.58,0,0,0,.22.46.91.91,0,0,0,.54.16.85.85,0,0,0,.5-.13A.37.37,0,0,0,248.91,174.06Z"/><path class="cls-3" d="M240.29,155.52v1.85h-.87v-5h1.91a1.93,1.93,0,0,1,1.32.44,1.59,1.59,0,0,1,0,2.29,2,2,0,0,1-1.34.4Zm0-.69h1a1,1,0,0,0,.7-.22.81.81,0,0,0,.24-.63.86.86,0,0,0-.24-.64,1,1,0,0,0-.68-.25h-1.06Z"/><path class="cls-3" d="M243.62,155.49a2.21,2.21,0,0,1,.21-1,1.53,1.53,0,0,1,.61-.67,1.65,1.65,0,0,1,.89-.24,1.63,1.63,0,0,1,1.22.48,1.9,1.9,0,0,1,.5,1.28v.2a2.24,2.24,0,0,1-.21,1,1.6,1.6,0,0,1-.6.66,1.68,1.68,0,0,1-.9.24,1.62,1.62,0,0,1-1.25-.52,2,2,0,0,1-.47-1.39Zm.83.07a1.52,1.52,0,0,0,.23.89.76.76,0,0,0,.66.32.73.73,0,0,0,.65-.32,1.62,1.62,0,0,0,.24-1,1.47,1.47,0,0,0-.24-.89.81.81,0,0,0-1.3,0A1.63,1.63,0,0,0,244.45,155.56Z"/><path class="cls-3" d="M248.64,157.37h-.83v-5.25h.83Z"/><path class="cls-3" d="M249.55,152.71a.42.42,0,0,1,.46-.44.48.48,0,0,1,.35.12.46.46,0,0,1,.13.32.42.42,0,0,1-.13.31.45.45,0,0,1-.35.13.42.42,0,0,1-.34-.13A.41.41,0,0,1,249.55,152.71Zm.88,4.66h-.83v-3.7h.83Z"/><path class="cls-3" d="M252.85,156.77a.77.77,0,0,0,.52-.18.65.65,0,0,0,.22-.44h.78a1.18,1.18,0,0,1-.22.64,1.3,1.3,0,0,1-.54.47,1.72,1.72,0,0,1-2-.32,2,2,0,0,1-.45-1.39v-.09a2,2,0,0,1,.45-1.35,1.56,1.56,0,0,1,1.23-.51,1.48,1.48,0,0,1,1.07.39,1.34,1.34,0,0,1,.44,1h-.78a.77.77,0,0,0-.22-.53.73.73,0,0,0-.52-.2.74.74,0,0,0-.62.29,1.46,1.46,0,0,0-.22.89v.13a1.57,1.57,0,0,0,.21.9A.73.73,0,0,0,252.85,156.77Z"/><path class="cls-3" d="M255,152.71a.45.45,0,0,1,.12-.32.48.48,0,0,1,.35-.12.45.45,0,0,1,.34.12.42.42,0,0,1,.13.32.39.39,0,0,1-.13.31.42.42,0,0,1-.34.13.45.45,0,0,1-.35-.13A.41.41,0,0,1,255,152.71Zm.88,4.66h-.83v-3.7h.83Z"/><path class="cls-3" d="M258.41,157.44a1.74,1.74,0,0,1-1.28-.5,1.82,1.82,0,0,1-.49-1.32v-.11a2.12,2.12,0,0,1,.22-1,1.56,1.56,0,0,1,.6-.67,1.5,1.5,0,0,1,.86-.25,1.44,1.44,0,0,1,1.16.48,2,2,0,0,1,.42,1.37v.33h-2.42a1.14,1.14,0,0,0,.31.73.88.88,0,0,0,.67.26,1.12,1.12,0,0,0,.93-.46l.45.43a1.53,1.53,0,0,1-.59.51A1.79,1.79,0,0,1,258.41,157.44Zm-.1-3.17a.71.71,0,0,0-.55.24,1.25,1.25,0,0,0-.27.66h1.59v-.06a1.06,1.06,0,0,0-.23-.63A.7.7,0,0,0,258.31,154.27Z"/><path class="cls-3" d="M262.61,156.36a.37.37,0,0,0-.18-.33,1.82,1.82,0,0,0-.61-.21,3,3,0,0,1-.7-.22,1,1,0,0,1-.63-.88,1,1,0,0,1,.41-.8,1.61,1.61,0,0,1,1-.32,1.65,1.65,0,0,1,1.07.33,1,1,0,0,1,.41.85h-.83a.52.52,0,0,0-.18-.4.68.68,0,0,0-.47-.16.74.74,0,0,0-.44.13.41.41,0,0,0-.18.34.35.35,0,0,0,.16.3,2.31,2.31,0,0,0,.65.21,2.85,2.85,0,0,1,.77.26,1.06,1.06,0,0,1,.42.35.92.92,0,0,1,.13.51,1,1,0,0,1-.41.81,1.83,1.83,0,0,1-1.09.31,1.92,1.92,0,0,1-.81-.17,1.37,1.37,0,0,1-.55-.45,1.09,1.09,0,0,1-.2-.62h.81a.58.58,0,0,0,.22.46.91.91,0,0,0,.54.16.85.85,0,0,0,.5-.13A.37.37,0,0,0,262.61,156.36Z"/><path class="cls-3" d="M263.42,173.86a.6.6,0,0,0-.24-.51,2.66,2.66,0,0,0-.83-.36,3.76,3.76,0,0,1-1-.4,1.26,1.26,0,0,1-.68-1.11,1.22,1.22,0,0,1,.49-1,2,2,0,0,1,1.27-.38,2.15,2.15,0,0,1,.93.19,1.54,1.54,0,0,1,.64.54,1.46,1.46,0,0,1,.23.79h-.86a.78.78,0,0,0-.25-.61,1,1,0,0,0-.7-.22,1.08,1.08,0,0,0-.66.18.61.61,0,0,0-.23.5.55.55,0,0,0,.25.46,2.88,2.88,0,0,0,.84.35,3.92,3.92,0,0,1,.93.4,1.39,1.39,0,0,1,.52.5,1.33,1.33,0,0,1,.16.67,1.17,1.17,0,0,1-.48,1,2,2,0,0,1-1.29.37,2.47,2.47,0,0,1-1-.2,1.72,1.72,0,0,1-.71-.55,1.44,1.44,0,0,1-.25-.82h.87a.78.78,0,0,0,.28.65,1.18,1.18,0,0,0,.8.23,1.08,1.08,0,0,0,.68-.18A.59.59,0,0,0,263.42,173.86Z"/><path class="cls-3" d="M266,170.54v.9h.65v.62H266v2.06a.52.52,0,0,0,.08.31.41.41,0,0,0,.3.09,1.36,1.36,0,0,0,.29,0v.64a2.14,2.14,0,0,1-.54.08c-.64,0-1-.35-1-1.06v-2.09h-.61v-.62h.61v-.9Z"/><path class="cls-3" d="M269.5,175.14a1.25,1.25,0,0,1-.1-.35,1.28,1.28,0,0,1-1,.42,1.33,1.33,0,0,1-.91-.32,1,1,0,0,1-.35-.79,1,1,0,0,1,.44-.9,2.12,2.12,0,0,1,1.25-.32h.51v-.24a.63.63,0,0,0-.16-.46.61.61,0,0,0-.49-.17.7.7,0,0,0-.46.14.43.43,0,0,0-.18.36h-.83a.9.9,0,0,1,.2-.57,1.31,1.31,0,0,1,.55-.42,1.92,1.92,0,0,1,.77-.15,1.54,1.54,0,0,1,1,.33,1.13,1.13,0,0,1,.39.92v1.67a1.93,1.93,0,0,0,.14.79v.06Zm-.92-.6a1,1,0,0,0,.47-.12.76.76,0,0,0,.32-.32v-.7h-.44a1.32,1.32,0,0,0-.7.16.54.54,0,0,0-.23.46.46.46,0,0,0,.16.38A.63.63,0,0,0,268.58,174.54Z"/><path class="cls-3" d="M271.85,171.44l0,.43a1.33,1.33,0,0,1,1.08-.5c.77,0,1.16.44,1.17,1.33v2.44h-.83v-2.4a.79.79,0,0,0-.15-.52.66.66,0,0,0-.5-.17.82.82,0,0,0-.75.46v2.63h-.83v-3.7Z"/><path class="cls-3" d="M274.81,173.26a2.17,2.17,0,0,1,.4-1.37,1.28,1.28,0,0,1,1.06-.52,1.22,1.22,0,0,1,1,.41v-1.89h.83v5.25h-.75l0-.38a1.23,1.23,0,0,1-1,.45,1.29,1.29,0,0,1-1.05-.52A2.36,2.36,0,0,1,274.81,173.26Zm.83.08a1.53,1.53,0,0,0,.22.88.7.7,0,0,0,.62.31.78.78,0,0,0,.74-.45V172.5a.77.77,0,0,0-.74-.45.72.72,0,0,0-.62.32A1.81,1.81,0,0,0,275.64,173.34Z"/><path class="cls-3" d="M281.13,175.14a1.25,1.25,0,0,1-.1-.35,1.28,1.28,0,0,1-1,.42,1.33,1.33,0,0,1-.91-.32,1,1,0,0,1-.35-.79,1,1,0,0,1,.44-.9,2.13,2.13,0,0,1,1.26-.32h.5v-.24a.63.63,0,0,0-.16-.46.6.6,0,0,0-.48-.17.71.71,0,0,0-.47.14.43.43,0,0,0-.18.36h-.83a1,1,0,0,1,.2-.57,1.37,1.37,0,0,1,.55-.42,1.92,1.92,0,0,1,.77-.15,1.54,1.54,0,0,1,1,.33,1.17,1.17,0,0,1,.4.92v1.67a1.94,1.94,0,0,0,.13.79v.06Zm-.91-.6a1,1,0,0,0,.46-.12.76.76,0,0,0,.32-.32v-.7h-.44a1.32,1.32,0,0,0-.7.16.54.54,0,0,0-.23.46.46.46,0,0,0,.16.38A.65.65,0,0,0,280.22,174.54Z"/><path class="cls-3" d="M284.64,172.2a1.87,1.87,0,0,0-.34,0,.77.77,0,0,0-.77.44v2.53h-.83v-3.7h.8l0,.42a.93.93,0,0,1,.83-.49.76.76,0,0,1,.29,0Z"/><path class="cls-3" d="M285,173.26a2.23,2.23,0,0,1,.39-1.37,1.3,1.3,0,0,1,1.07-.52,1.23,1.23,0,0,1,.95.41v-1.89h.83v5.25h-.76l0-.38a1.23,1.23,0,0,1-1,.45,1.29,1.29,0,0,1-1-.52A2.29,2.29,0,0,1,285,173.26Zm.83.08a1.61,1.61,0,0,0,.21.88.71.71,0,0,0,.62.31.79.79,0,0,0,.75-.45V172.5a.78.78,0,0,0-.74-.45.7.7,0,0,0-.62.32A1.72,1.72,0,0,0,285.78,173.34Z"/><path class="cls-3" d="M291.13,174.14a.38.38,0,0,0-.19-.34,1.84,1.84,0,0,0-.6-.21,3.15,3.15,0,0,1-.71-.22.94.94,0,0,1-.62-.88,1,1,0,0,1,.4-.8,1.62,1.62,0,0,1,1-.32,1.67,1.67,0,0,1,1.07.33,1,1,0,0,1,.41.85h-.84a.51.51,0,0,0-.17-.4.72.72,0,0,0-.47-.15.75.75,0,0,0-.45.12.4.4,0,0,0-.17.34.33.33,0,0,0,.16.3,2.09,2.09,0,0,0,.65.21,2.89,2.89,0,0,1,.76.26,1.08,1.08,0,0,1,.42.36.87.87,0,0,1,.13.5,1,1,0,0,1-.41.81,1.75,1.75,0,0,1-1.08.31,1.86,1.86,0,0,1-.81-.17,1.26,1.26,0,0,1-.56-.45,1.07,1.07,0,0,1-.2-.62h.81a.62.62,0,0,0,.22.46.92.92,0,0,0,.55.16.9.9,0,0,0,.5-.13A.39.39,0,0,0,291.13,174.14Z"/><path class="cls-14" d="M217.73,132a1.12,1.12,0,1,1-1.12-1.12A1.12,1.12,0,0,1,217.73,132Z"/><line class="cls-15" x1="214.32" y1="134.93" x2="296.46" y2="134.93"/><polygon class="cls-11" points="205.69 68.54 207.92 73.68 205.69 73.68 205.69 68.54"/><polygon class="cls-11" points="205.69 68.54 203.45 73.68 205.69 73.68 205.69 68.54"/><path class="cls-18" d="M268.37,168.09a.25.25,0,0,1-.26.24h-7.28a.26.26,0,0,1-.27-.24v-9.78a.26.26,0,0,1,.27-.24h7.28a.25.25,0,0,1,.26.24Z"/><path class="cls-19" d="M268.37,168.09a.25.25,0,0,1-.26.24h-7.28a.26.26,0,0,1-.27-.24v-9.78a.26.26,0,0,1,.27-.24h7.28a.25.25,0,0,1,.26.24Z"/><path class="cls-19" d="M268.1,167.76a.24.24,0,0,1-.24.23H261a.24.24,0,0,1-.25-.23v-9.12a.24.24,0,0,1,.25-.23h6.83a.24.24,0,0,1,.24.23Z"/><rect class="cls-10" x="261.75" y="160.33" width="5.16" height="0.82"/><rect class="cls-10" x="261.75" y="161.91" width="3.41" height="0.82"/><rect class="cls-10" x="261.75" y="163.46" width="5.73" height="0.82"/><rect class="cls-10" x="261.75" y="165.08" width="3.41" height="0.82"/><path class="cls-11" d="M264.44,161.18a2,2,0,1,0,2,2A2,2,0,0,0,264.44,161.18Zm1.17,1.49-1.46,1.46a.07.07,0,0,1-.09,0l-.79-.78a.09.09,0,0,1,0-.1l.31-.3a.07.07,0,0,1,.1,0l.38.37a.06.06,0,0,0,.09,0l1.06-1a.07.07,0,0,1,.09,0l.31.31A.06.06,0,0,1,265.61,162.67Z"/><path class="cls-19" d="M265.61,162.67l-1.46,1.46a.07.07,0,0,1-.09,0l-.79-.78a.09.09,0,0,1,0-.1l.31-.31a.09.09,0,0,1,.1,0l.38.38a.06.06,0,0,0,.09,0l1.06-1a.07.07,0,0,1,.09,0l.31.31A.06.06,0,0,1,265.61,162.67Z"/><path class="cls-18" d="M292.1,168.28a.26.26,0,0,1-.27.25h-7.32a.26.26,0,0,1-.27-.25v-9.83a.26.26,0,0,1,.27-.25h7.32a.26.26,0,0,1,.27.25Z"/><path class="cls-19" d="M292.1,168.28a.26.26,0,0,1-.27.25h-7.32a.26.26,0,0,1-.27-.25v-9.83a.26.26,0,0,1,.27-.25h7.32a.26.26,0,0,1,.27.25Z"/><g class="cls-20"><rect class="cls-10" x="285.04" y="160.21" width="1.83" height="0.92"/></g><g class="cls-20"><rect class="cls-10" x="285.04" y="161.54" width="1.83" height="0.92"/></g><g class="cls-20"><rect class="cls-10" x="285.04" y="162.87" width="1.83" height="0.92"/></g><g class="cls-20"><rect class="cls-10" x="285.04" y="164.2" width="1.83" height="0.92"/></g><g class="cls-20"><rect class="cls-10" x="285.04" y="165.53" width="1.83" height="0.92"/></g><rect class="cls-10" x="287.4" y="160.21" width="1.83" height="0.92"/><rect class="cls-10" x="287.4" y="161.54" width="1.83" height="0.92"/><rect class="cls-10" x="287.4" y="162.87" width="1.83" height="0.92"/><rect class="cls-10" x="287.4" y="164.2" width="1.83" height="0.92"/><rect class="cls-10" x="287.4" y="165.53" width="1.83" height="0.92"/><g class="cls-20"><rect class="cls-10" x="289.76" y="160.21" width="1.83" height="0.92"/></g><g class="cls-20"><rect class="cls-10" x="289.76" y="161.54" width="1.83" height="0.92"/></g><g class="cls-20"><rect class="cls-10" x="289.76" y="162.87" width="1.83" height="0.92"/></g><g class="cls-20"><rect class="cls-10" x="289.76" y="164.2" width="1.83" height="0.92"/></g><g class="cls-20"><rect class="cls-10" x="289.76" y="165.53" width="1.83" height="0.92"/></g><path class="cls-11" d="M291.51,165.05v-1.23h-2a.13.13,0,0,1-.13-.13v-1.18a.13.13,0,0,1,.13-.13h2v-1.23c0-.07.05-.09.1-.05L294.1,163a.08.08,0,0,1,0,.14l-2.48,1.93c-.05,0-.1,0-.1,0"/><path class="cls-18" d="M285.71,168.77a.29.29,0,0,1-.31.28H277a.29.29,0,0,1-.31-.28V157.5a.3.3,0,0,1,.31-.28h8.38a.3.3,0,0,1,.31.28Z"/><path class="cls-19" d="M285.71,168.77a.29.29,0,0,1-.31.28H277a.29.29,0,0,1-.31-.28V157.5a.3.3,0,0,1,.31-.28h8.38a.3.3,0,0,1,.31.28Z"/><path class="cls-11" d="M279.62,161.51a.31.31,0,0,1,.1-.24.45.45,0,0,1,.28-.1.41.41,0,0,1,.28.1.29.29,0,0,1,.11.24.3.3,0,0,1-.11.25.41.41,0,0,1-.28.1.45.45,0,0,1-.28-.1A.32.32,0,0,1,279.62,161.51Zm.74,2.83h-.7v-2.25h.7Z"/><path class="cls-11" d="M280.82,164.34v-3h1a1.48,1.48,0,0,1,.72.18,1.27,1.27,0,0,1,.49.51,1.43,1.43,0,0,1,.19.74v.14a1.54,1.54,0,0,1-.18.75,1.27,1.27,0,0,1-.49.51,1.35,1.35,0,0,1-.71.19Zm.73-2.46v1.9h.25a.59.59,0,0,0,.49-.22,1.12,1.12,0,0,0,.16-.67v-.13a1.11,1.11,0,0,0-.16-.66.59.59,0,0,0-.49-.22Z"/><polyline class="cls-21" points="282.11 159.86 284.33 159.86 284.33 161.36 284.33 161.78"/><polyline class="cls-21" points="278.11 162.08 278.11 159.86 279.62 159.86 280.03 159.86"/><polyline class="cls-21" points="280.34 165.85 278.11 165.85 278.11 164.35 278.11 163.93"/><polyline class="cls-21" points="284.33 163.63 284.33 165.85 282.83 165.85 282.41 165.85"/><path class="cls-18" d="M276,168.81a.29.29,0,0,1-.31.28h-8.38a.29.29,0,0,1-.31-.28V157.54a.3.3,0,0,1,.31-.28h8.38a.3.3,0,0,1,.31.28Z"/><path class="cls-19" d="M276,168.81a.29.29,0,0,1-.31.28h-8.38a.29.29,0,0,1-.31-.28V157.54a.3.3,0,0,1,.31-.28h8.38a.3.3,0,0,1,.31.28Z"/><path class="cls-11" d="M273,162.62V162a.84.84,0,0,0-.87-.87h-.5c-.36,0-.39-.17-.39-.26v-.71a.61.61,0,0,0,.36-.56.61.61,0,1,0-.84.56v.71c0,.06,0,.26-.4.26h-.5a.84.84,0,0,0-.87.87v.58a.61.61,0,0,0-.37.56.61.61,0,1,0,1.21,0,.62.62,0,0,0-.36-.56V162a.37.37,0,0,1,.39-.39h.5a1.16,1.16,0,0,0,.4-.06v1a.61.61,0,0,0-.37.56.61.61,0,1,0,1.21,0,.62.62,0,0,0-.36-.56v-1a1.07,1.07,0,0,0,.39.06h.5a.36.36,0,0,1,.39.39v.58a.62.62,0,0,0-.36.56.61.61,0,1,0,1.21,0A.61.61,0,0,0,273,162.62Zm-3.42.56a.35.35,0,1,1-.35-.35A.35.35,0,0,1,269.61,163.18Zm1.07-3.54a.35.35,0,0,1,.35-.35.35.35,0,0,1,.35.35.35.35,0,0,1-.35.35A.34.34,0,0,1,270.68,159.64Zm.7,3.54a.35.35,0,0,1-.35.35.35.35,0,1,1,0-.7A.35.35,0,0,1,271.38,163.18Zm1.41.35a.35.35,0,0,1,0-.7.35.35,0,0,1,0,.7Z"/><path class="cls-22" d="M274.8,166.15v-.58a.85.85,0,0,0-.88-.87h-.5c-.36,0-.39-.17-.39-.26v-.71a.61.61,0,0,0,.36-.56.61.61,0,1,0-.84.56v.71c0,.06,0,.26-.39.26h-.51a.84.84,0,0,0-.87.87v.58a.6.6,0,0,0-.37.56.61.61,0,0,0,.61.6.6.6,0,0,0,.24-1.16v-.58a.37.37,0,0,1,.39-.39h.51a1.14,1.14,0,0,0,.39-.06v1a.6.6,0,1,0,.84.56.61.61,0,0,0-.36-.56v-1a1.14,1.14,0,0,0,.39.06h.5a.38.38,0,0,1,.4.39v.58a.6.6,0,1,0,.84.56A.61.61,0,0,0,274.8,166.15Zm-3.43.56a.35.35,0,0,1-.7,0,.35.35,0,0,1,.7,0Zm1.07-3.54a.35.35,0,1,1,.7,0,.35.35,0,1,1-.7,0Zm.7,3.54a.35.35,0,1,1-.7,0,.35.35,0,1,1,.7,0Zm1.42.35a.35.35,0,0,1-.35-.35.34.34,0,0,1,.35-.35.35.35,0,0,1,.35.35A.35.35,0,0,1,274.56,167.06Z"/><path class="cls-23" d="M257.21,151.08a.37.37,0,0,1-.39.35H246.23a.38.38,0,0,1-.39-.35V136.84a.38.38,0,0,1,.39-.35h10.59a.37.37,0,0,1,.39.35Z"/><path class="cls-10" d="M256.82,151.57H246.23a.51.51,0,0,1-.53-.49V136.84a.51.51,0,0,1,.53-.49h10.59a.51.51,0,0,1,.53.49v14.24A.51.51,0,0,1,256.82,151.57Zm-10.59-14.94a.23.23,0,0,0-.25.21v14.24a.23.23,0,0,0,.25.21h10.59a.23.23,0,0,0,.25-.21V136.84a.23.23,0,0,0-.25-.21Z"/><path class="cls-19" d="M257.21,151.08a.37.37,0,0,1-.39.35H246.23a.38.38,0,0,1-.39-.35V136.84a.38.38,0,0,1,.39-.35h10.59a.37.37,0,0,1,.39.35Z"/><path class="cls-14" d="M256.3,149.27a1,1,0,1,1-1-1A1,1,0,0,1,256.3,149.27Z"/><path class="cls-14" d="M255.3,150.75a1.48,1.48,0,1,1,1.48-1.48A1.49,1.49,0,0,1,255.3,150.75Zm0-2.68a1.21,1.21,0,1,0,1.2,1.2A1.21,1.21,0,0,0,255.3,148.07Z"/><rect class="cls-10" x="247.69" y="140.28" width="7.42" height="1.11"/><rect class="cls-10" x="247.69" y="142.28" width="5.74" height="1.11"/><rect class="cls-10" x="247.69" y="144.27" width="3.4" height="1.11"/><rect class="cls-10" x="252.25" y="144.22" width="3.4" height="1.11"/><rect class="cls-10" x="247.69" y="146.27" width="5.74" height="1.11"/><rect class="cls-11" x="247.69" y="138.57" width="5.32" height="0.88"/><path class="cls-23" d="M244.71,150.13a.31.31,0,0,1-.31.3h-8.73a.31.31,0,0,1-.32-.3V138.41a.3.3,0,0,1,.32-.29h8.73a.3.3,0,0,1,.31.29Z"/><path class="cls-19" d="M244.71,150.13a.31.31,0,0,1-.31.3h-8.73a.31.31,0,0,1-.32-.3V138.41a.3.3,0,0,1,.32-.29h8.73a.3.3,0,0,1,.31.29Z"/><path class="cls-14" d="M244,148.65a.83.83,0,0,1-1.66,0,.83.83,0,0,1,1.66,0Z"/><path class="cls-14" d="M243.14,149.84a1.2,1.2,0,1,1,1.19-1.19A1.19,1.19,0,0,1,243.14,149.84Zm0-2.21a1,1,0,1,0,0,2,1,1,0,0,0,0-2Z"/><rect class="cls-10" x="236.87" y="141.34" width="6.11" height="0.72"/><rect class="cls-10" x="236.87" y="142.98" width="2.8" height="0.72"/><rect class="cls-10" x="236.87" y="144.62" width="2.8" height="0.72"/><rect class="cls-10" x="236.87" y="146.27" width="4.72" height="0.72"/><rect class="cls-24" x="236.87" y="139.84" width="4.38" height="0.72"/><path class="cls-19" d="M267.87,150.13a.31.31,0,0,1-.32.3h-8.72a.31.31,0,0,1-.32-.3V138.41a.3.3,0,0,1,.32-.29h8.72a.3.3,0,0,1,.32.29Z"/><path class="cls-14" d="M267.12,148.65a.83.83,0,1,1-.82-.83A.83.83,0,0,1,267.12,148.65Z"/><path class="cls-14" d="M266.3,149.84a1.2,1.2,0,1,1,1.19-1.19A1.19,1.19,0,0,1,266.3,149.84Zm0-2.21a1,1,0,1,0,0,2,1,1,0,0,0,0-2Z"/><rect class="cls-10" x="260.03" y="141.34" width="6.11" height="0.72"/><rect class="cls-10" x="260.03" y="142.98" width="4.72" height="0.72"/><rect class="cls-10" x="260.03" y="144.62" width="3.16" height="0.72"/><rect class="cls-10" x="263.17" y="146.27" width="1.68" height="0.72"/><rect class="cls-10" x="260.03" y="146.27" width="2.19" height="0.72"/><rect class="cls-22" x="260.03" y="139.84" width="4.38" height="0.72"/><circle class="cls-8" cx="39.01" cy="115.08" r="3.53"/><path class="cls-3" d="M130.09,155.5a1.36,1.36,0,0,1-.65.46,2.66,2.66,0,0,1-.93.16,1.77,1.77,0,0,1-.95-.25,1.62,1.62,0,0,1-.63-.69,2.51,2.51,0,0,1-.24-1.06v-.33a2.24,2.24,0,0,1,.47-1.51,1.56,1.56,0,0,1,1.29-.55,1.68,1.68,0,0,1,1.13.36,1.47,1.47,0,0,1,.5,1h-.72a.83.83,0,0,0-.9-.77.89.89,0,0,0-.76.36,1.81,1.81,0,0,0-.26,1.05v.33a1.68,1.68,0,0,0,.29,1.07.94.94,0,0,0,.81.38,1.08,1.08,0,0,0,.81-.25v-.84h-.88v-.56h1.62Z"/><path class="cls-3" d="M130.7,154.44a1.92,1.92,0,0,1,.18-.84,1.44,1.44,0,0,1,.52-.57,1.5,1.5,0,0,1,.77-.2,1.4,1.4,0,0,1,1,.41,1.61,1.61,0,0,1,.43,1.1v.16a1.73,1.73,0,0,1-.18.84,1.23,1.23,0,0,1-.51.57,1.45,1.45,0,0,1-.78.21,1.37,1.37,0,0,1-1.07-.45,1.71,1.71,0,0,1-.4-1.19Zm.71.06a1.31,1.31,0,0,0,.2.77.65.65,0,0,0,.56.28.69.69,0,0,0,.57-.28,1.47,1.47,0,0,0,.2-.83,1.25,1.25,0,0,0-.21-.76.7.7,0,0,0-1.12,0A1.42,1.42,0,0,0,131.41,154.5Z"/><path class="cls-3" d="M134.11,154.44a1.92,1.92,0,0,1,.19-.84,1.31,1.31,0,0,1,.52-.57,1.49,1.49,0,0,1,.76-.2,1.42,1.42,0,0,1,1,.41,1.66,1.66,0,0,1,.43,1.1v.16a1.86,1.86,0,0,1-.18.84,1.25,1.25,0,0,1-.52.57,1.41,1.41,0,0,1-.77.21,1.35,1.35,0,0,1-1.07-.45,1.72,1.72,0,0,1-.41-1.19Zm.72.06a1.24,1.24,0,0,0,.2.77.64.64,0,0,0,.56.28.66.66,0,0,0,.56-.28,1.47,1.47,0,0,0,.2-.83,1.32,1.32,0,0,0-.2-.76.67.67,0,0,0-.57-.28.64.64,0,0,0-.55.28A1.34,1.34,0,0,0,134.83,154.5Z"/><path class="cls-3" d="M137.53,154.45a1.88,1.88,0,0,1,.34-1.18,1.1,1.1,0,0,1,.91-.44,1.06,1.06,0,0,1,.82.35v-1.62h.71v4.5h-.65l0-.33a1.06,1.06,0,0,1-.86.39,1.08,1.08,0,0,1-.9-.45A2,2,0,0,1,137.53,154.45Zm.71.06a1.32,1.32,0,0,0,.19.76.6.6,0,0,0,.53.27.68.68,0,0,0,.64-.39v-1.36a.69.69,0,0,0-.64-.38.59.59,0,0,0-.53.28A1.4,1.4,0,0,0,138.24,154.51Z"/><path class="cls-3" d="M142.41,154.45a1.88,1.88,0,0,1,.34-1.18,1.1,1.1,0,0,1,.91-.44,1.06,1.06,0,0,1,.82.35v-1.62h.71v4.5h-.65l0-.33a1,1,0,0,1-.85.39,1.06,1.06,0,0,1-.9-.45A1.9,1.9,0,0,1,142.41,154.45Zm.71.06a1.32,1.32,0,0,0,.19.76.6.6,0,0,0,.53.27.68.68,0,0,0,.64-.39v-1.36a.68.68,0,0,0-.64-.38.59.59,0,0,0-.53.28A1.4,1.4,0,0,0,143.12,154.51Z"/><path class="cls-3" d="M147.82,156.06a1.51,1.51,0,0,1-.08-.3,1.18,1.18,0,0,1-1.61.08.86.86,0,0,1-.3-.67.88.88,0,0,1,.38-.78,1.82,1.82,0,0,1,1.07-.27h.44v-.21a.56.56,0,0,0-.14-.39.54.54,0,0,0-.42-.15.65.65,0,0,0-.4.12.39.39,0,0,0-.15.31h-.71a.79.79,0,0,1,.17-.49,1.06,1.06,0,0,1,.47-.35,1.59,1.59,0,0,1,.66-.13,1.32,1.32,0,0,1,.89.28,1,1,0,0,1,.34.79v1.43a1.63,1.63,0,0,0,.12.68v.05Zm-.78-.52a.82.82,0,0,0,.4-.1.73.73,0,0,0,.28-.27v-.6h-.38a1.06,1.06,0,0,0-.6.14.45.45,0,0,0-.2.39.42.42,0,0,0,.14.32A.52.52,0,0,0,147,155.54Z"/><path class="cls-3" d="M150.07,152.12v.77h.56v.53h-.56v1.76a.4.4,0,0,0,.07.27.35.35,0,0,0,.26.08l.25,0v.55a2.06,2.06,0,0,1-.47.07c-.55,0-.82-.31-.82-.91v-1.79h-.52v-.53h.52v-.77Z"/><path class="cls-3" d="M153.07,156.06a1,1,0,0,1-.09-.3,1.18,1.18,0,0,1-1.61.08.86.86,0,0,1-.3-.67.91.91,0,0,1,.38-.78,1.82,1.82,0,0,1,1.07-.27H153v-.21a.56.56,0,0,0-.14-.39.54.54,0,0,0-.42-.15.61.61,0,0,0-.39.12.37.37,0,0,0-.16.31h-.71a.86.86,0,0,1,.17-.49,1.12,1.12,0,0,1,.47-.35,1.59,1.59,0,0,1,.66-.13,1.3,1.3,0,0,1,.89.28,1,1,0,0,1,.34.79v1.43a1.63,1.63,0,0,0,.12.68v.05Zm-.79-.52a.79.79,0,0,0,.4-.1.73.73,0,0,0,.28-.27v-.6h-.38a1.06,1.06,0,0,0-.6.14.45.45,0,0,0-.2.39.42.42,0,0,0,.14.32A.52.52,0,0,0,152.28,155.54Z"/><path class="cls-3" d="M156.58,152.89l0,.33a1.14,1.14,0,0,1,.92-.39.88.88,0,0,1,.87.49,1.11,1.11,0,0,1,1-.49,1,1,0,0,1,.78.29,1.25,1.25,0,0,1,.26.85v2.09h-.71V154a.64.64,0,0,0-.13-.45.61.61,0,0,0-.44-.14.66.66,0,0,0-.4.13.7.7,0,0,0-.21.34v2.18h-.71V154a.51.51,0,0,0-.57-.56.63.63,0,0,0-.61.35v2.3h-.71v-3.17Z"/><path class="cls-3" d="M163,156.06a1.38,1.38,0,0,1-.09-.3,1.18,1.18,0,0,1-1.61.08.86.86,0,0,1-.3-.67.91.91,0,0,1,.38-.78,1.82,1.82,0,0,1,1.07-.27h.44v-.21a.52.52,0,0,0-.14-.39.54.54,0,0,0-.42-.15.61.61,0,0,0-.39.12.37.37,0,0,0-.16.31h-.71a.86.86,0,0,1,.17-.49,1.12,1.12,0,0,1,.47-.35,1.6,1.6,0,0,1,.67-.13,1.29,1.29,0,0,1,.88.28,1,1,0,0,1,.34.79v1.43a1.63,1.63,0,0,0,.12.68v.05Zm-.79-.52a.77.77,0,0,0,.4-.1.73.73,0,0,0,.28-.27v-.6h-.38a1.08,1.08,0,0,0-.6.14.45.45,0,0,0-.2.39.42.42,0,0,0,.14.32A.52.52,0,0,0,162.24,155.54Z"/><path class="cls-3" d="M165,152.89l0,.36a1.13,1.13,0,0,1,.92-.42c.66,0,1,.38,1,1.13v2.1h-.71V154a.66.66,0,0,0-.13-.44.55.55,0,0,0-.43-.15.68.68,0,0,0-.64.39v2.26h-.71v-3.17Z"/><path class="cls-3" d="M169.61,156.06a1,1,0,0,1-.08-.3,1.11,1.11,0,0,1-.83.36,1.08,1.08,0,0,1-.78-.28.87.87,0,0,1-.31-.67.91.91,0,0,1,.38-.78,1.83,1.83,0,0,1,1.08-.27h.43v-.21a.49.49,0,0,0-.55-.54.63.63,0,0,0-.4.12.4.4,0,0,0-.16.31h-.71a.86.86,0,0,1,.17-.49,1.15,1.15,0,0,1,.48-.35,1.53,1.53,0,0,1,.66-.13,1.32,1.32,0,0,1,.89.28,1,1,0,0,1,.34.79v1.43a1.63,1.63,0,0,0,.12.68v.05Zm-.78-.52a.76.76,0,0,0,.39-.1.67.67,0,0,0,.28-.27v-.6h-.38a1,1,0,0,0-.59.14.43.43,0,0,0-.2.39.41.41,0,0,0,.13.32A.55.55,0,0,0,168.83,155.54Z"/><path class="cls-3" d="M170.84,154.45a1.86,1.86,0,0,1,.34-1.18,1.14,1.14,0,0,1,.93-.44,1.05,1.05,0,0,1,.85.38l0-.32h.64V156a1.28,1.28,0,0,1-.39,1,1.46,1.46,0,0,1-1,.36,1.68,1.68,0,0,1-.69-.15,1.23,1.23,0,0,1-.5-.38l.34-.43a1,1,0,0,0,.81.39.79.79,0,0,0,.56-.19.75.75,0,0,0,.2-.56v-.22a1,1,0,0,1-.82.35,1.11,1.11,0,0,1-.91-.45A1.87,1.87,0,0,1,170.84,154.45Zm.71.06a1.26,1.26,0,0,0,.19.75.64.64,0,0,0,.54.28.7.7,0,0,0,.64-.37v-1.4a.67.67,0,0,0-.63-.36.62.62,0,0,0-.55.28A1.44,1.44,0,0,0,171.55,154.51Z"/><path class="cls-3" d="M175.76,156.12a1.5,1.5,0,0,1-1.1-.43,1.54,1.54,0,0,1-.42-1.14v-.08a1.93,1.93,0,0,1,.18-.85,1.47,1.47,0,0,1,.52-.58,1.36,1.36,0,0,1,.74-.21,1.27,1.27,0,0,1,1,.41,1.79,1.79,0,0,1,.35,1.17v.29H175a1,1,0,0,0,.26.62.8.8,0,0,0,.58.23,1,1,0,0,0,.8-.4l.38.37a1.28,1.28,0,0,1-.51.44A1.65,1.65,0,0,1,175.76,156.12Zm-.09-2.72a.59.59,0,0,0-.47.21,1,1,0,0,0-.23.57h1.36v-.06a.94.94,0,0,0-.19-.54A.61.61,0,0,0,175.67,153.4Z"/><path class="cls-3" d="M178.25,152.89l0,.33a1.16,1.16,0,0,1,.92-.39.88.88,0,0,1,.87.49,1.11,1.11,0,0,1,1-.49,1,1,0,0,1,.78.29,1.25,1.25,0,0,1,.26.85v2.09h-.71V154a.64.64,0,0,0-.13-.45.59.59,0,0,0-.44-.14.61.61,0,0,0-.39.13.65.65,0,0,0-.22.34v2.18h-.71V154a.51.51,0,0,0-.57-.56.63.63,0,0,0-.61.35v2.3h-.71v-3.17Z"/><path class="cls-3" d="M184.2,156.12a1.5,1.5,0,0,1-1.1-.43,1.54,1.54,0,0,1-.42-1.14v-.08a1.93,1.93,0,0,1,.18-.85,1.47,1.47,0,0,1,.52-.58,1.36,1.36,0,0,1,.74-.21,1.27,1.27,0,0,1,1,.41,1.79,1.79,0,0,1,.35,1.17v.29H183.4a1,1,0,0,0,.26.62.8.8,0,0,0,.58.23,1,1,0,0,0,.8-.4l.38.37a1.28,1.28,0,0,1-.51.44A1.65,1.65,0,0,1,184.2,156.12Zm-.09-2.72a.59.59,0,0,0-.47.21,1,1,0,0,0-.23.57h1.36v-.06a.94.94,0,0,0-.19-.54A.61.61,0,0,0,184.11,153.4Z"/><path class="cls-3" d="M186.68,152.89l0,.36a1.17,1.17,0,0,1,.93-.42c.66,0,1,.38,1,1.13v2.1h-.72V154a.61.61,0,0,0-.13-.44.52.52,0,0,0-.42-.15.7.7,0,0,0-.65.39v2.26H186v-3.17Z"/><path class="cls-3" d="M190.25,152.12v.77h.56v.53h-.56v1.76a.46.46,0,0,0,.07.27.37.37,0,0,0,.26.08,1.07,1.07,0,0,0,.25,0v.55a2,2,0,0,1-.47.07c-.55,0-.82-.31-.82-.91v-1.79H189v-.53h.52v-.77Z"/><path class="cls-3" d="M128.38,162.42h-.82v1.64h-.74v-4.27h1.5a1.76,1.76,0,0,1,1.14.33,1.35,1.35,0,0,1,.19,1.68,1.3,1.3,0,0,1-.58.44l1,1.78v0h-.79Zm-.82-.6h.76a.81.81,0,0,0,.58-.19.65.65,0,0,0,.22-.52.71.71,0,0,0-.2-.53.82.82,0,0,0-.58-.19h-.78Z"/><path class="cls-3" d="M131.89,164.12a1.5,1.5,0,0,1-1.1-.43,1.54,1.54,0,0,1-.42-1.14v-.08a1.93,1.93,0,0,1,.18-.85,1.4,1.4,0,0,1,.52-.58,1.32,1.32,0,0,1,.73-.21,1.27,1.27,0,0,1,1,.41,1.79,1.79,0,0,1,.35,1.17v.29h-2.07a1,1,0,0,0,.26.62.8.8,0,0,0,.58.23.94.94,0,0,0,.79-.4l.39.37a1.28,1.28,0,0,1-.51.44A1.65,1.65,0,0,1,131.89,164.12Zm-.09-2.72a.59.59,0,0,0-.47.21,1,1,0,0,0-.23.57h1.36v-.06a.88.88,0,0,0-.2-.54A.59.59,0,0,0,131.8,161.4Z"/><path class="cls-3" d="M136.49,162.5a1.84,1.84,0,0,1-.34,1.18,1.07,1.07,0,0,1-.89.44,1.09,1.09,0,0,1-.84-.35v1.51h-.71v-4.39h.66l0,.32a1.07,1.07,0,0,1,.86-.38,1.08,1.08,0,0,1,.91.43,1.94,1.94,0,0,1,.33,1.2Zm-.71-.06a1.3,1.3,0,0,0-.19-.75.61.61,0,0,0-.54-.28.66.66,0,0,0-.63.36v1.41a.67.67,0,0,0,.63.37.61.61,0,0,0,.54-.28A1.52,1.52,0,0,0,135.78,162.44Z"/><path class="cls-3" d="M138.75,161.54a1.43,1.43,0,0,0-.29,0,.65.65,0,0,0-.66.38v2.17h-.71v-3.17h.68v.35a.82.82,0,0,1,.72-.41.62.62,0,0,1,.25,0Z"/><path class="cls-3" d="M139,162.44a1.92,1.92,0,0,1,.18-.84,1.44,1.44,0,0,1,.52-.57,1.52,1.52,0,0,1,.77-.2,1.4,1.4,0,0,1,1,.41,1.61,1.61,0,0,1,.43,1.1v.16a1.86,1.86,0,0,1-.18.84,1.31,1.31,0,0,1-.52.57,1.41,1.41,0,0,1-.77.21,1.38,1.38,0,0,1-1.08-.45,1.71,1.71,0,0,1-.4-1.19Zm.71.06a1.31,1.31,0,0,0,.2.77.67.67,0,0,0,.57.28.67.67,0,0,0,.56-.28,1.47,1.47,0,0,0,.2-.83,1.25,1.25,0,0,0-.21-.76.65.65,0,0,0-.56-.28.63.63,0,0,0-.55.28A1.34,1.34,0,0,0,139.67,162.5Z"/><path class="cls-3" d="M142.38,162.45a1.88,1.88,0,0,1,.34-1.18,1.09,1.09,0,0,1,.91-.44,1.05,1.05,0,0,1,.81.35v-1.62h.71v4.5h-.64l0-.33a1,1,0,0,1-.85.39,1.08,1.08,0,0,1-.9-.45A2,2,0,0,1,142.38,162.45Zm.71.06a1.4,1.4,0,0,0,.18.76.61.61,0,0,0,.53.27.67.67,0,0,0,.64-.39v-1.36a.66.66,0,0,0-.63-.38.61.61,0,0,0-.54.28A1.49,1.49,0,0,0,143.09,162.51Z"/><path class="cls-3" d="M147.82,163.75a1.13,1.13,0,0,1-.89.37,1,1,0,0,1-.79-.31,1.31,1.31,0,0,1-.26-.87v-2.05h.71v2c0,.41.17.61.5.61a.7.7,0,0,0,.7-.38v-2.27h.71v3.17h-.67Z"/><path class="cls-3" d="M150.53,163.55a.6.6,0,0,0,.44-.16.52.52,0,0,0,.19-.38h.67a1.09,1.09,0,0,1-.18.55,1.25,1.25,0,0,1-.47.41,1.4,1.4,0,0,1-.64.15,1.37,1.37,0,0,1-1-.43,1.72,1.72,0,0,1-.39-1.19v-.08a1.67,1.67,0,0,1,.38-1.16,1.34,1.34,0,0,1,1.06-.43,1.31,1.31,0,0,1,.92.33,1.16,1.16,0,0,1,.37.86h-.67a.65.65,0,0,0-.18-.44.67.67,0,0,0-1,.07,1.23,1.23,0,0,0-.19.76v.12a1.29,1.29,0,0,0,.18.76A.65.65,0,0,0,150.53,163.55Z"/><path class="cls-3" d="M152.37,160.06a.39.39,0,0,1,.11-.27.37.37,0,0,1,.29-.11.41.41,0,0,1,.3.11.39.39,0,0,1,.11.27.37.37,0,0,1-.11.27.41.41,0,0,1-.3.11.38.38,0,0,1-.4-.38Zm.76,4h-.71v-3.17h.71Z"/><path class="cls-3" d="M156.68,162.5a1.9,1.9,0,0,1-.33,1.18,1.06,1.06,0,0,1-.9.44,1,1,0,0,1-.87-.41l0,.35h-.65v-4.5h.71v1.63a1,1,0,0,1,.83-.36,1.07,1.07,0,0,1,.91.43,1.94,1.94,0,0,1,.33,1.2Zm-.71-.06a1.35,1.35,0,0,0-.18-.77.61.61,0,0,0-.53-.26.67.67,0,0,0-.65.41v1.3a.68.68,0,0,0,.66.42.61.61,0,0,0,.51-.25,1.23,1.23,0,0,0,.19-.76Z"/><path class="cls-3" d="M158,164.06h-.71v-4.5H158Z"/><path class="cls-3" d="M160.21,164.12a1.5,1.5,0,0,1-1.1-.43,1.54,1.54,0,0,1-.42-1.14v-.08a1.93,1.93,0,0,1,.18-.85,1.47,1.47,0,0,1,.52-.58,1.33,1.33,0,0,1,.74-.21,1.27,1.27,0,0,1,1,.41,1.79,1.79,0,0,1,.35,1.17v.29h-2.07a1,1,0,0,0,.26.62.8.8,0,0,0,.58.23,1,1,0,0,0,.8-.4l.38.37a1.28,1.28,0,0,1-.51.44A1.65,1.65,0,0,1,160.21,164.12Zm-.09-2.72a.59.59,0,0,0-.47.21,1,1,0,0,0-.23.57h1.36v-.06a.94.94,0,0,0-.19-.54A.63.63,0,0,0,160.12,161.4Z"/><path class="cls-3" d="M165.19,161.54a1.43,1.43,0,0,0-.29,0,.65.65,0,0,0-.66.38v2.17h-.72v-3.17h.68l0,.35a.81.81,0,0,1,.72-.41.62.62,0,0,1,.25,0Z"/><path class="cls-3" d="M167,164.12a1.48,1.48,0,0,1-1.1-.43,1.54,1.54,0,0,1-.42-1.14v-.08a1.93,1.93,0,0,1,.18-.85,1.39,1.39,0,0,1,1.25-.79,1.24,1.24,0,0,1,1,.41,1.74,1.74,0,0,1,.36,1.17v.29h-2.07a.91.91,0,0,0,.26.62.78.78,0,0,0,.58.23.94.94,0,0,0,.79-.4l.39.37a1.28,1.28,0,0,1-.51.44A1.65,1.65,0,0,1,167,164.12Zm-.09-2.72a.59.59,0,0,0-.47.21,1,1,0,0,0-.23.57h1.35v-.06a.82.82,0,0,0-.19-.54A.59.59,0,0,0,166.89,161.4Z"/><path class="cls-3" d="M170.58,163.2a.32.32,0,0,0-.16-.29,1.61,1.61,0,0,0-.52-.18,2.75,2.75,0,0,1-.61-.19.81.81,0,0,1-.53-.75.87.87,0,0,1,.35-.69,1.37,1.37,0,0,1,.87-.27,1.4,1.4,0,0,1,.92.28.88.88,0,0,1,.35.73h-.71a.43.43,0,0,0-.15-.34.6.6,0,0,0-.41-.14.66.66,0,0,0-.38.11.34.34,0,0,0-.15.29.3.3,0,0,0,.14.26,1.89,1.89,0,0,0,.56.18,2.41,2.41,0,0,1,.66.22,1,1,0,0,1,.35.3.78.78,0,0,1,.12.44.83.83,0,0,1-.36.69,1.47,1.47,0,0,1-.93.27,1.67,1.67,0,0,1-.69-.14,1.33,1.33,0,0,1-.48-.39,1,1,0,0,1-.17-.53h.7a.49.49,0,0,0,.19.39.72.72,0,0,0,.46.13.74.74,0,0,0,.43-.1A.35.35,0,0,0,170.58,163.2Z"/><path class="cls-3" d="M173.29,164.12a1.46,1.46,0,0,1-1.09-.43,1.51,1.51,0,0,1-.43-1.14v-.08a1.93,1.93,0,0,1,.19-.85,1.37,1.37,0,0,1,.51-.58,1.36,1.36,0,0,1,.74-.21,1.27,1.27,0,0,1,1,.41,1.74,1.74,0,0,1,.35,1.17v.29h-2.07a1,1,0,0,0,.26.62.82.82,0,0,0,.58.23,1,1,0,0,0,.8-.4l.38.37a1.19,1.19,0,0,1-.5.44A1.69,1.69,0,0,1,173.29,164.12Zm-.08-2.72a.6.6,0,0,0-.48.21,1.07,1.07,0,0,0-.23.57h1.36v-.06a.88.88,0,0,0-.19-.54A.6.6,0,0,0,173.21,161.4Z"/><path class="cls-3" d="M177,164.06a1,1,0,0,1-.08-.3,1.11,1.11,0,0,1-.83.36,1.08,1.08,0,0,1-.78-.28.87.87,0,0,1-.31-.67.91.91,0,0,1,.38-.78,1.83,1.83,0,0,1,1.08-.27h.43v-.21a.56.56,0,0,0-.13-.39.54.54,0,0,0-.42-.15.63.63,0,0,0-.4.12.4.4,0,0,0-.16.31h-.71a.8.8,0,0,1,.18-.49,1.06,1.06,0,0,1,.47-.35,1.53,1.53,0,0,1,.66-.13,1.32,1.32,0,0,1,.89.28,1,1,0,0,1,.34.79v1.43a1.63,1.63,0,0,0,.12.68v.05Zm-.78-.52a.76.76,0,0,0,.39-.1.67.67,0,0,0,.28-.27v-.6h-.38a1,1,0,0,0-.59.14.43.43,0,0,0-.2.39.41.41,0,0,0,.13.32A.55.55,0,0,0,176.23,163.54Z"/><path class="cls-3" d="M180,161.54a1.36,1.36,0,0,0-.29,0,.67.67,0,0,0-.66.38v2.17h-.71v-3.17H179l0,.35a.81.81,0,0,1,.71-.41.6.6,0,0,1,.25,0Z"/><path class="cls-3" d="M181.72,163.55a.61.61,0,0,0,.44-.16.52.52,0,0,0,.19-.38H183a1,1,0,0,1-.19.55,1.22,1.22,0,0,1-.46.41,1.4,1.4,0,0,1-.64.15,1.38,1.38,0,0,1-1.06-.43,1.72,1.72,0,0,1-.39-1.19v-.08a1.68,1.68,0,0,1,.39-1.16,1.34,1.34,0,0,1,1.05-.43,1.28,1.28,0,0,1,.92.33,1.17,1.17,0,0,1,.38.86h-.67a.62.62,0,0,0-.19-.44.57.57,0,0,0-.44-.18.64.64,0,0,0-.54.25,1.39,1.39,0,0,0-.19.76v.12a1.28,1.28,0,0,0,.19.76A.62.62,0,0,0,181.72,163.55Z"/><path class="cls-3" d="M184.26,161.23a1.1,1.1,0,0,1,.88-.4c.68,0,1,.38,1,1.16v2.07h-.71V162a.59.59,0,0,0-.15-.46.56.56,0,0,0-.41-.14.69.69,0,0,0-.64.38v2.27h-.71v-4.5h.71Z"/><path class="cls-3" d="M130.22,170a2.57,2.57,0,0,1-.22,1.1,1.62,1.62,0,0,1-.62.72,1.68,1.68,0,0,1-.92.26,1.71,1.71,0,0,1-.93-.26,1.62,1.62,0,0,1-.62-.72,2.45,2.45,0,0,1-.23-1.08v-.24a2.54,2.54,0,0,1,.22-1.1,1.68,1.68,0,0,1,.63-.73,1.65,1.65,0,0,1,.92-.26,1.73,1.73,0,0,1,.92.25,1.71,1.71,0,0,1,.63.72,2.7,2.7,0,0,1,.22,1.1Zm-.74-.23a1.83,1.83,0,0,0-.27-1.08.94.94,0,0,0-1.51,0,1.86,1.86,0,0,0-.28,1.06V170a1.78,1.78,0,0,0,.28,1.08.93.93,0,0,0,1.51,0,1.85,1.85,0,0,0,.27-1.09Z"/><path class="cls-3" d="M133.67,170.5a1.9,1.9,0,0,1-.34,1.18,1.15,1.15,0,0,1-1.73.09v1.51h-.71v-4.39h.65l0,.32a1.07,1.07,0,0,1,.86-.38,1.08,1.08,0,0,1,.91.43,1.94,1.94,0,0,1,.33,1.2Zm-.71-.06a1.39,1.39,0,0,0-.19-.75.61.61,0,0,0-.54-.28.66.66,0,0,0-.63.36v1.41a.67.67,0,0,0,.63.37.59.59,0,0,0,.53-.28A1.43,1.43,0,0,0,133,170.44Z"/><path class="cls-3" d="M135.66,172.12a1.48,1.48,0,0,1-1.09-.43,1.54,1.54,0,0,1-.42-1.14v-.08a1.93,1.93,0,0,1,.18-.85,1.37,1.37,0,0,1,.51-.58,1.36,1.36,0,0,1,.74-.21,1.25,1.25,0,0,1,1,.41,1.74,1.74,0,0,1,.35,1.17v.29h-2.07a1,1,0,0,0,.27.62.78.78,0,0,0,.57.23,1,1,0,0,0,.8-.4l.39.37a1.28,1.28,0,0,1-.51.44A1.69,1.69,0,0,1,135.66,172.12Zm-.08-2.72a.57.57,0,0,0-.47.21.93.93,0,0,0-.23.57h1.35v-.06a.88.88,0,0,0-.19-.54A.59.59,0,0,0,135.58,169.4Z"/><path class="cls-3" d="M138.15,168.89l0,.36a1.13,1.13,0,0,1,.92-.42c.66,0,1,.38,1,1.13v2.1h-.71V170a.66.66,0,0,0-.13-.44.55.55,0,0,0-.43-.15.68.68,0,0,0-.64.39v2.26h-.71v-3.17Z"/><path class="cls-3" d="M144.1,171.2a.32.32,0,0,0-.16-.29,1.61,1.61,0,0,0-.52-.18,2.59,2.59,0,0,1-.61-.19.81.81,0,0,1-.53-.75.86.86,0,0,1,.34-.69,1.61,1.61,0,0,1,1.8,0,.9.9,0,0,1,.35.73h-.71a.43.43,0,0,0-.15-.34.6.6,0,0,0-.41-.14.66.66,0,0,0-.38.11.34.34,0,0,0-.15.29.3.3,0,0,0,.14.26,1.89,1.89,0,0,0,.56.18,2.22,2.22,0,0,1,.65.22,1,1,0,0,1,.36.3.78.78,0,0,1,.12.44.83.83,0,0,1-.36.69,1.51,1.51,0,0,1-.93.27,1.67,1.67,0,0,1-.69-.14,1.25,1.25,0,0,1-.48-.39,1,1,0,0,1-.17-.53h.69a.52.52,0,0,0,.19.39.77.77,0,0,0,.47.13.74.74,0,0,0,.43-.1A.35.35,0,0,0,144.1,171.2Z"/><path class="cls-3" d="M146.72,171.55a.63.63,0,0,0,.44-.16.52.52,0,0,0,.19-.38H148a1,1,0,0,1-.19.55,1.18,1.18,0,0,1-.47.41,1.36,1.36,0,0,1-.63.15,1.38,1.38,0,0,1-1.06-.43,1.72,1.72,0,0,1-.39-1.19v-.08a1.68,1.68,0,0,1,.39-1.16,1.34,1.34,0,0,1,1.05-.43,1.28,1.28,0,0,1,.92.33,1.17,1.17,0,0,1,.38.86h-.67a.62.62,0,0,0-.19-.44.59.59,0,0,0-.44-.18.64.64,0,0,0-.54.25,1.39,1.39,0,0,0-.19.76v.12a1.22,1.22,0,0,0,.19.76A.62.62,0,0,0,146.72,171.55Z"/><path class="cls-3" d="M149.26,169.23a1.1,1.1,0,0,1,.88-.4c.67,0,1,.38,1,1.16v2.07h-.71V170a.59.59,0,0,0-.15-.46.56.56,0,0,0-.41-.14.69.69,0,0,0-.64.38v2.27h-.71v-4.5h.71Z"/><path class="cls-3" d="M151.75,170.44a1.79,1.79,0,0,1,.19-.84,1.31,1.31,0,0,1,.52-.57,1.46,1.46,0,0,1,.76-.2,1.42,1.42,0,0,1,1.05.41,1.66,1.66,0,0,1,.43,1.1v.16a1.86,1.86,0,0,1-.18.84,1.25,1.25,0,0,1-.52.57,1.41,1.41,0,0,1-.77.21,1.35,1.35,0,0,1-1.07-.45,1.72,1.72,0,0,1-.41-1.19Zm.72.06a1.24,1.24,0,0,0,.2.77.64.64,0,0,0,.56.28.66.66,0,0,0,.56-.28,1.47,1.47,0,0,0,.2-.83,1.32,1.32,0,0,0-.2-.76.67.67,0,0,0-.57-.28.64.64,0,0,0-.55.28A1.34,1.34,0,0,0,152.47,170.5Z"/><path class="cls-3" d="M156.06,172.06h-.71v-4.5h.71Z"/><path class="cls-3" d="M158.73,172.06a1,1,0,0,1-.08-.3,1.12,1.12,0,0,1-.84.36,1.07,1.07,0,0,1-.77-.28.84.84,0,0,1-.31-.67.91.91,0,0,1,.38-.78,1.83,1.83,0,0,1,1.08-.27h.43v-.21a.56.56,0,0,0-.13-.39.57.57,0,0,0-.42-.15.62.62,0,0,0-.4.12.37.37,0,0,0-.16.31h-.71a.86.86,0,0,1,.17-.49,1.19,1.19,0,0,1,.47-.35,1.6,1.6,0,0,1,.67-.13,1.34,1.34,0,0,1,.89.28,1,1,0,0,1,.34.79v1.43a1.63,1.63,0,0,0,.12.68v.05Zm-.78-.52a.76.76,0,0,0,.39-.1.67.67,0,0,0,.28-.27v-.6h-.38a1.11,1.11,0,0,0-.6.14.44.44,0,0,0-.19.39.41.41,0,0,0,.13.32A.53.53,0,0,0,158,171.54Z"/><path class="cls-3" d="M161.74,169.54a1.36,1.36,0,0,0-.29,0,.65.65,0,0,0-.66.38v2.17h-.71v-3.17h.68l0,.35a.81.81,0,0,1,.71-.41.6.6,0,0,1,.25,0Z"/><path class="cls-3" d="M164,171.2a.32.32,0,0,0-.16-.29,1.53,1.53,0,0,0-.52-.18,2.75,2.75,0,0,1-.61-.19.81.81,0,0,1-.53-.75.87.87,0,0,1,.35-.69,1.38,1.38,0,0,1,.88-.27,1.39,1.39,0,0,1,.91.28.88.88,0,0,1,.35.73h-.71a.43.43,0,0,0-.15-.34.59.59,0,0,0-.4-.14.67.67,0,0,0-.39.11.33.33,0,0,0-.14.29.29.29,0,0,0,.13.26,1.89,1.89,0,0,0,.56.18,2.41,2.41,0,0,1,.66.22,1,1,0,0,1,.35.3.78.78,0,0,1,.12.44.83.83,0,0,1-.36.69,1.47,1.47,0,0,1-.93.27,1.67,1.67,0,0,1-.69-.14,1.22,1.22,0,0,1-.47-.39.88.88,0,0,1-.17-.53h.69a.49.49,0,0,0,.19.39.72.72,0,0,0,.46.13.74.74,0,0,0,.43-.1A.35.35,0,0,0,164,171.2Z"/><path class="cls-3" d="M166,169.23a1.1,1.1,0,0,1,.88-.4c.68,0,1,.38,1,1.16v2.07h-.71V170a.63.63,0,0,0-.14-.46.61.61,0,0,0-.42-.14.69.69,0,0,0-.64.38v2.27h-.71v-4.5H166Z"/><path class="cls-3" d="M168.62,168.06a.38.38,0,0,1,.1-.27.46.46,0,0,1,.6,0,.39.39,0,0,1,.11.27.37.37,0,0,1-.11.27.46.46,0,0,1-.6,0A.36.36,0,0,1,168.62,168.06Zm.76,4h-.72v-3.17h.72Z"/><path class="cls-3" d="M172.93,170.5a1.9,1.9,0,0,1-.34,1.18,1.07,1.07,0,0,1-.89.44,1.09,1.09,0,0,1-.84-.35v1.51h-.71v-4.39h.65l0,.32a1.07,1.07,0,0,1,.86-.38,1.08,1.08,0,0,1,.91.43,1.94,1.94,0,0,1,.33,1.2Zm-.71-.06a1.39,1.39,0,0,0-.19-.75.61.61,0,0,0-.54-.28.66.66,0,0,0-.63.36v1.41a.67.67,0,0,0,.63.37.61.61,0,0,0,.54-.28A1.52,1.52,0,0,0,172.22,170.44Z"/><path class="cls-3" d="M120.73,144.33l.57-3.13h1.19l-1,5h-1.25l-.66-2.84-.66,2.84h-1.24l-1.06-5h1.2l.57,3.13.68-3.13h1Z"/><path class="cls-3" d="M124.59,146.25a1.91,1.91,0,0,1-1.38-.51,1.76,1.76,0,0,1-.52-1.32v-.09a2.31,2.31,0,0,1,.21-1,1.52,1.52,0,0,1,.61-.67,1.85,1.85,0,0,1,1-.24,1.61,1.61,0,0,1,1.23.49,1.9,1.9,0,0,1,.45,1.35v.44h-2.29a.82.82,0,0,0,.27.49.8.8,0,0,0,.54.18,1,1,0,0,0,.85-.38l.53.62a1.39,1.39,0,0,1-.61.47A2,2,0,0,1,124.59,146.25Zm-.13-2.95c-.33,0-.54.23-.6.67H125v-.09a.53.53,0,0,0-.14-.42A.54.54,0,0,0,124.46,143.3Z"/><path class="cls-3" d="M131.79,144.36a2.21,2.21,0,0,1-.39,1.37,1.22,1.22,0,0,1-1.05.52,1.06,1.06,0,0,1-.83-.37v1.72h-1.15v-5.12h1.07l0,.34a1.07,1.07,0,0,1,.87-.41,1.25,1.25,0,0,1,1.06.51,2.26,2.26,0,0,1,.38,1.38Zm-1.15-.07c0-.66-.19-1-.58-1a.53.53,0,0,0-.54.3v1.45a.55.55,0,0,0,.55.31c.37,0,.56-.32.57-1Z"/><path class="cls-3" d="M134.54,143.53l-.38,0c-.37,0-.6.11-.7.34v2.34h-1.15v-3.7h1.08l0,.48a.89.89,0,0,1,.81-.55,1,1,0,0,1,.32.05Z"/><path class="cls-3" d="M134.68,144.3a2.25,2.25,0,0,1,.22-1,1.47,1.47,0,0,1,.62-.66,1.8,1.8,0,0,1,.94-.24,1.71,1.71,0,0,1,1.31.52,2,2,0,0,1,.48,1.4v0a1.91,1.91,0,0,1-.48,1.37,1.69,1.69,0,0,1-1.3.51,1.75,1.75,0,0,1-1.27-.47,1.85,1.85,0,0,1-.51-1.29Zm1.16.07a1.35,1.35,0,0,0,.16.75.52.52,0,0,0,.47.24c.41,0,.62-.31.63-1v-.11c0-.67-.21-1-.64-1s-.59.29-.62.86Z"/><path class="cls-3" d="M139.85,142.48l0,.44a1.28,1.28,0,0,1,1.06-.51,1,1,0,0,1,.95.56,1.23,1.23,0,0,1,1.08-.56c.75,0,1.14.46,1.16,1.36v2.41H143v-2.33a.77.77,0,0,0-.09-.42.44.44,0,0,0-.35-.13.54.54,0,0,0-.51.31v2.57h-1.15v-2.33a.77.77,0,0,0-.09-.42.45.45,0,0,0-.36-.13.53.53,0,0,0-.5.31v2.57h-1.15v-3.7Z"/><path class="cls-3" d="M144.64,144.3a2.12,2.12,0,0,1,.22-1,1.47,1.47,0,0,1,.62-.66,1.78,1.78,0,0,1,.94-.24,1.71,1.71,0,0,1,1.31.52,2,2,0,0,1,.48,1.4v0a1.91,1.91,0,0,1-.48,1.37,1.69,1.69,0,0,1-1.3.51,1.75,1.75,0,0,1-1.27-.47,1.85,1.85,0,0,1-.51-1.29Zm1.15.07a1.44,1.44,0,0,0,.16.75.55.55,0,0,0,.48.24c.41,0,.62-.31.63-1v-.11c0-.67-.21-1-.64-1s-.59.29-.62.86Z"/><path class="cls-3" d="M150.06,141.56v.92h.61v.8h-.61V145a.47.47,0,0,0,.08.3.4.4,0,0,0,.29.08l.29,0v.82a2,2,0,0,1-.65.1,1.19,1.19,0,0,1-.88-.28,1.15,1.15,0,0,1-.28-.85v-1.84h-.47v-.8h.47v-.92Z"/><path class="cls-3" d="M152.91,146.25a1.9,1.9,0,0,1-1.38-.51,1.76,1.76,0,0,1-.52-1.32v-.09a2.31,2.31,0,0,1,.21-1,1.52,1.52,0,0,1,.61-.67,1.85,1.85,0,0,1,1-.24,1.61,1.61,0,0,1,1.23.49,1.9,1.9,0,0,1,.45,1.35v.44h-2.29a.82.82,0,0,0,.27.49.8.8,0,0,0,.54.18,1,1,0,0,0,.85-.38l.53.62a1.39,1.39,0,0,1-.61.47A2,2,0,0,1,152.91,146.25Zm-.13-2.95c-.34,0-.54.23-.6.67h1.16v-.09a.53.53,0,0,0-.14-.42A.54.54,0,0,0,152.78,143.3Z"/><path class="cls-3" d="M155.65,142.34a.64.64,0,0,1,.45.16.54.54,0,0,1,.18.41.54.54,0,0,1-.18.42.64.64,0,0,1-.45.16.65.65,0,0,1-.46-.16.54.54,0,0,1-.18-.42.54.54,0,0,1,.18-.41A.65.65,0,0,1,155.65,142.34Zm0,2.72a.64.64,0,0,1,.45.17.51.51,0,0,1,.18.41.54.54,0,0,1-.18.42.69.69,0,0,1-.45.16.65.65,0,0,1-.46-.17.51.51,0,0,1-.18-.41.52.52,0,0,1,.18-.41A.65.65,0,0,1,155.65,145.06Z"/><polygon class="cls-11" points="124.16 154.41 120.77 152.93 120.77 154.41 124.16 154.41"/><polygon class="cls-11" points="124.16 154.41 120.77 155.88 120.77 154.41 124.16 154.41"/><polygon class="cls-11" points="124.16 162.41 120.77 160.93 120.77 162.41 124.16 162.41"/><polygon class="cls-11" points="124.16 162.41 120.77 163.88 120.77 162.41 124.16 162.41"/><polygon class="cls-11" points="124.16 170.41 120.77 168.93 120.77 170.41 124.16 170.41"/><polygon class="cls-11" points="124.16 170.41 120.77 171.88 120.77 170.41 124.16 170.41"/></svg>