<svg id="Layer_1" data-name="Layer 1" xmlns="http://www.w3.org/2000/svg" viewBox="0 0 408.83 262.75"><defs><style>.cls-1,.cls-25,.cls-36{fill:#ecf0f1;}.cls-1,.cls-15,.cls-16,.cls-17,.cls-2,.cls-3,.cls-33,.cls-36,.cls-39,.cls-5,.cls-6{stroke:#2c3e50;}.cls-1,.cls-15,.cls-16,.cls-17,.cls-2,.cls-3,.cls-32,.cls-33,.cls-36,.cls-37,.cls-38,.cls-39,.cls-5,.cls-6{stroke-miterlimit:10;}.cls-15,.cls-16,.cls-17,.cls-2,.cls-3,.cls-32,.cls-37,.cls-39,.cls-5{fill:none;}.cls-3{stroke-width:0.5px;}.cls-38,.cls-4{fill:#00aeef;}.cls-5{stroke-width:0.87px;}.cls-6,.cls-8{fill:#2c3e50;}.cls-6{stroke-width:0.86px;}.cls-7{fill:#bdc3c7;}.cls-9{fill:#2878ae;}.cls-10{fill:#2e4155;}.cls-11{fill:#fab492;}.cls-12{fill:#35495e;}.cls-13{fill:#ed1c24;}.cls-14{fill:#2a7ec2;}.cls-15{stroke-width:2.58px;}.cls-16{stroke-width:1.72px;}.cls-17{stroke-width:0.82px;stroke-dasharray:2.35;}.cls-18,.cls-22{fill:#27aae1;}.cls-19,.cls-26{fill:#fff;}.cls-20{fill:#e64c3c;}.cls-21{fill:#7f8c8d;}.cls-22{font-size:1.03px;}.cls-22,.cls-26{font-family:Montserrat-Regular, Montserrat;}.cls-23{letter-spacing:-0.01em;}.cls-24{letter-spacing:-0.02em;}.cls-26{font-size:2.69px;}.cls-27{letter-spacing:-0.01em;}.cls-28{fill:#39a9e0;}.cls-29{fill:#010101;}.cls-30{fill:#333f51;}.cls-31{fill:#414042;}.cls-32{stroke:#bdc3c7;}.cls-33,.cls-35{fill:#faf0ab;}.cls-33,.cls-36,.cls-37,.cls-38{stroke-width:0.05px;}.cls-34{fill:#231f20;}.cls-37,.cls-38{stroke:#fff;}.cls-39{stroke-width:0.25px;}</style></defs><rect class="cls-1" x="248.8" y="63.79" width="91.49" height="63.47" rx="4" transform="translate(589.1 191.06) rotate(-180)"/><line class="cls-2" x1="260.48" y1="80.76" x2="275.59" y2="71.59"/><line class="cls-2" x1="292.2" y1="77.38" x2="275.3" y2="72.18"/><line class="cls-3" x1="280.21" y1="98.97" x2="275.3" y2="72.15"/><line class="cls-2" x1="272.82" y1="88.39" x2="291.76" y2="77.45"/><line class="cls-2" x1="272.82" y1="88.39" x2="259.28" y2="81.04"/><line class="cls-2" x1="280.72" y1="100.15" x2="258.53" y2="82.41"/><circle class="cls-4" cx="272.81" cy="88.4" r="1.8"/><line class="cls-3" x1="289.48" y1="91.31" x2="275.3" y2="72.18"/><circle class="cls-4" cx="259.28" cy="81.73" r="1.8"/><circle class="cls-4" cx="275.3" cy="71.76" r="1.8"/><line class="cls-2" x1="289.06" y1="91.42" x2="280.21" y2="98.97"/><line class="cls-3" x1="292.2" y1="77.38" x2="328.03" y2="89.9"/><circle class="cls-4" cx="280.28" cy="99.35" r="1.8"/><line class="cls-2" x1="292.61" y1="77.37" x2="289.48" y2="91.31"/><circle class="cls-4" cx="289.46" cy="91.32" r="1.8"/><line class="cls-3" x1="266.62" y1="99.35" x2="292.2" y2="77.38"/><line class="cls-3" x1="266.62" y1="99.94" x2="283.14" y2="93.1"/><line class="cls-2" x1="299.75" y1="98.88" x2="282.85" y2="93.69"/><line class="cls-3" x1="287.76" y1="120.48" x2="282.85" y2="93.66"/><line class="cls-2" x1="280.37" y1="109.89" x2="299.31" y2="98.96"/><line class="cls-2" x1="280.37" y1="109.89" x2="257.48" y2="108.67"/><line class="cls-2" x1="288.27" y1="121.66" x2="257.48" y2="108.67"/><circle class="cls-4" cx="280.36" cy="109.9" r="1.8"/><line class="cls-3" x1="297.03" y1="112.82" x2="282.85" y2="93.69"/><circle class="cls-4" cx="257.48" cy="108.67" r="1.8"/><circle class="cls-4" cx="282.85" cy="93.27" r="1.8"/><line class="cls-2" x1="296.62" y1="112.93" x2="287.76" y2="120.48"/><line class="cls-3" x1="274.17" y1="120.85" x2="299.75" y2="98.88"/><line class="cls-2" x1="299.73" y1="82.61" x2="314.84" y2="73.45"/><line class="cls-2" x1="331.44" y1="79.23" x2="314.55" y2="74.04"/><line class="cls-3" x1="319.45" y1="100.83" x2="314.55" y2="74.01"/><line class="cls-2" x1="312.07" y1="90.24" x2="331.01" y2="79.31"/><line class="cls-2" x1="312.07" y1="90.24" x2="298.52" y2="82.89"/><line class="cls-2" x1="319.97" y1="102.01" x2="297.78" y2="84.27"/><line class="cls-3" x1="336.28" y1="114.67" x2="314.55" y2="74.04"/><circle class="cls-4" cx="298.52" cy="83.59" r="1.8"/><line class="cls-3" x1="305.87" y1="101.2" x2="331.44" y2="79.23"/><line class="cls-3" x1="305.87" y1="101.8" x2="322.39" y2="94.95"/><line class="cls-3" x1="297.03" y1="112.82" x2="322.1" y2="95.55"/><line class="cls-3" x1="327.01" y1="122.34" x2="322.1" y2="95.51"/><line class="cls-3" x1="336.28" y1="114.67" x2="322.1" y2="95.55"/><circle class="cls-4" cx="322.1" cy="95.13" r="1.8"/><circle class="cls-4" cx="327.39" cy="89.31" r="1.8"/><circle class="cls-4" cx="331.23" cy="79.17" r="1.8"/><circle class="cls-4" cx="274.17" cy="120.85" r="1.8"/><line class="cls-3" x1="327.01" y1="122.34" x2="319.04" y2="101.83"/><circle class="cls-4" cx="319.62" cy="101.73" r="1.8"/><line class="cls-3" x1="310.62" y1="116.92" x2="314.55" y2="73.98"/><circle class="cls-4" cx="314.55" cy="73.62" r="1.8"/><circle class="cls-4" cx="312.06" cy="90.25" r="1.8"/><line class="cls-2" x1="296.48" y1="112.71" x2="309.57" y2="116.92"/><circle class="cls-4" cx="296.23" cy="112.5" r="1.8"/><line class="cls-3" x1="310.62" y1="116.92" x2="336.28" y2="114.67"/><line class="cls-3" x1="287.76" y1="120.48" x2="327.01" y2="122.34"/><circle class="cls-4" cx="287.83" cy="120.85" r="1.8"/><circle class="cls-4" cx="336.24" cy="114.62" r="1.8"/><circle class="cls-4" cx="326.93" cy="121.93" r="1.8"/><line class="cls-3" x1="292.2" y1="77.38" x2="310.62" y2="116.92"/><circle class="cls-4" cx="292.18" cy="77.37" r="1.8"/><circle class="cls-4" cx="310.62" cy="116.92" r="1.8"/><line class="cls-3" x1="257.48" y1="122.98" x2="266.62" y2="99.35"/><circle class="cls-4" cx="266.62" cy="99.35" r="1.8"/><circle class="cls-4" cx="257.48" cy="122.98" r="1.8"/><line class="cls-5" x1="57.01" y1="191.62" x2="166.11" y2="191.62"/><rect class="cls-6" x="46.1" y="203.5" width="4.77" height="41.23" rx="1"/><rect class="cls-6" x="24.21" y="134.07" width="4.77" height="68.49" rx="1"/><path class="cls-7" d="M79.17,235.06v10.61s7.37,6.77,7.37,0v-6.78Z"/><path class="cls-8" d="M78.59,244.87a37.31,37.31,0,0,0-2.07,5.89c-.17,1.44,17.18,1.14,20.38-.62,1.78-1-1.24-3.29-3.11-4.12C89.5,244.11,78.59,244.87,78.59,244.87Z"/><path class="cls-9" d="M41.43,185.21c-2.4,1.2-2.11,9.51,0,11.2,7.73,6.18,36.47-1,38.8,0,3.21,1.38-2,41.64-2,41.64l10,.84s8.61-31.66,4.1-51.64C91,181.06,49.68,181.1,41.43,185.21Z"/><path class="cls-10" d="M63.67,155.88s-15.62,8.22-23.26,7.75l.07,7.39c10.33-1.68,23.23-7.51,23.23-7.51Z"/><path class="cls-11" d="M51.74,133.57v-8.84a55.13,55.13,0,0,1-4.1-5.5A69.44,69.44,0,0,1,44.89,111l22.78-8,.79,1s1.49,13.81,0,18.07c-.63,1.78-2.86,5.54-4.72,5.89-.89.17-3.5.38-3.5.38l-1,11Z"/><path class="cls-12" d="M59,139.41l-7.39-7.95s-11.13,5-13.82,7.95C32.05,145.72,25.45,161.5,28.1,168c3.94,9.64,35.46-4.62,35.46-4.62l0-7.62s-20.45,10.76-26,6.95c-1-.71-.4-3.82,0-5a18.15,18.15,0,0,1,2.65-3.54L40.47,186H67.28v-22.1s1.14,5.8,1.76,7.66c1.27,3.75,6.49,14.44,6.49,14.44H82s-4.44-13.1-5.31-16.65c-2-8.1-2-23.06-5.07-29.68-1.84-3.92-10.54-8.17-10.54-8.17H59.62Z"/><path class="cls-10" d="M40.44,137.39a15,15,0,0,0-2.59,2c-5.77,6.31-12.37,22.09-9.72,28.57,1.42,3.47,6.42,3.84,12.23,2.89Zm-2.88,25.3c-1-.71-.4-3.82,0-5a18.15,18.15,0,0,1,2.65-3.54l.08,9.34A5.37,5.37,0,0,1,37.56,162.69Z"/><path class="cls-13" d="M49.45,122.18c-1.72.53-3.57-4.25-3.93-6a27.61,27.61,0,0,1,0-9.51c.7-2.67,1.33-8.85,13.35-8.83,2.8,0,9.66,2,9.66,7.43,0,1.74-4,2.34-5.53,2.53A44.44,44.44,0,0,0,55.53,109c-1.34.49-3.62,3.68-4.36,4.91C49.85,116.13,51.9,121.42,49.45,122.18Z"/><path class="cls-11" d="M52.35,115.11c0,1.41-.7,2.55-1.57,2.55s-1.57-1.14-1.57-2.55.7-2.55,1.57-2.55S52.35,113.7,52.35,115.11Z"/><path class="cls-11" d="M63.59,156.48s1.85-2.1,2.71-2.13c2,0,6.32,2.65,6.57,4.64.13,1-2.13,3.67-2.13,3.67H63.59Z"/><path class="cls-7" d="M83.48,236.13v10.6s7.36,6.78,7.36,0V240Z"/><path class="cls-10" d="M63.55,155.88s-15.62,8.22-23.26,7.75l.07,7.39c10.33-1.68,23.23-7.51,23.23-7.51Z"/><path class="cls-14" d="M41.52,185.21c-2.53,1.2-2.23,9.51,0,11.2,8.16,6.18,38.5-1,40.95,0,3.39,1.38-1.64,41.64-1.64,41.64l10,1.91s9.19-32.73,4.44-52.71C93.8,181.06,50.23,181.1,41.52,185.21Z"/><path class="cls-8" d="M82.82,246.8a38,38,0,0,0-2,5.89c-.16,1.44,16.53,1.14,19.61-.62,1.7-1-1.2-3.29-3-4.12C93.32,246,82.82,246.8,82.82,246.8Z"/><rect class="cls-6" x="24.71" y="200.68" width="50.31" height="5.64" rx="1"/><line class="cls-15" x1="66.7" y1="249.63" x2="48.21" y2="244.36"/><line class="cls-15" x1="32.38" y1="249.63" x2="48.21" y2="244.36"/><path class="cls-8" d="M64.47,251a3.1,3.1,0,1,0,3.09-3.09A3.09,3.09,0,0,0,64.47,251Z"/><path class="cls-8" d="M27.56,251a3.1,3.1,0,1,0,3.1-3.09A3.1,3.1,0,0,0,27.56,251Z"/><line class="cls-16" x1="48.48" y1="242.94" x2="48.48" y2="255.28"/><circle class="cls-8" cx="48.48" cy="256.7" r="3.09"/><circle class="cls-2" cx="164.29" cy="57.21" r="21.24"/><polyline class="cls-17" points="143.05 121.04 164.88 121.05 164.88 81.05"/><circle class="cls-18" cx="164.88" cy="81.92" r="1.81"/><rect class="cls-8" x="125.2" y="176.55" width="4.79" height="12.58" transform="translate(255.19 365.67) rotate(-180)"/><rect class="cls-1" x="81.62" y="117.13" width="91.49" height="63.47" rx="4" transform="translate(254.73 297.73) rotate(-180)"/><rect class="cls-19" x="86.41" y="121.04" width="82.16" height="13.29" transform="translate(254.98 255.38) rotate(-180)"/><circle class="cls-20" cx="165.83" cy="123.86" r="1.12"/><line class="cls-2" x1="168.57" y1="127.21" x2="86.62" y2="127.21"/><rect class="cls-8" x="117.72" y="188.75" width="19.76" height="1.35" transform="translate(255.19 378.85) rotate(-180)"/><path class="cls-21" d="M157.21,131.66c0,.09-.14.17-.31.17H145.81c-.17,0-.31-.08-.31-.17V130c0-.1.14-.17.31-.17H156.9c.17,0,.31.07.31.17Z"/><path class="cls-18" d="M121.3,131.61a.17.17,0,0,1-.17.17h-6.21a.18.18,0,0,1-.17-.17V130a.17.17,0,0,1,.17-.17h6.21a.16.16,0,0,1,.17.17Z"/><rect class="cls-18" x="121.85" y="129.78" width="6.4" height="2" rx="0.17"/><path class="cls-18" d="M134.14,131.61a.16.16,0,0,1-.14.17h-5.11a.16.16,0,0,1-.14-.17V130a.15.15,0,0,1,.14-.17H134a.15.15,0,0,1,.14.17Z"/><path class="cls-18" d="M141.31,131.61a.18.18,0,0,1-.18.17h-6.26a.18.18,0,0,1-.17-.17V130a.17.17,0,0,1,.17-.17h6.26a.17.17,0,0,1,.18.17Z"/><text class="cls-22" transform="translate(157.67 131.13)"><tspan class="cls-23">L</tspan><tspan x="0.6" y="0">og in or Regis</tspan><tspan class="cls-24" x="7.61" y="0">t</tspan><tspan x="8.01" y="0">er</tspan></text><rect class="cls-8" x="86.41" y="134.33" width="82.16" height="7.93" transform="translate(254.98 276.6) rotate(-180)"/><rect class="cls-25" x="86.41" y="142.27" width="82.16" height="28.94" transform="translate(254.98 313.47) rotate(-180)"/><text class="cls-26" transform="translate(98.6 139.23)">G<tspan class="cls-27" x="2.08" y="0">r</tspan><tspan x="3.14" y="0">aphs</tspan></text><rect class="cls-2" x="86.41" y="121.04" width="82.38" height="50.16" rx="1" transform="translate(255.19 292.25) rotate(-180)"/><path class="cls-28" d="M90,129.25v.21h-1v.71h.93v.21h-.93v.86h-.23v-2Z"/><path class="cls-28" d="M91.5,130.73H90.41l-.22.51H90l.89-2h.24l.89,2h-.25Zm-.09-.21-.46-1-.44,1Z"/><path class="cls-28" d="M92.51,129.25v2h-.23v-2Z"/><path class="cls-28" d="M94.41,131.24,94,130.6h-.66v.63h-.23v-2h.76c.5,0,.78.24.78.66a.63.63,0,0,1-.45.65l.47.68Zm-.54-.85c.36,0,.56-.16.56-.47s-.2-.46-.56-.46h-.53v.93Z"/><path class="cls-29" d="M95.52,129.92c-.17,0-.3.06-.3.2,0,.34.84.16.84.7,0,.29-.26.42-.55.42a.82.82,0,0,1-.57-.21l.08-.16a.76.76,0,0,0,.5.19c.18,0,.32-.07.32-.22,0-.36-.83-.18-.83-.7,0-.29.25-.41.52-.41a.83.83,0,0,1,.48.14l-.08.17A.75.75,0,0,0,95.52,129.92Z"/><path class="cls-29" d="M97.81,130.32v.92h-.22v-.87a.39.39,0,0,0-.43-.42.5.5,0,0,0-.5.55v.74h-.22v-2.11h.22v1a.59.59,0,0,1,.58-.35A.53.53,0,0,1,97.81,130.32Z"/><path class="cls-29" d="M99.23,131.24V131a.62.62,0,0,1-.54.24.46.46,0,0,1-.51-.45c0-.26.2-.42.56-.43h.49v-.09c0-.22-.14-.35-.4-.35a.83.83,0,0,0-.48.17l-.09-.16a1,1,0,0,1,.61-.2.51.51,0,0,1,.58.52v1Zm0-.52v-.18h-.47c-.25,0-.38.08-.38.24s.14.28.35.28A.49.49,0,0,0,99.23,130.72Z"/><path class="cls-29" d="M100.7,129.73V130a.49.49,0,0,0-.53.49v.8h-.23v-1.5h.23v.33A.56.56,0,0,1,100.7,129.73Z"/><path class="cls-29" d="M101.25,129.31a.14.14,0,0,1-.14.15.15.15,0,1,1,0-.3A.14.14,0,0,1,101.25,129.31Zm0,.43v1.5H101v-1.5Z"/><path class="cls-29" d="M103.13,130.32v.92h-.22v-.87a.38.38,0,0,0-.42-.42.49.49,0,0,0-.51.48v.81h-.22v-1.5H102v.33a.61.61,0,0,1,.58-.34A.53.53,0,0,1,103.13,130.32Z"/><path class="cls-29" d="M104.93,129.74v1.34a.68.68,0,0,1-.75.71,1,1,0,0,1-.62-.22l.11-.16a.74.74,0,0,0,.5.19.49.49,0,0,0,.54-.51v-.23a.59.59,0,0,1-.55.31.72.72,0,0,1,0-1.44.6.6,0,0,1,.56.32v-.31Zm-.22.71a.5.5,0,0,0-.51-.53.51.51,0,0,0-.52.53.52.52,0,0,0,.52.54A.51.51,0,0,0,104.71,130.45Z"/><path class="cls-28" d="M105.58,131.11a.14.14,0,0,1-.13.15.14.14,0,0,1-.14-.15.14.14,0,0,1,.14-.14A.13.13,0,0,1,105.58,131.11Z"/><path class="cls-28" d="M107.37,130.49a.76.76,0,1,1-.76-.76A.73.73,0,0,1,107.37,130.49Zm-1.3,0a.54.54,0,1,0,.54-.56A.53.53,0,0,0,106.07,130.49Z"/><path class="cls-28" d="M108.51,129.73V130a.49.49,0,0,0-.53.49v.8h-.22v-1.5H108v.33A.56.56,0,0,1,108.51,129.73Z"/><path class="cls-28" d="M110.12,129.74v1.34a.69.69,0,0,1-.76.71,1,1,0,0,1-.61-.22l.1-.16a.78.78,0,0,0,.51.19.5.5,0,0,0,.54-.51v-.23a.6.6,0,0,1-.56.31.72.72,0,0,1,0-1.44.62.62,0,0,1,.56.32v-.31Zm-.22.71a.51.51,0,0,0-.52-.53.5.5,0,0,0-.51.53.51.51,0,0,0,.51.54A.52.52,0,0,0,109.9,130.45Z"/><path class="cls-28" d="M92.8,132.77a2.44,2.44,0,0,1-1.49-.54,2,2,0,0,0-1.46-.5,1.28,1.28,0,0,0-.83.49.08.08,0,0,1-.1,0,.06.06,0,0,1,0-.09,1.42,1.42,0,0,1,.92-.54,2.09,2.09,0,0,1,1.56.52,2.3,2.3,0,0,0,2.87,0,.08.08,0,0,1,.1,0,.08.08,0,0,1,0,.1,2.65,2.65,0,0,1-1.55.54Z"/><path class="cls-30" d="M90.05,132.77a.78.78,0,0,1-.22,0,1.43,1.43,0,0,1-.92-.53.08.08,0,0,1,0-.1.08.08,0,0,1,.1,0,1.34,1.34,0,0,0,.83.48,1.94,1.94,0,0,0,1.46-.5,2.47,2.47,0,0,1,3,0,.07.07,0,1,1-.09.11,2.28,2.28,0,0,0-2.87,0,2.25,2.25,0,0,1-1.34.54Z"/><path class="cls-29" d="M95.15,132.32a.18.18,0,0,1,0-.1.14.14,0,0,1,0-.1.21.21,0,0,1,.14,0,.2.2,0,0,1,.11,0,.15.15,0,0,1,.09.06l-.06.05a.13.13,0,0,0-.06-.05.11.11,0,0,0-.08,0l-.08,0a.09.09,0,0,0,0,.06s0,0,0,.05l.1,0a.33.33,0,0,1,.17.08.15.15,0,0,1,0,.21.2.2,0,0,1-.14.05l-.12,0a.33.33,0,0,1-.11-.08l.06,0a.24.24,0,0,0,.09.06l.08,0a.12.12,0,0,0,.09,0,.07.07,0,0,0,0-.06.08.08,0,0,0,0-.05.38.38,0,0,0-.14-.06l-.1,0Z"/><path class="cls-29" d="M95.71,131.89h.07v.2h.14v.07h-.14v.34a.07.07,0,0,0,0,.06.06.06,0,0,0,.06,0h0v.06h-.06a.19.19,0,0,1-.12,0,.18.18,0,0,1,0-.11v-.35h-.09v-.07h.09v-.2Z"/><path class="cls-29" d="M96,132.18l.11-.08.12,0a.21.21,0,0,1,.12,0,.23.23,0,0,1,.07.07s0,0,0,.09v.23a.66.66,0,0,0,0,.14H96.4a.44.44,0,0,1,0-.1.25.25,0,0,1-.1.08.2.2,0,0,1-.11,0,.16.16,0,0,1-.11-.05.12.12,0,0,1,0-.1.17.17,0,0,1,0-.1.26.26,0,0,1,.1-.07l.23-.06v0a.1.1,0,0,0-.1-.1.15.15,0,0,0-.09,0,.46.46,0,0,0-.1.07Zm.35.32v-.17l-.16,0a.15.15,0,0,0-.09.06.09.09,0,0,0,0,.07.09.09,0,0,0,0,.06.08.08,0,0,0,.06,0l.09,0A.27.27,0,0,0,96.38,132.5Z"/><path class="cls-29" d="M96.72,132.15l.12-.05a.15.15,0,0,1,.09,0H97a.17.17,0,0,1,.06.06.3.3,0,0,1,0,.1v.39H97v-.38a.12.12,0,0,0,0-.09s0,0-.07,0h-.08l-.11.05v.43h-.08v-.55h.08v.06Z"/><path class="cls-29" d="M97.64,131.86h.07v.6a.31.31,0,0,0,0,.1.17.17,0,0,0,0,.08h-.08a.25.25,0,0,1,0-.08.27.27,0,0,1-.1.06l-.09,0a.21.21,0,0,1-.16-.08.35.35,0,0,1,0-.42.2.2,0,0,1,.16-.07.15.15,0,0,1,.09,0l.1.06Zm0,.37-.09-.07-.09,0a.14.14,0,0,0-.12.06.24.24,0,0,0,0,.16.29.29,0,0,0,0,.17.17.17,0,0,0,.12.05l.08,0,.1-.06Z"/><path class="cls-29" d="M97.88,132.18l.11-.08.12,0a.24.24,0,0,1,.12,0,.13.13,0,0,1,.06.07.2.2,0,0,1,0,.09v.23a.66.66,0,0,0,0,.14h-.07a.44.44,0,0,1,0-.1.35.35,0,0,1-.1.08.23.23,0,0,1-.11,0,.14.14,0,0,1-.11-.05.12.12,0,0,1,0-.1.18.18,0,0,1,0-.1.2.2,0,0,1,.1-.07l.23-.06v0a.09.09,0,0,0,0-.07.1.1,0,0,0-.08,0,.13.13,0,0,0-.08,0l-.11.07Zm.35.32v-.17l-.16,0a.15.15,0,0,0-.09.06.09.09,0,0,0,0,.07.14.14,0,0,0,0,.06l.07,0,.09,0Z"/><path class="cls-29" d="M98.57,132.21a.32.32,0,0,1,.1-.1.2.2,0,0,1,.11,0h0v.08H98.7a.18.18,0,0,0-.07.05.2.2,0,0,0,0,.08.51.51,0,0,0,0,.09v.25H98.5v-.55h.07Z"/><path class="cls-29" d="M99.27,131.86h.07v.6a.31.31,0,0,0,0,.1.17.17,0,0,0,0,.08h-.08a.25.25,0,0,1,0-.08.27.27,0,0,1-.1.06l-.09,0a.21.21,0,0,1-.16-.08.35.35,0,0,1,0-.42.2.2,0,0,1,.16-.07.15.15,0,0,1,.09,0l.1.06Zm0,.37-.09-.07-.09,0a.14.14,0,0,0-.12.06.24.24,0,0,0,0,.16.29.29,0,0,0,0,.17.17.17,0,0,0,.12.05l.08,0,.1-.06Z"/><path class="cls-29" d="M99.54,132.32a.18.18,0,0,1,0-.1.14.14,0,0,1,0-.1.21.21,0,0,1,.14,0,.2.2,0,0,1,.11,0,.18.18,0,0,1,.09.06l-.06.05a.13.13,0,0,0-.06-.05.11.11,0,0,0-.08,0l-.08,0a.09.09,0,0,0,0,.06s0,0,0,.05l.1,0a.33.33,0,0,1,.17.08.15.15,0,0,1,0,.21.2.2,0,0,1-.14.05l-.12,0a.26.26,0,0,1-.11-.08l.06,0a.24.24,0,0,0,.09.06l.08,0a.12.12,0,0,0,.09,0,.07.07,0,0,0,0-.06.08.08,0,0,0,0-.05l-.14-.06-.1,0Z"/><path class="cls-29" d="M100.07,132.52h.1v.12l-.07.15h0l.07-.15h-.05v-.12Z"/><path class="cls-29" d="M101.08,131.86h.07v.6s0,.07,0,.1,0,.06,0,.08h-.07a.31.31,0,0,1,0-.08.24.24,0,0,1-.09.06l-.1,0a.23.23,0,0,1-.16-.08.4.4,0,0,1,0-.42.21.21,0,0,1,.16-.07.15.15,0,0,1,.09,0,.27.27,0,0,1,.1.06v-.3Zm0,.37-.09-.07-.09,0a.14.14,0,0,0-.11.06.23.23,0,0,0-.05.16.29.29,0,0,0,.05.17.16.16,0,0,0,.11.05l.09,0a.24.24,0,0,0,.09-.06v-.27Z"/><path class="cls-29" d="M101.32,132.18a.5.5,0,0,1,.12-.08l.12,0a.2.2,0,0,1,.11,0,.23.23,0,0,1,.07.07.22.22,0,0,1,0,.09v.23a.68.68,0,0,0,0,.14h-.08a.38.38,0,0,1,0-.1.38.38,0,0,1-.11.08.2.2,0,0,1-.11,0,.16.16,0,0,1-.11-.05.12.12,0,0,1,0-.1.17.17,0,0,1,0-.1.26.26,0,0,1,.1-.07l.24-.06v0a.09.09,0,0,0,0-.07.13.13,0,0,0-.08,0,.15.15,0,0,0-.09,0,.46.46,0,0,0-.1.07Zm.36.32v-.17l-.17,0a.15.15,0,0,0-.09.06.09.09,0,0,0,0,.07.09.09,0,0,0,0,.06l.06,0,.09,0Z"/><path class="cls-29" d="M102,131.89H102v.2h.14v.07H102v.34a.07.07,0,0,0,0,.06.06.06,0,0,0,.06,0h.05v.06h-.06a.19.19,0,0,1-.12,0,.18.18,0,0,1,0-.11v-.35h-.1v-.07h.1v-.2Z"/><path class="cls-29" d="M102.29,132.18l.11-.08.12,0a.21.21,0,0,1,.12,0,.13.13,0,0,1,.06.07.2.2,0,0,1,0,.09v.23a.66.66,0,0,0,0,.14h-.07a.44.44,0,0,1,0-.1.35.35,0,0,1-.1.08.23.23,0,0,1-.11,0,.16.16,0,0,1-.11-.05.12.12,0,0,1,0-.1.17.17,0,0,1,0-.1.26.26,0,0,1,.1-.07l.23-.06v0a.1.1,0,0,0-.1-.1.15.15,0,0,0-.09,0l-.11.07Zm.35.32v-.17l-.16,0a.15.15,0,0,0-.09.06.09.09,0,0,0,0,.07.14.14,0,0,0,0,.06l.07,0,.09,0A.27.27,0,0,0,102.64,132.5Z"/><path class="cls-29" d="M102.9,131.86H103v.3a.15.15,0,0,1,.09-.06.16.16,0,0,1,.1,0,.21.21,0,0,1,.16.07.33.33,0,0,1,.06.21.33.33,0,0,1,0,.15.21.21,0,0,1-.08.1.19.19,0,0,1-.12,0l-.09,0-.09-.07v.08h-.07v-.78Zm.07.64.1.06.08,0a.14.14,0,0,0,.11-.06.28.28,0,0,0,0-.32.14.14,0,0,0-.12-.06l-.08,0-.09.06v.28Z"/><path class="cls-29" d="M103.51,132.18l.11-.08.12,0a.24.24,0,0,1,.12,0,.13.13,0,0,1,.06.07.2.2,0,0,1,0,.09v.23a.66.66,0,0,0,0,.14h-.07a.44.44,0,0,1,0-.1.35.35,0,0,1-.1.08.23.23,0,0,1-.11,0,.14.14,0,0,1-.11-.05.12.12,0,0,1-.05-.1.18.18,0,0,1,0-.1.2.2,0,0,1,.1-.07l.23-.06v0a.09.09,0,0,0,0-.07.11.11,0,0,0-.08,0,.13.13,0,0,0-.08,0l-.11.07Zm.35.32v-.17l-.16,0a.15.15,0,0,0-.09.06.09.09,0,0,0,0,.07.07.07,0,0,0,0,.06l.07,0,.09,0Z"/><path class="cls-29" d="M104.13,132.32a.13.13,0,0,1,0-.1.14.14,0,0,1,0-.1.2.2,0,0,1,.14,0,.23.23,0,0,1,.11,0l.09.06-.06.05a.12.12,0,0,0-.07-.05.08.08,0,0,0-.07,0l-.09,0a.09.09,0,0,0,0,.06s0,0,0,.05l.1,0a.38.38,0,0,1,.17.08.13.13,0,0,1,0,.1.16.16,0,0,1,0,.11.22.22,0,0,1-.14.05.21.21,0,0,1-.12,0,.28.28,0,0,1-.12-.08l.07,0a.21.21,0,0,0,.08.06l.09,0a.11.11,0,0,0,.08,0,.06.06,0,0,0,0-.06.05.05,0,0,0,0-.05.31.31,0,0,0-.13-.06.23.23,0,0,1-.1,0Z"/><path class="cls-29" d="M105.07,132.51a.26.26,0,0,1-.11.1.15.15,0,0,1-.11,0,.23.23,0,0,1-.17-.08.35.35,0,0,1,0-.42.21.21,0,0,1,.16-.07.27.27,0,0,1,.12,0,.25.25,0,0,1,.08.1.35.35,0,0,1,0,.16h-.38a.2.2,0,0,0,0,.11.16.16,0,0,0,.06.08l.07,0a.22.22,0,0,0,.17-.11Zm-.08-.21a.17.17,0,0,0,0-.12.15.15,0,0,0-.21,0,.21.21,0,0,0,0,.11Z"/><path class="cls-29" d="M105.23,132.32a.14.14,0,0,1,0-.2.21.21,0,0,1,.14,0,.2.2,0,0,1,.11,0,.15.15,0,0,1,.09.06l0,.05-.07-.05a.11.11,0,0,0-.08,0l-.08,0a.09.09,0,0,0,0,.06s0,0,0,.05l.1,0a.33.33,0,0,1,.17.08.13.13,0,0,1,0,.21.2.2,0,0,1-.14.05l-.12,0a.33.33,0,0,1-.11-.08l.06,0,.09.06.08,0a.12.12,0,0,0,.09,0,.07.07,0,0,0,0-.06.08.08,0,0,0,0-.05.4.4,0,0,0-.13-.06l-.11,0Z"/><path class="cls-29" d="M105.76,132.52h.09v.12l-.07.15h0l.06-.15h0Z"/><path class="cls-29" d="M106.47,132.16l.09-.06a.15.15,0,0,1,.09,0,.27.27,0,0,1,.12,0,.27.27,0,0,1,.08.1.4.4,0,0,1,0,.15.33.33,0,0,1,0,.15.18.18,0,0,1-.09.1.15.15,0,0,1-.11,0l-.09,0-.09-.07v.28h-.08v-.75h.08v.07Zm0,.34a.24.24,0,0,0,.09.06l.09,0a.14.14,0,0,0,.11-.06.28.28,0,0,0,0-.32.14.14,0,0,0-.12-.06l-.08,0-.09.06v.28Z"/><path class="cls-29" d="M107.24,132.65a.25.25,0,0,1-.18-.08.33.33,0,0,1-.07-.21.37.37,0,0,1,0-.15.18.18,0,0,1,.09-.1.25.25,0,0,1,.24,0,.22.22,0,0,1,.09.1.42.42,0,0,1,0,.16.32.32,0,0,1-.07.2A.25.25,0,0,1,107.24,132.65Zm0-.07a.17.17,0,0,0,.12-.05.29.29,0,0,0,.05-.17.23.23,0,0,0-.05-.16.14.14,0,0,0-.11-.06.18.18,0,0,0-.13.06.25.25,0,0,0,0,.16.29.29,0,0,0,0,.17A.21.21,0,0,0,107.23,132.58Z"/><path class="cls-29" d="M107.64,131.86h.08v.78h-.08Z"/><path class="cls-29" d="M107.93,131.87H108V132h-.08Zm0,.22H108v.55h-.08Z"/><path class="cls-29" d="M108.63,132.5a.3.3,0,0,1-.09.1.21.21,0,0,1-.13.05.28.28,0,0,1-.12,0,.18.18,0,0,1-.09-.1.33.33,0,0,1,0-.15.33.33,0,0,1,.07-.21.23.23,0,0,1,.17-.07.21.21,0,0,1,.12,0,.36.36,0,0,1,.1.11l-.07,0a.19.19,0,0,0-.07-.08.11.11,0,0,0-.08,0,.14.14,0,0,0-.11.06s0,.09,0,.17a.2.2,0,0,0,0,.15.14.14,0,0,0,.11.06.18.18,0,0,0,.15-.11Z"/><path class="cls-29" d="M108.78,131.87h.07V132h-.07Zm0,.22h.07v.55h-.07Z"/><path class="cls-29" d="M109.48,132.51a.26.26,0,0,1-.11.1.19.19,0,0,1-.12,0,.21.21,0,0,1-.16-.08.35.35,0,0,1,0-.42.2.2,0,0,1,.16-.07.27.27,0,0,1,.12,0,.39.39,0,0,1,.08.1.35.35,0,0,1,0,.16h-.39s0,.08,0,.11l.06.08.08,0a.22.22,0,0,0,.17-.11Zm-.08-.21a.17.17,0,0,0-.05-.12.13.13,0,0,0-.1,0,.12.12,0,0,0-.11.05.15.15,0,0,0,0,.11Z"/><path class="cls-29" d="M109.63,132.32a.18.18,0,0,1,0-.1.14.14,0,0,1,0-.1.2.2,0,0,1,.14,0,.2.2,0,0,1,.11,0l.09.06-.06.05a.13.13,0,0,0-.06-.05.11.11,0,0,0-.08,0,.15.15,0,0,0-.08,0,.09.09,0,0,0,0,.06.06.06,0,0,0,0,.05l.1,0a.33.33,0,0,1,.17.08.15.15,0,0,1,0,.21.2.2,0,0,1-.14.05l-.12,0a.26.26,0,0,1-.11-.08l.06,0,.08.06.09,0a.12.12,0,0,0,.09,0,.07.07,0,0,0,0-.06.08.08,0,0,0,0-.05l-.14-.06-.1,0Z"/><line class="cls-2" x1="147.82" y1="53.23" x2="162.93" y2="44.06"/><line class="cls-2" x1="179.54" y1="49.85" x2="162.65" y2="44.66"/><line class="cls-3" x1="167.55" y1="71.45" x2="162.65" y2="44.62"/><line class="cls-2" x1="160.17" y1="60.86" x2="179.1" y2="49.93"/><line class="cls-2" x1="160.17" y1="60.86" x2="146.62" y2="53.51"/><line class="cls-2" x1="168.06" y1="72.62" x2="145.87" y2="54.89"/><circle class="cls-4" cx="160.15" cy="60.87" r="1.8"/><line class="cls-3" x1="176.82" y1="63.78" x2="162.65" y2="44.66"/><circle class="cls-4" cx="146.62" cy="54.21" r="1.8"/><circle class="cls-4" cx="162.65" cy="44.24" r="1.8"/><line class="cls-2" x1="176.41" y1="63.9" x2="167.55" y2="71.45"/><line class="cls-3" x1="179.54" y1="49.85" x2="167.55" y2="71.45"/><circle class="cls-4" cx="167.62" cy="71.82" r="1.8"/><line class="cls-2" x1="179.95" y1="49.84" x2="176.82" y2="63.78"/><circle class="cls-4" cx="176.81" cy="63.79" r="1.8"/><circle class="cls-4" cx="179.52" cy="49.84" r="1.8"/><circle class="cls-4" cx="153.97" cy="71.82" r="1.8"/><line class="cls-3" x1="153.97" y1="71.82" x2="179.54" y2="49.85"/><path class="cls-11" d="M267.29,174.46s.22,2.69-.35,3.29c-1.31,1.43-6.06,2.59-7.6,1.43-.81-.62-1.11-3.93-1.11-3.93l4.8-4.93Z"/><polygon class="cls-31" points="234.2 246.43 234.12 251.73 244.92 251.73 244.89 246.43 234.2 246.43"/><polygon class="cls-21" points="234.12 211.49 234.2 246.43 244.89 246.43 247.43 211.49 234.12 211.49"/><polygon class="cls-21" points="219.56 211.49 219.64 246.43 230.33 246.43 232.87 211.49 219.56 211.49"/><path class="cls-25" d="M217,145q-.06,3-.13,6-.15,7.86-.32,15.7-.34,17.06-.7,34.11-.17,7.63-.32,15.27h32.72l.77-62s1.34,6.81,2.07,9c1.48,4.4,6.95,12.62,6.95,12.62l5.09-5.24s-2-5.81-3.05-10c-2.31-9.5-4.93-29-8.58-36.77-2.16-4.59-9.74-7.65-9.74-7.65H240l-.69,9.33-8.68-9.33c-.63-.67-6.55,2.56-7.31,3a21.13,21.13,0,0,0-6,5.06,23.8,23.8,0,0,0-4.1,9.63c-.83,3.6-1.95,7.8-1.36,11.49.62,3.87,3.45,5.91,7,7.08,8.23,2.75,17.18,2.18,25.8,1.18l-.06-9c-5.85,3.63-11.88,7.08-18.46,9.08"/><line class="cls-32" x1="239.41" y1="127.27" x2="239.41" y2="145.95"/><line class="cls-32" x1="234.41" y1="216.14" x2="234.41" y2="155.37"/><path class="cls-33" d="M227.05,106.89c-1.07-5.32,5.62-15.22,8.56-15.75,3.74-.67,10.82,9.37,12.59,15.75,1.56,5.61,4.66,3.12,5.16,9.68.37,4.9-2.07,20.5-3.87,23.42-4.55,7.42-16.66,47.43-16.66,47.43s.31-22.48-8-43.11c-6.41-16-3.41-36,2.2-37.42C230.32,106.06,228.25,112.81,227.05,106.89Z"/><polygon class="cls-34" points="219.64 246.43 219.56 251.73 230.43 251.73 230.33 246.43 219.64 246.43"/><path class="cls-35" d="M231.55,93c-1-4,5.3-11.53,8.08-11.93,3.52-.51,10.2,7.1,11.87,11.93,2.58,7.44,3.51,30-1.42,33.67-2.81,2.08-3.36-14.53-3.36-14.53s-1.82-10.35-3.44-12.71C241,96.13,232.68,97.51,231.55,93Z"/><path class="cls-36" d="M230.46,164.63s6.28-17.3,5-23.31"/><path class="cls-36" d="M231.83,175s6.28-17.3,5-23.3"/><path class="cls-36" d="M235.61,178.68s6.28-17.3,5-23.31"/><path class="cls-25" d="M235.61,182s6.28-17.3,5-23.31"/><line class="cls-37" x1="89.96" y1="137.64" x2="92.73" y2="135.96"/><line class="cls-37" x1="95.78" y1="137.02" x2="92.68" y2="136.06"/><line class="cls-37" x1="93.58" y1="140.98" x2="92.68" y2="136.06"/><line class="cls-37" x1="92.22" y1="139.04" x2="95.7" y2="137.03"/><line class="cls-37" x1="92.22" y1="139.04" x2="89.74" y2="137.69"/><line class="cls-37" x1="93.67" y1="141.19" x2="89.6" y2="137.94"/><circle class="cls-38" cx="92.22" cy="139.04" r="0.33"/><line class="cls-37" x1="95.28" y1="139.57" x2="92.68" y2="136.06"/><circle class="cls-38" cx="89.74" cy="137.82" r="0.33"/><circle class="cls-38" cx="92.68" cy="135.99" r="0.33"/><line class="cls-37" x1="95.2" y1="139.59" x2="93.58" y2="140.98"/><line class="cls-37" x1="95.78" y1="137.02" x2="93.58" y2="140.98"/><circle class="cls-38" cx="93.59" cy="141.04" r="0.33"/><line class="cls-37" x1="95.85" y1="137.02" x2="95.28" y2="139.57"/><circle class="cls-38" cx="95.27" cy="139.57" r="0.33"/><circle class="cls-38" cx="95.77" cy="137.02" r="0.33"/><circle class="cls-38" cx="91.09" cy="141.04" r="0.33"/><line class="cls-37" x1="91.09" y1="141.04" x2="95.78" y2="137.02"/><path class="cls-35" d="M244,92.69c1-4-5.3-11.53-8.08-11.94-3.52-.51-10.2,7.11-11.88,11.94-2.57,7.43-3.5,30,1.43,33.67,2.81,2.08,3.36-14.54,3.36-14.54s1.82-10.34,3.44-12.7C234.55,95.81,242.89,97.18,244,92.69Z"/><line class="cls-39" x1="94.74" y1="148.53" x2="101.84" y2="144.22"/><line class="cls-39" x1="109.65" y1="146.94" x2="101.7" y2="144.5"/><line class="cls-39" x1="104.01" y1="157.09" x2="101.7" y2="144.48"/><line class="cls-39" x1="100.54" y1="152.12" x2="109.44" y2="146.98"/><line class="cls-39" x1="100.54" y1="152.12" x2="94.17" y2="148.66"/><line class="cls-39" x1="104.25" y1="157.65" x2="93.82" y2="149.31"/><circle class="cls-4" cx="100.53" cy="152.12" r="0.84"/><line class="cls-39" x1="108.37" y1="153.49" x2="101.7" y2="144.5"/><circle class="cls-4" cx="94.17" cy="148.99" r="0.84"/><circle class="cls-4" cx="101.7" cy="144.3" r="0.84"/><line class="cls-39" x1="108.17" y1="153.54" x2="104.01" y2="157.09"/><line class="cls-39" x1="109.65" y1="146.94" x2="126.49" y2="152.83"/><circle class="cls-4" cx="104.04" cy="157.27" r="0.84"/><line class="cls-39" x1="109.84" y1="146.94" x2="108.37" y2="153.49"/><circle class="cls-4" cx="108.36" cy="153.49" r="0.84"/><line class="cls-39" x1="97.62" y1="157.27" x2="109.65" y2="146.94"/><line class="cls-39" x1="97.62" y1="157.55" x2="105.39" y2="154.33"/><line class="cls-39" x1="113.2" y1="157.05" x2="105.25" y2="154.61"/><line class="cls-39" x1="107.56" y1="167.2" x2="105.25" y2="154.59"/><line class="cls-39" x1="104.09" y1="162.23" x2="112.99" y2="157.09"/><line class="cls-39" x1="104.09" y1="162.23" x2="93.33" y2="161.65"/><line class="cls-39" x1="107.8" y1="167.76" x2="93.33" y2="161.65"/><circle class="cls-4" cx="104.08" cy="162.23" r="0.84"/><line class="cls-39" x1="111.92" y1="163.6" x2="105.25" y2="154.61"/><circle class="cls-4" cx="93.33" cy="161.65" r="0.84"/><circle class="cls-4" cx="105.25" cy="154.41" r="0.84"/><line class="cls-39" x1="111.72" y1="163.65" x2="107.56" y2="167.2"/><line class="cls-39" x1="101.17" y1="167.38" x2="113.2" y2="157.05"/><line class="cls-39" x1="113.19" y1="149.4" x2="120.29" y2="145.09"/><line class="cls-39" x1="128.1" y1="147.81" x2="120.15" y2="145.37"/><line class="cls-39" x1="122.46" y1="157.97" x2="120.15" y2="145.36"/><line class="cls-39" x1="118.99" y1="152.99" x2="127.89" y2="147.85"/><line class="cls-39" x1="118.99" y1="152.99" x2="112.62" y2="149.53"/><line class="cls-39" x1="122.7" y1="158.52" x2="112.27" y2="150.18"/><line class="cls-39" x1="130.37" y1="164.47" x2="120.15" y2="145.37"/><circle class="cls-4" cx="112.62" cy="149.86" r="0.84"/><line class="cls-39" x1="116.07" y1="158.14" x2="128.1" y2="147.81"/><line class="cls-39" x1="116.07" y1="158.42" x2="123.84" y2="155.2"/><line class="cls-39" x1="111.92" y1="163.6" x2="123.7" y2="155.48"/><line class="cls-39" x1="126.01" y1="168.08" x2="123.7" y2="155.47"/><line class="cls-39" x1="130.37" y1="164.47" x2="123.7" y2="155.48"/><circle class="cls-4" cx="123.7" cy="155.28" r="0.84"/><circle class="cls-4" cx="126.19" cy="152.55" r="0.84"/><circle class="cls-4" cx="128" cy="147.78" r="0.84"/><circle class="cls-4" cx="101.17" cy="167.38" r="0.84"/><line class="cls-39" x1="126.01" y1="168.08" x2="122.27" y2="158.43"/><circle class="cls-4" cx="122.54" cy="158.39" r="0.84"/><line class="cls-39" x1="118.31" y1="165.53" x2="120.15" y2="145.35"/><circle class="cls-4" cx="120.15" cy="145.17" r="0.84"/><circle class="cls-4" cx="118.98" cy="152.99" r="0.84"/><line class="cls-39" x1="111.66" y1="163.55" x2="117.81" y2="165.53"/><circle class="cls-4" cx="111.54" cy="163.45" r="0.84"/><line class="cls-39" x1="118.31" y1="165.53" x2="130.37" y2="164.47"/><line class="cls-39" x1="107.56" y1="167.2" x2="126.01" y2="168.08"/><circle class="cls-4" cx="107.59" cy="167.38" r="0.84"/><circle class="cls-4" cx="130.35" cy="164.45" r="0.84"/><circle class="cls-4" cx="125.98" cy="167.89" r="0.84"/><line class="cls-39" x1="109.65" y1="146.94" x2="118.31" y2="165.53"/><circle class="cls-4" cx="109.64" cy="146.94" r="0.84"/><circle class="cls-4" cx="118.31" cy="165.53" r="0.84"/><line class="cls-39" x1="93.33" y1="168.38" x2="97.62" y2="157.27"/><circle class="cls-4" cx="97.62" cy="157.27" r="0.84"/><circle class="cls-4" cx="93.33" cy="168.38" r="0.84"/><line class="cls-39" x1="127.29" y1="147.71" x2="134.39" y2="143.4"/><line class="cls-39" x1="142.2" y1="146.12" x2="134.26" y2="143.68"/><line class="cls-39" x1="136.56" y1="156.28" x2="134.26" y2="143.67"/><line class="cls-39" x1="133.09" y1="151.3" x2="142" y2="146.16"/><line class="cls-39" x1="133.09" y1="151.3" x2="126.73" y2="147.85"/><line class="cls-39" x1="136.81" y1="156.83" x2="126.37" y2="148.49"/><circle class="cls-4" cx="133.09" cy="151.3" r="0.84"/><line class="cls-39" x1="140.92" y1="152.67" x2="134.26" y2="143.68"/><circle class="cls-4" cx="126.73" cy="148.17" r="0.84"/><circle class="cls-4" cx="134.26" cy="143.49" r="0.84"/><line class="cls-39" x1="140.73" y1="152.73" x2="136.56" y2="156.28"/><line class="cls-39" x1="142.2" y1="146.12" x2="159.04" y2="152.01"/><circle class="cls-4" cx="136.6" cy="156.45" r="0.84"/><line class="cls-39" x1="142.39" y1="146.12" x2="140.92" y2="152.67"/><circle class="cls-4" cx="140.92" cy="152.68" r="0.84"/><line class="cls-39" x1="130.18" y1="156.45" x2="142.2" y2="146.12"/><line class="cls-39" x1="130.18" y1="156.73" x2="137.95" y2="153.51"/><line class="cls-39" x1="145.75" y1="156.23" x2="137.81" y2="153.79"/><line class="cls-39" x1="140.12" y1="166.39" x2="137.81" y2="153.78"/><line class="cls-39" x1="136.64" y1="161.41" x2="145.55" y2="156.27"/><line class="cls-39" x1="136.64" y1="161.41" x2="125.88" y2="160.83"/><line class="cls-39" x1="140.36" y1="166.94" x2="125.88" y2="160.83"/><circle class="cls-4" cx="136.64" cy="161.41" r="0.84"/><line class="cls-39" x1="144.47" y1="162.79" x2="137.81" y2="153.79"/><circle class="cls-4" cx="125.88" cy="160.83" r="0.84"/><circle class="cls-4" cx="137.81" cy="153.6" r="0.84"/><line class="cls-39" x1="144.28" y1="162.84" x2="140.12" y2="166.39"/><line class="cls-39" x1="133.73" y1="166.56" x2="145.75" y2="156.23"/><line class="cls-39" x1="145.74" y1="148.59" x2="152.84" y2="144.28"/><line class="cls-39" x1="160.65" y1="147" x2="152.71" y2="144.56"/><line class="cls-39" x1="155.02" y1="157.15" x2="152.71" y2="144.54"/><line class="cls-39" x1="151.54" y1="152.17" x2="160.45" y2="147.03"/><line class="cls-39" x1="151.54" y1="152.17" x2="145.18" y2="148.72"/><line class="cls-39" x1="155.26" y1="157.7" x2="144.82" y2="149.37"/><line class="cls-39" x1="162.92" y1="163.66" x2="152.71" y2="144.56"/><circle class="cls-4" cx="145.18" cy="149.04" r="0.84"/><line class="cls-39" x1="148.63" y1="157.33" x2="160.65" y2="147"/><line class="cls-39" x1="148.63" y1="157.61" x2="156.4" y2="154.39"/><line class="cls-39" x1="144.47" y1="162.79" x2="156.26" y2="154.67"/><line class="cls-39" x1="158.57" y1="167.26" x2="156.26" y2="154.65"/><line class="cls-39" x1="162.92" y1="163.66" x2="156.26" y2="154.67"/><circle class="cls-4" cx="156.26" cy="154.47" r="0.84"/><circle class="cls-4" cx="158.75" cy="151.74" r="0.84"/><circle class="cls-4" cx="160.55" cy="146.97" r="0.84"/><circle class="cls-4" cx="133.73" cy="166.56" r="0.84"/><line class="cls-39" x1="158.57" y1="167.26" x2="154.82" y2="157.62"/><circle class="cls-4" cx="155.09" cy="157.57" r="0.84"/><line class="cls-39" x1="150.86" y1="164.71" x2="152.71" y2="144.53"/><circle class="cls-4" cx="152.71" cy="144.36" r="0.84"/><circle class="cls-4" cx="151.54" cy="152.18" r="0.84"/><line class="cls-39" x1="144.22" y1="162.73" x2="150.37" y2="164.71"/><circle class="cls-4" cx="144.1" cy="162.63" r="0.84"/><line class="cls-39" x1="150.86" y1="164.71" x2="162.92" y2="163.66"/><line class="cls-39" x1="140.12" y1="166.39" x2="158.57" y2="167.26"/><circle class="cls-4" cx="140.15" cy="166.56" r="0.84"/><circle class="cls-4" cx="162.91" cy="163.63" r="0.84"/><circle class="cls-4" cx="158.53" cy="167.07" r="0.84"/><line class="cls-39" x1="142.2" y1="146.12" x2="150.86" y2="164.71"/><circle class="cls-4" cx="142.19" cy="146.12" r="0.84"/><circle class="cls-4" cx="150.86" cy="164.71" r="0.84"/><line class="cls-39" x1="125.88" y1="167.56" x2="130.18" y2="156.45"/><circle class="cls-4" cx="130.18" cy="156.45" r="0.84"/><circle class="cls-4" cx="125.88" cy="167.56" r="0.84"/><path class="cls-36" d="M225.29,123.74s6.28-17.31,5-23.31"/><path class="cls-36" d="M226.22,136.63s5.39-15.24,4.28-20.53"/><path class="cls-36" d="M228.16,148.47s3.14-8.65,2.49-11.66"/></svg>