<svg id="Layer_1" data-name="Layer 1" xmlns="http://www.w3.org/2000/svg" viewBox="0 0 408.83 262.75"><defs><style>.cls-1,.cls-28,.cls-33,.cls-36{fill:#fff;}.cls-1,.cls-14,.cls-15,.cls-16,.cls-17,.cls-19,.cls-24,.cls-26,.cls-27,.cls-28,.cls-3,.cls-30,.cls-4,.cls-5{stroke:#323e50;}.cls-1,.cls-14,.cls-15,.cls-16,.cls-17,.cls-19,.cls-23,.cls-24,.cls-26,.cls-27,.cls-28,.cls-3,.cls-30,.cls-33,.cls-35,.cls-4,.cls-5{stroke-miterlimit:10;}.cls-2{fill:#009fe3;}.cls-14,.cls-15,.cls-16,.cls-17,.cls-23,.cls-3,.cls-30,.cls-35,.cls-4{fill:none;}.cls-3,.cls-35{stroke-width:0.25px;}.cls-4{stroke-width:0.87px;}.cls-5,.cls-7{fill:#323e50;}.cls-27,.cls-28,.cls-30,.cls-5{stroke-width:0.86px;}.cls-6{fill:#c8cbcf;}.cls-8{fill:#2474ad;}.cls-9{fill:#344155;}.cls-10{fill:#f8ba98;}.cls-11{fill:#4c5b6d;}.cls-12{fill:#e30613;}.cls-13{fill:#2b7cc0;}.cls-14{stroke-width:2.58px;}.cls-15{stroke-width:1.72px;}.cls-17{stroke-width:0.82px;stroke-dasharray:2.35;}.cls-18{fill:#36a9e1;}.cls-19,.cls-22,.cls-26,.cls-27{fill:#f3f6f7;}.cls-20{fill:#1d1d1b;}.cls-21{fill:#879191;}.cls-23,.cls-33{stroke:#c8cbcf;}.cls-24,.cls-25{fill:#f2e6a6;}.cls-24,.cls-26{stroke-width:0.05px;}.cls-29{fill:#e24030;}.cls-31{fill:#333f51;}.cls-32{fill:#4298d3;}.cls-34{opacity:0.5;}.cls-35{stroke:#879191;}.cls-37{fill:#9eaaaa;}</style></defs><rect class="cls-1" x="258.8" y="48.05" width="114.18" height="79.22" transform="translate(631.79 175.31) rotate(-180)"/><circle class="cls-2" cx="280.12" cy="79.1" r="1.63"/><line class="cls-3" x1="299.91" y1="96.39" x2="281.09" y2="80.16"/><line class="cls-3" x1="299.91" y1="95.21" x2="299.91" y2="71"/><line class="cls-3" x1="299.91" y1="96.39" x2="319.33" y2="80.9"/><line class="cls-3" x1="301.12" y1="96.39" x2="325.35" y2="96.39"/><line class="cls-3" x1="299.91" y1="96.39" x2="314.24" y2="116.38"/><line class="cls-3" x1="299.91" y1="95.39" x2="300.47" y2="123.26"/><line class="cls-3" x1="299.91" y1="96.39" x2="281.75" y2="116.13"/><line class="cls-3" x1="299.91" y1="96.39" x2="281.2" y2="89.45"/><line class="cls-3" x1="306.02" y1="116.13" x2="301.53" y2="123.81"/><line class="cls-3" x1="314.31" y1="116.8" x2="306.02" y2="116.13"/><circle class="cls-2" cx="306.02" cy="116.13" r="1.63"/><circle class="cls-2" cx="300.95" cy="123.81" r="1.63"/><line class="cls-3" x1="288.62" y1="101.12" x2="281.75" y2="116.13"/><circle class="cls-2" cx="288.62" cy="101.12" r="1.63"/><circle class="cls-2" cx="281.2" cy="89.45" r="1.63"/><line class="cls-3" x1="299.91" y1="96.39" x2="310.37" y2="74.82"/><line class="cls-3" x1="281.2" y1="116.13" x2="292.12" y2="79.1"/><circle class="cls-2" cx="281.2" cy="116.13" r="1.63"/><line class="cls-3" x1="299.91" y1="96.39" x2="322.3" y2="106.96"/><circle class="cls-2" cx="322.3" cy="106.96" r="1.63"/><circle class="cls-2" cx="310.37" cy="74.82" r="1.63"/><line class="cls-3" x1="299.54" y1="96.07" x2="294.33" y2="113.36"/><circle class="cls-2" cx="294.75" cy="112.58" r="1.63"/><line class="cls-3" x1="320.01" y1="80.18" x2="311.1" y2="92.89"/><line class="cls-3" x1="314.24" y1="116.38" x2="311.59" y2="92.89"/><circle class="cls-2" cx="311.59" cy="92.89" r="1.63"/><line class="cls-3" x1="326.35" y1="96.07" x2="299.91" y2="71"/><circle class="cls-2" cx="326.35" cy="96.07" r="1.63"/><circle class="cls-2" cx="320.01" cy="80.18" r="1.63"/><circle class="cls-2" cx="314.65" cy="116.8" r="1.63"/><line class="cls-3" x1="299.91" y1="71" x2="292.12" y2="79.1"/><line class="cls-3" x1="299.54" y1="96.07" x2="292.12" y2="79.1"/><circle class="cls-2" cx="292.12" cy="79.1" r="1.63"/><circle class="cls-2" cx="299.54" cy="96.07" r="2.64"/><circle class="cls-2" cx="299.91" cy="70.94" r="1.63"/><line class="cls-4" x1="87.01" y1="181.62" x2="191.77" y2="181.62"/><rect class="cls-5" x="56.1" y="203.5" width="4.77" height="41.23" rx="1"/><rect class="cls-5" x="34.21" y="134.07" width="4.77" height="68.49" rx="1"/><path class="cls-6" d="M89.17,235.06v10.61s7.37,6.77,7.37,0v-6.78Z"/><path class="cls-7" d="M88.59,244.87a37.31,37.31,0,0,0-2.07,5.89c-.17,1.44,17.18,1.14,20.38-.62,1.78-1-1.24-3.29-3.11-4.12C99.5,244.11,88.59,244.87,88.59,244.87Z"/><path class="cls-8" d="M51.43,185.21c-2.4,1.2-2.11,9.51,0,11.2,7.73,6.18,36.47-1,38.8,0,3.21,1.38-2,41.64-2,41.64l10,.84s8.61-31.66,4.1-51.64C101,181.06,59.68,181.1,51.43,185.21Z"/><path class="cls-9" d="M73.67,155.88s-15.62,8.22-23.26,7.75l.07,7.39c10.33-1.68,23.23-7.51,23.23-7.51Z"/><path class="cls-10" d="M61.74,133.57v-8.84a55.13,55.13,0,0,1-4.1-5.5A69.44,69.44,0,0,1,54.89,111l22.78-8,.79,1s1.49,13.81,0,18.07c-.63,1.78-2.86,5.54-4.72,5.89-.89.17-3.5.38-3.5.38l-1,11Z"/><path class="cls-11" d="M69,139.41l-7.39-7.95s-11.13,5-13.82,7.95C42.05,145.72,35.45,161.5,38.1,168c3.94,9.64,35.46-4.62,35.46-4.62l0-7.62s-20.45,10.76-26,6.95c-1-.71-.4-3.82,0-5a18.15,18.15,0,0,1,2.65-3.54L50.47,186H77.28v-22.1s1.14,5.8,1.76,7.66c1.27,3.75,6.49,14.44,6.49,14.44H92s-4.44-13.1-5.31-16.65c-2-8.1-2-23.06-5.07-29.68-1.84-3.92-10.54-8.17-10.54-8.17H69.62Z"/><path class="cls-11" d="M50.44,137.39a15,15,0,0,0-2.59,2c-5.77,6.31-12.37,22.09-9.72,28.57,1.42,3.47,6.42,3.84,12.23,2.89Zm-2.88,25.3c-1-.71-.4-3.82,0-5a18.15,18.15,0,0,1,2.65-3.54l.08,9.34A5.37,5.37,0,0,1,47.56,162.69Z"/><path class="cls-12" d="M59.45,122.18c-1.72.53-3.57-4.25-3.93-6a27.61,27.61,0,0,1,0-9.51c.7-2.67,1.33-8.85,13.35-8.83,2.8,0,9.66,2,9.66,7.43,0,1.74-4,2.34-5.53,2.53A44.44,44.44,0,0,0,65.53,109c-1.34.49-3.62,3.68-4.36,4.91C59.85,116.13,61.9,121.42,59.45,122.18Z"/><path class="cls-10" d="M62.35,115.11c0,1.41-.7,2.55-1.57,2.55s-1.57-1.14-1.57-2.55.7-2.55,1.57-2.55S62.35,113.7,62.35,115.11Z"/><path class="cls-10" d="M73.59,156.48s1.85-2.1,2.71-2.13c2,0,6.32,2.65,6.57,4.64.13,1-2.13,3.67-2.13,3.67H73.59Z"/><path class="cls-6" d="M93.48,236.13v10.6s7.36,6.78,7.36,0V240Z"/><path class="cls-11" d="M73.55,155.88s-15.62,8.22-23.26,7.75l.07,7.39c10.33-1.68,23.23-7.51,23.23-7.51Z"/><path class="cls-13" d="M51.52,185.21c-2.53,1.2-2.23,9.51,0,11.2,8.16,6.18,38.5-1,40.95,0,3.39,1.38-1.64,41.64-1.64,41.64l10,1.91s9.19-32.73,4.44-52.71C103.8,181.06,60.23,181.1,51.52,185.21Z"/><path class="cls-7" d="M92.82,246.8a38,38,0,0,0-2,5.89c-.16,1.44,16.53,1.14,19.61-.62,1.7-1-1.2-3.29-3-4.12C103.32,246,92.82,246.8,92.82,246.8Z"/><rect class="cls-5" x="34.71" y="200.68" width="50.31" height="5.64" rx="1"/><line class="cls-14" x1="76.7" y1="249.63" x2="58.21" y2="244.36"/><line class="cls-14" x1="42.38" y1="249.63" x2="58.21" y2="244.36"/><path class="cls-7" d="M74.47,251a3.1,3.1,0,1,0,3.09-3.09A3.09,3.09,0,0,0,74.47,251Z"/><path class="cls-7" d="M37.56,251a3.1,3.1,0,1,0,3.1-3.09A3.1,3.1,0,0,0,37.56,251Z"/><line class="cls-15" x1="58.48" y1="242.94" x2="58.48" y2="255.28"/><circle class="cls-7" cx="58.48" cy="256.7" r="3.09"/><circle class="cls-16" cx="134.29" cy="51.21" r="21.24"/><polyline class="cls-17" points="113.05 110.04 134.88 110.05 134.88 78.76"/><circle class="cls-18" cx="134.88" cy="75.92" r="1.81"/><rect class="cls-19" x="91.62" y="106.13" width="91.49" height="63.47" rx="4" transform="translate(274.73 275.73) rotate(-180)"/><path class="cls-10" d="M277.29,174.46s.22,2.69-.35,3.29c-1.31,1.43-6.06,2.59-7.6,1.43-.81-.62-1.11-3.93-1.11-3.93l4.8-4.93Z"/><polygon class="cls-20" points="243.2 246.43 243.12 251.73 253.92 251.73 253.89 246.43 243.2 246.43"/><polygon class="cls-21" points="243.12 186.13 243.2 246.43 253.89 246.43 256.43 186.13 243.12 186.13"/><polygon class="cls-21" points="228.56 186.13 228.64 246.43 239.33 246.43 241.87 186.13 228.56 186.13"/><path class="cls-22" d="M227,145q-.06,3-.13,6-.15,7.86-.32,15.7c-.23,11.37-.47,2.74-.7,14.11-.11,5.09-.21.18-.32,5.27h32.72l.77-32s1.34,6.81,2.07,9c1.48,4.4,6.95,12.62,6.95,12.62l5.09-5.24s-2-5.81-3.05-10c-2.31-9.5-4.93-29-8.58-36.77-2.16-4.59-9.74-7.65-9.74-7.65H250l-.69,9.33-8.68-9.33c-.63-.67-6.55,2.56-7.31,3a21.13,21.13,0,0,0-6,5.06,23.8,23.8,0,0,0-4.1,9.63c-.83,3.6-1.95,7.8-1.36,11.49.62,3.87,3.45,5.91,7,7.08,8.23,2.75,17.18,2.18,25.8,1.18l-.06-9c-5.85,3.63-11.88,7.08-18.46,9.08"/><line class="cls-23" x1="249.41" y1="127.27" x2="249.41" y2="145.95"/><path class="cls-24" d="M237.05,106.89c-1.07-5.32,5.62-15.22,8.56-15.75,3.74-.67,10.82,9.37,12.59,15.75,1.56,5.61,4.66,3.12,5.16,9.68.37,4.9-2.07,20.5-3.87,23.42-4.55,7.42-16.66,47.43-16.66,47.43s.31-22.48-8-43.11c-6.41-16-3.41-36,2.2-37.42C240.32,106.06,238.25,112.81,237.05,106.89Z"/><polygon class="cls-20" points="228.64 246.43 228.56 251.73 239.43 251.73 239.33 246.43 228.64 246.43"/><path class="cls-25" d="M241.55,93c-1-4,5.3-11.53,8.08-11.93,3.52-.51,10.2,7.1,11.87,11.93,2.58,7.44,3.51,30-1.42,33.67-2.81,2.08-3.36-14.53-3.36-14.53s-1.82-10.35-3.44-12.71C251,96.13,242.68,97.51,241.55,93Z"/><path class="cls-26" d="M240.46,164.63s6.28-17.3,5-23.31"/><path class="cls-26" d="M241.83,175s6.28-17.3,5-23.3"/><path class="cls-26" d="M245.61,178.68s6.28-17.3,5-23.31"/><path class="cls-22" d="M245.61,182s6.28-17.3,5-23.31"/><path class="cls-25" d="M254,92.69c1-4-5.3-11.53-8.08-11.94-3.52-.51-10.2,7.11-11.88,11.94-2.57,7.43-3.5,30,1.43,33.67,2.81,2.08,3.36-14.54,3.36-14.54s1.82-10.34,3.44-12.7C244.55,95.81,252.89,97.18,254,92.69Z"/><path class="cls-26" d="M235.29,123.74s6.28-17.31,5-23.31"/><path class="cls-26" d="M236.22,136.63s5.39-15.24,4.28-20.53"/><path class="cls-26" d="M238.16,148.47s3.14-8.65,2.49-11.66"/><path class="cls-20" d="M265.09,55.41h-1v1.91h-.87v-5H265a2,2,0,0,1,1.33.38,1.38,1.38,0,0,1,.47,1.12,1.43,1.43,0,0,1-.24.84,1.68,1.68,0,0,1-.67.52L267,57.28v0h-.93Zm-1-.7H265a1,1,0,0,0,.68-.22.79.79,0,0,0,.25-.6.81.81,0,0,0-.23-.62A1,1,0,0,0,265,53h-.91Z"/><path class="cls-20" d="M269.18,57.39a1.73,1.73,0,0,1-1.28-.5,1.78,1.78,0,0,1-.49-1.32v-.1a2.25,2.25,0,0,1,.21-1,1.66,1.66,0,0,1,.6-.68,1.62,1.62,0,0,1,.86-.24,1.45,1.45,0,0,1,1.17.48,2,2,0,0,1,.41,1.36v.34h-2.41a1.08,1.08,0,0,0,.3.72.93.93,0,0,0,.68.27,1.15,1.15,0,0,0,.93-.46l.44.42a1.42,1.42,0,0,1-.59.52A1.87,1.87,0,0,1,269.18,57.39Zm-.1-3.17a.69.69,0,0,0-.55.24,1.25,1.25,0,0,0-.27.67h1.58v-.06a1,1,0,0,0-.22-.63A.67.67,0,0,0,269.08,54.22Z"/><path class="cls-20" d="M272.19,57.32h-.83V52.07h.83Z"/><path class="cls-20" d="M275.3,57.32a1.23,1.23,0,0,1-.09-.34,1.4,1.4,0,0,1-1.88.09,1,1,0,0,1-.35-.78,1,1,0,0,1,.44-.91,2.12,2.12,0,0,1,1.25-.32h.51v-.24a.65.65,0,0,0-.16-.46.66.66,0,0,0-.49-.17.68.68,0,0,0-.46.14.43.43,0,0,0-.18.36h-.84a.91.91,0,0,1,.21-.57,1.26,1.26,0,0,1,.54-.41,2,2,0,0,1,.78-.15,1.56,1.56,0,0,1,1,.32,1.21,1.21,0,0,1,.39.92v1.67a1.9,1.9,0,0,0,.14.79v.06Zm-.91-.6a.93.93,0,0,0,.46-.12.73.73,0,0,0,.33-.32v-.69h-.45a1.19,1.19,0,0,0-.69.16.51.51,0,0,0-.23.45.46.46,0,0,0,.16.38A.56.56,0,0,0,274.39,56.72Z"/><path class="cls-20" d="M277.92,52.72v.9h.65v.62h-.65V56.3a.44.44,0,0,0,.09.31.37.37,0,0,0,.29.09l.3,0v.64a2.22,2.22,0,0,1-.55.08c-.64,0-1-.35-1-1.06V54.24h-.61v-.62h.61v-.9Z"/><path class="cls-20" d="M279.21,52.66a.43.43,0,0,1,.12-.31.54.54,0,0,1,.7,0,.43.43,0,0,1,.12.31A.45.45,0,0,1,280,53a.57.57,0,0,1-.7,0A.45.45,0,0,1,279.21,52.66Zm.88,4.66h-.83v-3.7h.83Z"/><path class="cls-20" d="M280.84,55.44a2.11,2.11,0,0,1,.22-1,1.56,1.56,0,0,1,.6-.67,1.68,1.68,0,0,1,.9-.23,1.62,1.62,0,0,1,1.21.48,1.91,1.91,0,0,1,.51,1.28v.19a2.21,2.21,0,0,1-.21,1,1.54,1.54,0,0,1-.6.66,1.72,1.72,0,0,1-.91.24,1.6,1.6,0,0,1-1.25-.52,2,2,0,0,1-.47-1.39Zm.83.07a1.45,1.45,0,0,0,.24.89.74.74,0,0,0,.65.33.77.77,0,0,0,.66-.33,1.62,1.62,0,0,0,.23-1,1.47,1.47,0,0,0-.24-.89.77.77,0,0,0-.65-.33.78.78,0,0,0-.65.32A1.63,1.63,0,0,0,281.67,55.51Z"/><path class="cls-20" d="M285.75,53.62l0,.43a1.31,1.31,0,0,1,1.07-.49c.77,0,1.17.44,1.18,1.32v2.44h-.83V54.93a.8.8,0,0,0-.15-.53.65.65,0,0,0-.5-.16.81.81,0,0,0-.75.45v2.63H285v-3.7Z"/><path class="cls-20" d="M291,56.32a.38.38,0,0,0-.18-.34,2,2,0,0,0-.61-.21,3.32,3.32,0,0,1-.71-.22,1,1,0,0,1-.62-.87,1,1,0,0,1,.4-.8,1.57,1.57,0,0,1,1-.32,1.64,1.64,0,0,1,1.07.32,1.06,1.06,0,0,1,.41.85h-.83a.48.48,0,0,0-.18-.39.67.67,0,0,0-.47-.16.79.79,0,0,0-.45.12.42.42,0,0,0-.17.34.33.33,0,0,0,.16.3,2.19,2.19,0,0,0,.65.21,3.42,3.42,0,0,1,.77.26,1.12,1.12,0,0,1,.41.36.89.89,0,0,1,.14.5,1,1,0,0,1-.42.81,1.71,1.71,0,0,1-1.08.31,1.92,1.92,0,0,1-.81-.16,1.34,1.34,0,0,1-.56-.46,1,1,0,0,1-.19-.61h.8a.61.61,0,0,0,.22.45.86.86,0,0,0,.55.16.8.8,0,0,0,.5-.13A.39.39,0,0,0,291,56.32Z"/><path class="cls-20" d="M293.31,54a1.28,1.28,0,0,1,1-.47q1.17,0,1.2,1.35v2.41h-.83V54.94a.75.75,0,0,0-.17-.55.7.7,0,0,0-.49-.15.78.78,0,0,0-.74.44v2.64h-.83V52.07h.83Z"/><path class="cls-20" d="M296.38,52.66a.43.43,0,0,1,.12-.31.42.42,0,0,1,.34-.13.45.45,0,0,1,.35.13.43.43,0,0,1,.12.31.45.45,0,0,1-.12.32.48.48,0,0,1-.35.12.42.42,0,0,1-.46-.44Zm.88,4.66h-.83v-3.7h.83Z"/><path class="cls-20" d="M301.4,55.51a2.21,2.21,0,0,1-.39,1.37,1.35,1.35,0,0,1-2,.11v1.75h-.83V53.62h.77l0,.38a1.21,1.21,0,0,1,1-.44,1.25,1.25,0,0,1,1.06.5,2.31,2.31,0,0,1,.38,1.4Zm-.83-.07a1.53,1.53,0,0,0-.22-.88.69.69,0,0,0-.63-.32.76.76,0,0,0-.73.42V56.3a.79.79,0,0,0,.74.43.73.73,0,0,0,.62-.32A1.72,1.72,0,0,0,300.57,55.44Z"/><path class="cls-20" d="M304.17,56.32A.38.38,0,0,0,304,56a1.84,1.84,0,0,0-.6-.21,3.15,3.15,0,0,1-.71-.22.94.94,0,0,1-.63-.87,1,1,0,0,1,.41-.8,1.56,1.56,0,0,1,1-.32,1.67,1.67,0,0,1,1.08.32,1.06,1.06,0,0,1,.41.85h-.84a.51.51,0,0,0-.17-.39.68.68,0,0,0-.48-.16.74.74,0,0,0-.44.12.4.4,0,0,0-.17.34.33.33,0,0,0,.16.3,2.09,2.09,0,0,0,.65.21,3.31,3.31,0,0,1,.76.26,1.08,1.08,0,0,1,.42.36.89.89,0,0,1,.13.5,1,1,0,0,1-.41.81,1.76,1.76,0,0,1-1.09.31,1.92,1.92,0,0,1-.81-.16,1.31,1.31,0,0,1-.55-.46,1.06,1.06,0,0,1-.2-.61h.81a.58.58,0,0,0,.22.45.85.85,0,0,0,.54.16.79.79,0,0,0,.5-.13A.36.36,0,0,0,304.17,56.32Z"/><path class="cls-20" d="M310.7,55.51a2.2,2.2,0,0,1-.38,1.37,1.26,1.26,0,0,1-1.06.51,1.21,1.21,0,0,1-1-.47l0,.4h-.75V52.07h.83V54a1.2,1.2,0,0,1,1-.42,1.26,1.26,0,0,1,1.07.5,2.29,2.29,0,0,1,.38,1.4Zm-.83-.07a1.57,1.57,0,0,0-.21-.9.71.71,0,0,0-.61-.3.76.76,0,0,0-.76.47v1.52a.78.78,0,0,0,.76.48.68.68,0,0,0,.6-.29,1.41,1.41,0,0,0,.22-.88Z"/><path class="cls-20" d="M313,57.39a1.71,1.71,0,0,1-1.28-.5,1.78,1.78,0,0,1-.49-1.32v-.1a2.25,2.25,0,0,1,.21-1,1.59,1.59,0,0,1,.6-.68,1.62,1.62,0,0,1,.86-.24,1.46,1.46,0,0,1,1.17.48,2,2,0,0,1,.41,1.36v.34h-2.42a1.14,1.14,0,0,0,.31.72.9.9,0,0,0,.67.27,1.12,1.12,0,0,0,.93-.46l.45.42a1.49,1.49,0,0,1-.59.52A1.9,1.9,0,0,1,313,57.39Zm-.1-3.17a.69.69,0,0,0-.55.24,1.25,1.25,0,0,0-.27.67h1.58v-.06a1,1,0,0,0-.22-.63A.67.67,0,0,0,312.93,54.22Z"/><path class="cls-20" d="M316.2,52.72v.9h.65v.62h-.65V56.3a.44.44,0,0,0,.08.31.41.41,0,0,0,.3.09,1.43,1.43,0,0,0,.29,0v.64a2.15,2.15,0,0,1-.55.08c-.63,0-.95-.35-.95-1.06V54.24h-.61v-.62h.61v-.9Z"/><path class="cls-20" d="M320.73,56.18l.59-2.56h.81l-1,3.7h-.68l-.8-2.54-.77,2.54h-.69l-1-3.7H318l.6,2.53.76-2.53H320Z"/><path class="cls-20" d="M324.31,57.39a1.7,1.7,0,0,1-1.27-.5,1.79,1.79,0,0,1-.5-1.32v-.1a2.25,2.25,0,0,1,.22-1,1.58,1.58,0,0,1,1.46-.92,1.47,1.47,0,0,1,1.17.48,2,2,0,0,1,.41,1.36v.34h-2.42a1.14,1.14,0,0,0,.31.72.9.9,0,0,0,.67.27,1.15,1.15,0,0,0,.93-.46l.45.42a1.56,1.56,0,0,1-.59.52A1.92,1.92,0,0,1,324.31,57.39Zm-.09-3.17a.71.71,0,0,0-.56.24,1.25,1.25,0,0,0-.27.67H325v-.06a1,1,0,0,0-.22-.63A.67.67,0,0,0,324.22,54.22Z"/><path class="cls-20" d="M328.07,57.39a1.73,1.73,0,0,1-1.28-.5,1.78,1.78,0,0,1-.49-1.32v-.1a2.25,2.25,0,0,1,.21-1,1.73,1.73,0,0,1,.6-.68,1.62,1.62,0,0,1,.86-.24,1.45,1.45,0,0,1,1.17.48,2,2,0,0,1,.41,1.36v.34h-2.41a1.08,1.08,0,0,0,.3.72.93.93,0,0,0,.68.27,1.15,1.15,0,0,0,.93-.46l.45.42a1.52,1.52,0,0,1-.6.52A1.84,1.84,0,0,1,328.07,57.39Zm-.1-3.17a.69.69,0,0,0-.55.24,1.25,1.25,0,0,0-.27.67h1.58v-.06a1,1,0,0,0-.22-.63A.67.67,0,0,0,328,54.22Z"/><path class="cls-20" d="M331,53.62l0,.43a1.35,1.35,0,0,1,1.08-.49q1.15,0,1.17,1.32v2.44h-.83V54.93a.8.8,0,0,0-.15-.53.65.65,0,0,0-.5-.16.79.79,0,0,0-.74.45v2.63h-.83v-3.7Z"/><path class="cls-20" d="M263,63.85a2.26,2.26,0,0,1,.39-1.38,1.29,1.29,0,0,1,1.07-.51,1.19,1.19,0,0,1,.95.41v-1.9h.83v5.25h-.76l0-.38a1.23,1.23,0,0,1-1,.45,1.26,1.26,0,0,1-1.05-.52A2.28,2.28,0,0,1,263,63.85Zm.83.07a1.59,1.59,0,0,0,.21.88.71.71,0,0,0,.62.31.79.79,0,0,0,.75-.45V63.08a.77.77,0,0,0-.74-.44.68.68,0,0,0-.62.32A1.66,1.66,0,0,0,263.86,63.92Z"/><path class="cls-20" d="M269.34,65.72a1.23,1.23,0,0,1-.09-.34,1.32,1.32,0,0,1-1,.41,1.29,1.29,0,0,1-.91-.32,1,1,0,0,1-.35-.78,1,1,0,0,1,.44-.91,2.12,2.12,0,0,1,1.25-.32h.51v-.24a.65.65,0,0,0-.16-.46.66.66,0,0,0-.49-.17.68.68,0,0,0-.46.14.41.41,0,0,0-.19.36h-.83a.91.91,0,0,1,.21-.57,1.26,1.26,0,0,1,.54-.41,2,2,0,0,1,.78-.15,1.51,1.51,0,0,1,1,.32,1.18,1.18,0,0,1,.4.92v1.67a1.9,1.9,0,0,0,.14.79v.06Zm-.91-.6a.93.93,0,0,0,.46-.12.73.73,0,0,0,.33-.32V64h-.45a1.19,1.19,0,0,0-.69.16A.56.56,0,0,0,268,65,.6.6,0,0,0,268.43,65.12Z"/><path class="cls-20" d="M272,61.12V62h.65v.62H272V64.7a.44.44,0,0,0,.09.31.37.37,0,0,0,.29.09,1.53,1.53,0,0,0,.3,0v.64a2.22,2.22,0,0,1-.55.08c-.64,0-1-.35-1-1.06V62.64h-.61V62h.61v-.9Z"/><path class="cls-20" d="M275.46,65.72a1.17,1.17,0,0,1-.1-.34,1.31,1.31,0,0,1-1,.41,1.33,1.33,0,0,1-.91-.32,1,1,0,0,1-.35-.78,1.05,1.05,0,0,1,.44-.91,2.13,2.13,0,0,1,1.26-.32h.5v-.24a.65.65,0,0,0-.16-.46.64.64,0,0,0-.48-.17.71.71,0,0,0-.47.14.43.43,0,0,0-.18.36h-.83a1,1,0,0,1,.2-.57,1.35,1.35,0,0,1,.55-.41,1.92,1.92,0,0,1,.77-.15,1.54,1.54,0,0,1,1,.32,1.18,1.18,0,0,1,.4.92v1.67a1.91,1.91,0,0,0,.13.79v.06Zm-.91-.6A1,1,0,0,0,275,65a.76.76,0,0,0,.32-.32V64h-.44a1.23,1.23,0,0,0-.7.16.51.51,0,0,0-.23.45.46.46,0,0,0,.16.38A.6.6,0,0,0,274.55,65.12Z"/><path class="cls-20" d="M280.28,63.91a2.27,2.27,0,0,1-.38,1.37,1.26,1.26,0,0,1-1.06.51,1.21,1.21,0,0,1-1-.47l0,.4H277V60.47h.83v1.91a1.22,1.22,0,0,1,1-.42,1.24,1.24,0,0,1,1.06.5,2.22,2.22,0,0,1,.39,1.4Zm-.83-.07a1.57,1.57,0,0,0-.21-.9.71.71,0,0,0-.62-.3.77.77,0,0,0-.76.47v1.52a.79.79,0,0,0,.77.48.68.68,0,0,0,.6-.29,1.48,1.48,0,0,0,.22-.88Z"/><path class="cls-20" d="M283.19,65.72a1.17,1.17,0,0,1-.1-.34,1.31,1.31,0,0,1-1,.41,1.33,1.33,0,0,1-.91-.32,1,1,0,0,1-.35-.78,1,1,0,0,1,.44-.91,2.12,2.12,0,0,1,1.25-.32h.51v-.24a.58.58,0,0,0-.65-.63.68.68,0,0,0-.46.14.43.43,0,0,0-.18.36h-.83a.9.9,0,0,1,.2-.57,1.29,1.29,0,0,1,.55-.41,1.92,1.92,0,0,1,.77-.15,1.56,1.56,0,0,1,1,.32,1.18,1.18,0,0,1,.39.92v1.67a1.9,1.9,0,0,0,.14.79v.06Zm-.92-.6a1,1,0,0,0,.47-.12.76.76,0,0,0,.32-.32V64h-.44a1.23,1.23,0,0,0-.7.16.51.51,0,0,0-.23.45.46.46,0,0,0,.16.38A.58.58,0,0,0,282.27,65.12Z"/><path class="cls-20" d="M286.84,64.72a.37.37,0,0,0-.19-.34,1.84,1.84,0,0,0-.6-.21,3.15,3.15,0,0,1-.71-.22.93.93,0,0,1-.62-.87,1,1,0,0,1,.4-.8,1.57,1.57,0,0,1,1-.32,1.64,1.64,0,0,1,1.07.32,1.06,1.06,0,0,1,.41.85h-.83a.48.48,0,0,0-.18-.39.67.67,0,0,0-.47-.16.75.75,0,0,0-.45.12.4.4,0,0,0-.17.34.33.33,0,0,0,.16.3,2.19,2.19,0,0,0,.65.21,2.89,2.89,0,0,1,.76.26,1.08,1.08,0,0,1,.42.36.89.89,0,0,1,.13.5,1,1,0,0,1-.41.81,1.75,1.75,0,0,1-1.08.31,1.86,1.86,0,0,1-.81-.16,1.28,1.28,0,0,1-.56-.46,1.06,1.06,0,0,1-.2-.61h.81a.61.61,0,0,0,.22.45.86.86,0,0,0,.55.16.8.8,0,0,0,.5-.13A.39.39,0,0,0,286.84,64.72Z"/><path class="cls-20" d="M290,65.79a1.74,1.74,0,0,1-1.28-.5,1.82,1.82,0,0,1-.49-1.32v-.1a2.12,2.12,0,0,1,.22-1,1.59,1.59,0,0,1,.6-.68,1.57,1.57,0,0,1,.86-.24,1.47,1.47,0,0,1,1.17.48,2,2,0,0,1,.41,1.36v.34h-2.42a1.14,1.14,0,0,0,.31.72.89.89,0,0,0,.67.27,1.15,1.15,0,0,0,.93-.46l.45.42a1.56,1.56,0,0,1-.59.52A1.92,1.92,0,0,1,290,65.79Zm-.1-3.17a.71.71,0,0,0-.55.24,1.25,1.25,0,0,0-.27.67h1.59v-.06a1.13,1.13,0,0,0-.22-.64A.72.72,0,0,0,289.9,62.62Z"/><path class="cls-20" d="M294.21,64.72a.39.39,0,0,0-.19-.34,1.84,1.84,0,0,0-.6-.21,3.15,3.15,0,0,1-.71-.22.93.93,0,0,1-.62-.87,1,1,0,0,1,.4-.8,1.57,1.57,0,0,1,1-.32,1.66,1.66,0,0,1,1.07.32,1.05,1.05,0,0,1,.4.85h-.83a.48.48,0,0,0-.17-.39.67.67,0,0,0-.47-.16.75.75,0,0,0-.45.12.4.4,0,0,0-.17.34.33.33,0,0,0,.16.3,2.09,2.09,0,0,0,.65.21,2.89,2.89,0,0,1,.76.26,1.08,1.08,0,0,1,.42.36.89.89,0,0,1,.13.5,1,1,0,0,1-.41.81,1.75,1.75,0,0,1-1.08.31,1.86,1.86,0,0,1-.81-.16,1.28,1.28,0,0,1-.56-.46,1.06,1.06,0,0,1-.2-.61h.81A.61.61,0,0,0,293,65a.86.86,0,0,0,.55.16A.82.82,0,0,0,294,65,.39.39,0,0,0,294.21,64.72Z"/><path class="cls-20" d="M295.86,66.84l-.45-.26a2.19,2.19,0,0,0,.28-.55,1.84,1.84,0,0,0,.07-.47v-.64h.75v.6a1.6,1.6,0,0,1-.18.72A1.68,1.68,0,0,1,295.86,66.84Z"/><path class="cls-20" d="M301.1,64.72a.38.38,0,0,0-.18-.34,2,2,0,0,0-.61-.21,3.32,3.32,0,0,1-.71-.22,1,1,0,0,1-.62-.87,1,1,0,0,1,.4-.8,1.57,1.57,0,0,1,1-.32,1.64,1.64,0,0,1,1.07.32,1.06,1.06,0,0,1,.41.85h-.83a.48.48,0,0,0-.18-.39.67.67,0,0,0-.47-.16.79.79,0,0,0-.45.12.42.42,0,0,0-.17.34.33.33,0,0,0,.16.3,2.19,2.19,0,0,0,.65.21,3,3,0,0,1,.77.26,1.12,1.12,0,0,1,.41.36.89.89,0,0,1,.14.5,1,1,0,0,1-.42.81,1.71,1.71,0,0,1-1.08.31,1.92,1.92,0,0,1-.81-.16,1.34,1.34,0,0,1-.56-.46,1,1,0,0,1-.19-.61h.8a.59.59,0,0,0,.23.45,1,1,0,0,0,1,0A.39.39,0,0,0,301.1,64.72Z"/><path class="cls-20" d="M303.68,61.12V62h.65v.62h-.65V64.7a.5.5,0,0,0,.08.31.41.41,0,0,0,.3.09,1.36,1.36,0,0,0,.29,0v.64a2.14,2.14,0,0,1-.54.08c-.64,0-1-.35-1-1.06V62.64h-.61V62h.61v-.9Z"/><path class="cls-20" d="M307.18,65.72a1.17,1.17,0,0,1-.1-.34,1.31,1.31,0,0,1-1,.41,1.33,1.33,0,0,1-.91-.32,1,1,0,0,1-.35-.78,1.05,1.05,0,0,1,.44-.91,2.13,2.13,0,0,1,1.26-.32h.5v-.24a.58.58,0,0,0-.65-.63.7.7,0,0,0-.46.14.43.43,0,0,0-.18.36h-.83a.9.9,0,0,1,.2-.57,1.29,1.29,0,0,1,.55-.41,1.92,1.92,0,0,1,.77-.15,1.54,1.54,0,0,1,1,.32,1.18,1.18,0,0,1,.4.92v1.67a1.91,1.91,0,0,0,.13.79v.06Zm-.92-.6a1,1,0,0,0,.47-.12.76.76,0,0,0,.32-.32V64h-.44a1.23,1.23,0,0,0-.7.16.51.51,0,0,0-.23.45.46.46,0,0,0,.16.38A.59.59,0,0,0,306.26,65.12Z"/><path class="cls-20" d="M309.53,62l0,.43a1.32,1.32,0,0,1,1.08-.49q1.15,0,1.17,1.32v2.44H311V63.33a.8.8,0,0,0-.15-.53.65.65,0,0,0-.5-.16.81.81,0,0,0-.75.45v2.63h-.83V62Z"/><path class="cls-20" d="M312.49,63.85a2.2,2.2,0,0,1,.4-1.38A1.27,1.27,0,0,1,314,62a1.19,1.19,0,0,1,.95.41v-1.9h.83v5.25H315l0-.38a1.23,1.23,0,0,1-1,.45,1.26,1.26,0,0,1-1.05-.52A2.35,2.35,0,0,1,312.49,63.85Zm.83.07a1.51,1.51,0,0,0,.22.88.7.7,0,0,0,.62.31.78.78,0,0,0,.74-.45V63.08a.76.76,0,0,0-.74-.44.69.69,0,0,0-.62.32A1.66,1.66,0,0,0,313.32,63.92Z"/><path class="cls-20" d="M318.81,65.72a1.17,1.17,0,0,1-.1-.34,1.31,1.31,0,0,1-1,.41,1.33,1.33,0,0,1-.91-.32,1,1,0,0,1-.35-.78,1.05,1.05,0,0,1,.44-.91,2.13,2.13,0,0,1,1.26-.32h.5v-.24a.65.65,0,0,0-.16-.46.64.64,0,0,0-.48-.17.71.71,0,0,0-.47.14.43.43,0,0,0-.18.36h-.83a1,1,0,0,1,.2-.57,1.29,1.29,0,0,1,.55-.41,1.92,1.92,0,0,1,.77-.15,1.54,1.54,0,0,1,1,.32,1.18,1.18,0,0,1,.4.92v1.67a1.91,1.91,0,0,0,.13.79v.06Zm-.92-.6a1,1,0,0,0,.47-.12.76.76,0,0,0,.32-.32V64h-.44a1.23,1.23,0,0,0-.7.16.51.51,0,0,0-.23.45.46.46,0,0,0,.16.38A.59.59,0,0,0,317.89,65.12Z"/><path class="cls-20" d="M322.32,62.78a1.87,1.87,0,0,0-.34,0,.77.77,0,0,0-.77.44v2.53h-.83V62h.8l0,.42A.94.94,0,0,1,322,62a.78.78,0,0,1,.29,0Z"/><path class="cls-20" d="M322.63,63.85a2.26,2.26,0,0,1,.39-1.38,1.29,1.29,0,0,1,1.07-.51,1.19,1.19,0,0,1,1,.41v-1.9h.83v5.25h-.76l0-.38a1.23,1.23,0,0,1-1,.45,1.26,1.26,0,0,1-1.05-.52A2.28,2.28,0,0,1,322.63,63.85Zm.83.07a1.59,1.59,0,0,0,.21.88.71.71,0,0,0,.62.31.79.79,0,0,0,.75-.45V63.08a.77.77,0,0,0-.74-.44.68.68,0,0,0-.62.32A1.66,1.66,0,0,0,323.46,63.92Z"/><path class="cls-20" d="M328.8,64.72a.38.38,0,0,0-.18-.34,1.84,1.84,0,0,0-.6-.21,3.15,3.15,0,0,1-.71-.22.93.93,0,0,1-.62-.87,1,1,0,0,1,.4-.8,1.57,1.57,0,0,1,1-.32,1.66,1.66,0,0,1,1.07.32,1.06,1.06,0,0,1,.41.85h-.84a.48.48,0,0,0-.17-.39.67.67,0,0,0-.47-.16.77.77,0,0,0-.45.12.4.4,0,0,0-.17.34.33.33,0,0,0,.16.3,2.09,2.09,0,0,0,.65.21,2.89,2.89,0,0,1,.76.26,1.08,1.08,0,0,1,.42.36.89.89,0,0,1,.13.5,1,1,0,0,1-.41.81,1.75,1.75,0,0,1-1.08.31,1.94,1.94,0,0,1-.82-.16,1.31,1.31,0,0,1-.55-.46,1.06,1.06,0,0,1-.2-.61h.81a.61.61,0,0,0,.22.45.86.86,0,0,0,.55.16.82.82,0,0,0,.5-.13A.38.38,0,0,0,328.8,64.72Z"/><path class="cls-20" d="M330.46,66.84l-.44-.26a2.5,2.5,0,0,0,.27-.55,1.49,1.49,0,0,0,.07-.47v-.64h.75v.6a1.6,1.6,0,0,1-.18.72A1.68,1.68,0,0,1,330.46,66.84Z"/><path class="cls-20" d="M335.84,65.72a1.17,1.17,0,0,1-.1-.34,1.31,1.31,0,0,1-1,.41,1.33,1.33,0,0,1-.91-.32,1,1,0,0,1-.35-.78,1,1,0,0,1,.44-.91,2.12,2.12,0,0,1,1.25-.32h.51v-.24a.58.58,0,0,0-.65-.63.7.7,0,0,0-.46.14.43.43,0,0,0-.18.36h-.83a.9.9,0,0,1,.2-.57,1.29,1.29,0,0,1,.55-.41,1.92,1.92,0,0,1,.77-.15,1.54,1.54,0,0,1,1,.32,1.18,1.18,0,0,1,.39.92v1.67a1.9,1.9,0,0,0,.14.79v.06Zm-.92-.6a1,1,0,0,0,.47-.12.76.76,0,0,0,.32-.32V64h-.44a1.23,1.23,0,0,0-.7.16.51.51,0,0,0-.23.45.46.46,0,0,0,.16.38A.58.58,0,0,0,334.92,65.12Z"/><path class="cls-20" d="M338.18,62l0,.43a1.32,1.32,0,0,1,1.08-.49c.76,0,1.16.44,1.17,1.32v2.44h-.83V63.33a.8.8,0,0,0-.15-.53.65.65,0,0,0-.5-.16.81.81,0,0,0-.75.45v2.63h-.83V62Z"/><path class="cls-20" d="M341.15,63.85a2.2,2.2,0,0,1,.4-1.38,1.27,1.27,0,0,1,1.06-.51,1.19,1.19,0,0,1,.95.41v-1.9h.83v5.25h-.75l0-.38a1.23,1.23,0,0,1-1,.45,1.26,1.26,0,0,1-1.05-.52A2.35,2.35,0,0,1,341.15,63.85Zm.83.07a1.51,1.51,0,0,0,.22.88.7.7,0,0,0,.62.31.78.78,0,0,0,.74-.45V63.08a.76.76,0,0,0-.74-.44.69.69,0,0,0-.62.32A1.66,1.66,0,0,0,342,63.92Z"/><path class="cls-20" d="M350.24,63.91a2.21,2.21,0,0,1-.39,1.37,1.25,1.25,0,0,1-1.05.51,1.24,1.24,0,0,1-1-.4v1.75H347V62h.76l0,.38a1.19,1.19,0,0,1,1-.44,1.24,1.24,0,0,1,1.06.5,2.24,2.24,0,0,1,.39,1.4Zm-.83-.07a1.53,1.53,0,0,0-.22-.88.7.7,0,0,0-.63-.32.76.76,0,0,0-.73.42V64.7a.78.78,0,0,0,.74.43.73.73,0,0,0,.62-.32A1.72,1.72,0,0,0,349.41,63.84Z"/><path class="cls-20" d="M350.79,63.84a2.24,2.24,0,0,1,.21-1,1.59,1.59,0,0,1,.61-.67,1.81,1.81,0,0,1,2.11.25,1.86,1.86,0,0,1,.5,1.28v.19a2.24,2.24,0,0,1-.21,1,1.48,1.48,0,0,1-.6.66,1.68,1.68,0,0,1-.9.24,1.59,1.59,0,0,1-1.25-.52,2,2,0,0,1-.47-1.39Zm.83.07a1.52,1.52,0,0,0,.23.89.77.77,0,0,0,.66.33.74.74,0,0,0,.65-.33,1.62,1.62,0,0,0,.24-1,1.47,1.47,0,0,0-.24-.89.81.81,0,0,0-1.3,0A1.63,1.63,0,0,0,351.62,63.91Z"/><path class="cls-20" d="M355.81,65.72H355V60.47h.83Z"/><path class="cls-20" d="M356.72,61.06a.43.43,0,0,1,.12-.31.45.45,0,0,1,.35-.13.42.42,0,0,1,.34.13.4.4,0,0,1,.13.31.42.42,0,0,1-.13.32.45.45,0,0,1-.34.12.48.48,0,0,1-.35-.12A.45.45,0,0,1,356.72,61.06Zm.88,4.66h-.83V62h.83Z"/><path class="cls-20" d="M360,65.13a.77.77,0,0,0,.52-.18.65.65,0,0,0,.22-.45h.78a1.18,1.18,0,0,1-.22.64,1.4,1.4,0,0,1-.54.48,1.72,1.72,0,0,1-.75.17,1.58,1.58,0,0,1-1.23-.5,2,2,0,0,1-.45-1.39v-.09a2,2,0,0,1,.45-1.35A1.55,1.55,0,0,1,360,62a1.48,1.48,0,0,1,1.07.38,1.36,1.36,0,0,1,.44,1h-.78a.73.73,0,0,0-.22-.52.7.7,0,0,0-.52-.21.74.74,0,0,0-.62.29,1.46,1.46,0,0,0-.22.89v.13a1.57,1.57,0,0,0,.21.9A.74.74,0,0,0,360,65.13Z"/><path class="cls-20" d="M362.17,61.06a.43.43,0,0,1,.12-.31.45.45,0,0,1,.35-.13.42.42,0,0,1,.34.13.4.4,0,0,1,.13.31.42.42,0,0,1-.13.32.45.45,0,0,1-.34.12.48.48,0,0,1-.35-.12A.45.45,0,0,1,362.17,61.06Zm.88,4.66h-.83V62h.83Z"/><path class="cls-20" d="M365.58,65.79a1.73,1.73,0,0,1-1.28-.5,1.78,1.78,0,0,1-.49-1.32v-.1a2.12,2.12,0,0,1,.22-1,1.59,1.59,0,0,1,.6-.68,1.57,1.57,0,0,1,.86-.24,1.44,1.44,0,0,1,1.16.48,2,2,0,0,1,.41,1.36v.34h-2.41a1.09,1.09,0,0,0,.31.72.89.89,0,0,0,.67.27,1.15,1.15,0,0,0,.93-.46l.45.42a1.52,1.52,0,0,1-.6.52A1.84,1.84,0,0,1,365.58,65.79Zm-.1-3.17a.71.71,0,0,0-.55.24,1.25,1.25,0,0,0-.27.67h1.58v-.06a1,1,0,0,0-.22-.64A.7.7,0,0,0,365.48,62.62Z"/><path class="cls-20" d="M369.78,64.72a.38.38,0,0,0-.18-.34,1.82,1.82,0,0,0-.61-.21,3,3,0,0,1-.7-.22.94.94,0,0,1-.63-.87,1,1,0,0,1,.41-.8,1.56,1.56,0,0,1,1-.32,1.63,1.63,0,0,1,1.07.32,1,1,0,0,1,.41.85h-.83a.48.48,0,0,0-.18-.39.64.64,0,0,0-.47-.16.74.74,0,0,0-.44.12.41.41,0,0,0-.18.34.34.34,0,0,0,.17.3,2.09,2.09,0,0,0,.65.21,2.89,2.89,0,0,1,.76.26,1.08,1.08,0,0,1,.42.36,1,1,0,0,1,.13.5,1,1,0,0,1-.41.81,1.76,1.76,0,0,1-1.09.31,1.92,1.92,0,0,1-.81-.16,1.31,1.31,0,0,1-.55-.46,1.06,1.06,0,0,1-.2-.61h.81a.58.58,0,0,0,.22.45.85.85,0,0,0,.54.16.79.79,0,0,0,.5-.13A.36.36,0,0,0,369.78,64.72Z"/><rect class="cls-20" x="370.5" y="124.8" width="2.9" height="2.9"/><rect class="cls-20" x="369.95" y="47.7" width="2.9" height="2.9"/><rect class="cls-20" x="258.95" y="47.7" width="2.9" height="2.9"/><circle class="cls-2" cx="125.06" cy="38.59" r="0.68"/><line class="cls-3" x1="133.35" y1="45.83" x2="125.47" y2="39.03"/><line class="cls-3" x1="133.35" y1="45.34" x2="133.35" y2="35.19"/><line class="cls-3" x1="133.35" y1="45.83" x2="141.5" y2="39.34"/><line class="cls-3" x1="133.86" y1="45.83" x2="144.02" y2="45.83"/><line class="cls-3" x1="133.35" y1="45.83" x2="139.36" y2="54.21"/><line class="cls-3" x1="133.35" y1="45.41" x2="133.59" y2="57.09"/><line class="cls-3" x1="133.35" y1="45.83" x2="125.74" y2="54.11"/><line class="cls-3" x1="133.35" y1="45.83" x2="125.51" y2="42.92"/><line class="cls-3" x1="135.91" y1="54.11" x2="134.04" y2="57.33"/><line class="cls-3" x1="139.39" y1="54.39" x2="135.91" y2="54.11"/><circle class="cls-2" cx="135.91" cy="54.11" r="0.68"/><circle class="cls-2" cx="133.79" cy="57.33" r="0.68"/><line class="cls-3" x1="128.62" y1="47.82" x2="125.74" y2="54.11"/><circle class="cls-2" cx="128.62" cy="47.82" r="0.68"/><circle class="cls-2" cx="125.51" cy="42.92" r="0.68"/><line class="cls-3" x1="133.35" y1="45.83" x2="137.74" y2="36.79"/><line class="cls-3" x1="125.51" y1="54.11" x2="130.09" y2="38.59"/><circle class="cls-2" cx="125.51" cy="54.11" r="0.68"/><line class="cls-3" x1="133.35" y1="45.83" x2="142.74" y2="50.26"/><circle class="cls-2" cx="142.74" cy="50.26" r="0.68"/><circle class="cls-2" cx="137.74" cy="36.79" r="0.68"/><line class="cls-3" x1="133.2" y1="45.7" x2="131.02" y2="52.94"/><circle class="cls-2" cx="131.19" cy="52.62" r="0.68"/><line class="cls-3" x1="141.78" y1="39.04" x2="138.05" y2="44.36"/><line class="cls-3" x1="139.36" y1="54.21" x2="138.25" y2="44.36"/><circle class="cls-2" cx="138.25" cy="44.36" r="0.68"/><line class="cls-3" x1="144.44" y1="45.7" x2="133.35" y2="35.19"/><circle class="cls-2" cx="144.44" cy="45.7" r="0.68"/><circle class="cls-2" cx="141.78" cy="39.04" r="0.68"/><circle class="cls-2" cx="139.53" cy="54.39" r="0.68"/><line class="cls-3" x1="133.35" y1="35.19" x2="130.09" y2="38.59"/><line class="cls-3" x1="133.2" y1="45.7" x2="130.09" y2="38.59"/><circle class="cls-2" cx="130.09" cy="38.59" r="0.68"/><circle class="cls-2" cx="133.2" cy="45.7" r="1.11"/><circle class="cls-2" cx="133.35" cy="35.17" r="0.68"/><rect class="cls-7" x="134.91" y="165.8" width="4.8" height="12.6"/><rect class="cls-27" x="91.69" y="106.23" width="91.7" height="63.62" rx="4"/><rect class="cls-28" x="96.02" y="110.16" width="82.58" height="50.28" rx="1"/><path class="cls-29" d="M100.11,113A1.12,1.12,0,1,1,99,111.86,1.12,1.12,0,0,1,100.11,113Z"/><line class="cls-30" x1="96.24" y1="116.34" x2="178.38" y2="116.34"/><rect class="cls-7" x="127.4" y="178.03" width="19.81" height="1.35"/><path class="cls-31" d="M128,63.6a1.4,1.4,0,0,1-.64.46,2.67,2.67,0,0,1-.93.15,1.86,1.86,0,0,1-1-.24,1.59,1.59,0,0,1-.64-.69,2.54,2.54,0,0,1-.23-1.06v-.33a2.23,2.23,0,0,1,.46-1.51,1.59,1.59,0,0,1,1.29-.55,1.69,1.69,0,0,1,1.14.36,1.55,1.55,0,0,1,.5,1h-.73a.82.82,0,0,0-.89-.77.89.89,0,0,0-.76.36,1.88,1.88,0,0,0-.27,1.05v.33a1.75,1.75,0,0,0,.29,1.07,1,1,0,0,0,.82.38,1.07,1.07,0,0,0,.8-.25v-.84h-.87V62H128Z"/><path class="cls-31" d="M130.37,61.64a1.43,1.43,0,0,0-.29,0,.65.65,0,0,0-.66.38v2.17h-.71V61h.68v.35a.82.82,0,0,1,.72-.41.62.62,0,0,1,.25,0Z"/><path class="cls-31" d="M132.62,64.16a1,1,0,0,1-.08-.3,1.09,1.09,0,0,1-.83.35,1.12,1.12,0,0,1-.78-.27.86.86,0,0,1-.3-.67.88.88,0,0,1,.38-.78,1.8,1.8,0,0,1,1.07-.27h.44V62a.56.56,0,0,0-.14-.39.54.54,0,0,0-.42-.15.65.65,0,0,0-.4.12.39.39,0,0,0-.15.31h-.71a.77.77,0,0,1,.17-.49,1.06,1.06,0,0,1,.47-.35,1.59,1.59,0,0,1,.66-.13,1.32,1.32,0,0,1,.89.28,1,1,0,0,1,.34.78v1.43a1.64,1.64,0,0,0,.12.69v0Zm-.78-.52a.82.82,0,0,0,.4-.1.73.73,0,0,0,.28-.27v-.6h-.39a1,1,0,0,0-.59.14.45.45,0,0,0-.2.39.42.42,0,0,0,.14.32A.52.52,0,0,0,131.84,63.64Z"/><path class="cls-31" d="M136.75,62.6a1.92,1.92,0,0,1-.33,1.18,1.08,1.08,0,0,1-.9.43,1,1,0,0,1-.83-.34v1.51H134V61h.66l0,.32a1,1,0,0,1,.85-.38,1.07,1.07,0,0,1,.91.43,1.94,1.94,0,0,1,.33,1.2Zm-.71-.06a1.28,1.28,0,0,0-.19-.75.59.59,0,0,0-.54-.28.64.64,0,0,0-.62.36v1.41a.66.66,0,0,0,.63.37.6.6,0,0,0,.53-.28A1.43,1.43,0,0,0,136,62.54Z"/><path class="cls-31" d="M138.05,61.33a1.13,1.13,0,0,1,.89-.4c.67,0,1,.38,1,1.15v2.08h-.72v-2a.59.59,0,0,0-.14-.46.57.57,0,0,0-.42-.14.71.71,0,0,0-.64.38v2.27h-.71v-4.5h.71Z"/><path class="cls-31" d="M142.46,63.29a.33.33,0,0,0-.16-.29,1.72,1.72,0,0,0-.52-.17,3,3,0,0,1-.6-.19.83.83,0,0,1-.54-.75.87.87,0,0,1,.35-.69,1.38,1.38,0,0,1,.88-.27,1.42,1.42,0,0,1,.92.28.9.9,0,0,1,.35.73h-.71a.41.41,0,0,0-.16-.34.57.57,0,0,0-.4-.14.63.63,0,0,0-.38.11.34.34,0,0,0-.15.29.29.29,0,0,0,.14.25,1.73,1.73,0,0,0,.55.19,2.41,2.41,0,0,1,.66.22.91.91,0,0,1,.36.3.87.87,0,0,1,.11.44.84.84,0,0,1-.35.69,1.51,1.51,0,0,1-.93.26,1.59,1.59,0,0,1-.7-.14,1.12,1.12,0,0,1-.47-.38,1,1,0,0,1-.17-.53h.69a.46.46,0,0,0,.19.38.69.69,0,0,0,.47.14.64.64,0,0,0,.42-.11A.32.32,0,0,0,142.46,63.29Z"/><g id="icon-server"><path class="cls-32" d="M120.12,141a9.46,9.46,0,0,1,1.21.08,6.6,6.6,0,0,1,1.08.24,2.13,2.13,0,0,1,.78.41.78.78,0,0,1,.3.59V147a.76.76,0,0,1-.3.59,2.13,2.13,0,0,1-.78.41,5.71,5.71,0,0,1-1.08.24,9.19,9.19,0,0,1-2.42,0,5.54,5.54,0,0,1-1.08-.24,2,2,0,0,1-.78-.41.76.76,0,0,1-.3-.59v-4.62a.78.78,0,0,1,.3-.59,2,2,0,0,1,.78-.41,6.38,6.38,0,0,1,1.08-.24A9.46,9.46,0,0,1,120.12,141Zm2.76,5.94v-1.51a4.2,4.2,0,0,1-1.21.39,9.31,9.31,0,0,1-3.1,0,4.1,4.1,0,0,1-1.21-.39V147a.27.27,0,0,0,.13.14,1.91,1.91,0,0,0,.35.17,4.34,4.34,0,0,0,.54.17,5.82,5.82,0,0,0,.77.13,9.43,9.43,0,0,0,1.94,0,5.38,5.38,0,0,0,.76-.13,4.53,4.53,0,0,0,.55-.17,1.91,1.91,0,0,0,.35-.17C122.82,147.06,122.87,147,122.88,147Zm0-2.31v-1.51a4.2,4.2,0,0,1-1.21.39,9.31,9.31,0,0,1-3.1,0,4.1,4.1,0,0,1-1.21-.39v1.51s0,.08.13.14a1.91,1.91,0,0,0,.35.17,4.34,4.34,0,0,0,.54.17,5.82,5.82,0,0,0,.77.13c.31,0,.63.05,1,.05s.66,0,1-.05a5.38,5.38,0,0,0,.76-.13,4.53,4.53,0,0,0,.55-.17,2.3,2.3,0,0,0,.35-.17c.07-.06.12-.1.13-.14Zm-2.76-3a9.61,9.61,0,0,0-1,.05,7.36,7.36,0,0,0-.76.13,4.53,4.53,0,0,0-.55.17,1.91,1.91,0,0,0-.35.17.36.36,0,0,0-.14.14s.06.09.14.14a1.42,1.42,0,0,0,.35.17,4.53,4.53,0,0,0,.55.17,5.38,5.38,0,0,0,.76.13,9.24,9.24,0,0,0,1.92,0,5.38,5.38,0,0,0,.76-.13,4.53,4.53,0,0,0,.55-.17,1.63,1.63,0,0,0,.35-.17.14.14,0,1,0,0-.28,2.3,2.3,0,0,0-.35-.17,4.53,4.53,0,0,0-.55-.17,7.36,7.36,0,0,0-.76-.13A9.61,9.61,0,0,0,120.12,141.7Z"/></g><g id="icon-server-2" data-name="icon-server"><path class="cls-32" d="M106.93,140.8a7.37,7.37,0,0,1,.82,0,4.92,4.92,0,0,1,.73.16,1.41,1.41,0,0,1,.53.29.52.52,0,0,1,.2.39v3.14a.54.54,0,0,1-.2.4,1.4,1.4,0,0,1-.53.28,4.92,4.92,0,0,1-.73.16,5.7,5.7,0,0,1-1.65,0,4.92,4.92,0,0,1-.73-.16,1.4,1.4,0,0,1-.53-.28.54.54,0,0,1-.2-.4v-3.14a.52.52,0,0,1,.2-.39,1.41,1.41,0,0,1,.53-.29,4.92,4.92,0,0,1,.73-.16A7.4,7.4,0,0,1,106.93,140.8Zm1.87,4v-1a3,3,0,0,1-.82.26,6.23,6.23,0,0,1-2.11,0,3,3,0,0,1-.82-.26v1a.19.19,0,0,0,.09.09.88.88,0,0,0,.24.12l.37.12a4.46,4.46,0,0,0,.52.08,4.59,4.59,0,0,0,.66,0,4.54,4.54,0,0,0,.65,0,4.46,4.46,0,0,0,.52-.08l.37-.12a.88.88,0,0,0,.24-.12A.25.25,0,0,0,108.8,144.83Zm0-1.57v-1a3,3,0,0,1-.82.26,6.23,6.23,0,0,1-2.11,0,3,3,0,0,1-.82-.26v1a.19.19,0,0,0,.09.09.88.88,0,0,0,.24.12l.37.12.52.09c.21,0,.42,0,.66,0s.44,0,.65,0l.52-.09.37-.12a.88.88,0,0,0,.24-.12.19.19,0,0,0,.09-.09Zm-1.87-2q-.34,0-.66,0a3,3,0,0,0-.51.09,2.36,2.36,0,0,0-.37.11.88.88,0,0,0-.24.12.3.3,0,0,0-.1.09s0,.06.1.1a.88.88,0,0,0,.24.12,2.36,2.36,0,0,0,.37.11,4.38,4.38,0,0,0,.51.09q.32,0,.66,0c.22,0,.44,0,.65,0a4.38,4.38,0,0,0,.51-.09,2.36,2.36,0,0,0,.37-.11.88.88,0,0,0,.24-.12c.06,0,.09-.07.1-.1a.3.3,0,0,0-.1-.09.88.88,0,0,0-.24-.12,2.36,2.36,0,0,0-.37-.11,3,3,0,0,0-.51-.09C107.37,141.26,107.15,141.25,106.93,141.25Z"/></g><g id="icon-server-3" data-name="icon-server"><path class="cls-32" d="M112.81,142.6a12.92,12.92,0,0,1,1.55.09,10.18,10.18,0,0,1,1.38.28,2.92,2.92,0,0,1,1,.5.88.88,0,0,1,.38.69v5.48a.88.88,0,0,1-.38.69,2.83,2.83,0,0,1-1,.5,10.18,10.18,0,0,1-1.38.28,13.39,13.39,0,0,1-3.1,0,10.35,10.35,0,0,1-1.37-.28,2.83,2.83,0,0,1-1-.5.88.88,0,0,1-.38-.69v-5.48a.88.88,0,0,1,.38-.69,2.83,2.83,0,0,1,1-.5,10.35,10.35,0,0,1,1.37-.28A13,13,0,0,1,112.81,142.6Zm3.53,7v-1.78a5.39,5.39,0,0,1-1.55.46,12.6,12.6,0,0,1-2,.16,12.47,12.47,0,0,1-2-.16,5.39,5.39,0,0,1-1.55-.46v1.79s.07.1.17.16a2.63,2.63,0,0,0,.44.21,6.1,6.1,0,0,0,.7.2,8.24,8.24,0,0,0,1,.15,12.74,12.74,0,0,0,2.47,0,8.24,8.24,0,0,0,1-.15,6,6,0,0,0,.7-.21,2.09,2.09,0,0,0,.44-.2A.38.38,0,0,0,116.34,149.63Zm0-2.74v-1.78a5.39,5.39,0,0,1-1.55.46,12.6,12.6,0,0,1-2,.16,12.47,12.47,0,0,1-2-.16,5.39,5.39,0,0,1-1.55-.46v1.79s.07.1.17.16a2,2,0,0,0,.44.21,6.1,6.1,0,0,0,.7.2,8.24,8.24,0,0,0,1,.15,12.74,12.74,0,0,0,2.47,0,8.58,8.58,0,0,0,1-.15,6.52,6.52,0,0,0,.69-.2,3.33,3.33,0,0,0,.45-.21.38.38,0,0,0,.17-.17Zm-3.53-3.51a11.87,11.87,0,0,0-1.22.06,8.58,8.58,0,0,0-1,.15,6.52,6.52,0,0,0-.69.2,2.52,2.52,0,0,0-.45.2c-.1.07-.16.12-.18.17s.08.1.18.17a2.52,2.52,0,0,0,.45.2,4.78,4.78,0,0,0,.69.2,8.58,8.58,0,0,0,1,.15,11.87,11.87,0,0,0,1.22.06,12.07,12.07,0,0,0,1.23-.06,8,8,0,0,0,1-.15,4.58,4.58,0,0,0,.7-.2,2.52,2.52,0,0,0,.45-.2c.1-.07.16-.12.18-.17s-.08-.1-.18-.17a2.52,2.52,0,0,0-.45-.2,6.1,6.1,0,0,0-.7-.2,8,8,0,0,0-1-.15A12.07,12.07,0,0,0,112.81,143.38Z"/></g><path class="cls-20" d="M99.14,156.4v-5h1.47a2.33,2.33,0,0,1,1.18.3,2,2,0,0,1,.79.83,2.73,2.73,0,0,1,.28,1.24V154a2.61,2.61,0,0,1-.29,1.24,1.94,1.94,0,0,1-.8.83,2.44,2.44,0,0,1-1.19.29Zm.87-4.28v3.59h.56a1.28,1.28,0,0,0,1.05-.43,1.89,1.89,0,0,0,.37-1.22v-.28a1.9,1.9,0,0,0-.35-1.23,1.25,1.25,0,0,0-1-.43Z"/><path class="cls-20" d="M105.85,156.4a1.25,1.25,0,0,1-.1-.35,1.28,1.28,0,0,1-1,.42,1.33,1.33,0,0,1-.91-.32,1.11,1.11,0,0,1,.09-1.69,2.06,2.06,0,0,1,1.26-.32h.5v-.24a.63.63,0,0,0-.16-.46.6.6,0,0,0-.48-.18.72.72,0,0,0-.47.15.43.43,0,0,0-.18.36h-.83a.92.92,0,0,1,.2-.57,1.31,1.31,0,0,1,.55-.42,1.92,1.92,0,0,1,.77-.15,1.54,1.54,0,0,1,1,.33,1.13,1.13,0,0,1,.39.92v1.66a2,2,0,0,0,.14.8v.06Zm-.92-.6a1,1,0,0,0,.47-.12.82.82,0,0,0,.32-.32v-.7h-.44a1.32,1.32,0,0,0-.7.16.54.54,0,0,0-.23.46.48.48,0,0,0,.16.38A.64.64,0,0,0,104.93,155.8Z"/><path class="cls-20" d="M108.47,151.8v.9h.65v.62h-.65v2.06a.46.46,0,0,0,.08.31.38.38,0,0,0,.3.09l.29,0v.64a2.15,2.15,0,0,1-.55.08c-.64,0-1-.36-1-1.06v-2.09H107v-.62h.61v-.9Z"/><path class="cls-20" d="M112,156.4a1.32,1.32,0,0,1-.09-.35,1.39,1.39,0,0,1-1.88.1,1,1,0,0,1-.35-.79,1,1,0,0,1,.43-.9,2.1,2.1,0,0,1,1.26-.32h.51v-.24a.59.59,0,0,0-.65-.64.69.69,0,0,0-.46.15.41.41,0,0,0-.19.36h-.83a.87.87,0,0,1,.21-.57,1.27,1.27,0,0,1,.54-.42,2,2,0,0,1,.78-.15,1.52,1.52,0,0,1,1,.33,1.17,1.17,0,0,1,.4.92v1.66a2,2,0,0,0,.14.8v.06Zm-.91-.6a.93.93,0,0,0,.46-.12.79.79,0,0,0,.33-.32v-.7h-.45a1.25,1.25,0,0,0-.69.16.52.52,0,0,0-.23.46.5.5,0,0,0,.15.38A.65.65,0,0,0,111.05,155.8Z"/><path class="cls-20" d="M116.79,154.59a2.21,2.21,0,0,1-.39,1.37,1.26,1.26,0,0,1-1.06.51,1.21,1.21,0,0,1-1-.47l0,.4h-.75v-5.25h.83v1.91a1.19,1.19,0,0,1,1-.43,1.28,1.28,0,0,1,1.06.5,2.27,2.27,0,0,1,.39,1.41Zm-.84-.07a1.59,1.59,0,0,0-.21-.91.69.69,0,0,0-.61-.3.77.77,0,0,0-.76.47v1.53a.78.78,0,0,0,.76.48.72.72,0,0,0,.61-.29,1.5,1.5,0,0,0,.21-.88Z"/><path class="cls-20" d="M119.69,156.4a1.25,1.25,0,0,1-.1-.35,1.26,1.26,0,0,1-1,.42,1.29,1.29,0,0,1-.9-.32,1,1,0,0,1-.36-.79,1,1,0,0,1,.44-.9,2.08,2.08,0,0,1,1.26-.32h.51v-.24a.67.67,0,0,0-.16-.46.63.63,0,0,0-.49-.18.72.72,0,0,0-.47.15.43.43,0,0,0-.18.36h-.83a.92.92,0,0,1,.2-.57,1.37,1.37,0,0,1,.55-.42,1.94,1.94,0,0,1,.78-.15,1.53,1.53,0,0,1,1,.33,1.17,1.17,0,0,1,.4.92v1.66a1.79,1.79,0,0,0,.14.8v.06Zm-.91-.6a.93.93,0,0,0,.46-.12.85.85,0,0,0,.33-.32v-.7h-.45a1.25,1.25,0,0,0-.69.16.52.52,0,0,0-.24.46.51.51,0,0,0,.16.38A.65.65,0,0,0,118.78,155.8Z"/><path class="cls-20" d="M123.34,155.39a.37.37,0,0,0-.18-.33,1.91,1.91,0,0,0-.61-.21,2.82,2.82,0,0,1-.71-.23,1,1,0,0,1-.62-.87,1,1,0,0,1,.41-.8,1.59,1.59,0,0,1,1-.32,1.65,1.65,0,0,1,1.07.33,1,1,0,0,1,.41.85h-.83a.52.52,0,0,0-.18-.4.7.7,0,0,0-.47-.16.8.8,0,0,0-.45.13.41.41,0,0,0-.17.34.35.35,0,0,0,.16.3,2.31,2.31,0,0,0,.65.21,3,3,0,0,1,.77.26,1,1,0,0,1,.41.35.93.93,0,0,1,.14.51,1,1,0,0,1-.42.81,1.77,1.77,0,0,1-1.08.31,1.92,1.92,0,0,1-.81-.17,1.3,1.3,0,0,1-.55-.45,1,1,0,0,1-.2-.62h.8a.62.62,0,0,0,.23.46.89.89,0,0,0,.54.15.86.86,0,0,0,.5-.12A.39.39,0,0,0,123.34,155.39Z"/><path class="cls-20" d="M126.51,156.47a1.73,1.73,0,0,1-1.28-.5,1.78,1.78,0,0,1-.49-1.32v-.11a2.25,2.25,0,0,1,.21-1,1.65,1.65,0,0,1,.6-.68,1.62,1.62,0,0,1,.86-.24,1.45,1.45,0,0,1,1.17.48,2.09,2.09,0,0,1,.41,1.37v.33h-2.41a1.09,1.09,0,0,0,.3.73,1,1,0,0,0,.68.26,1.12,1.12,0,0,0,.93-.46l.44.43a1.4,1.4,0,0,1-.59.51A1.75,1.75,0,0,1,126.51,156.47Zm-.1-3.17a.69.69,0,0,0-.55.24,1.25,1.25,0,0,0-.27.66h1.58v-.06a1,1,0,0,0-.22-.63A.7.7,0,0,0,126.41,153.3Z"/><path class="cls-20" d="M130.71,155.39a.37.37,0,0,0-.18-.33,2,2,0,0,0-.61-.21,2.82,2.82,0,0,1-.71-.23,1,1,0,0,1-.62-.87,1,1,0,0,1,.4-.8,1.62,1.62,0,0,1,1-.32,1.65,1.65,0,0,1,1.07.33,1,1,0,0,1,.41.85h-.83a.52.52,0,0,0-.18-.4.7.7,0,0,0-.47-.16.8.8,0,0,0-.45.13.41.41,0,0,0-.17.34.33.33,0,0,0,.16.3,2.31,2.31,0,0,0,.65.21,3,3,0,0,1,.77.26,1,1,0,0,1,.41.35.93.93,0,0,1,.14.51,1,1,0,0,1-.42.81,1.77,1.77,0,0,1-1.08.31,1.92,1.92,0,0,1-.81-.17,1.3,1.3,0,0,1-.55-.45,1,1,0,0,1-.2-.62h.8a.62.62,0,0,0,.23.46.87.87,0,0,0,.54.15.86.86,0,0,0,.5-.12A.39.39,0,0,0,130.71,155.39Z"/><path class="cls-20" d="M124,136.82v1.84h-.87v-5h1.91a1.91,1.91,0,0,1,1.32.43,1.46,1.46,0,0,1,.49,1.15,1.41,1.41,0,0,1-.48,1.14,2,2,0,0,1-1.34.41Zm0-.7h1a1,1,0,0,0,.7-.22.79.79,0,0,0,.25-.62.89.89,0,0,0-.25-.65.92.92,0,0,0-.68-.24H124Z"/><path class="cls-20" d="M127.35,136.78a2.24,2.24,0,0,1,.21-1,1.65,1.65,0,0,1,.61-.67,1.76,1.76,0,0,1,.89-.23,1.63,1.63,0,0,1,1.22.48,1.88,1.88,0,0,1,.5,1.28v.19a2.21,2.21,0,0,1-.21,1,1.52,1.52,0,0,1-.61.67,1.77,1.77,0,0,1-.9.23,1.59,1.59,0,0,1-1.25-.52,2,2,0,0,1-.47-1.39Zm.83.07a1.58,1.58,0,0,0,.23.9.79.79,0,0,0,.66.32.77.77,0,0,0,.66-.33,1.7,1.7,0,0,0,.23-1,1.49,1.49,0,0,0-.24-.89.77.77,0,0,0-.66-.33.75.75,0,0,0-.64.33A1.58,1.58,0,0,0,128.18,136.85Z"/><path class="cls-20" d="M132.37,138.66h-.83v-5.25h.83Z"/><path class="cls-20" d="M133.28,134a.44.44,0,0,1,.12-.32.45.45,0,0,1,.35-.13.46.46,0,0,1,.35.13.44.44,0,0,1,.12.32.43.43,0,0,1-.12.31.5.5,0,0,1-.35.12.48.48,0,0,1-.35-.12A.43.43,0,0,1,133.28,134Zm.88,4.65h-.83V135h.83Z"/><path class="cls-20" d="M136.58,138.07a.77.77,0,0,0,.52-.18.61.61,0,0,0,.22-.45h.78a1.28,1.28,0,0,1-.21.65,1.58,1.58,0,0,1-.55.47,1.72,1.72,0,0,1-.75.17,1.58,1.58,0,0,1-1.23-.5,2,2,0,0,1-.45-1.39v-.08a1.93,1.93,0,0,1,.45-1.35,1.73,1.73,0,0,1,2.31-.13,1.4,1.4,0,0,1,.43,1h-.78a.75.75,0,0,0-.22-.52.69.69,0,0,0-.52-.21.72.72,0,0,0-.62.3,1.5,1.5,0,0,0-.22.88v.14a1.44,1.44,0,0,0,.22.89A.71.71,0,0,0,136.58,138.07Z"/><path class="cls-20" d="M138.73,134a.44.44,0,0,1,.12-.32.54.54,0,0,1,.7,0,.44.44,0,0,1,.12.32.43.43,0,0,1-.12.31.57.57,0,0,1-.7,0A.43.43,0,0,1,138.73,134Zm.88,4.65h-.83V135h.83Z"/><path class="cls-20" d="M142.15,138.73a1.7,1.7,0,0,1-1.28-.49,1.83,1.83,0,0,1-.5-1.33v-.1a2.25,2.25,0,0,1,.22-1,1.58,1.58,0,0,1,1.46-.92,1.47,1.47,0,0,1,1.17.48,2.06,2.06,0,0,1,.41,1.36v.34h-2.42a1.11,1.11,0,0,0,.31.72.9.9,0,0,0,.67.27,1.12,1.12,0,0,0,.93-.46l.45.43a1.53,1.53,0,0,1-.59.51A1.9,1.9,0,0,1,142.15,138.73Zm-.1-3.17a.71.71,0,0,0-.56.24,1.2,1.2,0,0,0-.26.67h1.58v-.06a1,1,0,0,0-.22-.63A.71.71,0,0,0,142.05,135.56Z"/><path class="cls-20" d="M146.35,137.66a.39.39,0,0,0-.19-.34,1.87,1.87,0,0,0-.6-.2,3.12,3.12,0,0,1-.71-.23.93.93,0,0,1-.62-.87,1,1,0,0,1,.4-.8,1.57,1.57,0,0,1,1-.32,1.67,1.67,0,0,1,1.07.33,1,1,0,0,1,.41.85h-.84a.5.5,0,0,0-.17-.4.67.67,0,0,0-.47-.16.69.69,0,0,0-.45.13.37.37,0,0,0-.17.33.33.33,0,0,0,.16.3,2.31,2.31,0,0,0,.65.22,2.93,2.93,0,0,1,.76.25,1.08,1.08,0,0,1,.42.36.92.92,0,0,1,.13.51,1,1,0,0,1-.41.8,1.75,1.75,0,0,1-1.08.31,1.94,1.94,0,0,1-.82-.16,1.37,1.37,0,0,1-.55-.45,1.09,1.09,0,0,1-.2-.62h.81a.59.59,0,0,0,.22.45.86.86,0,0,0,.55.16.9.9,0,0,0,.5-.12A.42.42,0,0,0,146.35,137.66Z"/><path class="cls-20" d="M145.21,155.19a.59.59,0,0,0-.23-.51,2.66,2.66,0,0,0-.83-.36,4,4,0,0,1-1-.4,1.3,1.3,0,0,1-.68-1.12,1.23,1.23,0,0,1,.49-1,2,2,0,0,1,1.27-.39,2.27,2.27,0,0,1,.93.19,1.5,1.5,0,0,1,.64.55,1.37,1.37,0,0,1,.23.78h-.86a.79.79,0,0,0-.24-.61,1.07,1.07,0,0,0-.7-.22,1.08,1.08,0,0,0-.66.18.6.6,0,0,0-.23.51.55.55,0,0,0,.25.46,2.92,2.92,0,0,0,.83.35,4,4,0,0,1,.94.4,1.44,1.44,0,0,1,.51.5,1.31,1.31,0,0,1,.17.67,1.19,1.19,0,0,1-.48,1,2.1,2.1,0,0,1-1.29.37,2.51,2.51,0,0,1-1-.2,1.71,1.71,0,0,1-.7-.56,1.33,1.33,0,0,1-.25-.82h.86a.82.82,0,0,0,.28.66,1.22,1.22,0,0,0,.81.23,1.05,1.05,0,0,0,.67-.18A.56.56,0,0,0,145.21,155.19Z"/><path class="cls-20" d="M147.8,151.87v.9h.65v.62h-.65v2.06a.46.46,0,0,0,.08.31.38.38,0,0,0,.3.09l.29,0v.64a2.15,2.15,0,0,1-.55.08c-.64,0-.95-.36-.95-1.06v-2.09h-.61v-.62H147v-.9Z"/><path class="cls-20" d="M151.29,156.47a1.32,1.32,0,0,1-.09-.35,1.39,1.39,0,0,1-1.88.1,1,1,0,0,1-.35-.79,1.07,1.07,0,0,1,.43-.91,2.17,2.17,0,0,1,1.26-.31h.51V154a.61.61,0,0,0-.16-.46.63.63,0,0,0-.49-.18.69.69,0,0,0-.46.15.41.41,0,0,0-.19.36H149a.87.87,0,0,1,.21-.57,1.27,1.27,0,0,1,.54-.42,2,2,0,0,1,.78-.15,1.52,1.52,0,0,1,1,.33,1.17,1.17,0,0,1,.4.92v1.66a2,2,0,0,0,.14.8v.06Zm-.91-.6a.93.93,0,0,0,.46-.12.79.79,0,0,0,.33-.32v-.7h-.45a1.25,1.25,0,0,0-.69.16.52.52,0,0,0-.23.46.5.5,0,0,0,.15.38A.65.65,0,0,0,150.38,155.87Z"/><path class="cls-20" d="M153.64,152.77l0,.43a1.32,1.32,0,0,1,1.07-.5c.77,0,1.16.44,1.18,1.32v2.45h-.83v-2.4a.72.72,0,0,0-.16-.52.63.63,0,0,0-.49-.17.79.79,0,0,0-.75.46v2.63h-.83v-3.7Z"/><path class="cls-20" d="M156.61,154.59a2.21,2.21,0,0,1,.39-1.37,1.27,1.27,0,0,1,1.07-.52,1.22,1.22,0,0,1,1,.41v-1.89h.83v5.25h-.75l0-.38a1.21,1.21,0,0,1-1,.45A1.27,1.27,0,0,1,157,156,2.24,2.24,0,0,1,156.61,154.59Zm.83.07a1.57,1.57,0,0,0,.21.88.73.73,0,0,0,.62.32.79.79,0,0,0,.75-.45v-1.58a.78.78,0,0,0-.74-.45.7.7,0,0,0-.62.32A1.68,1.68,0,0,0,157.44,154.66Z"/><path class="cls-20" d="M162.92,156.47a1.32,1.32,0,0,1-.09-.35,1.3,1.3,0,0,1-1,.42,1.31,1.31,0,0,1-.91-.32,1,1,0,0,1-.35-.79,1.05,1.05,0,0,1,.44-.91,2.12,2.12,0,0,1,1.25-.31h.51V154a.61.61,0,0,0-.16-.46.63.63,0,0,0-.49-.18.69.69,0,0,0-.46.15.43.43,0,0,0-.18.36h-.83a.86.86,0,0,1,.2-.57,1.25,1.25,0,0,1,.55-.42,1.89,1.89,0,0,1,.77-.15,1.52,1.52,0,0,1,1,.33,1.17,1.17,0,0,1,.4.92v1.66a2,2,0,0,0,.14.8v.06Zm-.91-.6a.9.9,0,0,0,.46-.12.79.79,0,0,0,.33-.32v-.7h-.45a1.28,1.28,0,0,0-.69.16.52.52,0,0,0-.23.46.48.48,0,0,0,.16.38A.61.61,0,0,0,162,155.87Z"/><path class="cls-20" d="M166.44,153.53a1.87,1.87,0,0,0-.34,0,.77.77,0,0,0-.77.44v2.53h-.83v-3.7h.79l0,.41a.94.94,0,0,1,.84-.48.84.84,0,0,1,.29.05Z"/><path class="cls-20" d="M166.74,154.59a2.15,2.15,0,0,1,.4-1.37,1.25,1.25,0,0,1,1.06-.52,1.22,1.22,0,0,1,1,.41v-1.89H170v5.25h-.75l0-.38a1.23,1.23,0,0,1-1,.45,1.27,1.27,0,0,1-1.05-.53A2.3,2.3,0,0,1,166.74,154.59Zm.83.07a1.49,1.49,0,0,0,.22.88.7.7,0,0,0,.62.32.78.78,0,0,0,.74-.45v-1.58a.77.77,0,0,0-.74-.45.72.72,0,0,0-.62.32A1.77,1.77,0,0,0,167.57,154.66Z"/><path class="cls-20" d="M172.92,155.46a.39.39,0,0,0-.18-.34,2.26,2.26,0,0,0-.61-.2,2.61,2.61,0,0,1-.7-.23.94.94,0,0,1-.63-.87,1,1,0,0,1,.41-.8,1.59,1.59,0,0,1,1-.32,1.65,1.65,0,0,1,1.07.33,1,1,0,0,1,.41.85h-.83a.52.52,0,0,0-.18-.4.7.7,0,0,0-.47-.16.74.74,0,0,0-.44.13.39.39,0,0,0-.18.34.35.35,0,0,0,.16.3,2.31,2.31,0,0,0,.65.21,3,3,0,0,1,.77.26,1,1,0,0,1,.41.35.93.93,0,0,1,.14.51,1,1,0,0,1-.41.81,1.83,1.83,0,0,1-1.09.31,1.92,1.92,0,0,1-.81-.17,1.3,1.3,0,0,1-.55-.45,1.09,1.09,0,0,1-.2-.62h.81a.58.58,0,0,0,.22.46.91.91,0,0,0,.54.15.86.86,0,0,0,.5-.12A.39.39,0,0,0,172.92,155.46Z"/><path class="cls-33" d="M150.85,149.61a.26.26,0,0,1-.27.24h-7.27a.26.26,0,0,1-.27-.24v-9.78a.26.26,0,0,1,.27-.24h7.27a.26.26,0,0,1,.27.24Z"/><path class="cls-22" d="M150.85,149.61a.26.26,0,0,1-.27.24h-7.27a.26.26,0,0,1-.27-.24v-9.78a.26.26,0,0,1,.27-.24h7.27a.26.26,0,0,1,.27.24Z"/><path class="cls-22" d="M150.58,149.28a.24.24,0,0,1-.25.22h-6.82a.24.24,0,0,1-.25-.22v-9.12a.24.24,0,0,1,.25-.23h6.82a.24.24,0,0,1,.25.23Z"/><rect class="cls-6" x="144.23" y="141.85" width="5.16" height="0.82"/><rect class="cls-6" x="144.23" y="143.43" width="3.41" height="0.82"/><rect class="cls-6" x="144.23" y="144.97" width="5.73" height="0.82"/><rect class="cls-6" x="144.23" y="146.59" width="3.41" height="0.82"/><path class="cls-18" d="M146.92,142.7a2,2,0,1,0,2,2A2,2,0,0,0,146.92,142.7Zm1.17,1.49-1.46,1.45a.07.07,0,0,1-.1,0l-.78-.77a.07.07,0,0,1,0-.1l.31-.31a.09.09,0,0,1,.1,0l.37.38a.07.07,0,0,0,.1,0l1.05-1.05a.09.09,0,0,1,.1,0l.31.31A.06.06,0,0,1,148.09,144.19Z"/><path class="cls-22" d="M148.09,144.19l-1.46,1.45a.07.07,0,0,1-.1,0l-.78-.77a.07.07,0,0,1,0-.1l.31-.31a.09.09,0,0,1,.1,0l.37.38a.07.07,0,0,0,.1,0l1.05-1.05a.09.09,0,0,1,.1,0l.31.31A.06.06,0,0,1,148.09,144.19Z"/><path class="cls-33" d="M174.58,149.8a.26.26,0,0,1-.27.25H167a.26.26,0,0,1-.27-.25V140a.26.26,0,0,1,.27-.25h7.32a.26.26,0,0,1,.27.25Z"/><path class="cls-22" d="M174.58,149.8a.26.26,0,0,1-.27.25H167a.26.26,0,0,1-.27-.25V140a.26.26,0,0,1,.27-.25h7.32a.26.26,0,0,1,.27.25Z"/><g class="cls-34"><rect class="cls-6" x="167.52" y="141.73" width="1.83" height="0.92"/></g><g class="cls-34"><rect class="cls-6" x="167.52" y="143.06" width="1.83" height="0.92"/></g><g class="cls-34"><rect class="cls-6" x="167.52" y="144.39" width="1.83" height="0.92"/></g><g class="cls-34"><rect class="cls-6" x="167.52" y="145.72" width="1.83" height="0.92"/></g><g class="cls-34"><rect class="cls-6" x="167.52" y="147.05" width="1.83" height="0.92"/></g><rect class="cls-6" x="169.88" y="141.73" width="1.83" height="0.92"/><rect class="cls-6" x="169.88" y="143.06" width="1.83" height="0.92"/><rect class="cls-6" x="169.88" y="144.39" width="1.83" height="0.92"/><rect class="cls-6" x="169.88" y="145.72" width="1.83" height="0.92"/><rect class="cls-6" x="169.88" y="147.05" width="1.83" height="0.92"/><g class="cls-34"><rect class="cls-6" x="172.24" y="141.73" width="1.83" height="0.92"/></g><g class="cls-34"><rect class="cls-6" x="172.24" y="143.06" width="1.83" height="0.92"/></g><g class="cls-34"><rect class="cls-6" x="172.24" y="144.39" width="1.83" height="0.92"/></g><g class="cls-34"><rect class="cls-6" x="172.24" y="145.72" width="1.83" height="0.92"/></g><g class="cls-34"><rect class="cls-6" x="172.24" y="147.05" width="1.83" height="0.92"/></g><path class="cls-18" d="M174,146.57v-1.24h-2a.12.12,0,0,1-.12-.12V144a.13.13,0,0,1,.12-.12h2v-1.23c0-.07,0-.09.1,0l2.48,1.93a.08.08,0,0,1,0,.14l-2.48,1.93c-.06,0-.1,0-.1-.05"/><path class="cls-33" d="M168.19,150.29a.29.29,0,0,1-.31.28h-8.39a.28.28,0,0,1-.3-.28V139a.29.29,0,0,1,.3-.28h8.39a.3.3,0,0,1,.31.28Z"/><path class="cls-22" d="M168.19,150.29a.29.29,0,0,1-.31.28h-8.39a.28.28,0,0,1-.3-.28V139a.29.29,0,0,1,.3-.28h8.39a.3.3,0,0,1,.31.28Z"/><path class="cls-18" d="M162.09,143a.3.3,0,0,1,.11-.24.39.39,0,0,1,.28-.1.37.37,0,0,1,.28.1.3.3,0,0,1,.11.24.34.34,0,0,1-.11.25.41.41,0,0,1-.28.09.43.43,0,0,1-.28-.09A.34.34,0,0,1,162.09,143Zm.75,2.83h-.71v-2.25h.71Z"/><path class="cls-18" d="M163.3,145.86v-3h1a1.43,1.43,0,0,1,.72.18,1.23,1.23,0,0,1,.5.51,1.53,1.53,0,0,1,.18.74v.14a1.54,1.54,0,0,1-.17.75,1.23,1.23,0,0,1-.5.51,1.42,1.42,0,0,1-.71.19Zm.73-2.46v1.9h.25a.56.56,0,0,0,.48-.23,1.09,1.09,0,0,0,.17-.66v-.13a1.11,1.11,0,0,0-.17-.66.56.56,0,0,0-.49-.22Z"/><polyline class="cls-35" points="164.58 141.38 166.81 141.38 166.81 142.88 166.81 143.3"/><polyline class="cls-35" points="160.59 143.6 160.59 141.38 162.09 141.38 162.51 141.38"/><polyline class="cls-35" points="162.81 147.37 160.59 147.37 160.59 145.87 160.59 145.45"/><polyline class="cls-35" points="166.81 145.15 166.81 147.37 165.3 147.37 164.89 147.37"/><path class="cls-33" d="M158.5,150.33a.3.3,0,0,1-.31.28H149.8a.29.29,0,0,1-.3-.28V139.06a.29.29,0,0,1,.3-.28h8.39a.3.3,0,0,1,.31.28Z"/><path class="cls-22" d="M158.5,150.33a.3.3,0,0,1-.31.28H149.8a.29.29,0,0,1-.3-.28V139.06a.29.29,0,0,1,.3-.28h8.39a.3.3,0,0,1,.31.28Z"/><path class="cls-18" d="M155.51,144.14v-.58a.84.84,0,0,0-.87-.87h-.5c-.36,0-.39-.17-.4-.26v-.71a.6.6,0,1,0-.84-.56.61.61,0,0,0,.36.56v.71c0,.06,0,.26-.39.26h-.5a.84.84,0,0,0-.87.87v.58a.6.6,0,1,0,.84.56.61.61,0,0,0-.36-.56v-.58a.37.37,0,0,1,.39-.39h.5a1.07,1.07,0,0,0,.39-.06v1a.61.61,0,0,0-.36.56.61.61,0,1,0,.84-.56v-1a1.16,1.16,0,0,0,.4.06h.5a.36.36,0,0,1,.39.39v.58a.61.61,0,0,0-.36.56.61.61,0,1,0,.84-.56Zm-3.42.56a.35.35,0,0,1-.35.35.35.35,0,0,1-.35-.35.34.34,0,0,1,.35-.35A.35.35,0,0,1,152.09,144.7Zm1.06-3.54a.35.35,0,0,1,.35-.35.35.35,0,0,1,.35.35.34.34,0,0,1-.35.35A.35.35,0,0,1,153.15,141.16Zm.7,3.54a.35.35,0,0,1-.35.35.35.35,0,0,1-.35-.35.35.35,0,0,1,.35-.35A.34.34,0,0,1,153.85,144.7Zm1.42.35a.35.35,0,0,1-.35-.35.35.35,0,0,1,.7,0A.35.35,0,0,1,155.27,145.05Z"/><path class="cls-21" d="M157.27,147.67v-.58a.84.84,0,0,0-.87-.87h-.5c-.36,0-.39-.18-.39-.27v-.7a.61.61,0,0,0,.36-.56.61.61,0,1,0-.84.56v.7c0,.07,0,.27-.4.27h-.5a.84.84,0,0,0-.87.87v.58a.6.6,0,1,0,.84.56.61.61,0,0,0-.36-.56v-.58a.37.37,0,0,1,.39-.39h.5a1.16,1.16,0,0,0,.4-.06v1a.6.6,0,1,0,.84.56.61.61,0,0,0-.36-.56v-1a1.07,1.07,0,0,0,.39.06h.5a.36.36,0,0,1,.39.39v.58a.61.61,0,0,0-.36.56.61.61,0,1,0,.84-.56Zm-3.42.56a.35.35,0,0,1-.7,0,.35.35,0,0,1,.7,0Zm1.07-3.54a.35.35,0,0,1,.35-.35.35.35,0,0,1,0,.7A.35.35,0,0,1,154.92,144.69Zm.7,3.54a.35.35,0,0,1-.35.35.35.35,0,0,1-.35-.35.34.34,0,0,1,.35-.35A.35.35,0,0,1,155.62,148.23Zm1.41.35a.35.35,0,0,1-.35-.35.35.35,0,0,1,.35-.35.34.34,0,0,1,.35.35A.35.35,0,0,1,157,148.58Z"/><path class="cls-36" d="M141.94,132.49a.37.37,0,0,1-.38.35H131a.37.37,0,0,1-.38-.35V118.3a.37.37,0,0,1,.38-.36h10.57a.37.37,0,0,1,.38.36Z"/><path class="cls-6" d="M141.56,133H131a.5.5,0,0,1-.52-.49V118.3a.51.51,0,0,1,.52-.5h10.57a.51.51,0,0,1,.52.5v14.19A.5.5,0,0,1,141.56,133ZM131,118.08a.24.24,0,0,0-.25.22v14.19a.23.23,0,0,0,.25.21h10.57a.23.23,0,0,0,.24-.21V118.3a.23.23,0,0,0-.24-.22Z"/><path class="cls-22" d="M141.94,132.49a.37.37,0,0,1-.38.35H131a.37.37,0,0,1-.38-.35V118.3a.37.37,0,0,1,.38-.36h10.57a.37.37,0,0,1,.38.36Z"/><path class="cls-29" d="M141,130.69a1,1,0,1,1-1-1A1,1,0,0,1,141,130.69Z"/><path class="cls-29" d="M140,132.17a1.48,1.48,0,1,1,1.48-1.48A1.49,1.49,0,0,1,140,132.17Zm0-2.68a1.2,1.2,0,1,0,1.2,1.2A1.2,1.2,0,0,0,140,129.49Z"/><rect class="cls-6" x="132.45" y="121.73" width="7.4" height="1.1"/><rect class="cls-6" x="132.45" y="123.71" width="5.72" height="1.1"/><rect class="cls-6" x="132.45" y="125.7" width="3.39" height="1.1"/><rect class="cls-6" x="137" y="125.65" width="3.39" height="1.1"/><rect class="cls-6" x="132.45" y="127.69" width="5.72" height="1.1"/><rect class="cls-18" x="132.45" y="120.02" width="5.3" height="0.87"/><path class="cls-36" d="M129.48,131.55a.3.3,0,0,1-.32.29h-8.7a.31.31,0,0,1-.32-.29V119.86a.31.31,0,0,1,.32-.29h8.7a.3.3,0,0,1,.32.29Z"/><path class="cls-22" d="M129.48,131.55a.3.3,0,0,1-.32.29h-8.7a.31.31,0,0,1-.32-.29V119.86a.31.31,0,0,1,.32-.29h8.7a.3.3,0,0,1,.32.29Z"/><path class="cls-29" d="M128.73,130.07a.83.83,0,1,1-.82-.83A.82.82,0,0,1,128.73,130.07Z"/><path class="cls-29" d="M127.91,131.26a1.2,1.2,0,1,1,1.19-1.19A1.2,1.2,0,0,1,127.91,131.26Zm0-2.21a1,1,0,1,0,0,2,1,1,0,0,0,0-2Z"/><rect class="cls-6" x="121.66" y="122.78" width="6.09" height="0.72"/><rect class="cls-6" x="121.66" y="124.42" width="2.79" height="0.72"/><rect class="cls-6" x="121.66" y="126.05" width="2.79" height="0.72"/><rect class="cls-6" x="121.66" y="127.69" width="4.71" height="0.72"/><rect class="cls-37" x="121.66" y="121.28" width="4.37" height="0.72"/><path class="cls-22" d="M152.57,131.55a.3.3,0,0,1-.32.29h-8.7a.3.3,0,0,1-.31-.29V119.86a.3.3,0,0,1,.31-.29h8.7a.3.3,0,0,1,.32.29Z"/><path class="cls-29" d="M151.83,130.07a.83.83,0,1,1-.83-.83A.83.83,0,0,1,151.83,130.07Z"/><path class="cls-29" d="M151,131.26a1.2,1.2,0,1,1,1.19-1.19A1.19,1.19,0,0,1,151,131.26Zm0-2.21a1,1,0,1,0,1,1A1,1,0,0,0,151,129.05Z"/><rect class="cls-6" x="144.75" y="122.78" width="6.09" height="0.72"/><rect class="cls-6" x="144.75" y="124.42" width="4.71" height="0.72"/><rect class="cls-6" x="144.75" y="126.05" width="3.15" height="0.72"/><rect class="cls-6" x="147.88" y="127.69" width="1.67" height="0.72"/><rect class="cls-6" x="144.75" y="127.69" width="2.18" height="0.72"/><rect class="cls-21" x="144.75" y="121.28" width="4.37" height="0.72"/></svg>